<?xml version="1.0" encoding="UTF-8" standalone="no"?>
<!DOCTYPE svg PUBLIC "-//W3C//DTD SVG 1.1//EN"
 "http://www.w3.org/Graphics/SVG/1.1/DTD/svg11.dtd">
<!-- Generated by graphviz version 2.36.0 (20140111.2315)
 -->
<!-- Title: Workflow Pages: 1 -->
<svg width="667pt" height="1370pt"
 viewBox="0.00 0.00 667.00 1370.00" xmlns="http://www.w3.org/2000/svg" xmlns:xlink="http://www.w3.org/1999/xlink">
<g id="graph0" class="graph" transform="scale(1 1) rotate(0) translate(4 1366)">
<title>Workflow</title>
<polygon fill="white" stroke="none" points="-4,4 -4,-1366 663,-1366 663,4 -4,4"/>
<text text-anchor="middle" x="329.5" y="-1343.6" font-family="Helvetica,sans-Serif" font-size="18.00">DwCA_Taxon_Lookup</text>
<g id="clust1" class="cluster"><title>cluster_workflow_box_outer</title>
<polygon fill="none" stroke="black" stroke-width="2" points="8,-62 8,-1272 651,-1272 651,-62 8,-62"/>
</g>
<g id="clust2" class="cluster"><title>cluster_workflow_box_inner</title>
<polygon fill="none" stroke="black" stroke-width="0" points="16,-70 16,-1264 643,-1264 643,-70 16,-70"/>
</g>
<g id="clust3" class="cluster"><title>cluster_input_ports_group_outer</title>
<polygon fill="none" stroke="black" stroke-width="0" points="260,-1280 260,-1326 306,-1326 306,-1280 260,-1280"/>
</g>
<g id="clust4" class="cluster"><title>cluster_input_ports_group_inner</title>
<polygon fill="none" stroke="black" stroke-width="0" points="268,-1288 268,-1318 298,-1318 298,-1288 268,-1288"/>
</g>
<g id="clust5" class="cluster"><title>cluster_output_ports_group_outer</title>
<polygon fill="none" stroke="black" stroke-width="0" points="321,-8 321,-54 399,-54 399,-8 321,-8"/>
</g>
<g id="clust6" class="cluster"><title>cluster_output_ports_group_inner</title>
<polygon fill="none" stroke="black" stroke-width="0" points="329,-16 329,-46 391,-46 391,-16 329,-16"/>
</g>
<!-- Setup -->
<g id="node1" class="node"><title>Setup</title>
<polygon fill="#ccffcc" stroke="black" points="72,-1122.5 72,-1183.5 494,-1183.5 494,-1122.5 72,-1122.5"/>
<text text-anchor="middle" x="283" y="-1168.3" font-family="Helvetica,sans-Serif" font-size="14.00">Setup</text>
<polyline fill="none" stroke="black" points="72,-1160.5 494,-1160.5 "/>
<text text-anchor="middle" x="283" y="-1145.3" font-family="Helvetica,sans-Serif" font-size="14.00">Create a unique workspace and transform the input file to a file</text>
<text text-anchor="middle" x="283" y="-1130.3" font-family="Helvetica,sans-Serif" font-size="14.00"> with chosen format and field names standardized to Darwin Core</text>
</g>
<!-- OccurrenceFile -->
<g id="node11" class="node"><title>OccurrenceFile</title>
<path fill="#ffffcc" stroke="black" d="M204,-1039C204,-1039 410,-1039 410,-1039 416,-1039 422,-1045 422,-1051 422,-1051 422,-1073 422,-1073 422,-1079 416,-1085 410,-1085 410,-1085 204,-1085 204,-1085 198,-1085 192,-1079 192,-1073 192,-1073 192,-1051 192,-1051 192,-1045 198,-1039 204,-1039"/>
<text text-anchor="middle" x="307" y="-1069.8" font-family="Helvetica,sans-Serif" font-size="14.00">OccurrenceFile</text>
<polyline fill="none" stroke="black" points="192,-1062 422,-1062 "/>
<text text-anchor="middle" x="307" y="-1046.8" font-family="Helvetica,sans-Serif" font-size="14.00">file:{workspace}/darwinized_file.txt</text>
</g>
<!-- Setup&#45;&gt;OccurrenceFile -->
<g id="edge2" class="edge"><title>Setup&#45;&gt;OccurrenceFile</title>
<path fill="none" stroke="black" d="M290.992,-1122.36C293.369,-1113.55 295.984,-1103.85 298.399,-1094.89"/>
<polygon fill="black" stroke="black" points="301.793,-1095.75 301.017,-1085.19 295.034,-1093.93 301.793,-1095.75"/>
</g>
<!-- Workspace -->
<g id="node18" class="node"><title>Workspace</title>
<path fill="#ffffcc" stroke="black" d="M104.25,-996C104.25,-996 41.75,-996 41.75,-996 35.75,-996 29.75,-990 29.75,-984 29.75,-984 29.75,-972 29.75,-972 29.75,-966 35.75,-960 41.75,-960 41.75,-960 104.25,-960 104.25,-960 110.25,-960 116.25,-966 116.25,-972 116.25,-972 116.25,-984 116.25,-984 116.25,-990 110.25,-996 104.25,-996"/>
<text text-anchor="middle" x="73" y="-974.3" font-family="Helvetica,sans-Serif" font-size="14.00">Workspace</text>
</g>
<!-- Setup&#45;&gt;Workspace -->
<g id="edge1" class="edge"><title>Setup&#45;&gt;Workspace</title>
<path fill="none" stroke="black" d="M234.149,-1122.38C217.448,-1111.57 198.965,-1098.84 183,-1086 150.876,-1060.16 117.393,-1026.46 95.9334,-1003.84"/>
<polygon fill="black" stroke="black" points="98.2697,-1001.22 88.8661,-996.339 93.1735,-1006.02 98.2697,-1001.22"/>
</g>
<!-- FileToDataStream -->
<g id="node2" class="node"><title>FileToDataStream</title>
<polygon fill="#ccffcc" stroke="black" points="137,-955 137,-1001 541,-1001 541,-955 137,-955"/>
<text text-anchor="middle" x="339" y="-985.8" font-family="Helvetica,sans-Serif" font-size="14.00">FileToDataStream</text>
<polyline fill="none" stroke="black" points="137,-978 541,-978 "/>
<text text-anchor="middle" x="339" y="-962.8" font-family="Helvetica,sans-Serif" font-size="14.00">Take the darwinized occurrence file and stream records from it</text>
</g>
<!-- DataRecord -->
<g id="node12" class="node"><title>DataRecord</title>
<path fill="#ffffcc" stroke="black" d="M373.25,-918C373.25,-918 306.75,-918 306.75,-918 300.75,-918 294.75,-912 294.75,-906 294.75,-906 294.75,-894 294.75,-894 294.75,-888 300.75,-882 306.75,-882 306.75,-882 373.25,-882 373.25,-882 379.25,-882 385.25,-888 385.25,-894 385.25,-894 385.25,-906 385.25,-906 385.25,-912 379.25,-918 373.25,-918"/>
<text text-anchor="middle" x="340" y="-896.3" font-family="Helvetica,sans-Serif" font-size="14.00">DataRecord</text>
</g>
<!-- FileToDataStream&#45;&gt;DataRecord -->
<g id="edge4" class="edge"><title>FileToDataStream&#45;&gt;DataRecord</title>
<path fill="none" stroke="black" d="M339.295,-954.609C339.402,-946.481 339.524,-937.2 339.636,-928.671"/>
<polygon fill="black" stroke="black" points="343.139,-928.457 339.771,-918.412 336.14,-928.365 343.139,-928.457"/>
</g>
<!-- EnvironmentTagger -->
<g id="node3" class="node"><title>EnvironmentTagger</title>
<polygon fill="#ccffcc" stroke="black" points="48.5,-799 48.5,-845 633.5,-845 633.5,-799 48.5,-799"/>
<text text-anchor="middle" x="341" y="-829.8" font-family="Helvetica,sans-Serif" font-size="14.00">EnvironmentTagger</text>
<polyline fill="none" stroke="black" points="48.5,-822 633.5,-822 "/>
<text text-anchor="middle" x="341" y="-806.8" font-family="Helvetica,sans-Serif" font-size="14.00">Tag each record that appears to be marine with isMarine=TRUE, else with isMarine=FALSE</text>
</g>
<!-- TaggedDataRecord -->
<g id="node13" class="node"><title>TaggedDataRecord</title>
<path fill="#ffffcc" stroke="black" d="M398.25,-762C398.25,-762 283.75,-762 283.75,-762 277.75,-762 271.75,-756 271.75,-750 271.75,-750 271.75,-738 271.75,-738 271.75,-732 277.75,-726 283.75,-726 283.75,-726 398.25,-726 398.25,-726 404.25,-726 410.25,-732 410.25,-738 410.25,-738 410.25,-750 410.25,-750 410.25,-756 404.25,-762 398.25,-762"/>
<text text-anchor="middle" x="341" y="-740.3" font-family="Helvetica,sans-Serif" font-size="14.00">TaggedDataRecord</text>
</g>
<!-- EnvironmentTagger&#45;&gt;TaggedDataRecord -->
<g id="edge7" class="edge"><title>EnvironmentTagger&#45;&gt;TaggedDataRecord</title>
<path fill="none" stroke="black" d="M341,-798.609C341,-790.481 341,-781.2 341,-772.671"/>
<polygon fill="black" stroke="black" points="344.5,-772.412 341,-762.412 337.5,-772.412 344.5,-772.412"/>
</g>
<!-- LogFile -->
<g id="node21" class="node"><title>LogFile</title>
<path fill="#ffffcc" stroke="black" d="M430,-403C430,-403 506,-403 506,-403 512,-403 518,-409 518,-415 518,-415 518,-437 518,-437 518,-443 512,-449 506,-449 506,-449 430,-449 430,-449 424,-449 418,-443 418,-437 418,-437 418,-415 418,-415 418,-409 424,-403 430,-403"/>
<text text-anchor="middle" x="468" y="-433.8" font-family="Helvetica,sans-Serif" font-size="14.00">LogFile</text>
<polyline fill="none" stroke="black" points="418,-426 518,-426 "/>
<text text-anchor="middle" x="468" y="-410.8" font-family="Helvetica,sans-Serif" font-size="14.00">file:runlog.log</text>
</g>
<!-- EnvironmentTagger&#45;&gt;LogFile -->
<g id="edge6" class="edge"><title>EnvironmentTagger&#45;&gt;LogFile</title>
<path fill="none" stroke="black" d="M488.358,-798.931C561.321,-778.756 634,-740.27 634,-667 634,-667 634,-667 634,-587 634,-535.673 614.546,-522.04 578,-486 563.612,-471.811 545.112,-460.131 527.403,-451.015"/>
<polygon fill="black" stroke="black" points="528.756,-447.779 518.241,-446.481 525.652,-454.053 528.756,-447.779"/>
</g>
<!-- FilterToJustMarine -->
<g id="node4" class="node"><title>FilterToJustMarine</title>
<polygon fill="#ccffcc" stroke="black" points="341.5,-643 341.5,-689 614.5,-689 614.5,-643 341.5,-643"/>
<text text-anchor="middle" x="478" y="-673.8" font-family="Helvetica,sans-Serif" font-size="14.00">FilterToJustMarine</text>
<polyline fill="none" stroke="black" points="341.5,-666 614.5,-666 "/>
<text text-anchor="middle" x="478" y="-650.8" font-family="Helvetica,sans-Serif" font-size="14.00">Pass only records where isMarine=TRUE</text>
</g>
<!-- MarineDataRecord -->
<g id="node14" class="node"><title>MarineDataRecord</title>
<path fill="#ffffcc" stroke="black" d="M516,-606C516,-606 406,-606 406,-606 400,-606 394,-600 394,-594 394,-594 394,-582 394,-582 394,-576 400,-570 406,-570 406,-570 516,-570 516,-570 522,-570 528,-576 528,-582 528,-582 528,-594 528,-594 528,-600 522,-606 516,-606"/>
<text text-anchor="middle" x="461" y="-584.3" font-family="Helvetica,sans-Serif" font-size="14.00">MarineDataRecord</text>
</g>
<!-- FilterToJustMarine&#45;&gt;MarineDataRecord -->
<g id="edge10" class="edge"><title>FilterToJustMarine&#45;&gt;MarineDataRecord</title>
<path fill="none" stroke="black" d="M472.991,-642.609C471.153,-634.391 469.051,-624.994 467.126,-616.387"/>
<polygon fill="black" stroke="black" points="470.493,-615.407 464.895,-606.412 463.662,-616.935 470.493,-615.407"/>
</g>
<!-- FilterToJustMarine&#45;&gt;LogFile -->
<g id="edge9" class="edge"><title>FilterToJustMarine&#45;&gt;LogFile</title>
<path fill="none" stroke="black" d="M504.029,-642.853C540.939,-608.655 600.671,-541.18 569,-486 559.618,-469.653 543.763,-457.405 527.362,-448.431"/>
<polygon fill="black" stroke="black" points="528.731,-445.2 518.232,-443.777 525.552,-451.437 528.731,-445.2"/>
</g>
<!-- FilterToNonMarine -->
<g id="node5" class="node"><title>FilterToNonMarine</title>
<polygon fill="#ccffcc" stroke="black" points="44.5,-643 44.5,-689 323.5,-689 323.5,-643 44.5,-643"/>
<text text-anchor="middle" x="184" y="-673.8" font-family="Helvetica,sans-Serif" font-size="14.00">FilterToNonMarine</text>
<polyline fill="none" stroke="black" points="44.5,-666 323.5,-666 "/>
<text text-anchor="middle" x="184" y="-650.8" font-family="Helvetica,sans-Serif" font-size="14.00">Pass only records where isMarine=FALSE</text>
</g>
<!-- notMarineDataRecord -->
<g id="node15" class="node"><title>notMarineDataRecord</title>
<path fill="#ffffcc" stroke="black" d="M241.25,-606C241.25,-606 112.75,-606 112.75,-606 106.75,-606 100.75,-600 100.75,-594 100.75,-594 100.75,-582 100.75,-582 100.75,-576 106.75,-570 112.75,-570 112.75,-570 241.25,-570 241.25,-570 247.25,-570 253.25,-576 253.25,-582 253.25,-582 253.25,-594 253.25,-594 253.25,-600 247.25,-606 241.25,-606"/>
<text text-anchor="middle" x="177" y="-584.3" font-family="Helvetica,sans-Serif" font-size="14.00">notMarineDataRecord</text>
</g>
<!-- FilterToNonMarine&#45;&gt;notMarineDataRecord -->
<g id="edge13" class="edge"><title>FilterToNonMarine&#45;&gt;notMarineDataRecord</title>
<path fill="none" stroke="black" d="M181.938,-642.609C181.181,-634.391 180.315,-624.994 179.522,-616.387"/>
<polygon fill="black" stroke="black" points="183.006,-616.049 178.604,-606.412 176.036,-616.691 183.006,-616.049"/>
</g>
<!-- FilterToNonMarine&#45;&gt;LogFile -->
<g id="edge12" class="edge"><title>FilterToNonMarine&#45;&gt;LogFile</title>
<path fill="none" stroke="black" d="M221.925,-642.868C236.077,-633.066 251.29,-620.465 262,-606 270.45,-594.586 295.897,-495.981 306,-486 340.199,-452.214 362.885,-466.605 408,-450 408.101,-449.963 408.203,-449.925 408.305,-449.888"/>
<polygon fill="black" stroke="black" points="409.795,-453.068 417.947,-446.302 407.355,-446.507 409.795,-453.068"/>
</g>
<!-- WoRMSLookup -->
<g id="node6" class="node"><title>WoRMSLookup</title>
<polygon fill="#ccffcc" stroke="black" points="315.5,-487 315.5,-533 560.5,-533 560.5,-487 315.5,-487"/>
<text text-anchor="middle" x="438" y="-517.8" font-family="Helvetica,sans-Serif" font-size="14.00">WoRMSLookup</text>
<polyline fill="none" stroke="black" points="315.5,-510 560.5,-510 "/>
<text text-anchor="middle" x="438" y="-494.8" font-family="Helvetica,sans-Serif" font-size="14.00">Lookup GUIDs for names in WoRMS</text>
</g>
<!-- WoRMSUpdatedRecord -->
<g id="node17" class="node"><title>WoRMSUpdatedRecord</title>
<path fill="#ffffcc" stroke="black" d="M387.25,-444C387.25,-444 244.75,-444 244.75,-444 238.75,-444 232.75,-438 232.75,-432 232.75,-432 232.75,-420 232.75,-420 232.75,-414 238.75,-408 244.75,-408 244.75,-408 387.25,-408 387.25,-408 393.25,-408 399.25,-414 399.25,-420 399.25,-420 399.25,-432 399.25,-432 399.25,-438 393.25,-444 387.25,-444"/>
<text text-anchor="middle" x="316" y="-422.3" font-family="Helvetica,sans-Serif" font-size="14.00">WoRMSUpdatedRecord</text>
</g>
<!-- WoRMSLookup&#45;&gt;WoRMSUpdatedRecord -->
<g id="edge15" class="edge"><title>WoRMSLookup&#45;&gt;WoRMSUpdatedRecord</title>
<path fill="none" stroke="black" d="M404.985,-486.81C387.919,-475.339 367.121,-461.36 349.925,-449.802"/>
<polygon fill="black" stroke="black" points="351.551,-446.678 341.299,-444.004 347.646,-452.488 351.551,-446.678"/>
</g>
<!-- WoRMSLookup&#45;&gt;LogFile -->
<g id="edge16" class="edge"><title>WoRMSLookup&#45;&gt;LogFile</title>
<path fill="none" stroke="black" d="M446.198,-486.593C449.365,-477.935 453.046,-467.874 456.471,-458.512"/>
<polygon fill="black" stroke="black" points="459.767,-459.69 459.916,-449.096 453.193,-457.285 459.767,-459.69"/>
</g>
<!-- GBIFLookup -->
<g id="node7" class="node"><title>GBIFLookup</title>
<polygon fill="#ccffcc" stroke="black" points="51,-487 51,-533 277,-533 277,-487 51,-487"/>
<text text-anchor="middle" x="164" y="-517.8" font-family="Helvetica,sans-Serif" font-size="14.00">GBIFLookup</text>
<polyline fill="none" stroke="black" points="51,-510 277,-510 "/>
<text text-anchor="middle" x="164" y="-494.8" font-family="Helvetica,sans-Serif" font-size="14.00">Lookup GUIDs for names in GBIF</text>
</g>
<!-- GBIFUpdatedRecord -->
<g id="node16" class="node"><title>GBIFUpdatedRecord</title>
<path fill="#ffffcc" stroke="black" d="M202.25,-444C202.25,-444 79.75,-444 79.75,-444 73.75,-444 67.75,-438 67.75,-432 67.75,-432 67.75,-420 67.75,-420 67.75,-414 73.75,-408 79.75,-408 79.75,-408 202.25,-408 202.25,-408 208.25,-408 214.25,-414 214.25,-420 214.25,-420 214.25,-432 214.25,-432 214.25,-438 208.25,-444 202.25,-444"/>
<text text-anchor="middle" x="141" y="-422.3" font-family="Helvetica,sans-Serif" font-size="14.00">GBIFUpdatedRecord</text>
</g>
<!-- GBIFLookup&#45;&gt;GBIFUpdatedRecord -->
<g id="edge18" class="edge"><title>GBIFLookup&#45;&gt;GBIFUpdatedRecord</title>
<path fill="none" stroke="black" d="M157.715,-486.593C154.902,-476.564 151.561,-464.652 148.608,-454.123"/>
<polygon fill="black" stroke="black" points="151.889,-452.861 145.818,-444.177 145.149,-454.751 151.889,-452.861"/>
</g>
<!-- GBIFLookup&#45;&gt;LogFile -->
<g id="edge19" class="edge"><title>GBIFLookup&#45;&gt;LogFile</title>
<path fill="none" stroke="black" d="M268.096,-486.941C311.673,-476.905 362.641,-464.113 408,-450 408.1,-449.969 408.2,-449.938 408.3,-449.907"/>
<polygon fill="black" stroke="black" points="409.342,-453.248 417.75,-446.802 407.158,-446.598 409.342,-453.248"/>
</g>
<!-- StreamMerge -->
<g id="node8" class="node"><title>StreamMerge</title>
<polygon fill="#ccffcc" stroke="black" points="132.5,-319 132.5,-365 331.5,-365 331.5,-319 132.5,-319"/>
<text text-anchor="middle" x="232" y="-349.8" font-family="Helvetica,sans-Serif" font-size="14.00">StreamMerge</text>
<polyline fill="none" stroke="black" points="132.5,-342 331.5,-342 "/>
<text text-anchor="middle" x="232" y="-326.8" font-family="Helvetica,sans-Serif" font-size="14.00">Merge the streams of records</text>
</g>
<!-- MergedStream -->
<g id="node19" class="node"><title>MergedStream</title>
<path fill="#ffffcc" stroke="black" d="M274.25,-282C274.25,-282 189.75,-282 189.75,-282 183.75,-282 177.75,-276 177.75,-270 177.75,-270 177.75,-258 177.75,-258 177.75,-252 183.75,-246 189.75,-246 189.75,-246 274.25,-246 274.25,-246 280.25,-246 286.25,-252 286.25,-258 286.25,-258 286.25,-270 286.25,-270 286.25,-276 280.25,-282 274.25,-282"/>
<text text-anchor="middle" x="232" y="-260.3" font-family="Helvetica,sans-Serif" font-size="14.00">MergedStream</text>
</g>
<!-- StreamMerge&#45;&gt;MergedStream -->
<g id="edge21" class="edge"><title>StreamMerge&#45;&gt;MergedStream</title>
<path fill="none" stroke="black" d="M232,-318.609C232,-310.481 232,-301.2 232,-292.671"/>
<polygon fill="black" stroke="black" points="235.5,-292.412 232,-282.412 228.5,-292.412 235.5,-292.412"/>
</g>
<!-- CsvFileWriter -->
<g id="node9" class="node"><title>CsvFileWriter</title>
<polygon fill="#ccffcc" stroke="black" points="52,-163 52,-209 412,-209 412,-163 52,-163"/>
<text text-anchor="middle" x="232" y="-193.8" font-family="Helvetica,sans-Serif" font-size="14.00">CsvFileWriter</text>
<polyline fill="none" stroke="black" points="52,-186 412,-186 "/>
<text text-anchor="middle" x="232" y="-170.8" font-family="Helvetica,sans-Serif" font-size="14.00">Write to a csv file and wrap&#45;up by finishing the workflow</text>
</g>
<!-- UpdatedOccurrenceFile -->
<g id="node20" class="node"><title>UpdatedOccurrenceFile</title>
<path fill="#ffffcc" stroke="black" d="M155,-79C155,-79 379,-79 379,-79 385,-79 391,-85 391,-91 391,-91 391,-113 391,-113 391,-119 385,-125 379,-125 379,-125 155,-125 155,-125 149,-125 143,-119 143,-113 143,-113 143,-91 143,-91 143,-85 149,-79 155,-79"/>
<text text-anchor="middle" x="267" y="-109.8" font-family="Helvetica,sans-Serif" font-size="14.00">UpdatedOccurrenceFile</text>
<polyline fill="none" stroke="black" points="143,-102 391,-102 "/>
<text text-anchor="middle" x="267" y="-86.8" font-family="Helvetica,sans-Serif" font-size="14.00">file:{workspace}/mergedoutputfile.csv</text>
</g>
<!-- CsvFileWriter&#45;&gt;UpdatedOccurrenceFile -->
<g id="edge24" class="edge"><title>CsvFileWriter&#45;&gt;UpdatedOccurrenceFile</title>
<path fill="none" stroke="black" d="M241.564,-162.593C245.259,-153.935 249.554,-143.874 253.55,-134.512"/>
<polygon fill="black" stroke="black" points="256.862,-135.667 257.569,-125.096 250.424,-132.919 256.862,-135.667"/>
</g>
<!-- DarwinCoreArchive -->
<g id="node10" class="node"><title>DarwinCoreArchive</title>
<path fill="#ffffcc" stroke="black" d="M339.25,-1256C339.25,-1256 226.75,-1256 226.75,-1256 220.75,-1256 214.75,-1250 214.75,-1244 214.75,-1244 214.75,-1232 214.75,-1232 214.75,-1226 220.75,-1220 226.75,-1220 226.75,-1220 339.25,-1220 339.25,-1220 345.25,-1220 351.25,-1226 351.25,-1232 351.25,-1232 351.25,-1244 351.25,-1244 351.25,-1250 345.25,-1256 339.25,-1256"/>
<text text-anchor="middle" x="283" y="-1234.3" font-family="Helvetica,sans-Serif" font-size="14.00">DarwinCoreArchive</text>
</g>
<!-- DarwinCoreArchive&#45;&gt;Setup -->
<g id="edge3" class="edge"><title>DarwinCoreArchive&#45;&gt;Setup</title>
<path fill="none" stroke="black" d="M283,-1219.8C283,-1212.21 283,-1202.95 283,-1193.79"/>
<polygon fill="black" stroke="black" points="286.5,-1193.6 283,-1183.6 279.5,-1193.6 286.5,-1193.6"/>
</g>
<!-- OccurrenceFile&#45;&gt;FileToDataStream -->
<g id="edge5" class="edge"><title>OccurrenceFile&#45;&gt;FileToDataStream</title>
<path fill="none" stroke="black" d="M315.744,-1038.59C319.123,-1029.94 323.049,-1019.87 326.703,-1010.51"/>
<polygon fill="black" stroke="black" points="330.002,-1011.68 330.377,-1001.1 323.481,-1009.14 330.002,-1011.68"/>
</g>
<!-- DataRecord&#45;&gt;EnvironmentTagger -->
<g id="edge8" class="edge"><title>DataRecord&#45;&gt;EnvironmentTagger</title>
<path fill="none" stroke="black" d="M340.227,-881.754C340.331,-873.863 340.457,-864.249 340.578,-855.102"/>
<polygon fill="black" stroke="black" points="344.077,-855.136 340.709,-845.091 337.078,-855.044 344.077,-855.136"/>
</g>
<!-- TaggedDataRecord&#45;&gt;FilterToJustMarine -->
<g id="edge11" class="edge"><title>TaggedDataRecord&#45;&gt;FilterToJustMarine</title>
<path fill="none" stroke="black" d="M371.745,-725.944C388.704,-716.537 410.151,-704.639 429.33,-694"/>
<polygon fill="black" stroke="black" points="431.197,-696.966 438.244,-689.055 427.801,-690.845 431.197,-696.966"/>
</g>
<!-- TaggedDataRecord&#45;&gt;FilterToNonMarine -->
<g id="edge14" class="edge"><title>TaggedDataRecord&#45;&gt;FilterToNonMarine</title>
<path fill="none" stroke="black" d="M305.766,-725.944C285.981,-716.366 260.862,-704.207 238.585,-693.423"/>
<polygon fill="black" stroke="black" points="240.086,-690.261 229.56,-689.055 237.036,-696.562 240.086,-690.261"/>
</g>
<!-- MarineDataRecord&#45;&gt;WoRMSLookup -->
<g id="edge17" class="edge"><title>MarineDataRecord&#45;&gt;WoRMSLookup</title>
<path fill="none" stroke="black" d="M455.781,-569.754C453.367,-561.778 450.421,-552.042 447.626,-542.808"/>
<polygon fill="black" stroke="black" points="450.932,-541.648 444.685,-533.091 444.232,-543.676 450.932,-541.648"/>
</g>
<!-- notMarineDataRecord&#45;&gt;GBIFLookup -->
<g id="edge20" class="edge"><title>notMarineDataRecord&#45;&gt;GBIFLookup</title>
<path fill="none" stroke="black" d="M174.05,-569.754C172.7,-561.863 171.056,-552.249 169.491,-543.102"/>
<polygon fill="black" stroke="black" points="172.915,-542.358 167.779,-533.091 166.015,-543.538 172.915,-542.358"/>
</g>
<!-- GBIFUpdatedRecord&#45;&gt;StreamMerge -->
<g id="edge22" class="edge"><title>GBIFUpdatedRecord&#45;&gt;StreamMerge</title>
<path fill="none" stroke="black" d="M160.299,-407.61C171.813,-397.235 186.722,-383.8 199.961,-371.871"/>
<polygon fill="black" stroke="black" points="202.438,-374.35 207.524,-365.055 197.752,-369.149 202.438,-374.35"/>
</g>
<!-- WoRMSUpdatedRecord&#45;&gt;StreamMerge -->
<g id="edge23" class="edge"><title>WoRMSUpdatedRecord&#45;&gt;StreamMerge</title>
<path fill="none" stroke="black" d="M298.186,-407.61C287.657,-397.332 274.052,-384.051 261.918,-372.206"/>
<polygon fill="black" stroke="black" points="264.194,-369.536 254.593,-365.055 259.304,-374.545 264.194,-369.536"/>
</g>
<!-- Workspace&#45;&gt;CsvFileWriter -->
<g id="edge25" class="edge"><title>Workspace&#45;&gt;CsvFileWriter</title>
<path fill="none" stroke="black" d="M63.9716,-959.989C50.0671,-932.161 25,-874.809 25,-823 25,-823 25,-823 25,-341 25,-276.719 90.0518,-236.112 147.221,-212.838"/>
<polygon fill="black" stroke="black" points="148.661,-216.032 156.683,-209.111 146.096,-209.519 148.661,-216.032"/>
</g>
<!-- MergedStream&#45;&gt;CsvFileWriter -->
<g id="edge26" class="edge"><title>MergedStream&#45;&gt;CsvFileWriter</title>
<path fill="none" stroke="black" d="M232,-245.754C232,-237.863 232,-228.249 232,-219.102"/>
<polygon fill="black" stroke="black" points="235.5,-219.091 232,-209.091 228.5,-219.091 235.5,-219.091"/>
</g>
<!-- UpdatedOccurrenceFile_output_port -->
<g id="node23" class="node"><title>UpdatedOccurrenceFile_output_port</title>
<ellipse fill="#ffffff" stroke="black" cx="344" cy="-31" rx="7" ry="7"/>
</g>
<!-- UpdatedOccurrenceFile&#45;&gt;UpdatedOccurrenceFile_output_port -->
<g id="edge28" class="edge"><title>UpdatedOccurrenceFile&#45;&gt;UpdatedOccurrenceFile_output_port</title>
<path fill="none" stroke="black" d="M291.787,-78.7882C305.114,-66.8462 320.962,-52.6446 331.675,-43.0449"/>
<polygon fill="black" stroke="black" points="334.186,-45.4942 339.297,-36.214 329.514,-40.2811 334.186,-45.4942"/>
</g>
<!-- LogFile_output_port -->
<g id="node24" class="node"><title>LogFile_output_port</title>
<ellipse fill="#ffffff" stroke="black" cx="376" cy="-31" rx="7" ry="7"/>
</g>
<!-- LogFile&#45;&gt;LogFile_output_port -->
<g id="edge29" class="edge"><title>LogFile&#45;&gt;LogFile_output_port</title>
<path fill="none" stroke="black" d="M464.823,-402.794C460.693,-371.948 454,-314.355 454,-265 454,-265 454,-265 454,-185 454,-127.112 409.134,-69.0248 387.457,-44.338"/>
<polygon fill="black" stroke="black" points="389.952,-41.8795 380.646,-36.8163 384.764,-46.5781 389.952,-41.8795"/>
</g>
<!-- DarwinCoreArchive_input_port -->
<g id="node22" class="node"><title>DarwinCoreArchive_input_port</title>
<ellipse fill="#ffffff" stroke="black" cx="283" cy="-1303" rx="7" ry="7"/>
</g>
<!-- DarwinCoreArchive_input_port&#45;&gt;DarwinCoreArchive -->
<g id="edge27" class="edge"><title>DarwinCoreArchive_input_port&#45;&gt;DarwinCoreArchive</title>
<path fill="none" stroke="black" d="M283,-1295.73C283,-1288.79 283,-1277.15 283,-1266.21"/>
<polygon fill="black" stroke="black" points="286.5,-1266.12 283,-1256.12 279.5,-1266.12 286.5,-1266.12"/>
</g>
</g>
</svg>
