<?xml version="1.0" encoding="UTF-8" standalone="no"?>
<!DOCTYPE svg PUBLIC "-//W3C//DTD SVG 1.1//EN"
 "http://www.w3.org/Graphics/SVG/1.1/DTD/svg11.dtd">
<!-- Generated by graphviz version 2.36.0 (20140111.2315)
 -->
<!-- Title: Workflow Pages: 1 -->
<svg width="935pt" height="1370pt"
 viewBox="0.00 0.00 935.00 1370.00" xmlns="http://www.w3.org/2000/svg" xmlns:xlink="http://www.w3.org/1999/xlink">
<g id="graph0" class="graph" transform="scale(1 1) rotate(0) translate(4 1366)">
<title>Workflow</title>
<polygon fill="white" stroke="none" points="-4,4 -4,-1366 931,-1366 931,4 -4,4"/>
<text text-anchor="middle" x="463.5" y="-1343.6" font-family="Helvetica,sans-Serif" font-size="18.00">DwCA_Taxon_Lookup</text>
<g id="clust3" class="cluster"><title>cluster_input_ports_group_outer</title>
<polygon fill="none" stroke="black" stroke-width="0" points="334,-1280 334,-1326 380,-1326 380,-1280 334,-1280"/>
</g>
<g id="clust4" class="cluster"><title>cluster_input_ports_group_inner</title>
<polygon fill="none" stroke="black" stroke-width="0" points="342,-1288 342,-1318 372,-1318 372,-1288 342,-1288"/>
</g>
<g id="clust5" class="cluster"><title>cluster_output_ports_group_outer</title>
<polygon fill="none" stroke="black" stroke-width="0" points="399,-8 399,-54 477,-54 477,-8 399,-8"/>
</g>
<g id="clust6" class="cluster"><title>cluster_output_ports_group_inner</title>
<polygon fill="none" stroke="black" stroke-width="0" points="407,-16 407,-46 469,-46 469,-16 407,-16"/>
</g>
<g id="clust1" class="cluster"><title>cluster_workflow_box_outer</title>
<polygon fill="none" stroke="black" stroke-width="2" points="8,-62 8,-1272 919,-1272 919,-62 8,-62"/>
</g>
<g id="clust2" class="cluster"><title>cluster_workflow_box_inner</title>
<polygon fill="none" stroke="black" stroke-width="0" points="16,-70 16,-1264 911,-1264 911,-70 16,-70"/>
</g>
<!-- Setup -->
<g id="node1" class="node"><title>Setup</title>
<polygon fill="#ccffcc" stroke="black" points="146,-1122.5 146,-1183.5 568,-1183.5 568,-1122.5 146,-1122.5"/>
<text text-anchor="middle" x="357" y="-1168.3" font-family="Helvetica,sans-Serif" font-size="14.00">Setup</text>
<polyline fill="none" stroke="black" points="146,-1160.5 568,-1160.5 "/>
<text text-anchor="middle" x="357" y="-1145.3" font-family="Helvetica,sans-Serif" font-size="14.00">Create a unique workspace and transform the input file to a file</text>
<text text-anchor="middle" x="357" y="-1130.3" font-family="Helvetica,sans-Serif" font-size="14.00"> with chosen format and field names standardized to Darwin Core</text>
</g>
<!-- OccurrenceFile -->
<g id="node11" class="node"><title>OccurrenceFile</title>
<path fill="#ffffcc" stroke="black" d="M254,-1039C254,-1039 460,-1039 460,-1039 466,-1039 472,-1045 472,-1051 472,-1051 472,-1073 472,-1073 472,-1079 466,-1085 460,-1085 460,-1085 254,-1085 254,-1085 248,-1085 242,-1079 242,-1073 242,-1073 242,-1051 242,-1051 242,-1045 248,-1039 254,-1039"/>
<text text-anchor="middle" x="357" y="-1069.8" font-family="Helvetica,sans-Serif" font-size="14.00">OccurrenceFile</text>
<polyline fill="none" stroke="black" points="242,-1062 472,-1062 "/>
<text text-anchor="middle" x="357" y="-1046.8" font-family="Helvetica,sans-Serif" font-size="14.00">file:{workspace}/darwinized_file.txt</text>
</g>
<!-- Setup&#45;&gt;OccurrenceFile -->
<g id="edge3" class="edge"><title>Setup&#45;&gt;OccurrenceFile</title>
<path fill="none" stroke="black" d="M357,-1122.36C357,-1113.74 357,-1104.27 357,-1095.47"/>
<polygon fill="black" stroke="black" points="360.5,-1095.19 357,-1085.19 353.5,-1095.19 360.5,-1095.19"/>
</g>
<!-- Workspace -->
<g id="node18" class="node"><title>Workspace</title>
<path fill="#ffffcc" stroke="black" d="M112.25,-996C112.25,-996 49.75,-996 49.75,-996 43.75,-996 37.75,-990 37.75,-984 37.75,-984 37.75,-972 37.75,-972 37.75,-966 43.75,-960 49.75,-960 49.75,-960 112.25,-960 112.25,-960 118.25,-960 124.25,-966 124.25,-972 124.25,-972 124.25,-984 124.25,-984 124.25,-990 118.25,-996 112.25,-996"/>
<text text-anchor="middle" x="81" y="-974.3" font-family="Helvetica,sans-Serif" font-size="14.00">Workspace</text>
</g>
<!-- Setup&#45;&gt;Workspace -->
<g id="edge1" class="edge"><title>Setup&#45;&gt;Workspace</title>
<path fill="none" stroke="black" d="M297.811,-1122.41C277.006,-1111.51 253.671,-1098.71 233,-1086 189.402,-1059.19 141.488,-1024.54 111.337,-1002.04"/>
<polygon fill="black" stroke="black" points="113.424,-999.234 103.323,-996.038 109.227,-1004.84 113.424,-999.234"/>
</g>
<!-- LogFile -->
<g id="node21" class="node"><title>LogFile</title>
<path fill="#ffffcc" stroke="black" d="M407,-403C407,-403 891,-403 891,-403 897,-403 903,-409 903,-415 903,-415 903,-437 903,-437 903,-443 897,-449 891,-449 891,-449 407,-449 407,-449 401,-449 395,-443 395,-437 395,-437 395,-415 395,-415 395,-409 401,-403 407,-403"/>
<text text-anchor="middle" x="649" y="-433.8" font-family="Helvetica,sans-Serif" font-size="14.00">LogFile</text>
<polyline fill="none" stroke="black" points="395,-426 903,-426 "/>
<text text-anchor="middle" x="649" y="-410.8" font-family="Helvetica,sans-Serif" font-size="14.00">file:./packages/kurator_FileBranchingTaxonLookup/workflows/results/runlog.log</text>
</g>
<!-- Setup&#45;&gt;LogFile -->
<g id="edge2" class="edge"><title>Setup&#45;&gt;LogFile</title>
<path fill="none" stroke="black" d="M521.223,-1122.41C596.388,-1098.44 669,-1055.49 669,-979 669,-979 669,-979 669,-587 669,-542.483 661.283,-491.533 655.436,-459.32"/>
<polygon fill="black" stroke="black" points="658.813,-458.339 653.538,-449.151 651.932,-459.623 658.813,-458.339"/>
</g>
<!-- FileToDataStream -->
<g id="node2" class="node"><title>FileToDataStream</title>
<polygon fill="#ccffcc" stroke="black" points="155,-955 155,-1001 559,-1001 559,-955 155,-955"/>
<text text-anchor="middle" x="357" y="-985.8" font-family="Helvetica,sans-Serif" font-size="14.00">FileToDataStream</text>
<polyline fill="none" stroke="black" points="155,-978 559,-978 "/>
<text text-anchor="middle" x="357" y="-962.8" font-family="Helvetica,sans-Serif" font-size="14.00">Take the darwinized occurrence file and stream records from it</text>
</g>
<!-- DataRecord -->
<g id="node12" class="node"><title>DataRecord</title>
<path fill="#ffffcc" stroke="black" d="M390.25,-918C390.25,-918 323.75,-918 323.75,-918 317.75,-918 311.75,-912 311.75,-906 311.75,-906 311.75,-894 311.75,-894 311.75,-888 317.75,-882 323.75,-882 323.75,-882 390.25,-882 390.25,-882 396.25,-882 402.25,-888 402.25,-894 402.25,-894 402.25,-906 402.25,-906 402.25,-912 396.25,-918 390.25,-918"/>
<text text-anchor="middle" x="357" y="-896.3" font-family="Helvetica,sans-Serif" font-size="14.00">DataRecord</text>
</g>
<!-- FileToDataStream&#45;&gt;DataRecord -->
<g id="edge5" class="edge"><title>FileToDataStream&#45;&gt;DataRecord</title>
<path fill="none" stroke="black" d="M357,-954.609C357,-946.481 357,-937.2 357,-928.671"/>
<polygon fill="black" stroke="black" points="360.5,-928.412 357,-918.412 353.5,-928.412 360.5,-928.412"/>
</g>
<!-- EnvironmentTagger -->
<g id="node3" class="node"><title>EnvironmentTagger</title>
<polygon fill="#ccffcc" stroke="black" points="64.5,-799 64.5,-845 649.5,-845 649.5,-799 64.5,-799"/>
<text text-anchor="middle" x="357" y="-829.8" font-family="Helvetica,sans-Serif" font-size="14.00">EnvironmentTagger</text>
<polyline fill="none" stroke="black" points="64.5,-822 649.5,-822 "/>
<text text-anchor="middle" x="357" y="-806.8" font-family="Helvetica,sans-Serif" font-size="14.00">Tag each record that appears to be marine with isMarine=TRUE, else with isMarine=FALSE</text>
</g>
<!-- TaggedDataRecord -->
<g id="node13" class="node"><title>TaggedDataRecord</title>
<path fill="#ffffcc" stroke="black" d="M414.25,-762C414.25,-762 299.75,-762 299.75,-762 293.75,-762 287.75,-756 287.75,-750 287.75,-750 287.75,-738 287.75,-738 287.75,-732 293.75,-726 299.75,-726 299.75,-726 414.25,-726 414.25,-726 420.25,-726 426.25,-732 426.25,-738 426.25,-738 426.25,-750 426.25,-750 426.25,-756 420.25,-762 414.25,-762"/>
<text text-anchor="middle" x="357" y="-740.3" font-family="Helvetica,sans-Serif" font-size="14.00">TaggedDataRecord</text>
</g>
<!-- EnvironmentTagger&#45;&gt;TaggedDataRecord -->
<g id="edge8" class="edge"><title>EnvironmentTagger&#45;&gt;TaggedDataRecord</title>
<path fill="none" stroke="black" d="M357,-798.609C357,-790.481 357,-781.2 357,-772.671"/>
<polygon fill="black" stroke="black" points="360.5,-772.412 357,-762.412 353.5,-772.412 360.5,-772.412"/>
</g>
<!-- EnvironmentTagger&#45;&gt;LogFile -->
<g id="edge7" class="edge"><title>EnvironmentTagger&#45;&gt;LogFile</title>
<path fill="none" stroke="black" d="M503.428,-798.902C576.285,-778.71 649,-740.217 649,-667 649,-667 649,-667 649,-587 649,-542.827 649,-491.794 649,-459.468"/>
<polygon fill="black" stroke="black" points="652.5,-459.26 649,-449.26 645.5,-459.26 652.5,-459.26"/>
</g>
<!-- FilterToJustMarine -->
<g id="node4" class="node"><title>FilterToJustMarine</title>
<polygon fill="#ccffcc" stroke="black" points="356.5,-643 356.5,-689 629.5,-689 629.5,-643 356.5,-643"/>
<text text-anchor="middle" x="493" y="-673.8" font-family="Helvetica,sans-Serif" font-size="14.00">FilterToJustMarine</text>
<polyline fill="none" stroke="black" points="356.5,-666 629.5,-666 "/>
<text text-anchor="middle" x="493" y="-650.8" font-family="Helvetica,sans-Serif" font-size="14.00">Pass only records where isMarine=TRUE</text>
</g>
<!-- MarineDataRecord -->
<g id="node14" class="node"><title>MarineDataRecord</title>
<path fill="#ffffcc" stroke="black" d="M545,-606C545,-606 435,-606 435,-606 429,-606 423,-600 423,-594 423,-594 423,-582 423,-582 423,-576 429,-570 435,-570 435,-570 545,-570 545,-570 551,-570 557,-576 557,-582 557,-582 557,-594 557,-594 557,-600 551,-606 545,-606"/>
<text text-anchor="middle" x="490" y="-584.3" font-family="Helvetica,sans-Serif" font-size="14.00">MarineDataRecord</text>
</g>
<!-- FilterToJustMarine&#45;&gt;MarineDataRecord -->
<g id="edge11" class="edge"><title>FilterToJustMarine&#45;&gt;MarineDataRecord</title>
<path fill="none" stroke="black" d="M492.116,-642.609C491.795,-634.481 491.429,-625.2 491.092,-616.671"/>
<polygon fill="black" stroke="black" points="494.579,-616.266 490.687,-606.412 487.585,-616.542 494.579,-616.266"/>
</g>
<!-- FilterToJustMarine&#45;&gt;LogFile -->
<g id="edge10" class="edge"><title>FilterToJustMarine&#45;&gt;LogFile</title>
<path fill="none" stroke="black" d="M524.033,-642.853C537.63,-632.431 553.337,-619.369 566,-606 593.144,-577.342 600.698,-569.479 618,-534 629.71,-509.989 637.808,-480.739 642.783,-458.894"/>
<polygon fill="black" stroke="black" points="646.203,-459.638 644.914,-449.122 639.364,-458.146 646.203,-459.638"/>
</g>
<!-- FilterToNonMarine -->
<g id="node5" class="node"><title>FilterToNonMarine</title>
<polygon fill="#ccffcc" stroke="black" points="59.5,-643 59.5,-689 338.5,-689 338.5,-643 59.5,-643"/>
<text text-anchor="middle" x="199" y="-673.8" font-family="Helvetica,sans-Serif" font-size="14.00">FilterToNonMarine</text>
<polyline fill="none" stroke="black" points="59.5,-666 338.5,-666 "/>
<text text-anchor="middle" x="199" y="-650.8" font-family="Helvetica,sans-Serif" font-size="14.00">Pass only records where isMarine=FALSE</text>
</g>
<!-- notMarineDataRecord -->
<g id="node15" class="node"><title>notMarineDataRecord</title>
<path fill="#ffffcc" stroke="black" d="M263.25,-606C263.25,-606 134.75,-606 134.75,-606 128.75,-606 122.75,-600 122.75,-594 122.75,-594 122.75,-582 122.75,-582 122.75,-576 128.75,-570 134.75,-570 134.75,-570 263.25,-570 263.25,-570 269.25,-570 275.25,-576 275.25,-582 275.25,-582 275.25,-594 275.25,-594 275.25,-600 269.25,-606 263.25,-606"/>
<text text-anchor="middle" x="199" y="-584.3" font-family="Helvetica,sans-Serif" font-size="14.00">notMarineDataRecord</text>
</g>
<!-- FilterToNonMarine&#45;&gt;notMarineDataRecord -->
<g id="edge14" class="edge"><title>FilterToNonMarine&#45;&gt;notMarineDataRecord</title>
<path fill="none" stroke="black" d="M199,-642.609C199,-634.481 199,-625.2 199,-616.671"/>
<polygon fill="black" stroke="black" points="202.5,-616.412 199,-606.412 195.5,-616.412 202.5,-616.412"/>
</g>
<!-- FilterToNonMarine&#45;&gt;LogFile -->
<g id="edge13" class="edge"><title>FilterToNonMarine&#45;&gt;LogFile</title>
<path fill="none" stroke="black" d="M238.132,-642.887C253.595,-632.927 270.788,-620.206 284,-606 305.101,-583.311 329.734,-503.935 355,-486 375.049,-471.769 420.325,-460.008 469.484,-450.831"/>
<polygon fill="black" stroke="black" points="470.152,-454.267 479.362,-449.03 468.896,-447.381 470.152,-454.267"/>
</g>
<!-- WoRMSLookup -->
<g id="node6" class="node"><title>WoRMSLookup</title>
<polygon fill="#ccffcc" stroke="black" points="364.5,-487 364.5,-533 609.5,-533 609.5,-487 364.5,-487"/>
<text text-anchor="middle" x="487" y="-517.8" font-family="Helvetica,sans-Serif" font-size="14.00">WoRMSLookup</text>
<polyline fill="none" stroke="black" points="364.5,-510 609.5,-510 "/>
<text text-anchor="middle" x="487" y="-494.8" font-family="Helvetica,sans-Serif" font-size="14.00">Lookup GUIDs for names in WoRMS</text>
</g>
<!-- WoRMSUpdatedRecord -->
<g id="node17" class="node"><title>WoRMSUpdatedRecord</title>
<path fill="#ffffcc" stroke="black" d="M364.25,-444C364.25,-444 221.75,-444 221.75,-444 215.75,-444 209.75,-438 209.75,-432 209.75,-432 209.75,-420 209.75,-420 209.75,-414 215.75,-408 221.75,-408 221.75,-408 364.25,-408 364.25,-408 370.25,-408 376.25,-414 376.25,-420 376.25,-420 376.25,-432 376.25,-432 376.25,-438 370.25,-444 364.25,-444"/>
<text text-anchor="middle" x="293" y="-422.3" font-family="Helvetica,sans-Serif" font-size="14.00">WoRMSUpdatedRecord</text>
</g>
<!-- WoRMSLookup&#45;&gt;WoRMSUpdatedRecord -->
<g id="edge16" class="edge"><title>WoRMSLookup&#45;&gt;WoRMSUpdatedRecord</title>
<path fill="none" stroke="black" d="M434.756,-486.918C406.121,-474.814 370.821,-459.893 342.61,-447.969"/>
<polygon fill="black" stroke="black" points="343.909,-444.718 333.335,-444.049 341.183,-451.166 343.909,-444.718"/>
</g>
<!-- WoRMSLookup&#45;&gt;LogFile -->
<g id="edge17" class="edge"><title>WoRMSLookup&#45;&gt;LogFile</title>
<path fill="none" stroke="black" d="M530.84,-486.81C551.001,-476.604 575.084,-464.414 596.233,-453.709"/>
<polygon fill="black" stroke="black" points="598.065,-456.705 605.406,-449.066 594.904,-450.459 598.065,-456.705"/>
</g>
<!-- GBIFLookup -->
<g id="node7" class="node"><title>GBIFLookup</title>
<polygon fill="#ccffcc" stroke="black" points="86,-487 86,-533 312,-533 312,-487 86,-487"/>
<text text-anchor="middle" x="199" y="-517.8" font-family="Helvetica,sans-Serif" font-size="14.00">GBIFLookup</text>
<polyline fill="none" stroke="black" points="86,-510 312,-510 "/>
<text text-anchor="middle" x="199" y="-494.8" font-family="Helvetica,sans-Serif" font-size="14.00">Lookup GUIDs for names in GBIF</text>
</g>
<!-- GBIFUpdatedRecord -->
<g id="node16" class="node"><title>GBIFUpdatedRecord</title>
<path fill="#ffffcc" stroke="black" d="M179.25,-444C179.25,-444 56.75,-444 56.75,-444 50.75,-444 44.75,-438 44.75,-432 44.75,-432 44.75,-420 44.75,-420 44.75,-414 50.75,-408 56.75,-408 56.75,-408 179.25,-408 179.25,-408 185.25,-408 191.25,-414 191.25,-420 191.25,-420 191.25,-432 191.25,-432 191.25,-438 185.25,-444 179.25,-444"/>
<text text-anchor="middle" x="118" y="-422.3" font-family="Helvetica,sans-Serif" font-size="14.00">GBIFUpdatedRecord</text>
</g>
<!-- GBIFLookup&#45;&gt;GBIFUpdatedRecord -->
<g id="edge19" class="edge"><title>GBIFLookup&#45;&gt;GBIFUpdatedRecord</title>
<path fill="none" stroke="black" d="M176.866,-486.593C166.134,-475.728 153.218,-462.653 142.223,-451.522"/>
<polygon fill="black" stroke="black" points="144.486,-448.832 134.968,-444.177 139.505,-453.751 144.486,-448.832"/>
</g>
<!-- GBIFLookup&#45;&gt;LogFile -->
<g id="edge20" class="edge"><title>GBIFLookup&#45;&gt;LogFile</title>
<path fill="none" stroke="black" d="M312.263,-488.361C374.918,-476.944 453.065,-462.704 518.3,-450.817"/>
<polygon fill="black" stroke="black" points="519.03,-454.241 528.24,-449.005 517.775,-447.355 519.03,-454.241"/>
</g>
<!-- StreamMerge -->
<g id="node8" class="node"><title>StreamMerge</title>
<polygon fill="#ccffcc" stroke="black" points="148.5,-319 148.5,-365 347.5,-365 347.5,-319 148.5,-319"/>
<text text-anchor="middle" x="248" y="-349.8" font-family="Helvetica,sans-Serif" font-size="14.00">StreamMerge</text>
<polyline fill="none" stroke="black" points="148.5,-342 347.5,-342 "/>
<text text-anchor="middle" x="248" y="-326.8" font-family="Helvetica,sans-Serif" font-size="14.00">Merge the streams of records</text>
</g>
<!-- MergedStream -->
<g id="node19" class="node"><title>MergedStream</title>
<path fill="#ffffcc" stroke="black" d="M290.25,-282C290.25,-282 205.75,-282 205.75,-282 199.75,-282 193.75,-276 193.75,-270 193.75,-270 193.75,-258 193.75,-258 193.75,-252 199.75,-246 205.75,-246 205.75,-246 290.25,-246 290.25,-246 296.25,-246 302.25,-252 302.25,-258 302.25,-258 302.25,-270 302.25,-270 302.25,-276 296.25,-282 290.25,-282"/>
<text text-anchor="middle" x="248" y="-260.3" font-family="Helvetica,sans-Serif" font-size="14.00">MergedStream</text>
</g>
<!-- StreamMerge&#45;&gt;MergedStream -->
<g id="edge22" class="edge"><title>StreamMerge&#45;&gt;MergedStream</title>
<path fill="none" stroke="black" d="M248,-318.609C248,-310.481 248,-301.2 248,-292.671"/>
<polygon fill="black" stroke="black" points="251.5,-292.412 248,-282.412 244.5,-292.412 251.5,-292.412"/>
</g>
<!-- CsvFileWriter -->
<g id="node9" class="node"><title>CsvFileWriter</title>
<polygon fill="#ccffcc" stroke="black" points="68,-163 68,-209 428,-209 428,-163 68,-163"/>
<text text-anchor="middle" x="248" y="-193.8" font-family="Helvetica,sans-Serif" font-size="14.00">CsvFileWriter</text>
<polyline fill="none" stroke="black" points="68,-186 428,-186 "/>
<text text-anchor="middle" x="248" y="-170.8" font-family="Helvetica,sans-Serif" font-size="14.00">Write to a csv file and wrap&#45;up by finishing the workflow</text>
</g>
<!-- UpdatedOccurrenceFile -->
<g id="node20" class="node"><title>UpdatedOccurrenceFile</title>
<path fill="#ffffcc" stroke="black" d="M212,-79C212,-79 436,-79 436,-79 442,-79 448,-85 448,-91 448,-91 448,-113 448,-113 448,-119 442,-125 436,-125 436,-125 212,-125 212,-125 206,-125 200,-119 200,-113 200,-113 200,-91 200,-91 200,-85 206,-79 212,-79"/>
<text text-anchor="middle" x="324" y="-109.8" font-family="Helvetica,sans-Serif" font-size="14.00">UpdatedOccurrenceFile</text>
<polyline fill="none" stroke="black" points="200,-102 448,-102 "/>
<text text-anchor="middle" x="324" y="-86.8" font-family="Helvetica,sans-Serif" font-size="14.00">file:{workspace}/mergedoutputfile.csv</text>
</g>
<!-- CsvFileWriter&#45;&gt;UpdatedOccurrenceFile -->
<g id="edge25" class="edge"><title>CsvFileWriter&#45;&gt;UpdatedOccurrenceFile</title>
<path fill="none" stroke="black" d="M268.767,-162.593C277.383,-153.297 287.498,-142.384 296.701,-132.454"/>
<polygon fill="black" stroke="black" points="299.29,-134.809 303.521,-125.096 294.156,-130.051 299.29,-134.809"/>
</g>
<!-- DarwinCoreArchive -->
<g id="node10" class="node"><title>DarwinCoreArchive</title>
<path fill="#ffffcc" stroke="black" d="M413.25,-1256C413.25,-1256 300.75,-1256 300.75,-1256 294.75,-1256 288.75,-1250 288.75,-1244 288.75,-1244 288.75,-1232 288.75,-1232 288.75,-1226 294.75,-1220 300.75,-1220 300.75,-1220 413.25,-1220 413.25,-1220 419.25,-1220 425.25,-1226 425.25,-1232 425.25,-1232 425.25,-1244 425.25,-1244 425.25,-1250 419.25,-1256 413.25,-1256"/>
<text text-anchor="middle" x="357" y="-1234.3" font-family="Helvetica,sans-Serif" font-size="14.00">DarwinCoreArchive</text>
</g>
<!-- DarwinCoreArchive&#45;&gt;Setup -->
<g id="edge4" class="edge"><title>DarwinCoreArchive&#45;&gt;Setup</title>
<path fill="none" stroke="black" d="M357,-1219.8C357,-1212.21 357,-1202.95 357,-1193.79"/>
<polygon fill="black" stroke="black" points="360.5,-1193.6 357,-1183.6 353.5,-1193.6 360.5,-1193.6"/>
</g>
<!-- OccurrenceFile&#45;&gt;FileToDataStream -->
<g id="edge6" class="edge"><title>OccurrenceFile&#45;&gt;FileToDataStream</title>
<path fill="none" stroke="black" d="M357,-1038.59C357,-1030.12 357,-1020.3 357,-1011.1"/>
<polygon fill="black" stroke="black" points="360.5,-1011.1 357,-1001.1 353.5,-1011.1 360.5,-1011.1"/>
</g>
<!-- DataRecord&#45;&gt;EnvironmentTagger -->
<g id="edge9" class="edge"><title>DataRecord&#45;&gt;EnvironmentTagger</title>
<path fill="none" stroke="black" d="M357,-881.754C357,-873.863 357,-864.249 357,-855.102"/>
<polygon fill="black" stroke="black" points="360.5,-855.091 357,-845.091 353.5,-855.091 360.5,-855.091"/>
</g>
<!-- TaggedDataRecord&#45;&gt;FilterToJustMarine -->
<g id="edge12" class="edge"><title>TaggedDataRecord&#45;&gt;FilterToJustMarine</title>
<path fill="none" stroke="black" d="M387.521,-725.944C404.355,-716.537 425.647,-704.639 444.685,-694"/>
<polygon fill="black" stroke="black" points="446.512,-696.988 453.534,-689.055 443.097,-690.877 446.512,-696.988"/>
</g>
<!-- TaggedDataRecord&#45;&gt;FilterToNonMarine -->
<g id="edge15" class="edge"><title>TaggedDataRecord&#45;&gt;FilterToNonMarine</title>
<path fill="none" stroke="black" d="M321.542,-725.944C301.63,-716.366 276.352,-704.207 253.932,-693.423"/>
<polygon fill="black" stroke="black" points="255.379,-690.235 244.85,-689.055 252.345,-696.543 255.379,-690.235"/>
</g>
<!-- MarineDataRecord&#45;&gt;WoRMSLookup -->
<g id="edge18" class="edge"><title>MarineDataRecord&#45;&gt;WoRMSLookup</title>
<path fill="none" stroke="black" d="M489.319,-569.754C489.008,-561.863 488.628,-552.249 488.267,-543.102"/>
<polygon fill="black" stroke="black" points="491.764,-542.945 487.872,-533.091 484.769,-543.221 491.764,-542.945"/>
</g>
<!-- notMarineDataRecord&#45;&gt;GBIFLookup -->
<g id="edge21" class="edge"><title>notMarineDataRecord&#45;&gt;GBIFLookup</title>
<path fill="none" stroke="black" d="M199,-569.754C199,-561.863 199,-552.249 199,-543.102"/>
<polygon fill="black" stroke="black" points="202.5,-543.091 199,-533.091 195.5,-543.091 202.5,-543.091"/>
</g>
<!-- GBIFUpdatedRecord&#45;&gt;StreamMerge -->
<g id="edge23" class="edge"><title>GBIFUpdatedRecord&#45;&gt;StreamMerge</title>
<path fill="none" stroke="black" d="M145.252,-407.81C162.374,-397.01 184.844,-382.837 204.403,-370.5"/>
<polygon fill="black" stroke="black" points="206.278,-373.455 212.868,-365.16 202.543,-367.535 206.278,-373.455"/>
</g>
<!-- WoRMSUpdatedRecord&#45;&gt;StreamMerge -->
<g id="edge24" class="edge"><title>WoRMSUpdatedRecord&#45;&gt;StreamMerge</title>
<path fill="none" stroke="black" d="M283.457,-407.61C278.082,-397.817 271.212,-385.297 264.952,-373.891"/>
<polygon fill="black" stroke="black" points="267.983,-372.138 260.104,-365.055 261.846,-375.506 267.983,-372.138"/>
</g>
<!-- Workspace&#45;&gt;CsvFileWriter -->
<g id="edge26" class="edge"><title>Workspace&#45;&gt;CsvFileWriter</title>
<path fill="none" stroke="black" d="M70.2026,-959.729C53.9297,-932.001 25,-875.346 25,-823 25,-823 25,-823 25,-341 25,-275.014 91.9287,-235.108 152.454,-212.51"/>
<polygon fill="black" stroke="black" points="153.882,-215.716 162.101,-209.031 151.507,-209.131 153.882,-215.716"/>
</g>
<!-- MergedStream&#45;&gt;CsvFileWriter -->
<g id="edge27" class="edge"><title>MergedStream&#45;&gt;CsvFileWriter</title>
<path fill="none" stroke="black" d="M248,-245.754C248,-237.863 248,-228.249 248,-219.102"/>
<polygon fill="black" stroke="black" points="251.5,-219.091 248,-209.091 244.5,-219.091 251.5,-219.091"/>
</g>
<!-- UpdatedOccurrenceFile_output_port -->
<g id="node23" class="node"><title>UpdatedOccurrenceFile_output_port</title>
<ellipse fill="#ffffff" stroke="black" cx="422" cy="-31" rx="7" ry="7"/>
</g>
<!-- UpdatedOccurrenceFile&#45;&gt;UpdatedOccurrenceFile_output_port -->
<g id="edge29" class="edge"><title>UpdatedOccurrenceFile&#45;&gt;UpdatedOccurrenceFile_output_port</title>
<path fill="none" stroke="black" d="M355.277,-78.9783C373.127,-66.4104 394.604,-51.2893 408.278,-41.6613"/>
<polygon fill="black" stroke="black" points="410.531,-44.3554 416.693,-35.7365 406.501,-38.6317 410.531,-44.3554"/>
</g>
<!-- LogFile_output_port -->
<g id="node24" class="node"><title>LogFile_output_port</title>
<ellipse fill="#ffffff" stroke="black" cx="454" cy="-31" rx="7" ry="7"/>
</g>
<!-- LogFile&#45;&gt;LogFile_output_port -->
<g id="edge30" class="edge"><title>LogFile&#45;&gt;LogFile_output_port</title>
<path fill="none" stroke="black" d="M624.523,-402.672C595.787,-373.893 552,-320.872 552,-265 552,-265 552,-265 552,-185 552,-122.922 494.086,-65.8708 467.3,-42.8034"/>
<polygon fill="black" stroke="black" points="469.191,-39.8236 459.269,-36.1089 464.709,-45.2004 469.191,-39.8236"/>
</g>
<!-- DarwinCoreArchive_input_port -->
<g id="node22" class="node"><title>DarwinCoreArchive_input_port</title>
<ellipse fill="#ffffff" stroke="black" cx="357" cy="-1303" rx="7" ry="7"/>
</g>
<!-- DarwinCoreArchive_input_port&#45;&gt;DarwinCoreArchive -->
<g id="edge28" class="edge"><title>DarwinCoreArchive_input_port&#45;&gt;DarwinCoreArchive</title>
<path fill="none" stroke="black" d="M357,-1295.73C357,-1288.79 357,-1277.15 357,-1266.21"/>
<polygon fill="black" stroke="black" points="360.5,-1266.12 357,-1256.12 353.5,-1266.12 360.5,-1266.12"/>
</g>
</g>
</svg>
