<?xml version="1.0" encoding="UTF-8" standalone="no"?>
<!DOCTYPE svg PUBLIC "-//W3C//DTD SVG 1.1//EN"
 "http://www.w3.org/Graphics/SVG/1.1/DTD/svg11.dtd">
<!-- Generated by graphviz version 2.36.0 (20140111.2315)
 -->
<!-- Title: Workflow Pages: 1 -->
<svg width="782pt" height="1382pt"
 viewBox="0.00 0.00 782.00 1382.00" xmlns="http://www.w3.org/2000/svg" xmlns:xlink="http://www.w3.org/1999/xlink">
<g id="graph0" class="graph" transform="scale(1 1) rotate(0) translate(4 1378)">
<title>Workflow</title>
<polygon fill="white" stroke="none" points="-4,4 -4,-1378 778,-1378 778,4 -4,4"/>
<text text-anchor="middle" x="387" y="-1355.6" font-family="Helvetica,sans-Serif" font-size="18.00">FileBranchingTaxonLookupWorkflow</text>
<g id="clust1" class="cluster"><title>cluster_workflow_box_outer</title>
<polygon fill="none" stroke="black" stroke-width="2" points="8,-62 8,-1284 766,-1284 766,-62 8,-62"/>
</g>
<g id="clust2" class="cluster"><title>cluster_workflow_box_inner</title>
<polygon fill="none" stroke="black" stroke-width="0" points="16,-70 16,-1276 758,-1276 758,-70 16,-70"/>
</g>
<g id="clust3" class="cluster"><title>cluster_input_ports_group_outer</title>
<polygon fill="none" stroke="black" stroke-width="0" points="254,-1292 254,-1338 332,-1338 332,-1292 254,-1292"/>
</g>
<g id="clust4" class="cluster"><title>cluster_input_ports_group_inner</title>
<polygon fill="none" stroke="black" stroke-width="0" points="262,-1300 262,-1330 324,-1330 324,-1300 262,-1300"/>
</g>
<g id="clust5" class="cluster"><title>cluster_output_ports_group_outer</title>
<polygon fill="none" stroke="black" stroke-width="0" points="323,-8 323,-54 401,-54 401,-8 323,-8"/>
</g>
<g id="clust6" class="cluster"><title>cluster_output_ports_group_inner</title>
<polygon fill="none" stroke="black" stroke-width="0" points="331,-16 331,-46 393,-46 393,-16 331,-16"/>
</g>
<!-- Setup -->
<g id="node1" class="node"><title>Setup</title>
<polygon fill="#ccffcc" stroke="black" points="72,-1122.5 72,-1183.5 494,-1183.5 494,-1122.5 72,-1122.5"/>
<text text-anchor="middle" x="283" y="-1168.3" font-family="Helvetica,sans-Serif" font-size="14.00">Setup</text>
<polyline fill="none" stroke="black" points="72,-1160.5 494,-1160.5 "/>
<text text-anchor="middle" x="283" y="-1145.3" font-family="Helvetica,sans-Serif" font-size="14.00">Create a unique workspace and transform the input file to a file</text>
<text text-anchor="middle" x="283" y="-1130.3" font-family="Helvetica,sans-Serif" font-size="14.00"> with chosen format and field names standardized to Darwin Core</text>
</g>
<!-- OccurrenceFile -->
<g id="node11" class="node"><title>OccurrenceFile</title>
<path fill="#ffffcc" stroke="black" d="M204,-1039C204,-1039 410,-1039 410,-1039 416,-1039 422,-1045 422,-1051 422,-1051 422,-1073 422,-1073 422,-1079 416,-1085 410,-1085 410,-1085 204,-1085 204,-1085 198,-1085 192,-1079 192,-1073 192,-1073 192,-1051 192,-1051 192,-1045 198,-1039 204,-1039"/>
<text text-anchor="middle" x="307" y="-1069.8" font-family="Helvetica,sans-Serif" font-size="14.00">OccurrenceFile</text>
<polyline fill="none" stroke="black" points="192,-1062 422,-1062 "/>
<text text-anchor="middle" x="307" y="-1046.8" font-family="Helvetica,sans-Serif" font-size="14.00">file:{workspace}/darwinized_file.txt</text>
</g>
<!-- Setup&#45;&gt;OccurrenceFile -->
<g id="edge2" class="edge"><title>Setup&#45;&gt;OccurrenceFile</title>
<path fill="none" stroke="black" d="M290.992,-1122.36C293.369,-1113.55 295.984,-1103.85 298.399,-1094.89"/>
<polygon fill="black" stroke="black" points="301.793,-1095.75 301.017,-1085.19 295.034,-1093.93 301.793,-1095.75"/>
</g>
<!-- Workspace -->
<g id="node18" class="node"><title>Workspace</title>
<path fill="#ffffcc" stroke="black" d="M125.25,-996C125.25,-996 62.75,-996 62.75,-996 56.75,-996 50.75,-990 50.75,-984 50.75,-984 50.75,-972 50.75,-972 50.75,-966 56.75,-960 62.75,-960 62.75,-960 125.25,-960 125.25,-960 131.25,-960 137.25,-966 137.25,-972 137.25,-972 137.25,-984 137.25,-984 137.25,-990 131.25,-996 125.25,-996"/>
<text text-anchor="middle" x="94" y="-974.3" font-family="Helvetica,sans-Serif" font-size="14.00">Workspace</text>
</g>
<!-- Setup&#45;&gt;Workspace -->
<g id="edge1" class="edge"><title>Setup&#45;&gt;Workspace</title>
<path fill="none" stroke="black" d="M232.076,-1122.49C215.66,-1111.93 197.878,-1099.32 183,-1086 155.224,-1061.13 128.601,-1027.37 111.83,-1004.47"/>
<polygon fill="black" stroke="black" points="114.596,-1002.33 105.903,-996.27 108.922,-1006.43 114.596,-1002.33"/>
</g>
<!-- FileToDataStream -->
<g id="node2" class="node"><title>FileToDataStream</title>
<polygon fill="#ccffcc" stroke="black" points="175,-955 175,-1001 579,-1001 579,-955 175,-955"/>
<text text-anchor="middle" x="377" y="-985.8" font-family="Helvetica,sans-Serif" font-size="14.00">FileToDataStream</text>
<polyline fill="none" stroke="black" points="175,-978 579,-978 "/>
<text text-anchor="middle" x="377" y="-962.8" font-family="Helvetica,sans-Serif" font-size="14.00">Take the darwinized occurrence file and stream records from it</text>
</g>
<!-- DataRecord -->
<g id="node12" class="node"><title>DataRecord</title>
<path fill="#ffffcc" stroke="black" d="M420.25,-918C420.25,-918 353.75,-918 353.75,-918 347.75,-918 341.75,-912 341.75,-906 341.75,-906 341.75,-894 341.75,-894 341.75,-888 347.75,-882 353.75,-882 353.75,-882 420.25,-882 420.25,-882 426.25,-882 432.25,-888 432.25,-894 432.25,-894 432.25,-906 432.25,-906 432.25,-912 426.25,-918 420.25,-918"/>
<text text-anchor="middle" x="387" y="-896.3" font-family="Helvetica,sans-Serif" font-size="14.00">DataRecord</text>
</g>
<!-- FileToDataStream&#45;&gt;DataRecord -->
<g id="edge5" class="edge"><title>FileToDataStream&#45;&gt;DataRecord</title>
<path fill="none" stroke="black" d="M379.946,-954.609C381.028,-946.391 382.264,-936.994 383.396,-928.387"/>
<polygon fill="black" stroke="black" points="386.874,-928.783 384.709,-918.412 379.934,-927.87 386.874,-928.783"/>
</g>
<!-- EnvironmentTagger -->
<g id="node3" class="node"><title>EnvironmentTagger</title>
<polygon fill="#ccffcc" stroke="black" points="44.5,-799 44.5,-845 749.5,-845 749.5,-799 44.5,-799"/>
<text text-anchor="middle" x="397" y="-829.8" font-family="Helvetica,sans-Serif" font-size="14.00">EnvironmentTagger</text>
<polyline fill="none" stroke="black" points="44.5,-822 749.5,-822 "/>
<text text-anchor="middle" x="397" y="-806.8" font-family="Helvetica,sans-Serif" font-size="14.00">Tag each record in the stream that appears to be marine with isMarine=true and nonmarine with isMarine=false</text>
</g>
<!-- TaggedDataRecord -->
<g id="node13" class="node"><title>TaggedDataRecord</title>
<path fill="#ffffcc" stroke="black" d="M454.25,-762C454.25,-762 339.75,-762 339.75,-762 333.75,-762 327.75,-756 327.75,-750 327.75,-750 327.75,-738 327.75,-738 327.75,-732 333.75,-726 339.75,-726 339.75,-726 454.25,-726 454.25,-726 460.25,-726 466.25,-732 466.25,-738 466.25,-738 466.25,-750 466.25,-750 466.25,-756 460.25,-762 454.25,-762"/>
<text text-anchor="middle" x="397" y="-740.3" font-family="Helvetica,sans-Serif" font-size="14.00">TaggedDataRecord</text>
</g>
<!-- EnvironmentTagger&#45;&gt;TaggedDataRecord -->
<g id="edge8" class="edge"><title>EnvironmentTagger&#45;&gt;TaggedDataRecord</title>
<path fill="none" stroke="black" d="M397,-798.609C397,-790.481 397,-781.2 397,-772.671"/>
<polygon fill="black" stroke="black" points="400.5,-772.412 397,-762.412 393.5,-772.412 400.5,-772.412"/>
</g>
<!-- LogFile -->
<g id="node21" class="node"><title>LogFile</title>
<path fill="#ffffcc" stroke="black" d="M434,-403C434,-403 510,-403 510,-403 516,-403 522,-409 522,-415 522,-415 522,-437 522,-437 522,-443 516,-449 510,-449 510,-449 434,-449 434,-449 428,-449 422,-443 422,-437 422,-437 422,-415 422,-415 422,-409 428,-403 434,-403"/>
<text text-anchor="middle" x="472" y="-433.8" font-family="Helvetica,sans-Serif" font-size="14.00">LogFile</text>
<polyline fill="none" stroke="black" points="422,-426 522,-426 "/>
<text text-anchor="middle" x="472" y="-410.8" font-family="Helvetica,sans-Serif" font-size="14.00">file:runlog.log</text>
</g>
<!-- EnvironmentTagger&#45;&gt;LogFile -->
<g id="edge7" class="edge"><title>EnvironmentTagger&#45;&gt;LogFile</title>
<path fill="none" stroke="black" d="M543.428,-798.902C616.285,-778.71 689,-740.217 689,-667 689,-667 689,-667 689,-587 689,-508.531 595.941,-464.22 531.705,-442.98"/>
<polygon fill="black" stroke="black" points="532.648,-439.607 522.057,-439.89 530.513,-446.273 532.648,-439.607"/>
</g>
<!-- FilterToJustMarine -->
<g id="node4" class="node"><title>FilterToJustMarine</title>
<polygon fill="#ccffcc" stroke="black" points="378,-643 378,-689 670,-689 670,-643 378,-643"/>
<text text-anchor="middle" x="524" y="-673.8" font-family="Helvetica,sans-Serif" font-size="14.00">FilterToJustMarine</text>
<polyline fill="none" stroke="black" points="378,-666 670,-666 "/>
<text text-anchor="middle" x="524" y="-650.8" font-family="Helvetica,sans-Serif" font-size="14.00">Pass only records tagged with isMarine=true</text>
</g>
<!-- MarineDataRecord -->
<g id="node14" class="node"><title>MarineDataRecord</title>
<path fill="#ffffcc" stroke="black" d="M524,-606C524,-606 414,-606 414,-606 408,-606 402,-600 402,-594 402,-594 402,-582 402,-582 402,-576 408,-570 414,-570 414,-570 524,-570 524,-570 530,-570 536,-576 536,-582 536,-582 536,-594 536,-594 536,-600 530,-606 524,-606"/>
<text text-anchor="middle" x="469" y="-584.3" font-family="Helvetica,sans-Serif" font-size="14.00">MarineDataRecord</text>
</g>
<!-- FilterToJustMarine&#45;&gt;MarineDataRecord -->
<g id="edge11" class="edge"><title>FilterToJustMarine&#45;&gt;MarineDataRecord</title>
<path fill="none" stroke="black" d="M507.796,-642.609C501.456,-633.849 494.148,-623.75 487.595,-614.695"/>
<polygon fill="black" stroke="black" points="490.299,-612.461 481.601,-606.412 484.628,-616.565 490.299,-612.461"/>
</g>
<!-- FilterToJustMarine&#45;&gt;LogFile -->
<g id="edge10" class="edge"><title>FilterToJustMarine&#45;&gt;LogFile</title>
<path fill="none" stroke="black" d="M540.935,-642.984C565.775,-607.795 606.049,-537.594 576,-486 565.947,-468.739 548.757,-456.118 531.217,-447.088"/>
<polygon fill="black" stroke="black" points="532.578,-443.859 522.048,-442.687 529.549,-450.17 532.578,-443.859"/>
</g>
<!-- FilterExcludingMarine -->
<g id="node5" class="node"><title>FilterExcludingMarine</title>
<polygon fill="#ccffcc" stroke="black" points="44,-643 44,-689 360,-689 360,-643 44,-643"/>
<text text-anchor="middle" x="202" y="-673.8" font-family="Helvetica,sans-Serif" font-size="14.00">FilterExcludingMarine</text>
<polyline fill="none" stroke="black" points="44,-666 360,-666 "/>
<text text-anchor="middle" x="202" y="-650.8" font-family="Helvetica,sans-Serif" font-size="14.00">Pass only records not tagged with isMarine=true</text>
</g>
<!-- notMarineDataRecord -->
<g id="node15" class="node"><title>notMarineDataRecord</title>
<path fill="#ffffcc" stroke="black" d="M253.25,-606C253.25,-606 124.75,-606 124.75,-606 118.75,-606 112.75,-600 112.75,-594 112.75,-594 112.75,-582 112.75,-582 112.75,-576 118.75,-570 124.75,-570 124.75,-570 253.25,-570 253.25,-570 259.25,-570 265.25,-576 265.25,-582 265.25,-582 265.25,-594 265.25,-594 265.25,-600 259.25,-606 253.25,-606"/>
<text text-anchor="middle" x="189" y="-584.3" font-family="Helvetica,sans-Serif" font-size="14.00">notMarineDataRecord</text>
</g>
<!-- FilterExcludingMarine&#45;&gt;notMarineDataRecord -->
<g id="edge14" class="edge"><title>FilterExcludingMarine&#45;&gt;notMarineDataRecord</title>
<path fill="none" stroke="black" d="M198.17,-642.609C196.764,-634.391 195.157,-624.994 193.685,-616.387"/>
<polygon fill="black" stroke="black" points="197.114,-615.679 191.978,-606.412 190.215,-616.859 197.114,-615.679"/>
</g>
<!-- FilterExcludingMarine&#45;&gt;LogFile -->
<g id="edge13" class="edge"><title>FilterExcludingMarine&#45;&gt;LogFile</title>
<path fill="none" stroke="black" d="M236.868,-642.817C250.068,-632.929 264.247,-620.279 274,-606 289.816,-582.846 293.518,-506.166 313,-486 345.529,-452.327 368.14,-466.38 412,-450 412.101,-449.962 412.203,-449.924 412.304,-449.886"/>
<polygon fill="black" stroke="black" points="413.806,-453.061 421.934,-446.266 411.342,-446.509 413.806,-453.061"/>
</g>
<!-- WoRMSLookup -->
<g id="node6" class="node"><title>WoRMSLookup</title>
<polygon fill="#ccffcc" stroke="black" points="322.5,-487 322.5,-533 567.5,-533 567.5,-487 322.5,-487"/>
<text text-anchor="middle" x="445" y="-517.8" font-family="Helvetica,sans-Serif" font-size="14.00">WoRMSLookup</text>
<polyline fill="none" stroke="black" points="322.5,-510 567.5,-510 "/>
<text text-anchor="middle" x="445" y="-494.8" font-family="Helvetica,sans-Serif" font-size="14.00">Lookup GUIDs for names in WoRMS</text>
</g>
<!-- WoRMSUpdatedRecord -->
<g id="node17" class="node"><title>WoRMSUpdatedRecord</title>
<path fill="#ffffcc" stroke="black" d="M391.25,-444C391.25,-444 248.75,-444 248.75,-444 242.75,-444 236.75,-438 236.75,-432 236.75,-432 236.75,-420 236.75,-420 236.75,-414 242.75,-408 248.75,-408 248.75,-408 391.25,-408 391.25,-408 397.25,-408 403.25,-414 403.25,-420 403.25,-420 403.25,-432 403.25,-432 403.25,-438 397.25,-444 391.25,-444"/>
<text text-anchor="middle" x="320" y="-422.3" font-family="Helvetica,sans-Serif" font-size="14.00">WoRMSUpdatedRecord</text>
</g>
<!-- WoRMSLookup&#45;&gt;WoRMSUpdatedRecord -->
<g id="edge16" class="edge"><title>WoRMSLookup&#45;&gt;WoRMSUpdatedRecord</title>
<path fill="none" stroke="black" d="M411.173,-486.81C393.687,-475.339 372.378,-461.36 354.759,-449.802"/>
<polygon fill="black" stroke="black" points="356.203,-446.563 345.921,-444.004 352.363,-452.416 356.203,-446.563"/>
</g>
<!-- WoRMSLookup&#45;&gt;LogFile -->
<g id="edge17" class="edge"><title>WoRMSLookup&#45;&gt;LogFile</title>
<path fill="none" stroke="black" d="M452.378,-486.593C455.199,-478.027 458.472,-468.086 461.527,-458.808"/>
<polygon fill="black" stroke="black" points="464.921,-459.689 464.725,-449.096 458.273,-457.5 464.921,-459.689"/>
</g>
<!-- GBIFLookup -->
<g id="node7" class="node"><title>GBIFLookup</title>
<polygon fill="#ccffcc" stroke="black" points="58,-487 58,-533 284,-533 284,-487 58,-487"/>
<text text-anchor="middle" x="171" y="-517.8" font-family="Helvetica,sans-Serif" font-size="14.00">GBIFLookup</text>
<polyline fill="none" stroke="black" points="58,-510 284,-510 "/>
<text text-anchor="middle" x="171" y="-494.8" font-family="Helvetica,sans-Serif" font-size="14.00">Lookup GUIDs for names in GBIF</text>
</g>
<!-- GBIFUpdatedRecord -->
<g id="node16" class="node"><title>GBIFUpdatedRecord</title>
<path fill="#ffffcc" stroke="black" d="M206.25,-444C206.25,-444 83.75,-444 83.75,-444 77.75,-444 71.75,-438 71.75,-432 71.75,-432 71.75,-420 71.75,-420 71.75,-414 77.75,-408 83.75,-408 83.75,-408 206.25,-408 206.25,-408 212.25,-408 218.25,-414 218.25,-420 218.25,-420 218.25,-432 218.25,-432 218.25,-438 212.25,-444 206.25,-444"/>
<text text-anchor="middle" x="145" y="-422.3" font-family="Helvetica,sans-Serif" font-size="14.00">GBIFUpdatedRecord</text>
</g>
<!-- GBIFLookup&#45;&gt;GBIFUpdatedRecord -->
<g id="edge19" class="edge"><title>GBIFLookup&#45;&gt;GBIFUpdatedRecord</title>
<path fill="none" stroke="black" d="M163.895,-486.593C160.682,-476.459 156.86,-464.403 153.496,-453.795"/>
<polygon fill="black" stroke="black" points="156.805,-452.652 150.446,-444.177 150.133,-454.768 156.805,-452.652"/>
</g>
<!-- GBIFLookup&#45;&gt;LogFile -->
<g id="edge20" class="edge"><title>GBIFLookup&#45;&gt;LogFile</title>
<path fill="none" stroke="black" d="M273.213,-486.98C316.383,-476.907 366.982,-464.078 412,-450 412.1,-449.969 412.2,-449.937 412.3,-449.906"/>
<polygon fill="black" stroke="black" points="413.346,-453.247 421.747,-446.791 411.154,-446.599 413.346,-453.247"/>
</g>
<!-- StreamMerge -->
<g id="node8" class="node"><title>StreamMerge</title>
<polygon fill="#ccffcc" stroke="black" points="167.5,-319 167.5,-365 300.5,-365 300.5,-319 167.5,-319"/>
<text text-anchor="middle" x="234" y="-349.8" font-family="Helvetica,sans-Serif" font-size="14.00">StreamMerge</text>
<polyline fill="none" stroke="black" points="167.5,-342 300.5,-342 "/>
<text text-anchor="middle" x="234" y="-326.8" font-family="Helvetica,sans-Serif" font-size="14.00">Merge the streams</text>
</g>
<!-- MergedStream -->
<g id="node19" class="node"><title>MergedStream</title>
<path fill="#ffffcc" stroke="black" d="M276.25,-282C276.25,-282 191.75,-282 191.75,-282 185.75,-282 179.75,-276 179.75,-270 179.75,-270 179.75,-258 179.75,-258 179.75,-252 185.75,-246 191.75,-246 191.75,-246 276.25,-246 276.25,-246 282.25,-246 288.25,-252 288.25,-258 288.25,-258 288.25,-270 288.25,-270 288.25,-276 282.25,-282 276.25,-282"/>
<text text-anchor="middle" x="234" y="-260.3" font-family="Helvetica,sans-Serif" font-size="14.00">MergedStream</text>
</g>
<!-- StreamMerge&#45;&gt;MergedStream -->
<g id="edge22" class="edge"><title>StreamMerge&#45;&gt;MergedStream</title>
<path fill="none" stroke="black" d="M234,-318.609C234,-310.481 234,-301.2 234,-292.671"/>
<polygon fill="black" stroke="black" points="237.5,-292.412 234,-282.412 230.5,-292.412 237.5,-292.412"/>
</g>
<!-- CsvFileWriter -->
<g id="node9" class="node"><title>CsvFileWriter</title>
<polygon fill="#ccffcc" stroke="black" points="56,-163 56,-209 412,-209 412,-163 56,-163"/>
<text text-anchor="middle" x="234" y="-193.8" font-family="Helvetica,sans-Serif" font-size="14.00">CsvFileWriter</text>
<polyline fill="none" stroke="black" points="56,-186 412,-186 "/>
<text text-anchor="middle" x="234" y="-170.8" font-family="Helvetica,sans-Serif" font-size="14.00">Write to a csv file and wrapup by finishing the workflow</text>
</g>
<!-- UpdatedDarwinCoreFile -->
<g id="node20" class="node"><title>UpdatedDarwinCoreFile</title>
<path fill="#ffffcc" stroke="black" d="M157,-79C157,-79 381,-79 381,-79 387,-79 393,-85 393,-91 393,-91 393,-113 393,-113 393,-119 387,-125 381,-125 381,-125 157,-125 157,-125 151,-125 145,-119 145,-113 145,-113 145,-91 145,-91 145,-85 151,-79 157,-79"/>
<text text-anchor="middle" x="269" y="-109.8" font-family="Helvetica,sans-Serif" font-size="14.00">UpdatedDarwinCoreFile</text>
<polyline fill="none" stroke="black" points="145,-102 393,-102 "/>
<text text-anchor="middle" x="269" y="-86.8" font-family="Helvetica,sans-Serif" font-size="14.00">file:{workspace}/mergedoutputfile.csv</text>
</g>
<!-- CsvFileWriter&#45;&gt;UpdatedDarwinCoreFile -->
<g id="edge25" class="edge"><title>CsvFileWriter&#45;&gt;UpdatedDarwinCoreFile</title>
<path fill="none" stroke="black" d="M243.564,-162.593C247.259,-153.935 251.554,-143.874 255.55,-134.512"/>
<polygon fill="black" stroke="black" points="258.862,-135.667 259.569,-125.096 252.424,-132.919 258.862,-135.667"/>
</g>
<!-- DarwinCoreFile -->
<g id="node10" class="node"><title>DarwinCoreFile</title>
<path fill="#ffffcc" stroke="black" d="M220,-1221C220,-1221 672,-1221 672,-1221 678,-1221 684,-1227 684,-1233 684,-1233 684,-1255 684,-1255 684,-1261 678,-1267 672,-1267 672,-1267 220,-1267 220,-1267 214,-1267 208,-1261 208,-1255 208,-1255 208,-1233 208,-1233 208,-1227 214,-1221 220,-1221"/>
<text text-anchor="middle" x="446" y="-1251.8" font-family="Helvetica,sans-Serif" font-size="14.00">DarwinCoreFile</text>
<polyline fill="none" stroke="black" points="208,-1244 684,-1244 "/>
<text text-anchor="middle" x="446" y="-1228.8" font-family="Helvetica,sans-Serif" font-size="14.00">file:packages/kurator_branching_generic/data/kurator_sample_data_v2.txt</text>
</g>
<!-- DarwinCoreFile&#45;&gt;Setup -->
<g id="edge4" class="edge"><title>DarwinCoreFile&#45;&gt;Setup</title>
<path fill="none" stroke="black" d="M405.708,-1221C387.723,-1211.18 366.105,-1199.38 346.058,-1188.43"/>
<polygon fill="black" stroke="black" points="347.733,-1185.36 337.278,-1183.64 344.378,-1191.5 347.733,-1185.36"/>
</g>
<!-- OccurrenceFile&#45;&gt;FileToDataStream -->
<g id="edge6" class="edge"><title>OccurrenceFile&#45;&gt;FileToDataStream</title>
<path fill="none" stroke="black" d="M326.128,-1038.59C333.985,-1029.39 343.197,-1018.6 351.607,-1008.75"/>
<polygon fill="black" stroke="black" points="354.307,-1010.97 358.138,-1001.1 348.983,-1006.43 354.307,-1010.97"/>
</g>
<!-- DataRecord&#45;&gt;EnvironmentTagger -->
<g id="edge9" class="edge"><title>DataRecord&#45;&gt;EnvironmentTagger</title>
<path fill="none" stroke="black" d="M389.269,-881.754C390.307,-873.863 391.572,-864.249 392.776,-855.102"/>
<polygon fill="black" stroke="black" points="396.259,-855.462 394.093,-845.091 389.319,-854.549 396.259,-855.462"/>
</g>
<!-- TaggedDataRecord&#45;&gt;FilterToJustMarine -->
<g id="edge12" class="edge"><title>TaggedDataRecord&#45;&gt;FilterToJustMarine</title>
<path fill="none" stroke="black" d="M425.501,-725.944C440.946,-716.702 460.408,-705.055 477.945,-694.561"/>
<polygon fill="black" stroke="black" points="480.125,-697.335 486.909,-689.196 476.531,-691.328 480.125,-697.335"/>
</g>
<!-- TaggedDataRecord&#45;&gt;FilterExcludingMarine -->
<g id="edge15" class="edge"><title>TaggedDataRecord&#45;&gt;FilterExcludingMarine</title>
<path fill="none" stroke="black" d="M353.238,-725.944C328.118,-716.154 296.076,-703.666 267.957,-692.706"/>
<polygon fill="black" stroke="black" points="269.176,-689.425 258.587,-689.055 266.634,-695.947 269.176,-689.425"/>
</g>
<!-- MarineDataRecord&#45;&gt;WoRMSLookup -->
<g id="edge18" class="edge"><title>MarineDataRecord&#45;&gt;WoRMSLookup</title>
<path fill="none" stroke="black" d="M463.554,-569.754C461.035,-561.778 457.961,-552.042 455.044,-542.808"/>
<polygon fill="black" stroke="black" points="458.325,-541.573 451.976,-533.091 451.65,-543.681 458.325,-541.573"/>
</g>
<!-- notMarineDataRecord&#45;&gt;GBIFLookup -->
<g id="edge21" class="edge"><title>notMarineDataRecord&#45;&gt;GBIFLookup</title>
<path fill="none" stroke="black" d="M184.916,-569.754C183.047,-561.863 180.77,-552.249 178.603,-543.102"/>
<polygon fill="black" stroke="black" points="181.943,-542.015 176.232,-533.091 175.131,-543.628 181.943,-542.015"/>
</g>
<!-- GBIFUpdatedRecord&#45;&gt;StreamMerge -->
<g id="edge23" class="edge"><title>GBIFUpdatedRecord&#45;&gt;StreamMerge</title>
<path fill="none" stroke="black" d="M163.875,-407.61C175.135,-397.235 189.717,-383.8 202.665,-371.871"/>
<polygon fill="black" stroke="black" points="205.079,-374.405 210.062,-365.055 200.336,-369.257 205.079,-374.405"/>
</g>
<!-- WoRMSUpdatedRecord&#45;&gt;StreamMerge -->
<g id="edge24" class="edge"><title>WoRMSUpdatedRecord&#45;&gt;StreamMerge</title>
<path fill="none" stroke="black" d="M301.762,-407.61C290.982,-397.332 277.053,-384.051 264.63,-372.206"/>
<polygon fill="black" stroke="black" points="266.784,-369.423 257.131,-365.055 261.953,-374.489 266.784,-369.423"/>
</g>
<!-- Workspace&#45;&gt;CsvFileWriter -->
<g id="edge26" class="edge"><title>Workspace&#45;&gt;CsvFileWriter</title>
<path fill="none" stroke="black" d="M80.3678,-959.653C60.2591,-932.271 25,-876.614 25,-823 25,-823 25,-823 25,-341 25,-276.425 90.4637,-235.894 148.116,-212.721"/>
<polygon fill="black" stroke="black" points="149.607,-215.896 157.659,-209.011 147.07,-209.372 149.607,-215.896"/>
</g>
<!-- MergedStream&#45;&gt;CsvFileWriter -->
<g id="edge27" class="edge"><title>MergedStream&#45;&gt;CsvFileWriter</title>
<path fill="none" stroke="black" d="M234,-245.754C234,-237.863 234,-228.249 234,-219.102"/>
<polygon fill="black" stroke="black" points="237.5,-219.091 234,-209.091 230.5,-219.091 237.5,-219.091"/>
</g>
<!-- UpdatedDarwinCoreFile_output_port -->
<g id="node25" class="node"><title>UpdatedDarwinCoreFile_output_port</title>
<ellipse fill="#ffffff" stroke="black" cx="346" cy="-31" rx="7" ry="7"/>
</g>
<!-- UpdatedDarwinCoreFile&#45;&gt;UpdatedDarwinCoreFile_output_port -->
<g id="edge30" class="edge"><title>UpdatedDarwinCoreFile&#45;&gt;UpdatedDarwinCoreFile_output_port</title>
<path fill="none" stroke="black" d="M293.787,-78.7882C307.114,-66.8462 322.962,-52.6446 333.675,-43.0449"/>
<polygon fill="black" stroke="black" points="336.186,-45.4942 341.297,-36.214 331.514,-40.2811 336.186,-45.4942"/>
</g>
<!-- LogFile_output_port -->
<g id="node26" class="node"><title>LogFile_output_port</title>
<ellipse fill="#ffffff" stroke="black" cx="378" cy="-31" rx="7" ry="7"/>
</g>
<!-- LogFile&#45;&gt;LogFile_output_port -->
<g id="edge31" class="edge"><title>LogFile&#45;&gt;LogFile_output_port</title>
<path fill="none" stroke="black" d="M468.369,-402.81C463.649,-371.983 456,-314.412 456,-265 456,-265 456,-265 456,-185 456,-127.112 411.134,-69.0248 389.457,-44.338"/>
<polygon fill="black" stroke="black" points="391.952,-41.8795 382.646,-36.8163 386.764,-46.5781 391.952,-41.8795"/>
</g>
<!-- InputFilePath -->
<g id="node22" class="node"><title>InputFilePath</title>
<path fill="#fcfcfc" stroke="black" d="M177.25,-1262C177.25,-1262 102.75,-1262 102.75,-1262 96.75,-1262 90.75,-1256 90.75,-1250 90.75,-1250 90.75,-1238 90.75,-1238 90.75,-1232 96.75,-1226 102.75,-1226 102.75,-1226 177.25,-1226 177.25,-1226 183.25,-1226 189.25,-1232 189.25,-1238 189.25,-1238 189.25,-1250 189.25,-1250 189.25,-1256 183.25,-1262 177.25,-1262"/>
<text text-anchor="middle" x="140" y="-1240.3" font-family="Helvetica,sans-Serif" font-size="14.00">InputFilePath</text>
</g>
<!-- InputFilePath&#45;&gt;Setup -->
<g id="edge3" class="edge"><title>InputFilePath&#45;&gt;Setup</title>
<path fill="none" stroke="black" d="M167.572,-1225.84C184.402,-1215.36 206.535,-1201.59 226.914,-1188.91"/>
<polygon fill="black" stroke="black" points="228.879,-1191.81 235.52,-1183.55 225.18,-1185.86 228.879,-1191.81"/>
</g>
<!-- InputFilePath_input_port -->
<g id="node23" class="node"><title>InputFilePath_input_port</title>
<ellipse fill="#ffffff" stroke="black" cx="277" cy="-1315" rx="7" ry="7"/>
</g>
<!-- InputFilePath_input_port&#45;&gt;InputFilePath -->
<g id="edge28" class="edge"><title>InputFilePath_input_port&#45;&gt;InputFilePath</title>
<path fill="none" stroke="black" d="M270.321,-1311.97C256.573,-1307.69 224.281,-1297.02 199,-1284 189.831,-1279.28 180.327,-1273.45 171.694,-1267.76"/>
<polygon fill="black" stroke="black" points="173.644,-1264.86 163.398,-1262.16 169.726,-1270.66 173.644,-1264.86"/>
</g>
<!-- DarwinCoreFile_input_port -->
<g id="node24" class="node"><title>DarwinCoreFile_input_port</title>
<ellipse fill="#ffffff" stroke="black" cx="309" cy="-1315" rx="7" ry="7"/>
</g>
<!-- DarwinCoreFile_input_port&#45;&gt;DarwinCoreFile -->
<g id="edge29" class="edge"><title>DarwinCoreFile_input_port&#45;&gt;DarwinCoreFile</title>
<path fill="none" stroke="black" d="M314.887,-1311.04C328.393,-1304.23 362.771,-1286.92 392.936,-1271.73"/>
<polygon fill="black" stroke="black" points="394.777,-1274.72 402.134,-1267.09 391.629,-1268.47 394.777,-1274.72"/>
</g>
</g>
</svg>
