<?xml version="1.0" encoding="UTF-8" standalone="no"?>
<!DOCTYPE svg PUBLIC "-//W3C//DTD SVG 1.1//EN"
 "http://www.w3.org/Graphics/SVG/1.1/DTD/svg11.dtd">
<!-- Generated by graphviz version 2.36.0 (20140111.2315)
 -->
<!-- Title: yw_data_view Pages: 1 -->
<svg width="220pt" height="318pt"
 viewBox="0.00 0.00 220.00 318.00" xmlns="http://www.w3.org/2000/svg" xmlns:xlink="http://www.w3.org/1999/xlink">
<g id="graph0" class="graph" transform="scale(1 1) rotate(0) translate(4 314)">
<title>yw_data_view</title>
<polygon fill="white" stroke="none" points="-4,4 -4,-314 216,-314 216,4 -4,4"/>
<text text-anchor="middle" x="106" y="-291.6" font-family="Courier,monospace" font-size="18.00">DwCA_Taxon_Lookup</text>
<g id="clust1" class="cluster"><title>cluster_workflow</title>
<polygon fill="none" stroke="black" stroke-width="2" points="8,-62 8,-274 204,-274 204,-62 8,-62"/>
</g>
<g id="clust2" class="cluster"><title>cluster_workflow_inner</title>
<polygon fill="none" stroke="white" stroke-width="2" points="16,-70 16,-266 196,-266 196,-70 16,-70"/>
</g>
<g id="clust5" class="cluster"><title>cluster_outflows</title>
<polygon fill="none" stroke="white" stroke-width="2" points="83,-8 83,-54 129,-54 129,-8 83,-8"/>
</g>
<g id="clust6" class="cluster"><title>cluster_outflows_inner</title>
<polygon fill="none" stroke="white" stroke-width="2" points="91,-16 91,-46 121,-46 121,-16 91,-16"/>
</g>
<!-- CsvFileWriter -->
<g id="node1" class="node"><title>CsvFileWriter</title>
<polygon fill="#ccffcc" stroke="black" points="169,-186 43,-186 43,-150 169,-150 169,-186"/>
<text text-anchor="middle" x="106" y="-164.3" font-family="Courier,monospace" font-size="14.00">CsvFileWriter</text>
</g>
<!-- UpdatedOccurrenceFile -->
<g id="node3" class="node"><title>UpdatedOccurrenceFile</title>
<path fill="#ffffcc" stroke="black" d="M176,-114C176,-114 36,-114 36,-114 30,-114 24,-108 24,-102 24,-102 24,-90 24,-90 24,-84 30,-78 36,-78 36,-78 176,-78 176,-78 182,-78 188,-84 188,-90 188,-90 188,-102 188,-102 188,-108 182,-114 176,-114"/>
<text text-anchor="middle" x="106" y="-92.3" font-family="Helvetica,sans-Serif" font-size="14.00">UpdatedOccurrenceFile</text>
</g>
<!-- CsvFileWriter&#45;&gt;UpdatedOccurrenceFile -->
<g id="edge1" class="edge"><title>CsvFileWriter&#45;&gt;UpdatedOccurrenceFile</title>
<path fill="none" stroke="black" d="M106,-149.697C106,-141.983 106,-132.712 106,-124.112"/>
<polygon fill="black" stroke="black" points="109.5,-124.104 106,-114.104 102.5,-124.104 109.5,-124.104"/>
</g>
<!-- Workspace -->
<g id="node2" class="node"><title>Workspace</title>
<path fill="#ffffcc" stroke="black" d="M137.25,-258C137.25,-258 74.75,-258 74.75,-258 68.75,-258 62.75,-252 62.75,-246 62.75,-246 62.75,-234 62.75,-234 62.75,-228 68.75,-222 74.75,-222 74.75,-222 137.25,-222 137.25,-222 143.25,-222 149.25,-228 149.25,-234 149.25,-234 149.25,-246 149.25,-246 149.25,-252 143.25,-258 137.25,-258"/>
<text text-anchor="middle" x="106" y="-236.3" font-family="Helvetica,sans-Serif" font-size="14.00">Workspace</text>
</g>
<!-- Workspace&#45;&gt;CsvFileWriter -->
<g id="edge2" class="edge"><title>Workspace&#45;&gt;CsvFileWriter</title>
<path fill="none" stroke="black" d="M106,-221.697C106,-213.983 106,-204.712 106,-196.112"/>
<polygon fill="black" stroke="black" points="109.5,-196.104 106,-186.104 102.5,-196.104 109.5,-196.104"/>
</g>
<!-- UpdatedOccurrenceFile_outflow -->
<g id="node4" class="node"><title>UpdatedOccurrenceFile_outflow</title>
<ellipse fill="none" stroke="black" cx="106" cy="-31" rx="7" ry="7"/>
</g>
<!-- UpdatedOccurrenceFile&#45;&gt;UpdatedOccurrenceFile_outflow -->
<g id="edge3" class="edge"><title>UpdatedOccurrenceFile&#45;&gt;UpdatedOccurrenceFile_outflow</title>
<path fill="none" stroke="black" d="M106,-77.785C106,-68.6656 106,-57.5197 106,-48.5085"/>
<polygon fill="black" stroke="black" points="109.5,-48.242 106,-38.242 102.5,-48.2421 109.5,-48.242"/>
</g>
</g>
</svg>
