<?xml version="1.0" encoding="UTF-8" standalone="no"?>
<!DOCTYPE svg PUBLIC "-//W3C//DTD SVG 1.1//EN"
 "http://www.w3.org/Graphics/SVG/1.1/DTD/svg11.dtd">
<!-- Generated by graphviz version 2.36.0 (20140111.2315)
 -->
<!-- Title: yw_data_view Pages: 1 -->
<svg width="370pt" height="318pt"
 viewBox="0.00 0.00 370.00 318.00" xmlns="http://www.w3.org/2000/svg" xmlns:xlink="http://www.w3.org/1999/xlink">
<g id="graph0" class="graph" transform="scale(1 1) rotate(0) translate(4 314)">
<title>yw_data_view</title>
<polygon fill="white" stroke="none" points="-4,4 -4,-314 366,-314 366,4 -4,4"/>
<text text-anchor="middle" x="181" y="-291.6" font-family="Courier,monospace" font-size="18.00">FileBranchingTaxonLookupWorkflow</text>
<g id="clust1" class="cluster"><title>cluster_workflow</title>
<polygon fill="none" stroke="black" stroke-width="2" points="82,-62 82,-274 280,-274 280,-62 82,-62"/>
</g>
<g id="clust2" class="cluster"><title>cluster_workflow_inner</title>
<polygon fill="none" stroke="white" stroke-width="2" points="90,-70 90,-266 272,-266 272,-70 90,-70"/>
</g>
<g id="clust5" class="cluster"><title>cluster_outflows</title>
<polygon fill="none" stroke="white" stroke-width="2" points="158,-8 158,-54 204,-54 204,-8 158,-8"/>
</g>
<g id="clust6" class="cluster"><title>cluster_outflows_inner</title>
<polygon fill="none" stroke="white" stroke-width="2" points="166,-16 166,-46 196,-46 196,-16 166,-16"/>
</g>
<!-- CsvFileWriter -->
<g id="node1" class="node"><title>CsvFileWriter</title>
<polygon fill="#ccffcc" stroke="black" points="244,-186 118,-186 118,-150 244,-150 244,-186"/>
<text text-anchor="middle" x="181" y="-164.3" font-family="Courier,monospace" font-size="14.00">CsvFileWriter</text>
</g>
<!-- UpdatedDarwinCoreFile -->
<g id="node3" class="node"><title>UpdatedDarwinCoreFile</title>
<path fill="#ffffcc" stroke="black" d="M252,-114C252,-114 110,-114 110,-114 104,-114 98,-108 98,-102 98,-102 98,-90 98,-90 98,-84 104,-78 110,-78 110,-78 252,-78 252,-78 258,-78 264,-84 264,-90 264,-90 264,-102 264,-102 264,-108 258,-114 252,-114"/>
<text text-anchor="middle" x="181" y="-92.3" font-family="Helvetica,sans-Serif" font-size="14.00">UpdatedDarwinCoreFile</text>
</g>
<!-- CsvFileWriter&#45;&gt;UpdatedDarwinCoreFile -->
<g id="edge1" class="edge"><title>CsvFileWriter&#45;&gt;UpdatedDarwinCoreFile</title>
<path fill="none" stroke="black" d="M181,-149.697C181,-141.983 181,-132.712 181,-124.112"/>
<polygon fill="black" stroke="black" points="184.5,-124.104 181,-114.104 177.5,-124.104 184.5,-124.104"/>
</g>
<!-- Workspace -->
<g id="node2" class="node"><title>Workspace</title>
<path fill="#ffffcc" stroke="black" d="M212.25,-258C212.25,-258 149.75,-258 149.75,-258 143.75,-258 137.75,-252 137.75,-246 137.75,-246 137.75,-234 137.75,-234 137.75,-228 143.75,-222 149.75,-222 149.75,-222 212.25,-222 212.25,-222 218.25,-222 224.25,-228 224.25,-234 224.25,-234 224.25,-246 224.25,-246 224.25,-252 218.25,-258 212.25,-258"/>
<text text-anchor="middle" x="181" y="-236.3" font-family="Helvetica,sans-Serif" font-size="14.00">Workspace</text>
</g>
<!-- Workspace&#45;&gt;CsvFileWriter -->
<g id="edge2" class="edge"><title>Workspace&#45;&gt;CsvFileWriter</title>
<path fill="none" stroke="black" d="M181,-221.697C181,-213.983 181,-204.712 181,-196.112"/>
<polygon fill="black" stroke="black" points="184.5,-196.104 181,-186.104 177.5,-196.104 184.5,-196.104"/>
</g>
<!-- UpdatedDarwinCoreFile_outflow -->
<g id="node4" class="node"><title>UpdatedDarwinCoreFile_outflow</title>
<ellipse fill="none" stroke="black" cx="181" cy="-31" rx="7" ry="7"/>
</g>
<!-- UpdatedDarwinCoreFile&#45;&gt;UpdatedDarwinCoreFile_outflow -->
<g id="edge3" class="edge"><title>UpdatedDarwinCoreFile&#45;&gt;UpdatedDarwinCoreFile_outflow</title>
<path fill="none" stroke="black" d="M181,-77.785C181,-68.6656 181,-57.5197 181,-48.5085"/>
<polygon fill="black" stroke="black" points="184.5,-48.242 181,-38.242 177.5,-48.2421 184.5,-48.242"/>
</g>
</g>
</svg>
