<?xml version="1.0" encoding="UTF-8" standalone="no"?>
<!DOCTYPE svg PUBLIC "-//W3C//DTD SVG 1.1//EN"
 "http://www.w3.org/Graphics/SVG/1.1/DTD/svg11.dtd">
<!-- Generated by graphviz version 2.36.0 (20140111.2315)
 -->
<!-- Title: yw_data_view Pages: 1 -->
<svg width="469pt" height="894pt"
 viewBox="0.00 0.00 469.00 894.00" xmlns="http://www.w3.org/2000/svg" xmlns:xlink="http://www.w3.org/1999/xlink">
<g id="graph0" class="graph" transform="scale(1 1) rotate(0) translate(4 890)">
<title>yw_data_view</title>
<polygon fill="white" stroke="none" points="-4,4 -4,-890 465,-890 465,4 -4,4"/>
<text text-anchor="middle" x="230.5" y="-867.6" font-family="Courier,monospace" font-size="18.00">FileBranchingTaxonLookupWorkflow</text>
<g id="clust5" class="cluster"><title>cluster_outflows</title>
<polygon fill="none" stroke="white" stroke-width="2" points="309,-8 309,-54 387,-54 387,-8 309,-8"/>
</g>
<g id="clust6" class="cluster"><title>cluster_outflows_inner</title>
<polygon fill="none" stroke="white" stroke-width="2" points="317,-16 317,-46 379,-46 379,-16 317,-16"/>
</g>
<g id="clust1" class="cluster"><title>cluster_workflow</title>
<polygon fill="none" stroke="black" stroke-width="2" points="8,-62 8,-850 453,-850 453,-62 8,-62"/>
</g>
<g id="clust2" class="cluster"><title>cluster_workflow_inner</title>
<polygon fill="none" stroke="white" stroke-width="2" points="16,-70 16,-842 445,-842 445,-70 16,-70"/>
</g>
<!-- FilterExcludingMarine -->
<g id="node1" class="node"><title>FilterExcludingMarine</title>
<polygon fill="#ccffcc" stroke="black" points="223.25,-618 30.75,-618 30.75,-582 223.25,-582 223.25,-618"/>
<text text-anchor="middle" x="127" y="-596.3" font-family="Courier,monospace" font-size="14.00">FilterExcludingMarine</text>
</g>
<!-- LogFile -->
<g id="node9" class="node"><title>LogFile</title>
<path fill="#ffffcc" stroke="black" d="M425,-402C425,-402 387,-402 387,-402 381,-402 375,-396 375,-390 375,-390 375,-378 375,-378 375,-372 381,-366 387,-366 387,-366 425,-366 425,-366 431,-366 437,-372 437,-378 437,-378 437,-390 437,-390 437,-396 431,-402 425,-402"/>
<text text-anchor="middle" x="406" y="-380.3" font-family="Helvetica,sans-Serif" font-size="14.00">LogFile</text>
</g>
<!-- FilterExcludingMarine&#45;&gt;LogFile -->
<g id="edge10" class="edge"><title>FilterExcludingMarine&#45;&gt;LogFile</title>
<path fill="none" stroke="black" d="M165.085,-581.932C181.294,-573.117 199.339,-561.029 212,-546 245.393,-506.36 218.128,-473.385 256,-438 293.279,-403.17 317.181,-419.783 365,-402 365.099,-401.963 365.199,-401.926 365.298,-401.889"/>
<polygon fill="black" stroke="black" points="366.689,-405.104 374.755,-398.235 364.166,-398.574 366.689,-405.104"/>
</g>
<!-- notMarineDataRecord -->
<g id="node12" class="node"><title>notMarineDataRecord</title>
<path fill="#ffffcc" stroke="black" d="M191.25,-546C191.25,-546 62.75,-546 62.75,-546 56.75,-546 50.75,-540 50.75,-534 50.75,-534 50.75,-522 50.75,-522 50.75,-516 56.75,-510 62.75,-510 62.75,-510 191.25,-510 191.25,-510 197.25,-510 203.25,-516 203.25,-522 203.25,-522 203.25,-534 203.25,-534 203.25,-540 197.25,-546 191.25,-546"/>
<text text-anchor="middle" x="127" y="-524.3" font-family="Helvetica,sans-Serif" font-size="14.00">notMarineDataRecord</text>
</g>
<!-- FilterExcludingMarine&#45;&gt;notMarineDataRecord -->
<g id="edge5" class="edge"><title>FilterExcludingMarine&#45;&gt;notMarineDataRecord</title>
<path fill="none" stroke="black" d="M127,-581.697C127,-573.983 127,-564.712 127,-556.112"/>
<polygon fill="black" stroke="black" points="130.5,-556.104 127,-546.104 123.5,-556.104 130.5,-556.104"/>
</g>
<!-- FilterToJustMarine -->
<g id="node2" class="node"><title>FilterToJustMarine</title>
<polygon fill="#ccffcc" stroke="black" points="410,-618 242,-618 242,-582 410,-582 410,-618"/>
<text text-anchor="middle" x="326" y="-596.3" font-family="Courier,monospace" font-size="14.00">FilterToJustMarine</text>
</g>
<!-- FilterToJustMarine&#45;&gt;LogFile -->
<g id="edge11" class="edge"><title>FilterToJustMarine&#45;&gt;LogFile</title>
<path fill="none" stroke="black" d="M359.868,-581.837C373.522,-573.069 387.929,-561.044 396,-546 418.697,-503.69 415.479,-445.841 410.876,-412.242"/>
<polygon fill="black" stroke="black" points="414.319,-411.601 409.364,-402.236 407.398,-412.647 414.319,-411.601"/>
</g>
<!-- MarineDataRecord -->
<g id="node11" class="node"><title>MarineDataRecord</title>
<path fill="#ffffcc" stroke="black" d="M375,-546C375,-546 265,-546 265,-546 259,-546 253,-540 253,-534 253,-534 253,-522 253,-522 253,-516 259,-510 265,-510 265,-510 375,-510 375,-510 381,-510 387,-516 387,-522 387,-522 387,-534 387,-534 387,-540 381,-546 375,-546"/>
<text text-anchor="middle" x="320" y="-524.3" font-family="Helvetica,sans-Serif" font-size="14.00">MarineDataRecord</text>
</g>
<!-- FilterToJustMarine&#45;&gt;MarineDataRecord -->
<g id="edge6" class="edge"><title>FilterToJustMarine&#45;&gt;MarineDataRecord</title>
<path fill="none" stroke="black" d="M324.517,-581.697C323.856,-573.983 323.061,-564.712 322.324,-556.112"/>
<polygon fill="black" stroke="black" points="325.807,-555.769 321.466,-546.104 318.833,-556.367 325.807,-555.769"/>
</g>
<!-- StreamMerge -->
<g id="node3" class="node"><title>StreamMerge</title>
<polygon fill="#ccffcc" stroke="black" points="327.25,-330 218.75,-330 218.75,-294 327.25,-294 327.25,-330"/>
<text text-anchor="middle" x="273" y="-308.3" font-family="Courier,monospace" font-size="14.00">StreamMerge</text>
</g>
<!-- MergedStream -->
<g id="node15" class="node"><title>MergedStream</title>
<path fill="#ffffcc" stroke="black" d="M320.25,-258C320.25,-258 235.75,-258 235.75,-258 229.75,-258 223.75,-252 223.75,-246 223.75,-246 223.75,-234 223.75,-234 223.75,-228 229.75,-222 235.75,-222 235.75,-222 320.25,-222 320.25,-222 326.25,-222 332.25,-228 332.25,-234 332.25,-234 332.25,-246 332.25,-246 332.25,-252 326.25,-258 320.25,-258"/>
<text text-anchor="middle" x="278" y="-236.3" font-family="Helvetica,sans-Serif" font-size="14.00">MergedStream</text>
</g>
<!-- StreamMerge&#45;&gt;MergedStream -->
<g id="edge2" class="edge"><title>StreamMerge&#45;&gt;MergedStream</title>
<path fill="none" stroke="black" d="M274.236,-293.697C274.787,-285.983 275.449,-276.712 276.063,-268.112"/>
<polygon fill="black" stroke="black" points="279.557,-268.328 276.778,-258.104 272.575,-267.83 279.557,-268.328"/>
</g>
<!-- CsvFileWriter -->
<g id="node4" class="node"><title>CsvFileWriter</title>
<polygon fill="#ccffcc" stroke="black" points="352,-186 226,-186 226,-150 352,-150 352,-186"/>
<text text-anchor="middle" x="289" y="-164.3" font-family="Courier,monospace" font-size="14.00">CsvFileWriter</text>
</g>
<!-- UpdatedDarwinCoreFile -->
<g id="node16" class="node"><title>UpdatedDarwinCoreFile</title>
<path fill="#ffffcc" stroke="black" d="M363,-114C363,-114 221,-114 221,-114 215,-114 209,-108 209,-102 209,-102 209,-90 209,-90 209,-84 215,-78 221,-78 221,-78 363,-78 363,-78 369,-78 375,-84 375,-90 375,-90 375,-102 375,-102 375,-108 369,-114 363,-114"/>
<text text-anchor="middle" x="292" y="-92.3" font-family="Helvetica,sans-Serif" font-size="14.00">UpdatedDarwinCoreFile</text>
</g>
<!-- CsvFileWriter&#45;&gt;UpdatedDarwinCoreFile -->
<g id="edge1" class="edge"><title>CsvFileWriter&#45;&gt;UpdatedDarwinCoreFile</title>
<path fill="none" stroke="black" d="M289.742,-149.697C290.072,-141.983 290.469,-132.712 290.838,-124.112"/>
<polygon fill="black" stroke="black" points="294.335,-124.245 291.267,-114.104 287.342,-123.945 294.335,-124.245"/>
</g>
<!-- GBIFLookup -->
<g id="node5" class="node"><title>GBIFLookup</title>
<polygon fill="#ccffcc" stroke="black" points="177.25,-474 76.75,-474 76.75,-438 177.25,-438 177.25,-474"/>
<text text-anchor="middle" x="127" y="-452.3" font-family="Courier,monospace" font-size="14.00">GBIFLookup</text>
</g>
<!-- GBIFLookup&#45;&gt;LogFile -->
<g id="edge8" class="edge"><title>GBIFLookup&#45;&gt;LogFile</title>
<path fill="none" stroke="black" d="M177.355,-446.422C225.992,-437.521 301.427,-422.09 365,-402 365.101,-401.968 365.202,-401.936 365.303,-401.904"/>
<polygon fill="black" stroke="black" points="366.581,-405.165 374.868,-398.564 364.274,-398.556 366.581,-405.165"/>
</g>
<!-- GBIFUpdatedRecord -->
<g id="node14" class="node"><title>GBIFUpdatedRecord</title>
<path fill="#ffffcc" stroke="black" d="M159.25,-402C159.25,-402 36.75,-402 36.75,-402 30.75,-402 24.75,-396 24.75,-390 24.75,-390 24.75,-378 24.75,-378 24.75,-372 30.75,-366 36.75,-366 36.75,-366 159.25,-366 159.25,-366 165.25,-366 171.25,-372 171.25,-378 171.25,-378 171.25,-390 171.25,-390 171.25,-396 165.25,-402 159.25,-402"/>
<text text-anchor="middle" x="98" y="-380.3" font-family="Helvetica,sans-Serif" font-size="14.00">GBIFUpdatedRecord</text>
</g>
<!-- GBIFLookup&#45;&gt;GBIFUpdatedRecord -->
<g id="edge3" class="edge"><title>GBIFLookup&#45;&gt;GBIFUpdatedRecord</title>
<path fill="none" stroke="black" d="M119.831,-437.697C116.565,-429.813 112.626,-420.304 108.998,-411.546"/>
<polygon fill="black" stroke="black" points="112.147,-410.003 105.086,-402.104 105.68,-412.683 112.147,-410.003"/>
</g>
<!-- WoRMSLookup -->
<g id="node6" class="node"><title>WoRMSLookup</title>
<polygon fill="#ccffcc" stroke="black" points="374.25,-474 265.75,-474 265.75,-438 374.25,-438 374.25,-474"/>
<text text-anchor="middle" x="320" y="-452.3" font-family="Courier,monospace" font-size="14.00">WoRMSLookup</text>
</g>
<!-- WoRMSLookup&#45;&gt;LogFile -->
<g id="edge9" class="edge"><title>WoRMSLookup&#45;&gt;LogFile</title>
<path fill="none" stroke="black" d="M341.258,-437.697C352.089,-428.881 365.418,-418.032 377.16,-408.474"/>
<polygon fill="black" stroke="black" points="379.44,-411.132 384.986,-402.104 375.021,-405.703 379.44,-411.132"/>
</g>
<!-- WoRMSUpdatedRecord -->
<g id="node13" class="node"><title>WoRMSUpdatedRecord</title>
<path fill="#ffffcc" stroke="black" d="M344.25,-402C344.25,-402 201.75,-402 201.75,-402 195.75,-402 189.75,-396 189.75,-390 189.75,-390 189.75,-378 189.75,-378 189.75,-372 195.75,-366 201.75,-366 201.75,-366 344.25,-366 344.25,-366 350.25,-366 356.25,-372 356.25,-378 356.25,-378 356.25,-390 356.25,-390 356.25,-396 350.25,-402 344.25,-402"/>
<text text-anchor="middle" x="273" y="-380.3" font-family="Helvetica,sans-Serif" font-size="14.00">WoRMSUpdatedRecord</text>
</g>
<!-- WoRMSLookup&#45;&gt;WoRMSUpdatedRecord -->
<g id="edge4" class="edge"><title>WoRMSLookup&#45;&gt;WoRMSUpdatedRecord</title>
<path fill="none" stroke="black" d="M308.382,-437.697C302.861,-429.474 296.153,-419.483 290.068,-410.421"/>
<polygon fill="black" stroke="black" points="292.965,-408.456 284.484,-402.104 287.153,-412.358 292.965,-408.456"/>
</g>
<!-- EnvironmentTagger -->
<g id="node7" class="node"><title>EnvironmentTagger</title>
<polygon fill="#ccffcc" stroke="black" points="422.25,-762 263.75,-762 263.75,-726 422.25,-726 422.25,-762"/>
<text text-anchor="middle" x="343" y="-740.3" font-family="Courier,monospace" font-size="14.00">EnvironmentTagger</text>
</g>
<!-- EnvironmentTagger&#45;&gt;LogFile -->
<g id="edge12" class="edge"><title>EnvironmentTagger&#45;&gt;LogFile</title>
<path fill="none" stroke="black" d="M369.036,-725.827C381.257,-716.547 395.066,-704.103 404,-690 425.986,-655.291 429,-642.086 429,-601 429,-601 429,-601 429,-527 429,-486.696 419.86,-440.776 413.103,-412.337"/>
<polygon fill="black" stroke="black" points="416.433,-411.222 410.654,-402.342 409.635,-412.888 416.433,-411.222"/>
</g>
<!-- TaggedDataRecord -->
<g id="node10" class="node"><title>TaggedDataRecord</title>
<path fill="#ffffcc" stroke="black" d="M383.25,-690C383.25,-690 268.75,-690 268.75,-690 262.75,-690 256.75,-684 256.75,-678 256.75,-678 256.75,-666 256.75,-666 256.75,-660 262.75,-654 268.75,-654 268.75,-654 383.25,-654 383.25,-654 389.25,-654 395.25,-660 395.25,-666 395.25,-666 395.25,-678 395.25,-678 395.25,-684 389.25,-690 383.25,-690"/>
<text text-anchor="middle" x="326" y="-668.3" font-family="Helvetica,sans-Serif" font-size="14.00">TaggedDataRecord</text>
</g>
<!-- EnvironmentTagger&#45;&gt;TaggedDataRecord -->
<g id="edge7" class="edge"><title>EnvironmentTagger&#45;&gt;TaggedDataRecord</title>
<path fill="none" stroke="black" d="M338.798,-725.697C336.904,-717.898 334.623,-708.509 332.516,-699.829"/>
<polygon fill="black" stroke="black" points="335.915,-698.996 330.154,-690.104 329.113,-700.648 335.915,-698.996"/>
</g>
<!-- DataRecord -->
<g id="node8" class="node"><title>DataRecord</title>
<path fill="#ffffcc" stroke="black" d="M376.25,-834C376.25,-834 309.75,-834 309.75,-834 303.75,-834 297.75,-828 297.75,-822 297.75,-822 297.75,-810 297.75,-810 297.75,-804 303.75,-798 309.75,-798 309.75,-798 376.25,-798 376.25,-798 382.25,-798 388.25,-804 388.25,-810 388.25,-810 388.25,-822 388.25,-822 388.25,-828 382.25,-834 376.25,-834"/>
<text text-anchor="middle" x="343" y="-812.3" font-family="Helvetica,sans-Serif" font-size="14.00">DataRecord</text>
</g>
<!-- DataRecord&#45;&gt;EnvironmentTagger -->
<g id="edge13" class="edge"><title>DataRecord&#45;&gt;EnvironmentTagger</title>
<path fill="none" stroke="black" d="M343,-797.697C343,-789.983 343,-780.712 343,-772.112"/>
<polygon fill="black" stroke="black" points="346.5,-772.104 343,-762.104 339.5,-772.104 346.5,-772.104"/>
</g>
<!-- LogFile_outflow -->
<g id="node17" class="node"><title>LogFile_outflow</title>
<ellipse fill="none" stroke="black" cx="364" cy="-31" rx="7" ry="7"/>
</g>
<!-- LogFile&#45;&gt;LogFile_outflow -->
<g id="edge21" class="edge"><title>LogFile&#45;&gt;LogFile_outflow</title>
<path fill="none" stroke="black" d="M405.605,-365.952C405.022,-339.294 404,-286.119 404,-241 404,-241 404,-241 404,-167 404,-119.494 401.978,-105.972 384,-62 381.575,-56.0683 377.891,-50.0832 374.343,-45.0359"/>
<polygon fill="black" stroke="black" points="376.887,-42.5983 368.054,-36.747 371.31,-46.8292 376.887,-42.5983"/>
</g>
<!-- TaggedDataRecord&#45;&gt;FilterExcludingMarine -->
<g id="edge15" class="edge"><title>TaggedDataRecord&#45;&gt;FilterExcludingMarine</title>
<path fill="none" stroke="black" d="M277.574,-653.966C249.769,-644.185 214.664,-631.836 185.346,-621.524"/>
<polygon fill="black" stroke="black" points="186.238,-618.127 175.644,-618.111 183.916,-624.731 186.238,-618.127"/>
</g>
<!-- TaggedDataRecord&#45;&gt;FilterToJustMarine -->
<g id="edge14" class="edge"><title>TaggedDataRecord&#45;&gt;FilterToJustMarine</title>
<path fill="none" stroke="black" d="M326,-653.697C326,-645.983 326,-636.712 326,-628.112"/>
<polygon fill="black" stroke="black" points="329.5,-628.104 326,-618.104 322.5,-628.104 329.5,-628.104"/>
</g>
<!-- MarineDataRecord&#45;&gt;WoRMSLookup -->
<g id="edge16" class="edge"><title>MarineDataRecord&#45;&gt;WoRMSLookup</title>
<path fill="none" stroke="black" d="M320,-509.697C320,-501.983 320,-492.712 320,-484.112"/>
<polygon fill="black" stroke="black" points="323.5,-484.104 320,-474.104 316.5,-484.104 323.5,-484.104"/>
</g>
<!-- notMarineDataRecord&#45;&gt;GBIFLookup -->
<g id="edge17" class="edge"><title>notMarineDataRecord&#45;&gt;GBIFLookup</title>
<path fill="none" stroke="black" d="M127,-509.697C127,-501.983 127,-492.712 127,-484.112"/>
<polygon fill="black" stroke="black" points="130.5,-484.104 127,-474.104 123.5,-484.104 130.5,-484.104"/>
</g>
<!-- WoRMSUpdatedRecord&#45;&gt;StreamMerge -->
<g id="edge18" class="edge"><title>WoRMSUpdatedRecord&#45;&gt;StreamMerge</title>
<path fill="none" stroke="black" d="M273,-365.697C273,-357.983 273,-348.712 273,-340.112"/>
<polygon fill="black" stroke="black" points="276.5,-340.104 273,-330.104 269.5,-340.104 276.5,-340.104"/>
</g>
<!-- GBIFUpdatedRecord&#45;&gt;StreamMerge -->
<g id="edge19" class="edge"><title>GBIFUpdatedRecord&#45;&gt;StreamMerge</title>
<path fill="none" stroke="black" d="M140.81,-365.876C164.946,-356.222 195.284,-344.087 220.806,-333.878"/>
<polygon fill="black" stroke="black" points="222.344,-337.032 230.329,-330.068 219.745,-330.533 222.344,-337.032"/>
</g>
<!-- MergedStream&#45;&gt;CsvFileWriter -->
<g id="edge20" class="edge"><title>MergedStream&#45;&gt;CsvFileWriter</title>
<path fill="none" stroke="black" d="M280.719,-221.697C281.931,-213.983 283.388,-204.712 284.739,-196.112"/>
<polygon fill="black" stroke="black" points="288.217,-196.526 286.312,-186.104 281.302,-195.44 288.217,-196.526"/>
</g>
<!-- UpdatedDarwinCoreFile_outflow -->
<g id="node18" class="node"><title>UpdatedDarwinCoreFile_outflow</title>
<ellipse fill="none" stroke="black" cx="332" cy="-31" rx="7" ry="7"/>
</g>
<!-- UpdatedDarwinCoreFile&#45;&gt;UpdatedDarwinCoreFile_outflow -->
<g id="edge22" class="edge"><title>UpdatedDarwinCoreFile&#45;&gt;UpdatedDarwinCoreFile_outflow</title>
<path fill="none" stroke="black" d="M302.93,-77.785C309.249,-67.8322 317.101,-55.4656 323.051,-46.0946"/>
<polygon fill="black" stroke="black" points="326.193,-47.6759 328.598,-37.3577 320.283,-43.9238 326.193,-47.6759"/>
</g>
</g>
</svg>
