<?xml version="1.0" encoding="UTF-8" standalone="no"?>
<!DOCTYPE svg PUBLIC "-//W3C//DTD SVG 1.1//EN"
 "http://www.w3.org/Graphics/SVG/1.1/DTD/svg11.dtd">
<!-- Generated by graphviz version 2.36.0 (20140111.2315)
 -->
<!-- Title: yw_data_view Pages: 1 -->
<svg width="469pt" height="894pt"
 viewBox="0.00 0.00 469.00 894.00" xmlns="http://www.w3.org/2000/svg" xmlns:xlink="http://www.w3.org/1999/xlink">
<g id="graph0" class="graph" transform="scale(1 1) rotate(0) translate(4 890)">
<title>yw_data_view</title>
<polygon fill="white" stroke="none" points="-4,4 -4,-890 465,-890 465,4 -4,4"/>
<text text-anchor="middle" x="230.5" y="-867.6" font-family="Courier,monospace" font-size="18.00">DwCA_Taxon_Lookup</text>
<g id="clust1" class="cluster"><title>cluster_workflow</title>
<polygon fill="none" stroke="black" stroke-width="2" points="8,-62 8,-850 453,-850 453,-62 8,-62"/>
</g>
<g id="clust2" class="cluster"><title>cluster_workflow_inner</title>
<polygon fill="none" stroke="white" stroke-width="2" points="16,-70 16,-842 445,-842 445,-70 16,-70"/>
</g>
<g id="clust5" class="cluster"><title>cluster_outflows</title>
<polygon fill="none" stroke="white" stroke-width="2" points="309,-8 309,-54 387,-54 387,-8 309,-8"/>
</g>
<g id="clust6" class="cluster"><title>cluster_outflows_inner</title>
<polygon fill="none" stroke="white" stroke-width="2" points="317,-16 317,-46 379,-46 379,-16 317,-16"/>
</g>
<!-- FilterToNonMarine -->
<g id="node1" class="node"><title>FilterToNonMarine</title>
<polygon fill="#ccffcc" stroke="black" points="220.25,-618 61.75,-618 61.75,-582 220.25,-582 220.25,-618"/>
<text text-anchor="middle" x="141" y="-596.3" font-family="Courier,monospace" font-size="14.00">FilterToNonMarine</text>
</g>
<!-- LogFile -->
<g id="node8" class="node"><title>LogFile</title>
<path fill="#ffffcc" stroke="black" d="M425,-402C425,-402 387,-402 387,-402 381,-402 375,-396 375,-390 375,-390 375,-378 375,-378 375,-372 381,-366 387,-366 387,-366 425,-366 425,-366 431,-366 437,-372 437,-378 437,-378 437,-390 437,-390 437,-396 431,-402 425,-402"/>
<text text-anchor="middle" x="406" y="-380.3" font-family="Helvetica,sans-Serif" font-size="14.00">LogFile</text>
</g>
<!-- FilterToNonMarine&#45;&gt;LogFile -->
<g id="edge10" class="edge"><title>FilterToNonMarine&#45;&gt;LogFile</title>
<path fill="none" stroke="black" d="M178.788,-581.938C194.434,-573.189 211.559,-561.151 223,-546 253.246,-505.946 220.91,-473.886 256,-438 291.668,-401.522 317.181,-419.783 365,-402 365.099,-401.963 365.199,-401.926 365.298,-401.889"/>
<polygon fill="black" stroke="black" points="366.689,-405.104 374.755,-398.235 364.166,-398.574 366.689,-405.104"/>
</g>
<!-- notMarineDataRecord -->
<g id="node12" class="node"><title>notMarineDataRecord</title>
<path fill="#ffffcc" stroke="black" d="M202.25,-546C202.25,-546 73.75,-546 73.75,-546 67.75,-546 61.75,-540 61.75,-534 61.75,-534 61.75,-522 61.75,-522 61.75,-516 67.75,-510 73.75,-510 73.75,-510 202.25,-510 202.25,-510 208.25,-510 214.25,-516 214.25,-522 214.25,-522 214.25,-534 214.25,-534 214.25,-540 208.25,-546 202.25,-546"/>
<text text-anchor="middle" x="138" y="-524.3" font-family="Helvetica,sans-Serif" font-size="14.00">notMarineDataRecord</text>
</g>
<!-- FilterToNonMarine&#45;&gt;notMarineDataRecord -->
<g id="edge5" class="edge"><title>FilterToNonMarine&#45;&gt;notMarineDataRecord</title>
<path fill="none" stroke="black" d="M140.258,-581.697C139.928,-573.983 139.531,-564.712 139.162,-556.112"/>
<polygon fill="black" stroke="black" points="142.658,-555.945 138.733,-546.104 135.665,-556.245 142.658,-555.945"/>
</g>
<!-- FilterToJustMarine -->
<g id="node2" class="node"><title>FilterToJustMarine</title>
<polygon fill="#ccffcc" stroke="black" points="407,-618 239,-618 239,-582 407,-582 407,-618"/>
<text text-anchor="middle" x="323" y="-596.3" font-family="Courier,monospace" font-size="14.00">FilterToJustMarine</text>
</g>
<!-- FilterToJustMarine&#45;&gt;LogFile -->
<g id="edge11" class="edge"><title>FilterToJustMarine&#45;&gt;LogFile</title>
<path fill="none" stroke="black" d="M358.672,-581.916C372.792,-573.224 387.629,-561.236 396,-546 419.121,-503.92 415.758,-445.993 411.015,-412.317"/>
<polygon fill="black" stroke="black" points="414.45,-411.632 409.458,-402.287 407.533,-412.705 414.45,-411.632"/>
</g>
<!-- MarineDataRecord -->
<g id="node11" class="node"><title>MarineDataRecord</title>
<path fill="#ffffcc" stroke="black" d="M375,-546C375,-546 265,-546 265,-546 259,-546 253,-540 253,-534 253,-534 253,-522 253,-522 253,-516 259,-510 265,-510 265,-510 375,-510 375,-510 381,-510 387,-516 387,-522 387,-522 387,-534 387,-534 387,-540 381,-546 375,-546"/>
<text text-anchor="middle" x="320" y="-524.3" font-family="Helvetica,sans-Serif" font-size="14.00">MarineDataRecord</text>
</g>
<!-- FilterToJustMarine&#45;&gt;MarineDataRecord -->
<g id="edge6" class="edge"><title>FilterToJustMarine&#45;&gt;MarineDataRecord</title>
<path fill="none" stroke="black" d="M322.258,-581.697C321.928,-573.983 321.531,-564.712 321.162,-556.112"/>
<polygon fill="black" stroke="black" points="324.658,-555.945 320.733,-546.104 317.665,-556.245 324.658,-555.945"/>
</g>
<!-- StreamMerge -->
<g id="node3" class="node"><title>StreamMerge</title>
<polygon fill="#ccffcc" stroke="black" points="327.25,-330 218.75,-330 218.75,-294 327.25,-294 327.25,-330"/>
<text text-anchor="middle" x="273" y="-308.3" font-family="Courier,monospace" font-size="14.00">StreamMerge</text>
</g>
<!-- MergedStream -->
<g id="node15" class="node"><title>MergedStream</title>
<path fill="#ffffcc" stroke="black" d="M321.25,-258C321.25,-258 236.75,-258 236.75,-258 230.75,-258 224.75,-252 224.75,-246 224.75,-246 224.75,-234 224.75,-234 224.75,-228 230.75,-222 236.75,-222 236.75,-222 321.25,-222 321.25,-222 327.25,-222 333.25,-228 333.25,-234 333.25,-234 333.25,-246 333.25,-246 333.25,-252 327.25,-258 321.25,-258"/>
<text text-anchor="middle" x="279" y="-236.3" font-family="Helvetica,sans-Serif" font-size="14.00">MergedStream</text>
</g>
<!-- StreamMerge&#45;&gt;MergedStream -->
<g id="edge2" class="edge"><title>StreamMerge&#45;&gt;MergedStream</title>
<path fill="none" stroke="black" d="M274.483,-293.697C275.144,-285.983 275.939,-276.712 276.676,-268.112"/>
<polygon fill="black" stroke="black" points="280.167,-268.367 277.534,-258.104 273.193,-267.769 280.167,-268.367"/>
</g>
<!-- CsvFileWriter -->
<g id="node4" class="node"><title>CsvFileWriter</title>
<polygon fill="#ccffcc" stroke="black" points="353,-186 227,-186 227,-150 353,-150 353,-186"/>
<text text-anchor="middle" x="290" y="-164.3" font-family="Courier,monospace" font-size="14.00">CsvFileWriter</text>
</g>
<!-- UpdatedOccurrenceFile -->
<g id="node16" class="node"><title>UpdatedOccurrenceFile</title>
<path fill="#ffffcc" stroke="black" d="M363,-114C363,-114 223,-114 223,-114 217,-114 211,-108 211,-102 211,-102 211,-90 211,-90 211,-84 217,-78 223,-78 223,-78 363,-78 363,-78 369,-78 375,-84 375,-90 375,-90 375,-102 375,-102 375,-108 369,-114 363,-114"/>
<text text-anchor="middle" x="293" y="-92.3" font-family="Helvetica,sans-Serif" font-size="14.00">UpdatedOccurrenceFile</text>
</g>
<!-- CsvFileWriter&#45;&gt;UpdatedOccurrenceFile -->
<g id="edge1" class="edge"><title>CsvFileWriter&#45;&gt;UpdatedOccurrenceFile</title>
<path fill="none" stroke="black" d="M290.742,-149.697C291.072,-141.983 291.469,-132.712 291.838,-124.112"/>
<polygon fill="black" stroke="black" points="295.335,-124.245 292.267,-114.104 288.342,-123.945 295.335,-124.245"/>
</g>
<!-- GBIFLookup -->
<g id="node5" class="node"><title>GBIFLookup</title>
<polygon fill="#ccffcc" stroke="black" points="188.25,-474 87.75,-474 87.75,-438 188.25,-438 188.25,-474"/>
<text text-anchor="middle" x="138" y="-452.3" font-family="Courier,monospace" font-size="14.00">GBIFLookup</text>
</g>
<!-- GBIFLookup&#45;&gt;LogFile -->
<g id="edge8" class="edge"><title>GBIFLookup&#45;&gt;LogFile</title>
<path fill="none" stroke="black" d="M188.686,-445.641C235.12,-436.487 305.478,-421.146 365,-402 365.101,-401.968 365.202,-401.935 365.303,-401.902"/>
<polygon fill="black" stroke="black" points="366.593,-405.159 374.858,-398.53 364.263,-398.558 366.593,-405.159"/>
</g>
<!-- GBIFUpdatedRecord -->
<g id="node14" class="node"><title>GBIFUpdatedRecord</title>
<path fill="#ffffcc" stroke="black" d="M159.25,-402C159.25,-402 36.75,-402 36.75,-402 30.75,-402 24.75,-396 24.75,-390 24.75,-390 24.75,-378 24.75,-378 24.75,-372 30.75,-366 36.75,-366 36.75,-366 159.25,-366 159.25,-366 165.25,-366 171.25,-372 171.25,-378 171.25,-378 171.25,-390 171.25,-390 171.25,-396 165.25,-402 159.25,-402"/>
<text text-anchor="middle" x="98" y="-380.3" font-family="Helvetica,sans-Serif" font-size="14.00">GBIFUpdatedRecord</text>
</g>
<!-- GBIFLookup&#45;&gt;GBIFUpdatedRecord -->
<g id="edge3" class="edge"><title>GBIFLookup&#45;&gt;GBIFUpdatedRecord</title>
<path fill="none" stroke="black" d="M128.112,-437.697C123.511,-429.644 117.94,-419.894 112.847,-410.982"/>
<polygon fill="black" stroke="black" points="115.774,-409.05 107.774,-402.104 109.696,-412.523 115.774,-409.05"/>
</g>
<!-- WoRMSLookup -->
<g id="node6" class="node"><title>WoRMSLookup</title>
<polygon fill="#ccffcc" stroke="black" points="374.25,-474 265.75,-474 265.75,-438 374.25,-438 374.25,-474"/>
<text text-anchor="middle" x="320" y="-452.3" font-family="Courier,monospace" font-size="14.00">WoRMSLookup</text>
</g>
<!-- WoRMSLookup&#45;&gt;LogFile -->
<g id="edge9" class="edge"><title>WoRMSLookup&#45;&gt;LogFile</title>
<path fill="none" stroke="black" d="M341.258,-437.697C352.089,-428.881 365.418,-418.032 377.16,-408.474"/>
<polygon fill="black" stroke="black" points="379.44,-411.132 384.986,-402.104 375.021,-405.703 379.44,-411.132"/>
</g>
<!-- WoRMSUpdatedRecord -->
<g id="node13" class="node"><title>WoRMSUpdatedRecord</title>
<path fill="#ffffcc" stroke="black" d="M344.25,-402C344.25,-402 201.75,-402 201.75,-402 195.75,-402 189.75,-396 189.75,-390 189.75,-390 189.75,-378 189.75,-378 189.75,-372 195.75,-366 201.75,-366 201.75,-366 344.25,-366 344.25,-366 350.25,-366 356.25,-372 356.25,-378 356.25,-378 356.25,-390 356.25,-390 356.25,-396 350.25,-402 344.25,-402"/>
<text text-anchor="middle" x="273" y="-380.3" font-family="Helvetica,sans-Serif" font-size="14.00">WoRMSUpdatedRecord</text>
</g>
<!-- WoRMSLookup&#45;&gt;WoRMSUpdatedRecord -->
<g id="edge4" class="edge"><title>WoRMSLookup&#45;&gt;WoRMSUpdatedRecord</title>
<path fill="none" stroke="black" d="M308.382,-437.697C302.861,-429.474 296.153,-419.483 290.068,-410.421"/>
<polygon fill="black" stroke="black" points="292.965,-408.456 284.484,-402.104 287.153,-412.358 292.965,-408.456"/>
</g>
<!-- EnvironmentTagger -->
<g id="node7" class="node"><title>EnvironmentTagger</title>
<polygon fill="#ccffcc" stroke="black" points="419.25,-762 260.75,-762 260.75,-726 419.25,-726 419.25,-762"/>
<text text-anchor="middle" x="340" y="-740.3" font-family="Courier,monospace" font-size="14.00">EnvironmentTagger</text>
</g>
<!-- EnvironmentTagger&#45;&gt;LogFile -->
<g id="edge12" class="edge"><title>EnvironmentTagger&#45;&gt;LogFile</title>
<path fill="none" stroke="black" d="M366.036,-725.827C378.257,-716.547 392.066,-704.103 401,-690 422.986,-655.291 426,-642.086 426,-601 426,-601 426,-601 426,-527 426,-487.322 425.302,-477.174 419,-438 417.624,-429.45 415.574,-420.249 413.506,-411.951"/>
<polygon fill="black" stroke="black" points="416.832,-410.837 410.926,-402.042 410.058,-412.601 416.832,-410.837"/>
</g>
<!-- TaggedDataRecord -->
<g id="node10" class="node"><title>TaggedDataRecord</title>
<path fill="#ffffcc" stroke="black" d="M380.25,-690C380.25,-690 265.75,-690 265.75,-690 259.75,-690 253.75,-684 253.75,-678 253.75,-678 253.75,-666 253.75,-666 253.75,-660 259.75,-654 265.75,-654 265.75,-654 380.25,-654 380.25,-654 386.25,-654 392.25,-660 392.25,-666 392.25,-666 392.25,-678 392.25,-678 392.25,-684 386.25,-690 380.25,-690"/>
<text text-anchor="middle" x="323" y="-668.3" font-family="Helvetica,sans-Serif" font-size="14.00">TaggedDataRecord</text>
</g>
<!-- EnvironmentTagger&#45;&gt;TaggedDataRecord -->
<g id="edge7" class="edge"><title>EnvironmentTagger&#45;&gt;TaggedDataRecord</title>
<path fill="none" stroke="black" d="M335.798,-725.697C333.904,-717.898 331.623,-708.509 329.516,-699.829"/>
<polygon fill="black" stroke="black" points="332.915,-698.996 327.154,-690.104 326.113,-700.648 332.915,-698.996"/>
</g>
<!-- LogFile_outflow -->
<g id="node17" class="node"><title>LogFile_outflow</title>
<ellipse fill="none" stroke="black" cx="364" cy="-31" rx="7" ry="7"/>
</g>
<!-- LogFile&#45;&gt;LogFile_outflow -->
<g id="edge21" class="edge"><title>LogFile&#45;&gt;LogFile_outflow</title>
<path fill="none" stroke="black" d="M405.605,-365.952C405.022,-339.294 404,-286.119 404,-241 404,-241 404,-241 404,-167 404,-119.494 401.978,-105.972 384,-62 381.575,-56.0683 377.891,-50.0832 374.343,-45.0359"/>
<polygon fill="black" stroke="black" points="376.887,-42.5983 368.054,-36.747 371.31,-46.8292 376.887,-42.5983"/>
</g>
<!-- DataRecord -->
<g id="node9" class="node"><title>DataRecord</title>
<path fill="#ffffcc" stroke="black" d="M373.25,-834C373.25,-834 306.75,-834 306.75,-834 300.75,-834 294.75,-828 294.75,-822 294.75,-822 294.75,-810 294.75,-810 294.75,-804 300.75,-798 306.75,-798 306.75,-798 373.25,-798 373.25,-798 379.25,-798 385.25,-804 385.25,-810 385.25,-810 385.25,-822 385.25,-822 385.25,-828 379.25,-834 373.25,-834"/>
<text text-anchor="middle" x="340" y="-812.3" font-family="Helvetica,sans-Serif" font-size="14.00">DataRecord</text>
</g>
<!-- DataRecord&#45;&gt;EnvironmentTagger -->
<g id="edge13" class="edge"><title>DataRecord&#45;&gt;EnvironmentTagger</title>
<path fill="none" stroke="black" d="M340,-797.697C340,-789.983 340,-780.712 340,-772.112"/>
<polygon fill="black" stroke="black" points="343.5,-772.104 340,-762.104 336.5,-772.104 343.5,-772.104"/>
</g>
<!-- TaggedDataRecord&#45;&gt;FilterToNonMarine -->
<g id="edge15" class="edge"><title>TaggedDataRecord&#45;&gt;FilterToNonMarine</title>
<path fill="none" stroke="black" d="M278.478,-653.876C253.266,-644.179 221.547,-631.98 194.931,-621.743"/>
<polygon fill="black" stroke="black" points="195.968,-618.391 185.378,-618.068 193.455,-624.925 195.968,-618.391"/>
</g>
<!-- TaggedDataRecord&#45;&gt;FilterToJustMarine -->
<g id="edge14" class="edge"><title>TaggedDataRecord&#45;&gt;FilterToJustMarine</title>
<path fill="none" stroke="black" d="M323,-653.697C323,-645.983 323,-636.712 323,-628.112"/>
<polygon fill="black" stroke="black" points="326.5,-628.104 323,-618.104 319.5,-628.104 326.5,-628.104"/>
</g>
<!-- MarineDataRecord&#45;&gt;WoRMSLookup -->
<g id="edge16" class="edge"><title>MarineDataRecord&#45;&gt;WoRMSLookup</title>
<path fill="none" stroke="black" d="M320,-509.697C320,-501.983 320,-492.712 320,-484.112"/>
<polygon fill="black" stroke="black" points="323.5,-484.104 320,-474.104 316.5,-484.104 323.5,-484.104"/>
</g>
<!-- notMarineDataRecord&#45;&gt;GBIFLookup -->
<g id="edge17" class="edge"><title>notMarineDataRecord&#45;&gt;GBIFLookup</title>
<path fill="none" stroke="black" d="M138,-509.697C138,-501.983 138,-492.712 138,-484.112"/>
<polygon fill="black" stroke="black" points="141.5,-484.104 138,-474.104 134.5,-484.104 141.5,-484.104"/>
</g>
<!-- WoRMSUpdatedRecord&#45;&gt;StreamMerge -->
<g id="edge18" class="edge"><title>WoRMSUpdatedRecord&#45;&gt;StreamMerge</title>
<path fill="none" stroke="black" d="M273,-365.697C273,-357.983 273,-348.712 273,-340.112"/>
<polygon fill="black" stroke="black" points="276.5,-340.104 273,-330.104 269.5,-340.104 276.5,-340.104"/>
</g>
<!-- GBIFUpdatedRecord&#45;&gt;StreamMerge -->
<g id="edge19" class="edge"><title>GBIFUpdatedRecord&#45;&gt;StreamMerge</title>
<path fill="none" stroke="black" d="M140.81,-365.876C164.946,-356.222 195.284,-344.087 220.806,-333.878"/>
<polygon fill="black" stroke="black" points="222.344,-337.032 230.329,-330.068 219.745,-330.533 222.344,-337.032"/>
</g>
<!-- MergedStream&#45;&gt;CsvFileWriter -->
<g id="edge20" class="edge"><title>MergedStream&#45;&gt;CsvFileWriter</title>
<path fill="none" stroke="black" d="M281.719,-221.697C282.931,-213.983 284.388,-204.712 285.739,-196.112"/>
<polygon fill="black" stroke="black" points="289.217,-196.526 287.312,-186.104 282.302,-195.44 289.217,-196.526"/>
</g>
<!-- UpdatedOccurrenceFile_outflow -->
<g id="node18" class="node"><title>UpdatedOccurrenceFile_outflow</title>
<ellipse fill="none" stroke="black" cx="332" cy="-31" rx="7" ry="7"/>
</g>
<!-- UpdatedOccurrenceFile&#45;&gt;UpdatedOccurrenceFile_outflow -->
<g id="edge22" class="edge"><title>UpdatedOccurrenceFile&#45;&gt;UpdatedOccurrenceFile_outflow</title>
<path fill="none" stroke="black" d="M303.657,-77.785C309.818,-67.8322 317.474,-55.4656 323.275,-46.0946"/>
<polygon fill="black" stroke="black" points="326.396,-47.7027 328.683,-37.3577 320.444,-44.0182 326.396,-47.7027"/>
</g>
</g>
</svg>
