<?xml version="1.0" encoding="UTF-8" standalone="no"?>
<!DOCTYPE svg PUBLIC "-//W3C//DTD SVG 1.1//EN"
 "http://www.w3.org/Graphics/SVG/1.1/DTD/svg11.dtd">
<!-- Generated by graphviz version 2.36.0 (20140111.2315)
 -->
<!-- Title: yw_data_view Pages: 1 -->
<svg width="904pt" height="1268pt"
 viewBox="0.00 0.00 904.00 1268.00" xmlns="http://www.w3.org/2000/svg" xmlns:xlink="http://www.w3.org/1999/xlink">
<g id="graph0" class="graph" transform="scale(1 1) rotate(0) translate(4 1264)">
<title>yw_data_view</title>
<polygon fill="white" stroke="none" points="-4,4 -4,-1264 900,-1264 900,4 -4,4"/>
<text text-anchor="middle" x="448" y="-1241.6" font-family="Courier,monospace" font-size="18.00">DwCA_Taxon_Lookup</text>
<g id="clust5" class="cluster"><title>cluster_outflows</title>
<polygon fill="none" stroke="white" stroke-width="2" points="403,-8 403,-54 481,-54 481,-8 403,-8"/>
</g>
<g id="clust6" class="cluster"><title>cluster_outflows_inner</title>
<polygon fill="none" stroke="white" stroke-width="2" points="411,-16 411,-46 473,-46 473,-16 411,-16"/>
</g>
<g id="clust3" class="cluster"><title>cluster_inflows</title>
<polygon fill="none" stroke="white" stroke-width="2" points="555,-1178 555,-1224 601,-1224 601,-1178 555,-1178"/>
</g>
<g id="clust4" class="cluster"><title>cluster_inflows_inner</title>
<polygon fill="none" stroke="white" stroke-width="2" points="563,-1186 563,-1216 593,-1216 593,-1186 563,-1186"/>
</g>
<g id="clust1" class="cluster"><title>cluster_workflow</title>
<polygon fill="none" stroke="black" stroke-width="2" points="8,-62 8,-1170 888,-1170 888,-62 8,-62"/>
</g>
<g id="clust2" class="cluster"><title>cluster_workflow_inner</title>
<polygon fill="none" stroke="white" stroke-width="2" points="16,-70 16,-1162 880,-1162 880,-70 16,-70"/>
</g>
<!-- FilterToNonMarine -->
<g id="node1" class="node"><title>FilterToNonMarine</title>
<polygon fill="#d6d6d7" stroke="black" points="463.25,-644 304.75,-644 304.75,-608 463.25,-608 463.25,-644"/>
<text text-anchor="middle" x="384" y="-622.3" font-family="Courier,monospace" font-size="14.00">FilterToNonMarine</text>
</g>
<!-- notMarineDataRecord -->
<g id="node10" class="node"><title>notMarineDataRecord</title>
<path fill="#d6d6d7" stroke="black" d="M282.5,-524.5C282.5,-524.5 411.5,-524.5 411.5,-524.5 417.5,-524.5 423.5,-530.5 423.5,-536.5 423.5,-536.5 423.5,-559.5 423.5,-559.5 423.5,-565.5 417.5,-571.5 411.5,-571.5 411.5,-571.5 282.5,-571.5 282.5,-571.5 276.5,-571.5 270.5,-565.5 270.5,-559.5 270.5,-559.5 270.5,-536.5 270.5,-536.5 270.5,-530.5 276.5,-524.5 282.5,-524.5"/>
<text text-anchor="middle" x="347" y="-556.3" font-family="Helvetica,sans-Serif" font-size="14.00">notMarineDataRecord</text>
<polyline fill="none" stroke="black" points="270.5,-548.5 423.5,-548.5 "/>
</g>
<!-- FilterToNonMarine&#45;&gt;notMarineDataRecord -->
<g id="edge21" class="edge"><title>FilterToNonMarine&#45;&gt;notMarineDataRecord</title>
<path fill="none" stroke="black" d="M375.604,-607.754C371.702,-599.74 366.935,-589.949 362.42,-580.675"/>
<polygon fill="black" stroke="black" points="365.555,-579.117 358.031,-571.658 359.261,-582.181 365.555,-579.117"/>
</g>
<!-- LogFile -->
<g id="node20" class="node"><title>LogFile</title>
<path fill="#ffe4b5" stroke="black" d="M478.5,-374C478.5,-374 859.5,-374 859.5,-374 865.5,-374 871.5,-380 871.5,-386 871.5,-386 871.5,-398 871.5,-398 871.5,-404 865.5,-410 859.5,-410 859.5,-410 478.5,-410 478.5,-410 472.5,-410 466.5,-404 466.5,-398 466.5,-398 466.5,-386 466.5,-386 466.5,-380 472.5,-374 478.5,-374"/>
<text text-anchor="middle" x="669" y="-398.8" font-family="Courier,monospace" font-weight="bold" font-size="9.00">LogFile</text>
<polyline fill="none" stroke="black" points="466.5,-392 871.5,-392 "/>
<text text-anchor="middle" x="669" y="-380.8" font-family="Courier,monospace" font-weight="bold" font-size="9.00">./packages/kurator_FileBranchingTaxonLookup/workflows/results/runlog.log</text>
</g>
<!-- FilterToNonMarine&#45;&gt;LogFile -->
<g id="edge20" class="edge"><title>FilterToNonMarine&#45;&gt;LogFile</title>
<path fill="none" stroke="black" d="M402.51,-607.602C412.187,-597.809 423.707,-584.969 432,-572 463.218,-523.177 440.129,-490.991 483,-452 502.445,-434.315 527.189,-421.93 552.233,-413.257"/>
<polygon fill="black" stroke="black" points="553.422,-416.551 561.836,-410.112 551.243,-409.898 553.422,-416.551"/>
</g>
<!-- GBIFLookup -->
<g id="node2" class="node"><title>GBIFLookup</title>
<polygon fill="#d6d6d7" stroke="black" points="397.25,-488 296.75,-488 296.75,-452 397.25,-452 397.25,-488"/>
<text text-anchor="middle" x="347" y="-466.3" font-family="Courier,monospace" font-size="14.00">GBIFLookup</text>
</g>
<!-- GBIFUpdatedRecord -->
<g id="node11" class="node"><title>GBIFUpdatedRecord</title>
<path fill="#d6d6d7" stroke="black" d="M56.5,-368.5C56.5,-368.5 179.5,-368.5 179.5,-368.5 185.5,-368.5 191.5,-374.5 191.5,-380.5 191.5,-380.5 191.5,-403.5 191.5,-403.5 191.5,-409.5 185.5,-415.5 179.5,-415.5 179.5,-415.5 56.5,-415.5 56.5,-415.5 50.5,-415.5 44.5,-409.5 44.5,-403.5 44.5,-403.5 44.5,-380.5 44.5,-380.5 44.5,-374.5 50.5,-368.5 56.5,-368.5"/>
<text text-anchor="middle" x="118" y="-400.3" font-family="Helvetica,sans-Serif" font-size="14.00">GBIFUpdatedRecord</text>
<polyline fill="none" stroke="black" points="44.5,-392.5 191.5,-392.5 "/>
</g>
<!-- GBIFLookup&#45;&gt;GBIFUpdatedRecord -->
<g id="edge25" class="edge"><title>GBIFLookup&#45;&gt;GBIFUpdatedRecord</title>
<path fill="none" stroke="black" d="M296.745,-452.321C267.147,-442.498 229.08,-429.865 195.688,-418.783"/>
<polygon fill="black" stroke="black" points="196.542,-415.379 185.948,-415.551 194.337,-422.022 196.542,-415.379"/>
</g>
<!-- GBIFLookup&#45;&gt;LogFile -->
<g id="edge24" class="edge"><title>GBIFLookup&#45;&gt;LogFile</title>
<path fill="none" stroke="black" d="M397.312,-457.125C448.081,-445.142 527.309,-426.443 587.135,-412.322"/>
<polygon fill="black" stroke="black" points="588.009,-415.712 596.937,-410.009 586.401,-408.899 588.009,-415.712"/>
</g>
<!-- Setup -->
<g id="node3" class="node"><title>Setup</title>
<polygon fill="#ccffcc" stroke="black" points="607.25,-1080 548.75,-1080 548.75,-1044 607.25,-1044 607.25,-1080"/>
<text text-anchor="middle" x="578" y="-1058.3" font-family="Courier,monospace" font-size="14.00">Setup</text>
</g>
<!-- Workspace -->
<g id="node17" class="node"><title>Workspace</title>
<path fill="#ffffcc" stroke="black" d="M187,-936C187,-936 149,-936 149,-936 143,-936 137,-930 137,-924 137,-924 137,-912 137,-912 137,-906 143,-900 149,-900 149,-900 187,-900 187,-900 193,-900 199,-906 199,-912 199,-912 199,-924 199,-924 199,-930 193,-936 187,-936"/>
<text text-anchor="middle" x="168" y="-915.8" font-family="Helvetica,sans-Serif" font-size="9.00">Workspace</text>
</g>
<!-- Setup&#45;&gt;Workspace -->
<g id="edge12" class="edge"><title>Setup&#45;&gt;Workspace</title>
<path fill="none" stroke="black" d="M548.514,-1050.79C476.438,-1025.82 291.213,-961.674 208.705,-933.098"/>
<polygon fill="black" stroke="black" points="209.761,-929.76 199.166,-929.794 207.47,-936.374 209.761,-929.76"/>
</g>
<!-- OccurrenceFile -->
<g id="node18" class="node"><title>OccurrenceFile</title>
<path fill="#ffffcc" stroke="black" d="M605,-1008C605,-1008 551,-1008 551,-1008 545,-1008 539,-1002 539,-996 539,-996 539,-984 539,-984 539,-978 545,-972 551,-972 551,-972 605,-972 605,-972 611,-972 617,-978 617,-984 617,-984 617,-996 617,-996 617,-1002 611,-1008 605,-1008"/>
<text text-anchor="middle" x="578" y="-987.8" font-family="Helvetica,sans-Serif" font-size="9.00">OccurrenceFile</text>
</g>
<!-- Setup&#45;&gt;OccurrenceFile -->
<g id="edge14" class="edge"><title>Setup&#45;&gt;OccurrenceFile</title>
<path fill="none" stroke="black" d="M578,-1043.7C578,-1035.98 578,-1026.71 578,-1018.11"/>
<polygon fill="black" stroke="black" points="581.5,-1018.1 578,-1008.1 574.5,-1018.1 581.5,-1018.1"/>
</g>
<!-- Setup&#45;&gt;LogFile -->
<g id="edge13" class="edge"><title>Setup&#45;&gt;LogFile</title>
<path fill="none" stroke="black" d="M604.025,-1044C636.833,-1020.27 689,-973.916 689,-919 689,-919 689,-919 689,-547 689,-502.383 680.642,-451.097 674.732,-420.408"/>
<polygon fill="black" stroke="black" points="678.138,-419.586 672.762,-410.457 671.271,-420.946 678.138,-419.586"/>
</g>
<!-- FileToDataStream -->
<g id="node4" class="node"><title>FileToDataStream</title>
<polygon fill="#ccffcc" stroke="black" points="653.25,-936 502.75,-936 502.75,-900 653.25,-900 653.25,-936"/>
<text text-anchor="middle" x="578" y="-914.3" font-family="Courier,monospace" font-size="14.00">FileToDataStream</text>
</g>
<!-- DataRecord -->
<g id="node12" class="node"><title>DataRecord</title>
<path fill="#f8d2db" stroke="black" d="M541,-827C541,-827 615,-827 615,-827 621,-827 627,-833 627,-839 627,-839 627,-851 627,-851 627,-857 621,-863 615,-863 615,-863 541,-863 541,-863 535,-863 529,-857 529,-851 529,-851 529,-839 529,-839 529,-833 535,-827 541,-827"/>
<text text-anchor="middle" x="578" y="-851.8" font-family="Courier,monospace" font-weight="bold" font-size="9.00">DataRecord</text>
<polyline fill="none" stroke="black" points="529,-845 627,-845 "/>
<text text-anchor="middle" x="578" y="-833.8" font-family="Courier,monospace" font-weight="bold" font-size="9.00">MCZ:Mala:303063</text>
</g>
<!-- FileToDataStream&#45;&gt;DataRecord -->
<g id="edge15" class="edge"><title>FileToDataStream&#45;&gt;DataRecord</title>
<path fill="none" stroke="black" d="M578,-899.813C578,-891.789 578,-882.047 578,-873.069"/>
<polygon fill="black" stroke="black" points="581.5,-873.029 578,-863.029 574.5,-873.029 581.5,-873.029"/>
</g>
<!-- EnvironmentTagger -->
<g id="node5" class="node"><title>EnvironmentTagger</title>
<polygon fill="#ccffcc" stroke="black" points="657.25,-790 498.75,-790 498.75,-754 657.25,-754 657.25,-790"/>
<text text-anchor="middle" x="578" y="-768.3" font-family="Courier,monospace" font-size="14.00">EnvironmentTagger</text>
</g>
<!-- TaggedDataRecord -->
<g id="node13" class="node"><title>TaggedDataRecord</title>
<path fill="#f8d2db" stroke="black" d="M526.5,-681C526.5,-681 605.5,-681 605.5,-681 611.5,-681 617.5,-687 617.5,-693 617.5,-693 617.5,-705 617.5,-705 617.5,-711 611.5,-717 605.5,-717 605.5,-717 526.5,-717 526.5,-717 520.5,-717 514.5,-711 514.5,-705 514.5,-705 514.5,-693 514.5,-693 514.5,-687 520.5,-681 526.5,-681"/>
<text text-anchor="middle" x="566" y="-705.8" font-family="Courier,monospace" font-weight="bold" font-size="9.00">TaggedDataRecord</text>
<polyline fill="none" stroke="black" points="514.5,-699 617.5,-699 "/>
<text text-anchor="middle" x="566" y="-687.8" font-family="Courier,monospace" font-weight="bold" font-size="9.00">Marine</text>
</g>
<!-- EnvironmentTagger&#45;&gt;TaggedDataRecord -->
<g id="edge17" class="edge"><title>EnvironmentTagger&#45;&gt;TaggedDataRecord</title>
<path fill="none" stroke="black" d="M575.095,-753.813C573.739,-745.789 572.093,-736.047 570.575,-727.069"/>
<polygon fill="black" stroke="black" points="573.996,-726.306 568.878,-717.029 567.094,-727.472 573.996,-726.306"/>
</g>
<!-- EnvironmentTagger&#45;&gt;LogFile -->
<g id="edge16" class="edge"><title>EnvironmentTagger&#45;&gt;LogFile</title>
<path fill="none" stroke="black" d="M598.196,-753.702C625.005,-728.696 669,-679.641 669,-627 669,-627 669,-627 669,-547 669,-502.71 669,-451.255 669,-420.453"/>
<polygon fill="black" stroke="black" points="672.5,-420.091 669,-410.092 665.5,-420.092 672.5,-420.091"/>
</g>
<!-- FilterToJustMarine -->
<g id="node6" class="node"><title>FilterToJustMarine</title>
<polygon fill="#ccffcc" stroke="black" points="650,-644 482,-644 482,-608 650,-608 650,-644"/>
<text text-anchor="middle" x="566" y="-622.3" font-family="Courier,monospace" font-size="14.00">FilterToJustMarine</text>
</g>
<!-- MarineDataRecord -->
<g id="node14" class="node"><title>MarineDataRecord</title>
<path fill="#f8d2db" stroke="black" d="M474,-530C474,-530 618,-530 618,-530 624,-530 630,-536 630,-542 630,-542 630,-554 630,-554 630,-560 624,-566 618,-566 618,-566 474,-566 474,-566 468,-566 462,-560 462,-554 462,-554 462,-542 462,-542 462,-536 468,-530 474,-530"/>
<text text-anchor="middle" x="546" y="-554.8" font-family="Courier,monospace" font-weight="bold" font-size="9.00">MarineDataRecord</text>
<polyline fill="none" stroke="black" points="462,-548 630,-548 "/>
<text text-anchor="middle" x="546" y="-536.8" font-family="Courier,monospace" font-weight="bold" font-size="9.00">Cypraea argus:Linnaeus, 1758</text>
</g>
<!-- FilterToJustMarine&#45;&gt;MarineDataRecord -->
<g id="edge19" class="edge"><title>FilterToJustMarine&#45;&gt;MarineDataRecord</title>
<path fill="none" stroke="black" d="M561.462,-607.754C559.007,-598.426 555.919,-586.691 553.149,-576.165"/>
<polygon fill="black" stroke="black" points="556.45,-574.957 550.52,-566.177 549.681,-576.739 556.45,-574.957"/>
</g>
<!-- FilterToJustMarine&#45;&gt;LogFile -->
<g id="edge18" class="edge"><title>FilterToJustMarine&#45;&gt;LogFile</title>
<path fill="none" stroke="black" d="M600.165,-607.948C614.368,-599.136 629.683,-587.046 639,-572 654.407,-547.118 663.251,-464.099 666.944,-420.414"/>
<polygon fill="black" stroke="black" points="670.451,-420.465 667.772,-410.214 663.474,-419.898 670.451,-420.465"/>
</g>
<!-- WoRMSLookup -->
<g id="node7" class="node"><title>WoRMSLookup</title>
<polygon fill="#ccffcc" stroke="black" points="600.25,-488 491.75,-488 491.75,-452 600.25,-452 600.25,-488"/>
<text text-anchor="middle" x="546" y="-466.3" font-family="Courier,monospace" font-size="14.00">WoRMSLookup</text>
</g>
<!-- WoRMSUpdatedRecord -->
<g id="node15" class="node"><title>WoRMSUpdatedRecord</title>
<path fill="#f8d2db" stroke="black" d="M222,-374C222,-374 436,-374 436,-374 442,-374 448,-380 448,-386 448,-386 448,-398 448,-398 448,-404 442,-410 436,-410 436,-410 222,-410 222,-410 216,-410 210,-404 210,-398 210,-398 210,-386 210,-386 210,-380 216,-374 222,-374"/>
<text text-anchor="middle" x="329" y="-398.8" font-family="Courier,monospace" font-weight="bold" font-size="9.00">WoRMSUpdatedRecord</text>
<polyline fill="none" stroke="black" points="210,-392 448,-392 "/>
<text text-anchor="middle" x="329" y="-380.8" font-family="Courier,monospace" font-weight="bold" font-size="9.00">urn:lsid:marinespecies.org:taxname:216786</text>
</g>
<!-- WoRMSLookup&#45;&gt;WoRMSUpdatedRecord -->
<g id="edge23" class="edge"><title>WoRMSLookup&#45;&gt;WoRMSUpdatedRecord</title>
<path fill="none" stroke="black" d="M497.301,-451.944C464.748,-440.543 421.751,-425.484 387.366,-413.441"/>
<polygon fill="black" stroke="black" points="388.506,-410.133 377.911,-410.13 386.192,-416.739 388.506,-410.133"/>
</g>
<!-- WoRMSLookup&#45;&gt;LogFile -->
<g id="edge22" class="edge"><title>WoRMSLookup&#45;&gt;LogFile</title>
<path fill="none" stroke="black" d="M573.604,-451.944C590.969,-441.214 613.578,-427.245 632.426,-415.598"/>
<polygon fill="black" stroke="black" points="634.396,-418.496 641.063,-410.262 630.716,-412.541 634.396,-418.496"/>
</g>
<!-- StreamMerge -->
<g id="node8" class="node"><title>StreamMerge</title>
<polygon fill="#ccffcc" stroke="black" points="301.25,-332 192.75,-332 192.75,-296 301.25,-296 301.25,-332"/>
<text text-anchor="middle" x="247" y="-310.3" font-family="Courier,monospace" font-size="14.00">StreamMerge</text>
</g>
<!-- MergedStream -->
<g id="node19" class="node"><title>MergedStream</title>
<path fill="#ffffcc" stroke="black" d="M273,-260C273,-260 221,-260 221,-260 215,-260 209,-254 209,-248 209,-248 209,-236 209,-236 209,-230 215,-224 221,-224 221,-224 273,-224 273,-224 279,-224 285,-230 285,-236 285,-236 285,-248 285,-248 285,-254 279,-260 273,-260"/>
<text text-anchor="middle" x="247" y="-239.8" font-family="Helvetica,sans-Serif" font-size="9.00">MergedStream</text>
</g>
<!-- StreamMerge&#45;&gt;MergedStream -->
<g id="edge26" class="edge"><title>StreamMerge&#45;&gt;MergedStream</title>
<path fill="none" stroke="black" d="M247,-295.697C247,-287.983 247,-278.712 247,-270.112"/>
<polygon fill="black" stroke="black" points="250.5,-270.104 247,-260.104 243.5,-270.104 250.5,-270.104"/>
</g>
<!-- CsvFileWriter -->
<g id="node9" class="node"><title>CsvFileWriter</title>
<polygon fill="#ccffcc" stroke="black" points="310,-188 184,-188 184,-152 310,-152 310,-188"/>
<text text-anchor="middle" x="247" y="-166.3" font-family="Courier,monospace" font-size="14.00">CsvFileWriter</text>
</g>
<!-- UpdatedOccurrenceFile -->
<g id="node21" class="node"><title>UpdatedOccurrenceFile</title>
<path fill="#ffe4b5" stroke="black" d="M117,-79C117,-79 471,-79 471,-79 477,-79 483,-85 483,-91 483,-91 483,-103 483,-103 483,-109 477,-115 471,-115 471,-115 117,-115 117,-115 111,-115 105,-109 105,-103 105,-103 105,-91 105,-91 105,-85 111,-79 117,-79"/>
<text text-anchor="middle" x="294" y="-103.8" font-family="Courier,monospace" font-weight="bold" font-size="9.00">UpdatedOccurrenceFile</text>
<polyline fill="none" stroke="black" points="105,-97 483,-97 "/>
<text text-anchor="middle" x="294" y="-85.8" font-family="Courier,monospace" font-weight="bold" font-size="9.00">workspace_8b7dda80&#45;634e&#45;11e8&#45;9f66&#45;4a0002b0edf0/mergedoutputfile.csv</text>
</g>
<!-- CsvFileWriter&#45;&gt;UpdatedOccurrenceFile -->
<g id="edge27" class="edge"><title>CsvFileWriter&#45;&gt;UpdatedOccurrenceFile</title>
<path fill="none" stroke="black" d="M258.377,-151.813C263.977,-143.353 270.842,-132.984 277.045,-123.612"/>
<polygon fill="black" stroke="black" points="280.126,-125.299 282.727,-115.029 274.289,-121.435 280.126,-125.299"/>
</g>
<!-- notMarineDataRecord&#45;&gt;GBIFLookup -->
<g id="edge8" class="edge"><title>notMarineDataRecord&#45;&gt;GBIFLookup</title>
<path fill="none" stroke="black" d="M347,-524.197C347,-516.081 347,-506.858 347,-498.397"/>
<polygon fill="black" stroke="black" points="350.5,-498.228 347,-488.228 343.5,-498.228 350.5,-498.228"/>
</g>
<!-- GBIFUpdatedRecord&#45;&gt;StreamMerge -->
<g id="edge10" class="edge"><title>GBIFUpdatedRecord&#45;&gt;StreamMerge</title>
<path fill="none" stroke="black" d="M156.355,-368.403C173.024,-358.583 192.497,-347.11 209.112,-337.321"/>
<polygon fill="black" stroke="black" points="211.174,-340.169 218.013,-332.077 207.621,-334.138 211.174,-340.169"/>
</g>
<!-- DataRecord&#45;&gt;EnvironmentTagger -->
<g id="edge4" class="edge"><title>DataRecord&#45;&gt;EnvironmentTagger</title>
<path fill="none" stroke="black" d="M578,-826.813C578,-818.789 578,-809.047 578,-800.069"/>
<polygon fill="black" stroke="black" points="581.5,-800.029 578,-790.029 574.5,-800.029 581.5,-800.029"/>
</g>
<!-- TaggedDataRecord&#45;&gt;FilterToNonMarine -->
<g id="edge6" class="edge"><title>TaggedDataRecord&#45;&gt;FilterToNonMarine</title>
<path fill="none" stroke="black" d="M522.406,-680.994C496.819,-671.012 464.294,-658.324 437.204,-647.755"/>
<polygon fill="black" stroke="black" points="438.457,-644.487 427.869,-644.114 435.913,-651.009 438.457,-644.487"/>
</g>
<!-- TaggedDataRecord&#45;&gt;FilterToJustMarine -->
<g id="edge5" class="edge"><title>TaggedDataRecord&#45;&gt;FilterToJustMarine</title>
<path fill="none" stroke="black" d="M566,-680.813C566,-672.789 566,-663.047 566,-654.069"/>
<polygon fill="black" stroke="black" points="569.5,-654.029 566,-644.029 562.5,-654.029 569.5,-654.029"/>
</g>
<!-- MarineDataRecord&#45;&gt;WoRMSLookup -->
<g id="edge7" class="edge"><title>MarineDataRecord&#45;&gt;WoRMSLookup</title>
<path fill="none" stroke="black" d="M546,-529.754C546,-520.523 546,-508.935 546,-498.495"/>
<polygon fill="black" stroke="black" points="549.5,-498.177 546,-488.177 542.5,-498.177 549.5,-498.177"/>
</g>
<!-- WoRMSUpdatedRecord&#45;&gt;StreamMerge -->
<g id="edge9" class="edge"><title>WoRMSUpdatedRecord&#45;&gt;StreamMerge</title>
<path fill="none" stroke="black" d="M310.393,-373.754C299.385,-363.551 285.269,-350.469 273.154,-339.24"/>
<polygon fill="black" stroke="black" points="275.247,-336.408 265.533,-332.177 270.489,-341.542 275.247,-336.408"/>
</g>
<!-- DarwinCoreArchive -->
<g id="node16" class="node"><title>DarwinCoreArchive</title>
<path fill="#ffe4b5" stroke="black" d="M384.5,-1117C384.5,-1117 771.5,-1117 771.5,-1117 777.5,-1117 783.5,-1123 783.5,-1129 783.5,-1129 783.5,-1141 783.5,-1141 783.5,-1147 777.5,-1153 771.5,-1153 771.5,-1153 384.5,-1153 384.5,-1153 378.5,-1153 372.5,-1147 372.5,-1141 372.5,-1141 372.5,-1129 372.5,-1129 372.5,-1123 378.5,-1117 384.5,-1117"/>
<text text-anchor="middle" x="578" y="-1141.8" font-family="Courier,monospace" font-weight="bold" font-size="9.00">DarwinCoreArchive</text>
<polyline fill="none" stroke="black" points="372.5,-1135 783.5,-1135 "/>
<text text-anchor="middle" x="578" y="-1123.8" font-family="Courier,monospace" font-weight="bold" font-size="9.00">packages/kurator_FileBranchingTaxonLookup/data/kurator_sample_data_v2.txt</text>
</g>
<!-- DarwinCoreArchive&#45;&gt;Setup -->
<g id="edge1" class="edge"><title>DarwinCoreArchive&#45;&gt;Setup</title>
<path fill="none" stroke="black" d="M578,-1116.81C578,-1108.79 578,-1099.05 578,-1090.07"/>
<polygon fill="black" stroke="black" points="581.5,-1090.03 578,-1080.03 574.5,-1090.03 581.5,-1090.03"/>
</g>
<!-- Workspace&#45;&gt;CsvFileWriter -->
<g id="edge2" class="edge"><title>Workspace&#45;&gt;CsvFileWriter</title>
<path fill="none" stroke="black" d="M136.971,-902.871C94.9137,-881.341 25,-836.067 25,-773 25,-773 25,-773 25,-313 25,-240.761 109.451,-203.614 174.179,-185.752"/>
<polygon fill="black" stroke="black" points="175.21,-189.099 183.978,-183.151 173.414,-182.333 175.21,-189.099"/>
</g>
<!-- OccurrenceFile&#45;&gt;FileToDataStream -->
<g id="edge3" class="edge"><title>OccurrenceFile&#45;&gt;FileToDataStream</title>
<path fill="none" stroke="black" d="M578,-971.697C578,-963.983 578,-954.712 578,-946.112"/>
<polygon fill="black" stroke="black" points="581.5,-946.104 578,-936.104 574.5,-946.104 581.5,-946.104"/>
</g>
<!-- MergedStream&#45;&gt;CsvFileWriter -->
<g id="edge11" class="edge"><title>MergedStream&#45;&gt;CsvFileWriter</title>
<path fill="none" stroke="black" d="M247,-223.697C247,-215.983 247,-206.712 247,-198.112"/>
<polygon fill="black" stroke="black" points="250.5,-198.104 247,-188.104 243.5,-198.104 250.5,-198.104"/>
</g>
<!-- LogFile_outflow -->
<g id="node23" class="node"><title>LogFile_outflow</title>
<ellipse fill="none" stroke="black" cx="458" cy="-31" rx="7" ry="7"/>
</g>
<!-- LogFile&#45;&gt;LogFile_outflow -->
<g id="edge29" class="edge"><title>LogFile&#45;&gt;LogFile_outflow</title>
<path fill="none" stroke="black" d="M652.631,-373.909C629.492,-347.873 590,-295.718 590,-243 590,-243 590,-243 590,-169 590,-102.551 508.474,-55.9308 473.563,-39.0134"/>
<polygon fill="black" stroke="black" points="474.909,-35.7795 464.367,-34.7277 471.952,-42.1243 474.909,-35.7795"/>
</g>
<!-- UpdatedOccurrenceFile_outflow -->
<g id="node24" class="node"><title>UpdatedOccurrenceFile_outflow</title>
<ellipse fill="none" stroke="black" cx="426" cy="-31" rx="7" ry="7"/>
</g>
<!-- UpdatedOccurrenceFile&#45;&gt;UpdatedOccurrenceFile_outflow -->
<g id="edge30" class="edge"><title>UpdatedOccurrenceFile&#45;&gt;UpdatedOccurrenceFile_outflow</title>
<path fill="none" stroke="black" d="M329.374,-78.8492C355.921,-65.9778 390.962,-48.9881 410.726,-39.4058"/>
<polygon fill="black" stroke="black" points="412.511,-42.4297 419.983,-34.9176 409.457,-36.131 412.511,-42.4297"/>
</g>
<!-- DarwinCoreArchive_inflow -->
<g id="node22" class="node"><title>DarwinCoreArchive_inflow</title>
<ellipse fill="none" stroke="black" cx="578" cy="-1201" rx="7" ry="7"/>
</g>
<!-- DarwinCoreArchive_inflow&#45;&gt;DarwinCoreArchive -->
<g id="edge28" class="edge"><title>DarwinCoreArchive_inflow&#45;&gt;DarwinCoreArchive</title>
<path fill="none" stroke="black" d="M578,-1193.63C578,-1186.54 578,-1174.6 578,-1163.42"/>
<polygon fill="black" stroke="black" points="581.5,-1163.12 578,-1153.12 574.5,-1163.12 581.5,-1163.12"/>
</g>
</g>
</svg>
