<?xml version="1.0" encoding="UTF-8" standalone="no"?>
<!DOCTYPE svg PUBLIC "-//W3C//DTD SVG 1.1//EN"
 "http://www.w3.org/Graphics/SVG/1.1/DTD/svg11.dtd">
<!-- Generated by graphviz version 2.36.0 (20140111.2315)
 -->
<!-- Title: yw_data_view Pages: 1 -->
<svg width="498pt" height="1302pt"
 viewBox="0.00 0.00 498.00 1302.00" xmlns="http://www.w3.org/2000/svg" xmlns:xlink="http://www.w3.org/1999/xlink">
<g id="graph0" class="graph" transform="scale(1 1) rotate(0) translate(4 1298)">
<title>yw_data_view</title>
<polygon fill="white" stroke="none" points="-4,4 -4,-1298 494,-1298 494,4 -4,4"/>
<text text-anchor="middle" x="245" y="-1275.6" font-family="Courier,monospace" font-size="18.00">DwCA_Taxon_Lookup</text>
<g id="clust1" class="cluster"><title>cluster_workflow</title>
<polygon fill="none" stroke="black" stroke-width="2" points="8,-62 8,-1204 482,-1204 482,-62 8,-62"/>
</g>
<g id="clust2" class="cluster"><title>cluster_workflow_inner</title>
<polygon fill="none" stroke="white" stroke-width="2" points="16,-70 16,-1196 474,-1196 474,-70 16,-70"/>
</g>
<g id="clust3" class="cluster"><title>cluster_inflows</title>
<polygon fill="none" stroke="white" stroke-width="2" points="222,-1212 222,-1258 268,-1258 268,-1212 222,-1212"/>
</g>
<g id="clust4" class="cluster"><title>cluster_inflows_inner</title>
<polygon fill="none" stroke="white" stroke-width="2" points="230,-1220 230,-1250 260,-1250 260,-1220 230,-1220"/>
</g>
<g id="clust5" class="cluster"><title>cluster_outflows</title>
<polygon fill="none" stroke="white" stroke-width="2" points="282,-8 282,-54 360,-54 360,-8 282,-8"/>
</g>
<g id="clust6" class="cluster"><title>cluster_outflows_inner</title>
<polygon fill="none" stroke="white" stroke-width="2" points="290,-16 290,-46 352,-46 352,-16 290,-16"/>
</g>
<!-- Setup -->
<g id="node1" class="node"><title>Setup</title>
<polygon fill="#ccffcc" stroke="black" points="274.25,-1114 215.75,-1114 215.75,-1078 274.25,-1078 274.25,-1114"/>
<text text-anchor="middle" x="245" y="-1092.3" font-family="Courier,monospace" font-size="14.00">Setup</text>
</g>
<!-- Workspace -->
<g id="node17" class="node"><title>Workspace</title>
<path fill="#ffffcc" stroke="black" d="M139,-970C139,-970 101,-970 101,-970 95,-970 89,-964 89,-958 89,-958 89,-946 89,-946 89,-940 95,-934 101,-934 101,-934 139,-934 139,-934 145,-934 151,-940 151,-946 151,-946 151,-958 151,-958 151,-964 145,-970 139,-970"/>
<text text-anchor="middle" x="120" y="-949.8" font-family="Helvetica,sans-Serif" font-size="9.00">Workspace</text>
</g>
<!-- Setup&#45;&gt;Workspace -->
<g id="edge12" class="edge"><title>Setup&#45;&gt;Workspace</title>
<path fill="none" stroke="black" d="M229.922,-1077.87C207.961,-1052.92 167.051,-1006.45 141.807,-977.773"/>
<polygon fill="black" stroke="black" points="144.366,-975.383 135.131,-970.189 139.112,-980.008 144.366,-975.383"/>
</g>
<!-- OccurrenceFile -->
<g id="node18" class="node"><title>OccurrenceFile</title>
<path fill="#ffffcc" stroke="black" d="M315,-1042C315,-1042 261,-1042 261,-1042 255,-1042 249,-1036 249,-1030 249,-1030 249,-1018 249,-1018 249,-1012 255,-1006 261,-1006 261,-1006 315,-1006 315,-1006 321,-1006 327,-1012 327,-1018 327,-1018 327,-1030 327,-1030 327,-1036 321,-1042 315,-1042"/>
<text text-anchor="middle" x="288" y="-1021.8" font-family="Helvetica,sans-Serif" font-size="9.00">OccurrenceFile</text>
</g>
<!-- Setup&#45;&gt;OccurrenceFile -->
<g id="edge13" class="edge"><title>Setup&#45;&gt;OccurrenceFile</title>
<path fill="none" stroke="black" d="M255.629,-1077.7C260.628,-1069.56 266.691,-1059.69 272.212,-1050.7"/>
<polygon fill="black" stroke="black" points="275.241,-1052.46 277.493,-1042.1 269.277,-1048.79 275.241,-1052.46"/>
</g>
<!-- FileToDataStream -->
<g id="node2" class="node"><title>FileToDataStream</title>
<polygon fill="#ccffcc" stroke="black" points="384.25,-970 233.75,-970 233.75,-934 384.25,-934 384.25,-970"/>
<text text-anchor="middle" x="309" y="-948.3" font-family="Courier,monospace" font-size="14.00">FileToDataStream</text>
</g>
<!-- DataRecord -->
<g id="node10" class="node"><title>DataRecord</title>
<path fill="#3ab4df" stroke="black" d="M280.5,-851C280.5,-851 347.5,-851 347.5,-851 353.5,-851 359.5,-857 359.5,-863 359.5,-863 359.5,-885 359.5,-885 359.5,-891 353.5,-897 347.5,-897 347.5,-897 280.5,-897 280.5,-897 274.5,-897 268.5,-891 268.5,-885 268.5,-885 268.5,-863 268.5,-863 268.5,-857 274.5,-851 280.5,-851"/>
<text text-anchor="middle" x="314" y="-881.8" font-family="Helvetica,sans-Serif" font-size="14.00">DataRecord</text>
<polyline fill="none" stroke="black" points="268.5,-874 359.5,-874 "/>
<text text-anchor="middle" x="314" y="-858.8" font-family="Helvetica,sans-Serif" font-size="14.00">Count: 192</text>
</g>
<!-- FileToDataStream&#45;&gt;DataRecord -->
<g id="edge14" class="edge"><title>FileToDataStream&#45;&gt;DataRecord</title>
<path fill="none" stroke="black" d="M310.135,-933.754C310.654,-925.863 311.286,-916.249 311.888,-907.102"/>
<polygon fill="black" stroke="black" points="315.383,-907.299 312.547,-897.091 308.398,-906.839 315.383,-907.299"/>
</g>
<!-- EnvironmentTagger -->
<g id="node3" class="node"><title>EnvironmentTagger</title>
<polygon fill="#ccffcc" stroke="black" points="404.25,-814 245.75,-814 245.75,-778 404.25,-778 404.25,-814"/>
<text text-anchor="middle" x="325" y="-792.3" font-family="Courier,monospace" font-size="14.00">EnvironmentTagger</text>
</g>
<!-- TaggedDataRecord -->
<g id="node11" class="node"><title>TaggedDataRecord</title>
<path fill="#3ab4df" stroke="black" d="M267.5,-695C267.5,-695 382.5,-695 382.5,-695 388.5,-695 394.5,-701 394.5,-707 394.5,-707 394.5,-729 394.5,-729 394.5,-735 388.5,-741 382.5,-741 382.5,-741 267.5,-741 267.5,-741 261.5,-741 255.5,-735 255.5,-729 255.5,-729 255.5,-707 255.5,-707 255.5,-701 261.5,-695 267.5,-695"/>
<text text-anchor="middle" x="325" y="-725.8" font-family="Helvetica,sans-Serif" font-size="14.00">TaggedDataRecord</text>
<polyline fill="none" stroke="black" points="255.5,-718 394.5,-718 "/>
<text text-anchor="middle" x="325" y="-702.8" font-family="Helvetica,sans-Serif" font-size="14.00">Count: 192</text>
</g>
<!-- EnvironmentTagger&#45;&gt;TaggedDataRecord -->
<g id="edge16" class="edge"><title>EnvironmentTagger&#45;&gt;TaggedDataRecord</title>
<path fill="none" stroke="black" d="M325,-777.754C325,-769.863 325,-760.249 325,-751.102"/>
<polygon fill="black" stroke="black" points="328.5,-751.091 325,-741.091 321.5,-751.091 328.5,-751.091"/>
</g>
<!-- LogFile -->
<g id="node20" class="node"><title>LogFile</title>
<path fill="#ffe4b5" stroke="black" d="M406.5,-381C406.5,-381 453.5,-381 453.5,-381 459.5,-381 465.5,-387 465.5,-393 465.5,-393 465.5,-405 465.5,-405 465.5,-411 459.5,-417 453.5,-417 453.5,-417 406.5,-417 406.5,-417 400.5,-417 394.5,-411 394.5,-405 394.5,-405 394.5,-393 394.5,-393 394.5,-387 400.5,-381 406.5,-381"/>
<text text-anchor="middle" x="430" y="-405.8" font-family="Courier,monospace" font-weight="bold" font-size="9.00">LogFile</text>
<polyline fill="none" stroke="black" points="394.5,-399 465.5,-399 "/>
<text text-anchor="middle" x="430" y="-387.8" font-family="Courier,monospace" font-weight="bold" font-size="9.00">runlog.log</text>
</g>
<!-- EnvironmentTagger&#45;&gt;LogFile -->
<g id="edge15" class="edge"><title>EnvironmentTagger&#45;&gt;LogFile</title>
<path fill="none" stroke="black" d="M359.381,-777.986C374.502,-769.047 391.418,-756.844 403,-742 432.407,-704.309 440,-688.806 440,-641 440,-641 440,-641 440,-561 440,-514.154 435.73,-459.787 432.771,-427.73"/>
<polygon fill="black" stroke="black" points="436.217,-426.995 431.788,-417.37 429.248,-427.656 436.217,-426.995"/>
</g>
<!-- FilterToJustMarine -->
<g id="node4" class="node"><title>FilterToJustMarine</title>
<polygon fill="#ccffcc" stroke="black" points="240,-658 72,-658 72,-622 240,-622 240,-658"/>
<text text-anchor="middle" x="156" y="-636.3" font-family="Courier,monospace" font-size="14.00">FilterToJustMarine</text>
</g>
<!-- MarineDataRecord -->
<g id="node12" class="node"><title>MarineDataRecord</title>
<path fill="#3ab4df" stroke="black" d="M87,-539C87,-539 197,-539 197,-539 203,-539 209,-545 209,-551 209,-551 209,-573 209,-573 209,-579 203,-585 197,-585 197,-585 87,-585 87,-585 81,-585 75,-579 75,-573 75,-573 75,-551 75,-551 75,-545 81,-539 87,-539"/>
<text text-anchor="middle" x="142" y="-569.8" font-family="Helvetica,sans-Serif" font-size="14.00">MarineDataRecord</text>
<polyline fill="none" stroke="black" points="75,-562 209,-562 "/>
<text text-anchor="middle" x="142" y="-546.8" font-family="Helvetica,sans-Serif" font-size="14.00">Count: 98</text>
</g>
<!-- FilterToJustMarine&#45;&gt;MarineDataRecord -->
<g id="edge18" class="edge"><title>FilterToJustMarine&#45;&gt;MarineDataRecord</title>
<path fill="none" stroke="black" d="M152.823,-621.754C151.37,-613.863 149.599,-604.249 147.914,-595.102"/>
<polygon fill="black" stroke="black" points="151.323,-594.291 146.069,-585.091 144.439,-595.559 151.323,-594.291"/>
</g>
<!-- FilterToJustMarine&#45;&gt;LogFile -->
<g id="edge17" class="edge"><title>FilterToJustMarine&#45;&gt;LogFile</title>
<path fill="none" stroke="black" d="M181.604,-621.772C193.963,-612.395 208.199,-599.882 218,-586 250.944,-539.341 222.09,-504.806 264,-466 305.169,-427.88 334.203,-453.827 385,-430 389.442,-427.917 393.945,-425.434 398.299,-422.802"/>
<polygon fill="black" stroke="black" points="400.418,-425.602 406.961,-417.269 396.65,-419.702 400.418,-425.602"/>
</g>
<!-- FilterToNonMarine -->
<g id="node5" class="node"><title>FilterToNonMarine</title>
<polygon fill="#ccffcc" stroke="black" points="417.25,-658 258.75,-658 258.75,-622 417.25,-622 417.25,-658"/>
<text text-anchor="middle" x="338" y="-636.3" font-family="Courier,monospace" font-size="14.00">FilterToNonMarine</text>
</g>
<!-- notMarineDataRecord -->
<g id="node13" class="node"><title>notMarineDataRecord</title>
<path fill="#3ab4df" stroke="black" d="M259.5,-539C259.5,-539 388.5,-539 388.5,-539 394.5,-539 400.5,-545 400.5,-551 400.5,-551 400.5,-573 400.5,-573 400.5,-579 394.5,-585 388.5,-585 388.5,-585 259.5,-585 259.5,-585 253.5,-585 247.5,-579 247.5,-573 247.5,-573 247.5,-551 247.5,-551 247.5,-545 253.5,-539 259.5,-539"/>
<text text-anchor="middle" x="324" y="-569.8" font-family="Helvetica,sans-Serif" font-size="14.00">notMarineDataRecord</text>
<polyline fill="none" stroke="black" points="247.5,-562 400.5,-562 "/>
<text text-anchor="middle" x="324" y="-546.8" font-family="Helvetica,sans-Serif" font-size="14.00">Count: 94</text>
</g>
<!-- FilterToNonMarine&#45;&gt;notMarineDataRecord -->
<g id="edge20" class="edge"><title>FilterToNonMarine&#45;&gt;notMarineDataRecord</title>
<path fill="none" stroke="black" d="M334.823,-621.754C333.37,-613.863 331.599,-604.249 329.914,-595.102"/>
<polygon fill="black" stroke="black" points="333.323,-594.291 328.069,-585.091 326.439,-595.559 333.323,-594.291"/>
</g>
<!-- FilterToNonMarine&#45;&gt;LogFile -->
<g id="edge19" class="edge"><title>FilterToNonMarine&#45;&gt;LogFile</title>
<path fill="none" stroke="black" d="M371.613,-621.975C385.501,-613.169 400.348,-601.076 409,-586 424.13,-559.636 428.361,-472.477 429.543,-427.455"/>
<polygon fill="black" stroke="black" points="433.047,-427.314 429.778,-417.236 426.049,-427.153 433.047,-427.314"/>
</g>
<!-- WoRMSLookup -->
<g id="node6" class="node"><title>WoRMSLookup</title>
<polygon fill="#ccffcc" stroke="black" points="196.25,-502 87.75,-502 87.75,-466 196.25,-466 196.25,-502"/>
<text text-anchor="middle" x="142" y="-480.3" font-family="Courier,monospace" font-size="14.00">WoRMSLookup</text>
</g>
<!-- WoRMSUpdatedRecord -->
<g id="node14" class="node"><title>WoRMSUpdatedRecord</title>
<path fill="#3ab4df" stroke="black" d="M56.5,-368.5C56.5,-368.5 199.5,-368.5 199.5,-368.5 205.5,-368.5 211.5,-374.5 211.5,-380.5 211.5,-380.5 211.5,-417.5 211.5,-417.5 211.5,-423.5 205.5,-429.5 199.5,-429.5 199.5,-429.5 56.5,-429.5 56.5,-429.5 50.5,-429.5 44.5,-423.5 44.5,-417.5 44.5,-417.5 44.5,-380.5 44.5,-380.5 44.5,-374.5 50.5,-368.5 56.5,-368.5"/>
<text text-anchor="middle" x="128" y="-414.3" font-family="Helvetica,sans-Serif" font-size="14.00">WoRMSUpdatedRecord</text>
<polyline fill="none" stroke="black" points="44.5,-406.5 211.5,-406.5 "/>
<text text-anchor="middle" x="128" y="-391.3" font-family="Helvetica,sans-Serif" font-size="14.00">Has Value: 37</text>
<text text-anchor="middle" x="128" y="-376.3" font-family="Helvetica,sans-Serif" font-size="14.00"> Null: 61</text>
</g>
<!-- WoRMSLookup&#45;&gt;WoRMSUpdatedRecord -->
<g id="edge22" class="edge"><title>WoRMSLookup&#45;&gt;WoRMSUpdatedRecord</title>
<path fill="none" stroke="black" d="M139.099,-465.802C137.805,-458.131 136.223,-448.749 134.663,-439.5"/>
<polygon fill="black" stroke="black" points="138.108,-438.881 132.993,-429.602 131.205,-440.045 138.108,-438.881"/>
</g>
<!-- WoRMSLookup&#45;&gt;LogFile -->
<g id="edge21" class="edge"><title>WoRMSLookup&#45;&gt;LogFile</title>
<path fill="none" stroke="black" d="M196.481,-471.379C266.768,-456.349 380.615,-431.861 385,-430 389.846,-427.943 394.727,-425.349 399.396,-422.551"/>
<polygon fill="black" stroke="black" points="401.517,-425.348 408.048,-417.006 397.74,-419.455 401.517,-425.348"/>
</g>
<!-- GBIFLookup -->
<g id="node7" class="node"><title>GBIFLookup</title>
<polygon fill="#ccffcc" stroke="black" points="374.25,-502 273.75,-502 273.75,-466 374.25,-466 374.25,-502"/>
<text text-anchor="middle" x="324" y="-480.3" font-family="Courier,monospace" font-size="14.00">GBIFLookup</text>
</g>
<!-- GBIFUpdatedRecord -->
<g id="node15" class="node"><title>GBIFUpdatedRecord</title>
<path fill="#3ab4df" stroke="black" d="M241.5,-368.5C241.5,-368.5 364.5,-368.5 364.5,-368.5 370.5,-368.5 376.5,-374.5 376.5,-380.5 376.5,-380.5 376.5,-417.5 376.5,-417.5 376.5,-423.5 370.5,-429.5 364.5,-429.5 364.5,-429.5 241.5,-429.5 241.5,-429.5 235.5,-429.5 229.5,-423.5 229.5,-417.5 229.5,-417.5 229.5,-380.5 229.5,-380.5 229.5,-374.5 235.5,-368.5 241.5,-368.5"/>
<text text-anchor="middle" x="303" y="-414.3" font-family="Helvetica,sans-Serif" font-size="14.00">GBIFUpdatedRecord</text>
<polyline fill="none" stroke="black" points="229.5,-406.5 376.5,-406.5 "/>
<text text-anchor="middle" x="303" y="-391.3" font-family="Helvetica,sans-Serif" font-size="14.00">Has Value: 94</text>
<text text-anchor="middle" x="303" y="-376.3" font-family="Helvetica,sans-Serif" font-size="14.00"> Null: 0</text>
</g>
<!-- GBIFLookup&#45;&gt;GBIFUpdatedRecord -->
<g id="edge24" class="edge"><title>GBIFLookup&#45;&gt;GBIFUpdatedRecord</title>
<path fill="none" stroke="black" d="M319.649,-465.802C317.708,-458.131 315.334,-448.749 312.994,-439.5"/>
<polygon fill="black" stroke="black" points="316.336,-438.438 310.49,-429.602 309.55,-440.155 316.336,-438.438"/>
</g>
<!-- GBIFLookup&#45;&gt;LogFile -->
<g id="edge23" class="edge"><title>GBIFLookup&#45;&gt;LogFile</title>
<path fill="none" stroke="black" d="M345.963,-465.802C361.597,-453.561 382.794,-436.963 399.988,-423.5"/>
<polygon fill="black" stroke="black" points="402.349,-426.096 408.065,-417.176 398.034,-420.585 402.349,-426.096"/>
</g>
<!-- StreamMerge -->
<g id="node8" class="node"><title>StreamMerge</title>
<polygon fill="#ccffcc" stroke="black" points="225.25,-332 116.75,-332 116.75,-296 225.25,-296 225.25,-332"/>
<text text-anchor="middle" x="171" y="-310.3" font-family="Courier,monospace" font-size="14.00">StreamMerge</text>
</g>
<!-- MergedStream -->
<g id="node19" class="node"><title>MergedStream</title>
<path fill="#ffffcc" stroke="black" d="M197,-260C197,-260 145,-260 145,-260 139,-260 133,-254 133,-248 133,-248 133,-236 133,-236 133,-230 139,-224 145,-224 145,-224 197,-224 197,-224 203,-224 209,-230 209,-236 209,-236 209,-248 209,-248 209,-254 203,-260 197,-260"/>
<text text-anchor="middle" x="171" y="-239.8" font-family="Helvetica,sans-Serif" font-size="9.00">MergedStream</text>
</g>
<!-- StreamMerge&#45;&gt;MergedStream -->
<g id="edge25" class="edge"><title>StreamMerge&#45;&gt;MergedStream</title>
<path fill="none" stroke="black" d="M171,-295.697C171,-287.983 171,-278.712 171,-270.112"/>
<polygon fill="black" stroke="black" points="174.5,-270.104 171,-260.104 167.5,-270.104 174.5,-270.104"/>
</g>
<!-- CsvFileWriter -->
<g id="node9" class="node"><title>CsvFileWriter</title>
<polygon fill="#ccffcc" stroke="black" points="234,-188 108,-188 108,-152 234,-152 234,-188"/>
<text text-anchor="middle" x="171" y="-166.3" font-family="Courier,monospace" font-size="14.00">CsvFileWriter</text>
</g>
<!-- UpdatedOccurrenceFile -->
<g id="node21" class="node"><title>UpdatedOccurrenceFile</title>
<path fill="#ffe4b5" stroke="black" d="M36,-79C36,-79 390,-79 390,-79 396,-79 402,-85 402,-91 402,-91 402,-103 402,-103 402,-109 396,-115 390,-115 390,-115 36,-115 36,-115 30,-115 24,-109 24,-103 24,-103 24,-91 24,-91 24,-85 30,-79 36,-79"/>
<text text-anchor="middle" x="213" y="-103.8" font-family="Courier,monospace" font-weight="bold" font-size="9.00">UpdatedOccurrenceFile</text>
<polyline fill="none" stroke="black" points="24,-97 402,-97 "/>
<text text-anchor="middle" x="213" y="-85.8" font-family="Courier,monospace" font-weight="bold" font-size="9.00">workspace_10d7d3cf&#45;a841&#45;11e7&#45;b230&#45;acbc3296f741/mergedoutputfile.csv</text>
</g>
<!-- CsvFileWriter&#45;&gt;UpdatedOccurrenceFile -->
<g id="edge26" class="edge"><title>CsvFileWriter&#45;&gt;UpdatedOccurrenceFile</title>
<path fill="none" stroke="black" d="M181.167,-151.813C186.12,-143.441 192.179,-133.197 197.677,-123.903"/>
<polygon fill="black" stroke="black" points="200.848,-125.418 202.927,-115.029 194.823,-121.854 200.848,-125.418"/>
</g>
<!-- DataRecord&#45;&gt;EnvironmentTagger -->
<g id="edge4" class="edge"><title>DataRecord&#45;&gt;EnvironmentTagger</title>
<path fill="none" stroke="black" d="M317.241,-850.609C318.43,-842.391 319.79,-832.994 321.036,-824.387"/>
<polygon fill="black" stroke="black" points="324.511,-824.81 322.48,-814.412 317.583,-823.808 324.511,-824.81"/>
</g>
<!-- TaggedDataRecord&#45;&gt;FilterToJustMarine -->
<g id="edge5" class="edge"><title>TaggedDataRecord&#45;&gt;FilterToJustMarine</title>
<path fill="none" stroke="black" d="M275.664,-694.813C252.817,-684.539 225.796,-672.388 203.218,-662.234"/>
<polygon fill="black" stroke="black" points="204.394,-658.925 193.838,-658.016 201.523,-665.309 204.394,-658.925"/>
</g>
<!-- TaggedDataRecord&#45;&gt;FilterToNonMarine -->
<g id="edge6" class="edge"><title>TaggedDataRecord&#45;&gt;FilterToNonMarine</title>
<path fill="none" stroke="black" d="M328.83,-694.609C330.236,-686.391 331.843,-676.994 333.315,-668.387"/>
<polygon fill="black" stroke="black" points="336.785,-668.859 335.022,-658.412 329.886,-667.679 336.785,-668.859"/>
</g>
<!-- MarineDataRecord&#45;&gt;WoRMSLookup -->
<g id="edge7" class="edge"><title>MarineDataRecord&#45;&gt;WoRMSLookup</title>
<path fill="none" stroke="black" d="M142,-538.609C142,-530.481 142,-521.2 142,-512.671"/>
<polygon fill="black" stroke="black" points="145.5,-512.412 142,-502.412 138.5,-512.412 145.5,-512.412"/>
</g>
<!-- notMarineDataRecord&#45;&gt;GBIFLookup -->
<g id="edge8" class="edge"><title>notMarineDataRecord&#45;&gt;GBIFLookup</title>
<path fill="none" stroke="black" d="M324,-538.609C324,-530.481 324,-521.2 324,-512.671"/>
<polygon fill="black" stroke="black" points="327.5,-512.412 324,-502.412 320.5,-512.412 327.5,-512.412"/>
</g>
<!-- WoRMSUpdatedRecord&#45;&gt;StreamMerge -->
<g id="edge9" class="edge"><title>WoRMSUpdatedRecord&#45;&gt;StreamMerge</title>
<path fill="none" stroke="black" d="M143.524,-368.035C148.068,-359.263 153,-349.745 157.414,-341.225"/>
<polygon fill="black" stroke="black" points="160.637,-342.611 162.129,-332.122 154.422,-339.391 160.637,-342.611"/>
</g>
<!-- GBIFUpdatedRecord&#45;&gt;StreamMerge -->
<g id="edge10" class="edge"><title>GBIFUpdatedRecord&#45;&gt;StreamMerge</title>
<path fill="none" stroke="black" d="M255.718,-368.27C239.639,-358.16 221.945,-347.034 206.905,-337.577"/>
<polygon fill="black" stroke="black" points="208.717,-334.581 198.388,-332.221 204.991,-340.507 208.717,-334.581"/>
</g>
<!-- DarwinCoreArchive -->
<g id="node16" class="node"><title>DarwinCoreArchive</title>
<path fill="#ffe4b5" stroke="black" d="M51.5,-1151C51.5,-1151 438.5,-1151 438.5,-1151 444.5,-1151 450.5,-1157 450.5,-1163 450.5,-1163 450.5,-1175 450.5,-1175 450.5,-1181 444.5,-1187 438.5,-1187 438.5,-1187 51.5,-1187 51.5,-1187 45.5,-1187 39.5,-1181 39.5,-1175 39.5,-1175 39.5,-1163 39.5,-1163 39.5,-1157 45.5,-1151 51.5,-1151"/>
<text text-anchor="middle" x="245" y="-1175.8" font-family="Courier,monospace" font-weight="bold" font-size="9.00">DarwinCoreArchive</text>
<polyline fill="none" stroke="black" points="39.5,-1169 450.5,-1169 "/>
<text text-anchor="middle" x="245" y="-1157.8" font-family="Courier,monospace" font-weight="bold" font-size="9.00">packages/kurator_FileBranchingTaxonLookup/data/kurator_sample_data_v2.txt</text>
</g>
<!-- DarwinCoreArchive&#45;&gt;Setup -->
<g id="edge1" class="edge"><title>DarwinCoreArchive&#45;&gt;Setup</title>
<path fill="none" stroke="black" d="M245,-1150.81C245,-1142.79 245,-1133.05 245,-1124.07"/>
<polygon fill="black" stroke="black" points="248.5,-1124.03 245,-1114.03 241.5,-1124.03 248.5,-1124.03"/>
</g>
<!-- Workspace&#45;&gt;CsvFileWriter -->
<g id="edge2" class="edge"><title>Workspace&#45;&gt;CsvFileWriter</title>
<path fill="none" stroke="black" d="M100.316,-933.732C72.4899,-907.3 25,-853.859 25,-797 25,-797 25,-797 25,-313 25,-257.047 80.7864,-216.01 123.391,-192.828"/>
<polygon fill="black" stroke="black" points="125.044,-195.913 132.258,-188.153 121.78,-189.721 125.044,-195.913"/>
</g>
<!-- OccurrenceFile&#45;&gt;FileToDataStream -->
<g id="edge3" class="edge"><title>OccurrenceFile&#45;&gt;FileToDataStream</title>
<path fill="none" stroke="black" d="M293.191,-1005.7C295.531,-997.898 298.347,-988.509 300.951,-979.829"/>
<polygon fill="black" stroke="black" points="304.348,-980.688 303.869,-970.104 297.643,-978.677 304.348,-980.688"/>
</g>
<!-- MergedStream&#45;&gt;CsvFileWriter -->
<g id="edge11" class="edge"><title>MergedStream&#45;&gt;CsvFileWriter</title>
<path fill="none" stroke="black" d="M171,-223.697C171,-215.983 171,-206.712 171,-198.112"/>
<polygon fill="black" stroke="black" points="174.5,-198.104 171,-188.104 167.5,-198.104 174.5,-198.104"/>
</g>
<!-- LogFile_outflow -->
<g id="node23" class="node"><title>LogFile_outflow</title>
<ellipse fill="none" stroke="black" cx="337" cy="-31" rx="7" ry="7"/>
</g>
<!-- LogFile&#45;&gt;LogFile_outflow -->
<g id="edge28" class="edge"><title>LogFile&#45;&gt;LogFile_outflow</title>
<path fill="none" stroke="black" d="M430,-380.798C430,-352.196 430,-293.052 430,-243 430,-243 430,-243 430,-169 430,-120.701 441.396,-99.5354 411,-62 396.965,-44.6684 371.346,-37.2725 354.245,-34.1692"/>
<polygon fill="black" stroke="black" points="354.422,-30.6567 344.014,-32.6371 353.386,-37.5795 354.422,-30.6567"/>
</g>
<!-- UpdatedOccurrenceFile_outflow -->
<g id="node24" class="node"><title>UpdatedOccurrenceFile_outflow</title>
<ellipse fill="none" stroke="black" cx="305" cy="-31" rx="7" ry="7"/>
</g>
<!-- UpdatedOccurrenceFile&#45;&gt;UpdatedOccurrenceFile_outflow -->
<g id="edge29" class="edge"><title>UpdatedOccurrenceFile&#45;&gt;UpdatedOccurrenceFile_outflow</title>
<path fill="none" stroke="black" d="M237.654,-78.8492C254.78,-66.9359 276.977,-51.4945 291.108,-41.6639"/>
<polygon fill="black" stroke="black" points="293.231,-44.4507 299.441,-35.8668 289.234,-38.7043 293.231,-44.4507"/>
</g>
<!-- DarwinCoreArchive_inflow -->
<g id="node22" class="node"><title>DarwinCoreArchive_inflow</title>
<ellipse fill="none" stroke="black" cx="245" cy="-1235" rx="7" ry="7"/>
</g>
<!-- DarwinCoreArchive_inflow&#45;&gt;DarwinCoreArchive -->
<g id="edge27" class="edge"><title>DarwinCoreArchive_inflow&#45;&gt;DarwinCoreArchive</title>
<path fill="none" stroke="black" d="M245,-1227.63C245,-1220.54 245,-1208.6 245,-1197.42"/>
<polygon fill="black" stroke="black" points="248.5,-1197.12 245,-1187.12 241.5,-1197.12 248.5,-1197.12"/>
</g>
</g>
</svg>
