<?xml version="1.0" encoding="UTF-8" standalone="no"?>
<!DOCTYPE svg PUBLIC "-//W3C//DTD SVG 1.1//EN"
 "http://www.w3.org/Graphics/SVG/1.1/DTD/svg11.dtd">
<!-- Generated by graphviz version 2.36.0 (20140111.2315)
 -->
<!-- Title: yw_data_view Pages: 1 -->
<svg width="468pt" height="1242pt"
 viewBox="0.00 0.00 468.00 1242.00" xmlns="http://www.w3.org/2000/svg" xmlns:xlink="http://www.w3.org/1999/xlink">
<g id="graph0" class="graph" transform="scale(1 1) rotate(0) translate(4 1238)">
<title>yw_data_view</title>
<polygon fill="white" stroke="none" points="-4,4 -4,-1238 464,-1238 464,4 -4,4"/>
<text text-anchor="middle" x="230" y="-1215.6" font-family="Courier,monospace" font-size="18.00">DwCA_Taxon_Lookup</text>
<g id="clust1" class="cluster"><title>cluster_workflow</title>
<polygon fill="none" stroke="black" stroke-width="2" points="8,-62 8,-1144 452,-1144 452,-62 8,-62"/>
</g>
<g id="clust2" class="cluster"><title>cluster_workflow_inner</title>
<polygon fill="none" stroke="white" stroke-width="2" points="16,-70 16,-1136 444,-1136 444,-70 16,-70"/>
</g>
<g id="clust3" class="cluster"><title>cluster_inflows</title>
<polygon fill="none" stroke="white" stroke-width="2" points="207,-1152 207,-1198 253,-1198 253,-1152 207,-1152"/>
</g>
<g id="clust4" class="cluster"><title>cluster_inflows_inner</title>
<polygon fill="none" stroke="white" stroke-width="2" points="215,-1160 215,-1190 245,-1190 245,-1160 215,-1160"/>
</g>
<g id="clust5" class="cluster"><title>cluster_outflows</title>
<polygon fill="none" stroke="white" stroke-width="2" points="282,-8 282,-54 360,-54 360,-8 282,-8"/>
</g>
<g id="clust6" class="cluster"><title>cluster_outflows_inner</title>
<polygon fill="none" stroke="white" stroke-width="2" points="290,-16 290,-46 352,-46 352,-16 290,-16"/>
</g>
<!-- Setup -->
<g id="node1" class="node"><title>Setup</title>
<polygon fill="#ccffcc" stroke="black" points="259.25,-1054 200.75,-1054 200.75,-1018 259.25,-1018 259.25,-1054"/>
<text text-anchor="middle" x="230" y="-1032.3" font-family="Courier,monospace" font-size="14.00">Setup</text>
</g>
<!-- Workspace -->
<g id="node11" class="node"><title>Workspace</title>
<path fill="#ffffcc" stroke="black" d="M139,-910C139,-910 101,-910 101,-910 95,-910 89,-904 89,-898 89,-898 89,-886 89,-886 89,-880 95,-874 101,-874 101,-874 139,-874 139,-874 145,-874 151,-880 151,-886 151,-886 151,-898 151,-898 151,-904 145,-910 139,-910"/>
<text text-anchor="middle" x="120" y="-889.8" font-family="Helvetica,sans-Serif" font-size="9.00">Workspace</text>
</g>
<!-- Setup&#45;&gt;Workspace -->
<g id="edge12" class="edge"><title>Setup&#45;&gt;Workspace</title>
<path fill="none" stroke="black" d="M216.731,-1017.87C197.488,-993.031 161.712,-946.846 139.476,-918.142"/>
<polygon fill="black" stroke="black" points="142.207,-915.951 133.316,-910.189 136.673,-920.238 142.207,-915.951"/>
</g>
<!-- OccurrenceFile -->
<g id="node12" class="node"><title>OccurrenceFile</title>
<path fill="#ffffcc" stroke="black" d="M310,-982C310,-982 256,-982 256,-982 250,-982 244,-976 244,-970 244,-970 244,-958 244,-958 244,-952 250,-946 256,-946 256,-946 310,-946 310,-946 316,-946 322,-952 322,-958 322,-958 322,-970 322,-970 322,-976 316,-982 310,-982"/>
<text text-anchor="middle" x="283" y="-961.8" font-family="Helvetica,sans-Serif" font-size="9.00">OccurrenceFile</text>
</g>
<!-- Setup&#45;&gt;OccurrenceFile -->
<g id="edge13" class="edge"><title>Setup&#45;&gt;OccurrenceFile</title>
<path fill="none" stroke="black" d="M243.101,-1017.7C249.391,-1009.39 257.047,-999.277 263.965,-990.141"/>
<polygon fill="black" stroke="black" points="266.804,-992.19 270.05,-982.104 261.223,-987.964 266.804,-992.19"/>
</g>
<!-- FileToDataStream -->
<g id="node2" class="node"><title>FileToDataStream</title>
<polygon fill="#ccffcc" stroke="black" points="384.25,-910 233.75,-910 233.75,-874 384.25,-874 384.25,-910"/>
<text text-anchor="middle" x="309" y="-888.3" font-family="Courier,monospace" font-size="14.00">FileToDataStream</text>
</g>
<!-- DataRecord -->
<g id="node13" class="node"><title>DataRecord</title>
<path fill="#ffffcc" stroke="black" d="M336.25,-838C336.25,-838 295.75,-838 295.75,-838 289.75,-838 283.75,-832 283.75,-826 283.75,-826 283.75,-814 283.75,-814 283.75,-808 289.75,-802 295.75,-802 295.75,-802 336.25,-802 336.25,-802 342.25,-802 348.25,-808 348.25,-814 348.25,-814 348.25,-826 348.25,-826 348.25,-832 342.25,-838 336.25,-838"/>
<text text-anchor="middle" x="316" y="-817.8" font-family="Helvetica,sans-Serif" font-size="9.00">DataRecord</text>
</g>
<!-- FileToDataStream&#45;&gt;DataRecord -->
<g id="edge14" class="edge"><title>FileToDataStream&#45;&gt;DataRecord</title>
<path fill="none" stroke="black" d="M310.73,-873.697C311.502,-865.983 312.429,-856.712 313.289,-848.112"/>
<polygon fill="black" stroke="black" points="316.777,-848.403 314.29,-838.104 309.812,-847.706 316.777,-848.403"/>
</g>
<!-- EnvironmentTagger -->
<g id="node3" class="node"><title>EnvironmentTagger</title>
<polygon fill="#ccffcc" stroke="black" points="408.25,-766 249.75,-766 249.75,-730 408.25,-730 408.25,-766"/>
<text text-anchor="middle" x="329" y="-744.3" font-family="Courier,monospace" font-size="14.00">EnvironmentTagger</text>
</g>
<!-- TaggedDataRecord -->
<g id="node14" class="node"><title>TaggedDataRecord</title>
<path fill="#ffffcc" stroke="black" d="M364.25,-694C364.25,-694 293.75,-694 293.75,-694 287.75,-694 281.75,-688 281.75,-682 281.75,-682 281.75,-670 281.75,-670 281.75,-664 287.75,-658 293.75,-658 293.75,-658 364.25,-658 364.25,-658 370.25,-658 376.25,-664 376.25,-670 376.25,-670 376.25,-682 376.25,-682 376.25,-688 370.25,-694 364.25,-694"/>
<text text-anchor="middle" x="329" y="-673.8" font-family="Helvetica,sans-Serif" font-size="9.00">TaggedDataRecord</text>
</g>
<!-- EnvironmentTagger&#45;&gt;TaggedDataRecord -->
<g id="edge16" class="edge"><title>EnvironmentTagger&#45;&gt;TaggedDataRecord</title>
<path fill="none" stroke="black" d="M329,-729.697C329,-721.983 329,-712.712 329,-704.112"/>
<polygon fill="black" stroke="black" points="332.5,-704.104 329,-694.104 325.5,-704.104 332.5,-704.104"/>
</g>
<!-- LogFile -->
<g id="node20" class="node"><title>LogFile</title>
<path fill="#ffe4b5" stroke="black" d="M368.5,-369C368.5,-369 415.5,-369 415.5,-369 421.5,-369 427.5,-375 427.5,-381 427.5,-381 427.5,-393 427.5,-393 427.5,-399 421.5,-405 415.5,-405 415.5,-405 368.5,-405 368.5,-405 362.5,-405 356.5,-399 356.5,-393 356.5,-393 356.5,-381 356.5,-381 356.5,-375 362.5,-369 368.5,-369"/>
<text text-anchor="middle" x="392" y="-393.8" font-family="Courier,monospace" font-weight="bold" font-size="9.00">LogFile</text>
<polyline fill="none" stroke="black" points="356.5,-387 427.5,-387 "/>
<text text-anchor="middle" x="392" y="-375.8" font-family="Courier,monospace" font-weight="bold" font-size="9.00">runlog.log</text>
</g>
<!-- EnvironmentTagger&#45;&gt;LogFile -->
<g id="edge15" class="edge"><title>EnvironmentTagger&#45;&gt;LogFile</title>
<path fill="none" stroke="black" d="M353.585,-729.928C384.898,-705.958 435,-659.145 435,-605 435,-605 435,-605 435,-531 435,-488.794 417.609,-442.435 404.947,-414.276"/>
<polygon fill="black" stroke="black" points="408.081,-412.714 400.702,-405.111 401.729,-415.656 408.081,-412.714"/>
</g>
<!-- FilterToJustMarine -->
<g id="node4" class="node"><title>FilterToJustMarine</title>
<polygon fill="#ccffcc" stroke="black" points="238,-622 70,-622 70,-586 238,-586 238,-622"/>
<text text-anchor="middle" x="154" y="-600.3" font-family="Courier,monospace" font-size="14.00">FilterToJustMarine</text>
</g>
<!-- MarineDataRecord -->
<g id="node15" class="node"><title>MarineDataRecord</title>
<path fill="#ffffcc" stroke="black" d="M192,-550C192,-550 124,-550 124,-550 118,-550 112,-544 112,-538 112,-538 112,-526 112,-526 112,-520 118,-514 124,-514 124,-514 192,-514 192,-514 198,-514 204,-520 204,-526 204,-526 204,-538 204,-538 204,-544 198,-550 192,-550"/>
<text text-anchor="middle" x="158" y="-529.8" font-family="Helvetica,sans-Serif" font-size="9.00">MarineDataRecord</text>
</g>
<!-- FilterToJustMarine&#45;&gt;MarineDataRecord -->
<g id="edge18" class="edge"><title>FilterToJustMarine&#45;&gt;MarineDataRecord</title>
<path fill="none" stroke="black" d="M154.989,-585.697C155.43,-577.983 155.959,-568.712 156.451,-560.112"/>
<polygon fill="black" stroke="black" points="159.946,-560.288 157.023,-550.104 152.958,-559.888 159.946,-560.288"/>
</g>
<!-- FilterToJustMarine&#45;&gt;LogFile -->
<g id="edge17" class="edge"><title>FilterToJustMarine&#45;&gt;LogFile</title>
<path fill="none" stroke="black" d="M177.497,-585.838C189.315,-576.301 203.176,-563.626 213,-550 243.616,-507.538 222.577,-478.604 260,-442 260.857,-441.162 308.989,-421.574 346.882,-406.229"/>
<polygon fill="black" stroke="black" points="348.303,-409.43 356.26,-402.434 345.677,-402.941 348.303,-409.43"/>
</g>
<!-- FilterToNonMarine -->
<g id="node5" class="node"><title>FilterToNonMarine</title>
<polygon fill="#ccffcc" stroke="black" points="415.25,-622 256.75,-622 256.75,-586 415.25,-586 415.25,-622"/>
<text text-anchor="middle" x="336" y="-600.3" font-family="Courier,monospace" font-size="14.00">FilterToNonMarine</text>
</g>
<!-- notMarineDataRecord -->
<g id="node16" class="node"><title>notMarineDataRecord</title>
<path fill="#ffffcc" stroke="black" d="M360.25,-550C360.25,-550 279.75,-550 279.75,-550 273.75,-550 267.75,-544 267.75,-538 267.75,-538 267.75,-526 267.75,-526 267.75,-520 273.75,-514 279.75,-514 279.75,-514 360.25,-514 360.25,-514 366.25,-514 372.25,-520 372.25,-526 372.25,-526 372.25,-538 372.25,-538 372.25,-544 366.25,-550 360.25,-550"/>
<text text-anchor="middle" x="320" y="-529.8" font-family="Helvetica,sans-Serif" font-size="9.00">notMarineDataRecord</text>
</g>
<!-- FilterToNonMarine&#45;&gt;notMarineDataRecord -->
<g id="edge20" class="edge"><title>FilterToNonMarine&#45;&gt;notMarineDataRecord</title>
<path fill="none" stroke="black" d="M332.045,-585.697C330.282,-577.983 328.163,-568.712 326.197,-560.112"/>
<polygon fill="black" stroke="black" points="329.55,-559.073 323.91,-550.104 322.726,-560.633 329.55,-559.073"/>
</g>
<!-- FilterToNonMarine&#45;&gt;LogFile -->
<g id="edge19" class="edge"><title>FilterToNonMarine&#45;&gt;LogFile</title>
<path fill="none" stroke="black" d="M355.525,-585.852C364.978,-576.32 375.458,-563.643 381,-550 399.016,-505.652 397.971,-448.862 395.226,-415.646"/>
<polygon fill="black" stroke="black" points="398.677,-414.965 394.255,-405.338 391.708,-415.622 398.677,-414.965"/>
</g>
<!-- WoRMSLookup -->
<g id="node6" class="node"><title>WoRMSLookup</title>
<polygon fill="#ccffcc" stroke="black" points="217.25,-478 108.75,-478 108.75,-442 217.25,-442 217.25,-478"/>
<text text-anchor="middle" x="163" y="-456.3" font-family="Courier,monospace" font-size="14.00">WoRMSLookup</text>
</g>
<!-- WoRMSUpdatedRecord -->
<g id="node17" class="node"><title>WoRMSUpdatedRecord</title>
<path fill="#ffffcc" stroke="black" d="M207.25,-405C207.25,-405 118.75,-405 118.75,-405 112.75,-405 106.75,-399 106.75,-393 106.75,-393 106.75,-381 106.75,-381 106.75,-375 112.75,-369 118.75,-369 118.75,-369 207.25,-369 207.25,-369 213.25,-369 219.25,-375 219.25,-381 219.25,-381 219.25,-393 219.25,-393 219.25,-399 213.25,-405 207.25,-405"/>
<text text-anchor="middle" x="163" y="-384.8" font-family="Helvetica,sans-Serif" font-size="9.00">WoRMSUpdatedRecord</text>
</g>
<!-- WoRMSLookup&#45;&gt;WoRMSUpdatedRecord -->
<g id="edge22" class="edge"><title>WoRMSLookup&#45;&gt;WoRMSUpdatedRecord</title>
<path fill="none" stroke="black" d="M163,-441.813C163,-433.789 163,-424.047 163,-415.069"/>
<polygon fill="black" stroke="black" points="166.5,-415.029 163,-405.029 159.5,-415.029 166.5,-415.029"/>
</g>
<!-- WoRMSLookup&#45;&gt;LogFile -->
<g id="edge21" class="edge"><title>WoRMSLookup&#45;&gt;LogFile</title>
<path fill="none" stroke="black" d="M217.388,-444.87C252.022,-435.521 297.954,-422.475 346.785,-405.916"/>
<polygon fill="black" stroke="black" points="347.933,-409.222 356.26,-402.671 345.665,-402.6 347.933,-409.222"/>
</g>
<!-- GBIFLookup -->
<g id="node7" class="node"><title>GBIFLookup</title>
<polygon fill="#ccffcc" stroke="black" points="370.25,-478 269.75,-478 269.75,-442 370.25,-442 370.25,-478"/>
<text text-anchor="middle" x="320" y="-456.3" font-family="Courier,monospace" font-size="14.00">GBIFLookup</text>
</g>
<!-- GBIFUpdatedRecord -->
<g id="node18" class="node"><title>GBIFUpdatedRecord</title>
<path fill="#ffffcc" stroke="black" d="M326.25,-405C326.25,-405 249.75,-405 249.75,-405 243.75,-405 237.75,-399 237.75,-393 237.75,-393 237.75,-381 237.75,-381 237.75,-375 243.75,-369 249.75,-369 249.75,-369 326.25,-369 326.25,-369 332.25,-369 338.25,-375 338.25,-381 338.25,-381 338.25,-393 338.25,-393 338.25,-399 332.25,-405 326.25,-405"/>
<text text-anchor="middle" x="288" y="-384.8" font-family="Helvetica,sans-Serif" font-size="9.00">GBIFUpdatedRecord</text>
</g>
<!-- GBIFLookup&#45;&gt;GBIFUpdatedRecord -->
<g id="edge24" class="edge"><title>GBIFLookup&#45;&gt;GBIFUpdatedRecord</title>
<path fill="none" stroke="black" d="M312.254,-441.813C308.52,-433.528 303.96,-423.41 299.805,-414.193"/>
<polygon fill="black" stroke="black" points="302.975,-412.707 295.675,-405.029 296.593,-415.584 302.975,-412.707"/>
</g>
<!-- GBIFLookup&#45;&gt;LogFile -->
<g id="edge23" class="edge"><title>GBIFLookup&#45;&gt;LogFile</title>
<path fill="none" stroke="black" d="M337.429,-441.813C346.45,-432.917 357.613,-421.909 367.488,-412.172"/>
<polygon fill="black" stroke="black" points="370.068,-414.542 374.731,-405.029 365.153,-409.558 370.068,-414.542"/>
</g>
<!-- StreamMerge -->
<g id="node8" class="node"><title>StreamMerge</title>
<polygon fill="#ccffcc" stroke="black" points="242.25,-332 133.75,-332 133.75,-296 242.25,-296 242.25,-332"/>
<text text-anchor="middle" x="188" y="-310.3" font-family="Courier,monospace" font-size="14.00">StreamMerge</text>
</g>
<!-- MergedStream -->
<g id="node19" class="node"><title>MergedStream</title>
<path fill="#ffffcc" stroke="black" d="M214,-260C214,-260 162,-260 162,-260 156,-260 150,-254 150,-248 150,-248 150,-236 150,-236 150,-230 156,-224 162,-224 162,-224 214,-224 214,-224 220,-224 226,-230 226,-236 226,-236 226,-248 226,-248 226,-254 220,-260 214,-260"/>
<text text-anchor="middle" x="188" y="-239.8" font-family="Helvetica,sans-Serif" font-size="9.00">MergedStream</text>
</g>
<!-- StreamMerge&#45;&gt;MergedStream -->
<g id="edge25" class="edge"><title>StreamMerge&#45;&gt;MergedStream</title>
<path fill="none" stroke="black" d="M188,-295.697C188,-287.983 188,-278.712 188,-270.112"/>
<polygon fill="black" stroke="black" points="191.5,-270.104 188,-260.104 184.5,-270.104 191.5,-270.104"/>
</g>
<!-- CsvFileWriter -->
<g id="node9" class="node"><title>CsvFileWriter</title>
<polygon fill="#ccffcc" stroke="black" points="251,-188 125,-188 125,-152 251,-152 251,-188"/>
<text text-anchor="middle" x="188" y="-166.3" font-family="Courier,monospace" font-size="14.00">CsvFileWriter</text>
</g>
<!-- UpdatedOccurrenceFile -->
<g id="node21" class="node"><title>UpdatedOccurrenceFile</title>
<path fill="#ffe4b5" stroke="black" d="M36,-79C36,-79 390,-79 390,-79 396,-79 402,-85 402,-91 402,-91 402,-103 402,-103 402,-109 396,-115 390,-115 390,-115 36,-115 36,-115 30,-115 24,-109 24,-103 24,-103 24,-91 24,-91 24,-85 30,-79 36,-79"/>
<text text-anchor="middle" x="213" y="-103.8" font-family="Courier,monospace" font-weight="bold" font-size="9.00">UpdatedOccurrenceFile</text>
<polyline fill="none" stroke="black" points="24,-97 402,-97 "/>
<text text-anchor="middle" x="213" y="-85.8" font-family="Courier,monospace" font-weight="bold" font-size="9.00">workspace_6661c68f&#45;3f44&#45;11e8&#45;bd5d&#45;4a0002b0edf0/mergedoutputfile.csv</text>
</g>
<!-- CsvFileWriter&#45;&gt;UpdatedOccurrenceFile -->
<g id="edge26" class="edge"><title>CsvFileWriter&#45;&gt;UpdatedOccurrenceFile</title>
<path fill="none" stroke="black" d="M194.052,-151.813C196.938,-143.615 200.457,-133.623 203.674,-124.485"/>
<polygon fill="black" stroke="black" points="206.984,-125.624 207.004,-115.029 200.381,-123.299 206.984,-125.624"/>
</g>
<!-- DarwinCoreArchive -->
<g id="node10" class="node"><title>DarwinCoreArchive</title>
<path fill="#ffe4b5" stroke="black" d="M36.5,-1091C36.5,-1091 423.5,-1091 423.5,-1091 429.5,-1091 435.5,-1097 435.5,-1103 435.5,-1103 435.5,-1115 435.5,-1115 435.5,-1121 429.5,-1127 423.5,-1127 423.5,-1127 36.5,-1127 36.5,-1127 30.5,-1127 24.5,-1121 24.5,-1115 24.5,-1115 24.5,-1103 24.5,-1103 24.5,-1097 30.5,-1091 36.5,-1091"/>
<text text-anchor="middle" x="230" y="-1115.8" font-family="Courier,monospace" font-weight="bold" font-size="9.00">DarwinCoreArchive</text>
<polyline fill="none" stroke="black" points="24.5,-1109 435.5,-1109 "/>
<text text-anchor="middle" x="230" y="-1097.8" font-family="Courier,monospace" font-weight="bold" font-size="9.00">packages/kurator_FileBranchingTaxonLookup/data/kurator_sample_data_v2.txt</text>
</g>
<!-- DarwinCoreArchive&#45;&gt;Setup -->
<g id="edge1" class="edge"><title>DarwinCoreArchive&#45;&gt;Setup</title>
<path fill="none" stroke="black" d="M230,-1090.81C230,-1082.79 230,-1073.05 230,-1064.07"/>
<polygon fill="black" stroke="black" points="233.5,-1064.03 230,-1054.03 226.5,-1064.03 233.5,-1064.03"/>
</g>
<!-- Workspace&#45;&gt;CsvFileWriter -->
<g id="edge2" class="edge"><title>Workspace&#45;&gt;CsvFileWriter</title>
<path fill="none" stroke="black" d="M105.367,-873.93C85.1125,-848.496 51,-798.336 51,-749 51,-749 51,-749 51,-313 51,-258.541 103.833,-216.959 143.881,-193.262"/>
<polygon fill="black" stroke="black" points="145.785,-196.205 152.719,-188.195 142.303,-190.132 145.785,-196.205"/>
</g>
<!-- OccurrenceFile&#45;&gt;FileToDataStream -->
<g id="edge3" class="edge"><title>OccurrenceFile&#45;&gt;FileToDataStream</title>
<path fill="none" stroke="black" d="M289.427,-945.697C292.355,-937.813 295.887,-928.304 299.14,-919.546"/>
<polygon fill="black" stroke="black" points="302.446,-920.697 302.647,-910.104 295.884,-918.26 302.446,-920.697"/>
</g>
<!-- DataRecord&#45;&gt;EnvironmentTagger -->
<g id="edge4" class="edge"><title>DataRecord&#45;&gt;EnvironmentTagger</title>
<path fill="none" stroke="black" d="M319.213,-801.697C320.646,-793.983 322.368,-784.712 323.965,-776.112"/>
<polygon fill="black" stroke="black" points="327.439,-776.575 325.823,-766.104 320.556,-775.297 327.439,-776.575"/>
</g>
<!-- TaggedDataRecord&#45;&gt;FilterToJustMarine -->
<g id="edge5" class="edge"><title>TaggedDataRecord&#45;&gt;FilterToJustMarine</title>
<path fill="none" stroke="black" d="M286.19,-657.876C262.054,-648.222 231.716,-636.087 206.194,-625.878"/>
<polygon fill="black" stroke="black" points="207.255,-622.533 196.671,-622.068 204.656,-629.032 207.255,-622.533"/>
</g>
<!-- TaggedDataRecord&#45;&gt;FilterToNonMarine -->
<g id="edge6" class="edge"><title>TaggedDataRecord&#45;&gt;FilterToNonMarine</title>
<path fill="none" stroke="black" d="M330.73,-657.697C331.502,-649.983 332.429,-640.712 333.289,-632.112"/>
<polygon fill="black" stroke="black" points="336.777,-632.403 334.29,-622.104 329.812,-631.706 336.777,-632.403"/>
</g>
<!-- MarineDataRecord&#45;&gt;WoRMSLookup -->
<g id="edge7" class="edge"><title>MarineDataRecord&#45;&gt;WoRMSLookup</title>
<path fill="none" stroke="black" d="M159.236,-513.697C159.787,-505.983 160.449,-496.712 161.063,-488.112"/>
<polygon fill="black" stroke="black" points="164.557,-488.328 161.778,-478.104 157.575,-487.83 164.557,-488.328"/>
</g>
<!-- notMarineDataRecord&#45;&gt;GBIFLookup -->
<g id="edge8" class="edge"><title>notMarineDataRecord&#45;&gt;GBIFLookup</title>
<path fill="none" stroke="black" d="M320,-513.697C320,-505.983 320,-496.712 320,-488.112"/>
<polygon fill="black" stroke="black" points="323.5,-488.104 320,-478.104 316.5,-488.104 323.5,-488.104"/>
</g>
<!-- WoRMSUpdatedRecord&#45;&gt;StreamMerge -->
<g id="edge9" class="edge"><title>WoRMSUpdatedRecord&#45;&gt;StreamMerge</title>
<path fill="none" stroke="black" d="M169.052,-368.813C171.938,-360.615 175.457,-350.623 178.674,-341.485"/>
<polygon fill="black" stroke="black" points="181.984,-342.624 182.004,-332.029 175.381,-340.299 181.984,-342.624"/>
</g>
<!-- GBIFUpdatedRecord&#45;&gt;StreamMerge -->
<g id="edge10" class="edge"><title>GBIFUpdatedRecord&#45;&gt;StreamMerge</title>
<path fill="none" stroke="black" d="M264.048,-368.994C251.032,-359.753 234.75,-348.192 220.594,-338.142"/>
<polygon fill="black" stroke="black" points="222.284,-335.049 212.104,-332.114 218.231,-340.757 222.284,-335.049"/>
</g>
<!-- MergedStream&#45;&gt;CsvFileWriter -->
<g id="edge11" class="edge"><title>MergedStream&#45;&gt;CsvFileWriter</title>
<path fill="none" stroke="black" d="M188,-223.697C188,-215.983 188,-206.712 188,-198.112"/>
<polygon fill="black" stroke="black" points="191.5,-198.104 188,-188.104 184.5,-198.104 191.5,-198.104"/>
</g>
<!-- LogFile_outflow -->
<g id="node23" class="node"><title>LogFile_outflow</title>
<ellipse fill="none" stroke="black" cx="337" cy="-31" rx="7" ry="7"/>
</g>
<!-- LogFile&#45;&gt;LogFile_outflow -->
<g id="edge28" class="edge"><title>LogFile&#45;&gt;LogFile_outflow</title>
<path fill="none" stroke="black" d="M399.69,-368.781C410.794,-342.305 430,-289.752 430,-243 430,-243 430,-243 430,-169 430,-120.701 441.396,-99.5354 411,-62 396.965,-44.6684 371.346,-37.2725 354.245,-34.1692"/>
<polygon fill="black" stroke="black" points="354.422,-30.6567 344.014,-32.6371 353.386,-37.5795 354.422,-30.6567"/>
</g>
<!-- UpdatedOccurrenceFile_outflow -->
<g id="node24" class="node"><title>UpdatedOccurrenceFile_outflow</title>
<ellipse fill="none" stroke="black" cx="305" cy="-31" rx="7" ry="7"/>
</g>
<!-- UpdatedOccurrenceFile&#45;&gt;UpdatedOccurrenceFile_outflow -->
<g id="edge29" class="edge"><title>UpdatedOccurrenceFile&#45;&gt;UpdatedOccurrenceFile_outflow</title>
<path fill="none" stroke="black" d="M237.654,-78.8492C254.78,-66.9359 276.977,-51.4945 291.108,-41.6639"/>
<polygon fill="black" stroke="black" points="293.231,-44.4507 299.441,-35.8668 289.234,-38.7043 293.231,-44.4507"/>
</g>
<!-- DarwinCoreArchive_inflow -->
<g id="node22" class="node"><title>DarwinCoreArchive_inflow</title>
<ellipse fill="none" stroke="black" cx="230" cy="-1175" rx="7" ry="7"/>
</g>
<!-- DarwinCoreArchive_inflow&#45;&gt;DarwinCoreArchive -->
<g id="edge27" class="edge"><title>DarwinCoreArchive_inflow&#45;&gt;DarwinCoreArchive</title>
<path fill="none" stroke="black" d="M230,-1167.63C230,-1160.54 230,-1148.6 230,-1137.42"/>
<polygon fill="black" stroke="black" points="233.5,-1137.12 230,-1127.12 226.5,-1137.12 233.5,-1137.12"/>
</g>
</g>
</svg>
