<?xml version="1.0" encoding="UTF-8" standalone="no"?>
<!DOCTYPE svg PUBLIC "-//W3C//DTD SVG 1.1//EN"
 "http://www.w3.org/Graphics/SVG/1.1/DTD/svg11.dtd">
<!-- Generated by graphviz version 2.36.0 (20140111.2315)
 -->
<!-- Title: yw_data_view Pages: 1 -->
<svg width="574pt" height="1268pt"
 viewBox="0.00 0.00 574.00 1268.00" xmlns="http://www.w3.org/2000/svg" xmlns:xlink="http://www.w3.org/1999/xlink">
<g id="graph0" class="graph" transform="scale(1 1) rotate(0) translate(4 1264)">
<title>yw_data_view</title>
<polygon fill="white" stroke="none" points="-4,4 -4,-1264 570,-1264 570,4 -4,4"/>
<text text-anchor="middle" x="283" y="-1241.6" font-family="Courier,monospace" font-size="18.00">DwCA_Taxon_Lookup</text>
<g id="clust5" class="cluster"><title>cluster_outflows</title>
<polygon fill="none" stroke="white" stroke-width="2" points="330,-8 330,-54 408,-54 408,-8 330,-8"/>
</g>
<g id="clust6" class="cluster"><title>cluster_outflows_inner</title>
<polygon fill="none" stroke="white" stroke-width="2" points="338,-16 338,-46 400,-46 400,-16 338,-16"/>
</g>
<g id="clust1" class="cluster"><title>cluster_workflow</title>
<polygon fill="none" stroke="black" stroke-width="2" points="8,-62 8,-1170 558,-1170 558,-62 8,-62"/>
</g>
<g id="clust2" class="cluster"><title>cluster_workflow_inner</title>
<polygon fill="none" stroke="white" stroke-width="2" points="16,-70 16,-1162 550,-1162 550,-70 16,-70"/>
</g>
<g id="clust3" class="cluster"><title>cluster_inflows</title>
<polygon fill="none" stroke="white" stroke-width="2" points="260,-1178 260,-1224 306,-1224 306,-1178 260,-1178"/>
</g>
<g id="clust4" class="cluster"><title>cluster_inflows_inner</title>
<polygon fill="none" stroke="white" stroke-width="2" points="268,-1186 268,-1216 298,-1216 298,-1186 268,-1186"/>
</g>
<!-- FilterToJustMarine -->
<g id="node1" class="node"><title>FilterToJustMarine</title>
<polygon fill="#d6d6d7" stroke="black" points="300,-644 132,-644 132,-608 300,-608 300,-644"/>
<text text-anchor="middle" x="216" y="-622.3" font-family="Courier,monospace" font-size="14.00">FilterToJustMarine</text>
</g>
<!-- MarineDataRecord -->
<g id="node10" class="node"><title>MarineDataRecord</title>
<path fill="#d6d6d7" stroke="black" d="M121,-524.5C121,-524.5 231,-524.5 231,-524.5 237,-524.5 243,-530.5 243,-536.5 243,-536.5 243,-559.5 243,-559.5 243,-565.5 237,-571.5 231,-571.5 231,-571.5 121,-571.5 121,-571.5 115,-571.5 109,-565.5 109,-559.5 109,-559.5 109,-536.5 109,-536.5 109,-530.5 115,-524.5 121,-524.5"/>
<text text-anchor="middle" x="176" y="-556.3" font-family="Helvetica,sans-Serif" font-size="14.00">MarineDataRecord</text>
<polyline fill="none" stroke="black" points="109,-548.5 243,-548.5 "/>
</g>
<!-- FilterToJustMarine&#45;&gt;MarineDataRecord -->
<g id="edge18" class="edge"><title>FilterToJustMarine&#45;&gt;MarineDataRecord</title>
<path fill="none" stroke="black" d="M206.923,-607.754C202.705,-599.74 197.552,-589.949 192.671,-580.675"/>
<polygon fill="black" stroke="black" points="195.68,-578.877 187.925,-571.658 189.485,-582.137 195.68,-578.877"/>
</g>
<!-- LogFile -->
<g id="node20" class="node"><title>LogFile</title>
<path fill="#ffe4b5" stroke="black" d="M482.5,-374C482.5,-374 529.5,-374 529.5,-374 535.5,-374 541.5,-380 541.5,-386 541.5,-386 541.5,-398 541.5,-398 541.5,-404 535.5,-410 529.5,-410 529.5,-410 482.5,-410 482.5,-410 476.5,-410 470.5,-404 470.5,-398 470.5,-398 470.5,-386 470.5,-386 470.5,-380 476.5,-374 482.5,-374"/>
<text text-anchor="middle" x="506" y="-398.8" font-family="Courier,monospace" font-weight="bold" font-size="9.00">LogFile</text>
<polyline fill="none" stroke="black" points="470.5,-392 541.5,-392 "/>
<text text-anchor="middle" x="506" y="-380.8" font-family="Courier,monospace" font-weight="bold" font-size="9.00">runlog.log</text>
</g>
<!-- FilterToJustMarine&#45;&gt;LogFile -->
<g id="edge17" class="edge"><title>FilterToJustMarine&#45;&gt;LogFile</title>
<path fill="none" stroke="black" d="M228.921,-607.893C236.227,-597.774 245.227,-584.524 252,-572 281.055,-518.27 269.299,-487.51 319,-452 371.975,-414.15 400.075,-438.96 461,-416 462.58,-415.404 464.178,-414.768 465.78,-414.101"/>
<polygon fill="black" stroke="black" points="467.236,-417.284 474.937,-410.007 464.379,-410.894 467.236,-417.284"/>
</g>
<!-- WoRMSLookup -->
<g id="node2" class="node"><title>WoRMSLookup</title>
<polygon fill="#d6d6d7" stroke="black" points="230.25,-488 121.75,-488 121.75,-452 230.25,-452 230.25,-488"/>
<text text-anchor="middle" x="176" y="-466.3" font-family="Courier,monospace" font-size="14.00">WoRMSLookup</text>
</g>
<!-- WoRMSUpdatedRecord -->
<g id="node11" class="node"><title>WoRMSUpdatedRecord</title>
<path fill="#d6d6d7" stroke="black" d="M56.5,-368.5C56.5,-368.5 199.5,-368.5 199.5,-368.5 205.5,-368.5 211.5,-374.5 211.5,-380.5 211.5,-380.5 211.5,-403.5 211.5,-403.5 211.5,-409.5 205.5,-415.5 199.5,-415.5 199.5,-415.5 56.5,-415.5 56.5,-415.5 50.5,-415.5 44.5,-409.5 44.5,-403.5 44.5,-403.5 44.5,-380.5 44.5,-380.5 44.5,-374.5 50.5,-368.5 56.5,-368.5"/>
<text text-anchor="middle" x="128" y="-400.3" font-family="Helvetica,sans-Serif" font-size="14.00">WoRMSUpdatedRecord</text>
<polyline fill="none" stroke="black" points="44.5,-392.5 211.5,-392.5 "/>
</g>
<!-- WoRMSLookup&#45;&gt;WoRMSUpdatedRecord -->
<g id="edge22" class="edge"><title>WoRMSLookup&#45;&gt;WoRMSUpdatedRecord</title>
<path fill="none" stroke="black" d="M165.108,-451.754C159.994,-443.656 153.733,-433.744 147.822,-424.385"/>
<polygon fill="black" stroke="black" points="150.609,-422.244 142.31,-415.658 144.691,-425.982 150.609,-422.244"/>
</g>
<!-- WoRMSLookup&#45;&gt;LogFile -->
<g id="edge21" class="edge"><title>WoRMSLookup&#45;&gt;LogFile</title>
<path fill="none" stroke="black" d="M230.415,-457.329C239.29,-455.497 248.394,-453.662 257,-452 347.397,-434.542 373.711,-445.274 461,-416 462.658,-415.444 464.332,-414.835 466.007,-414.184"/>
<polygon fill="black" stroke="black" points="467.734,-417.252 475.541,-410.089 464.972,-410.82 467.734,-417.252"/>
</g>
<!-- Setup -->
<g id="node3" class="node"><title>Setup</title>
<polygon fill="#ccffcc" stroke="black" points="312.25,-1080 253.75,-1080 253.75,-1044 312.25,-1044 312.25,-1080"/>
<text text-anchor="middle" x="283" y="-1058.3" font-family="Courier,monospace" font-size="14.00">Setup</text>
</g>
<!-- Workspace -->
<g id="node17" class="node"><title>Workspace</title>
<path fill="#ffffcc" stroke="black" d="M158,-936C158,-936 120,-936 120,-936 114,-936 108,-930 108,-924 108,-924 108,-912 108,-912 108,-906 114,-900 120,-900 120,-900 158,-900 158,-900 164,-900 170,-906 170,-912 170,-912 170,-924 170,-924 170,-930 164,-936 158,-936"/>
<text text-anchor="middle" x="139" y="-915.8" font-family="Helvetica,sans-Serif" font-size="9.00">Workspace</text>
</g>
<!-- Setup&#45;&gt;Workspace -->
<g id="edge12" class="edge"><title>Setup&#45;&gt;Workspace</title>
<path fill="none" stroke="black" d="M265.63,-1043.87C240.223,-1018.82 192.799,-972.052 163.75,-943.406"/>
<polygon fill="black" stroke="black" points="166.009,-940.719 156.431,-936.189 161.094,-945.703 166.009,-940.719"/>
</g>
<!-- OccurrenceFile -->
<g id="node18" class="node"><title>OccurrenceFile</title>
<path fill="#ffffcc" stroke="black" d="M353,-1008C353,-1008 299,-1008 299,-1008 293,-1008 287,-1002 287,-996 287,-996 287,-984 287,-984 287,-978 293,-972 299,-972 299,-972 353,-972 353,-972 359,-972 365,-978 365,-984 365,-984 365,-996 365,-996 365,-1002 359,-1008 353,-1008"/>
<text text-anchor="middle" x="326" y="-987.8" font-family="Helvetica,sans-Serif" font-size="9.00">OccurrenceFile</text>
</g>
<!-- Setup&#45;&gt;OccurrenceFile -->
<g id="edge13" class="edge"><title>Setup&#45;&gt;OccurrenceFile</title>
<path fill="none" stroke="black" d="M293.629,-1043.7C298.628,-1035.56 304.691,-1025.69 310.212,-1016.7"/>
<polygon fill="black" stroke="black" points="313.241,-1018.46 315.493,-1008.1 307.277,-1014.79 313.241,-1018.46"/>
</g>
<!-- FileToDataStream -->
<g id="node4" class="node"><title>FileToDataStream</title>
<polygon fill="#ccffcc" stroke="black" points="422.25,-936 271.75,-936 271.75,-900 422.25,-900 422.25,-936"/>
<text text-anchor="middle" x="347" y="-914.3" font-family="Courier,monospace" font-size="14.00">FileToDataStream</text>
</g>
<!-- DataRecord -->
<g id="node12" class="node"><title>DataRecord</title>
<path fill="#f8d2db" stroke="black" d="M315,-827C315,-827 389,-827 389,-827 395,-827 401,-833 401,-839 401,-839 401,-851 401,-851 401,-857 395,-863 389,-863 389,-863 315,-863 315,-863 309,-863 303,-857 303,-851 303,-851 303,-839 303,-839 303,-833 309,-827 315,-827"/>
<text text-anchor="middle" x="352" y="-851.8" font-family="Courier,monospace" font-weight="bold" font-size="9.00">DataRecord</text>
<polyline fill="none" stroke="black" points="303,-845 401,-845 "/>
<text text-anchor="middle" x="352" y="-833.8" font-family="Courier,monospace" font-weight="bold" font-size="9.00">MCZ:Mala:278687</text>
</g>
<!-- FileToDataStream&#45;&gt;DataRecord -->
<g id="edge14" class="edge"><title>FileToDataStream&#45;&gt;DataRecord</title>
<path fill="none" stroke="black" d="M348.21,-899.813C348.775,-891.789 349.461,-882.047 350.094,-873.069"/>
<polygon fill="black" stroke="black" points="353.59,-873.25 350.801,-863.029 346.607,-872.758 353.59,-873.25"/>
</g>
<!-- EnvironmentTagger -->
<g id="node5" class="node"><title>EnvironmentTagger</title>
<polygon fill="#ccffcc" stroke="black" points="442.25,-790 283.75,-790 283.75,-754 442.25,-754 442.25,-790"/>
<text text-anchor="middle" x="363" y="-768.3" font-family="Courier,monospace" font-size="14.00">EnvironmentTagger</text>
</g>
<!-- TaggedDataRecord -->
<g id="node13" class="node"><title>TaggedDataRecord</title>
<path fill="#f8d2db" stroke="black" d="M323.5,-681C323.5,-681 402.5,-681 402.5,-681 408.5,-681 414.5,-687 414.5,-693 414.5,-693 414.5,-705 414.5,-705 414.5,-711 408.5,-717 402.5,-717 402.5,-717 323.5,-717 323.5,-717 317.5,-717 311.5,-711 311.5,-705 311.5,-705 311.5,-693 311.5,-693 311.5,-687 317.5,-681 323.5,-681"/>
<text text-anchor="middle" x="363" y="-705.8" font-family="Courier,monospace" font-weight="bold" font-size="9.00">TaggedDataRecord</text>
<polyline fill="none" stroke="black" points="311.5,-699 414.5,-699 "/>
<text text-anchor="middle" x="363" y="-687.8" font-family="Courier,monospace" font-weight="bold" font-size="9.00">NonMarine</text>
</g>
<!-- EnvironmentTagger&#45;&gt;TaggedDataRecord -->
<g id="edge16" class="edge"><title>EnvironmentTagger&#45;&gt;TaggedDataRecord</title>
<path fill="none" stroke="black" d="M363,-753.813C363,-745.789 363,-736.047 363,-727.069"/>
<polygon fill="black" stroke="black" points="366.5,-727.029 363,-717.029 359.5,-727.029 366.5,-727.029"/>
</g>
<!-- EnvironmentTagger&#45;&gt;LogFile -->
<g id="edge15" class="edge"><title>EnvironmentTagger&#45;&gt;LogFile</title>
<path fill="none" stroke="black" d="M403.6,-753.966C448.927,-731.91 516,-688.828 516,-627 516,-627 516,-627 516,-547 516,-502.617 511.813,-451.189 508.857,-420.419"/>
<polygon fill="black" stroke="black" points="512.301,-419.675 507.834,-410.068 505.335,-420.364 512.301,-419.675"/>
</g>
<!-- FilterToNonMarine -->
<g id="node6" class="node"><title>FilterToNonMarine</title>
<polygon fill="#ccffcc" stroke="black" points="477.25,-644 318.75,-644 318.75,-608 477.25,-608 477.25,-644"/>
<text text-anchor="middle" x="398" y="-622.3" font-family="Courier,monospace" font-size="14.00">FilterToNonMarine</text>
</g>
<!-- notMarineDataRecord -->
<g id="node14" class="node"><title>notMarineDataRecord</title>
<path fill="#f8d2db" stroke="black" d="M293.5,-530C293.5,-530 464.5,-530 464.5,-530 470.5,-530 476.5,-536 476.5,-542 476.5,-542 476.5,-554 476.5,-554 476.5,-560 470.5,-566 464.5,-566 464.5,-566 293.5,-566 293.5,-566 287.5,-566 281.5,-560 281.5,-554 281.5,-554 281.5,-542 281.5,-542 281.5,-536 287.5,-530 293.5,-530"/>
<text text-anchor="middle" x="379" y="-554.8" font-family="Courier,monospace" font-weight="bold" font-size="9.00">notMarineDataRecord</text>
<polyline fill="none" stroke="black" points="281.5,-548 476.5,-548 "/>
<text text-anchor="middle" x="379" y="-536.8" font-family="Courier,monospace" font-weight="bold" font-size="9.00">Leptochiton medinae:(Plate, 1899)</text>
</g>
<!-- FilterToNonMarine&#45;&gt;notMarineDataRecord -->
<g id="edge20" class="edge"><title>FilterToNonMarine&#45;&gt;notMarineDataRecord</title>
<path fill="none" stroke="black" d="M393.689,-607.754C391.357,-598.426 388.423,-586.691 385.791,-576.165"/>
<polygon fill="black" stroke="black" points="389.115,-575.03 383.294,-566.177 382.324,-576.728 389.115,-575.03"/>
</g>
<!-- FilterToNonMarine&#45;&gt;LogFile -->
<g id="edge19" class="edge"><title>FilterToNonMarine&#45;&gt;LogFile</title>
<path fill="none" stroke="black" d="M442.181,-607.989C458.225,-599.58 474.88,-587.781 485,-572 500.688,-547.537 504.666,-464.328 505.668,-420.508"/>
<polygon fill="black" stroke="black" points="509.172,-420.341 505.864,-410.276 502.173,-420.207 509.172,-420.341"/>
</g>
<!-- GBIFLookup -->
<g id="node7" class="node"><title>GBIFLookup</title>
<polygon fill="#ccffcc" stroke="black" points="429.25,-488 328.75,-488 328.75,-452 429.25,-452 429.25,-488"/>
<text text-anchor="middle" x="379" y="-466.3" font-family="Courier,monospace" font-size="14.00">GBIFLookup</text>
</g>
<!-- GBIFUpdatedRecord -->
<g id="node15" class="node"><title>GBIFUpdatedRecord</title>
<path fill="#f8d2db" stroke="black" d="M242,-374C242,-374 440,-374 440,-374 446,-374 452,-380 452,-386 452,-386 452,-398 452,-398 452,-404 446,-410 440,-410 440,-410 242,-410 242,-410 236,-410 230,-404 230,-398 230,-398 230,-386 230,-386 230,-380 236,-374 242,-374"/>
<text text-anchor="middle" x="341" y="-398.8" font-family="Courier,monospace" font-weight="bold" font-size="9.00">GBIFUpdatedRecord</text>
<polyline fill="none" stroke="black" points="230,-392 452,-392 "/>
<text text-anchor="middle" x="341" y="-380.8" font-family="Courier,monospace" font-weight="bold" font-size="9.00">http://api.gbif.org/v1/species/5193794</text>
</g>
<!-- GBIFLookup&#45;&gt;GBIFUpdatedRecord -->
<g id="edge24" class="edge"><title>GBIFLookup&#45;&gt;GBIFUpdatedRecord</title>
<path fill="none" stroke="black" d="M370.377,-451.754C365.567,-442.135 359.477,-429.955 354.091,-419.182"/>
<polygon fill="black" stroke="black" points="357.191,-417.556 349.589,-410.177 350.93,-420.687 357.191,-417.556"/>
</g>
<!-- GBIFLookup&#45;&gt;LogFile -->
<g id="edge23" class="edge"><title>GBIFLookup&#45;&gt;LogFile</title>
<path fill="none" stroke="black" d="M407.501,-451.944C425.512,-441.166 448.987,-427.118 468.501,-415.44"/>
<polygon fill="black" stroke="black" points="470.371,-418.4 477.154,-410.262 466.776,-412.394 470.371,-418.4"/>
</g>
<!-- StreamMerge -->
<g id="node8" class="node"><title>StreamMerge</title>
<polygon fill="#ccffcc" stroke="black" points="263.25,-332 154.75,-332 154.75,-296 263.25,-296 263.25,-332"/>
<text text-anchor="middle" x="209" y="-310.3" font-family="Courier,monospace" font-size="14.00">StreamMerge</text>
</g>
<!-- MergedStream -->
<g id="node19" class="node"><title>MergedStream</title>
<path fill="#ffffcc" stroke="black" d="M235,-260C235,-260 183,-260 183,-260 177,-260 171,-254 171,-248 171,-248 171,-236 171,-236 171,-230 177,-224 183,-224 183,-224 235,-224 235,-224 241,-224 247,-230 247,-236 247,-236 247,-248 247,-248 247,-254 241,-260 235,-260"/>
<text text-anchor="middle" x="209" y="-239.8" font-family="Helvetica,sans-Serif" font-size="9.00">MergedStream</text>
</g>
<!-- StreamMerge&#45;&gt;MergedStream -->
<g id="edge25" class="edge"><title>StreamMerge&#45;&gt;MergedStream</title>
<path fill="none" stroke="black" d="M209,-295.697C209,-287.983 209,-278.712 209,-270.112"/>
<polygon fill="black" stroke="black" points="212.5,-270.104 209,-260.104 205.5,-270.104 212.5,-270.104"/>
</g>
<!-- CsvFileWriter -->
<g id="node9" class="node"><title>CsvFileWriter</title>
<polygon fill="#ccffcc" stroke="black" points="272,-188 146,-188 146,-152 272,-152 272,-188"/>
<text text-anchor="middle" x="209" y="-166.3" font-family="Courier,monospace" font-size="14.00">CsvFileWriter</text>
</g>
<!-- UpdatedOccurrenceFile -->
<g id="node21" class="node"><title>UpdatedOccurrenceFile</title>
<path fill="#ffe4b5" stroke="black" d="M74,-79C74,-79 428,-79 428,-79 434,-79 440,-85 440,-91 440,-91 440,-103 440,-103 440,-109 434,-115 428,-115 428,-115 74,-115 74,-115 68,-115 62,-109 62,-103 62,-103 62,-91 62,-91 62,-85 68,-79 74,-79"/>
<text text-anchor="middle" x="251" y="-103.8" font-family="Courier,monospace" font-weight="bold" font-size="9.00">UpdatedOccurrenceFile</text>
<polyline fill="none" stroke="black" points="62,-97 440,-97 "/>
<text text-anchor="middle" x="251" y="-85.8" font-family="Courier,monospace" font-weight="bold" font-size="9.00">workspace_6b2122c0&#45;a83b&#45;11e7&#45;aad3&#45;acbc3296f741/mergedoutputfile.csv</text>
</g>
<!-- CsvFileWriter&#45;&gt;UpdatedOccurrenceFile -->
<g id="edge26" class="edge"><title>CsvFileWriter&#45;&gt;UpdatedOccurrenceFile</title>
<path fill="none" stroke="black" d="M219.167,-151.813C224.12,-143.441 230.179,-133.197 235.677,-123.903"/>
<polygon fill="black" stroke="black" points="238.848,-125.418 240.927,-115.029 232.823,-121.854 238.848,-125.418"/>
</g>
<!-- MarineDataRecord&#45;&gt;WoRMSLookup -->
<g id="edge7" class="edge"><title>MarineDataRecord&#45;&gt;WoRMSLookup</title>
<path fill="none" stroke="black" d="M176,-524.197C176,-516.081 176,-506.858 176,-498.397"/>
<polygon fill="black" stroke="black" points="179.5,-498.228 176,-488.228 172.5,-498.228 179.5,-498.228"/>
</g>
<!-- WoRMSUpdatedRecord&#45;&gt;StreamMerge -->
<g id="edge9" class="edge"><title>WoRMSUpdatedRecord&#45;&gt;StreamMerge</title>
<path fill="none" stroke="black" d="M152.303,-368.197C162.01,-359.089 173.204,-348.587 183.067,-339.332"/>
<polygon fill="black" stroke="black" points="185.741,-341.623 190.639,-332.228 180.951,-336.518 185.741,-341.623"/>
</g>
<!-- DataRecord&#45;&gt;EnvironmentTagger -->
<g id="edge4" class="edge"><title>DataRecord&#45;&gt;EnvironmentTagger</title>
<path fill="none" stroke="black" d="M354.663,-826.813C355.906,-818.789 357.415,-809.047 358.806,-800.069"/>
<polygon fill="black" stroke="black" points="362.289,-800.447 360.362,-790.029 355.372,-799.375 362.289,-800.447"/>
</g>
<!-- TaggedDataRecord&#45;&gt;FilterToJustMarine -->
<g id="edge5" class="edge"><title>TaggedDataRecord&#45;&gt;FilterToJustMarine</title>
<path fill="none" stroke="black" d="M327.79,-680.994C307.665,-671.273 282.226,-658.987 260.701,-648.59"/>
<polygon fill="black" stroke="black" points="261.959,-645.311 251.432,-644.114 258.915,-651.614 261.959,-645.311"/>
</g>
<!-- TaggedDataRecord&#45;&gt;FilterToNonMarine -->
<g id="edge6" class="edge"><title>TaggedDataRecord&#45;&gt;FilterToNonMarine</title>
<path fill="none" stroke="black" d="M371.473,-680.813C375.557,-672.528 380.544,-662.41 385.088,-653.193"/>
<polygon fill="black" stroke="black" points="388.323,-654.546 389.605,-644.029 382.045,-651.451 388.323,-654.546"/>
</g>
<!-- notMarineDataRecord&#45;&gt;GBIFLookup -->
<g id="edge8" class="edge"><title>notMarineDataRecord&#45;&gt;GBIFLookup</title>
<path fill="none" stroke="black" d="M379,-529.754C379,-520.523 379,-508.935 379,-498.495"/>
<polygon fill="black" stroke="black" points="382.5,-498.177 379,-488.177 375.5,-498.177 382.5,-498.177"/>
</g>
<!-- GBIFUpdatedRecord&#45;&gt;StreamMerge -->
<g id="edge10" class="edge"><title>GBIFUpdatedRecord&#45;&gt;StreamMerge</title>
<path fill="none" stroke="black" d="M311.377,-373.944C292.572,-363.117 268.038,-348.992 247.702,-337.283"/>
<polygon fill="black" stroke="black" points="249.394,-334.218 238.981,-332.262 245.901,-340.285 249.394,-334.218"/>
</g>
<!-- DarwinCoreArchive -->
<g id="node16" class="node"><title>DarwinCoreArchive</title>
<path fill="#ffe4b5" stroke="black" d="M108.5,-1117C108.5,-1117 457.5,-1117 457.5,-1117 463.5,-1117 469.5,-1123 469.5,-1129 469.5,-1129 469.5,-1141 469.5,-1141 469.5,-1147 463.5,-1153 457.5,-1153 457.5,-1153 108.5,-1153 108.5,-1153 102.5,-1153 96.5,-1147 96.5,-1141 96.5,-1141 96.5,-1129 96.5,-1129 96.5,-1123 102.5,-1117 108.5,-1117"/>
<text text-anchor="middle" x="283" y="-1141.8" font-family="Courier,monospace" font-weight="bold" font-size="9.00">DarwinCoreArchive</text>
<polyline fill="none" stroke="black" points="96.5,-1135 469.5,-1135 "/>
<text text-anchor="middle" x="283" y="-1123.8" font-family="Courier,monospace" font-weight="bold" font-size="9.00">packages/kurator_branching_generic/data/kurator_sample_data_v2.txt</text>
</g>
<!-- DarwinCoreArchive&#45;&gt;Setup -->
<g id="edge1" class="edge"><title>DarwinCoreArchive&#45;&gt;Setup</title>
<path fill="none" stroke="black" d="M283,-1116.81C283,-1108.79 283,-1099.05 283,-1090.07"/>
<polygon fill="black" stroke="black" points="286.5,-1090.03 283,-1080.03 279.5,-1090.03 286.5,-1090.03"/>
</g>
<!-- Workspace&#45;&gt;CsvFileWriter -->
<g id="edge2" class="edge"><title>Workspace&#45;&gt;CsvFileWriter</title>
<path fill="none" stroke="black" d="M112.272,-899.838C78.5771,-875.87 25,-828.96 25,-773 25,-773 25,-773 25,-313 25,-251.429 90.3704,-212.808 143.183,-191.652"/>
<polygon fill="black" stroke="black" points="144.481,-194.903 152.543,-188.03 141.954,-188.375 144.481,-194.903"/>
</g>
<!-- OccurrenceFile&#45;&gt;FileToDataStream -->
<g id="edge3" class="edge"><title>OccurrenceFile&#45;&gt;FileToDataStream</title>
<path fill="none" stroke="black" d="M331.191,-971.697C333.531,-963.898 336.347,-954.509 338.951,-945.829"/>
<polygon fill="black" stroke="black" points="342.348,-946.688 341.869,-936.104 335.643,-944.677 342.348,-946.688"/>
</g>
<!-- MergedStream&#45;&gt;CsvFileWriter -->
<g id="edge11" class="edge"><title>MergedStream&#45;&gt;CsvFileWriter</title>
<path fill="none" stroke="black" d="M209,-223.697C209,-215.983 209,-206.712 209,-198.112"/>
<polygon fill="black" stroke="black" points="212.5,-198.104 209,-188.104 205.5,-198.104 212.5,-198.104"/>
</g>
<!-- LogFile_outflow -->
<g id="node23" class="node"><title>LogFile_outflow</title>
<ellipse fill="none" stroke="black" cx="385" cy="-31" rx="7" ry="7"/>
</g>
<!-- LogFile&#45;&gt;LogFile_outflow -->
<g id="edge28" class="edge"><title>LogFile&#45;&gt;LogFile_outflow</title>
<path fill="none" stroke="black" d="M502.337,-373.775C496.815,-346.269 487,-290.666 487,-243 487,-243 487,-243 487,-169 487,-118.535 482.911,-99.3741 449,-62 436.377,-48.0884 415.967,-40.0872 401.595,-35.9023"/>
<polygon fill="black" stroke="black" points="402.186,-32.4401 391.629,-33.3243 400.433,-39.217 402.186,-32.4401"/>
</g>
<!-- UpdatedOccurrenceFile_outflow -->
<g id="node24" class="node"><title>UpdatedOccurrenceFile_outflow</title>
<ellipse fill="none" stroke="black" cx="353" cy="-31" rx="7" ry="7"/>
</g>
<!-- UpdatedOccurrenceFile&#45;&gt;UpdatedOccurrenceFile_outflow -->
<g id="edge29" class="edge"><title>UpdatedOccurrenceFile&#45;&gt;UpdatedOccurrenceFile_outflow</title>
<path fill="none" stroke="black" d="M278.334,-78.8492C297.697,-66.6999 322.908,-50.8812 338.519,-41.0862"/>
<polygon fill="black" stroke="black" points="340.623,-43.8982 347.233,-35.6185 336.902,-37.9687 340.623,-43.8982"/>
</g>
<!-- DarwinCoreArchive_inflow -->
<g id="node22" class="node"><title>DarwinCoreArchive_inflow</title>
<ellipse fill="none" stroke="black" cx="283" cy="-1201" rx="7" ry="7"/>
</g>
<!-- DarwinCoreArchive_inflow&#45;&gt;DarwinCoreArchive -->
<g id="edge27" class="edge"><title>DarwinCoreArchive_inflow&#45;&gt;DarwinCoreArchive</title>
<path fill="none" stroke="black" d="M283,-1193.63C283,-1186.54 283,-1174.6 283,-1163.42"/>
<polygon fill="black" stroke="black" points="286.5,-1163.12 283,-1153.12 279.5,-1163.12 286.5,-1163.12"/>
</g>
</g>
</svg>
