<?xml version="1.0" encoding="UTF-8" standalone="no"?>
<!DOCTYPE svg PUBLIC "-//W3C//DTD SVG 1.1//EN"
 "http://www.w3.org/Graphics/SVG/1.1/DTD/svg11.dtd">
<!-- Generated by graphviz version 2.36.0 (20140111.2315)
 -->
<!-- Title: yw_data_view Pages: 1 -->
<svg width="492pt" height="1268pt"
 viewBox="0.00 0.00 492.00 1268.00" xmlns="http://www.w3.org/2000/svg" xmlns:xlink="http://www.w3.org/1999/xlink">
<g id="graph0" class="graph" transform="scale(1 1) rotate(0) translate(4 1264)">
<title>yw_data_view</title>
<polygon fill="white" stroke="none" points="-4,4 -4,-1264 488,-1264 488,4 -4,4"/>
<text text-anchor="middle" x="242" y="-1241.6" font-family="Courier,monospace" font-size="18.00">DwCA_Taxon_Lookup</text>
<g id="clust5" class="cluster"><title>cluster_outflows</title>
<polygon fill="none" stroke="white" stroke-width="2" points="282,-8 282,-54 360,-54 360,-8 282,-8"/>
</g>
<g id="clust6" class="cluster"><title>cluster_outflows_inner</title>
<polygon fill="none" stroke="white" stroke-width="2" points="290,-16 290,-46 352,-46 352,-16 290,-16"/>
</g>
<g id="clust3" class="cluster"><title>cluster_inflows</title>
<polygon fill="none" stroke="white" stroke-width="2" points="219,-1178 219,-1224 265,-1224 265,-1178 219,-1178"/>
</g>
<g id="clust4" class="cluster"><title>cluster_inflows_inner</title>
<polygon fill="none" stroke="white" stroke-width="2" points="227,-1186 227,-1216 257,-1216 257,-1186 227,-1186"/>
</g>
<g id="clust1" class="cluster"><title>cluster_workflow</title>
<polygon fill="none" stroke="black" stroke-width="2" points="8,-62 8,-1170 476,-1170 476,-62 8,-62"/>
</g>
<g id="clust2" class="cluster"><title>cluster_workflow_inner</title>
<polygon fill="none" stroke="white" stroke-width="2" points="16,-70 16,-1162 468,-1162 468,-70 16,-70"/>
</g>
<!-- FilterToNonMarine -->
<g id="node1" class="node"><title>FilterToNonMarine</title>
<polygon fill="#d6d6d7" stroke="black" points="239.25,-644 80.75,-644 80.75,-608 239.25,-608 239.25,-644"/>
<text text-anchor="middle" x="160" y="-622.3" font-family="Courier,monospace" font-size="14.00">FilterToNonMarine</text>
</g>
<!-- notMarineDataRecord -->
<g id="node10" class="node"><title>notMarineDataRecord</title>
<path fill="#d6d6d7" stroke="black" d="M56.5,-524.5C56.5,-524.5 185.5,-524.5 185.5,-524.5 191.5,-524.5 197.5,-530.5 197.5,-536.5 197.5,-536.5 197.5,-559.5 197.5,-559.5 197.5,-565.5 191.5,-571.5 185.5,-571.5 185.5,-571.5 56.5,-571.5 56.5,-571.5 50.5,-571.5 44.5,-565.5 44.5,-559.5 44.5,-559.5 44.5,-536.5 44.5,-536.5 44.5,-530.5 50.5,-524.5 56.5,-524.5"/>
<text text-anchor="middle" x="121" y="-556.3" font-family="Helvetica,sans-Serif" font-size="14.00">notMarineDataRecord</text>
<polyline fill="none" stroke="black" points="44.5,-548.5 197.5,-548.5 "/>
</g>
<!-- FilterToNonMarine&#45;&gt;notMarineDataRecord -->
<g id="edge20" class="edge"><title>FilterToNonMarine&#45;&gt;notMarineDataRecord</title>
<path fill="none" stroke="black" d="M151.15,-607.754C147.038,-599.74 142.013,-589.949 137.254,-580.675"/>
<polygon fill="black" stroke="black" points="140.307,-578.957 132.627,-571.658 134.079,-582.153 140.307,-578.957"/>
</g>
<!-- LogFile -->
<g id="node20" class="node"><title>LogFile</title>
<path fill="#ffe4b5" stroke="black" d="M392.5,-374C392.5,-374 439.5,-374 439.5,-374 445.5,-374 451.5,-380 451.5,-386 451.5,-386 451.5,-398 451.5,-398 451.5,-404 445.5,-410 439.5,-410 439.5,-410 392.5,-410 392.5,-410 386.5,-410 380.5,-404 380.5,-398 380.5,-398 380.5,-386 380.5,-386 380.5,-380 386.5,-374 392.5,-374"/>
<text text-anchor="middle" x="416" y="-398.8" font-family="Courier,monospace" font-weight="bold" font-size="9.00">LogFile</text>
<polyline fill="none" stroke="black" points="380.5,-392 451.5,-392 "/>
<text text-anchor="middle" x="416" y="-380.8" font-family="Courier,monospace" font-weight="bold" font-size="9.00">runlog.log</text>
</g>
<!-- FilterToNonMarine&#45;&gt;LogFile -->
<g id="edge19" class="edge"><title>FilterToNonMarine&#45;&gt;LogFile</title>
<path fill="none" stroke="black" d="M177.194,-607.918C186.527,-598.019 197.799,-584.977 206,-572 237.646,-521.926 219.201,-490.756 264,-452 301.309,-419.723 323.422,-434.879 369,-416 370.364,-415.435 371.744,-414.849 373.133,-414.247"/>
<polygon fill="black" stroke="black" points="374.666,-417.395 382.344,-410.095 371.789,-411.014 374.666,-417.395"/>
</g>
<!-- GBIFLookup -->
<g id="node2" class="node"><title>GBIFLookup</title>
<polygon fill="#d6d6d7" stroke="black" points="197.25,-488 96.75,-488 96.75,-452 197.25,-452 197.25,-488"/>
<text text-anchor="middle" x="147" y="-466.3" font-family="Courier,monospace" font-size="14.00">GBIFLookup</text>
</g>
<!-- GBIFUpdatedRecord -->
<g id="node11" class="node"><title>GBIFUpdatedRecord</title>
<path fill="#d6d6d7" stroke="black" d="M88.5,-368.5C88.5,-368.5 211.5,-368.5 211.5,-368.5 217.5,-368.5 223.5,-374.5 223.5,-380.5 223.5,-380.5 223.5,-403.5 223.5,-403.5 223.5,-409.5 217.5,-415.5 211.5,-415.5 211.5,-415.5 88.5,-415.5 88.5,-415.5 82.5,-415.5 76.5,-409.5 76.5,-403.5 76.5,-403.5 76.5,-380.5 76.5,-380.5 76.5,-374.5 82.5,-368.5 88.5,-368.5"/>
<text text-anchor="middle" x="150" y="-400.3" font-family="Helvetica,sans-Serif" font-size="14.00">GBIFUpdatedRecord</text>
<polyline fill="none" stroke="black" points="76.5,-392.5 223.5,-392.5 "/>
</g>
<!-- GBIFLookup&#45;&gt;GBIFUpdatedRecord -->
<g id="edge24" class="edge"><title>GBIFLookup&#45;&gt;GBIFUpdatedRecord</title>
<path fill="none" stroke="black" d="M147.681,-451.754C147.984,-444.074 148.352,-434.761 148.704,-425.836"/>
<polygon fill="black" stroke="black" points="152.208,-425.788 149.106,-415.658 145.214,-425.512 152.208,-425.788"/>
</g>
<!-- GBIFLookup&#45;&gt;LogFile -->
<g id="edge23" class="edge"><title>GBIFLookup&#45;&gt;LogFile</title>
<path fill="none" stroke="black" d="M197.351,-455.67C202.296,-454.409 207.242,-453.167 212,-452 281.526,-434.941 301.515,-439.891 369,-416 370.648,-415.416 372.315,-414.791 373.987,-414.132"/>
<polygon fill="black" stroke="black" points="375.709,-417.203 383.544,-410.071 372.972,-410.761 375.709,-417.203"/>
</g>
<!-- Setup -->
<g id="node3" class="node"><title>Setup</title>
<polygon fill="#ccffcc" stroke="black" points="271.25,-1080 212.75,-1080 212.75,-1044 271.25,-1044 271.25,-1080"/>
<text text-anchor="middle" x="242" y="-1058.3" font-family="Courier,monospace" font-size="14.00">Setup</text>
</g>
<!-- Workspace -->
<g id="node17" class="node"><title>Workspace</title>
<path fill="#ffffcc" stroke="black" d="M137,-936C137,-936 99,-936 99,-936 93,-936 87,-930 87,-924 87,-924 87,-912 87,-912 87,-906 93,-900 99,-900 99,-900 137,-900 137,-900 143,-900 149,-906 149,-912 149,-912 149,-924 149,-924 149,-930 143,-936 137,-936"/>
<text text-anchor="middle" x="118" y="-915.8" font-family="Helvetica,sans-Serif" font-size="9.00">Workspace</text>
</g>
<!-- Setup&#45;&gt;Workspace -->
<g id="edge12" class="edge"><title>Setup&#45;&gt;Workspace</title>
<path fill="none" stroke="black" d="M227.043,-1043.87C205.258,-1018.92 164.674,-972.45 139.633,-943.773"/>
<polygon fill="black" stroke="black" points="142.224,-941.419 133.01,-936.189 136.952,-946.024 142.224,-941.419"/>
</g>
<!-- OccurrenceFile -->
<g id="node18" class="node"><title>OccurrenceFile</title>
<path fill="#ffffcc" stroke="black" d="M312,-1008C312,-1008 258,-1008 258,-1008 252,-1008 246,-1002 246,-996 246,-996 246,-984 246,-984 246,-978 252,-972 258,-972 258,-972 312,-972 312,-972 318,-972 324,-978 324,-984 324,-984 324,-996 324,-996 324,-1002 318,-1008 312,-1008"/>
<text text-anchor="middle" x="285" y="-987.8" font-family="Helvetica,sans-Serif" font-size="9.00">OccurrenceFile</text>
</g>
<!-- Setup&#45;&gt;OccurrenceFile -->
<g id="edge13" class="edge"><title>Setup&#45;&gt;OccurrenceFile</title>
<path fill="none" stroke="black" d="M252.629,-1043.7C257.628,-1035.56 263.691,-1025.69 269.212,-1016.7"/>
<polygon fill="black" stroke="black" points="272.241,-1018.46 274.493,-1008.1 266.277,-1014.79 272.241,-1018.46"/>
</g>
<!-- FileToDataStream -->
<g id="node4" class="node"><title>FileToDataStream</title>
<polygon fill="#ccffcc" stroke="black" points="381.25,-936 230.75,-936 230.75,-900 381.25,-900 381.25,-936"/>
<text text-anchor="middle" x="306" y="-914.3" font-family="Courier,monospace" font-size="14.00">FileToDataStream</text>
</g>
<!-- DataRecord -->
<g id="node12" class="node"><title>DataRecord</title>
<path fill="#f8d2db" stroke="black" d="M274,-827C274,-827 348,-827 348,-827 354,-827 360,-833 360,-839 360,-839 360,-851 360,-851 360,-857 354,-863 348,-863 348,-863 274,-863 274,-863 268,-863 262,-857 262,-851 262,-851 262,-839 262,-839 262,-833 268,-827 274,-827"/>
<text text-anchor="middle" x="311" y="-851.8" font-family="Courier,monospace" font-weight="bold" font-size="9.00">DataRecord</text>
<polyline fill="none" stroke="black" points="262,-845 360,-845 "/>
<text text-anchor="middle" x="311" y="-833.8" font-family="Courier,monospace" font-weight="bold" font-size="9.00">MCZ:Mala:120797</text>
</g>
<!-- FileToDataStream&#45;&gt;DataRecord -->
<g id="edge14" class="edge"><title>FileToDataStream&#45;&gt;DataRecord</title>
<path fill="none" stroke="black" d="M307.21,-899.813C307.775,-891.789 308.461,-882.047 309.094,-873.069"/>
<polygon fill="black" stroke="black" points="312.59,-873.25 309.801,-863.029 305.607,-872.758 312.59,-873.25"/>
</g>
<!-- EnvironmentTagger -->
<g id="node5" class="node"><title>EnvironmentTagger</title>
<polygon fill="#ccffcc" stroke="black" points="401.25,-790 242.75,-790 242.75,-754 401.25,-754 401.25,-790"/>
<text text-anchor="middle" x="322" y="-768.3" font-family="Courier,monospace" font-size="14.00">EnvironmentTagger</text>
</g>
<!-- TaggedDataRecord -->
<g id="node13" class="node"><title>TaggedDataRecord</title>
<path fill="#f8d2db" stroke="black" d="M282.5,-681C282.5,-681 361.5,-681 361.5,-681 367.5,-681 373.5,-687 373.5,-693 373.5,-693 373.5,-705 373.5,-705 373.5,-711 367.5,-717 361.5,-717 361.5,-717 282.5,-717 282.5,-717 276.5,-717 270.5,-711 270.5,-705 270.5,-705 270.5,-693 270.5,-693 270.5,-687 276.5,-681 282.5,-681"/>
<text text-anchor="middle" x="322" y="-705.8" font-family="Courier,monospace" font-weight="bold" font-size="9.00">TaggedDataRecord</text>
<polyline fill="none" stroke="black" points="270.5,-699 373.5,-699 "/>
<text text-anchor="middle" x="322" y="-687.8" font-family="Courier,monospace" font-weight="bold" font-size="9.00">Marine</text>
</g>
<!-- EnvironmentTagger&#45;&gt;TaggedDataRecord -->
<g id="edge16" class="edge"><title>EnvironmentTagger&#45;&gt;TaggedDataRecord</title>
<path fill="none" stroke="black" d="M322,-753.813C322,-745.789 322,-736.047 322,-727.069"/>
<polygon fill="black" stroke="black" points="325.5,-727.029 322,-717.029 318.5,-727.029 325.5,-727.029"/>
</g>
<!-- EnvironmentTagger&#45;&gt;LogFile -->
<g id="edge15" class="edge"><title>EnvironmentTagger&#45;&gt;LogFile</title>
<path fill="none" stroke="black" d="M356.571,-753.833C397.156,-730.953 459,-686.352 459,-627 459,-627 459,-627 459,-547 459,-504.255 456.626,-492.838 444,-452 440.548,-440.836 435.338,-429.099 430.344,-419.059"/>
<polygon fill="black" stroke="black" points="433.381,-417.311 425.687,-410.027 427.159,-420.519 433.381,-417.311"/>
</g>
<!-- FilterToJustMarine -->
<g id="node6" class="node"><title>FilterToJustMarine</title>
<polygon fill="#ccffcc" stroke="black" points="426,-644 258,-644 258,-608 426,-608 426,-644"/>
<text text-anchor="middle" x="342" y="-622.3" font-family="Courier,monospace" font-size="14.00">FilterToJustMarine</text>
</g>
<!-- MarineDataRecord -->
<g id="node14" class="node"><title>MarineDataRecord</title>
<path fill="#f8d2db" stroke="black" d="M248,-530C248,-530 408,-530 408,-530 414,-530 420,-536 420,-542 420,-542 420,-554 420,-554 420,-560 414,-566 408,-566 408,-566 248,-566 248,-566 242,-566 236,-560 236,-554 236,-554 236,-542 236,-542 236,-536 242,-530 248,-530"/>
<text text-anchor="middle" x="328" y="-554.8" font-family="Courier,monospace" font-weight="bold" font-size="9.00">MarineDataRecord</text>
<polyline fill="none" stroke="black" points="236,-548 420,-548 "/>
<text text-anchor="middle" x="328" y="-536.8" font-family="Courier,monospace" font-weight="bold" font-size="9.00">Teredora malleolus:Turton, 1822</text>
</g>
<!-- FilterToJustMarine&#45;&gt;MarineDataRecord -->
<g id="edge18" class="edge"><title>FilterToJustMarine&#45;&gt;MarineDataRecord</title>
<path fill="none" stroke="black" d="M338.823,-607.754C337.105,-598.426 334.943,-586.691 333.004,-576.165"/>
<polygon fill="black" stroke="black" points="336.418,-575.378 331.164,-566.177 329.534,-576.646 336.418,-575.378"/>
</g>
<!-- FilterToJustMarine&#45;&gt;LogFile -->
<g id="edge17" class="edge"><title>FilterToJustMarine&#45;&gt;LogFile</title>
<path fill="none" stroke="black" d="M388.522,-607.854C404.252,-599.564 420.078,-587.882 429,-572 456.061,-523.828 439.395,-456.505 426.595,-419.676"/>
<polygon fill="black" stroke="black" points="429.834,-418.341 423.128,-410.139 423.255,-420.733 429.834,-418.341"/>
</g>
<!-- WoRMSLookup -->
<g id="node7" class="node"><title>WoRMSLookup</title>
<polygon fill="#ccffcc" stroke="black" points="382.25,-488 273.75,-488 273.75,-452 382.25,-452 382.25,-488"/>
<text text-anchor="middle" x="328" y="-466.3" font-family="Courier,monospace" font-size="14.00">WoRMSLookup</text>
</g>
<!-- WoRMSUpdatedRecord -->
<g id="node15" class="node"><title>WoRMSUpdatedRecord</title>
<path fill="#f8d2db" stroke="black" d="M258,-374C258,-374 348,-374 348,-374 354,-374 360,-380 360,-386 360,-386 360,-398 360,-398 360,-404 354,-410 348,-410 348,-410 258,-410 258,-410 252,-410 246,-404 246,-398 246,-398 246,-386 246,-386 246,-380 252,-374 258,-374"/>
<text text-anchor="middle" x="303" y="-398.8" font-family="Courier,monospace" font-weight="bold" font-size="9.00">WoRMSUpdatedRecord</text>
<polyline fill="none" stroke="black" points="246,-392 360,-392 "/>
<text text-anchor="middle" x="303" y="-380.8" font-family="Courier,monospace" font-weight="bold" font-size="9.00">null</text>
</g>
<!-- WoRMSLookup&#45;&gt;WoRMSUpdatedRecord -->
<g id="edge22" class="edge"><title>WoRMSLookup&#45;&gt;WoRMSUpdatedRecord</title>
<path fill="none" stroke="black" d="M322.327,-451.754C319.227,-442.329 315.318,-430.446 311.828,-419.837"/>
<polygon fill="black" stroke="black" points="315.1,-418.583 308.65,-410.177 308.451,-420.77 315.1,-418.583"/>
</g>
<!-- WoRMSLookup&#45;&gt;LogFile -->
<g id="edge21" class="edge"><title>WoRMSLookup&#45;&gt;LogFile</title>
<path fill="none" stroke="black" d="M347.969,-451.754C359.895,-441.454 375.219,-428.22 388.304,-416.92"/>
<polygon fill="black" stroke="black" points="390.83,-419.362 396.11,-410.177 386.255,-414.065 390.83,-419.362"/>
</g>
<!-- StreamMerge -->
<g id="node8" class="node"><title>StreamMerge</title>
<polygon fill="#ccffcc" stroke="black" points="236.25,-332 127.75,-332 127.75,-296 236.25,-296 236.25,-332"/>
<text text-anchor="middle" x="182" y="-310.3" font-family="Courier,monospace" font-size="14.00">StreamMerge</text>
</g>
<!-- MergedStream -->
<g id="node19" class="node"><title>MergedStream</title>
<path fill="#ffffcc" stroke="black" d="M208,-260C208,-260 156,-260 156,-260 150,-260 144,-254 144,-248 144,-248 144,-236 144,-236 144,-230 150,-224 156,-224 156,-224 208,-224 208,-224 214,-224 220,-230 220,-236 220,-236 220,-248 220,-248 220,-254 214,-260 208,-260"/>
<text text-anchor="middle" x="182" y="-239.8" font-family="Helvetica,sans-Serif" font-size="9.00">MergedStream</text>
</g>
<!-- StreamMerge&#45;&gt;MergedStream -->
<g id="edge25" class="edge"><title>StreamMerge&#45;&gt;MergedStream</title>
<path fill="none" stroke="black" d="M182,-295.697C182,-287.983 182,-278.712 182,-270.112"/>
<polygon fill="black" stroke="black" points="185.5,-270.104 182,-260.104 178.5,-270.104 185.5,-270.104"/>
</g>
<!-- CsvFileWriter -->
<g id="node9" class="node"><title>CsvFileWriter</title>
<polygon fill="#ccffcc" stroke="black" points="245,-188 119,-188 119,-152 245,-152 245,-188"/>
<text text-anchor="middle" x="182" y="-166.3" font-family="Courier,monospace" font-size="14.00">CsvFileWriter</text>
</g>
<!-- UpdatedOccurrenceFile -->
<g id="node21" class="node"><title>UpdatedOccurrenceFile</title>
<path fill="#ffe4b5" stroke="black" d="M36,-79C36,-79 390,-79 390,-79 396,-79 402,-85 402,-91 402,-91 402,-103 402,-103 402,-109 396,-115 390,-115 390,-115 36,-115 36,-115 30,-115 24,-109 24,-103 24,-103 24,-91 24,-91 24,-85 30,-79 36,-79"/>
<text text-anchor="middle" x="213" y="-103.8" font-family="Courier,monospace" font-weight="bold" font-size="9.00">UpdatedOccurrenceFile</text>
<polyline fill="none" stroke="black" points="24,-97 402,-97 "/>
<text text-anchor="middle" x="213" y="-85.8" font-family="Courier,monospace" font-weight="bold" font-size="9.00">workspace_6661c68f&#45;3f44&#45;11e8&#45;bd5d&#45;4a0002b0edf0/mergedoutputfile.csv</text>
</g>
<!-- CsvFileWriter&#45;&gt;UpdatedOccurrenceFile -->
<g id="edge26" class="edge"><title>CsvFileWriter&#45;&gt;UpdatedOccurrenceFile</title>
<path fill="none" stroke="black" d="M189.504,-151.813C193.084,-143.615 197.446,-133.623 201.436,-124.485"/>
<polygon fill="black" stroke="black" points="204.771,-125.594 205.565,-115.029 198.356,-122.793 204.771,-125.594"/>
</g>
<!-- notMarineDataRecord&#45;&gt;GBIFLookup -->
<g id="edge8" class="edge"><title>notMarineDataRecord&#45;&gt;GBIFLookup</title>
<path fill="none" stroke="black" d="M128.801,-524.197C131.639,-515.901 134.873,-506.447 137.82,-497.834"/>
<polygon fill="black" stroke="black" points="141.181,-498.822 141.106,-488.228 134.558,-496.556 141.181,-498.822"/>
</g>
<!-- GBIFUpdatedRecord&#45;&gt;StreamMerge -->
<g id="edge10" class="edge"><title>GBIFUpdatedRecord&#45;&gt;StreamMerge</title>
<path fill="none" stroke="black" d="M159.601,-368.197C163.132,-359.811 167.161,-350.242 170.82,-341.553"/>
<polygon fill="black" stroke="black" points="174.091,-342.802 174.746,-332.228 167.64,-340.086 174.091,-342.802"/>
</g>
<!-- DataRecord&#45;&gt;EnvironmentTagger -->
<g id="edge4" class="edge"><title>DataRecord&#45;&gt;EnvironmentTagger</title>
<path fill="none" stroke="black" d="M313.663,-826.813C314.906,-818.789 316.415,-809.047 317.806,-800.069"/>
<polygon fill="black" stroke="black" points="321.289,-800.447 319.362,-790.029 314.372,-799.375 321.289,-800.447"/>
</g>
<!-- TaggedDataRecord&#45;&gt;FilterToNonMarine -->
<g id="edge6" class="edge"><title>TaggedDataRecord&#45;&gt;FilterToNonMarine</title>
<path fill="none" stroke="black" d="M283.197,-680.994C260.72,-671.143 232.228,-658.656 208.307,-648.172"/>
<polygon fill="black" stroke="black" points="209.612,-644.922 199.048,-644.114 206.802,-651.333 209.612,-644.922"/>
</g>
<!-- TaggedDataRecord&#45;&gt;FilterToJustMarine -->
<g id="edge5" class="edge"><title>TaggedDataRecord&#45;&gt;FilterToJustMarine</title>
<path fill="none" stroke="black" d="M326.841,-680.813C329.126,-672.702 331.905,-662.836 334.457,-653.777"/>
<polygon fill="black" stroke="black" points="337.861,-654.603 337.203,-644.029 331.123,-652.705 337.861,-654.603"/>
</g>
<!-- MarineDataRecord&#45;&gt;WoRMSLookup -->
<g id="edge7" class="edge"><title>MarineDataRecord&#45;&gt;WoRMSLookup</title>
<path fill="none" stroke="black" d="M328,-529.754C328,-520.523 328,-508.935 328,-498.495"/>
<polygon fill="black" stroke="black" points="331.5,-498.177 328,-488.177 324.5,-498.177 331.5,-498.177"/>
</g>
<!-- WoRMSUpdatedRecord&#45;&gt;StreamMerge -->
<g id="edge9" class="edge"><title>WoRMSUpdatedRecord&#45;&gt;StreamMerge</title>
<path fill="none" stroke="black" d="M275.845,-373.944C258.762,-363.214 236.521,-349.245 217.979,-337.598"/>
<polygon fill="black" stroke="black" points="219.813,-334.617 209.483,-332.262 216.089,-340.545 219.813,-334.617"/>
</g>
<!-- DarwinCoreArchive -->
<g id="node16" class="node"><title>DarwinCoreArchive</title>
<path fill="#ffe4b5" stroke="black" d="M48.5,-1117C48.5,-1117 435.5,-1117 435.5,-1117 441.5,-1117 447.5,-1123 447.5,-1129 447.5,-1129 447.5,-1141 447.5,-1141 447.5,-1147 441.5,-1153 435.5,-1153 435.5,-1153 48.5,-1153 48.5,-1153 42.5,-1153 36.5,-1147 36.5,-1141 36.5,-1141 36.5,-1129 36.5,-1129 36.5,-1123 42.5,-1117 48.5,-1117"/>
<text text-anchor="middle" x="242" y="-1141.8" font-family="Courier,monospace" font-weight="bold" font-size="9.00">DarwinCoreArchive</text>
<polyline fill="none" stroke="black" points="36.5,-1135 447.5,-1135 "/>
<text text-anchor="middle" x="242" y="-1123.8" font-family="Courier,monospace" font-weight="bold" font-size="9.00">packages/kurator_FileBranchingTaxonLookup/data/kurator_sample_data_v2.txt</text>
</g>
<!-- DarwinCoreArchive&#45;&gt;Setup -->
<g id="edge1" class="edge"><title>DarwinCoreArchive&#45;&gt;Setup</title>
<path fill="none" stroke="black" d="M242,-1116.81C242,-1108.79 242,-1099.05 242,-1090.07"/>
<polygon fill="black" stroke="black" points="245.5,-1090.03 242,-1080.03 238.5,-1090.03 245.5,-1090.03"/>
</g>
<!-- Workspace&#45;&gt;CsvFileWriter -->
<g id="edge2" class="edge"><title>Workspace&#45;&gt;CsvFileWriter</title>
<path fill="none" stroke="black" d="M97.3603,-899.795C69.9617,-874.899 25,-825.974 25,-773 25,-773 25,-773 25,-313 25,-255.408 83.8275,-215.116 129.463,-192.524"/>
<polygon fill="black" stroke="black" points="131.177,-195.584 138.683,-188.107 128.153,-189.271 131.177,-195.584"/>
</g>
<!-- OccurrenceFile&#45;&gt;FileToDataStream -->
<g id="edge3" class="edge"><title>OccurrenceFile&#45;&gt;FileToDataStream</title>
<path fill="none" stroke="black" d="M290.191,-971.697C292.531,-963.898 295.347,-954.509 297.951,-945.829"/>
<polygon fill="black" stroke="black" points="301.348,-946.688 300.869,-936.104 294.643,-944.677 301.348,-946.688"/>
</g>
<!-- MergedStream&#45;&gt;CsvFileWriter -->
<g id="edge11" class="edge"><title>MergedStream&#45;&gt;CsvFileWriter</title>
<path fill="none" stroke="black" d="M182,-223.697C182,-215.983 182,-206.712 182,-198.112"/>
<polygon fill="black" stroke="black" points="185.5,-198.104 182,-188.104 178.5,-198.104 185.5,-198.104"/>
</g>
<!-- LogFile_outflow -->
<g id="node23" class="node"><title>LogFile_outflow</title>
<ellipse fill="none" stroke="black" cx="337" cy="-31" rx="7" ry="7"/>
</g>
<!-- LogFile&#45;&gt;LogFile_outflow -->
<g id="edge28" class="edge"><title>LogFile&#45;&gt;LogFile_outflow</title>
<path fill="none" stroke="black" d="M418.699,-373.733C422.768,-346.169 430,-290.489 430,-243 430,-243 430,-243 430,-169 430,-120.701 441.396,-99.5354 411,-62 396.965,-44.6684 371.346,-37.2725 354.245,-34.1692"/>
<polygon fill="black" stroke="black" points="354.422,-30.6567 344.014,-32.6371 353.386,-37.5795 354.422,-30.6567"/>
</g>
<!-- UpdatedOccurrenceFile_outflow -->
<g id="node24" class="node"><title>UpdatedOccurrenceFile_outflow</title>
<ellipse fill="none" stroke="black" cx="305" cy="-31" rx="7" ry="7"/>
</g>
<!-- UpdatedOccurrenceFile&#45;&gt;UpdatedOccurrenceFile_outflow -->
<g id="edge29" class="edge"><title>UpdatedOccurrenceFile&#45;&gt;UpdatedOccurrenceFile_outflow</title>
<path fill="none" stroke="black" d="M237.654,-78.8492C254.78,-66.9359 276.977,-51.4945 291.108,-41.6639"/>
<polygon fill="black" stroke="black" points="293.231,-44.4507 299.441,-35.8668 289.234,-38.7043 293.231,-44.4507"/>
</g>
<!-- DarwinCoreArchive_inflow -->
<g id="node22" class="node"><title>DarwinCoreArchive_inflow</title>
<ellipse fill="none" stroke="black" cx="242" cy="-1201" rx="7" ry="7"/>
</g>
<!-- DarwinCoreArchive_inflow&#45;&gt;DarwinCoreArchive -->
<g id="edge27" class="edge"><title>DarwinCoreArchive_inflow&#45;&gt;DarwinCoreArchive</title>
<path fill="none" stroke="black" d="M242,-1193.63C242,-1186.54 242,-1174.6 242,-1163.42"/>
<polygon fill="black" stroke="black" points="245.5,-1163.12 242,-1153.12 238.5,-1163.12 245.5,-1163.12"/>
</g>
</g>
</svg>
