<?xml version="1.0" encoding="UTF-8" standalone="no"?>
<!DOCTYPE svg PUBLIC "-//W3C//DTD SVG 1.1//EN"
 "http://www.w3.org/Graphics/SVG/1.1/DTD/svg11.dtd">
<!-- Generated by graphviz version 2.36.0 (20140111.2315)
 -->
<!-- Title: yw_data_view Pages: 1 -->
<svg width="908pt" height="1268pt"
 viewBox="0.00 0.00 908.00 1268.00" xmlns="http://www.w3.org/2000/svg" xmlns:xlink="http://www.w3.org/1999/xlink">
<g id="graph0" class="graph" transform="scale(1 1) rotate(0) translate(4 1264)">
<title>yw_data_view</title>
<polygon fill="white" stroke="none" points="-4,4 -4,-1264 904,-1264 904,4 -4,4"/>
<text text-anchor="middle" x="450" y="-1241.6" font-family="Courier,monospace" font-size="18.00">DwCA_Taxon_Lookup</text>
<g id="clust5" class="cluster"><title>cluster_outflows</title>
<polygon fill="none" stroke="white" stroke-width="2" points="407,-8 407,-54 485,-54 485,-8 407,-8"/>
</g>
<g id="clust6" class="cluster"><title>cluster_outflows_inner</title>
<polygon fill="none" stroke="white" stroke-width="2" points="415,-16 415,-46 477,-46 477,-16 415,-16"/>
</g>
<g id="clust1" class="cluster"><title>cluster_workflow</title>
<polygon fill="none" stroke="black" stroke-width="2" points="8,-62 8,-1170 892,-1170 892,-62 8,-62"/>
</g>
<g id="clust2" class="cluster"><title>cluster_workflow_inner</title>
<polygon fill="none" stroke="white" stroke-width="2" points="16,-70 16,-1162 884,-1162 884,-70 16,-70"/>
</g>
<g id="clust3" class="cluster"><title>cluster_inflows</title>
<polygon fill="none" stroke="white" stroke-width="2" points="561,-1178 561,-1224 607,-1224 607,-1178 561,-1178"/>
</g>
<g id="clust4" class="cluster"><title>cluster_inflows_inner</title>
<polygon fill="none" stroke="white" stroke-width="2" points="569,-1186 569,-1216 599,-1216 599,-1186 569,-1186"/>
</g>
<!-- FilterToJustMarine -->
<g id="node1" class="node"><title>FilterToJustMarine</title>
<polygon fill="#d6d6d7" stroke="black" points="476,-644 308,-644 308,-608 476,-608 476,-644"/>
<text text-anchor="middle" x="392" y="-622.3" font-family="Courier,monospace" font-size="14.00">FilterToJustMarine</text>
</g>
<!-- MarineDataRecord -->
<g id="node10" class="node"><title>MarineDataRecord</title>
<path fill="#d6d6d7" stroke="black" d="M278,-524.5C278,-524.5 388,-524.5 388,-524.5 394,-524.5 400,-530.5 400,-536.5 400,-536.5 400,-559.5 400,-559.5 400,-565.5 394,-571.5 388,-571.5 388,-571.5 278,-571.5 278,-571.5 272,-571.5 266,-565.5 266,-559.5 266,-559.5 266,-536.5 266,-536.5 266,-530.5 272,-524.5 278,-524.5"/>
<text text-anchor="middle" x="333" y="-556.3" font-family="Helvetica,sans-Serif" font-size="14.00">MarineDataRecord</text>
<polyline fill="none" stroke="black" points="266,-548.5 400,-548.5 "/>
</g>
<!-- FilterToJustMarine&#45;&gt;MarineDataRecord -->
<g id="edge19" class="edge"><title>FilterToJustMarine&#45;&gt;MarineDataRecord</title>
<path fill="none" stroke="black" d="M378.612,-607.754C372.196,-599.489 364.313,-589.335 356.916,-579.807"/>
<polygon fill="black" stroke="black" points="359.487,-577.411 350.59,-571.658 353.957,-581.703 359.487,-577.411"/>
</g>
<!-- LogFile -->
<g id="node20" class="node"><title>LogFile</title>
<path fill="#ffe4b5" stroke="black" d="M482.5,-374C482.5,-374 863.5,-374 863.5,-374 869.5,-374 875.5,-380 875.5,-386 875.5,-386 875.5,-398 875.5,-398 875.5,-404 869.5,-410 863.5,-410 863.5,-410 482.5,-410 482.5,-410 476.5,-410 470.5,-404 470.5,-398 470.5,-398 470.5,-386 470.5,-386 470.5,-380 476.5,-374 482.5,-374"/>
<text text-anchor="middle" x="673" y="-398.8" font-family="Courier,monospace" font-weight="bold" font-size="9.00">LogFile</text>
<polyline fill="none" stroke="black" points="470.5,-392 875.5,-392 "/>
<text text-anchor="middle" x="673" y="-380.8" font-family="Courier,monospace" font-weight="bold" font-size="9.00">./packages/kurator_FileBranchingTaxonLookup/workflows/results/runlog.log</text>
</g>
<!-- FilterToJustMarine&#45;&gt;LogFile -->
<g id="edge18" class="edge"><title>FilterToJustMarine&#45;&gt;LogFile</title>
<path fill="none" stroke="black" d="M397.224,-607.719C403.711,-587.212 415.687,-552.242 430,-524 447.276,-489.913 446.404,-474.896 477,-452 500.964,-434.067 530.377,-421.547 559.058,-412.82"/>
<polygon fill="black" stroke="black" points="560.122,-416.156 568.748,-410.004 558.168,-409.434 560.122,-416.156"/>
</g>
<!-- WoRMSLookup -->
<g id="node2" class="node"><title>WoRMSLookup</title>
<polygon fill="#d6d6d7" stroke="black" points="387.25,-488 278.75,-488 278.75,-452 387.25,-452 387.25,-488"/>
<text text-anchor="middle" x="333" y="-466.3" font-family="Courier,monospace" font-size="14.00">WoRMSLookup</text>
</g>
<!-- WoRMSUpdatedRecord -->
<g id="node11" class="node"><title>WoRMSUpdatedRecord</title>
<path fill="#d6d6d7" stroke="black" d="M56.5,-368.5C56.5,-368.5 199.5,-368.5 199.5,-368.5 205.5,-368.5 211.5,-374.5 211.5,-380.5 211.5,-380.5 211.5,-403.5 211.5,-403.5 211.5,-409.5 205.5,-415.5 199.5,-415.5 199.5,-415.5 56.5,-415.5 56.5,-415.5 50.5,-415.5 44.5,-409.5 44.5,-403.5 44.5,-403.5 44.5,-380.5 44.5,-380.5 44.5,-374.5 50.5,-368.5 56.5,-368.5"/>
<text text-anchor="middle" x="128" y="-400.3" font-family="Helvetica,sans-Serif" font-size="14.00">WoRMSUpdatedRecord</text>
<polyline fill="none" stroke="black" points="44.5,-392.5 211.5,-392.5 "/>
</g>
<!-- WoRMSLookup&#45;&gt;WoRMSUpdatedRecord -->
<g id="edge23" class="edge"><title>WoRMSLookup&#45;&gt;WoRMSUpdatedRecord</title>
<path fill="none" stroke="black" d="M286.994,-451.944C261.01,-442.311 227.981,-430.066 198.767,-419.236"/>
<polygon fill="black" stroke="black" points="199.615,-415.817 189.022,-415.623 197.182,-422.381 199.615,-415.817"/>
</g>
<!-- WoRMSLookup&#45;&gt;LogFile -->
<g id="edge22" class="edge"><title>WoRMSLookup&#45;&gt;LogFile</title>
<path fill="none" stroke="black" d="M387.627,-456.789C441.349,-444.781 524.176,-426.267 586.785,-412.272"/>
<polygon fill="black" stroke="black" points="587.657,-415.663 596.653,-410.066 586.13,-408.832 587.657,-415.663"/>
</g>
<!-- Setup -->
<g id="node3" class="node"><title>Setup</title>
<polygon fill="#ccffcc" stroke="black" points="613.25,-1080 554.75,-1080 554.75,-1044 613.25,-1044 613.25,-1080"/>
<text text-anchor="middle" x="584" y="-1058.3" font-family="Courier,monospace" font-size="14.00">Setup</text>
</g>
<!-- Workspace -->
<g id="node17" class="node"><title>Workspace</title>
<path fill="#ffffcc" stroke="black" d="M189,-936C189,-936 151,-936 151,-936 145,-936 139,-930 139,-924 139,-924 139,-912 139,-912 139,-906 145,-900 151,-900 151,-900 189,-900 189,-900 195,-900 201,-906 201,-912 201,-912 201,-924 201,-924 201,-930 195,-936 189,-936"/>
<text text-anchor="middle" x="170" y="-915.8" font-family="Helvetica,sans-Serif" font-size="9.00">Workspace</text>
</g>
<!-- Setup&#45;&gt;Workspace -->
<g id="edge12" class="edge"><title>Setup&#45;&gt;Workspace</title>
<path fill="none" stroke="black" d="M554.558,-1050.9C481.955,-1026 294.216,-961.605 210.885,-933.023"/>
<polygon fill="black" stroke="black" points="211.849,-929.654 201.254,-929.72 209.578,-936.275 211.849,-929.654"/>
</g>
<!-- OccurrenceFile -->
<g id="node18" class="node"><title>OccurrenceFile</title>
<path fill="#ffffcc" stroke="black" d="M611,-1008C611,-1008 557,-1008 557,-1008 551,-1008 545,-1002 545,-996 545,-996 545,-984 545,-984 545,-978 551,-972 557,-972 557,-972 611,-972 611,-972 617,-972 623,-978 623,-984 623,-984 623,-996 623,-996 623,-1002 617,-1008 611,-1008"/>
<text text-anchor="middle" x="584" y="-987.8" font-family="Helvetica,sans-Serif" font-size="9.00">OccurrenceFile</text>
</g>
<!-- Setup&#45;&gt;OccurrenceFile -->
<g id="edge14" class="edge"><title>Setup&#45;&gt;OccurrenceFile</title>
<path fill="none" stroke="black" d="M584,-1043.7C584,-1035.98 584,-1026.71 584,-1018.11"/>
<polygon fill="black" stroke="black" points="587.5,-1018.1 584,-1008.1 580.5,-1018.1 587.5,-1018.1"/>
</g>
<!-- Setup&#45;&gt;LogFile -->
<g id="edge13" class="edge"><title>Setup&#45;&gt;LogFile</title>
<path fill="none" stroke="black" d="M609.556,-1043.89C641.773,-1020.04 693,-973.542 693,-919 693,-919 693,-919 693,-547 693,-502.383 684.642,-451.097 678.732,-420.408"/>
<polygon fill="black" stroke="black" points="682.138,-419.586 676.762,-410.457 675.271,-420.946 682.138,-419.586"/>
</g>
<!-- FileToDataStream -->
<g id="node4" class="node"><title>FileToDataStream</title>
<polygon fill="#ccffcc" stroke="black" points="659.25,-936 508.75,-936 508.75,-900 659.25,-900 659.25,-936"/>
<text text-anchor="middle" x="584" y="-914.3" font-family="Courier,monospace" font-size="14.00">FileToDataStream</text>
</g>
<!-- DataRecord -->
<g id="node12" class="node"><title>DataRecord</title>
<path fill="#f8d2db" stroke="black" d="M547,-827C547,-827 621,-827 621,-827 627,-827 633,-833 633,-839 633,-839 633,-851 633,-851 633,-857 627,-863 621,-863 621,-863 547,-863 547,-863 541,-863 535,-857 535,-851 535,-851 535,-839 535,-839 535,-833 541,-827 547,-827"/>
<text text-anchor="middle" x="584" y="-851.8" font-family="Courier,monospace" font-weight="bold" font-size="9.00">DataRecord</text>
<polyline fill="none" stroke="black" points="535,-845 633,-845 "/>
<text text-anchor="middle" x="584" y="-833.8" font-family="Courier,monospace" font-weight="bold" font-size="9.00">MCZ:Mala:278687</text>
</g>
<!-- FileToDataStream&#45;&gt;DataRecord -->
<g id="edge15" class="edge"><title>FileToDataStream&#45;&gt;DataRecord</title>
<path fill="none" stroke="black" d="M584,-899.813C584,-891.789 584,-882.047 584,-873.069"/>
<polygon fill="black" stroke="black" points="587.5,-873.029 584,-863.029 580.5,-873.029 587.5,-873.029"/>
</g>
<!-- EnvironmentTagger -->
<g id="node5" class="node"><title>EnvironmentTagger</title>
<polygon fill="#ccffcc" stroke="black" points="663.25,-790 504.75,-790 504.75,-754 663.25,-754 663.25,-790"/>
<text text-anchor="middle" x="584" y="-768.3" font-family="Courier,monospace" font-size="14.00">EnvironmentTagger</text>
</g>
<!-- TaggedDataRecord -->
<g id="node13" class="node"><title>TaggedDataRecord</title>
<path fill="#f8d2db" stroke="black" d="M534.5,-681C534.5,-681 613.5,-681 613.5,-681 619.5,-681 625.5,-687 625.5,-693 625.5,-693 625.5,-705 625.5,-705 625.5,-711 619.5,-717 613.5,-717 613.5,-717 534.5,-717 534.5,-717 528.5,-717 522.5,-711 522.5,-705 522.5,-705 522.5,-693 522.5,-693 522.5,-687 528.5,-681 534.5,-681"/>
<text text-anchor="middle" x="574" y="-705.8" font-family="Courier,monospace" font-weight="bold" font-size="9.00">TaggedDataRecord</text>
<polyline fill="none" stroke="black" points="522.5,-699 625.5,-699 "/>
<text text-anchor="middle" x="574" y="-687.8" font-family="Courier,monospace" font-weight="bold" font-size="9.00">NonMarine</text>
</g>
<!-- EnvironmentTagger&#45;&gt;TaggedDataRecord -->
<g id="edge17" class="edge"><title>EnvironmentTagger&#45;&gt;TaggedDataRecord</title>
<path fill="none" stroke="black" d="M581.579,-753.813C580.449,-745.789 579.077,-736.047 577.813,-727.069"/>
<polygon fill="black" stroke="black" points="581.259,-726.443 576.398,-717.029 574.327,-727.419 581.259,-726.443"/>
</g>
<!-- EnvironmentTagger&#45;&gt;LogFile -->
<g id="edge16" class="edge"><title>EnvironmentTagger&#45;&gt;LogFile</title>
<path fill="none" stroke="black" d="M603.752,-753.611C629.972,-728.497 673,-679.313 673,-627 673,-627 673,-627 673,-547 673,-502.71 673,-451.255 673,-420.453"/>
<polygon fill="black" stroke="black" points="676.5,-420.091 673,-410.092 669.5,-420.092 676.5,-420.091"/>
</g>
<!-- FilterToNonMarine -->
<g id="node6" class="node"><title>FilterToNonMarine</title>
<polygon fill="#ccffcc" stroke="black" points="653.25,-644 494.75,-644 494.75,-608 653.25,-608 653.25,-644"/>
<text text-anchor="middle" x="574" y="-622.3" font-family="Courier,monospace" font-size="14.00">FilterToNonMarine</text>
</g>
<!-- notMarineDataRecord -->
<g id="node14" class="node"><title>notMarineDataRecord</title>
<path fill="#f8d2db" stroke="black" d="M450.5,-530C450.5,-530 621.5,-530 621.5,-530 627.5,-530 633.5,-536 633.5,-542 633.5,-542 633.5,-554 633.5,-554 633.5,-560 627.5,-566 621.5,-566 621.5,-566 450.5,-566 450.5,-566 444.5,-566 438.5,-560 438.5,-554 438.5,-554 438.5,-542 438.5,-542 438.5,-536 444.5,-530 450.5,-530"/>
<text text-anchor="middle" x="536" y="-554.8" font-family="Courier,monospace" font-weight="bold" font-size="9.00">notMarineDataRecord</text>
<polyline fill="none" stroke="black" points="438.5,-548 633.5,-548 "/>
<text text-anchor="middle" x="536" y="-536.8" font-family="Courier,monospace" font-weight="bold" font-size="9.00">Leptochiton medinae:(Plate, 1899)</text>
</g>
<!-- FilterToNonMarine&#45;&gt;notMarineDataRecord -->
<g id="edge21" class="edge"><title>FilterToNonMarine&#45;&gt;notMarineDataRecord</title>
<path fill="none" stroke="black" d="M565.377,-607.754C560.567,-598.135 554.477,-585.955 549.091,-575.182"/>
<polygon fill="black" stroke="black" points="552.191,-573.556 544.589,-566.177 545.93,-576.687 552.191,-573.556"/>
</g>
<!-- FilterToNonMarine&#45;&gt;LogFile -->
<g id="edge20" class="edge"><title>FilterToNonMarine&#45;&gt;LogFile</title>
<path fill="none" stroke="black" d="M605.106,-607.912C618.527,-598.957 633.149,-586.763 642,-572 657.063,-546.877 666.588,-463.966 670.681,-420.359"/>
<polygon fill="black" stroke="black" points="674.187,-420.454 671.605,-410.178 667.216,-419.821 674.187,-420.454"/>
</g>
<!-- GBIFLookup -->
<g id="node7" class="node"><title>GBIFLookup</title>
<polygon fill="#ccffcc" stroke="black" points="586.25,-488 485.75,-488 485.75,-452 586.25,-452 586.25,-488"/>
<text text-anchor="middle" x="536" y="-466.3" font-family="Courier,monospace" font-size="14.00">GBIFLookup</text>
</g>
<!-- GBIFUpdatedRecord -->
<g id="node15" class="node"><title>GBIFUpdatedRecord</title>
<path fill="#f8d2db" stroke="black" d="M242,-374C242,-374 440,-374 440,-374 446,-374 452,-380 452,-386 452,-386 452,-398 452,-398 452,-404 446,-410 440,-410 440,-410 242,-410 242,-410 236,-410 230,-404 230,-398 230,-398 230,-386 230,-386 230,-380 236,-374 242,-374"/>
<text text-anchor="middle" x="341" y="-398.8" font-family="Courier,monospace" font-weight="bold" font-size="9.00">GBIFUpdatedRecord</text>
<polyline fill="none" stroke="black" points="230,-392 452,-392 "/>
<text text-anchor="middle" x="341" y="-380.8" font-family="Courier,monospace" font-weight="bold" font-size="9.00">http://api.gbif.org/v1/species/5193794</text>
</g>
<!-- GBIFLookup&#45;&gt;GBIFUpdatedRecord -->
<g id="edge25" class="edge"><title>GBIFLookup&#45;&gt;GBIFUpdatedRecord</title>
<path fill="none" stroke="black" d="M492.238,-451.944C463.361,-440.689 425.337,-425.87 394.641,-413.906"/>
<polygon fill="black" stroke="black" points="395.541,-410.501 384.953,-410.13 392.999,-417.023 395.541,-410.501"/>
</g>
<!-- GBIFLookup&#45;&gt;LogFile -->
<g id="edge24" class="edge"><title>GBIFLookup&#45;&gt;LogFile</title>
<path fill="none" stroke="black" d="M566.745,-451.944C586.35,-441.069 611.954,-426.865 633.116,-415.125"/>
<polygon fill="black" stroke="black" points="634.836,-418.174 641.883,-410.262 631.441,-412.052 634.836,-418.174"/>
</g>
<!-- StreamMerge -->
<g id="node8" class="node"><title>StreamMerge</title>
<polygon fill="#ccffcc" stroke="black" points="310.25,-332 201.75,-332 201.75,-296 310.25,-296 310.25,-332"/>
<text text-anchor="middle" x="256" y="-310.3" font-family="Courier,monospace" font-size="14.00">StreamMerge</text>
</g>
<!-- MergedStream -->
<g id="node19" class="node"><title>MergedStream</title>
<path fill="#ffffcc" stroke="black" d="M282,-260C282,-260 230,-260 230,-260 224,-260 218,-254 218,-248 218,-248 218,-236 218,-236 218,-230 224,-224 230,-224 230,-224 282,-224 282,-224 288,-224 294,-230 294,-236 294,-236 294,-248 294,-248 294,-254 288,-260 282,-260"/>
<text text-anchor="middle" x="256" y="-239.8" font-family="Helvetica,sans-Serif" font-size="9.00">MergedStream</text>
</g>
<!-- StreamMerge&#45;&gt;MergedStream -->
<g id="edge26" class="edge"><title>StreamMerge&#45;&gt;MergedStream</title>
<path fill="none" stroke="black" d="M256,-295.697C256,-287.983 256,-278.712 256,-270.112"/>
<polygon fill="black" stroke="black" points="259.5,-270.104 256,-260.104 252.5,-270.104 259.5,-270.104"/>
</g>
<!-- CsvFileWriter -->
<g id="node9" class="node"><title>CsvFileWriter</title>
<polygon fill="#ccffcc" stroke="black" points="319,-188 193,-188 193,-152 319,-152 319,-188"/>
<text text-anchor="middle" x="256" y="-166.3" font-family="Courier,monospace" font-size="14.00">CsvFileWriter</text>
</g>
<!-- UpdatedOccurrenceFile -->
<g id="node21" class="node"><title>UpdatedOccurrenceFile</title>
<path fill="#ffe4b5" stroke="black" d="M121,-79C121,-79 475,-79 475,-79 481,-79 487,-85 487,-91 487,-91 487,-103 487,-103 487,-109 481,-115 475,-115 475,-115 121,-115 121,-115 115,-115 109,-109 109,-103 109,-103 109,-91 109,-91 109,-85 115,-79 121,-79"/>
<text text-anchor="middle" x="298" y="-103.8" font-family="Courier,monospace" font-weight="bold" font-size="9.00">UpdatedOccurrenceFile</text>
<polyline fill="none" stroke="black" points="109,-97 487,-97 "/>
<text text-anchor="middle" x="298" y="-85.8" font-family="Courier,monospace" font-weight="bold" font-size="9.00">workspace_8b7dda80&#45;634e&#45;11e8&#45;9f66&#45;4a0002b0edf0/mergedoutputfile.csv</text>
</g>
<!-- CsvFileWriter&#45;&gt;UpdatedOccurrenceFile -->
<g id="edge27" class="edge"><title>CsvFileWriter&#45;&gt;UpdatedOccurrenceFile</title>
<path fill="none" stroke="black" d="M266.167,-151.813C271.12,-143.441 277.179,-133.197 282.677,-123.903"/>
<polygon fill="black" stroke="black" points="285.848,-125.418 287.927,-115.029 279.823,-121.854 285.848,-125.418"/>
</g>
<!-- MarineDataRecord&#45;&gt;WoRMSLookup -->
<g id="edge7" class="edge"><title>MarineDataRecord&#45;&gt;WoRMSLookup</title>
<path fill="none" stroke="black" d="M333,-524.197C333,-516.081 333,-506.858 333,-498.397"/>
<polygon fill="black" stroke="black" points="336.5,-498.228 333,-488.228 329.5,-498.228 336.5,-498.228"/>
</g>
<!-- WoRMSUpdatedRecord&#45;&gt;StreamMerge -->
<g id="edge9" class="edge"><title>WoRMSUpdatedRecord&#45;&gt;StreamMerge</title>
<path fill="none" stroke="black" d="M166.058,-368.403C182.597,-358.583 201.919,-347.11 218.406,-337.321"/>
<polygon fill="black" stroke="black" points="220.427,-340.192 227.238,-332.077 216.853,-334.173 220.427,-340.192"/>
</g>
<!-- DataRecord&#45;&gt;EnvironmentTagger -->
<g id="edge4" class="edge"><title>DataRecord&#45;&gt;EnvironmentTagger</title>
<path fill="none" stroke="black" d="M584,-826.813C584,-818.789 584,-809.047 584,-800.069"/>
<polygon fill="black" stroke="black" points="587.5,-800.029 584,-790.029 580.5,-800.029 587.5,-800.029"/>
</g>
<!-- TaggedDataRecord&#45;&gt;FilterToJustMarine -->
<g id="edge5" class="edge"><title>TaggedDataRecord&#45;&gt;FilterToJustMarine</title>
<path fill="none" stroke="black" d="M530.406,-680.994C504.819,-671.012 472.294,-658.324 445.204,-647.755"/>
<polygon fill="black" stroke="black" points="446.457,-644.487 435.869,-644.114 443.913,-651.009 446.457,-644.487"/>
</g>
<!-- TaggedDataRecord&#45;&gt;FilterToNonMarine -->
<g id="edge6" class="edge"><title>TaggedDataRecord&#45;&gt;FilterToNonMarine</title>
<path fill="none" stroke="black" d="M574,-680.813C574,-672.789 574,-663.047 574,-654.069"/>
<polygon fill="black" stroke="black" points="577.5,-654.029 574,-644.029 570.5,-654.029 577.5,-654.029"/>
</g>
<!-- notMarineDataRecord&#45;&gt;GBIFLookup -->
<g id="edge8" class="edge"><title>notMarineDataRecord&#45;&gt;GBIFLookup</title>
<path fill="none" stroke="black" d="M536,-529.754C536,-520.523 536,-508.935 536,-498.495"/>
<polygon fill="black" stroke="black" points="539.5,-498.177 536,-488.177 532.5,-498.177 539.5,-498.177"/>
</g>
<!-- GBIFUpdatedRecord&#45;&gt;StreamMerge -->
<g id="edge10" class="edge"><title>GBIFUpdatedRecord&#45;&gt;StreamMerge</title>
<path fill="none" stroke="black" d="M321.712,-373.754C310.192,-363.454 295.39,-350.22 282.752,-338.92"/>
<polygon fill="black" stroke="black" points="284.999,-336.234 275.211,-332.177 280.333,-341.452 284.999,-336.234"/>
</g>
<!-- DarwinCoreArchive -->
<g id="node16" class="node"><title>DarwinCoreArchive</title>
<path fill="#ffe4b5" stroke="black" d="M390.5,-1117C390.5,-1117 777.5,-1117 777.5,-1117 783.5,-1117 789.5,-1123 789.5,-1129 789.5,-1129 789.5,-1141 789.5,-1141 789.5,-1147 783.5,-1153 777.5,-1153 777.5,-1153 390.5,-1153 390.5,-1153 384.5,-1153 378.5,-1147 378.5,-1141 378.5,-1141 378.5,-1129 378.5,-1129 378.5,-1123 384.5,-1117 390.5,-1117"/>
<text text-anchor="middle" x="584" y="-1141.8" font-family="Courier,monospace" font-weight="bold" font-size="9.00">DarwinCoreArchive</text>
<polyline fill="none" stroke="black" points="378.5,-1135 789.5,-1135 "/>
<text text-anchor="middle" x="584" y="-1123.8" font-family="Courier,monospace" font-weight="bold" font-size="9.00">packages/kurator_FileBranchingTaxonLookup/data/kurator_sample_data_v2.txt</text>
</g>
<!-- DarwinCoreArchive&#45;&gt;Setup -->
<g id="edge1" class="edge"><title>DarwinCoreArchive&#45;&gt;Setup</title>
<path fill="none" stroke="black" d="M584,-1116.81C584,-1108.79 584,-1099.05 584,-1090.07"/>
<polygon fill="black" stroke="black" points="587.5,-1090.03 584,-1080.03 580.5,-1090.03 587.5,-1090.03"/>
</g>
<!-- Workspace&#45;&gt;CsvFileWriter -->
<g id="edge2" class="edge"><title>Workspace&#45;&gt;CsvFileWriter</title>
<path fill="none" stroke="black" d="M138.894,-903.169C96.2881,-881.857 25,-836.684 25,-773 25,-773 25,-773 25,-313 25,-237.62 115.375,-200.983 183.069,-184.114"/>
<polygon fill="black" stroke="black" points="183.968,-187.498 192.878,-181.766 182.338,-180.69 183.968,-187.498"/>
</g>
<!-- OccurrenceFile&#45;&gt;FileToDataStream -->
<g id="edge3" class="edge"><title>OccurrenceFile&#45;&gt;FileToDataStream</title>
<path fill="none" stroke="black" d="M584,-971.697C584,-963.983 584,-954.712 584,-946.112"/>
<polygon fill="black" stroke="black" points="587.5,-946.104 584,-936.104 580.5,-946.104 587.5,-946.104"/>
</g>
<!-- MergedStream&#45;&gt;CsvFileWriter -->
<g id="edge11" class="edge"><title>MergedStream&#45;&gt;CsvFileWriter</title>
<path fill="none" stroke="black" d="M256,-223.697C256,-215.983 256,-206.712 256,-198.112"/>
<polygon fill="black" stroke="black" points="259.5,-198.104 256,-188.104 252.5,-198.104 259.5,-198.104"/>
</g>
<!-- LogFile_outflow -->
<g id="node23" class="node"><title>LogFile_outflow</title>
<ellipse fill="none" stroke="black" cx="462" cy="-31" rx="7" ry="7"/>
</g>
<!-- LogFile&#45;&gt;LogFile_outflow -->
<g id="edge29" class="edge"><title>LogFile&#45;&gt;LogFile_outflow</title>
<path fill="none" stroke="black" d="M656.631,-373.909C633.492,-347.873 594,-295.718 594,-243 594,-243 594,-243 594,-169 594,-102.551 512.474,-55.9308 477.563,-39.0134"/>
<polygon fill="black" stroke="black" points="478.909,-35.7795 468.367,-34.7277 475.952,-42.1243 478.909,-35.7795"/>
</g>
<!-- UpdatedOccurrenceFile_outflow -->
<g id="node24" class="node"><title>UpdatedOccurrenceFile_outflow</title>
<ellipse fill="none" stroke="black" cx="430" cy="-31" rx="7" ry="7"/>
</g>
<!-- UpdatedOccurrenceFile&#45;&gt;UpdatedOccurrenceFile_outflow -->
<g id="edge30" class="edge"><title>UpdatedOccurrenceFile&#45;&gt;UpdatedOccurrenceFile_outflow</title>
<path fill="none" stroke="black" d="M333.374,-78.8492C359.921,-65.9778 394.962,-48.9881 414.726,-39.4058"/>
<polygon fill="black" stroke="black" points="416.511,-42.4297 423.983,-34.9176 413.457,-36.131 416.511,-42.4297"/>
</g>
<!-- DarwinCoreArchive_inflow -->
<g id="node22" class="node"><title>DarwinCoreArchive_inflow</title>
<ellipse fill="none" stroke="black" cx="584" cy="-1201" rx="7" ry="7"/>
</g>
<!-- DarwinCoreArchive_inflow&#45;&gt;DarwinCoreArchive -->
<g id="edge28" class="edge"><title>DarwinCoreArchive_inflow&#45;&gt;DarwinCoreArchive</title>
<path fill="none" stroke="black" d="M584,-1193.63C584,-1186.54 584,-1174.6 584,-1163.42"/>
<polygon fill="black" stroke="black" points="587.5,-1163.12 584,-1153.12 580.5,-1163.12 587.5,-1163.12"/>
</g>
</g>
</svg>
