<?xml version="1.0" encoding="UTF-8" standalone="no"?>
<!DOCTYPE svg PUBLIC "-//W3C//DTD SVG 1.1//EN"
 "http://www.w3.org/Graphics/SVG/1.1/DTD/svg11.dtd">
<!-- Generated by graphviz version 2.36.0 (20140111.2315)
 -->
<!-- Title: yw_data_view Pages: 1 -->
<svg width="570pt" height="1268pt"
 viewBox="0.00 0.00 570.00 1268.00" xmlns="http://www.w3.org/2000/svg" xmlns:xlink="http://www.w3.org/1999/xlink">
<g id="graph0" class="graph" transform="scale(1 1) rotate(0) translate(4 1264)">
<title>yw_data_view</title>
<polygon fill="white" stroke="none" points="-4,4 -4,-1264 566,-1264 566,4 -4,4"/>
<text text-anchor="middle" x="281" y="-1241.6" font-family="Courier,monospace" font-size="18.00">FileBranchingTaxonLookupWorkflow</text>
<g id="clust1" class="cluster"><title>cluster_workflow</title>
<polygon fill="none" stroke="black" stroke-width="2" points="8,-62 8,-1170 554,-1170 554,-62 8,-62"/>
</g>
<g id="clust2" class="cluster"><title>cluster_workflow_inner</title>
<polygon fill="none" stroke="white" stroke-width="2" points="16,-70 16,-1162 546,-1162 546,-70 16,-70"/>
</g>
<g id="clust3" class="cluster"><title>cluster_inflows</title>
<polygon fill="none" stroke="white" stroke-width="2" points="148,-1178 148,-1224 226,-1224 226,-1178 148,-1178"/>
</g>
<g id="clust4" class="cluster"><title>cluster_inflows_inner</title>
<polygon fill="none" stroke="white" stroke-width="2" points="156,-1186 156,-1216 218,-1216 218,-1186 156,-1186"/>
</g>
<g id="clust5" class="cluster"><title>cluster_outflows</title>
<polygon fill="none" stroke="white" stroke-width="2" points="327,-8 327,-54 405,-54 405,-8 327,-8"/>
</g>
<g id="clust6" class="cluster"><title>cluster_outflows_inner</title>
<polygon fill="none" stroke="white" stroke-width="2" points="335,-16 335,-46 397,-46 397,-16 335,-16"/>
</g>
<!-- FilterExcludingMarine -->
<g id="node1" class="node"><title>FilterExcludingMarine</title>
<polygon fill="#d6d6d7" stroke="black" points="296.25,-644 103.75,-644 103.75,-608 296.25,-608 296.25,-644"/>
<text text-anchor="middle" x="200" y="-622.3" font-family="Courier,monospace" font-size="14.00">FilterExcludingMarine</text>
</g>
<!-- notMarineDataRecord -->
<g id="node10" class="node"><title>notMarineDataRecord</title>
<path fill="#d6d6d7" stroke="black" d="M125.5,-524.5C125.5,-524.5 254.5,-524.5 254.5,-524.5 260.5,-524.5 266.5,-530.5 266.5,-536.5 266.5,-536.5 266.5,-559.5 266.5,-559.5 266.5,-565.5 260.5,-571.5 254.5,-571.5 254.5,-571.5 125.5,-571.5 125.5,-571.5 119.5,-571.5 113.5,-565.5 113.5,-559.5 113.5,-559.5 113.5,-536.5 113.5,-536.5 113.5,-530.5 119.5,-524.5 125.5,-524.5"/>
<text text-anchor="middle" x="190" y="-556.3" font-family="Helvetica,sans-Serif" font-size="14.00">notMarineDataRecord</text>
<polyline fill="none" stroke="black" points="113.5,-548.5 266.5,-548.5 "/>
</g>
<!-- FilterExcludingMarine&#45;&gt;notMarineDataRecord -->
<g id="edge21" class="edge"><title>FilterExcludingMarine&#45;&gt;notMarineDataRecord</title>
<path fill="none" stroke="black" d="M197.731,-607.754C196.72,-600.074 195.495,-590.761 194.321,-581.836"/>
<polygon fill="black" stroke="black" points="197.756,-581.116 192.981,-571.658 190.816,-582.029 197.756,-581.116"/>
</g>
<!-- LogFile -->
<g id="node20" class="node"><title>LogFile</title>
<path fill="#ffe4b5" stroke="black" d="M478.5,-374C478.5,-374 525.5,-374 525.5,-374 531.5,-374 537.5,-380 537.5,-386 537.5,-386 537.5,-398 537.5,-398 537.5,-404 531.5,-410 525.5,-410 525.5,-410 478.5,-410 478.5,-410 472.5,-410 466.5,-404 466.5,-398 466.5,-398 466.5,-386 466.5,-386 466.5,-380 472.5,-374 478.5,-374"/>
<text text-anchor="middle" x="502" y="-398.8" font-family="Courier,monospace" font-weight="bold" font-size="9.00">LogFile</text>
<polyline fill="none" stroke="black" points="466.5,-392 537.5,-392 "/>
<text text-anchor="middle" x="502" y="-380.8" font-family="Courier,monospace" font-weight="bold" font-size="9.00">runlog.log</text>
</g>
<!-- FilterExcludingMarine&#45;&gt;LogFile -->
<g id="edge20" class="edge"><title>FilterExcludingMarine&#45;&gt;LogFile</title>
<path fill="none" stroke="black" d="M232.009,-607.971C246.672,-598.883 263.34,-586.561 275,-572 311.114,-526.9 281.605,-490.147 325,-452 370.672,-411.852 400.292,-437.954 457,-416 458.381,-415.465 459.775,-414.901 461.175,-414.314"/>
<polygon fill="black" stroke="black" points="462.725,-417.455 470.415,-410.167 459.858,-411.069 462.725,-417.455"/>
</g>
<!-- GBIFLookup -->
<g id="node2" class="node"><title>GBIFLookup</title>
<polygon fill="#d6d6d7" stroke="black" points="240.25,-488 139.75,-488 139.75,-452 240.25,-452 240.25,-488"/>
<text text-anchor="middle" x="190" y="-466.3" font-family="Courier,monospace" font-size="14.00">GBIFLookup</text>
</g>
<!-- GBIFUpdatedRecord -->
<g id="node11" class="node"><title>GBIFUpdatedRecord</title>
<path fill="#d6d6d7" stroke="black" d="M56.5,-368.5C56.5,-368.5 179.5,-368.5 179.5,-368.5 185.5,-368.5 191.5,-374.5 191.5,-380.5 191.5,-380.5 191.5,-403.5 191.5,-403.5 191.5,-409.5 185.5,-415.5 179.5,-415.5 179.5,-415.5 56.5,-415.5 56.5,-415.5 50.5,-415.5 44.5,-409.5 44.5,-403.5 44.5,-403.5 44.5,-380.5 44.5,-380.5 44.5,-374.5 50.5,-368.5 56.5,-368.5"/>
<text text-anchor="middle" x="118" y="-400.3" font-family="Helvetica,sans-Serif" font-size="14.00">GBIFUpdatedRecord</text>
<polyline fill="none" stroke="black" points="44.5,-392.5 191.5,-392.5 "/>
</g>
<!-- GBIFLookup&#45;&gt;GBIFUpdatedRecord -->
<g id="edge25" class="edge"><title>GBIFLookup&#45;&gt;GBIFUpdatedRecord</title>
<path fill="none" stroke="black" d="M173.662,-451.754C165.595,-443.239 155.627,-432.718 146.366,-422.942"/>
<polygon fill="black" stroke="black" points="148.884,-420.51 139.465,-415.658 143.802,-425.324 148.884,-420.51"/>
</g>
<!-- GBIFLookup&#45;&gt;LogFile -->
<g id="edge24" class="edge"><title>GBIFLookup&#45;&gt;LogFile</title>
<path fill="none" stroke="black" d="M240.259,-459.394C314.738,-445.106 446.788,-419.546 457,-416 458.595,-415.446 460.205,-414.845 461.819,-414.208"/>
<polygon fill="black" stroke="black" points="463.228,-417.412 471.017,-410.229 460.449,-410.987 463.228,-417.412"/>
</g>
<!-- Setup -->
<g id="node3" class="node"><title>Setup</title>
<polygon fill="#ccffcc" stroke="black" points="242.25,-1080 183.75,-1080 183.75,-1044 242.25,-1044 242.25,-1080"/>
<text text-anchor="middle" x="213" y="-1058.3" font-family="Courier,monospace" font-size="14.00">Setup</text>
</g>
<!-- Workspace -->
<g id="node17" class="node"><title>Workspace</title>
<path fill="#ffffcc" stroke="black" d="M170,-936C170,-936 132,-936 132,-936 126,-936 120,-930 120,-924 120,-924 120,-912 120,-912 120,-906 126,-900 132,-900 132,-900 170,-900 170,-900 176,-900 182,-906 182,-912 182,-912 182,-924 182,-924 182,-930 176,-936 170,-936"/>
<text text-anchor="middle" x="151" y="-915.8" font-family="Helvetica,sans-Serif" font-size="9.00">Workspace</text>
</g>
<!-- Setup&#45;&gt;Workspace -->
<g id="edge13" class="edge"><title>Setup&#45;&gt;Workspace</title>
<path fill="none" stroke="black" d="M205.521,-1043.87C194.862,-1019.46 175.2,-974.426 162.629,-945.635"/>
<polygon fill="black" stroke="black" points="165.714,-943.953 158.505,-936.189 159.299,-946.754 165.714,-943.953"/>
</g>
<!-- OccurrenceFile -->
<g id="node18" class="node"><title>OccurrenceFile</title>
<path fill="#ffffcc" stroke="black" d="M286,-1008C286,-1008 232,-1008 232,-1008 226,-1008 220,-1002 220,-996 220,-996 220,-984 220,-984 220,-978 226,-972 232,-972 232,-972 286,-972 286,-972 292,-972 298,-978 298,-984 298,-984 298,-996 298,-996 298,-1002 292,-1008 286,-1008"/>
<text text-anchor="middle" x="259" y="-987.8" font-family="Helvetica,sans-Serif" font-size="9.00">OccurrenceFile</text>
</g>
<!-- Setup&#45;&gt;OccurrenceFile -->
<g id="edge14" class="edge"><title>Setup&#45;&gt;OccurrenceFile</title>
<path fill="none" stroke="black" d="M224.371,-1043.7C229.718,-1035.56 236.204,-1025.69 242.111,-1016.7"/>
<polygon fill="black" stroke="black" points="245.193,-1018.38 247.76,-1008.1 239.343,-1014.54 245.193,-1018.38"/>
</g>
<!-- FileToDataStream -->
<g id="node4" class="node"><title>FileToDataStream</title>
<polygon fill="#ccffcc" stroke="black" points="361.25,-936 210.75,-936 210.75,-900 361.25,-900 361.25,-936"/>
<text text-anchor="middle" x="286" y="-914.3" font-family="Courier,monospace" font-size="14.00">FileToDataStream</text>
</g>
<!-- DataRecord -->
<g id="node12" class="node"><title>DataRecord</title>
<path fill="#f8d2db" stroke="black" d="M251,-827C251,-827 325,-827 325,-827 331,-827 337,-833 337,-839 337,-839 337,-851 337,-851 337,-857 331,-863 325,-863 325,-863 251,-863 251,-863 245,-863 239,-857 239,-851 239,-851 239,-839 239,-839 239,-833 245,-827 251,-827"/>
<text text-anchor="middle" x="288" y="-851.8" font-family="Courier,monospace" font-weight="bold" font-size="9.00">DataRecord</text>
<polyline fill="none" stroke="black" points="239,-845 337,-845 "/>
<text text-anchor="middle" x="288" y="-833.8" font-family="Courier,monospace" font-weight="bold" font-size="9.00">MCZ:Mala:303063</text>
</g>
<!-- FileToDataStream&#45;&gt;DataRecord -->
<g id="edge15" class="edge"><title>FileToDataStream&#45;&gt;DataRecord</title>
<path fill="none" stroke="black" d="M286.484,-899.813C286.71,-891.789 286.985,-882.047 287.237,-873.069"/>
<polygon fill="black" stroke="black" points="290.737,-873.123 287.52,-863.029 283.74,-872.926 290.737,-873.123"/>
</g>
<!-- EnvironmentTagger -->
<g id="node5" class="node"><title>EnvironmentTagger</title>
<polygon fill="#ccffcc" stroke="black" points="372.25,-790 213.75,-790 213.75,-754 372.25,-754 372.25,-790"/>
<text text-anchor="middle" x="293" y="-768.3" font-family="Courier,monospace" font-size="14.00">EnvironmentTagger</text>
</g>
<!-- TaggedDataRecord -->
<g id="node13" class="node"><title>TaggedDataRecord</title>
<path fill="#f8d2db" stroke="black" d="M253.5,-681C253.5,-681 332.5,-681 332.5,-681 338.5,-681 344.5,-687 344.5,-693 344.5,-693 344.5,-705 344.5,-705 344.5,-711 338.5,-717 332.5,-717 332.5,-717 253.5,-717 253.5,-717 247.5,-717 241.5,-711 241.5,-705 241.5,-705 241.5,-693 241.5,-693 241.5,-687 247.5,-681 253.5,-681"/>
<text text-anchor="middle" x="293" y="-705.8" font-family="Courier,monospace" font-weight="bold" font-size="9.00">TaggedDataRecord</text>
<polyline fill="none" stroke="black" points="241.5,-699 344.5,-699 "/>
<text text-anchor="middle" x="293" y="-687.8" font-family="Courier,monospace" font-weight="bold" font-size="9.00">Marine</text>
</g>
<!-- EnvironmentTagger&#45;&gt;TaggedDataRecord -->
<g id="edge17" class="edge"><title>EnvironmentTagger&#45;&gt;TaggedDataRecord</title>
<path fill="none" stroke="black" d="M293,-753.813C293,-745.789 293,-736.047 293,-727.069"/>
<polygon fill="black" stroke="black" points="296.5,-727.029 293,-717.029 289.5,-727.029 296.5,-727.029"/>
</g>
<!-- EnvironmentTagger&#45;&gt;LogFile -->
<g id="edge16" class="edge"><title>EnvironmentTagger&#45;&gt;LogFile</title>
<path fill="none" stroke="black" d="M369.903,-753.917C433.006,-734.829 512,-696.962 512,-627 512,-627 512,-627 512,-547 512,-502.617 507.813,-451.189 504.857,-420.419"/>
<polygon fill="black" stroke="black" points="508.301,-419.675 503.834,-410.068 501.335,-420.364 508.301,-419.675"/>
</g>
<!-- FilterToJustMarine -->
<g id="node6" class="node"><title>FilterToJustMarine</title>
<polygon fill="#ccffcc" stroke="black" points="483,-644 315,-644 315,-608 483,-608 483,-644"/>
<text text-anchor="middle" x="399" y="-622.3" font-family="Courier,monospace" font-size="14.00">FilterToJustMarine</text>
</g>
<!-- MarineDataRecord -->
<g id="node14" class="node"><title>MarineDataRecord</title>
<path fill="#f8d2db" stroke="black" d="M317,-530C317,-530 461,-530 461,-530 467,-530 473,-536 473,-542 473,-542 473,-554 473,-554 473,-560 467,-566 461,-566 461,-566 317,-566 317,-566 311,-566 305,-560 305,-554 305,-554 305,-542 305,-542 305,-536 311,-530 317,-530"/>
<text text-anchor="middle" x="389" y="-554.8" font-family="Courier,monospace" font-weight="bold" font-size="9.00">MarineDataRecord</text>
<polyline fill="none" stroke="black" points="305,-548 473,-548 "/>
<text text-anchor="middle" x="389" y="-536.8" font-family="Courier,monospace" font-weight="bold" font-size="9.00">Cypraea argus:Linnaeus, 1758</text>
</g>
<!-- FilterToJustMarine&#45;&gt;MarineDataRecord -->
<g id="edge19" class="edge"><title>FilterToJustMarine&#45;&gt;MarineDataRecord</title>
<path fill="none" stroke="black" d="M396.731,-607.754C395.503,-598.426 393.959,-586.691 392.574,-576.165"/>
<polygon fill="black" stroke="black" points="396.035,-575.635 391.26,-566.177 389.095,-576.548 396.035,-575.635"/>
</g>
<!-- FilterToJustMarine&#45;&gt;LogFile -->
<g id="edge18" class="edge"><title>FilterToJustMarine&#45;&gt;LogFile</title>
<path fill="none" stroke="black" d="M440.795,-607.819C456.245,-599.336 472.331,-587.53 482,-572 497.351,-547.345 500.954,-464.223 501.776,-420.465"/>
<polygon fill="black" stroke="black" points="505.279,-420.299 501.931,-410.248 498.28,-420.193 505.279,-420.299"/>
</g>
<!-- WoRMSLookup -->
<g id="node7" class="node"><title>WoRMSLookup</title>
<polygon fill="#ccffcc" stroke="black" points="443.25,-488 334.75,-488 334.75,-452 443.25,-452 443.25,-488"/>
<text text-anchor="middle" x="389" y="-466.3" font-family="Courier,monospace" font-size="14.00">WoRMSLookup</text>
</g>
<!-- WoRMSUpdatedRecord -->
<g id="node15" class="node"><title>WoRMSUpdatedRecord</title>
<path fill="#f8d2db" stroke="black" d="M222,-374C222,-374 436,-374 436,-374 442,-374 448,-380 448,-386 448,-386 448,-398 448,-398 448,-404 442,-410 436,-410 436,-410 222,-410 222,-410 216,-410 210,-404 210,-398 210,-398 210,-386 210,-386 210,-380 216,-374 222,-374"/>
<text text-anchor="middle" x="329" y="-398.8" font-family="Courier,monospace" font-weight="bold" font-size="9.00">WoRMSUpdatedRecord</text>
<polyline fill="none" stroke="black" points="210,-392 448,-392 "/>
<text text-anchor="middle" x="329" y="-380.8" font-family="Courier,monospace" font-weight="bold" font-size="9.00">urn:lsid:marinespecies.org:taxname:216786</text>
</g>
<!-- WoRMSLookup&#45;&gt;WoRMSUpdatedRecord -->
<g id="edge23" class="edge"><title>WoRMSLookup&#45;&gt;WoRMSUpdatedRecord</title>
<path fill="none" stroke="black" d="M375.385,-451.754C367.56,-441.843 357.59,-429.214 348.9,-418.207"/>
<polygon fill="black" stroke="black" points="351.505,-415.857 342.561,-410.177 346.01,-420.195 351.505,-415.857"/>
</g>
<!-- WoRMSLookup&#45;&gt;LogFile -->
<g id="edge22" class="edge"><title>WoRMSLookup&#45;&gt;LogFile</title>
<path fill="none" stroke="black" d="M414.359,-451.944C430.096,-441.36 450.521,-427.623 467.693,-416.074"/>
<polygon fill="black" stroke="black" points="469.99,-418.747 476.334,-410.262 466.083,-412.939 469.99,-418.747"/>
</g>
<!-- StreamMerge -->
<g id="node8" class="node"><title>StreamMerge</title>
<polygon fill="#ccffcc" stroke="black" points="256.25,-332 147.75,-332 147.75,-296 256.25,-296 256.25,-332"/>
<text text-anchor="middle" x="202" y="-310.3" font-family="Courier,monospace" font-size="14.00">StreamMerge</text>
</g>
<!-- MergedStream -->
<g id="node19" class="node"><title>MergedStream</title>
<path fill="#ffffcc" stroke="black" d="M228,-260C228,-260 176,-260 176,-260 170,-260 164,-254 164,-248 164,-248 164,-236 164,-236 164,-230 170,-224 176,-224 176,-224 228,-224 228,-224 234,-224 240,-230 240,-236 240,-236 240,-248 240,-248 240,-254 234,-260 228,-260"/>
<text text-anchor="middle" x="202" y="-239.8" font-family="Helvetica,sans-Serif" font-size="9.00">MergedStream</text>
</g>
<!-- StreamMerge&#45;&gt;MergedStream -->
<g id="edge26" class="edge"><title>StreamMerge&#45;&gt;MergedStream</title>
<path fill="none" stroke="black" d="M202,-295.697C202,-287.983 202,-278.712 202,-270.112"/>
<polygon fill="black" stroke="black" points="205.5,-270.104 202,-260.104 198.5,-270.104 205.5,-270.104"/>
</g>
<!-- CsvFileWriter -->
<g id="node9" class="node"><title>CsvFileWriter</title>
<polygon fill="#ccffcc" stroke="black" points="265,-188 139,-188 139,-152 265,-152 265,-188"/>
<text text-anchor="middle" x="202" y="-166.3" font-family="Courier,monospace" font-size="14.00">CsvFileWriter</text>
</g>
<!-- UpdatedDarwinCoreFile -->
<g id="node21" class="node"><title>UpdatedDarwinCoreFile</title>
<path fill="#ffe4b5" stroke="black" d="M72,-79C72,-79 426,-79 426,-79 432,-79 438,-85 438,-91 438,-91 438,-103 438,-103 438,-109 432,-115 426,-115 426,-115 72,-115 72,-115 66,-115 60,-109 60,-103 60,-103 60,-91 60,-91 60,-85 66,-79 72,-79"/>
<text text-anchor="middle" x="249" y="-103.8" font-family="Courier,monospace" font-weight="bold" font-size="9.00">UpdatedDarwinCoreFile</text>
<polyline fill="none" stroke="black" points="60,-97 438,-97 "/>
<text text-anchor="middle" x="249" y="-85.8" font-family="Courier,monospace" font-weight="bold" font-size="9.00">workspace_18338630&#45;a81c&#45;11e7&#45;8146&#45;acbc3296f741/mergedoutputfile.csv</text>
</g>
<!-- CsvFileWriter&#45;&gt;UpdatedDarwinCoreFile -->
<g id="edge27" class="edge"><title>CsvFileWriter&#45;&gt;UpdatedDarwinCoreFile</title>
<path fill="none" stroke="black" d="M213.377,-151.813C218.977,-143.353 225.842,-132.984 232.045,-123.612"/>
<polygon fill="black" stroke="black" points="235.126,-125.299 237.727,-115.029 229.289,-121.435 235.126,-125.299"/>
</g>
<!-- notMarineDataRecord&#45;&gt;GBIFLookup -->
<g id="edge9" class="edge"><title>notMarineDataRecord&#45;&gt;GBIFLookup</title>
<path fill="none" stroke="black" d="M190,-524.197C190,-516.081 190,-506.858 190,-498.397"/>
<polygon fill="black" stroke="black" points="193.5,-498.228 190,-488.228 186.5,-498.228 193.5,-498.228"/>
</g>
<!-- GBIFUpdatedRecord&#45;&gt;StreamMerge -->
<g id="edge11" class="edge"><title>GBIFUpdatedRecord&#45;&gt;StreamMerge</title>
<path fill="none" stroke="black" d="M143.203,-368.197C153.369,-358.999 165.108,-348.379 175.41,-339.057"/>
<polygon fill="black" stroke="black" points="177.892,-341.532 182.959,-332.228 173.195,-336.342 177.892,-341.532"/>
</g>
<!-- DataRecord&#45;&gt;EnvironmentTagger -->
<g id="edge5" class="edge"><title>DataRecord&#45;&gt;EnvironmentTagger</title>
<path fill="none" stroke="black" d="M289.21,-826.813C289.775,-818.789 290.461,-809.047 291.094,-800.069"/>
<polygon fill="black" stroke="black" points="294.59,-800.25 291.801,-790.029 287.607,-799.758 294.59,-800.25"/>
</g>
<!-- TaggedDataRecord&#45;&gt;FilterExcludingMarine -->
<g id="edge7" class="edge"><title>TaggedDataRecord&#45;&gt;FilterExcludingMarine</title>
<path fill="none" stroke="black" d="M270.487,-680.813C258.493,-671.656 243.566,-660.26 230.54,-650.316"/>
<polygon fill="black" stroke="black" points="232.378,-647.315 222.305,-644.029 228.13,-652.879 232.378,-647.315"/>
</g>
<!-- TaggedDataRecord&#45;&gt;FilterToJustMarine -->
<g id="edge6" class="edge"><title>TaggedDataRecord&#45;&gt;FilterToJustMarine</title>
<path fill="none" stroke="black" d="M318.39,-680.994C332.316,-671.666 349.771,-659.974 364.874,-649.858"/>
<polygon fill="black" stroke="black" points="367.09,-652.587 373.45,-644.114 363.194,-646.771 367.09,-652.587"/>
</g>
<!-- MarineDataRecord&#45;&gt;WoRMSLookup -->
<g id="edge8" class="edge"><title>MarineDataRecord&#45;&gt;WoRMSLookup</title>
<path fill="none" stroke="black" d="M389,-529.754C389,-520.523 389,-508.935 389,-498.495"/>
<polygon fill="black" stroke="black" points="392.5,-498.177 389,-488.177 385.5,-498.177 392.5,-498.177"/>
</g>
<!-- WoRMSUpdatedRecord&#45;&gt;StreamMerge -->
<g id="edge10" class="edge"><title>WoRMSUpdatedRecord&#45;&gt;StreamMerge</title>
<path fill="none" stroke="black" d="M300.499,-373.944C282.488,-363.166 259.013,-349.118 239.499,-337.44"/>
<polygon fill="black" stroke="black" points="241.224,-334.394 230.846,-332.262 237.629,-340.4 241.224,-334.394"/>
</g>
<!-- DarwinCoreFile -->
<g id="node16" class="node"><title>DarwinCoreFile</title>
<path fill="#ffe4b5" stroke="black" d="M132.5,-1117C132.5,-1117 481.5,-1117 481.5,-1117 487.5,-1117 493.5,-1123 493.5,-1129 493.5,-1129 493.5,-1141 493.5,-1141 493.5,-1147 487.5,-1153 481.5,-1153 481.5,-1153 132.5,-1153 132.5,-1153 126.5,-1153 120.5,-1147 120.5,-1141 120.5,-1141 120.5,-1129 120.5,-1129 120.5,-1123 126.5,-1117 132.5,-1117"/>
<text text-anchor="middle" x="307" y="-1141.8" font-family="Courier,monospace" font-weight="bold" font-size="9.00">DarwinCoreFile</text>
<polyline fill="none" stroke="black" points="120.5,-1135 493.5,-1135 "/>
<text text-anchor="middle" x="307" y="-1123.8" font-family="Courier,monospace" font-weight="bold" font-size="9.00">packages/kurator_branching_generic/data/kurator_sample_data_v2.txt</text>
</g>
<!-- DarwinCoreFile&#45;&gt;Setup -->
<g id="edge2" class="edge"><title>DarwinCoreFile&#45;&gt;Setup</title>
<path fill="none" stroke="black" d="M284.245,-1116.81C272.122,-1107.66 257.034,-1096.26 243.869,-1086.32"/>
<polygon fill="black" stroke="black" points="245.634,-1083.26 235.545,-1080.03 241.415,-1088.85 245.634,-1083.26"/>
</g>
<!-- Workspace&#45;&gt;CsvFileWriter -->
<g id="edge3" class="edge"><title>Workspace&#45;&gt;CsvFileWriter</title>
<path fill="none" stroke="black" d="M120.499,-899.933C83.2089,-876.553 25,-830.801 25,-773 25,-773 25,-773 25,-313 25,-252.547 88.595,-213.547 139.546,-192.002"/>
<polygon fill="black" stroke="black" points="140.962,-195.204 148.894,-188.181 138.313,-188.724 140.962,-195.204"/>
</g>
<!-- OccurrenceFile&#45;&gt;FileToDataStream -->
<g id="edge4" class="edge"><title>OccurrenceFile&#45;&gt;FileToDataStream</title>
<path fill="none" stroke="black" d="M265.674,-971.697C268.715,-963.813 272.383,-954.304 275.761,-945.546"/>
<polygon fill="black" stroke="black" points="279.069,-946.694 279.403,-936.104 272.538,-944.175 279.069,-946.694"/>
</g>
<!-- MergedStream&#45;&gt;CsvFileWriter -->
<g id="edge12" class="edge"><title>MergedStream&#45;&gt;CsvFileWriter</title>
<path fill="none" stroke="black" d="M202,-223.697C202,-215.983 202,-206.712 202,-198.112"/>
<polygon fill="black" stroke="black" points="205.5,-198.104 202,-188.104 198.5,-198.104 205.5,-198.104"/>
</g>
<!-- LogFile_outflow -->
<g id="node25" class="node"><title>LogFile_outflow</title>
<ellipse fill="none" stroke="black" cx="382" cy="-31" rx="7" ry="7"/>
</g>
<!-- LogFile&#45;&gt;LogFile_outflow -->
<g id="edge30" class="edge"><title>LogFile&#45;&gt;LogFile_outflow</title>
<path fill="none" stroke="black" d="M498.529,-373.766C493.299,-346.247 484,-290.626 484,-243 484,-243 484,-243 484,-169 484,-118.682 480.767,-99.3057 447,-62 434.232,-47.8946 413.493,-39.9315 398.88,-35.8084"/>
<polygon fill="black" stroke="black" points="399.293,-32.3044 388.744,-33.281 397.6,-39.0965 399.293,-32.3044"/>
</g>
<!-- UpdatedDarwinCoreFile_outflow -->
<g id="node26" class="node"><title>UpdatedDarwinCoreFile_outflow</title>
<ellipse fill="none" stroke="black" cx="350" cy="-31" rx="7" ry="7"/>
</g>
<!-- UpdatedDarwinCoreFile&#45;&gt;UpdatedDarwinCoreFile_outflow -->
<g id="edge31" class="edge"><title>UpdatedDarwinCoreFile&#45;&gt;UpdatedDarwinCoreFile_outflow</title>
<path fill="none" stroke="black" d="M276.066,-78.8492C295.239,-66.6999 320.203,-50.8812 335.661,-41.0862"/>
<polygon fill="black" stroke="black" points="337.716,-43.9275 344.29,-35.6185 333.969,-38.0146 337.716,-43.9275"/>
</g>
<!-- InputFilePath -->
<g id="node22" class="node"><title>InputFilePath</title>
<path fill="#ffffff" stroke="black" d="M90,-1153C90,-1153 44,-1153 44,-1153 38,-1153 32,-1147 32,-1141 32,-1141 32,-1129 32,-1129 32,-1123 38,-1117 44,-1117 44,-1117 90,-1117 90,-1117 96,-1117 102,-1123 102,-1129 102,-1129 102,-1141 102,-1141 102,-1147 96,-1153 90,-1153"/>
<text text-anchor="middle" x="67" y="-1132.8" font-family="Helvetica,sans-Serif" font-size="9.00">InputFilePath</text>
</g>
<!-- InputFilePath&#45;&gt;Setup -->
<g id="edge1" class="edge"><title>InputFilePath&#45;&gt;Setup</title>
<path fill="none" stroke="black" d="M101.971,-1116.99C123.82,-1106.37 151.976,-1092.68 174.466,-1081.74"/>
<polygon fill="black" stroke="black" points="176.261,-1084.76 183.724,-1077.24 173.2,-1078.46 176.261,-1084.76"/>
</g>
<!-- DarwinCoreFile_inflow -->
<g id="node23" class="node"><title>DarwinCoreFile_inflow</title>
<ellipse fill="none" stroke="black" cx="203" cy="-1201" rx="7" ry="7"/>
</g>
<!-- DarwinCoreFile_inflow&#45;&gt;DarwinCoreFile -->
<g id="edge28" class="edge"><title>DarwinCoreFile_inflow&#45;&gt;DarwinCoreFile</title>
<path fill="none" stroke="black" d="M208.591,-1196.56C220.189,-1189.42 247.699,-1172.49 270.692,-1158.34"/>
<polygon fill="black" stroke="black" points="272.559,-1161.3 279.241,-1153.08 268.89,-1155.34 272.559,-1161.3"/>
</g>
<!-- InputFilePath_inflow -->
<g id="node24" class="node"><title>InputFilePath_inflow</title>
<ellipse fill="none" stroke="black" cx="171" cy="-1201" rx="7" ry="7"/>
</g>
<!-- InputFilePath_inflow&#45;&gt;InputFilePath -->
<g id="edge29" class="edge"><title>InputFilePath_inflow&#45;&gt;InputFilePath</title>
<path fill="none" stroke="black" d="M164.829,-1197.39C153.713,-1192.59 129.739,-1181.77 111,-1170 105.867,-1166.78 100.606,-1163.09 95.5877,-1159.36"/>
<polygon fill="black" stroke="black" points="97.5044,-1156.42 87.4372,-1153.12 93.248,-1161.98 97.5044,-1156.42"/>
</g>
</g>
</svg>
