<?xml version="1.0" encoding="UTF-8" standalone="no"?>
<!DOCTYPE svg PUBLIC "-//W3C//DTD SVG 1.1//EN"
 "http://www.w3.org/Graphics/SVG/1.1/DTD/svg11.dtd">
<!-- Generated by graphviz version 2.36.0 (20140111.2315)
 -->
<!-- Title: yw_data_view Pages: 1 -->
<svg width="518pt" height="1240pt"
 viewBox="0.00 0.00 518.00 1240.00" xmlns="http://www.w3.org/2000/svg" xmlns:xlink="http://www.w3.org/1999/xlink">
<g id="graph0" class="graph" transform="scale(1 1) rotate(0) translate(4 1236)">
<title>yw_data_view</title>
<polygon fill="white" stroke="none" points="-4,4 -4,-1236 514,-1236 514,4 -4,4"/>
<text text-anchor="middle" x="255" y="-1213.6" font-family="Courier,monospace" font-size="18.00">FileBranchingTaxonLookupWorkflow</text>
<g id="clust5" class="cluster"><title>cluster_outflows</title>
<polygon fill="none" stroke="white" stroke-width="2" points="190,-8 190,-54 236,-54 236,-8 190,-8"/>
</g>
<g id="clust6" class="cluster"><title>cluster_outflows_inner</title>
<polygon fill="none" stroke="white" stroke-width="2" points="198,-16 198,-46 228,-46 228,-16 198,-16"/>
</g>
<g id="clust3" class="cluster"><title>cluster_inflows</title>
<polygon fill="none" stroke="white" stroke-width="2" points="140,-1150 140,-1196 218,-1196 218,-1150 140,-1150"/>
</g>
<g id="clust4" class="cluster"><title>cluster_inflows_inner</title>
<polygon fill="none" stroke="white" stroke-width="2" points="148,-1158 148,-1188 210,-1188 210,-1158 148,-1158"/>
</g>
<g id="clust1" class="cluster"><title>cluster_workflow</title>
<polygon fill="none" stroke="black" stroke-width="2" points="8,-62 8,-1142 502,-1142 502,-62 8,-62"/>
</g>
<g id="clust2" class="cluster"><title>cluster_workflow_inner</title>
<polygon fill="none" stroke="white" stroke-width="2" points="16,-70 16,-1134 494,-1134 494,-70 16,-70"/>
</g>
<!-- Setup -->
<g id="node1" class="node"><title>Setup</title>
<polygon fill="#ccffcc" stroke="black" points="168.25,-1052 109.75,-1052 109.75,-1016 168.25,-1016 168.25,-1052"/>
<text text-anchor="middle" x="139" y="-1030.3" font-family="Courier,monospace" font-size="14.00">Setup</text>
</g>
<!-- Workspace -->
<g id="node10" class="node"><title>Workspace</title>
<path fill="#ffffcc" stroke="black" d="M118.25,-908C118.25,-908 55.75,-908 55.75,-908 49.75,-908 43.75,-902 43.75,-896 43.75,-896 43.75,-884 43.75,-884 43.75,-878 49.75,-872 55.75,-872 55.75,-872 118.25,-872 118.25,-872 124.25,-872 130.25,-878 130.25,-884 130.25,-884 130.25,-896 130.25,-896 130.25,-902 124.25,-908 118.25,-908"/>
<text text-anchor="middle" x="87" y="-886.3" font-family="Helvetica,sans-Serif" font-size="14.00">Workspace</text>
</g>
<!-- Setup&#45;&gt;Workspace -->
<g id="edge13" class="edge"><title>Setup&#45;&gt;Workspace</title>
<path fill="none" stroke="black" d="M132.728,-1015.87C123.787,-991.457 107.297,-946.426 96.7537,-917.635"/>
<polygon fill="black" stroke="black" points="100.02,-916.376 93.2947,-908.189 93.4468,-918.783 100.02,-916.376"/>
</g>
<!-- OccurrenceFile -->
<g id="node11" class="node"><title>OccurrenceFile</title>
<path fill="#ffffcc" stroke="black" d="M251.25,-980C251.25,-980 164.75,-980 164.75,-980 158.75,-980 152.75,-974 152.75,-968 152.75,-968 152.75,-956 152.75,-956 152.75,-950 158.75,-944 164.75,-944 164.75,-944 251.25,-944 251.25,-944 257.25,-944 263.25,-950 263.25,-956 263.25,-956 263.25,-968 263.25,-968 263.25,-974 257.25,-980 251.25,-980"/>
<text text-anchor="middle" x="208" y="-958.3" font-family="Helvetica,sans-Serif" font-size="14.00">OccurrenceFile</text>
</g>
<!-- Setup&#45;&gt;OccurrenceFile -->
<g id="edge14" class="edge"><title>Setup&#45;&gt;OccurrenceFile</title>
<path fill="none" stroke="black" d="M156.056,-1015.7C164.495,-1007.14 174.825,-996.656 184.043,-987.304"/>
<polygon fill="black" stroke="black" points="186.613,-989.683 191.14,-980.104 181.627,-984.769 186.613,-989.683"/>
</g>
<!-- FileToDataStream -->
<g id="node2" class="node"><title>FileToDataStream</title>
<polygon fill="#ccffcc" stroke="black" points="299.25,-908 148.75,-908 148.75,-872 299.25,-872 299.25,-908"/>
<text text-anchor="middle" x="224" y="-886.3" font-family="Courier,monospace" font-size="14.00">FileToDataStream</text>
</g>
<!-- DataRecord -->
<g id="node12" class="node"><title>DataRecord</title>
<path fill="#ffffcc" stroke="black" d="M257.25,-836C257.25,-836 190.75,-836 190.75,-836 184.75,-836 178.75,-830 178.75,-824 178.75,-824 178.75,-812 178.75,-812 178.75,-806 184.75,-800 190.75,-800 190.75,-800 257.25,-800 257.25,-800 263.25,-800 269.25,-806 269.25,-812 269.25,-812 269.25,-824 269.25,-824 269.25,-830 263.25,-836 257.25,-836"/>
<text text-anchor="middle" x="224" y="-814.3" font-family="Helvetica,sans-Serif" font-size="14.00">DataRecord</text>
</g>
<!-- FileToDataStream&#45;&gt;DataRecord -->
<g id="edge15" class="edge"><title>FileToDataStream&#45;&gt;DataRecord</title>
<path fill="none" stroke="black" d="M224,-871.697C224,-863.983 224,-854.712 224,-846.112"/>
<polygon fill="black" stroke="black" points="227.5,-846.104 224,-836.104 220.5,-846.104 227.5,-846.104"/>
</g>
<!-- EnvironmentTagger -->
<g id="node3" class="node"><title>EnvironmentTagger</title>
<polygon fill="#ccffcc" stroke="black" points="303.25,-764 144.75,-764 144.75,-728 303.25,-728 303.25,-764"/>
<text text-anchor="middle" x="224" y="-742.3" font-family="Courier,monospace" font-size="14.00">EnvironmentTagger</text>
</g>
<!-- TaggedDataRecord -->
<g id="node13" class="node"><title>TaggedDataRecord</title>
<path fill="#ffffcc" stroke="black" d="M281.25,-692C281.25,-692 166.75,-692 166.75,-692 160.75,-692 154.75,-686 154.75,-680 154.75,-680 154.75,-668 154.75,-668 154.75,-662 160.75,-656 166.75,-656 166.75,-656 281.25,-656 281.25,-656 287.25,-656 293.25,-662 293.25,-668 293.25,-668 293.25,-680 293.25,-680 293.25,-686 287.25,-692 281.25,-692"/>
<text text-anchor="middle" x="224" y="-670.3" font-family="Helvetica,sans-Serif" font-size="14.00">TaggedDataRecord</text>
</g>
<!-- EnvironmentTagger&#45;&gt;TaggedDataRecord -->
<g id="edge16" class="edge"><title>EnvironmentTagger&#45;&gt;TaggedDataRecord</title>
<path fill="none" stroke="black" d="M224,-727.697C224,-719.983 224,-710.712 224,-702.112"/>
<polygon fill="black" stroke="black" points="227.5,-702.104 224,-692.104 220.5,-702.104 227.5,-702.104"/>
</g>
<!-- FilterToJustMarine -->
<g id="node4" class="node"><title>FilterToJustMarine</title>
<polygon fill="#ccffcc" stroke="black" points="274,-620 106,-620 106,-584 274,-584 274,-620"/>
<text text-anchor="middle" x="190" y="-598.3" font-family="Courier,monospace" font-size="14.00">FilterToJustMarine</text>
</g>
<!-- MarineDataRecord -->
<g id="node14" class="node"><title>MarineDataRecord</title>
<path fill="#ffffcc" stroke="black" d="M245,-548C245,-548 135,-548 135,-548 129,-548 123,-542 123,-536 123,-536 123,-524 123,-524 123,-518 129,-512 135,-512 135,-512 245,-512 245,-512 251,-512 257,-518 257,-524 257,-524 257,-536 257,-536 257,-542 251,-548 245,-548"/>
<text text-anchor="middle" x="190" y="-526.3" font-family="Helvetica,sans-Serif" font-size="14.00">MarineDataRecord</text>
</g>
<!-- FilterToJustMarine&#45;&gt;MarineDataRecord -->
<g id="edge17" class="edge"><title>FilterToJustMarine&#45;&gt;MarineDataRecord</title>
<path fill="none" stroke="black" d="M190,-583.697C190,-575.983 190,-566.712 190,-558.112"/>
<polygon fill="black" stroke="black" points="193.5,-558.104 190,-548.104 186.5,-558.104 193.5,-558.104"/>
</g>
<!-- FilterExcludingMarine -->
<g id="node5" class="node"><title>FilterExcludingMarine</title>
<polygon fill="#ccffcc" stroke="black" points="485.25,-620 292.75,-620 292.75,-584 485.25,-584 485.25,-620"/>
<text text-anchor="middle" x="389" y="-598.3" font-family="Courier,monospace" font-size="14.00">FilterExcludingMarine</text>
</g>
<!-- notMarineDataRecord -->
<g id="node15" class="node"><title>notMarineDataRecord</title>
<path fill="#ffffcc" stroke="black" d="M451.25,-548C451.25,-548 322.75,-548 322.75,-548 316.75,-548 310.75,-542 310.75,-536 310.75,-536 310.75,-524 310.75,-524 310.75,-518 316.75,-512 322.75,-512 322.75,-512 451.25,-512 451.25,-512 457.25,-512 463.25,-518 463.25,-524 463.25,-524 463.25,-536 463.25,-536 463.25,-542 457.25,-548 451.25,-548"/>
<text text-anchor="middle" x="387" y="-526.3" font-family="Helvetica,sans-Serif" font-size="14.00">notMarineDataRecord</text>
</g>
<!-- FilterExcludingMarine&#45;&gt;notMarineDataRecord -->
<g id="edge18" class="edge"><title>FilterExcludingMarine&#45;&gt;notMarineDataRecord</title>
<path fill="none" stroke="black" d="M388.506,-583.697C388.285,-575.983 388.02,-566.712 387.775,-558.112"/>
<polygon fill="black" stroke="black" points="391.273,-558 387.489,-548.104 384.276,-558.2 391.273,-558"/>
</g>
<!-- WoRMSLookup -->
<g id="node6" class="node"><title>WoRMSLookup</title>
<polygon fill="#ccffcc" stroke="black" points="244.25,-476 135.75,-476 135.75,-440 244.25,-440 244.25,-476"/>
<text text-anchor="middle" x="190" y="-454.3" font-family="Courier,monospace" font-size="14.00">WoRMSLookup</text>
</g>
<!-- WoRMSUpdatedRecord -->
<g id="node16" class="node"><title>WoRMSUpdatedRecord</title>
<path fill="#ffffcc" stroke="black" d="M264.25,-404C264.25,-404 121.75,-404 121.75,-404 115.75,-404 109.75,-398 109.75,-392 109.75,-392 109.75,-380 109.75,-380 109.75,-374 115.75,-368 121.75,-368 121.75,-368 264.25,-368 264.25,-368 270.25,-368 276.25,-374 276.25,-380 276.25,-380 276.25,-392 276.25,-392 276.25,-398 270.25,-404 264.25,-404"/>
<text text-anchor="middle" x="193" y="-382.3" font-family="Helvetica,sans-Serif" font-size="14.00">WoRMSUpdatedRecord</text>
</g>
<!-- WoRMSLookup&#45;&gt;WoRMSUpdatedRecord -->
<g id="edge19" class="edge"><title>WoRMSLookup&#45;&gt;WoRMSUpdatedRecord</title>
<path fill="none" stroke="black" d="M190.742,-439.697C191.072,-431.983 191.469,-422.712 191.838,-414.112"/>
<polygon fill="black" stroke="black" points="195.335,-414.245 192.267,-404.104 188.342,-413.945 195.335,-414.245"/>
</g>
<!-- GBIFLookup -->
<g id="node7" class="node"><title>GBIFLookup</title>
<polygon fill="#ccffcc" stroke="black" points="425.25,-476 324.75,-476 324.75,-440 425.25,-440 425.25,-476"/>
<text text-anchor="middle" x="375" y="-454.3" font-family="Courier,monospace" font-size="14.00">GBIFLookup</text>
</g>
<!-- GBIFUpdatedRecord -->
<g id="node17" class="node"><title>GBIFUpdatedRecord</title>
<path fill="#ffffcc" stroke="black" d="M430.25,-404C430.25,-404 307.75,-404 307.75,-404 301.75,-404 295.75,-398 295.75,-392 295.75,-392 295.75,-380 295.75,-380 295.75,-374 301.75,-368 307.75,-368 307.75,-368 430.25,-368 430.25,-368 436.25,-368 442.25,-374 442.25,-380 442.25,-380 442.25,-392 442.25,-392 442.25,-398 436.25,-404 430.25,-404"/>
<text text-anchor="middle" x="369" y="-382.3" font-family="Helvetica,sans-Serif" font-size="14.00">GBIFUpdatedRecord</text>
</g>
<!-- GBIFLookup&#45;&gt;GBIFUpdatedRecord -->
<g id="edge20" class="edge"><title>GBIFLookup&#45;&gt;GBIFUpdatedRecord</title>
<path fill="none" stroke="black" d="M373.517,-439.697C372.856,-431.983 372.061,-422.712 371.324,-414.112"/>
<polygon fill="black" stroke="black" points="374.807,-413.769 370.466,-404.104 367.833,-414.367 374.807,-413.769"/>
</g>
<!-- StreamMerge -->
<g id="node8" class="node"><title>StreamMerge</title>
<polygon fill="#ccffcc" stroke="black" points="257.25,-332 148.75,-332 148.75,-296 257.25,-296 257.25,-332"/>
<text text-anchor="middle" x="203" y="-310.3" font-family="Courier,monospace" font-size="14.00">StreamMerge</text>
</g>
<!-- MergedStream -->
<g id="node18" class="node"><title>MergedStream</title>
<path fill="#ffffcc" stroke="black" d="M245.25,-260C245.25,-260 160.75,-260 160.75,-260 154.75,-260 148.75,-254 148.75,-248 148.75,-248 148.75,-236 148.75,-236 148.75,-230 154.75,-224 160.75,-224 160.75,-224 245.25,-224 245.25,-224 251.25,-224 257.25,-230 257.25,-236 257.25,-236 257.25,-248 257.25,-248 257.25,-254 251.25,-260 245.25,-260"/>
<text text-anchor="middle" x="203" y="-238.3" font-family="Helvetica,sans-Serif" font-size="14.00">MergedStream</text>
</g>
<!-- StreamMerge&#45;&gt;MergedStream -->
<g id="edge21" class="edge"><title>StreamMerge&#45;&gt;MergedStream</title>
<path fill="none" stroke="black" d="M203,-295.697C203,-287.983 203,-278.712 203,-270.112"/>
<polygon fill="black" stroke="black" points="206.5,-270.104 203,-260.104 199.5,-270.104 206.5,-270.104"/>
</g>
<!-- CsvFileWriter -->
<g id="node9" class="node"><title>CsvFileWriter</title>
<polygon fill="#ccffcc" stroke="black" points="266,-188 140,-188 140,-152 266,-152 266,-188"/>
<text text-anchor="middle" x="203" y="-166.3" font-family="Courier,monospace" font-size="14.00">CsvFileWriter</text>
</g>
<!-- UpdatedDarwinCoreFile -->
<g id="node20" class="node"><title>UpdatedDarwinCoreFile</title>
<path fill="#ffe4b5" stroke="black" d="M36,-79C36,-79 390,-79 390,-79 396,-79 402,-85 402,-91 402,-91 402,-103 402,-103 402,-109 396,-115 390,-115 390,-115 36,-115 36,-115 30,-115 24,-109 24,-103 24,-103 24,-91 24,-91 24,-85 30,-79 36,-79"/>
<text text-anchor="middle" x="213" y="-103.8" font-family="Courier,monospace" font-weight="bold" font-size="9.00">UpdatedDarwinCoreFile</text>
<polyline fill="none" stroke="black" points="24,-97 402,-97 "/>
<text text-anchor="middle" x="213" y="-85.8" font-family="Courier,monospace" font-weight="bold" font-size="9.00">workspace_18338630&#45;a81c&#45;11e7&#45;8146&#45;acbc3296f741/mergedoutputfile.csv</text>
</g>
<!-- CsvFileWriter&#45;&gt;UpdatedDarwinCoreFile -->
<g id="edge22" class="edge"><title>CsvFileWriter&#45;&gt;UpdatedDarwinCoreFile</title>
<path fill="none" stroke="black" d="M205.421,-151.813C206.551,-143.789 207.923,-134.047 209.187,-125.069"/>
<polygon fill="black" stroke="black" points="212.673,-125.419 210.602,-115.029 205.741,-124.443 212.673,-125.419"/>
</g>
<!-- Workspace&#45;&gt;CsvFileWriter -->
<g id="edge5" class="edge"><title>Workspace&#45;&gt;CsvFileWriter</title>
<path fill="none" stroke="black" d="M87,-871.951C87,-845.292 87,-792.115 87,-747 87,-747 87,-747 87,-313 87,-261.791 132.805,-218.869 166.848,-194.039"/>
<polygon fill="black" stroke="black" points="169.071,-196.754 175.215,-188.123 165.03,-191.039 169.071,-196.754"/>
</g>
<!-- OccurrenceFile&#45;&gt;FileToDataStream -->
<g id="edge7" class="edge"><title>OccurrenceFile&#45;&gt;FileToDataStream</title>
<path fill="none" stroke="black" d="M211.955,-943.697C213.718,-935.983 215.837,-926.712 217.803,-918.112"/>
<polygon fill="black" stroke="black" points="221.274,-918.633 220.09,-908.104 214.45,-917.073 221.274,-918.633"/>
</g>
<!-- DataRecord&#45;&gt;EnvironmentTagger -->
<g id="edge9" class="edge"><title>DataRecord&#45;&gt;EnvironmentTagger</title>
<path fill="none" stroke="black" d="M224,-799.697C224,-791.983 224,-782.712 224,-774.112"/>
<polygon fill="black" stroke="black" points="227.5,-774.104 224,-764.104 220.5,-774.104 227.5,-774.104"/>
</g>
<!-- TaggedDataRecord&#45;&gt;FilterToJustMarine -->
<g id="edge2" class="edge"><title>TaggedDataRecord&#45;&gt;FilterToJustMarine</title>
<path fill="none" stroke="black" d="M215.596,-655.697C211.725,-647.728 207.048,-638.1 202.757,-629.264"/>
<polygon fill="black" stroke="black" points="205.825,-627.57 198.308,-620.104 199.529,-630.629 205.825,-627.57"/>
</g>
<!-- TaggedDataRecord&#45;&gt;FilterExcludingMarine -->
<g id="edge1" class="edge"><title>TaggedDataRecord&#45;&gt;FilterExcludingMarine</title>
<path fill="none" stroke="black" d="M264.364,-655.876C287.02,-646.264 315.473,-634.193 339.47,-624.013"/>
<polygon fill="black" stroke="black" points="340.929,-627.196 348.768,-620.068 338.195,-620.752 340.929,-627.196"/>
</g>
<!-- MarineDataRecord&#45;&gt;WoRMSLookup -->
<g id="edge4" class="edge"><title>MarineDataRecord&#45;&gt;WoRMSLookup</title>
<path fill="none" stroke="black" d="M190,-511.697C190,-503.983 190,-494.712 190,-486.112"/>
<polygon fill="black" stroke="black" points="193.5,-486.104 190,-476.104 186.5,-486.104 193.5,-486.104"/>
</g>
<!-- notMarineDataRecord&#45;&gt;GBIFLookup -->
<g id="edge6" class="edge"><title>notMarineDataRecord&#45;&gt;GBIFLookup</title>
<path fill="none" stroke="black" d="M384.034,-511.697C382.711,-503.983 381.122,-494.712 379.648,-486.112"/>
<polygon fill="black" stroke="black" points="383.072,-485.369 377.932,-476.104 376.172,-486.552 383.072,-485.369"/>
</g>
<!-- WoRMSUpdatedRecord&#45;&gt;StreamMerge -->
<g id="edge8" class="edge"><title>WoRMSUpdatedRecord&#45;&gt;StreamMerge</title>
<path fill="none" stroke="black" d="M195.472,-367.697C196.574,-359.983 197.898,-350.712 199.127,-342.112"/>
<polygon fill="black" stroke="black" points="202.607,-342.499 200.557,-332.104 195.677,-341.509 202.607,-342.499"/>
</g>
<!-- GBIFUpdatedRecord&#45;&gt;StreamMerge -->
<g id="edge10" class="edge"><title>GBIFUpdatedRecord&#45;&gt;StreamMerge</title>
<path fill="none" stroke="black" d="M328.392,-367.876C305.598,-358.264 276.973,-346.193 252.83,-336.013"/>
<polygon fill="black" stroke="black" points="254.051,-332.729 243.476,-332.068 251.331,-339.179 254.051,-332.729"/>
</g>
<!-- MergedStream&#45;&gt;CsvFileWriter -->
<g id="edge12" class="edge"><title>MergedStream&#45;&gt;CsvFileWriter</title>
<path fill="none" stroke="black" d="M203,-223.697C203,-215.983 203,-206.712 203,-198.112"/>
<polygon fill="black" stroke="black" points="206.5,-198.104 203,-188.104 199.5,-198.104 206.5,-198.104"/>
</g>
<!-- DarwinCoreFile -->
<g id="node19" class="node"><title>DarwinCoreFile</title>
<path fill="#ffe4b5" stroke="black" d="M124.5,-1089C124.5,-1089 473.5,-1089 473.5,-1089 479.5,-1089 485.5,-1095 485.5,-1101 485.5,-1101 485.5,-1113 485.5,-1113 485.5,-1119 479.5,-1125 473.5,-1125 473.5,-1125 124.5,-1125 124.5,-1125 118.5,-1125 112.5,-1119 112.5,-1113 112.5,-1113 112.5,-1101 112.5,-1101 112.5,-1095 118.5,-1089 124.5,-1089"/>
<text text-anchor="middle" x="299" y="-1113.8" font-family="Courier,monospace" font-weight="bold" font-size="9.00">DarwinCoreFile</text>
<polyline fill="none" stroke="black" points="112.5,-1107 485.5,-1107 "/>
<text text-anchor="middle" x="299" y="-1095.8" font-family="Courier,monospace" font-weight="bold" font-size="9.00">packages/kurator_branching_generic/data/kurator_sample_data_v2.txt</text>
</g>
<!-- DarwinCoreFile&#45;&gt;Setup -->
<g id="edge3" class="edge"><title>DarwinCoreFile&#45;&gt;Setup</title>
<path fill="none" stroke="black" d="M260.676,-1088.99C235.591,-1077.86 202.921,-1063.36 177.75,-1052.2"/>
<polygon fill="black" stroke="black" points="179.062,-1048.95 168.502,-1048.09 176.223,-1055.35 179.062,-1048.95"/>
</g>
<!-- UpdatedDarwinCoreFile_outflow -->
<g id="node24" class="node"><title>UpdatedDarwinCoreFile_outflow</title>
<ellipse fill="none" stroke="black" cx="213" cy="-31" rx="7" ry="7"/>
</g>
<!-- UpdatedDarwinCoreFile&#45;&gt;UpdatedDarwinCoreFile_outflow -->
<g id="edge25" class="edge"><title>UpdatedDarwinCoreFile&#45;&gt;UpdatedDarwinCoreFile_outflow</title>
<path fill="none" stroke="black" d="M213,-78.8492C213,-69.3727 213,-57.6638 213,-48.3223"/>
<polygon fill="black" stroke="black" points="216.5,-48.1021 213,-38.1022 209.5,-48.1022 216.5,-48.1021"/>
</g>
<!-- InputFilePath -->
<g id="node21" class="node"><title>InputFilePath</title>
<path fill="#ffffff" stroke="black" d="M82,-1125C82,-1125 36,-1125 36,-1125 30,-1125 24,-1119 24,-1113 24,-1113 24,-1101 24,-1101 24,-1095 30,-1089 36,-1089 36,-1089 82,-1089 82,-1089 88,-1089 94,-1095 94,-1101 94,-1101 94,-1113 94,-1113 94,-1119 88,-1125 82,-1125"/>
<text text-anchor="middle" x="59" y="-1104.8" font-family="Helvetica,sans-Serif" font-size="9.00">InputFilePath</text>
</g>
<!-- InputFilePath&#45;&gt;Setup -->
<g id="edge11" class="edge"><title>InputFilePath&#45;&gt;Setup</title>
<path fill="none" stroke="black" d="M78.3658,-1088.81C88.4871,-1079.83 101.036,-1068.69 112.087,-1058.89"/>
<polygon fill="black" stroke="black" points="114.657,-1061.28 119.813,-1052.03 110.01,-1056.05 114.657,-1061.28"/>
</g>
<!-- DarwinCoreFile_inflow -->
<g id="node22" class="node"><title>DarwinCoreFile_inflow</title>
<ellipse fill="none" stroke="black" cx="195" cy="-1173" rx="7" ry="7"/>
</g>
<!-- DarwinCoreFile_inflow&#45;&gt;DarwinCoreFile -->
<g id="edge23" class="edge"><title>DarwinCoreFile_inflow&#45;&gt;DarwinCoreFile</title>
<path fill="none" stroke="black" d="M200.591,-1168.56C212.189,-1161.42 239.699,-1144.49 262.692,-1130.34"/>
<polygon fill="black" stroke="black" points="264.559,-1133.3 271.241,-1125.08 260.89,-1127.34 264.559,-1133.3"/>
</g>
<!-- InputFilePath_inflow -->
<g id="node23" class="node"><title>InputFilePath_inflow</title>
<ellipse fill="none" stroke="black" cx="163" cy="-1173" rx="7" ry="7"/>
</g>
<!-- InputFilePath_inflow&#45;&gt;InputFilePath -->
<g id="edge24" class="edge"><title>InputFilePath_inflow&#45;&gt;InputFilePath</title>
<path fill="none" stroke="black" d="M156.829,-1169.39C145.713,-1164.59 121.739,-1153.77 103,-1142 97.8675,-1138.78 92.6061,-1135.09 87.5877,-1131.36"/>
<polygon fill="black" stroke="black" points="89.5044,-1128.42 79.4372,-1125.12 85.248,-1133.98 89.5044,-1128.42"/>
</g>
</g>
</svg>
