<?xml version="1.0" encoding="UTF-8" standalone="no"?>
<!DOCTYPE svg PUBLIC "-//W3C//DTD SVG 1.1//EN"
 "http://www.w3.org/Graphics/SVG/1.1/DTD/svg11.dtd">
<!-- Generated by graphviz version 2.36.0 (20140111.2315)
 -->
<!-- Title: yw_data_view Pages: 1 -->
<svg width="468pt" height="952pt"
 viewBox="0.00 0.00 468.00 952.00" xmlns="http://www.w3.org/2000/svg" xmlns:xlink="http://www.w3.org/1999/xlink">
<g id="graph0" class="graph" transform="scale(1 1) rotate(0) translate(4 948)">
<title>yw_data_view</title>
<polygon fill="white" stroke="none" points="-4,4 -4,-948 464,-948 464,4 -4,4"/>
<text text-anchor="middle" x="230" y="-925.6" font-family="Courier,monospace" font-size="18.00">DwCA_Taxon_Lookup</text>
<g id="clust1" class="cluster"><title>cluster_workflow</title>
<polygon fill="none" stroke="black" stroke-width="2" points="8,-62 8,-854 452,-854 452,-62 8,-62"/>
</g>
<g id="clust2" class="cluster"><title>cluster_workflow_inner</title>
<polygon fill="none" stroke="white" stroke-width="2" points="16,-70 16,-846 444,-846 444,-70 16,-70"/>
</g>
<g id="clust3" class="cluster"><title>cluster_inflows</title>
<polygon fill="none" stroke="white" stroke-width="2" points="207,-862 207,-908 253,-908 253,-862 207,-862"/>
</g>
<g id="clust4" class="cluster"><title>cluster_inflows_inner</title>
<polygon fill="none" stroke="white" stroke-width="2" points="215,-870 215,-900 245,-900 245,-870 215,-870"/>
</g>
<g id="clust5" class="cluster"><title>cluster_outflows</title>
<polygon fill="none" stroke="white" stroke-width="2" points="210,-8 210,-54 256,-54 256,-8 210,-8"/>
</g>
<g id="clust6" class="cluster"><title>cluster_outflows_inner</title>
<polygon fill="none" stroke="white" stroke-width="2" points="218,-16 218,-46 248,-46 248,-16 218,-16"/>
</g>
<!-- FileToDataStream -->
<g id="node1" class="node"><title>FileToDataStream</title>
<polygon fill="#ccffcc" stroke="black" points="373.25,-620 222.75,-620 222.75,-584 373.25,-584 373.25,-620"/>
<text text-anchor="middle" x="298" y="-598.3" font-family="Courier,monospace" font-size="14.00">FileToDataStream</text>
</g>
<!-- DataRecord -->
<g id="node10" class="node"><title>DataRecord</title>
<path fill="#ffffcc" stroke="black" d="M318.25,-548C318.25,-548 277.75,-548 277.75,-548 271.75,-548 265.75,-542 265.75,-536 265.75,-536 265.75,-524 265.75,-524 265.75,-518 271.75,-512 277.75,-512 277.75,-512 318.25,-512 318.25,-512 324.25,-512 330.25,-518 330.25,-524 330.25,-524 330.25,-536 330.25,-536 330.25,-542 324.25,-548 318.25,-548"/>
<text text-anchor="middle" x="298" y="-527.8" font-family="Helvetica,sans-Serif" font-size="9.00">DataRecord</text>
</g>
<!-- FileToDataStream&#45;&gt;DataRecord -->
<g id="edge10" class="edge"><title>FileToDataStream&#45;&gt;DataRecord</title>
<path fill="none" stroke="black" d="M298,-583.697C298,-575.983 298,-566.712 298,-558.112"/>
<polygon fill="black" stroke="black" points="301.5,-558.104 298,-548.104 294.5,-558.104 301.5,-558.104"/>
</g>
<!-- GBIFLookup -->
<g id="node2" class="node"><title>GBIFLookup</title>
<polygon fill="#ccffcc" stroke="black" points="146.25,-188 45.75,-188 45.75,-152 146.25,-152 146.25,-188"/>
<text text-anchor="middle" x="96" y="-166.3" font-family="Courier,monospace" font-size="14.00">GBIFLookup</text>
</g>
<!-- LogFile -->
<g id="node14" class="node"><title>LogFile</title>
<path fill="#ffe4b5" stroke="black" d="M42.5,-79C42.5,-79 423.5,-79 423.5,-79 429.5,-79 435.5,-85 435.5,-91 435.5,-91 435.5,-103 435.5,-103 435.5,-109 429.5,-115 423.5,-115 423.5,-115 42.5,-115 42.5,-115 36.5,-115 30.5,-109 30.5,-103 30.5,-103 30.5,-91 30.5,-91 30.5,-85 36.5,-79 42.5,-79"/>
<text text-anchor="middle" x="233" y="-103.8" font-family="Courier,monospace" font-weight="bold" font-size="9.00">LogFile</text>
<polyline fill="none" stroke="black" points="30.5,-97 435.5,-97 "/>
<text text-anchor="middle" x="233" y="-85.8" font-family="Courier,monospace" font-weight="bold" font-size="9.00">./packages/kurator_FileBranchingTaxonLookup/workflows/results/runlog.log</text>
</g>
<!-- GBIFLookup&#45;&gt;LogFile -->
<g id="edge18" class="edge"><title>GBIFLookup&#45;&gt;LogFile</title>
<path fill="none" stroke="black" d="M128.815,-151.994C147.487,-142.317 171.067,-130.097 191.07,-119.73"/>
<polygon fill="black" stroke="black" points="192.71,-122.822 199.978,-115.114 189.489,-116.607 192.71,-122.822"/>
</g>
<!-- WoRMSLookup -->
<g id="node3" class="node"><title>WoRMSLookup</title>
<polygon fill="#ccffcc" stroke="black" points="295.25,-188 186.75,-188 186.75,-152 295.25,-152 295.25,-188"/>
<text text-anchor="middle" x="241" y="-166.3" font-family="Courier,monospace" font-size="14.00">WoRMSLookup</text>
</g>
<!-- WoRMSLookup&#45;&gt;LogFile -->
<g id="edge17" class="edge"><title>WoRMSLookup&#45;&gt;LogFile</title>
<path fill="none" stroke="black" d="M239.063,-151.813C238.159,-143.789 237.062,-134.047 236.05,-125.069"/>
<polygon fill="black" stroke="black" points="239.516,-124.574 234.919,-115.029 232.561,-125.358 239.516,-124.574"/>
</g>
<!-- FilterToNonMarine -->
<g id="node4" class="node"><title>FilterToNonMarine</title>
<polygon fill="#ccffcc" stroke="black" points="183.25,-332 24.75,-332 24.75,-296 183.25,-296 183.25,-332"/>
<text text-anchor="middle" x="104" y="-310.3" font-family="Courier,monospace" font-size="14.00">FilterToNonMarine</text>
</g>
<!-- notMarineDataRecord -->
<g id="node13" class="node"><title>notMarineDataRecord</title>
<path fill="#ffffcc" stroke="black" d="M135.25,-260C135.25,-260 54.75,-260 54.75,-260 48.75,-260 42.75,-254 42.75,-248 42.75,-248 42.75,-236 42.75,-236 42.75,-230 48.75,-224 54.75,-224 54.75,-224 135.25,-224 135.25,-224 141.25,-224 147.25,-230 147.25,-236 147.25,-236 147.25,-248 147.25,-248 147.25,-254 141.25,-260 135.25,-260"/>
<text text-anchor="middle" x="95" y="-239.8" font-family="Helvetica,sans-Serif" font-size="9.00">notMarineDataRecord</text>
</g>
<!-- FilterToNonMarine&#45;&gt;notMarineDataRecord -->
<g id="edge16" class="edge"><title>FilterToNonMarine&#45;&gt;notMarineDataRecord</title>
<path fill="none" stroke="black" d="M101.775,-295.697C100.783,-287.983 99.5916,-278.712 98.4859,-270.112"/>
<polygon fill="black" stroke="black" points="101.946,-269.576 97.1991,-260.104 95.003,-270.469 101.946,-269.576"/>
</g>
<!-- FilterToNonMarine&#45;&gt;LogFile -->
<g id="edge15" class="edge"><title>FilterToNonMarine&#45;&gt;LogFile</title>
<path fill="none" stroke="black" d="M126.076,-295.847C136.729,-286.402 148.743,-273.806 156,-260 178.752,-216.717 153.65,-194.964 177,-152 183.096,-140.782 192.326,-130.486 201.544,-121.96"/>
<polygon fill="black" stroke="black" points="204.004,-124.458 209.216,-115.233 199.389,-119.195 204.004,-124.458"/>
</g>
<!-- FilterToJustMarine -->
<g id="node5" class="node"><title>FilterToJustMarine</title>
<polygon fill="#ccffcc" stroke="black" points="370,-332 202,-332 202,-296 370,-296 370,-332"/>
<text text-anchor="middle" x="286" y="-310.3" font-family="Courier,monospace" font-size="14.00">FilterToJustMarine</text>
</g>
<!-- MarineDataRecord -->
<g id="node12" class="node"><title>MarineDataRecord</title>
<path fill="#ffffcc" stroke="black" d="M279,-260C279,-260 211,-260 211,-260 205,-260 199,-254 199,-248 199,-248 199,-236 199,-236 199,-230 205,-224 211,-224 211,-224 279,-224 279,-224 285,-224 291,-230 291,-236 291,-236 291,-248 291,-248 291,-254 285,-260 279,-260"/>
<text text-anchor="middle" x="245" y="-239.8" font-family="Helvetica,sans-Serif" font-size="9.00">MarineDataRecord</text>
</g>
<!-- FilterToJustMarine&#45;&gt;MarineDataRecord -->
<g id="edge14" class="edge"><title>FilterToJustMarine&#45;&gt;MarineDataRecord</title>
<path fill="none" stroke="black" d="M275.865,-295.697C271.148,-287.644 265.438,-277.894 260.218,-268.982"/>
<polygon fill="black" stroke="black" points="263.092,-266.964 255.018,-260.104 257.052,-270.502 263.092,-266.964"/>
</g>
<!-- FilterToJustMarine&#45;&gt;LogFile -->
<g id="edge13" class="edge"><title>FilterToJustMarine&#45;&gt;LogFile</title>
<path fill="none" stroke="black" d="M293.706,-295.961C306.325,-265.372 327.738,-199.877 304,-152 297.806,-139.506 287.184,-129.121 276.017,-120.906"/>
<polygon fill="black" stroke="black" points="277.668,-117.795 267.435,-115.048 273.721,-123.576 277.668,-117.795"/>
</g>
<!-- EnvironmentTagger -->
<g id="node6" class="node"><title>EnvironmentTagger</title>
<polygon fill="#ccffcc" stroke="black" points="377.25,-476 218.75,-476 218.75,-440 377.25,-440 377.25,-476"/>
<text text-anchor="middle" x="298" y="-454.3" font-family="Courier,monospace" font-size="14.00">EnvironmentTagger</text>
</g>
<!-- TaggedDataRecord -->
<g id="node11" class="node"><title>TaggedDataRecord</title>
<path fill="#ffffcc" stroke="black" d="M321.25,-404C321.25,-404 250.75,-404 250.75,-404 244.75,-404 238.75,-398 238.75,-392 238.75,-392 238.75,-380 238.75,-380 238.75,-374 244.75,-368 250.75,-368 250.75,-368 321.25,-368 321.25,-368 327.25,-368 333.25,-374 333.25,-380 333.25,-380 333.25,-392 333.25,-392 333.25,-398 327.25,-404 321.25,-404"/>
<text text-anchor="middle" x="286" y="-383.8" font-family="Helvetica,sans-Serif" font-size="9.00">TaggedDataRecord</text>
</g>
<!-- EnvironmentTagger&#45;&gt;TaggedDataRecord -->
<g id="edge12" class="edge"><title>EnvironmentTagger&#45;&gt;TaggedDataRecord</title>
<path fill="none" stroke="black" d="M295.034,-439.697C293.711,-431.983 292.122,-422.712 290.648,-414.112"/>
<polygon fill="black" stroke="black" points="294.072,-413.369 288.932,-404.104 287.172,-414.552 294.072,-413.369"/>
</g>
<!-- EnvironmentTagger&#45;&gt;LogFile -->
<g id="edge11" class="edge"><title>EnvironmentTagger&#45;&gt;LogFile</title>
<path fill="none" stroke="black" d="M318.649,-439.584C345.498,-414.869 389,-366.827 389,-315 389,-315 389,-315 389,-241 389,-183.083 329.847,-142.27 284.392,-119.459"/>
<polygon fill="black" stroke="black" points="285.74,-116.223 275.216,-115.001 282.681,-122.519 285.74,-116.223"/>
</g>
<!-- Setup -->
<g id="node7" class="node"><title>Setup</title>
<polygon fill="#ccffcc" stroke="black" points="327.25,-764 268.75,-764 268.75,-728 327.25,-728 327.25,-764"/>
<text text-anchor="middle" x="298" y="-742.3" font-family="Courier,monospace" font-size="14.00">Setup</text>
</g>
<!-- OccurrenceFile -->
<g id="node9" class="node"><title>OccurrenceFile</title>
<path fill="#ffffcc" stroke="black" d="M325,-692C325,-692 271,-692 271,-692 265,-692 259,-686 259,-680 259,-680 259,-668 259,-668 259,-662 265,-656 271,-656 271,-656 325,-656 325,-656 331,-656 337,-662 337,-668 337,-668 337,-680 337,-680 337,-686 331,-692 325,-692"/>
<text text-anchor="middle" x="298" y="-671.8" font-family="Helvetica,sans-Serif" font-size="9.00">OccurrenceFile</text>
</g>
<!-- Setup&#45;&gt;OccurrenceFile -->
<g id="edge9" class="edge"><title>Setup&#45;&gt;OccurrenceFile</title>
<path fill="none" stroke="black" d="M298,-727.697C298,-719.983 298,-710.712 298,-702.112"/>
<polygon fill="black" stroke="black" points="301.5,-702.104 298,-692.104 294.5,-702.104 301.5,-702.104"/>
</g>
<!-- Setup&#45;&gt;LogFile -->
<g id="edge8" class="edge"><title>Setup&#45;&gt;LogFile</title>
<path fill="none" stroke="black" d="M324.025,-727.998C356.833,-704.273 409,-657.916 409,-603 409,-603 409,-603 409,-241 409,-195.63 392.751,-182.321 359,-152 343.177,-137.785 323.045,-126.914 303.541,-118.784"/>
<polygon fill="black" stroke="black" points="304.624,-115.448 294.038,-115.011 302.04,-121.954 304.624,-115.448"/>
</g>
<!-- DarwinCoreArchive -->
<g id="node8" class="node"><title>DarwinCoreArchive</title>
<path fill="#ffe4b5" stroke="black" d="M36.5,-801C36.5,-801 423.5,-801 423.5,-801 429.5,-801 435.5,-807 435.5,-813 435.5,-813 435.5,-825 435.5,-825 435.5,-831 429.5,-837 423.5,-837 423.5,-837 36.5,-837 36.5,-837 30.5,-837 24.5,-831 24.5,-825 24.5,-825 24.5,-813 24.5,-813 24.5,-807 30.5,-801 36.5,-801"/>
<text text-anchor="middle" x="230" y="-825.8" font-family="Courier,monospace" font-weight="bold" font-size="9.00">DarwinCoreArchive</text>
<polyline fill="none" stroke="black" points="24.5,-819 435.5,-819 "/>
<text text-anchor="middle" x="230" y="-807.8" font-family="Courier,monospace" font-weight="bold" font-size="9.00">packages/kurator_FileBranchingTaxonLookup/data/kurator_sample_data_v2.txt</text>
</g>
<!-- DarwinCoreArchive&#45;&gt;Setup -->
<g id="edge7" class="edge"><title>DarwinCoreArchive&#45;&gt;Setup</title>
<path fill="none" stroke="black" d="M246.461,-800.813C254.897,-792.005 265.317,-781.125 274.575,-771.458"/>
<polygon fill="black" stroke="black" points="277.302,-773.672 281.691,-764.029 272.246,-768.83 277.302,-773.672"/>
</g>
<!-- OccurrenceFile&#45;&gt;FileToDataStream -->
<g id="edge6" class="edge"><title>OccurrenceFile&#45;&gt;FileToDataStream</title>
<path fill="none" stroke="black" d="M298,-655.697C298,-647.983 298,-638.712 298,-630.112"/>
<polygon fill="black" stroke="black" points="301.5,-630.104 298,-620.104 294.5,-630.104 301.5,-630.104"/>
</g>
<!-- DataRecord&#45;&gt;EnvironmentTagger -->
<g id="edge5" class="edge"><title>DataRecord&#45;&gt;EnvironmentTagger</title>
<path fill="none" stroke="black" d="M298,-511.697C298,-503.983 298,-494.712 298,-486.112"/>
<polygon fill="black" stroke="black" points="301.5,-486.104 298,-476.104 294.5,-486.104 301.5,-486.104"/>
</g>
<!-- TaggedDataRecord&#45;&gt;FilterToNonMarine -->
<g id="edge3" class="edge"><title>TaggedDataRecord&#45;&gt;FilterToNonMarine</title>
<path fill="none" stroke="black" d="M241.478,-367.876C216.266,-358.179 184.547,-345.98 157.931,-335.743"/>
<polygon fill="black" stroke="black" points="158.968,-332.391 148.378,-332.068 156.455,-338.925 158.968,-332.391"/>
</g>
<!-- TaggedDataRecord&#45;&gt;FilterToJustMarine -->
<g id="edge4" class="edge"><title>TaggedDataRecord&#45;&gt;FilterToJustMarine</title>
<path fill="none" stroke="black" d="M286,-367.697C286,-359.983 286,-350.712 286,-342.112"/>
<polygon fill="black" stroke="black" points="289.5,-342.104 286,-332.104 282.5,-342.104 289.5,-342.104"/>
</g>
<!-- MarineDataRecord&#45;&gt;WoRMSLookup -->
<g id="edge2" class="edge"><title>MarineDataRecord&#45;&gt;WoRMSLookup</title>
<path fill="none" stroke="black" d="M244.011,-223.697C243.57,-215.983 243.041,-206.712 242.549,-198.112"/>
<polygon fill="black" stroke="black" points="246.042,-197.888 241.977,-188.104 239.054,-198.288 246.042,-197.888"/>
</g>
<!-- notMarineDataRecord&#45;&gt;GBIFLookup -->
<g id="edge1" class="edge"><title>notMarineDataRecord&#45;&gt;GBIFLookup</title>
<path fill="none" stroke="black" d="M95.2472,-223.697C95.3574,-215.983 95.4898,-206.712 95.6127,-198.112"/>
<polygon fill="black" stroke="black" points="99.1124,-198.153 95.7557,-188.104 92.1131,-198.053 99.1124,-198.153"/>
</g>
<!-- LogFile_outflow -->
<g id="node16" class="node"><title>LogFile_outflow</title>
<ellipse fill="none" stroke="black" cx="233" cy="-31" rx="7" ry="7"/>
</g>
<!-- LogFile&#45;&gt;LogFile_outflow -->
<g id="edge20" class="edge"><title>LogFile&#45;&gt;LogFile_outflow</title>
<path fill="none" stroke="black" d="M233,-78.8492C233,-69.3727 233,-57.6638 233,-48.3223"/>
<polygon fill="black" stroke="black" points="236.5,-48.1021 233,-38.1022 229.5,-48.1022 236.5,-48.1021"/>
</g>
<!-- DarwinCoreArchive_inflow -->
<g id="node15" class="node"><title>DarwinCoreArchive_inflow</title>
<ellipse fill="none" stroke="black" cx="230" cy="-885" rx="7" ry="7"/>
</g>
<!-- DarwinCoreArchive_inflow&#45;&gt;DarwinCoreArchive -->
<g id="edge19" class="edge"><title>DarwinCoreArchive_inflow&#45;&gt;DarwinCoreArchive</title>
<path fill="none" stroke="black" d="M230,-877.629C230,-870.537 230,-858.598 230,-847.42"/>
<polygon fill="black" stroke="black" points="233.5,-847.119 230,-837.119 226.5,-847.119 233.5,-847.119"/>
</g>
</g>
</svg>
