<?xml version="1.0" encoding="UTF-8" standalone="no"?>
<!DOCTYPE svg PUBLIC "-//W3C//DTD SVG 1.1//EN"
 "http://www.w3.org/Graphics/SVG/1.1/DTD/svg11.dtd">
<!-- Generated by graphviz version 2.36.0 (20140111.2315)
 -->
<!-- Title: yw_data_view Pages: 1 -->
<svg width="468pt" height="1240pt"
 viewBox="0.00 0.00 468.00 1240.00" xmlns="http://www.w3.org/2000/svg" xmlns:xlink="http://www.w3.org/1999/xlink">
<g id="graph0" class="graph" transform="scale(1 1) rotate(0) translate(4 1236)">
<title>yw_data_view</title>
<polygon fill="white" stroke="none" points="-4,4 -4,-1236 464,-1236 464,4 -4,4"/>
<text text-anchor="middle" x="230" y="-1213.6" font-family="Courier,monospace" font-size="18.00">DwCA_Taxon_Lookup</text>
<g id="clust5" class="cluster"><title>cluster_outflows</title>
<polygon fill="none" stroke="white" stroke-width="2" points="190,-8 190,-54 236,-54 236,-8 190,-8"/>
</g>
<g id="clust6" class="cluster"><title>cluster_outflows_inner</title>
<polygon fill="none" stroke="white" stroke-width="2" points="198,-16 198,-46 228,-46 228,-16 198,-16"/>
</g>
<g id="clust1" class="cluster"><title>cluster_workflow</title>
<polygon fill="none" stroke="black" stroke-width="2" points="8,-62 8,-1142 452,-1142 452,-62 8,-62"/>
</g>
<g id="clust2" class="cluster"><title>cluster_workflow_inner</title>
<polygon fill="none" stroke="white" stroke-width="2" points="16,-70 16,-1134 444,-1134 444,-70 16,-70"/>
</g>
<g id="clust3" class="cluster"><title>cluster_inflows</title>
<polygon fill="none" stroke="white" stroke-width="2" points="207,-1150 207,-1196 253,-1196 253,-1150 207,-1150"/>
</g>
<g id="clust4" class="cluster"><title>cluster_inflows_inner</title>
<polygon fill="none" stroke="white" stroke-width="2" points="215,-1158 215,-1188 245,-1188 245,-1158 215,-1158"/>
</g>
<!-- Setup -->
<g id="node1" class="node"><title>Setup</title>
<polygon fill="#ccffcc" stroke="black" points="250.25,-1052 191.75,-1052 191.75,-1016 250.25,-1016 250.25,-1052"/>
<text text-anchor="middle" x="221" y="-1030.3" font-family="Courier,monospace" font-size="14.00">Setup</text>
</g>
<!-- Workspace -->
<g id="node11" class="node"><title>Workspace</title>
<path fill="#ffffcc" stroke="black" d="M98,-908C98,-908 60,-908 60,-908 54,-908 48,-902 48,-896 48,-896 48,-884 48,-884 48,-878 54,-872 60,-872 60,-872 98,-872 98,-872 104,-872 110,-878 110,-884 110,-884 110,-896 110,-896 110,-902 104,-908 98,-908"/>
<text text-anchor="middle" x="79" y="-887.8" font-family="Helvetica,sans-Serif" font-size="9.00">Workspace</text>
</g>
<!-- Setup&#45;&gt;Workspace -->
<g id="edge12" class="edge"><title>Setup&#45;&gt;Workspace</title>
<path fill="none" stroke="black" d="M203.871,-1015.87C178.817,-990.817 132.052,-944.052 103.406,-915.406"/>
<polygon fill="black" stroke="black" points="105.735,-912.785 96.1893,-908.189 100.785,-917.735 105.735,-912.785"/>
</g>
<!-- OccurrenceFile -->
<g id="node12" class="node"><title>OccurrenceFile</title>
<path fill="#ffffcc" stroke="black" d="M248,-980C248,-980 194,-980 194,-980 188,-980 182,-974 182,-968 182,-968 182,-956 182,-956 182,-950 188,-944 194,-944 194,-944 248,-944 248,-944 254,-944 260,-950 260,-956 260,-956 260,-968 260,-968 260,-974 254,-980 248,-980"/>
<text text-anchor="middle" x="221" y="-959.8" font-family="Helvetica,sans-Serif" font-size="9.00">OccurrenceFile</text>
</g>
<!-- Setup&#45;&gt;OccurrenceFile -->
<g id="edge13" class="edge"><title>Setup&#45;&gt;OccurrenceFile</title>
<path fill="none" stroke="black" d="M221,-1015.7C221,-1007.98 221,-998.712 221,-990.112"/>
<polygon fill="black" stroke="black" points="224.5,-990.104 221,-980.104 217.5,-990.104 224.5,-990.104"/>
</g>
<!-- FileToDataStream -->
<g id="node2" class="node"><title>FileToDataStream</title>
<polygon fill="#ccffcc" stroke="black" points="296.25,-908 145.75,-908 145.75,-872 296.25,-872 296.25,-908"/>
<text text-anchor="middle" x="221" y="-886.3" font-family="Courier,monospace" font-size="14.00">FileToDataStream</text>
</g>
<!-- DataRecord -->
<g id="node13" class="node"><title>DataRecord</title>
<path fill="#ffffcc" stroke="black" d="M241.25,-836C241.25,-836 200.75,-836 200.75,-836 194.75,-836 188.75,-830 188.75,-824 188.75,-824 188.75,-812 188.75,-812 188.75,-806 194.75,-800 200.75,-800 200.75,-800 241.25,-800 241.25,-800 247.25,-800 253.25,-806 253.25,-812 253.25,-812 253.25,-824 253.25,-824 253.25,-830 247.25,-836 241.25,-836"/>
<text text-anchor="middle" x="221" y="-815.8" font-family="Helvetica,sans-Serif" font-size="9.00">DataRecord</text>
</g>
<!-- FileToDataStream&#45;&gt;DataRecord -->
<g id="edge14" class="edge"><title>FileToDataStream&#45;&gt;DataRecord</title>
<path fill="none" stroke="black" d="M221,-871.697C221,-863.983 221,-854.712 221,-846.112"/>
<polygon fill="black" stroke="black" points="224.5,-846.104 221,-836.104 217.5,-846.104 224.5,-846.104"/>
</g>
<!-- EnvironmentTagger -->
<g id="node3" class="node"><title>EnvironmentTagger</title>
<polygon fill="#ccffcc" stroke="black" points="300.25,-764 141.75,-764 141.75,-728 300.25,-728 300.25,-764"/>
<text text-anchor="middle" x="221" y="-742.3" font-family="Courier,monospace" font-size="14.00">EnvironmentTagger</text>
</g>
<!-- TaggedDataRecord -->
<g id="node14" class="node"><title>TaggedDataRecord</title>
<path fill="#ffffcc" stroke="black" d="M256.25,-692C256.25,-692 185.75,-692 185.75,-692 179.75,-692 173.75,-686 173.75,-680 173.75,-680 173.75,-668 173.75,-668 173.75,-662 179.75,-656 185.75,-656 185.75,-656 256.25,-656 256.25,-656 262.25,-656 268.25,-662 268.25,-668 268.25,-668 268.25,-680 268.25,-680 268.25,-686 262.25,-692 256.25,-692"/>
<text text-anchor="middle" x="221" y="-671.8" font-family="Helvetica,sans-Serif" font-size="9.00">TaggedDataRecord</text>
</g>
<!-- EnvironmentTagger&#45;&gt;TaggedDataRecord -->
<g id="edge15" class="edge"><title>EnvironmentTagger&#45;&gt;TaggedDataRecord</title>
<path fill="none" stroke="black" d="M221,-727.697C221,-719.983 221,-710.712 221,-702.112"/>
<polygon fill="black" stroke="black" points="224.5,-702.104 221,-692.104 217.5,-702.104 224.5,-702.104"/>
</g>
<!-- FilterToJustMarine -->
<g id="node4" class="node"><title>FilterToJustMarine</title>
<polygon fill="#ccffcc" stroke="black" points="258,-620 90,-620 90,-584 258,-584 258,-620"/>
<text text-anchor="middle" x="174" y="-598.3" font-family="Courier,monospace" font-size="14.00">FilterToJustMarine</text>
</g>
<!-- MarineDataRecord -->
<g id="node15" class="node"><title>MarineDataRecord</title>
<path fill="#ffffcc" stroke="black" d="M217,-548C217,-548 149,-548 149,-548 143,-548 137,-542 137,-536 137,-536 137,-524 137,-524 137,-518 143,-512 149,-512 149,-512 217,-512 217,-512 223,-512 229,-518 229,-524 229,-524 229,-536 229,-536 229,-542 223,-548 217,-548"/>
<text text-anchor="middle" x="183" y="-527.8" font-family="Helvetica,sans-Serif" font-size="9.00">MarineDataRecord</text>
</g>
<!-- FilterToJustMarine&#45;&gt;MarineDataRecord -->
<g id="edge16" class="edge"><title>FilterToJustMarine&#45;&gt;MarineDataRecord</title>
<path fill="none" stroke="black" d="M176.225,-583.697C177.217,-575.983 178.408,-566.712 179.514,-558.112"/>
<polygon fill="black" stroke="black" points="182.997,-558.469 180.801,-548.104 176.054,-557.576 182.997,-558.469"/>
</g>
<!-- FilterToNonMarine -->
<g id="node5" class="node"><title>FilterToNonMarine</title>
<polygon fill="#ccffcc" stroke="black" points="435.25,-620 276.75,-620 276.75,-584 435.25,-584 435.25,-620"/>
<text text-anchor="middle" x="356" y="-598.3" font-family="Courier,monospace" font-size="14.00">FilterToNonMarine</text>
</g>
<!-- notMarineDataRecord -->
<g id="node16" class="node"><title>notMarineDataRecord</title>
<path fill="#ffffcc" stroke="black" d="M394.25,-548C394.25,-548 313.75,-548 313.75,-548 307.75,-548 301.75,-542 301.75,-536 301.75,-536 301.75,-524 301.75,-524 301.75,-518 307.75,-512 313.75,-512 313.75,-512 394.25,-512 394.25,-512 400.25,-512 406.25,-518 406.25,-524 406.25,-524 406.25,-536 406.25,-536 406.25,-542 400.25,-548 394.25,-548"/>
<text text-anchor="middle" x="354" y="-527.8" font-family="Helvetica,sans-Serif" font-size="9.00">notMarineDataRecord</text>
</g>
<!-- FilterToNonMarine&#45;&gt;notMarineDataRecord -->
<g id="edge17" class="edge"><title>FilterToNonMarine&#45;&gt;notMarineDataRecord</title>
<path fill="none" stroke="black" d="M355.506,-583.697C355.285,-575.983 355.02,-566.712 354.775,-558.112"/>
<polygon fill="black" stroke="black" points="358.273,-558 354.489,-548.104 351.276,-558.2 358.273,-558"/>
</g>
<!-- WoRMSLookup -->
<g id="node6" class="node"><title>WoRMSLookup</title>
<polygon fill="#ccffcc" stroke="black" points="256.25,-476 147.75,-476 147.75,-440 256.25,-440 256.25,-476"/>
<text text-anchor="middle" x="202" y="-454.3" font-family="Courier,monospace" font-size="14.00">WoRMSLookup</text>
</g>
<!-- WoRMSUpdatedRecord -->
<g id="node17" class="node"><title>WoRMSUpdatedRecord</title>
<path fill="#ffffcc" stroke="black" d="M251.25,-404C251.25,-404 162.75,-404 162.75,-404 156.75,-404 150.75,-398 150.75,-392 150.75,-392 150.75,-380 150.75,-380 150.75,-374 156.75,-368 162.75,-368 162.75,-368 251.25,-368 251.25,-368 257.25,-368 263.25,-374 263.25,-380 263.25,-380 263.25,-392 263.25,-392 263.25,-398 257.25,-404 251.25,-404"/>
<text text-anchor="middle" x="207" y="-383.8" font-family="Helvetica,sans-Serif" font-size="9.00">WoRMSUpdatedRecord</text>
</g>
<!-- WoRMSLookup&#45;&gt;WoRMSUpdatedRecord -->
<g id="edge18" class="edge"><title>WoRMSLookup&#45;&gt;WoRMSUpdatedRecord</title>
<path fill="none" stroke="black" d="M203.236,-439.697C203.787,-431.983 204.449,-422.712 205.063,-414.112"/>
<polygon fill="black" stroke="black" points="208.557,-414.328 205.778,-404.104 201.575,-413.83 208.557,-414.328"/>
</g>
<!-- GBIFLookup -->
<g id="node7" class="node"><title>GBIFLookup</title>
<polygon fill="#ccffcc" stroke="black" points="385.25,-476 284.75,-476 284.75,-440 385.25,-440 385.25,-476"/>
<text text-anchor="middle" x="335" y="-454.3" font-family="Courier,monospace" font-size="14.00">GBIFLookup</text>
</g>
<!-- GBIFUpdatedRecord -->
<g id="node18" class="node"><title>GBIFUpdatedRecord</title>
<path fill="#ffffcc" stroke="black" d="M371.25,-404C371.25,-404 294.75,-404 294.75,-404 288.75,-404 282.75,-398 282.75,-392 282.75,-392 282.75,-380 282.75,-380 282.75,-374 288.75,-368 294.75,-368 294.75,-368 371.25,-368 371.25,-368 377.25,-368 383.25,-374 383.25,-380 383.25,-380 383.25,-392 383.25,-392 383.25,-398 377.25,-404 371.25,-404"/>
<text text-anchor="middle" x="333" y="-383.8" font-family="Helvetica,sans-Serif" font-size="9.00">GBIFUpdatedRecord</text>
</g>
<!-- GBIFLookup&#45;&gt;GBIFUpdatedRecord -->
<g id="edge19" class="edge"><title>GBIFLookup&#45;&gt;GBIFUpdatedRecord</title>
<path fill="none" stroke="black" d="M334.506,-439.697C334.285,-431.983 334.02,-422.712 333.775,-414.112"/>
<polygon fill="black" stroke="black" points="337.273,-414 333.489,-404.104 330.276,-414.2 337.273,-414"/>
</g>
<!-- StreamMerge -->
<g id="node8" class="node"><title>StreamMerge</title>
<polygon fill="#ccffcc" stroke="black" points="264.25,-332 155.75,-332 155.75,-296 264.25,-296 264.25,-332"/>
<text text-anchor="middle" x="210" y="-310.3" font-family="Courier,monospace" font-size="14.00">StreamMerge</text>
</g>
<!-- MergedStream -->
<g id="node19" class="node"><title>MergedStream</title>
<path fill="#ffffcc" stroke="black" d="M236,-260C236,-260 184,-260 184,-260 178,-260 172,-254 172,-248 172,-248 172,-236 172,-236 172,-230 178,-224 184,-224 184,-224 236,-224 236,-224 242,-224 248,-230 248,-236 248,-236 248,-248 248,-248 248,-254 242,-260 236,-260"/>
<text text-anchor="middle" x="210" y="-239.8" font-family="Helvetica,sans-Serif" font-size="9.00">MergedStream</text>
</g>
<!-- StreamMerge&#45;&gt;MergedStream -->
<g id="edge20" class="edge"><title>StreamMerge&#45;&gt;MergedStream</title>
<path fill="none" stroke="black" d="M210,-295.697C210,-287.983 210,-278.712 210,-270.112"/>
<polygon fill="black" stroke="black" points="213.5,-270.104 210,-260.104 206.5,-270.104 213.5,-270.104"/>
</g>
<!-- CsvFileWriter -->
<g id="node9" class="node"><title>CsvFileWriter</title>
<polygon fill="#ccffcc" stroke="black" points="273,-188 147,-188 147,-152 273,-152 273,-188"/>
<text text-anchor="middle" x="210" y="-166.3" font-family="Courier,monospace" font-size="14.00">CsvFileWriter</text>
</g>
<!-- UpdatedOccurrenceFile -->
<g id="node20" class="node"><title>UpdatedOccurrenceFile</title>
<path fill="#ffe4b5" stroke="black" d="M36,-79C36,-79 390,-79 390,-79 396,-79 402,-85 402,-91 402,-91 402,-103 402,-103 402,-109 396,-115 390,-115 390,-115 36,-115 36,-115 30,-115 24,-109 24,-103 24,-103 24,-91 24,-91 24,-85 30,-79 36,-79"/>
<text text-anchor="middle" x="213" y="-103.8" font-family="Courier,monospace" font-weight="bold" font-size="9.00">UpdatedOccurrenceFile</text>
<polyline fill="none" stroke="black" points="24,-97 402,-97 "/>
<text text-anchor="middle" x="213" y="-85.8" font-family="Courier,monospace" font-weight="bold" font-size="9.00">workspace_8b7dda80&#45;634e&#45;11e8&#45;9f66&#45;4a0002b0edf0/mergedoutputfile.csv</text>
</g>
<!-- CsvFileWriter&#45;&gt;UpdatedOccurrenceFile -->
<g id="edge21" class="edge"><title>CsvFileWriter&#45;&gt;UpdatedOccurrenceFile</title>
<path fill="none" stroke="black" d="M210.726,-151.813C211.065,-143.789 211.477,-134.047 211.856,-125.069"/>
<polygon fill="black" stroke="black" points="215.355,-125.168 212.28,-115.029 208.361,-124.872 215.355,-125.168"/>
</g>
<!-- DarwinCoreArchive -->
<g id="node10" class="node"><title>DarwinCoreArchive</title>
<path fill="#ffe4b5" stroke="black" d="M36.5,-1089C36.5,-1089 423.5,-1089 423.5,-1089 429.5,-1089 435.5,-1095 435.5,-1101 435.5,-1101 435.5,-1113 435.5,-1113 435.5,-1119 429.5,-1125 423.5,-1125 423.5,-1125 36.5,-1125 36.5,-1125 30.5,-1125 24.5,-1119 24.5,-1113 24.5,-1113 24.5,-1101 24.5,-1101 24.5,-1095 30.5,-1089 36.5,-1089"/>
<text text-anchor="middle" x="230" y="-1113.8" font-family="Courier,monospace" font-weight="bold" font-size="9.00">DarwinCoreArchive</text>
<polyline fill="none" stroke="black" points="24.5,-1107 435.5,-1107 "/>
<text text-anchor="middle" x="230" y="-1095.8" font-family="Courier,monospace" font-weight="bold" font-size="9.00">packages/kurator_FileBranchingTaxonLookup/data/kurator_sample_data_v2.txt</text>
</g>
<!-- DarwinCoreArchive&#45;&gt;Setup -->
<g id="edge6" class="edge"><title>DarwinCoreArchive&#45;&gt;Setup</title>
<path fill="none" stroke="black" d="M227.821,-1088.81C226.804,-1080.79 225.569,-1071.05 224.431,-1062.07"/>
<polygon fill="black" stroke="black" points="227.888,-1061.51 223.159,-1052.03 220.944,-1062.39 227.888,-1061.51"/>
</g>
<!-- Workspace&#45;&gt;CsvFileWriter -->
<g id="edge8" class="edge"><title>Workspace&#45;&gt;CsvFileWriter</title>
<path fill="none" stroke="black" d="M77.4195,-871.968C75.088,-845.332 71,-792.186 71,-747 71,-747 71,-747 71,-313 71,-258.156 124.604,-216.667 165.236,-193.097"/>
<polygon fill="black" stroke="black" points="167.2,-196.008 174.204,-188.058 163.771,-189.905 167.2,-196.008"/>
</g>
<!-- OccurrenceFile&#45;&gt;FileToDataStream -->
<g id="edge11" class="edge"><title>OccurrenceFile&#45;&gt;FileToDataStream</title>
<path fill="none" stroke="black" d="M221,-943.697C221,-935.983 221,-926.712 221,-918.112"/>
<polygon fill="black" stroke="black" points="224.5,-918.104 221,-908.104 217.5,-918.104 224.5,-918.104"/>
</g>
<!-- DataRecord&#45;&gt;EnvironmentTagger -->
<g id="edge2" class="edge"><title>DataRecord&#45;&gt;EnvironmentTagger</title>
<path fill="none" stroke="black" d="M221,-799.697C221,-791.983 221,-782.712 221,-774.112"/>
<polygon fill="black" stroke="black" points="224.5,-774.104 221,-764.104 217.5,-774.104 224.5,-774.104"/>
</g>
<!-- TaggedDataRecord&#45;&gt;FilterToJustMarine -->
<g id="edge5" class="edge"><title>TaggedDataRecord&#45;&gt;FilterToJustMarine</title>
<path fill="none" stroke="black" d="M209.382,-655.697C203.861,-647.474 197.153,-637.483 191.068,-628.421"/>
<polygon fill="black" stroke="black" points="193.965,-626.456 185.484,-620.104 188.153,-630.358 193.965,-626.456"/>
</g>
<!-- TaggedDataRecord&#45;&gt;FilterToNonMarine -->
<g id="edge4" class="edge"><title>TaggedDataRecord&#45;&gt;FilterToNonMarine</title>
<path fill="none" stroke="black" d="M254.025,-655.876C272.085,-646.512 294.645,-634.814 313.951,-624.803"/>
<polygon fill="black" stroke="black" points="315.582,-627.9 322.848,-620.19 312.36,-621.686 315.582,-627.9"/>
</g>
<!-- MarineDataRecord&#45;&gt;WoRMSLookup -->
<g id="edge7" class="edge"><title>MarineDataRecord&#45;&gt;WoRMSLookup</title>
<path fill="none" stroke="black" d="M187.697,-511.697C189.813,-503.898 192.362,-494.509 194.718,-485.829"/>
<polygon fill="black" stroke="black" points="198.116,-486.672 197.357,-476.104 191.36,-484.838 198.116,-486.672"/>
</g>
<!-- notMarineDataRecord&#45;&gt;GBIFLookup -->
<g id="edge9" class="edge"><title>notMarineDataRecord&#45;&gt;GBIFLookup</title>
<path fill="none" stroke="black" d="M349.303,-511.697C347.187,-503.898 344.638,-494.509 342.282,-485.829"/>
<polygon fill="black" stroke="black" points="345.64,-484.838 339.643,-476.104 338.884,-486.672 345.64,-484.838"/>
</g>
<!-- WoRMSUpdatedRecord&#45;&gt;StreamMerge -->
<g id="edge10" class="edge"><title>WoRMSUpdatedRecord&#45;&gt;StreamMerge</title>
<path fill="none" stroke="black" d="M207.742,-367.697C208.072,-359.983 208.469,-350.712 208.838,-342.112"/>
<polygon fill="black" stroke="black" points="212.335,-342.245 209.267,-332.104 205.342,-341.945 212.335,-342.245"/>
</g>
<!-- GBIFUpdatedRecord&#45;&gt;StreamMerge -->
<g id="edge1" class="edge"><title>GBIFUpdatedRecord&#45;&gt;StreamMerge</title>
<path fill="none" stroke="black" d="M302.911,-367.876C286.68,-358.639 266.458,-347.131 249.029,-337.212"/>
<polygon fill="black" stroke="black" points="250.627,-334.094 240.205,-332.19 247.165,-340.178 250.627,-334.094"/>
</g>
<!-- MergedStream&#45;&gt;CsvFileWriter -->
<g id="edge3" class="edge"><title>MergedStream&#45;&gt;CsvFileWriter</title>
<path fill="none" stroke="black" d="M210,-223.697C210,-215.983 210,-206.712 210,-198.112"/>
<polygon fill="black" stroke="black" points="213.5,-198.104 210,-188.104 206.5,-198.104 213.5,-198.104"/>
</g>
<!-- UpdatedOccurrenceFile_outflow -->
<g id="node22" class="node"><title>UpdatedOccurrenceFile_outflow</title>
<ellipse fill="none" stroke="black" cx="213" cy="-31" rx="7" ry="7"/>
</g>
<!-- UpdatedOccurrenceFile&#45;&gt;UpdatedOccurrenceFile_outflow -->
<g id="edge23" class="edge"><title>UpdatedOccurrenceFile&#45;&gt;UpdatedOccurrenceFile_outflow</title>
<path fill="none" stroke="black" d="M213,-78.8492C213,-69.3727 213,-57.6638 213,-48.3223"/>
<polygon fill="black" stroke="black" points="216.5,-48.1021 213,-38.1022 209.5,-48.1022 216.5,-48.1021"/>
</g>
<!-- DarwinCoreArchive_inflow -->
<g id="node21" class="node"><title>DarwinCoreArchive_inflow</title>
<ellipse fill="none" stroke="black" cx="230" cy="-1173" rx="7" ry="7"/>
</g>
<!-- DarwinCoreArchive_inflow&#45;&gt;DarwinCoreArchive -->
<g id="edge22" class="edge"><title>DarwinCoreArchive_inflow&#45;&gt;DarwinCoreArchive</title>
<path fill="none" stroke="black" d="M230,-1165.63C230,-1158.54 230,-1146.6 230,-1135.42"/>
<polygon fill="black" stroke="black" points="233.5,-1135.12 230,-1125.12 226.5,-1135.12 233.5,-1135.12"/>
</g>
</g>
</svg>
