<?xml version="1.0" encoding="UTF-8" standalone="no"?>
<!DOCTYPE svg PUBLIC "-//W3C//DTD SVG 1.1//EN"
 "http://www.w3.org/Graphics/SVG/1.1/DTD/svg11.dtd">
<!-- Generated by graphviz version 2.36.0 (20140111.2315)
 -->
<!-- Title: yw_data_view Pages: 1 -->
<svg width="518pt" height="952pt"
 viewBox="0.00 0.00 518.00 952.00" xmlns="http://www.w3.org/2000/svg" xmlns:xlink="http://www.w3.org/1999/xlink">
<g id="graph0" class="graph" transform="scale(1 1) rotate(0) translate(4 948)">
<title>yw_data_view</title>
<polygon fill="white" stroke="none" points="-4,4 -4,-948 514,-948 514,4 -4,4"/>
<text text-anchor="middle" x="255" y="-925.6" font-family="Courier,monospace" font-size="18.00">FileBranchingTaxonLookupWorkflow</text>
<g id="clust5" class="cluster"><title>cluster_outflows</title>
<polygon fill="none" stroke="white" stroke-width="2" points="280,-8 280,-54 326,-54 326,-8 280,-8"/>
</g>
<g id="clust6" class="cluster"><title>cluster_outflows_inner</title>
<polygon fill="none" stroke="white" stroke-width="2" points="288,-16 288,-46 318,-46 318,-16 288,-16"/>
</g>
<g id="clust3" class="cluster"><title>cluster_inflows</title>
<polygon fill="none" stroke="white" stroke-width="2" points="140,-862 140,-908 218,-908 218,-862 140,-862"/>
</g>
<g id="clust4" class="cluster"><title>cluster_inflows_inner</title>
<polygon fill="none" stroke="white" stroke-width="2" points="148,-870 148,-900 210,-900 210,-870 148,-870"/>
</g>
<g id="clust1" class="cluster"><title>cluster_workflow</title>
<polygon fill="none" stroke="black" stroke-width="2" points="8,-62 8,-854 502,-854 502,-62 8,-62"/>
</g>
<g id="clust2" class="cluster"><title>cluster_workflow_inner</title>
<polygon fill="none" stroke="white" stroke-width="2" points="16,-70 16,-846 494,-846 494,-70 16,-70"/>
</g>
<!-- FileToDataStream -->
<g id="node1" class="node"><title>FileToDataStream</title>
<polygon fill="#ccffcc" stroke="black" points="389.25,-620 238.75,-620 238.75,-584 389.25,-584 389.25,-620"/>
<text text-anchor="middle" x="314" y="-598.3" font-family="Courier,monospace" font-size="14.00">FileToDataStream</text>
</g>
<!-- DataRecord -->
<g id="node9" class="node"><title>DataRecord</title>
<path fill="#ffffcc" stroke="black" d="M348.25,-548C348.25,-548 281.75,-548 281.75,-548 275.75,-548 269.75,-542 269.75,-536 269.75,-536 269.75,-524 269.75,-524 269.75,-518 275.75,-512 281.75,-512 281.75,-512 348.25,-512 348.25,-512 354.25,-512 360.25,-518 360.25,-524 360.25,-524 360.25,-536 360.25,-536 360.25,-542 354.25,-548 348.25,-548"/>
<text text-anchor="middle" x="315" y="-526.3" font-family="Helvetica,sans-Serif" font-size="14.00">DataRecord</text>
</g>
<!-- FileToDataStream&#45;&gt;DataRecord -->
<g id="edge10" class="edge"><title>FileToDataStream&#45;&gt;DataRecord</title>
<path fill="none" stroke="black" d="M314.247,-583.697C314.357,-575.983 314.49,-566.712 314.613,-558.112"/>
<polygon fill="black" stroke="black" points="318.112,-558.153 314.756,-548.104 311.113,-558.053 318.112,-558.153"/>
</g>
<!-- Setup -->
<g id="node2" class="node"><title>Setup</title>
<polygon fill="#ccffcc" stroke="black" points="328.25,-764 269.75,-764 269.75,-728 328.25,-728 328.25,-764"/>
<text text-anchor="middle" x="299" y="-742.3" font-family="Courier,monospace" font-size="14.00">Setup</text>
</g>
<!-- OccurrenceFile -->
<g id="node8" class="node"><title>OccurrenceFile</title>
<path fill="#ffffcc" stroke="black" d="M352.25,-692C352.25,-692 265.75,-692 265.75,-692 259.75,-692 253.75,-686 253.75,-680 253.75,-680 253.75,-668 253.75,-668 253.75,-662 259.75,-656 265.75,-656 265.75,-656 352.25,-656 352.25,-656 358.25,-656 364.25,-662 364.25,-668 364.25,-668 364.25,-680 364.25,-680 364.25,-686 358.25,-692 352.25,-692"/>
<text text-anchor="middle" x="309" y="-670.3" font-family="Helvetica,sans-Serif" font-size="14.00">OccurrenceFile</text>
</g>
<!-- Setup&#45;&gt;OccurrenceFile -->
<g id="edge9" class="edge"><title>Setup&#45;&gt;OccurrenceFile</title>
<path fill="none" stroke="black" d="M301.472,-727.697C302.574,-719.983 303.898,-710.712 305.127,-702.112"/>
<polygon fill="black" stroke="black" points="308.607,-702.499 306.557,-692.104 301.677,-701.509 308.607,-702.499"/>
</g>
<!-- GBIFLookup -->
<g id="node3" class="node"><title>GBIFLookup</title>
<polygon fill="#ccffcc" stroke="black" points="184.25,-188 83.75,-188 83.75,-152 184.25,-152 184.25,-188"/>
<text text-anchor="middle" x="134" y="-166.3" font-family="Courier,monospace" font-size="14.00">GBIFLookup</text>
</g>
<!-- LogFile -->
<g id="node14" class="node"><title>LogFile</title>
<path fill="#ffe4b5" stroke="black" d="M279.5,-79C279.5,-79 326.5,-79 326.5,-79 332.5,-79 338.5,-85 338.5,-91 338.5,-91 338.5,-103 338.5,-103 338.5,-109 332.5,-115 326.5,-115 326.5,-115 279.5,-115 279.5,-115 273.5,-115 267.5,-109 267.5,-103 267.5,-103 267.5,-91 267.5,-91 267.5,-85 273.5,-79 279.5,-79"/>
<text text-anchor="middle" x="303" y="-103.8" font-family="Courier,monospace" font-weight="bold" font-size="9.00">LogFile</text>
<polyline fill="none" stroke="black" points="267.5,-97 338.5,-97 "/>
<text text-anchor="middle" x="303" y="-85.8" font-family="Courier,monospace" font-weight="bold" font-size="9.00">runlog.log</text>
</g>
<!-- GBIFLookup&#45;&gt;LogFile -->
<g id="edge18" class="edge"><title>GBIFLookup&#45;&gt;LogFile</title>
<path fill="none" stroke="black" d="M174.48,-151.994C199.701,-141.398 232.182,-127.752 258.179,-116.83"/>
<polygon fill="black" stroke="black" points="259.575,-120.04 267.438,-112.94 256.863,-113.587 259.575,-120.04"/>
</g>
<!-- WoRMSLookup -->
<g id="node4" class="node"><title>WoRMSLookup</title>
<polygon fill="#ccffcc" stroke="black" points="357.25,-188 248.75,-188 248.75,-152 357.25,-152 357.25,-188"/>
<text text-anchor="middle" x="303" y="-166.3" font-family="Courier,monospace" font-size="14.00">WoRMSLookup</text>
</g>
<!-- WoRMSLookup&#45;&gt;LogFile -->
<g id="edge17" class="edge"><title>WoRMSLookup&#45;&gt;LogFile</title>
<path fill="none" stroke="black" d="M303,-151.813C303,-143.789 303,-134.047 303,-125.069"/>
<polygon fill="black" stroke="black" points="306.5,-125.029 303,-115.029 299.5,-125.029 306.5,-125.029"/>
</g>
<!-- FilterExcludingMarine -->
<g id="node5" class="node"><title>FilterExcludingMarine</title>
<polygon fill="#ccffcc" stroke="black" points="217.25,-332 24.75,-332 24.75,-296 217.25,-296 217.25,-332"/>
<text text-anchor="middle" x="121" y="-310.3" font-family="Courier,monospace" font-size="14.00">FilterExcludingMarine</text>
</g>
<!-- notMarineDataRecord -->
<g id="node12" class="node"><title>notMarineDataRecord</title>
<path fill="#ffffcc" stroke="black" d="M185.25,-260C185.25,-260 56.75,-260 56.75,-260 50.75,-260 44.75,-254 44.75,-248 44.75,-248 44.75,-236 44.75,-236 44.75,-230 50.75,-224 56.75,-224 56.75,-224 185.25,-224 185.25,-224 191.25,-224 197.25,-230 197.25,-236 197.25,-236 197.25,-248 197.25,-248 197.25,-254 191.25,-260 185.25,-260"/>
<text text-anchor="middle" x="121" y="-238.3" font-family="Helvetica,sans-Serif" font-size="14.00">notMarineDataRecord</text>
</g>
<!-- FilterExcludingMarine&#45;&gt;notMarineDataRecord -->
<g id="edge16" class="edge"><title>FilterExcludingMarine&#45;&gt;notMarineDataRecord</title>
<path fill="none" stroke="black" d="M121,-295.697C121,-287.983 121,-278.712 121,-270.112"/>
<polygon fill="black" stroke="black" points="124.5,-270.104 121,-260.104 117.5,-270.104 124.5,-270.104"/>
</g>
<!-- FilterExcludingMarine&#45;&gt;LogFile -->
<g id="edge15" class="edge"><title>FilterExcludingMarine&#45;&gt;LogFile</title>
<path fill="none" stroke="black" d="M160.601,-295.987C176.701,-287.307 194.243,-275.31 206,-260 236.57,-220.193 211.358,-193.893 239,-152 246.656,-140.396 257.522,-129.927 268.132,-121.364"/>
<polygon fill="black" stroke="black" points="270.35,-124.073 276.139,-115.199 266.08,-118.527 270.35,-124.073"/>
</g>
<!-- FilterToJustMarine -->
<g id="node6" class="node"><title>FilterToJustMarine</title>
<polygon fill="#ccffcc" stroke="black" points="404,-332 236,-332 236,-296 404,-296 404,-332"/>
<text text-anchor="middle" x="320" y="-310.3" font-family="Courier,monospace" font-size="14.00">FilterToJustMarine</text>
</g>
<!-- MarineDataRecord -->
<g id="node11" class="node"><title>MarineDataRecord</title>
<path fill="#ffffcc" stroke="black" d="M358,-260C358,-260 248,-260 248,-260 242,-260 236,-254 236,-248 236,-248 236,-236 236,-236 236,-230 242,-224 248,-224 248,-224 358,-224 358,-224 364,-224 370,-230 370,-236 370,-236 370,-248 370,-248 370,-254 364,-260 358,-260"/>
<text text-anchor="middle" x="303" y="-238.3" font-family="Helvetica,sans-Serif" font-size="14.00">MarineDataRecord</text>
</g>
<!-- FilterToJustMarine&#45;&gt;MarineDataRecord -->
<g id="edge14" class="edge"><title>FilterToJustMarine&#45;&gt;MarineDataRecord</title>
<path fill="none" stroke="black" d="M315.798,-295.697C313.904,-287.898 311.623,-278.509 309.516,-269.829"/>
<polygon fill="black" stroke="black" points="312.915,-268.996 307.154,-260.104 306.113,-270.648 312.915,-268.996"/>
</g>
<!-- FilterToJustMarine&#45;&gt;LogFile -->
<g id="edge13" class="edge"><title>FilterToJustMarine&#45;&gt;LogFile</title>
<path fill="none" stroke="black" d="M347.8,-295.872C359.771,-286.837 372.495,-274.587 379,-260 385.516,-245.387 380.427,-239.936 379,-224 376.1,-191.612 382.169,-180.213 366,-152 359.274,-140.264 349.007,-129.872 338.7,-121.418"/>
<polygon fill="black" stroke="black" points="340.543,-118.418 330.493,-115.064 336.258,-123.954 340.543,-118.418"/>
</g>
<!-- EnvironmentTagger -->
<g id="node7" class="node"><title>EnvironmentTagger</title>
<polygon fill="#ccffcc" stroke="black" points="397.25,-476 238.75,-476 238.75,-440 397.25,-440 397.25,-476"/>
<text text-anchor="middle" x="318" y="-454.3" font-family="Courier,monospace" font-size="14.00">EnvironmentTagger</text>
</g>
<!-- TaggedDataRecord -->
<g id="node10" class="node"><title>TaggedDataRecord</title>
<path fill="#ffffcc" stroke="black" d="M375.25,-404C375.25,-404 260.75,-404 260.75,-404 254.75,-404 248.75,-398 248.75,-392 248.75,-392 248.75,-380 248.75,-380 248.75,-374 254.75,-368 260.75,-368 260.75,-368 375.25,-368 375.25,-368 381.25,-368 387.25,-374 387.25,-380 387.25,-380 387.25,-392 387.25,-392 387.25,-398 381.25,-404 375.25,-404"/>
<text text-anchor="middle" x="318" y="-382.3" font-family="Helvetica,sans-Serif" font-size="14.00">TaggedDataRecord</text>
</g>
<!-- EnvironmentTagger&#45;&gt;TaggedDataRecord -->
<g id="edge12" class="edge"><title>EnvironmentTagger&#45;&gt;TaggedDataRecord</title>
<path fill="none" stroke="black" d="M318,-439.697C318,-431.983 318,-422.712 318,-414.112"/>
<polygon fill="black" stroke="black" points="321.5,-414.104 318,-404.104 314.5,-414.104 321.5,-414.104"/>
</g>
<!-- EnvironmentTagger&#45;&gt;LogFile -->
<g id="edge11" class="edge"><title>EnvironmentTagger&#45;&gt;LogFile</title>
<path fill="none" stroke="black" d="M353.562,-439.813C368.555,-430.975 385.037,-418.902 396,-404 420.495,-370.704 423,-356.336 423,-315 423,-315 423,-315 423,-241 423,-188.864 375.616,-145.784 340.398,-120.967"/>
<polygon fill="black" stroke="black" points="341.975,-117.805 331.743,-115.056 338.027,-123.586 341.975,-117.805"/>
</g>
<!-- OccurrenceFile&#45;&gt;FileToDataStream -->
<g id="edge6" class="edge"><title>OccurrenceFile&#45;&gt;FileToDataStream</title>
<path fill="none" stroke="black" d="M310.236,-655.697C310.787,-647.983 311.449,-638.712 312.063,-630.112"/>
<polygon fill="black" stroke="black" points="315.557,-630.328 312.778,-620.104 308.575,-629.83 315.557,-630.328"/>
</g>
<!-- DataRecord&#45;&gt;EnvironmentTagger -->
<g id="edge5" class="edge"><title>DataRecord&#45;&gt;EnvironmentTagger</title>
<path fill="none" stroke="black" d="M315.742,-511.697C316.072,-503.983 316.469,-494.712 316.838,-486.112"/>
<polygon fill="black" stroke="black" points="320.335,-486.245 317.267,-476.104 313.342,-485.945 320.335,-486.245"/>
</g>
<!-- TaggedDataRecord&#45;&gt;FilterExcludingMarine -->
<g id="edge3" class="edge"><title>TaggedDataRecord&#45;&gt;FilterExcludingMarine</title>
<path fill="none" stroke="black" d="M270.06,-367.966C242.535,-358.185 207.783,-345.836 178.759,-335.524"/>
<polygon fill="black" stroke="black" points="179.749,-332.161 169.155,-332.111 177.406,-338.757 179.749,-332.161"/>
</g>
<!-- TaggedDataRecord&#45;&gt;FilterToJustMarine -->
<g id="edge4" class="edge"><title>TaggedDataRecord&#45;&gt;FilterToJustMarine</title>
<path fill="none" stroke="black" d="M318.494,-367.697C318.715,-359.983 318.98,-350.712 319.225,-342.112"/>
<polygon fill="black" stroke="black" points="322.724,-342.2 319.511,-332.104 315.727,-342 322.724,-342.2"/>
</g>
<!-- MarineDataRecord&#45;&gt;WoRMSLookup -->
<g id="edge2" class="edge"><title>MarineDataRecord&#45;&gt;WoRMSLookup</title>
<path fill="none" stroke="black" d="M303,-223.697C303,-215.983 303,-206.712 303,-198.112"/>
<polygon fill="black" stroke="black" points="306.5,-198.104 303,-188.104 299.5,-198.104 306.5,-198.104"/>
</g>
<!-- notMarineDataRecord&#45;&gt;GBIFLookup -->
<g id="edge1" class="edge"><title>notMarineDataRecord&#45;&gt;GBIFLookup</title>
<path fill="none" stroke="black" d="M124.213,-223.697C125.646,-215.983 127.368,-206.712 128.965,-198.112"/>
<polygon fill="black" stroke="black" points="132.439,-198.575 130.823,-188.104 125.556,-197.297 132.439,-198.575"/>
</g>
<!-- DarwinCoreFile -->
<g id="node13" class="node"><title>DarwinCoreFile</title>
<path fill="#ffe4b5" stroke="black" d="M124.5,-801C124.5,-801 473.5,-801 473.5,-801 479.5,-801 485.5,-807 485.5,-813 485.5,-813 485.5,-825 485.5,-825 485.5,-831 479.5,-837 473.5,-837 473.5,-837 124.5,-837 124.5,-837 118.5,-837 112.5,-831 112.5,-825 112.5,-825 112.5,-813 112.5,-813 112.5,-807 118.5,-801 124.5,-801"/>
<text text-anchor="middle" x="299" y="-825.8" font-family="Courier,monospace" font-weight="bold" font-size="9.00">DarwinCoreFile</text>
<polyline fill="none" stroke="black" points="112.5,-819 485.5,-819 "/>
<text text-anchor="middle" x="299" y="-807.8" font-family="Courier,monospace" font-weight="bold" font-size="9.00">packages/kurator_branching_generic/data/kurator_sample_data_v2.txt</text>
</g>
<!-- DarwinCoreFile&#45;&gt;Setup -->
<g id="edge7" class="edge"><title>DarwinCoreFile&#45;&gt;Setup</title>
<path fill="none" stroke="black" d="M299,-800.813C299,-792.789 299,-783.047 299,-774.069"/>
<polygon fill="black" stroke="black" points="302.5,-774.029 299,-764.029 295.5,-774.029 302.5,-774.029"/>
</g>
<!-- LogFile_outflow -->
<g id="node18" class="node"><title>LogFile_outflow</title>
<ellipse fill="none" stroke="black" cx="303" cy="-31" rx="7" ry="7"/>
</g>
<!-- LogFile&#45;&gt;LogFile_outflow -->
<g id="edge21" class="edge"><title>LogFile&#45;&gt;LogFile_outflow</title>
<path fill="none" stroke="black" d="M303,-78.8492C303,-69.3727 303,-57.6638 303,-48.3223"/>
<polygon fill="black" stroke="black" points="306.5,-48.1021 303,-38.1022 299.5,-48.1022 306.5,-48.1021"/>
</g>
<!-- InputFilePath -->
<g id="node15" class="node"><title>InputFilePath</title>
<path fill="#ffffff" stroke="black" d="M82,-837C82,-837 36,-837 36,-837 30,-837 24,-831 24,-825 24,-825 24,-813 24,-813 24,-807 30,-801 36,-801 36,-801 82,-801 82,-801 88,-801 94,-807 94,-813 94,-813 94,-825 94,-825 94,-831 88,-837 82,-837"/>
<text text-anchor="middle" x="59" y="-816.8" font-family="Helvetica,sans-Serif" font-size="9.00">InputFilePath</text>
</g>
<!-- InputFilePath&#45;&gt;Setup -->
<g id="edge8" class="edge"><title>InputFilePath&#45;&gt;Setup</title>
<path fill="none" stroke="black" d="M94.3986,-803.077C97.2924,-801.992 100.185,-800.952 103,-800 156.448,-781.919 219.684,-765.728 259.573,-756.133"/>
<polygon fill="black" stroke="black" points="260.522,-759.505 269.437,-753.78 258.898,-752.696 260.522,-759.505"/>
</g>
<!-- DarwinCoreFile_inflow -->
<g id="node16" class="node"><title>DarwinCoreFile_inflow</title>
<ellipse fill="none" stroke="black" cx="195" cy="-885" rx="7" ry="7"/>
</g>
<!-- DarwinCoreFile_inflow&#45;&gt;DarwinCoreFile -->
<g id="edge19" class="edge"><title>DarwinCoreFile_inflow&#45;&gt;DarwinCoreFile</title>
<path fill="none" stroke="black" d="M200.591,-880.559C212.189,-873.422 239.699,-856.493 262.692,-842.343"/>
<polygon fill="black" stroke="black" points="264.559,-845.304 271.241,-837.083 260.89,-839.343 264.559,-845.304"/>
</g>
<!-- InputFilePath_inflow -->
<g id="node17" class="node"><title>InputFilePath_inflow</title>
<ellipse fill="none" stroke="black" cx="163" cy="-885" rx="7" ry="7"/>
</g>
<!-- InputFilePath_inflow&#45;&gt;InputFilePath -->
<g id="edge20" class="edge"><title>InputFilePath_inflow&#45;&gt;InputFilePath</title>
<path fill="none" stroke="black" d="M156.829,-881.393C145.713,-876.593 121.739,-865.768 103,-854 97.8675,-850.777 92.6061,-847.089 87.5877,-843.36"/>
<polygon fill="black" stroke="black" points="89.5044,-840.419 79.4372,-837.117 85.248,-845.976 89.5044,-840.419"/>
</g>
</g>
</svg>
