<?xml version="1.0" encoding="UTF-8" standalone="no"?>
<!DOCTYPE svg PUBLIC "-//W3C//DTD SVG 1.1//EN"
 "http://www.w3.org/Graphics/SVG/1.1/DTD/svg11.dtd">
<!-- Generated by graphviz version 2.36.0 (20140111.2315)
 -->
<!-- Title: yw_data_view Pages: 1 -->
<svg width="732pt" height="1242pt"
 viewBox="0.00 0.00 732.00 1242.00" xmlns="http://www.w3.org/2000/svg" xmlns:xlink="http://www.w3.org/1999/xlink">
<g id="graph0" class="graph" transform="scale(1 1) rotate(0) translate(4 1238)">
<title>yw_data_view</title>
<polygon fill="white" stroke="none" points="-4,4 -4,-1238 728,-1238 728,4 -4,4"/>
<text text-anchor="middle" x="362" y="-1215.6" font-family="Courier,monospace" font-size="18.00">DwCA_Taxon_Lookup</text>
<g id="clust1" class="cluster"><title>cluster_workflow</title>
<polygon fill="none" stroke="black" stroke-width="2" points="8,-62 8,-1144 716,-1144 716,-62 8,-62"/>
</g>
<g id="clust2" class="cluster"><title>cluster_workflow_inner</title>
<polygon fill="none" stroke="white" stroke-width="2" points="16,-70 16,-1136 708,-1136 708,-70 16,-70"/>
</g>
<g id="clust3" class="cluster"><title>cluster_inflows</title>
<polygon fill="none" stroke="white" stroke-width="2" points="385,-1152 385,-1198 431,-1198 431,-1152 385,-1152"/>
</g>
<g id="clust4" class="cluster"><title>cluster_inflows_inner</title>
<polygon fill="none" stroke="white" stroke-width="2" points="393,-1160 393,-1190 423,-1190 423,-1160 393,-1160"/>
</g>
<g id="clust5" class="cluster"><title>cluster_outflows</title>
<polygon fill="none" stroke="white" stroke-width="2" points="324,-8 324,-54 402,-54 402,-8 324,-8"/>
</g>
<g id="clust6" class="cluster"><title>cluster_outflows_inner</title>
<polygon fill="none" stroke="white" stroke-width="2" points="332,-16 332,-46 394,-46 394,-16 332,-16"/>
</g>
<!-- Setup -->
<g id="node1" class="node"><title>Setup</title>
<polygon fill="#ccffcc" stroke="black" points="437.25,-1054 378.75,-1054 378.75,-1018 437.25,-1018 437.25,-1054"/>
<text text-anchor="middle" x="408" y="-1032.3" font-family="Courier,monospace" font-size="14.00">Setup</text>
</g>
<!-- Workspace -->
<g id="node11" class="node"><title>Workspace</title>
<path fill="#ffffcc" stroke="black" d="M145,-910C145,-910 107,-910 107,-910 101,-910 95,-904 95,-898 95,-898 95,-886 95,-886 95,-880 101,-874 107,-874 107,-874 145,-874 145,-874 151,-874 157,-880 157,-886 157,-886 157,-898 157,-898 157,-904 151,-910 145,-910"/>
<text text-anchor="middle" x="126" y="-889.8" font-family="Helvetica,sans-Serif" font-size="9.00">Workspace</text>
</g>
<!-- Setup&#45;&gt;Workspace -->
<g id="edge12" class="edge"><title>Setup&#45;&gt;Workspace</title>
<path fill="none" stroke="black" d="M378.619,-1020.21C327.84,-994.636 223.597,-942.145 166.165,-913.225"/>
<polygon fill="black" stroke="black" points="167.531,-909.994 157.026,-908.623 164.383,-916.246 167.531,-909.994"/>
</g>
<!-- OccurrenceFile -->
<g id="node12" class="node"><title>OccurrenceFile</title>
<path fill="#ffffcc" stroke="black" d="M435,-982C435,-982 381,-982 381,-982 375,-982 369,-976 369,-970 369,-970 369,-958 369,-958 369,-952 375,-946 381,-946 381,-946 435,-946 435,-946 441,-946 447,-952 447,-958 447,-958 447,-970 447,-970 447,-976 441,-982 435,-982"/>
<text text-anchor="middle" x="408" y="-961.8" font-family="Helvetica,sans-Serif" font-size="9.00">OccurrenceFile</text>
</g>
<!-- Setup&#45;&gt;OccurrenceFile -->
<g id="edge14" class="edge"><title>Setup&#45;&gt;OccurrenceFile</title>
<path fill="none" stroke="black" d="M408,-1017.7C408,-1009.98 408,-1000.71 408,-992.112"/>
<polygon fill="black" stroke="black" points="411.5,-992.104 408,-982.104 404.5,-992.104 411.5,-992.104"/>
</g>
<!-- LogFile -->
<g id="node20" class="node"><title>LogFile</title>
<path fill="#ffe4b5" stroke="black" d="M306.5,-369C306.5,-369 687.5,-369 687.5,-369 693.5,-369 699.5,-375 699.5,-381 699.5,-381 699.5,-393 699.5,-393 699.5,-399 693.5,-405 687.5,-405 687.5,-405 306.5,-405 306.5,-405 300.5,-405 294.5,-399 294.5,-393 294.5,-393 294.5,-381 294.5,-381 294.5,-375 300.5,-369 306.5,-369"/>
<text text-anchor="middle" x="497" y="-393.8" font-family="Courier,monospace" font-weight="bold" font-size="9.00">LogFile</text>
<polyline fill="none" stroke="black" points="294.5,-387 699.5,-387 "/>
<text text-anchor="middle" x="497" y="-375.8" font-family="Courier,monospace" font-weight="bold" font-size="9.00">./packages/kurator_FileBranchingTaxonLookup/workflows/results/runlog.log</text>
</g>
<!-- Setup&#45;&gt;LogFile -->
<g id="edge13" class="edge"><title>Setup&#45;&gt;LogFile</title>
<path fill="none" stroke="black" d="M433.556,-1017.89C465.773,-994.038 517,-947.542 517,-893 517,-893 517,-893 517,-531 517,-490.322 508.964,-443.758 503.08,-415.113"/>
<polygon fill="black" stroke="black" points="506.447,-414.119 500.951,-405.061 499.599,-415.57 506.447,-414.119"/>
</g>
<!-- FileToDataStream -->
<g id="node2" class="node"><title>FileToDataStream</title>
<polygon fill="#ccffcc" stroke="black" points="483.25,-910 332.75,-910 332.75,-874 483.25,-874 483.25,-910"/>
<text text-anchor="middle" x="408" y="-888.3" font-family="Courier,monospace" font-size="14.00">FileToDataStream</text>
</g>
<!-- DataRecord -->
<g id="node13" class="node"><title>DataRecord</title>
<path fill="#ffffcc" stroke="black" d="M428.25,-838C428.25,-838 387.75,-838 387.75,-838 381.75,-838 375.75,-832 375.75,-826 375.75,-826 375.75,-814 375.75,-814 375.75,-808 381.75,-802 387.75,-802 387.75,-802 428.25,-802 428.25,-802 434.25,-802 440.25,-808 440.25,-814 440.25,-814 440.25,-826 440.25,-826 440.25,-832 434.25,-838 428.25,-838"/>
<text text-anchor="middle" x="408" y="-817.8" font-family="Helvetica,sans-Serif" font-size="9.00">DataRecord</text>
</g>
<!-- FileToDataStream&#45;&gt;DataRecord -->
<g id="edge15" class="edge"><title>FileToDataStream&#45;&gt;DataRecord</title>
<path fill="none" stroke="black" d="M408,-873.697C408,-865.983 408,-856.712 408,-848.112"/>
<polygon fill="black" stroke="black" points="411.5,-848.104 408,-838.104 404.5,-848.104 411.5,-848.104"/>
</g>
<!-- EnvironmentTagger -->
<g id="node3" class="node"><title>EnvironmentTagger</title>
<polygon fill="#ccffcc" stroke="black" points="487.25,-766 328.75,-766 328.75,-730 487.25,-730 487.25,-766"/>
<text text-anchor="middle" x="408" y="-744.3" font-family="Courier,monospace" font-size="14.00">EnvironmentTagger</text>
</g>
<!-- TaggedDataRecord -->
<g id="node14" class="node"><title>TaggedDataRecord</title>
<path fill="#ffffcc" stroke="black" d="M433.25,-694C433.25,-694 362.75,-694 362.75,-694 356.75,-694 350.75,-688 350.75,-682 350.75,-682 350.75,-670 350.75,-670 350.75,-664 356.75,-658 362.75,-658 362.75,-658 433.25,-658 433.25,-658 439.25,-658 445.25,-664 445.25,-670 445.25,-670 445.25,-682 445.25,-682 445.25,-688 439.25,-694 433.25,-694"/>
<text text-anchor="middle" x="398" y="-673.8" font-family="Helvetica,sans-Serif" font-size="9.00">TaggedDataRecord</text>
</g>
<!-- EnvironmentTagger&#45;&gt;TaggedDataRecord -->
<g id="edge17" class="edge"><title>EnvironmentTagger&#45;&gt;TaggedDataRecord</title>
<path fill="none" stroke="black" d="M405.528,-729.697C404.426,-721.983 403.102,-712.712 401.873,-704.112"/>
<polygon fill="black" stroke="black" points="405.323,-703.509 400.443,-694.104 398.393,-704.499 405.323,-703.509"/>
</g>
<!-- EnvironmentTagger&#45;&gt;LogFile -->
<g id="edge16" class="edge"><title>EnvironmentTagger&#45;&gt;LogFile</title>
<path fill="none" stroke="black" d="M427.752,-729.909C453.972,-705.21 497,-656.789 497,-605 497,-605 497,-605 497,-531 497,-490.714 497,-444.045 497,-415.271"/>
<polygon fill="black" stroke="black" points="500.5,-415.169 497,-405.169 493.5,-415.169 500.5,-415.169"/>
</g>
<!-- FilterToJustMarine -->
<g id="node4" class="node"><title>FilterToJustMarine</title>
<polygon fill="#ccffcc" stroke="black" points="300,-622 132,-622 132,-586 300,-586 300,-622"/>
<text text-anchor="middle" x="216" y="-600.3" font-family="Courier,monospace" font-size="14.00">FilterToJustMarine</text>
</g>
<!-- MarineDataRecord -->
<g id="node15" class="node"><title>MarineDataRecord</title>
<path fill="#ffffcc" stroke="black" d="M250,-550C250,-550 182,-550 182,-550 176,-550 170,-544 170,-538 170,-538 170,-526 170,-526 170,-520 176,-514 182,-514 182,-514 250,-514 250,-514 256,-514 262,-520 262,-526 262,-526 262,-538 262,-538 262,-544 256,-550 250,-550"/>
<text text-anchor="middle" x="216" y="-529.8" font-family="Helvetica,sans-Serif" font-size="9.00">MarineDataRecord</text>
</g>
<!-- FilterToJustMarine&#45;&gt;MarineDataRecord -->
<g id="edge19" class="edge"><title>FilterToJustMarine&#45;&gt;MarineDataRecord</title>
<path fill="none" stroke="black" d="M216,-585.697C216,-577.983 216,-568.712 216,-560.112"/>
<polygon fill="black" stroke="black" points="219.5,-560.104 216,-550.104 212.5,-560.104 219.5,-560.104"/>
</g>
<!-- FilterToJustMarine&#45;&gt;LogFile -->
<g id="edge18" class="edge"><title>FilterToJustMarine&#45;&gt;LogFile</title>
<path fill="none" stroke="black" d="M236.021,-585.933C247.012,-576.038 260.499,-562.996 271,-550 306.5,-506.063 293.776,-477.142 338,-442 356.773,-427.082 379.896,-416.176 402.635,-408.244"/>
<polygon fill="black" stroke="black" points="403.954,-411.494 412.344,-405.023 401.75,-404.85 403.954,-411.494"/>
</g>
<!-- FilterToNonMarine -->
<g id="node5" class="node"><title>FilterToNonMarine</title>
<polygon fill="#ccffcc" stroke="black" points="477.25,-622 318.75,-622 318.75,-586 477.25,-586 477.25,-622"/>
<text text-anchor="middle" x="398" y="-600.3" font-family="Courier,monospace" font-size="14.00">FilterToNonMarine</text>
</g>
<!-- notMarineDataRecord -->
<g id="node16" class="node"><title>notMarineDataRecord</title>
<path fill="#ffffcc" stroke="black" d="M438.25,-550C438.25,-550 357.75,-550 357.75,-550 351.75,-550 345.75,-544 345.75,-538 345.75,-538 345.75,-526 345.75,-526 345.75,-520 351.75,-514 357.75,-514 357.75,-514 438.25,-514 438.25,-514 444.25,-514 450.25,-520 450.25,-526 450.25,-526 450.25,-538 450.25,-538 450.25,-544 444.25,-550 438.25,-550"/>
<text text-anchor="middle" x="398" y="-529.8" font-family="Helvetica,sans-Serif" font-size="9.00">notMarineDataRecord</text>
</g>
<!-- FilterToNonMarine&#45;&gt;notMarineDataRecord -->
<g id="edge21" class="edge"><title>FilterToNonMarine&#45;&gt;notMarineDataRecord</title>
<path fill="none" stroke="black" d="M398,-585.697C398,-577.983 398,-568.712 398,-560.112"/>
<polygon fill="black" stroke="black" points="401.5,-560.104 398,-550.104 394.5,-560.104 401.5,-560.104"/>
</g>
<!-- FilterToNonMarine&#45;&gt;LogFile -->
<g id="edge20" class="edge"><title>FilterToNonMarine&#45;&gt;LogFile</title>
<path fill="none" stroke="black" d="M424.301,-585.991C436.587,-576.751 450.375,-564.294 459,-550 472.569,-527.513 486.033,-455.243 492.696,-415.254"/>
<polygon fill="black" stroke="black" points="496.191,-415.566 494.352,-405.132 489.283,-414.435 496.191,-415.566"/>
</g>
<!-- WoRMSLookup -->
<g id="node6" class="node"><title>WoRMSLookup</title>
<polygon fill="#ccffcc" stroke="black" points="270.25,-478 161.75,-478 161.75,-442 270.25,-442 270.25,-478"/>
<text text-anchor="middle" x="216" y="-456.3" font-family="Courier,monospace" font-size="14.00">WoRMSLookup</text>
</g>
<!-- WoRMSUpdatedRecord -->
<g id="node17" class="node"><title>WoRMSUpdatedRecord</title>
<path fill="#ffffcc" stroke="black" d="M145.25,-405C145.25,-405 56.75,-405 56.75,-405 50.75,-405 44.75,-399 44.75,-393 44.75,-393 44.75,-381 44.75,-381 44.75,-375 50.75,-369 56.75,-369 56.75,-369 145.25,-369 145.25,-369 151.25,-369 157.25,-375 157.25,-381 157.25,-381 157.25,-393 157.25,-393 157.25,-399 151.25,-405 145.25,-405"/>
<text text-anchor="middle" x="101" y="-384.8" font-family="Helvetica,sans-Serif" font-size="9.00">WoRMSUpdatedRecord</text>
</g>
<!-- WoRMSLookup&#45;&gt;WoRMSUpdatedRecord -->
<g id="edge23" class="edge"><title>WoRMSLookup&#45;&gt;WoRMSUpdatedRecord</title>
<path fill="none" stroke="black" d="M188.455,-441.994C173.205,-432.579 154.055,-420.755 137.565,-410.575"/>
<polygon fill="black" stroke="black" points="139.067,-407.389 128.719,-405.114 135.389,-413.345 139.067,-407.389"/>
</g>
<!-- WoRMSLookup&#45;&gt;LogFile -->
<g id="edge22" class="edge"><title>WoRMSLookup&#45;&gt;LogFile</title>
<path fill="none" stroke="black" d="M270.513,-445.226C312.904,-434.515 372.265,-419.517 419.58,-407.562"/>
<polygon fill="black" stroke="black" points="420.646,-410.902 429.484,-405.059 418.931,-404.116 420.646,-410.902"/>
</g>
<!-- GBIFLookup -->
<g id="node7" class="node"><title>GBIFLookup</title>
<polygon fill="#ccffcc" stroke="black" points="448.25,-478 347.75,-478 347.75,-442 448.25,-442 448.25,-478"/>
<text text-anchor="middle" x="398" y="-456.3" font-family="Courier,monospace" font-size="14.00">GBIFLookup</text>
</g>
<!-- GBIFUpdatedRecord -->
<g id="node18" class="node"><title>GBIFUpdatedRecord</title>
<path fill="#ffffcc" stroke="black" d="M264.25,-405C264.25,-405 187.75,-405 187.75,-405 181.75,-405 175.75,-399 175.75,-393 175.75,-393 175.75,-381 175.75,-381 175.75,-375 181.75,-369 187.75,-369 187.75,-369 264.25,-369 264.25,-369 270.25,-369 276.25,-375 276.25,-381 276.25,-381 276.25,-393 276.25,-393 276.25,-399 270.25,-405 264.25,-405"/>
<text text-anchor="middle" x="226" y="-384.8" font-family="Helvetica,sans-Serif" font-size="9.00">GBIFUpdatedRecord</text>
</g>
<!-- GBIFLookup&#45;&gt;GBIFUpdatedRecord -->
<g id="edge25" class="edge"><title>GBIFLookup&#45;&gt;GBIFUpdatedRecord</title>
<path fill="none" stroke="black" d="M356.802,-441.994C332.832,-432.099 302.419,-419.545 276.953,-409.033"/>
<polygon fill="black" stroke="black" points="278.037,-405.694 267.458,-405.114 275.366,-412.164 278.037,-405.694"/>
</g>
<!-- GBIFLookup&#45;&gt;LogFile -->
<g id="edge24" class="edge"><title>GBIFLookup&#45;&gt;LogFile</title>
<path fill="none" stroke="black" d="M421.713,-441.994C434.598,-432.753 450.718,-421.192 464.732,-411.142"/>
<polygon fill="black" stroke="black" points="467.051,-413.786 473.137,-405.114 462.971,-408.097 467.051,-413.786"/>
</g>
<!-- StreamMerge -->
<g id="node8" class="node"><title>StreamMerge</title>
<polygon fill="#ccffcc" stroke="black" points="244.25,-332 135.75,-332 135.75,-296 244.25,-296 244.25,-332"/>
<text text-anchor="middle" x="190" y="-310.3" font-family="Courier,monospace" font-size="14.00">StreamMerge</text>
</g>
<!-- MergedStream -->
<g id="node19" class="node"><title>MergedStream</title>
<path fill="#ffffcc" stroke="black" d="M216,-260C216,-260 164,-260 164,-260 158,-260 152,-254 152,-248 152,-248 152,-236 152,-236 152,-230 158,-224 164,-224 164,-224 216,-224 216,-224 222,-224 228,-230 228,-236 228,-236 228,-248 228,-248 228,-254 222,-260 216,-260"/>
<text text-anchor="middle" x="190" y="-239.8" font-family="Helvetica,sans-Serif" font-size="9.00">MergedStream</text>
</g>
<!-- StreamMerge&#45;&gt;MergedStream -->
<g id="edge26" class="edge"><title>StreamMerge&#45;&gt;MergedStream</title>
<path fill="none" stroke="black" d="M190,-295.697C190,-287.983 190,-278.712 190,-270.112"/>
<polygon fill="black" stroke="black" points="193.5,-270.104 190,-260.104 186.5,-270.104 193.5,-270.104"/>
</g>
<!-- CsvFileWriter -->
<g id="node9" class="node"><title>CsvFileWriter</title>
<polygon fill="#ccffcc" stroke="black" points="253,-188 127,-188 127,-152 253,-152 253,-188"/>
<text text-anchor="middle" x="190" y="-166.3" font-family="Courier,monospace" font-size="14.00">CsvFileWriter</text>
</g>
<!-- UpdatedOccurrenceFile -->
<g id="node21" class="node"><title>UpdatedOccurrenceFile</title>
<path fill="#ffe4b5" stroke="black" d="M69,-79C69,-79 423,-79 423,-79 429,-79 435,-85 435,-91 435,-91 435,-103 435,-103 435,-109 429,-115 423,-115 423,-115 69,-115 69,-115 63,-115 57,-109 57,-103 57,-103 57,-91 57,-91 57,-85 63,-79 69,-79"/>
<text text-anchor="middle" x="246" y="-103.8" font-family="Courier,monospace" font-weight="bold" font-size="9.00">UpdatedOccurrenceFile</text>
<polyline fill="none" stroke="black" points="57,-97 435,-97 "/>
<text text-anchor="middle" x="246" y="-85.8" font-family="Courier,monospace" font-weight="bold" font-size="9.00">workspace_8b7dda80&#45;634e&#45;11e8&#45;9f66&#45;4a0002b0edf0/mergedoutputfile.csv</text>
</g>
<!-- CsvFileWriter&#45;&gt;UpdatedOccurrenceFile -->
<g id="edge27" class="edge"><title>CsvFileWriter&#45;&gt;UpdatedOccurrenceFile</title>
<path fill="none" stroke="black" d="M203.556,-151.813C210.366,-143.179 218.745,-132.555 226.255,-123.034"/>
<polygon fill="black" stroke="black" points="229.124,-125.048 232.569,-115.029 223.628,-120.713 229.124,-125.048"/>
</g>
<!-- DarwinCoreArchive -->
<g id="node10" class="node"><title>DarwinCoreArchive</title>
<path fill="#ffe4b5" stroke="black" d="M214.5,-1091C214.5,-1091 601.5,-1091 601.5,-1091 607.5,-1091 613.5,-1097 613.5,-1103 613.5,-1103 613.5,-1115 613.5,-1115 613.5,-1121 607.5,-1127 601.5,-1127 601.5,-1127 214.5,-1127 214.5,-1127 208.5,-1127 202.5,-1121 202.5,-1115 202.5,-1115 202.5,-1103 202.5,-1103 202.5,-1097 208.5,-1091 214.5,-1091"/>
<text text-anchor="middle" x="408" y="-1115.8" font-family="Courier,monospace" font-weight="bold" font-size="9.00">DarwinCoreArchive</text>
<polyline fill="none" stroke="black" points="202.5,-1109 613.5,-1109 "/>
<text text-anchor="middle" x="408" y="-1097.8" font-family="Courier,monospace" font-weight="bold" font-size="9.00">packages/kurator_FileBranchingTaxonLookup/data/kurator_sample_data_v2.txt</text>
</g>
<!-- DarwinCoreArchive&#45;&gt;Setup -->
<g id="edge1" class="edge"><title>DarwinCoreArchive&#45;&gt;Setup</title>
<path fill="none" stroke="black" d="M408,-1090.81C408,-1082.79 408,-1073.05 408,-1064.07"/>
<polygon fill="black" stroke="black" points="411.5,-1064.03 408,-1054.03 404.5,-1064.03 411.5,-1064.03"/>
</g>
<!-- Workspace&#45;&gt;CsvFileWriter -->
<g id="edge2" class="edge"><title>Workspace&#45;&gt;CsvFileWriter</title>
<path fill="none" stroke="black" d="M102.829,-873.871C73.0099,-849.663 25,-802.396 25,-749 25,-749 25,-749 25,-313 25,-254.184 85.9765,-214.401 133.793,-192.246"/>
<polygon fill="black" stroke="black" points="135.464,-195.332 143.159,-188.049 132.602,-188.944 135.464,-195.332"/>
</g>
<!-- OccurrenceFile&#45;&gt;FileToDataStream -->
<g id="edge3" class="edge"><title>OccurrenceFile&#45;&gt;FileToDataStream</title>
<path fill="none" stroke="black" d="M408,-945.697C408,-937.983 408,-928.712 408,-920.112"/>
<polygon fill="black" stroke="black" points="411.5,-920.104 408,-910.104 404.5,-920.104 411.5,-920.104"/>
</g>
<!-- DataRecord&#45;&gt;EnvironmentTagger -->
<g id="edge4" class="edge"><title>DataRecord&#45;&gt;EnvironmentTagger</title>
<path fill="none" stroke="black" d="M408,-801.697C408,-793.983 408,-784.712 408,-776.112"/>
<polygon fill="black" stroke="black" points="411.5,-776.104 408,-766.104 404.5,-776.104 411.5,-776.104"/>
</g>
<!-- TaggedDataRecord&#45;&gt;FilterToJustMarine -->
<g id="edge5" class="edge"><title>TaggedDataRecord&#45;&gt;FilterToJustMarine</title>
<path fill="none" stroke="black" d="M353.478,-657.876C328.266,-648.179 296.547,-635.98 269.931,-625.743"/>
<polygon fill="black" stroke="black" points="270.968,-622.391 260.378,-622.068 268.455,-628.925 270.968,-622.391"/>
</g>
<!-- TaggedDataRecord&#45;&gt;FilterToNonMarine -->
<g id="edge6" class="edge"><title>TaggedDataRecord&#45;&gt;FilterToNonMarine</title>
<path fill="none" stroke="black" d="M398,-657.697C398,-649.983 398,-640.712 398,-632.112"/>
<polygon fill="black" stroke="black" points="401.5,-632.104 398,-622.104 394.5,-632.104 401.5,-632.104"/>
</g>
<!-- MarineDataRecord&#45;&gt;WoRMSLookup -->
<g id="edge7" class="edge"><title>MarineDataRecord&#45;&gt;WoRMSLookup</title>
<path fill="none" stroke="black" d="M216,-513.697C216,-505.983 216,-496.712 216,-488.112"/>
<polygon fill="black" stroke="black" points="219.5,-488.104 216,-478.104 212.5,-488.104 219.5,-488.104"/>
</g>
<!-- notMarineDataRecord&#45;&gt;GBIFLookup -->
<g id="edge8" class="edge"><title>notMarineDataRecord&#45;&gt;GBIFLookup</title>
<path fill="none" stroke="black" d="M398,-513.697C398,-505.983 398,-496.712 398,-488.112"/>
<polygon fill="black" stroke="black" points="401.5,-488.104 398,-478.104 394.5,-488.104 401.5,-488.104"/>
</g>
<!-- WoRMSUpdatedRecord&#45;&gt;StreamMerge -->
<g id="edge9" class="edge"><title>WoRMSUpdatedRecord&#45;&gt;StreamMerge</title>
<path fill="none" stroke="black" d="M122.544,-368.813C134.023,-359.656 148.308,-348.26 160.773,-338.316"/>
<polygon fill="black" stroke="black" points="163.019,-341.001 168.654,-332.029 158.654,-335.529 163.019,-341.001"/>
</g>
<!-- GBIFUpdatedRecord&#45;&gt;StreamMerge -->
<g id="edge10" class="edge"><title>GBIFUpdatedRecord&#45;&gt;StreamMerge</title>
<path fill="none" stroke="black" d="M217.285,-368.813C213.085,-360.528 207.955,-350.41 203.281,-341.193"/>
<polygon fill="black" stroke="black" points="206.278,-339.365 198.634,-332.029 200.035,-342.531 206.278,-339.365"/>
</g>
<!-- MergedStream&#45;&gt;CsvFileWriter -->
<g id="edge11" class="edge"><title>MergedStream&#45;&gt;CsvFileWriter</title>
<path fill="none" stroke="black" d="M190,-223.697C190,-215.983 190,-206.712 190,-198.112"/>
<polygon fill="black" stroke="black" points="193.5,-198.104 190,-188.104 186.5,-198.104 193.5,-198.104"/>
</g>
<!-- LogFile_outflow -->
<g id="node23" class="node"><title>LogFile_outflow</title>
<ellipse fill="none" stroke="black" cx="379" cy="-31" rx="7" ry="7"/>
</g>
<!-- LogFile&#45;&gt;LogFile_outflow -->
<g id="edge29" class="edge"><title>LogFile&#45;&gt;LogFile_outflow</title>
<path fill="none" stroke="black" d="M493.641,-368.909C488.687,-342.166 480,-288.752 480,-243 480,-243 480,-243 480,-169 480,-118.825 477.515,-99.3399 444,-62 431.166,-47.7011 410.128,-39.7317 395.476,-35.6617"/>
<polygon fill="black" stroke="black" points="396.304,-32.2611 385.757,-33.2692 394.63,-39.0581 396.304,-32.2611"/>
</g>
<!-- UpdatedOccurrenceFile_outflow -->
<g id="node24" class="node"><title>UpdatedOccurrenceFile_outflow</title>
<ellipse fill="none" stroke="black" cx="347" cy="-31" rx="7" ry="7"/>
</g>
<!-- UpdatedOccurrenceFile&#45;&gt;UpdatedOccurrenceFile_outflow -->
<g id="edge30" class="edge"><title>UpdatedOccurrenceFile&#45;&gt;UpdatedOccurrenceFile_outflow</title>
<path fill="none" stroke="black" d="M273.066,-78.8492C292.239,-66.6999 317.203,-50.8812 332.661,-41.0862"/>
<polygon fill="black" stroke="black" points="334.716,-43.9275 341.29,-35.6185 330.969,-38.0146 334.716,-43.9275"/>
</g>
<!-- DarwinCoreArchive_inflow -->
<g id="node22" class="node"><title>DarwinCoreArchive_inflow</title>
<ellipse fill="none" stroke="black" cx="408" cy="-1175" rx="7" ry="7"/>
</g>
<!-- DarwinCoreArchive_inflow&#45;&gt;DarwinCoreArchive -->
<g id="edge28" class="edge"><title>DarwinCoreArchive_inflow&#45;&gt;DarwinCoreArchive</title>
<path fill="none" stroke="black" d="M408,-1167.63C408,-1160.54 408,-1148.6 408,-1137.42"/>
<polygon fill="black" stroke="black" points="411.5,-1137.12 408,-1127.12 404.5,-1137.12 411.5,-1137.12"/>
</g>
</g>
</svg>
