<?xml version="1.0" encoding="UTF-8" standalone="no"?>
<!DOCTYPE svg PUBLIC "-//W3C//DTD SVG 1.1//EN"
 "http://www.w3.org/Graphics/SVG/1.1/DTD/svg11.dtd">
<!-- Generated by graphviz version 2.36.0 (20140111.2315)
 -->
<!-- Title: yw_data_view Pages: 1 -->
<svg width="468pt" height="1240pt"
 viewBox="0.00 0.00 468.00 1240.00" xmlns="http://www.w3.org/2000/svg" xmlns:xlink="http://www.w3.org/1999/xlink">
<g id="graph0" class="graph" transform="scale(1 1) rotate(0) translate(4 1236)">
<title>yw_data_view</title>
<polygon fill="white" stroke="none" points="-4,4 -4,-1236 464,-1236 464,4 -4,4"/>
<text text-anchor="middle" x="230" y="-1213.6" font-family="Courier,monospace" font-size="18.00">DwCA_Taxon_Lookup</text>
<g id="clust1" class="cluster"><title>cluster_workflow</title>
<polygon fill="none" stroke="black" stroke-width="2" points="8,-62 8,-1142 452,-1142 452,-62 8,-62"/>
</g>
<g id="clust2" class="cluster"><title>cluster_workflow_inner</title>
<polygon fill="none" stroke="white" stroke-width="2" points="16,-70 16,-1134 444,-1134 444,-70 16,-70"/>
</g>
<g id="clust3" class="cluster"><title>cluster_inflows</title>
<polygon fill="none" stroke="white" stroke-width="2" points="207,-1150 207,-1196 253,-1196 253,-1150 207,-1150"/>
</g>
<g id="clust4" class="cluster"><title>cluster_inflows_inner</title>
<polygon fill="none" stroke="white" stroke-width="2" points="215,-1158 215,-1188 245,-1188 245,-1158 215,-1158"/>
</g>
<g id="clust5" class="cluster"><title>cluster_outflows</title>
<polygon fill="none" stroke="white" stroke-width="2" points="190,-8 190,-54 236,-54 236,-8 190,-8"/>
</g>
<g id="clust6" class="cluster"><title>cluster_outflows_inner</title>
<polygon fill="none" stroke="white" stroke-width="2" points="198,-16 198,-46 228,-46 228,-16 198,-16"/>
</g>
<!-- Setup -->
<g id="node1" class="node"><title>Setup</title>
<polygon fill="#ccffcc" stroke="black" points="253.25,-1052 194.75,-1052 194.75,-1016 253.25,-1016 253.25,-1052"/>
<text text-anchor="middle" x="224" y="-1030.3" font-family="Courier,monospace" font-size="14.00">Setup</text>
</g>
<!-- Workspace -->
<g id="node10" class="node"><title>Workspace</title>
<path fill="#ffffcc" stroke="black" d="M107.25,-908C107.25,-908 44.75,-908 44.75,-908 38.75,-908 32.75,-902 32.75,-896 32.75,-896 32.75,-884 32.75,-884 32.75,-878 38.75,-872 44.75,-872 44.75,-872 107.25,-872 107.25,-872 113.25,-872 119.25,-878 119.25,-884 119.25,-884 119.25,-896 119.25,-896 119.25,-902 113.25,-908 107.25,-908"/>
<text text-anchor="middle" x="76" y="-886.3" font-family="Helvetica,sans-Serif" font-size="14.00">Workspace</text>
</g>
<!-- Setup&#45;&gt;Workspace -->
<g id="edge12" class="edge"><title>Setup&#45;&gt;Workspace</title>
<path fill="none" stroke="black" d="M201.405,-1015.81C188.606,-1005.78 172.503,-992.634 159,-980 137.059,-959.471 113.88,-934.284 97.6104,-915.949"/>
<polygon fill="black" stroke="black" points="99.8873,-913.239 90.6506,-908.049 94.6348,-917.867 99.8873,-913.239"/>
</g>
<!-- OccurrenceFile -->
<g id="node11" class="node"><title>OccurrenceFile</title>
<path fill="#ffffcc" stroke="black" d="M267.25,-980C267.25,-980 180.75,-980 180.75,-980 174.75,-980 168.75,-974 168.75,-968 168.75,-968 168.75,-956 168.75,-956 168.75,-950 174.75,-944 180.75,-944 180.75,-944 267.25,-944 267.25,-944 273.25,-944 279.25,-950 279.25,-956 279.25,-956 279.25,-968 279.25,-968 279.25,-974 273.25,-980 267.25,-980"/>
<text text-anchor="middle" x="224" y="-958.3" font-family="Helvetica,sans-Serif" font-size="14.00">OccurrenceFile</text>
</g>
<!-- Setup&#45;&gt;OccurrenceFile -->
<g id="edge13" class="edge"><title>Setup&#45;&gt;OccurrenceFile</title>
<path fill="none" stroke="black" d="M224,-1015.7C224,-1007.98 224,-998.712 224,-990.112"/>
<polygon fill="black" stroke="black" points="227.5,-990.104 224,-980.104 220.5,-990.104 227.5,-990.104"/>
</g>
<!-- FileToDataStream -->
<g id="node2" class="node"><title>FileToDataStream</title>
<polygon fill="#ccffcc" stroke="black" points="299.25,-908 148.75,-908 148.75,-872 299.25,-872 299.25,-908"/>
<text text-anchor="middle" x="224" y="-886.3" font-family="Courier,monospace" font-size="14.00">FileToDataStream</text>
</g>
<!-- DataRecord -->
<g id="node12" class="node"><title>DataRecord</title>
<path fill="#ffffcc" stroke="black" d="M257.25,-836C257.25,-836 190.75,-836 190.75,-836 184.75,-836 178.75,-830 178.75,-824 178.75,-824 178.75,-812 178.75,-812 178.75,-806 184.75,-800 190.75,-800 190.75,-800 257.25,-800 257.25,-800 263.25,-800 269.25,-806 269.25,-812 269.25,-812 269.25,-824 269.25,-824 269.25,-830 263.25,-836 257.25,-836"/>
<text text-anchor="middle" x="224" y="-814.3" font-family="Helvetica,sans-Serif" font-size="14.00">DataRecord</text>
</g>
<!-- FileToDataStream&#45;&gt;DataRecord -->
<g id="edge14" class="edge"><title>FileToDataStream&#45;&gt;DataRecord</title>
<path fill="none" stroke="black" d="M224,-871.697C224,-863.983 224,-854.712 224,-846.112"/>
<polygon fill="black" stroke="black" points="227.5,-846.104 224,-836.104 220.5,-846.104 227.5,-846.104"/>
</g>
<!-- EnvironmentTagger -->
<g id="node3" class="node"><title>EnvironmentTagger</title>
<polygon fill="#ccffcc" stroke="black" points="303.25,-764 144.75,-764 144.75,-728 303.25,-728 303.25,-764"/>
<text text-anchor="middle" x="224" y="-742.3" font-family="Courier,monospace" font-size="14.00">EnvironmentTagger</text>
</g>
<!-- TaggedDataRecord -->
<g id="node13" class="node"><title>TaggedDataRecord</title>
<path fill="#ffffcc" stroke="black" d="M281.25,-692C281.25,-692 166.75,-692 166.75,-692 160.75,-692 154.75,-686 154.75,-680 154.75,-680 154.75,-668 154.75,-668 154.75,-662 160.75,-656 166.75,-656 166.75,-656 281.25,-656 281.25,-656 287.25,-656 293.25,-662 293.25,-668 293.25,-668 293.25,-680 293.25,-680 293.25,-686 287.25,-692 281.25,-692"/>
<text text-anchor="middle" x="224" y="-670.3" font-family="Helvetica,sans-Serif" font-size="14.00">TaggedDataRecord</text>
</g>
<!-- EnvironmentTagger&#45;&gt;TaggedDataRecord -->
<g id="edge15" class="edge"><title>EnvironmentTagger&#45;&gt;TaggedDataRecord</title>
<path fill="none" stroke="black" d="M224,-727.697C224,-719.983 224,-710.712 224,-702.112"/>
<polygon fill="black" stroke="black" points="227.5,-702.104 224,-692.104 220.5,-702.104 227.5,-702.104"/>
</g>
<!-- FilterToJustMarine -->
<g id="node4" class="node"><title>FilterToJustMarine</title>
<polygon fill="#ccffcc" stroke="black" points="258,-620 90,-620 90,-584 258,-584 258,-620"/>
<text text-anchor="middle" x="174" y="-598.3" font-family="Courier,monospace" font-size="14.00">FilterToJustMarine</text>
</g>
<!-- MarineDataRecord -->
<g id="node14" class="node"><title>MarineDataRecord</title>
<path fill="#ffffcc" stroke="black" d="M229,-548C229,-548 119,-548 119,-548 113,-548 107,-542 107,-536 107,-536 107,-524 107,-524 107,-518 113,-512 119,-512 119,-512 229,-512 229,-512 235,-512 241,-518 241,-524 241,-524 241,-536 241,-536 241,-542 235,-548 229,-548"/>
<text text-anchor="middle" x="174" y="-526.3" font-family="Helvetica,sans-Serif" font-size="14.00">MarineDataRecord</text>
</g>
<!-- FilterToJustMarine&#45;&gt;MarineDataRecord -->
<g id="edge16" class="edge"><title>FilterToJustMarine&#45;&gt;MarineDataRecord</title>
<path fill="none" stroke="black" d="M174,-583.697C174,-575.983 174,-566.712 174,-558.112"/>
<polygon fill="black" stroke="black" points="177.5,-558.104 174,-548.104 170.5,-558.104 177.5,-558.104"/>
</g>
<!-- FilterToNonMarine -->
<g id="node5" class="node"><title>FilterToNonMarine</title>
<polygon fill="#ccffcc" stroke="black" points="435.25,-620 276.75,-620 276.75,-584 435.25,-584 435.25,-620"/>
<text text-anchor="middle" x="356" y="-598.3" font-family="Courier,monospace" font-size="14.00">FilterToNonMarine</text>
</g>
<!-- notMarineDataRecord -->
<g id="node15" class="node"><title>notMarineDataRecord</title>
<path fill="#ffffcc" stroke="black" d="M419.25,-548C419.25,-548 290.75,-548 290.75,-548 284.75,-548 278.75,-542 278.75,-536 278.75,-536 278.75,-524 278.75,-524 278.75,-518 284.75,-512 290.75,-512 290.75,-512 419.25,-512 419.25,-512 425.25,-512 431.25,-518 431.25,-524 431.25,-524 431.25,-536 431.25,-536 431.25,-542 425.25,-548 419.25,-548"/>
<text text-anchor="middle" x="355" y="-526.3" font-family="Helvetica,sans-Serif" font-size="14.00">notMarineDataRecord</text>
</g>
<!-- FilterToNonMarine&#45;&gt;notMarineDataRecord -->
<g id="edge17" class="edge"><title>FilterToNonMarine&#45;&gt;notMarineDataRecord</title>
<path fill="none" stroke="black" d="M355.753,-583.697C355.643,-575.983 355.51,-566.712 355.387,-558.112"/>
<polygon fill="black" stroke="black" points="358.887,-558.053 355.244,-548.104 351.888,-558.153 358.887,-558.053"/>
</g>
<!-- WoRMSLookup -->
<g id="node6" class="node"><title>WoRMSLookup</title>
<polygon fill="#ccffcc" stroke="black" points="228.25,-476 119.75,-476 119.75,-440 228.25,-440 228.25,-476"/>
<text text-anchor="middle" x="174" y="-454.3" font-family="Courier,monospace" font-size="14.00">WoRMSLookup</text>
</g>
<!-- WoRMSUpdatedRecord -->
<g id="node16" class="node"><title>WoRMSUpdatedRecord</title>
<path fill="#ffffcc" stroke="black" d="M246.25,-404C246.25,-404 103.75,-404 103.75,-404 97.75,-404 91.75,-398 91.75,-392 91.75,-392 91.75,-380 91.75,-380 91.75,-374 97.75,-368 103.75,-368 103.75,-368 246.25,-368 246.25,-368 252.25,-368 258.25,-374 258.25,-380 258.25,-380 258.25,-392 258.25,-392 258.25,-398 252.25,-404 246.25,-404"/>
<text text-anchor="middle" x="175" y="-382.3" font-family="Helvetica,sans-Serif" font-size="14.00">WoRMSUpdatedRecord</text>
</g>
<!-- WoRMSLookup&#45;&gt;WoRMSUpdatedRecord -->
<g id="edge18" class="edge"><title>WoRMSLookup&#45;&gt;WoRMSUpdatedRecord</title>
<path fill="none" stroke="black" d="M174.247,-439.697C174.357,-431.983 174.49,-422.712 174.613,-414.112"/>
<polygon fill="black" stroke="black" points="178.112,-414.153 174.756,-404.104 171.113,-414.053 178.112,-414.153"/>
</g>
<!-- GBIFLookup -->
<g id="node7" class="node"><title>GBIFLookup</title>
<polygon fill="#ccffcc" stroke="black" points="402.25,-476 301.75,-476 301.75,-440 402.25,-440 402.25,-476"/>
<text text-anchor="middle" x="352" y="-454.3" font-family="Courier,monospace" font-size="14.00">GBIFLookup</text>
</g>
<!-- GBIFUpdatedRecord -->
<g id="node17" class="node"><title>GBIFUpdatedRecord</title>
<path fill="#ffffcc" stroke="black" d="M411.25,-404C411.25,-404 288.75,-404 288.75,-404 282.75,-404 276.75,-398 276.75,-392 276.75,-392 276.75,-380 276.75,-380 276.75,-374 282.75,-368 288.75,-368 288.75,-368 411.25,-368 411.25,-368 417.25,-368 423.25,-374 423.25,-380 423.25,-380 423.25,-392 423.25,-392 423.25,-398 417.25,-404 411.25,-404"/>
<text text-anchor="middle" x="350" y="-382.3" font-family="Helvetica,sans-Serif" font-size="14.00">GBIFUpdatedRecord</text>
</g>
<!-- GBIFLookup&#45;&gt;GBIFUpdatedRecord -->
<g id="edge19" class="edge"><title>GBIFLookup&#45;&gt;GBIFUpdatedRecord</title>
<path fill="none" stroke="black" d="M351.506,-439.697C351.285,-431.983 351.02,-422.712 350.775,-414.112"/>
<polygon fill="black" stroke="black" points="354.273,-414 350.489,-404.104 347.276,-414.2 354.273,-414"/>
</g>
<!-- StreamMerge -->
<g id="node8" class="node"><title>StreamMerge</title>
<polygon fill="#ccffcc" stroke="black" points="248.25,-332 139.75,-332 139.75,-296 248.25,-296 248.25,-332"/>
<text text-anchor="middle" x="194" y="-310.3" font-family="Courier,monospace" font-size="14.00">StreamMerge</text>
</g>
<!-- MergedStream -->
<g id="node18" class="node"><title>MergedStream</title>
<path fill="#ffffcc" stroke="black" d="M236.25,-260C236.25,-260 151.75,-260 151.75,-260 145.75,-260 139.75,-254 139.75,-248 139.75,-248 139.75,-236 139.75,-236 139.75,-230 145.75,-224 151.75,-224 151.75,-224 236.25,-224 236.25,-224 242.25,-224 248.25,-230 248.25,-236 248.25,-236 248.25,-248 248.25,-248 248.25,-254 242.25,-260 236.25,-260"/>
<text text-anchor="middle" x="194" y="-238.3" font-family="Helvetica,sans-Serif" font-size="14.00">MergedStream</text>
</g>
<!-- StreamMerge&#45;&gt;MergedStream -->
<g id="edge20" class="edge"><title>StreamMerge&#45;&gt;MergedStream</title>
<path fill="none" stroke="black" d="M194,-295.697C194,-287.983 194,-278.712 194,-270.112"/>
<polygon fill="black" stroke="black" points="197.5,-270.104 194,-260.104 190.5,-270.104 197.5,-270.104"/>
</g>
<!-- CsvFileWriter -->
<g id="node9" class="node"><title>CsvFileWriter</title>
<polygon fill="#ccffcc" stroke="black" points="257,-188 131,-188 131,-152 257,-152 257,-188"/>
<text text-anchor="middle" x="194" y="-166.3" font-family="Courier,monospace" font-size="14.00">CsvFileWriter</text>
</g>
<!-- UpdatedOccurrenceFile -->
<g id="node20" class="node"><title>UpdatedOccurrenceFile</title>
<path fill="#ffe4b5" stroke="black" d="M36,-79C36,-79 390,-79 390,-79 396,-79 402,-85 402,-91 402,-91 402,-103 402,-103 402,-109 396,-115 390,-115 390,-115 36,-115 36,-115 30,-115 24,-109 24,-103 24,-103 24,-91 24,-91 24,-85 30,-79 36,-79"/>
<text text-anchor="middle" x="213" y="-103.8" font-family="Courier,monospace" font-weight="bold" font-size="9.00">UpdatedOccurrenceFile</text>
<polyline fill="none" stroke="black" points="24,-97 402,-97 "/>
<text text-anchor="middle" x="213" y="-85.8" font-family="Courier,monospace" font-weight="bold" font-size="9.00">workspace_10d7d3cf&#45;a841&#45;11e7&#45;b230&#45;acbc3296f741/mergedoutputfile.csv</text>
</g>
<!-- CsvFileWriter&#45;&gt;UpdatedOccurrenceFile -->
<g id="edge21" class="edge"><title>CsvFileWriter&#45;&gt;UpdatedOccurrenceFile</title>
<path fill="none" stroke="black" d="M198.599,-151.813C200.77,-143.702 203.41,-133.836 205.834,-124.777"/>
<polygon fill="black" stroke="black" points="209.239,-125.594 208.443,-115.029 202.477,-123.784 209.239,-125.594"/>
</g>
<!-- Workspace&#45;&gt;CsvFileWriter -->
<g id="edge3" class="edge"><title>Workspace&#45;&gt;CsvFileWriter</title>
<path fill="none" stroke="black" d="M75.0122,-871.958C73.555,-845.308 71,-792.143 71,-747 71,-747 71,-747 71,-313 71,-260.612 119.422,-218.063 155.502,-193.629"/>
<polygon fill="black" stroke="black" points="157.474,-196.522 163.911,-188.106 153.631,-190.671 157.474,-196.522"/>
</g>
<!-- OccurrenceFile&#45;&gt;FileToDataStream -->
<g id="edge5" class="edge"><title>OccurrenceFile&#45;&gt;FileToDataStream</title>
<path fill="none" stroke="black" d="M224,-943.697C224,-935.983 224,-926.712 224,-918.112"/>
<polygon fill="black" stroke="black" points="227.5,-918.104 224,-908.104 220.5,-918.104 227.5,-918.104"/>
</g>
<!-- DataRecord&#45;&gt;EnvironmentTagger -->
<g id="edge7" class="edge"><title>DataRecord&#45;&gt;EnvironmentTagger</title>
<path fill="none" stroke="black" d="M224,-799.697C224,-791.983 224,-782.712 224,-774.112"/>
<polygon fill="black" stroke="black" points="227.5,-774.104 224,-764.104 220.5,-774.104 227.5,-774.104"/>
</g>
<!-- TaggedDataRecord&#45;&gt;FilterToJustMarine -->
<g id="edge11" class="edge"><title>TaggedDataRecord&#45;&gt;FilterToJustMarine</title>
<path fill="none" stroke="black" d="M211.64,-655.697C205.767,-647.474 198.631,-637.483 192.158,-628.421"/>
<polygon fill="black" stroke="black" points="194.878,-626.207 186.217,-620.104 189.182,-630.276 194.878,-626.207"/>
</g>
<!-- TaggedDataRecord&#45;&gt;FilterToNonMarine -->
<g id="edge10" class="edge"><title>TaggedDataRecord&#45;&gt;FilterToNonMarine</title>
<path fill="none" stroke="black" d="M256.291,-655.876C273.869,-646.554 295.809,-634.919 314.629,-624.939"/>
<polygon fill="black" stroke="black" points="316.39,-627.967 323.585,-620.19 313.111,-621.783 316.39,-627.967"/>
</g>
<!-- MarineDataRecord&#45;&gt;WoRMSLookup -->
<g id="edge2" class="edge"><title>MarineDataRecord&#45;&gt;WoRMSLookup</title>
<path fill="none" stroke="black" d="M174,-511.697C174,-503.983 174,-494.712 174,-486.112"/>
<polygon fill="black" stroke="black" points="177.5,-486.104 174,-476.104 170.5,-486.104 177.5,-486.104"/>
</g>
<!-- notMarineDataRecord&#45;&gt;GBIFLookup -->
<g id="edge4" class="edge"><title>notMarineDataRecord&#45;&gt;GBIFLookup</title>
<path fill="none" stroke="black" d="M354.258,-511.697C353.928,-503.983 353.531,-494.712 353.162,-486.112"/>
<polygon fill="black" stroke="black" points="356.658,-485.945 352.733,-476.104 349.665,-486.245 356.658,-485.945"/>
</g>
<!-- WoRMSUpdatedRecord&#45;&gt;StreamMerge -->
<g id="edge6" class="edge"><title>WoRMSUpdatedRecord&#45;&gt;StreamMerge</title>
<path fill="none" stroke="black" d="M179.697,-367.697C181.813,-359.898 184.362,-350.509 186.718,-341.829"/>
<polygon fill="black" stroke="black" points="190.116,-342.672 189.357,-332.104 183.36,-340.838 190.116,-342.672"/>
</g>
<!-- GBIFUpdatedRecord&#45;&gt;StreamMerge -->
<g id="edge8" class="edge"><title>GBIFUpdatedRecord&#45;&gt;StreamMerge</title>
<path fill="none" stroke="black" d="M311.838,-367.876C290.607,-358.349 263.992,-346.407 241.431,-336.283"/>
<polygon fill="black" stroke="black" points="242.594,-332.969 232.038,-332.068 239.729,-339.356 242.594,-332.969"/>
</g>
<!-- MergedStream&#45;&gt;CsvFileWriter -->
<g id="edge9" class="edge"><title>MergedStream&#45;&gt;CsvFileWriter</title>
<path fill="none" stroke="black" d="M194,-223.697C194,-215.983 194,-206.712 194,-198.112"/>
<polygon fill="black" stroke="black" points="197.5,-198.104 194,-188.104 190.5,-198.104 197.5,-198.104"/>
</g>
<!-- DarwinCoreArchive -->
<g id="node19" class="node"><title>DarwinCoreArchive</title>
<path fill="#ffe4b5" stroke="black" d="M36.5,-1089C36.5,-1089 423.5,-1089 423.5,-1089 429.5,-1089 435.5,-1095 435.5,-1101 435.5,-1101 435.5,-1113 435.5,-1113 435.5,-1119 429.5,-1125 423.5,-1125 423.5,-1125 36.5,-1125 36.5,-1125 30.5,-1125 24.5,-1119 24.5,-1113 24.5,-1113 24.5,-1101 24.5,-1101 24.5,-1095 30.5,-1089 36.5,-1089"/>
<text text-anchor="middle" x="230" y="-1113.8" font-family="Courier,monospace" font-weight="bold" font-size="9.00">DarwinCoreArchive</text>
<polyline fill="none" stroke="black" points="24.5,-1107 435.5,-1107 "/>
<text text-anchor="middle" x="230" y="-1095.8" font-family="Courier,monospace" font-weight="bold" font-size="9.00">packages/kurator_FileBranchingTaxonLookup/data/kurator_sample_data_v2.txt</text>
</g>
<!-- DarwinCoreArchive&#45;&gt;Setup -->
<g id="edge1" class="edge"><title>DarwinCoreArchive&#45;&gt;Setup</title>
<path fill="none" stroke="black" d="M228.548,-1088.81C227.87,-1080.79 227.046,-1071.05 226.288,-1062.07"/>
<polygon fill="black" stroke="black" points="229.769,-1061.7 225.439,-1052.03 222.794,-1062.29 229.769,-1061.7"/>
</g>
<!-- UpdatedOccurrenceFile_outflow -->
<g id="node22" class="node"><title>UpdatedOccurrenceFile_outflow</title>
<ellipse fill="none" stroke="black" cx="213" cy="-31" rx="7" ry="7"/>
</g>
<!-- UpdatedOccurrenceFile&#45;&gt;UpdatedOccurrenceFile_outflow -->
<g id="edge23" class="edge"><title>UpdatedOccurrenceFile&#45;&gt;UpdatedOccurrenceFile_outflow</title>
<path fill="none" stroke="black" d="M213,-78.8492C213,-69.3727 213,-57.6638 213,-48.3223"/>
<polygon fill="black" stroke="black" points="216.5,-48.1021 213,-38.1022 209.5,-48.1022 216.5,-48.1021"/>
</g>
<!-- DarwinCoreArchive_inflow -->
<g id="node21" class="node"><title>DarwinCoreArchive_inflow</title>
<ellipse fill="none" stroke="black" cx="230" cy="-1173" rx="7" ry="7"/>
</g>
<!-- DarwinCoreArchive_inflow&#45;&gt;DarwinCoreArchive -->
<g id="edge22" class="edge"><title>DarwinCoreArchive_inflow&#45;&gt;DarwinCoreArchive</title>
<path fill="none" stroke="black" d="M230,-1165.63C230,-1158.54 230,-1146.6 230,-1135.42"/>
<polygon fill="black" stroke="black" points="233.5,-1135.12 230,-1125.12 226.5,-1135.12 233.5,-1135.12"/>
</g>
</g>
</svg>
