<?xml version="1.0" encoding="UTF-8" standalone="no"?>
<!DOCTYPE svg PUBLIC "-//W3C//DTD SVG 1.1//EN"
 "http://www.w3.org/Graphics/SVG/1.1/DTD/svg11.dtd">
<!-- Generated by graphviz version 2.36.0 (20140111.2315)
 -->
<!-- Title: yw_data_view Pages: 1 -->
<svg width="780pt" height="1268pt"
 viewBox="0.00 0.00 780.00 1268.00" xmlns="http://www.w3.org/2000/svg" xmlns:xlink="http://www.w3.org/1999/xlink">
<g id="graph0" class="graph" transform="scale(1 1) rotate(0) translate(4 1264)">
<title>yw_data_view</title>
<polygon fill="white" stroke="none" points="-4,4 -4,-1264 776,-1264 776,4 -4,4"/>
<text text-anchor="middle" x="386" y="-1241.6" font-family="Courier,monospace" font-size="18.00">DwCA_Taxon_Lookup</text>
<g id="clust1" class="cluster"><title>cluster_workflow</title>
<polygon fill="none" stroke="black" stroke-width="2" points="8,-62 8,-1170 764,-1170 764,-62 8,-62"/>
</g>
<g id="clust2" class="cluster"><title>cluster_workflow_inner</title>
<polygon fill="none" stroke="white" stroke-width="2" points="16,-70 16,-1162 756,-1162 756,-70 16,-70"/>
</g>
<g id="clust3" class="cluster"><title>cluster_inflows</title>
<polygon fill="none" stroke="white" stroke-width="2" points="431,-1178 431,-1224 477,-1224 477,-1178 431,-1178"/>
</g>
<g id="clust4" class="cluster"><title>cluster_inflows_inner</title>
<polygon fill="none" stroke="white" stroke-width="2" points="439,-1186 439,-1216 469,-1216 469,-1186 439,-1186"/>
</g>
<g id="clust5" class="cluster"><title>cluster_outflows</title>
<polygon fill="none" stroke="white" stroke-width="2" points="348,-8 348,-54 426,-54 426,-8 348,-8"/>
</g>
<g id="clust6" class="cluster"><title>cluster_outflows_inner</title>
<polygon fill="none" stroke="white" stroke-width="2" points="356,-16 356,-46 418,-46 418,-16 356,-16"/>
</g>
<!-- FilterToNonMarine -->
<g id="node1" class="node"><title>FilterToNonMarine</title>
<polygon fill="#d6d6d7" stroke="black" points="339.25,-644 180.75,-644 180.75,-608 339.25,-608 339.25,-644"/>
<text text-anchor="middle" x="260" y="-622.3" font-family="Courier,monospace" font-size="14.00">FilterToNonMarine</text>
</g>
<!-- notMarineDataRecord -->
<g id="node10" class="node"><title>notMarineDataRecord</title>
<path fill="#d6d6d7" stroke="black" d="M142.5,-524.5C142.5,-524.5 271.5,-524.5 271.5,-524.5 277.5,-524.5 283.5,-530.5 283.5,-536.5 283.5,-536.5 283.5,-559.5 283.5,-559.5 283.5,-565.5 277.5,-571.5 271.5,-571.5 271.5,-571.5 142.5,-571.5 142.5,-571.5 136.5,-571.5 130.5,-565.5 130.5,-559.5 130.5,-559.5 130.5,-536.5 130.5,-536.5 130.5,-530.5 136.5,-524.5 142.5,-524.5"/>
<text text-anchor="middle" x="207" y="-556.3" font-family="Helvetica,sans-Serif" font-size="14.00">notMarineDataRecord</text>
<polyline fill="none" stroke="black" points="130.5,-548.5 283.5,-548.5 "/>
</g>
<!-- FilterToNonMarine&#45;&gt;notMarineDataRecord -->
<g id="edge21" class="edge"><title>FilterToNonMarine&#45;&gt;notMarineDataRecord</title>
<path fill="none" stroke="black" d="M247.973,-607.754C242.268,-599.573 235.271,-589.54 228.685,-580.096"/>
<polygon fill="black" stroke="black" points="231.392,-577.858 222.801,-571.658 225.65,-581.862 231.392,-577.858"/>
</g>
<!-- LogFile -->
<g id="node20" class="node"><title>LogFile</title>
<path fill="#ffe4b5" stroke="black" d="M354.5,-374C354.5,-374 735.5,-374 735.5,-374 741.5,-374 747.5,-380 747.5,-386 747.5,-386 747.5,-398 747.5,-398 747.5,-404 741.5,-410 735.5,-410 735.5,-410 354.5,-410 354.5,-410 348.5,-410 342.5,-404 342.5,-398 342.5,-398 342.5,-386 342.5,-386 342.5,-380 348.5,-374 354.5,-374"/>
<text text-anchor="middle" x="545" y="-398.8" font-family="Courier,monospace" font-weight="bold" font-size="9.00">LogFile</text>
<polyline fill="none" stroke="black" points="342.5,-392 747.5,-392 "/>
<text text-anchor="middle" x="545" y="-380.8" font-family="Courier,monospace" font-weight="bold" font-size="9.00">./packages/kurator_FileBranchingTaxonLookup/workflows/results/runlog.log</text>
</g>
<!-- FilterToNonMarine&#45;&gt;LogFile -->
<g id="edge20" class="edge"><title>FilterToNonMarine&#45;&gt;LogFile</title>
<path fill="none" stroke="black" d="M271.255,-607.663C277.674,-597.467 285.674,-584.217 292,-572 319.238,-519.398 304.502,-489.932 350,-452 371.353,-434.198 397.975,-421.766 424.618,-413.085"/>
<polygon fill="black" stroke="black" points="425.906,-416.35 434.426,-410.053 423.838,-409.662 425.906,-416.35"/>
</g>
<!-- GBIFLookup -->
<g id="node2" class="node"><title>GBIFLookup</title>
<polygon fill="#d6d6d7" stroke="black" points="257.25,-488 156.75,-488 156.75,-452 257.25,-452 257.25,-488"/>
<text text-anchor="middle" x="207" y="-466.3" font-family="Courier,monospace" font-size="14.00">GBIFLookup</text>
</g>
<!-- GBIFUpdatedRecord -->
<g id="node11" class="node"><title>GBIFUpdatedRecord</title>
<path fill="#d6d6d7" stroke="black" d="M56.5,-368.5C56.5,-368.5 179.5,-368.5 179.5,-368.5 185.5,-368.5 191.5,-374.5 191.5,-380.5 191.5,-380.5 191.5,-403.5 191.5,-403.5 191.5,-409.5 185.5,-415.5 179.5,-415.5 179.5,-415.5 56.5,-415.5 56.5,-415.5 50.5,-415.5 44.5,-409.5 44.5,-403.5 44.5,-403.5 44.5,-380.5 44.5,-380.5 44.5,-374.5 50.5,-368.5 56.5,-368.5"/>
<text text-anchor="middle" x="118" y="-400.3" font-family="Helvetica,sans-Serif" font-size="14.00">GBIFUpdatedRecord</text>
<polyline fill="none" stroke="black" points="44.5,-392.5 191.5,-392.5 "/>
</g>
<!-- GBIFLookup&#45;&gt;GBIFUpdatedRecord -->
<g id="edge25" class="edge"><title>GBIFLookup&#45;&gt;GBIFUpdatedRecord</title>
<path fill="none" stroke="black" d="M186.805,-451.754C176.637,-443.072 164.027,-432.304 152.392,-422.368"/>
<polygon fill="black" stroke="black" points="154.411,-419.49 144.533,-415.658 149.865,-424.813 154.411,-419.49"/>
</g>
<!-- GBIFLookup&#45;&gt;LogFile -->
<g id="edge24" class="edge"><title>GBIFLookup&#45;&gt;LogFile</title>
<path fill="none" stroke="black" d="M257.602,-457.622C310.832,-445.653 395.553,-426.604 459.246,-412.282"/>
<polygon fill="black" stroke="black" points="460.292,-415.634 469.28,-410.026 458.756,-408.805 460.292,-415.634"/>
</g>
<!-- Setup -->
<g id="node3" class="node"><title>Setup</title>
<polygon fill="#ccffcc" stroke="black" points="483.25,-1080 424.75,-1080 424.75,-1044 483.25,-1044 483.25,-1080"/>
<text text-anchor="middle" x="454" y="-1058.3" font-family="Courier,monospace" font-size="14.00">Setup</text>
</g>
<!-- Workspace -->
<g id="node17" class="node"><title>Workspace</title>
<path fill="#ffffcc" stroke="black" d="M156,-936C156,-936 118,-936 118,-936 112,-936 106,-930 106,-924 106,-924 106,-912 106,-912 106,-906 112,-900 118,-900 118,-900 156,-900 156,-900 162,-900 168,-906 168,-912 168,-912 168,-924 168,-924 168,-930 162,-936 156,-936"/>
<text text-anchor="middle" x="137" y="-915.8" font-family="Helvetica,sans-Serif" font-size="9.00">Workspace</text>
</g>
<!-- Setup&#45;&gt;Workspace -->
<g id="edge12" class="edge"><title>Setup&#45;&gt;Workspace</title>
<path fill="none" stroke="black" d="M424.746,-1047.9C367.888,-1022.43 242.371,-966.201 177.533,-937.157"/>
<polygon fill="black" stroke="black" points="178.602,-933.801 168.045,-932.907 175.74,-940.189 178.602,-933.801"/>
</g>
<!-- OccurrenceFile -->
<g id="node18" class="node"><title>OccurrenceFile</title>
<path fill="#ffffcc" stroke="black" d="M481,-1008C481,-1008 427,-1008 427,-1008 421,-1008 415,-1002 415,-996 415,-996 415,-984 415,-984 415,-978 421,-972 427,-972 427,-972 481,-972 481,-972 487,-972 493,-978 493,-984 493,-984 493,-996 493,-996 493,-1002 487,-1008 481,-1008"/>
<text text-anchor="middle" x="454" y="-987.8" font-family="Helvetica,sans-Serif" font-size="9.00">OccurrenceFile</text>
</g>
<!-- Setup&#45;&gt;OccurrenceFile -->
<g id="edge14" class="edge"><title>Setup&#45;&gt;OccurrenceFile</title>
<path fill="none" stroke="black" d="M454,-1043.7C454,-1035.98 454,-1026.71 454,-1018.11"/>
<polygon fill="black" stroke="black" points="457.5,-1018.1 454,-1008.1 450.5,-1018.1 457.5,-1018.1"/>
</g>
<!-- Setup&#45;&gt;LogFile -->
<g id="edge13" class="edge"><title>Setup&#45;&gt;LogFile</title>
<path fill="none" stroke="black" d="M480.025,-1044C512.833,-1020.27 565,-973.916 565,-919 565,-919 565,-919 565,-547 565,-502.383 556.642,-451.097 550.732,-420.408"/>
<polygon fill="black" stroke="black" points="554.138,-419.586 548.762,-410.457 547.271,-420.946 554.138,-419.586"/>
</g>
<!-- FileToDataStream -->
<g id="node4" class="node"><title>FileToDataStream</title>
<polygon fill="#ccffcc" stroke="black" points="529.25,-936 378.75,-936 378.75,-900 529.25,-900 529.25,-936"/>
<text text-anchor="middle" x="454" y="-914.3" font-family="Courier,monospace" font-size="14.00">FileToDataStream</text>
</g>
<!-- DataRecord -->
<g id="node12" class="node"><title>DataRecord</title>
<path fill="#f8d2db" stroke="black" d="M417,-827C417,-827 491,-827 491,-827 497,-827 503,-833 503,-839 503,-839 503,-851 503,-851 503,-857 497,-863 491,-863 491,-863 417,-863 417,-863 411,-863 405,-857 405,-851 405,-851 405,-839 405,-839 405,-833 411,-827 417,-827"/>
<text text-anchor="middle" x="454" y="-851.8" font-family="Courier,monospace" font-weight="bold" font-size="9.00">DataRecord</text>
<polyline fill="none" stroke="black" points="405,-845 503,-845 "/>
<text text-anchor="middle" x="454" y="-833.8" font-family="Courier,monospace" font-weight="bold" font-size="9.00">MCZ:Mala:120797</text>
</g>
<!-- FileToDataStream&#45;&gt;DataRecord -->
<g id="edge15" class="edge"><title>FileToDataStream&#45;&gt;DataRecord</title>
<path fill="none" stroke="black" d="M454,-899.813C454,-891.789 454,-882.047 454,-873.069"/>
<polygon fill="black" stroke="black" points="457.5,-873.029 454,-863.029 450.5,-873.029 457.5,-873.029"/>
</g>
<!-- EnvironmentTagger -->
<g id="node5" class="node"><title>EnvironmentTagger</title>
<polygon fill="#ccffcc" stroke="black" points="533.25,-790 374.75,-790 374.75,-754 533.25,-754 533.25,-790"/>
<text text-anchor="middle" x="454" y="-768.3" font-family="Courier,monospace" font-size="14.00">EnvironmentTagger</text>
</g>
<!-- TaggedDataRecord -->
<g id="node13" class="node"><title>TaggedDataRecord</title>
<path fill="#f8d2db" stroke="black" d="M402.5,-681C402.5,-681 481.5,-681 481.5,-681 487.5,-681 493.5,-687 493.5,-693 493.5,-693 493.5,-705 493.5,-705 493.5,-711 487.5,-717 481.5,-717 481.5,-717 402.5,-717 402.5,-717 396.5,-717 390.5,-711 390.5,-705 390.5,-705 390.5,-693 390.5,-693 390.5,-687 396.5,-681 402.5,-681"/>
<text text-anchor="middle" x="442" y="-705.8" font-family="Courier,monospace" font-weight="bold" font-size="9.00">TaggedDataRecord</text>
<polyline fill="none" stroke="black" points="390.5,-699 493.5,-699 "/>
<text text-anchor="middle" x="442" y="-687.8" font-family="Courier,monospace" font-weight="bold" font-size="9.00">Marine</text>
</g>
<!-- EnvironmentTagger&#45;&gt;TaggedDataRecord -->
<g id="edge17" class="edge"><title>EnvironmentTagger&#45;&gt;TaggedDataRecord</title>
<path fill="none" stroke="black" d="M451.095,-753.813C449.739,-745.789 448.093,-736.047 446.575,-727.069"/>
<polygon fill="black" stroke="black" points="449.996,-726.306 444.878,-717.029 443.094,-727.472 449.996,-726.306"/>
</g>
<!-- EnvironmentTagger&#45;&gt;LogFile -->
<g id="edge16" class="edge"><title>EnvironmentTagger&#45;&gt;LogFile</title>
<path fill="none" stroke="black" d="M474.196,-753.702C501.005,-728.696 545,-679.641 545,-627 545,-627 545,-627 545,-547 545,-502.71 545,-451.255 545,-420.453"/>
<polygon fill="black" stroke="black" points="548.5,-420.091 545,-410.092 541.5,-420.092 548.5,-420.091"/>
</g>
<!-- FilterToJustMarine -->
<g id="node6" class="node"><title>FilterToJustMarine</title>
<polygon fill="#ccffcc" stroke="black" points="526,-644 358,-644 358,-608 526,-608 526,-644"/>
<text text-anchor="middle" x="442" y="-622.3" font-family="Courier,monospace" font-size="14.00">FilterToJustMarine</text>
</g>
<!-- MarineDataRecord -->
<g id="node14" class="node"><title>MarineDataRecord</title>
<path fill="#f8d2db" stroke="black" d="M334,-530C334,-530 494,-530 494,-530 500,-530 506,-536 506,-542 506,-542 506,-554 506,-554 506,-560 500,-566 494,-566 494,-566 334,-566 334,-566 328,-566 322,-560 322,-554 322,-554 322,-542 322,-542 322,-536 328,-530 334,-530"/>
<text text-anchor="middle" x="414" y="-554.8" font-family="Courier,monospace" font-weight="bold" font-size="9.00">MarineDataRecord</text>
<polyline fill="none" stroke="black" points="322,-548 506,-548 "/>
<text text-anchor="middle" x="414" y="-536.8" font-family="Courier,monospace" font-weight="bold" font-size="9.00">Teredora malleolus:Turton, 1822</text>
</g>
<!-- FilterToJustMarine&#45;&gt;MarineDataRecord -->
<g id="edge19" class="edge"><title>FilterToJustMarine&#45;&gt;MarineDataRecord</title>
<path fill="none" stroke="black" d="M435.646,-607.754C432.174,-598.329 427.796,-586.446 423.887,-575.837"/>
<polygon fill="black" stroke="black" points="427.07,-574.351 420.328,-566.177 420.501,-576.771 427.07,-574.351"/>
</g>
<!-- FilterToJustMarine&#45;&gt;LogFile -->
<g id="edge18" class="edge"><title>FilterToJustMarine&#45;&gt;LogFile</title>
<path fill="none" stroke="black" d="M476.165,-607.948C490.368,-599.136 505.683,-587.046 515,-572 530.407,-547.118 539.251,-464.099 542.944,-420.414"/>
<polygon fill="black" stroke="black" points="546.451,-420.465 543.772,-410.214 539.474,-419.898 546.451,-420.465"/>
</g>
<!-- WoRMSLookup -->
<g id="node7" class="node"><title>WoRMSLookup</title>
<polygon fill="#ccffcc" stroke="black" points="468.25,-488 359.75,-488 359.75,-452 468.25,-452 468.25,-488"/>
<text text-anchor="middle" x="414" y="-466.3" font-family="Courier,monospace" font-size="14.00">WoRMSLookup</text>
</g>
<!-- WoRMSUpdatedRecord -->
<g id="node15" class="node"><title>WoRMSUpdatedRecord</title>
<path fill="#f8d2db" stroke="black" d="M222,-374C222,-374 312,-374 312,-374 318,-374 324,-380 324,-386 324,-386 324,-398 324,-398 324,-404 318,-410 312,-410 312,-410 222,-410 222,-410 216,-410 210,-404 210,-398 210,-398 210,-386 210,-386 210,-380 216,-374 222,-374"/>
<text text-anchor="middle" x="267" y="-398.8" font-family="Courier,monospace" font-weight="bold" font-size="9.00">WoRMSUpdatedRecord</text>
<polyline fill="none" stroke="black" points="210,-392 324,-392 "/>
<text text-anchor="middle" x="267" y="-380.8" font-family="Courier,monospace" font-weight="bold" font-size="9.00">null</text>
</g>
<!-- WoRMSLookup&#45;&gt;WoRMSUpdatedRecord -->
<g id="edge23" class="edge"><title>WoRMSLookup&#45;&gt;WoRMSUpdatedRecord</title>
<path fill="none" stroke="black" d="M381.01,-451.944C359.807,-440.982 332.062,-426.637 309.251,-414.844"/>
<polygon fill="black" stroke="black" points="310.624,-411.614 300.134,-410.13 307.409,-417.832 310.624,-411.614"/>
</g>
<!-- WoRMSLookup&#45;&gt;LogFile -->
<g id="edge22" class="edge"><title>WoRMSLookup&#45;&gt;LogFile</title>
<path fill="none" stroke="black" d="M443.399,-451.944C462.061,-441.117 486.409,-426.992 506.592,-415.283"/>
<polygon fill="black" stroke="black" points="508.353,-418.308 515.246,-410.262 504.84,-412.253 508.353,-418.308"/>
</g>
<!-- StreamMerge -->
<g id="node8" class="node"><title>StreamMerge</title>
<polygon fill="#ccffcc" stroke="black" points="270.25,-332 161.75,-332 161.75,-296 270.25,-296 270.25,-332"/>
<text text-anchor="middle" x="216" y="-310.3" font-family="Courier,monospace" font-size="14.00">StreamMerge</text>
</g>
<!-- MergedStream -->
<g id="node19" class="node"><title>MergedStream</title>
<path fill="#ffffcc" stroke="black" d="M242,-260C242,-260 190,-260 190,-260 184,-260 178,-254 178,-248 178,-248 178,-236 178,-236 178,-230 184,-224 190,-224 190,-224 242,-224 242,-224 248,-224 254,-230 254,-236 254,-236 254,-248 254,-248 254,-254 248,-260 242,-260"/>
<text text-anchor="middle" x="216" y="-239.8" font-family="Helvetica,sans-Serif" font-size="9.00">MergedStream</text>
</g>
<!-- StreamMerge&#45;&gt;MergedStream -->
<g id="edge26" class="edge"><title>StreamMerge&#45;&gt;MergedStream</title>
<path fill="none" stroke="black" d="M216,-295.697C216,-287.983 216,-278.712 216,-270.112"/>
<polygon fill="black" stroke="black" points="219.5,-270.104 216,-260.104 212.5,-270.104 219.5,-270.104"/>
</g>
<!-- CsvFileWriter -->
<g id="node9" class="node"><title>CsvFileWriter</title>
<polygon fill="#ccffcc" stroke="black" points="279,-188 153,-188 153,-152 279,-152 279,-188"/>
<text text-anchor="middle" x="216" y="-166.3" font-family="Courier,monospace" font-size="14.00">CsvFileWriter</text>
</g>
<!-- UpdatedOccurrenceFile -->
<g id="node21" class="node"><title>UpdatedOccurrenceFile</title>
<path fill="#ffe4b5" stroke="black" d="M86,-79C86,-79 440,-79 440,-79 446,-79 452,-85 452,-91 452,-91 452,-103 452,-103 452,-109 446,-115 440,-115 440,-115 86,-115 86,-115 80,-115 74,-109 74,-103 74,-103 74,-91 74,-91 74,-85 80,-79 86,-79"/>
<text text-anchor="middle" x="263" y="-103.8" font-family="Courier,monospace" font-weight="bold" font-size="9.00">UpdatedOccurrenceFile</text>
<polyline fill="none" stroke="black" points="74,-97 452,-97 "/>
<text text-anchor="middle" x="263" y="-85.8" font-family="Courier,monospace" font-weight="bold" font-size="9.00">workspace_8b7dda80&#45;634e&#45;11e8&#45;9f66&#45;4a0002b0edf0/mergedoutputfile.csv</text>
</g>
<!-- CsvFileWriter&#45;&gt;UpdatedOccurrenceFile -->
<g id="edge27" class="edge"><title>CsvFileWriter&#45;&gt;UpdatedOccurrenceFile</title>
<path fill="none" stroke="black" d="M227.377,-151.813C232.977,-143.353 239.842,-132.984 246.045,-123.612"/>
<polygon fill="black" stroke="black" points="249.126,-125.299 251.727,-115.029 243.289,-121.435 249.126,-125.299"/>
</g>
<!-- notMarineDataRecord&#45;&gt;GBIFLookup -->
<g id="edge8" class="edge"><title>notMarineDataRecord&#45;&gt;GBIFLookup</title>
<path fill="none" stroke="black" d="M207,-524.197C207,-516.081 207,-506.858 207,-498.397"/>
<polygon fill="black" stroke="black" points="210.5,-498.228 207,-488.228 203.5,-498.228 210.5,-498.228"/>
</g>
<!-- GBIFUpdatedRecord&#45;&gt;StreamMerge -->
<g id="edge10" class="edge"><title>GBIFUpdatedRecord&#45;&gt;StreamMerge</title>
<path fill="none" stroke="black" d="M147.138,-368.403C159.332,-358.947 173.501,-347.958 185.806,-338.416"/>
<polygon fill="black" stroke="black" points="188.222,-340.971 193.979,-332.077 183.932,-335.44 188.222,-340.971"/>
</g>
<!-- DataRecord&#45;&gt;EnvironmentTagger -->
<g id="edge4" class="edge"><title>DataRecord&#45;&gt;EnvironmentTagger</title>
<path fill="none" stroke="black" d="M454,-826.813C454,-818.789 454,-809.047 454,-800.069"/>
<polygon fill="black" stroke="black" points="457.5,-800.029 454,-790.029 450.5,-800.029 457.5,-800.029"/>
</g>
<!-- TaggedDataRecord&#45;&gt;FilterToNonMarine -->
<g id="edge6" class="edge"><title>TaggedDataRecord&#45;&gt;FilterToNonMarine</title>
<path fill="none" stroke="black" d="M398.406,-680.994C372.819,-671.012 340.294,-658.324 313.204,-647.755"/>
<polygon fill="black" stroke="black" points="314.457,-644.487 303.869,-644.114 311.913,-651.009 314.457,-644.487"/>
</g>
<!-- TaggedDataRecord&#45;&gt;FilterToJustMarine -->
<g id="edge5" class="edge"><title>TaggedDataRecord&#45;&gt;FilterToJustMarine</title>
<path fill="none" stroke="black" d="M442,-680.813C442,-672.789 442,-663.047 442,-654.069"/>
<polygon fill="black" stroke="black" points="445.5,-654.029 442,-644.029 438.5,-654.029 445.5,-654.029"/>
</g>
<!-- MarineDataRecord&#45;&gt;WoRMSLookup -->
<g id="edge7" class="edge"><title>MarineDataRecord&#45;&gt;WoRMSLookup</title>
<path fill="none" stroke="black" d="M414,-529.754C414,-520.523 414,-508.935 414,-498.495"/>
<polygon fill="black" stroke="black" points="417.5,-498.177 414,-488.177 410.5,-498.177 417.5,-498.177"/>
</g>
<!-- WoRMSUpdatedRecord&#45;&gt;StreamMerge -->
<g id="edge9" class="edge"><title>WoRMSUpdatedRecord&#45;&gt;StreamMerge</title>
<path fill="none" stroke="black" d="M255.427,-373.754C248.841,-363.94 240.468,-351.462 233.133,-340.531"/>
<polygon fill="black" stroke="black" points="236.005,-338.531 227.527,-332.177 230.193,-342.431 236.005,-338.531"/>
</g>
<!-- DarwinCoreArchive -->
<g id="node16" class="node"><title>DarwinCoreArchive</title>
<path fill="#ffe4b5" stroke="black" d="M260.5,-1117C260.5,-1117 647.5,-1117 647.5,-1117 653.5,-1117 659.5,-1123 659.5,-1129 659.5,-1129 659.5,-1141 659.5,-1141 659.5,-1147 653.5,-1153 647.5,-1153 647.5,-1153 260.5,-1153 260.5,-1153 254.5,-1153 248.5,-1147 248.5,-1141 248.5,-1141 248.5,-1129 248.5,-1129 248.5,-1123 254.5,-1117 260.5,-1117"/>
<text text-anchor="middle" x="454" y="-1141.8" font-family="Courier,monospace" font-weight="bold" font-size="9.00">DarwinCoreArchive</text>
<polyline fill="none" stroke="black" points="248.5,-1135 659.5,-1135 "/>
<text text-anchor="middle" x="454" y="-1123.8" font-family="Courier,monospace" font-weight="bold" font-size="9.00">packages/kurator_FileBranchingTaxonLookup/data/kurator_sample_data_v2.txt</text>
</g>
<!-- DarwinCoreArchive&#45;&gt;Setup -->
<g id="edge1" class="edge"><title>DarwinCoreArchive&#45;&gt;Setup</title>
<path fill="none" stroke="black" d="M454,-1116.81C454,-1108.79 454,-1099.05 454,-1090.07"/>
<polygon fill="black" stroke="black" points="457.5,-1090.03 454,-1080.03 450.5,-1090.03 457.5,-1090.03"/>
</g>
<!-- Workspace&#45;&gt;CsvFileWriter -->
<g id="edge2" class="edge"><title>Workspace&#45;&gt;CsvFileWriter</title>
<path fill="none" stroke="black" d="M111.023,-899.932C77.9375,-875.901 25,-828.742 25,-773 25,-773 25,-773 25,-313 25,-250.633 91.3969,-212.446 145.896,-191.606"/>
<polygon fill="black" stroke="black" points="147.396,-194.784 155.566,-188.039 144.973,-188.216 147.396,-194.784"/>
</g>
<!-- OccurrenceFile&#45;&gt;FileToDataStream -->
<g id="edge3" class="edge"><title>OccurrenceFile&#45;&gt;FileToDataStream</title>
<path fill="none" stroke="black" d="M454,-971.697C454,-963.983 454,-954.712 454,-946.112"/>
<polygon fill="black" stroke="black" points="457.5,-946.104 454,-936.104 450.5,-946.104 457.5,-946.104"/>
</g>
<!-- MergedStream&#45;&gt;CsvFileWriter -->
<g id="edge11" class="edge"><title>MergedStream&#45;&gt;CsvFileWriter</title>
<path fill="none" stroke="black" d="M216,-223.697C216,-215.983 216,-206.712 216,-198.112"/>
<polygon fill="black" stroke="black" points="219.5,-198.104 216,-188.104 212.5,-198.104 219.5,-198.104"/>
</g>
<!-- LogFile_outflow -->
<g id="node23" class="node"><title>LogFile_outflow</title>
<ellipse fill="none" stroke="black" cx="403" cy="-31" rx="7" ry="7"/>
</g>
<!-- LogFile&#45;&gt;LogFile_outflow -->
<g id="edge29" class="edge"><title>LogFile&#45;&gt;LogFile_outflow</title>
<path fill="none" stroke="black" d="M538.637,-373.959C529.048,-346.704 512,-291.439 512,-243 512,-243 512,-243 512,-169 512,-116.319 497.64,-99.8528 461,-62 449.413,-50.0296 432.017,-41.9166 419.299,-37.1768"/>
<polygon fill="black" stroke="black" points="420.185,-33.7811 409.59,-33.8678 417.926,-40.4069 420.185,-33.7811"/>
</g>
<!-- UpdatedOccurrenceFile_outflow -->
<g id="node24" class="node"><title>UpdatedOccurrenceFile_outflow</title>
<ellipse fill="none" stroke="black" cx="371" cy="-31" rx="7" ry="7"/>
</g>
<!-- UpdatedOccurrenceFile&#45;&gt;UpdatedOccurrenceFile_outflow -->
<g id="edge30" class="edge"><title>UpdatedOccurrenceFile&#45;&gt;UpdatedOccurrenceFile_outflow</title>
<path fill="none" stroke="black" d="M291.942,-78.8492C312.846,-66.4615 340.188,-50.2591 356.628,-40.5168"/>
<polygon fill="black" stroke="black" points="358.482,-43.4865 365.301,-35.3774 354.913,-37.4645 358.482,-43.4865"/>
</g>
<!-- DarwinCoreArchive_inflow -->
<g id="node22" class="node"><title>DarwinCoreArchive_inflow</title>
<ellipse fill="none" stroke="black" cx="454" cy="-1201" rx="7" ry="7"/>
</g>
<!-- DarwinCoreArchive_inflow&#45;&gt;DarwinCoreArchive -->
<g id="edge28" class="edge"><title>DarwinCoreArchive_inflow&#45;&gt;DarwinCoreArchive</title>
<path fill="none" stroke="black" d="M454,-1193.63C454,-1186.54 454,-1174.6 454,-1163.42"/>
<polygon fill="black" stroke="black" points="457.5,-1163.12 454,-1153.12 450.5,-1163.12 457.5,-1163.12"/>
</g>
</g>
</svg>
