<?xml version="1.0" encoding="UTF-8" standalone="no"?>
<!DOCTYPE svg PUBLIC "-//W3C//DTD SVG 1.1//EN"
 "http://www.w3.org/Graphics/SVG/1.1/DTD/svg11.dtd">
<!-- Generated by graphviz version 2.36.0 (20140111.2315)
 -->
<!-- Title: yw_data_view Pages: 1 -->
<svg width="832pt" height="1302pt"
 viewBox="0.00 0.00 832.00 1302.00" xmlns="http://www.w3.org/2000/svg" xmlns:xlink="http://www.w3.org/1999/xlink">
<g id="graph0" class="graph" transform="scale(1 1) rotate(0) translate(4 1298)">
<title>yw_data_view</title>
<polygon fill="white" stroke="none" points="-4,4 -4,-1298 828,-1298 828,4 -4,4"/>
<text text-anchor="middle" x="412" y="-1275.6" font-family="Courier,monospace" font-size="18.00">DwCA_Taxon_Lookup</text>
<g id="clust3" class="cluster"><title>cluster_inflows</title>
<polygon fill="none" stroke="white" stroke-width="2" points="485,-1212 485,-1258 531,-1258 531,-1212 485,-1212"/>
</g>
<g id="clust4" class="cluster"><title>cluster_inflows_inner</title>
<polygon fill="none" stroke="white" stroke-width="2" points="493,-1220 493,-1250 523,-1250 523,-1220 493,-1220"/>
</g>
<g id="clust1" class="cluster"><title>cluster_workflow</title>
<polygon fill="none" stroke="black" stroke-width="2" points="8,-62 8,-1204 816,-1204 816,-62 8,-62"/>
</g>
<g id="clust2" class="cluster"><title>cluster_workflow_inner</title>
<polygon fill="none" stroke="white" stroke-width="2" points="16,-70 16,-1196 808,-1196 808,-70 16,-70"/>
</g>
<g id="clust5" class="cluster"><title>cluster_outflows</title>
<polygon fill="none" stroke="white" stroke-width="2" points="386,-8 386,-54 464,-54 464,-8 386,-8"/>
</g>
<g id="clust6" class="cluster"><title>cluster_outflows_inner</title>
<polygon fill="none" stroke="white" stroke-width="2" points="394,-16 394,-46 456,-46 456,-16 394,-16"/>
</g>
<!-- Setup -->
<g id="node1" class="node"><title>Setup</title>
<polygon fill="#ccffcc" stroke="black" points="537.25,-1114 478.75,-1114 478.75,-1078 537.25,-1078 537.25,-1114"/>
<text text-anchor="middle" x="508" y="-1092.3" font-family="Courier,monospace" font-size="14.00">Setup</text>
</g>
<!-- Workspace -->
<g id="node17" class="node"><title>Workspace</title>
<path fill="#ffffcc" stroke="black" d="M175,-970C175,-970 137,-970 137,-970 131,-970 125,-964 125,-958 125,-958 125,-946 125,-946 125,-940 131,-934 137,-934 137,-934 175,-934 175,-934 181,-934 187,-940 187,-946 187,-946 187,-958 187,-958 187,-964 181,-970 175,-970"/>
<text text-anchor="middle" x="156" y="-949.8" font-family="Helvetica,sans-Serif" font-size="9.00">Workspace</text>
</g>
<!-- Setup&#45;&gt;Workspace -->
<g id="edge12" class="edge"><title>Setup&#45;&gt;Workspace</title>
<path fill="none" stroke="black" d="M478.594,-1083.14C415.785,-1057.8 268.426,-998.354 196.681,-969.411"/>
<polygon fill="black" stroke="black" points="197.659,-966.032 187.076,-965.536 195.04,-972.523 197.659,-966.032"/>
</g>
<!-- OccurrenceFile -->
<g id="node18" class="node"><title>OccurrenceFile</title>
<path fill="#ffffcc" stroke="black" d="M535,-1042C535,-1042 481,-1042 481,-1042 475,-1042 469,-1036 469,-1030 469,-1030 469,-1018 469,-1018 469,-1012 475,-1006 481,-1006 481,-1006 535,-1006 535,-1006 541,-1006 547,-1012 547,-1018 547,-1018 547,-1030 547,-1030 547,-1036 541,-1042 535,-1042"/>
<text text-anchor="middle" x="508" y="-1021.8" font-family="Helvetica,sans-Serif" font-size="9.00">OccurrenceFile</text>
</g>
<!-- Setup&#45;&gt;OccurrenceFile -->
<g id="edge14" class="edge"><title>Setup&#45;&gt;OccurrenceFile</title>
<path fill="none" stroke="black" d="M508,-1077.7C508,-1069.98 508,-1060.71 508,-1052.11"/>
<polygon fill="black" stroke="black" points="511.5,-1052.1 508,-1042.1 504.5,-1052.1 511.5,-1052.1"/>
</g>
<!-- LogFile -->
<g id="node20" class="node"><title>LogFile</title>
<path fill="#ffe4b5" stroke="black" d="M406.5,-381C406.5,-381 787.5,-381 787.5,-381 793.5,-381 799.5,-387 799.5,-393 799.5,-393 799.5,-405 799.5,-405 799.5,-411 793.5,-417 787.5,-417 787.5,-417 406.5,-417 406.5,-417 400.5,-417 394.5,-411 394.5,-405 394.5,-405 394.5,-393 394.5,-393 394.5,-387 400.5,-381 406.5,-381"/>
<text text-anchor="middle" x="597" y="-405.8" font-family="Courier,monospace" font-weight="bold" font-size="9.00">LogFile</text>
<polyline fill="none" stroke="black" points="394.5,-399 799.5,-399 "/>
<text text-anchor="middle" x="597" y="-387.8" font-family="Courier,monospace" font-weight="bold" font-size="9.00">./packages/kurator_FileBranchingTaxonLookup/workflows/results/runlog.log</text>
</g>
<!-- Setup&#45;&gt;LogFile -->
<g id="edge13" class="edge"><title>Setup&#45;&gt;LogFile</title>
<path fill="none" stroke="black" d="M533.556,-1077.89C565.773,-1054.04 617,-1007.54 617,-953 617,-953 617,-953 617,-561 617,-513.679 608.386,-459.126 602.464,-427.215"/>
<polygon fill="black" stroke="black" points="605.886,-426.472 600.576,-417.304 599.01,-427.783 605.886,-426.472"/>
</g>
<!-- FileToDataStream -->
<g id="node2" class="node"><title>FileToDataStream</title>
<polygon fill="#ccffcc" stroke="black" points="583.25,-970 432.75,-970 432.75,-934 583.25,-934 583.25,-970"/>
<text text-anchor="middle" x="508" y="-948.3" font-family="Courier,monospace" font-size="14.00">FileToDataStream</text>
</g>
<!-- DataRecord -->
<g id="node10" class="node"><title>DataRecord</title>
<path fill="#3ab4df" stroke="black" d="M474.5,-851C474.5,-851 541.5,-851 541.5,-851 547.5,-851 553.5,-857 553.5,-863 553.5,-863 553.5,-885 553.5,-885 553.5,-891 547.5,-897 541.5,-897 541.5,-897 474.5,-897 474.5,-897 468.5,-897 462.5,-891 462.5,-885 462.5,-885 462.5,-863 462.5,-863 462.5,-857 468.5,-851 474.5,-851"/>
<text text-anchor="middle" x="508" y="-881.8" font-family="Helvetica,sans-Serif" font-size="14.00">DataRecord</text>
<polyline fill="none" stroke="black" points="462.5,-874 553.5,-874 "/>
<text text-anchor="middle" x="508" y="-858.8" font-family="Helvetica,sans-Serif" font-size="14.00">Count: 192</text>
</g>
<!-- FileToDataStream&#45;&gt;DataRecord -->
<g id="edge15" class="edge"><title>FileToDataStream&#45;&gt;DataRecord</title>
<path fill="none" stroke="black" d="M508,-933.754C508,-925.863 508,-916.249 508,-907.102"/>
<polygon fill="black" stroke="black" points="511.5,-907.091 508,-897.091 504.5,-907.091 511.5,-907.091"/>
</g>
<!-- EnvironmentTagger -->
<g id="node3" class="node"><title>EnvironmentTagger</title>
<polygon fill="#ccffcc" stroke="black" points="587.25,-814 428.75,-814 428.75,-778 587.25,-778 587.25,-814"/>
<text text-anchor="middle" x="508" y="-792.3" font-family="Courier,monospace" font-size="14.00">EnvironmentTagger</text>
</g>
<!-- TaggedDataRecord -->
<g id="node11" class="node"><title>TaggedDataRecord</title>
<path fill="#3ab4df" stroke="black" d="M440.5,-695C440.5,-695 555.5,-695 555.5,-695 561.5,-695 567.5,-701 567.5,-707 567.5,-707 567.5,-729 567.5,-729 567.5,-735 561.5,-741 555.5,-741 555.5,-741 440.5,-741 440.5,-741 434.5,-741 428.5,-735 428.5,-729 428.5,-729 428.5,-707 428.5,-707 428.5,-701 434.5,-695 440.5,-695"/>
<text text-anchor="middle" x="498" y="-725.8" font-family="Helvetica,sans-Serif" font-size="14.00">TaggedDataRecord</text>
<polyline fill="none" stroke="black" points="428.5,-718 567.5,-718 "/>
<text text-anchor="middle" x="498" y="-702.8" font-family="Helvetica,sans-Serif" font-size="14.00">Count: 192</text>
</g>
<!-- EnvironmentTagger&#45;&gt;TaggedDataRecord -->
<g id="edge17" class="edge"><title>EnvironmentTagger&#45;&gt;TaggedDataRecord</title>
<path fill="none" stroke="black" d="M505.731,-777.754C504.693,-769.863 503.428,-760.249 502.224,-751.102"/>
<polygon fill="black" stroke="black" points="505.681,-750.549 500.907,-741.091 498.741,-751.462 505.681,-750.549"/>
</g>
<!-- EnvironmentTagger&#45;&gt;LogFile -->
<g id="edge16" class="edge"><title>EnvironmentTagger&#45;&gt;LogFile</title>
<path fill="none" stroke="black" d="M538.882,-777.775C552.256,-768.792 566.902,-756.612 576,-742 600.233,-703.078 597,-686.849 597,-641 597,-641 597,-641 597,-561 597,-514.244 597,-459.849 597,-427.762"/>
<polygon fill="black" stroke="black" points="600.5,-427.392 597,-417.392 593.5,-427.392 600.5,-427.392"/>
</g>
<!-- FilterToJustMarine -->
<g id="node4" class="node"><title>FilterToJustMarine</title>
<polygon fill="#ccffcc" stroke="black" points="400,-658 232,-658 232,-622 400,-622 400,-658"/>
<text text-anchor="middle" x="316" y="-636.3" font-family="Courier,monospace" font-size="14.00">FilterToJustMarine</text>
</g>
<!-- MarineDataRecord -->
<g id="node12" class="node"><title>MarineDataRecord</title>
<path fill="#3ab4df" stroke="black" d="M244,-539C244,-539 354,-539 354,-539 360,-539 366,-545 366,-551 366,-551 366,-573 366,-573 366,-579 360,-585 354,-585 354,-585 244,-585 244,-585 238,-585 232,-579 232,-573 232,-573 232,-551 232,-551 232,-545 238,-539 244,-539"/>
<text text-anchor="middle" x="299" y="-569.8" font-family="Helvetica,sans-Serif" font-size="14.00">MarineDataRecord</text>
<polyline fill="none" stroke="black" points="232,-562 366,-562 "/>
<text text-anchor="middle" x="299" y="-546.8" font-family="Helvetica,sans-Serif" font-size="14.00">Count: 98</text>
</g>
<!-- FilterToJustMarine&#45;&gt;MarineDataRecord -->
<g id="edge19" class="edge"><title>FilterToJustMarine&#45;&gt;MarineDataRecord</title>
<path fill="none" stroke="black" d="M312.142,-621.754C310.377,-613.863 308.227,-604.249 306.181,-595.102"/>
<polygon fill="black" stroke="black" points="309.54,-594.086 303.941,-585.091 302.709,-595.614 309.54,-594.086"/>
</g>
<!-- FilterToJustMarine&#45;&gt;LogFile -->
<g id="edge18" class="edge"><title>FilterToJustMarine&#45;&gt;LogFile</title>
<path fill="none" stroke="black" d="M340.041,-621.78C351.861,-612.318 365.559,-599.727 375,-586 407.368,-538.939 380.465,-506.241 421,-466 442.535,-444.621 471.647,-430.065 499.99,-420.196"/>
<polygon fill="black" stroke="black" points="501.169,-423.493 509.561,-417.026 498.967,-416.848 501.169,-423.493"/>
</g>
<!-- FilterToNonMarine -->
<g id="node5" class="node"><title>FilterToNonMarine</title>
<polygon fill="#ccffcc" stroke="black" points="577.25,-658 418.75,-658 418.75,-622 577.25,-622 577.25,-658"/>
<text text-anchor="middle" x="498" y="-636.3" font-family="Courier,monospace" font-size="14.00">FilterToNonMarine</text>
</g>
<!-- notMarineDataRecord -->
<g id="node13" class="node"><title>notMarineDataRecord</title>
<path fill="#3ab4df" stroke="black" d="M416.5,-539C416.5,-539 545.5,-539 545.5,-539 551.5,-539 557.5,-545 557.5,-551 557.5,-551 557.5,-573 557.5,-573 557.5,-579 551.5,-585 545.5,-585 545.5,-585 416.5,-585 416.5,-585 410.5,-585 404.5,-579 404.5,-573 404.5,-573 404.5,-551 404.5,-551 404.5,-545 410.5,-539 416.5,-539"/>
<text text-anchor="middle" x="481" y="-569.8" font-family="Helvetica,sans-Serif" font-size="14.00">notMarineDataRecord</text>
<polyline fill="none" stroke="black" points="404.5,-562 557.5,-562 "/>
<text text-anchor="middle" x="481" y="-546.8" font-family="Helvetica,sans-Serif" font-size="14.00">Count: 94</text>
</g>
<!-- FilterToNonMarine&#45;&gt;notMarineDataRecord -->
<g id="edge21" class="edge"><title>FilterToNonMarine&#45;&gt;notMarineDataRecord</title>
<path fill="none" stroke="black" d="M494.142,-621.754C492.377,-613.863 490.227,-604.249 488.181,-595.102"/>
<polygon fill="black" stroke="black" points="491.54,-594.086 485.941,-585.091 484.709,-595.614 491.54,-594.086"/>
</g>
<!-- FilterToNonMarine&#45;&gt;LogFile -->
<g id="edge20" class="edge"><title>FilterToNonMarine&#45;&gt;LogFile</title>
<path fill="none" stroke="black" d="M529.149,-621.938C542.579,-612.988 557.195,-600.791 566,-586 581.663,-559.688 590.989,-472.505 594.875,-427.467"/>
<polygon fill="black" stroke="black" points="598.384,-427.499 595.726,-417.243 591.408,-426.918 598.384,-427.499"/>
</g>
<!-- WoRMSLookup -->
<g id="node6" class="node"><title>WoRMSLookup</title>
<polygon fill="#ccffcc" stroke="black" points="353.25,-502 244.75,-502 244.75,-466 353.25,-466 353.25,-502"/>
<text text-anchor="middle" x="299" y="-480.3" font-family="Courier,monospace" font-size="14.00">WoRMSLookup</text>
</g>
<!-- WoRMSUpdatedRecord -->
<g id="node14" class="node"><title>WoRMSUpdatedRecord</title>
<path fill="#3ab4df" stroke="black" d="M56.5,-368.5C56.5,-368.5 199.5,-368.5 199.5,-368.5 205.5,-368.5 211.5,-374.5 211.5,-380.5 211.5,-380.5 211.5,-417.5 211.5,-417.5 211.5,-423.5 205.5,-429.5 199.5,-429.5 199.5,-429.5 56.5,-429.5 56.5,-429.5 50.5,-429.5 44.5,-423.5 44.5,-417.5 44.5,-417.5 44.5,-380.5 44.5,-380.5 44.5,-374.5 50.5,-368.5 56.5,-368.5"/>
<text text-anchor="middle" x="128" y="-414.3" font-family="Helvetica,sans-Serif" font-size="14.00">WoRMSUpdatedRecord</text>
<polyline fill="none" stroke="black" points="44.5,-406.5 211.5,-406.5 "/>
<text text-anchor="middle" x="128" y="-391.3" font-family="Helvetica,sans-Serif" font-size="14.00">Has Value: 37</text>
<text text-anchor="middle" x="128" y="-376.3" font-family="Helvetica,sans-Serif" font-size="14.00"> Null: 61</text>
</g>
<!-- WoRMSLookup&#45;&gt;WoRMSUpdatedRecord -->
<g id="edge23" class="edge"><title>WoRMSLookup&#45;&gt;WoRMSUpdatedRecord</title>
<path fill="none" stroke="black" d="M263.569,-465.802C244.653,-456.621 220.689,-444.99 198.188,-434.068"/>
<polygon fill="black" stroke="black" points="199.513,-430.82 188.988,-429.602 196.456,-437.118 199.513,-430.82"/>
</g>
<!-- WoRMSLookup&#45;&gt;LogFile -->
<g id="edge22" class="edge"><title>WoRMSLookup&#45;&gt;LogFile</title>
<path fill="none" stroke="black" d="M353.311,-467.873C401.83,-454.359 473.221,-434.475 526.202,-419.719"/>
<polygon fill="black" stroke="black" points="527.177,-423.081 535.871,-417.026 525.299,-416.337 527.177,-423.081"/>
</g>
<!-- GBIFLookup -->
<g id="node7" class="node"><title>GBIFLookup</title>
<polygon fill="#ccffcc" stroke="black" points="531.25,-502 430.75,-502 430.75,-466 531.25,-466 531.25,-502"/>
<text text-anchor="middle" x="481" y="-480.3" font-family="Courier,monospace" font-size="14.00">GBIFLookup</text>
</g>
<!-- GBIFUpdatedRecord -->
<g id="node15" class="node"><title>GBIFUpdatedRecord</title>
<path fill="#3ab4df" stroke="black" d="M241.5,-368.5C241.5,-368.5 364.5,-368.5 364.5,-368.5 370.5,-368.5 376.5,-374.5 376.5,-380.5 376.5,-380.5 376.5,-417.5 376.5,-417.5 376.5,-423.5 370.5,-429.5 364.5,-429.5 364.5,-429.5 241.5,-429.5 241.5,-429.5 235.5,-429.5 229.5,-423.5 229.5,-417.5 229.5,-417.5 229.5,-380.5 229.5,-380.5 229.5,-374.5 235.5,-368.5 241.5,-368.5"/>
<text text-anchor="middle" x="303" y="-414.3" font-family="Helvetica,sans-Serif" font-size="14.00">GBIFUpdatedRecord</text>
<polyline fill="none" stroke="black" points="229.5,-406.5 376.5,-406.5 "/>
<text text-anchor="middle" x="303" y="-391.3" font-family="Helvetica,sans-Serif" font-size="14.00">Has Value: 77</text>
<text text-anchor="middle" x="303" y="-376.3" font-family="Helvetica,sans-Serif" font-size="14.00"> Null: 17</text>
</g>
<!-- GBIFLookup&#45;&gt;GBIFUpdatedRecord -->
<g id="edge25" class="edge"><title>GBIFLookup&#45;&gt;GBIFUpdatedRecord</title>
<path fill="none" stroke="black" d="M444.118,-465.802C424.341,-456.58 399.262,-444.886 375.749,-433.922"/>
<polygon fill="black" stroke="black" points="377.027,-430.656 366.485,-429.602 374.069,-437.001 377.027,-430.656"/>
</g>
<!-- GBIFLookup&#45;&gt;LogFile -->
<g id="edge24" class="edge"><title>GBIFLookup&#45;&gt;LogFile</title>
<path fill="none" stroke="black" d="M505.035,-465.802C522.3,-453.449 545.763,-436.661 564.669,-423.134"/>
<polygon fill="black" stroke="black" points="566.9,-425.841 572.996,-417.176 562.826,-420.148 566.9,-425.841"/>
</g>
<!-- StreamMerge -->
<g id="node8" class="node"><title>StreamMerge</title>
<polygon fill="#ccffcc" stroke="black" points="224.25,-332 115.75,-332 115.75,-296 224.25,-296 224.25,-332"/>
<text text-anchor="middle" x="170" y="-310.3" font-family="Courier,monospace" font-size="14.00">StreamMerge</text>
</g>
<!-- MergedStream -->
<g id="node19" class="node"><title>MergedStream</title>
<path fill="#ffffcc" stroke="black" d="M196,-260C196,-260 144,-260 144,-260 138,-260 132,-254 132,-248 132,-248 132,-236 132,-236 132,-230 138,-224 144,-224 144,-224 196,-224 196,-224 202,-224 208,-230 208,-236 208,-236 208,-248 208,-248 208,-254 202,-260 196,-260"/>
<text text-anchor="middle" x="170" y="-239.8" font-family="Helvetica,sans-Serif" font-size="9.00">MergedStream</text>
</g>
<!-- StreamMerge&#45;&gt;MergedStream -->
<g id="edge26" class="edge"><title>StreamMerge&#45;&gt;MergedStream</title>
<path fill="none" stroke="black" d="M170,-295.697C170,-287.983 170,-278.712 170,-270.112"/>
<polygon fill="black" stroke="black" points="173.5,-270.104 170,-260.104 166.5,-270.104 173.5,-270.104"/>
</g>
<!-- CsvFileWriter -->
<g id="node9" class="node"><title>CsvFileWriter</title>
<polygon fill="#ccffcc" stroke="black" points="233,-188 107,-188 107,-152 233,-152 233,-188"/>
<text text-anchor="middle" x="170" y="-166.3" font-family="Courier,monospace" font-size="14.00">CsvFileWriter</text>
</g>
<!-- UpdatedOccurrenceFile -->
<g id="node21" class="node"><title>UpdatedOccurrenceFile</title>
<path fill="#ffe4b5" stroke="black" d="M119,-79C119,-79 473,-79 473,-79 479,-79 485,-85 485,-91 485,-91 485,-103 485,-103 485,-109 479,-115 473,-115 473,-115 119,-115 119,-115 113,-115 107,-109 107,-103 107,-103 107,-91 107,-91 107,-85 113,-79 119,-79"/>
<text text-anchor="middle" x="296" y="-103.8" font-family="Courier,monospace" font-weight="bold" font-size="9.00">UpdatedOccurrenceFile</text>
<polyline fill="none" stroke="black" points="107,-97 485,-97 "/>
<text text-anchor="middle" x="296" y="-85.8" font-family="Courier,monospace" font-weight="bold" font-size="9.00">workspace_8b7dda80&#45;634e&#45;11e8&#45;9f66&#45;4a0002b0edf0/mergedoutputfile.csv</text>
</g>
<!-- CsvFileWriter&#45;&gt;UpdatedOccurrenceFile -->
<g id="edge27" class="edge"><title>CsvFileWriter&#45;&gt;UpdatedOccurrenceFile</title>
<path fill="none" stroke="black" d="M200.18,-151.994C217.044,-142.491 238.26,-130.536 256.439,-120.292"/>
<polygon fill="black" stroke="black" points="258.636,-123.072 265.629,-115.114 255.199,-116.974 258.636,-123.072"/>
</g>
<!-- DataRecord&#45;&gt;EnvironmentTagger -->
<g id="edge4" class="edge"><title>DataRecord&#45;&gt;EnvironmentTagger</title>
<path fill="none" stroke="black" d="M508,-850.609C508,-842.481 508,-833.2 508,-824.671"/>
<polygon fill="black" stroke="black" points="511.5,-824.412 508,-814.412 504.5,-824.412 511.5,-824.412"/>
</g>
<!-- TaggedDataRecord&#45;&gt;FilterToJustMarine -->
<g id="edge5" class="edge"><title>TaggedDataRecord&#45;&gt;FilterToJustMarine</title>
<path fill="none" stroke="black" d="M444.869,-694.813C420.045,-684.447 390.645,-672.171 366.2,-661.962"/>
<polygon fill="black" stroke="black" points="367.325,-658.64 356.749,-658.016 364.628,-665.099 367.325,-658.64"/>
</g>
<!-- TaggedDataRecord&#45;&gt;FilterToNonMarine -->
<g id="edge6" class="edge"><title>TaggedDataRecord&#45;&gt;FilterToNonMarine</title>
<path fill="none" stroke="black" d="M498,-694.609C498,-686.481 498,-677.2 498,-668.671"/>
<polygon fill="black" stroke="black" points="501.5,-668.412 498,-658.412 494.5,-668.412 501.5,-668.412"/>
</g>
<!-- MarineDataRecord&#45;&gt;WoRMSLookup -->
<g id="edge7" class="edge"><title>MarineDataRecord&#45;&gt;WoRMSLookup</title>
<path fill="none" stroke="black" d="M299,-538.609C299,-530.481 299,-521.2 299,-512.671"/>
<polygon fill="black" stroke="black" points="302.5,-512.412 299,-502.412 295.5,-512.412 302.5,-512.412"/>
</g>
<!-- notMarineDataRecord&#45;&gt;GBIFLookup -->
<g id="edge8" class="edge"><title>notMarineDataRecord&#45;&gt;GBIFLookup</title>
<path fill="none" stroke="black" d="M481,-538.609C481,-530.481 481,-521.2 481,-512.671"/>
<polygon fill="black" stroke="black" points="484.5,-512.412 481,-502.412 477.5,-512.412 484.5,-512.412"/>
</g>
<!-- WoRMSUpdatedRecord&#45;&gt;StreamMerge -->
<g id="edge9" class="edge"><title>WoRMSUpdatedRecord&#45;&gt;StreamMerge</title>
<path fill="none" stroke="black" d="M143.163,-368.035C147.602,-359.263 152.418,-349.745 156.73,-341.225"/>
<polygon fill="black" stroke="black" points="159.944,-342.625 161.336,-332.122 153.698,-339.465 159.944,-342.625"/>
</g>
<!-- GBIFUpdatedRecord&#45;&gt;StreamMerge -->
<g id="edge10" class="edge"><title>GBIFUpdatedRecord&#45;&gt;StreamMerge</title>
<path fill="none" stroke="black" d="M255.36,-368.27C239.159,-358.16 221.331,-347.034 206.177,-337.577"/>
<polygon fill="black" stroke="black" points="207.932,-334.546 197.596,-332.221 204.226,-340.485 207.932,-334.546"/>
</g>
<!-- DarwinCoreArchive -->
<g id="node16" class="node"><title>DarwinCoreArchive</title>
<path fill="#ffe4b5" stroke="black" d="M314.5,-1151C314.5,-1151 701.5,-1151 701.5,-1151 707.5,-1151 713.5,-1157 713.5,-1163 713.5,-1163 713.5,-1175 713.5,-1175 713.5,-1181 707.5,-1187 701.5,-1187 701.5,-1187 314.5,-1187 314.5,-1187 308.5,-1187 302.5,-1181 302.5,-1175 302.5,-1175 302.5,-1163 302.5,-1163 302.5,-1157 308.5,-1151 314.5,-1151"/>
<text text-anchor="middle" x="508" y="-1175.8" font-family="Courier,monospace" font-weight="bold" font-size="9.00">DarwinCoreArchive</text>
<polyline fill="none" stroke="black" points="302.5,-1169 713.5,-1169 "/>
<text text-anchor="middle" x="508" y="-1157.8" font-family="Courier,monospace" font-weight="bold" font-size="9.00">packages/kurator_FileBranchingTaxonLookup/data/kurator_sample_data_v2.txt</text>
</g>
<!-- DarwinCoreArchive&#45;&gt;Setup -->
<g id="edge1" class="edge"><title>DarwinCoreArchive&#45;&gt;Setup</title>
<path fill="none" stroke="black" d="M508,-1150.81C508,-1142.79 508,-1133.05 508,-1124.07"/>
<polygon fill="black" stroke="black" points="511.5,-1124.03 508,-1114.03 504.5,-1124.03 511.5,-1124.03"/>
</g>
<!-- Workspace&#45;&gt;CsvFileWriter -->
<g id="edge2" class="edge"><title>Workspace&#45;&gt;CsvFileWriter</title>
<path fill="none" stroke="black" d="M126.274,-933.805C87.6236,-908.963 25,-859.128 25,-797 25,-797 25,-797 25,-313 25,-257.196 80.4987,-216.09 122.826,-192.854"/>
<polygon fill="black" stroke="black" points="124.716,-195.813 131.903,-188.029 121.43,-189.632 124.716,-195.813"/>
</g>
<!-- OccurrenceFile&#45;&gt;FileToDataStream -->
<g id="edge3" class="edge"><title>OccurrenceFile&#45;&gt;FileToDataStream</title>
<path fill="none" stroke="black" d="M508,-1005.7C508,-997.983 508,-988.712 508,-980.112"/>
<polygon fill="black" stroke="black" points="511.5,-980.104 508,-970.104 504.5,-980.104 511.5,-980.104"/>
</g>
<!-- MergedStream&#45;&gt;CsvFileWriter -->
<g id="edge11" class="edge"><title>MergedStream&#45;&gt;CsvFileWriter</title>
<path fill="none" stroke="black" d="M170,-223.697C170,-215.983 170,-206.712 170,-198.112"/>
<polygon fill="black" stroke="black" points="173.5,-198.104 170,-188.104 166.5,-198.104 173.5,-198.104"/>
</g>
<!-- LogFile_outflow -->
<g id="node23" class="node"><title>LogFile_outflow</title>
<ellipse fill="none" stroke="black" cx="441" cy="-31" rx="7" ry="7"/>
</g>
<!-- LogFile&#45;&gt;LogFile_outflow -->
<g id="edge29" class="edge"><title>LogFile&#45;&gt;LogFile_outflow</title>
<path fill="none" stroke="black" d="M589.1,-380.748C576.934,-352.556 555,-294.578 555,-243 555,-243 555,-243 555,-169 555,-114.259 532.767,-100.648 494,-62 483.332,-51.3648 468.123,-43.2756 456.732,-38.1925"/>
<polygon fill="black" stroke="black" points="457.83,-34.8588 447.252,-34.255 455.145,-41.3233 457.83,-34.8588"/>
</g>
<!-- UpdatedOccurrenceFile_outflow -->
<g id="node24" class="node"><title>UpdatedOccurrenceFile_outflow</title>
<ellipse fill="none" stroke="black" cx="409" cy="-31" rx="7" ry="7"/>
</g>
<!-- UpdatedOccurrenceFile&#45;&gt;UpdatedOccurrenceFile_outflow -->
<g id="edge30" class="edge"><title>UpdatedOccurrenceFile&#45;&gt;UpdatedOccurrenceFile_outflow</title>
<path fill="none" stroke="black" d="M326.282,-78.8492C348.154,-66.4615 376.761,-50.2591 393.963,-40.5168"/>
<polygon fill="black" stroke="black" points="396.06,-43.3511 403.037,-35.3774 392.61,-37.2602 396.06,-43.3511"/>
</g>
<!-- DarwinCoreArchive_inflow -->
<g id="node22" class="node"><title>DarwinCoreArchive_inflow</title>
<ellipse fill="none" stroke="black" cx="508" cy="-1235" rx="7" ry="7"/>
</g>
<!-- DarwinCoreArchive_inflow&#45;&gt;DarwinCoreArchive -->
<g id="edge28" class="edge"><title>DarwinCoreArchive_inflow&#45;&gt;DarwinCoreArchive</title>
<path fill="none" stroke="black" d="M508,-1227.63C508,-1220.54 508,-1208.6 508,-1197.42"/>
<polygon fill="black" stroke="black" points="511.5,-1197.12 508,-1187.12 504.5,-1197.12 511.5,-1197.12"/>
</g>
</g>
</svg>
