<?xml version="1.0" encoding="UTF-8" standalone="no"?>
<!DOCTYPE svg PUBLIC "-//W3C//DTD SVG 1.1//EN"
 "http://www.w3.org/Graphics/SVG/1.1/DTD/svg11.dtd">
<!-- Generated by graphviz version 2.36.0 (20140111.2315)
 -->
<!-- Title: yw_data_view Pages: 1 -->
<svg width="468pt" height="952pt"
 viewBox="0.00 0.00 468.00 952.00" xmlns="http://www.w3.org/2000/svg" xmlns:xlink="http://www.w3.org/1999/xlink">
<g id="graph0" class="graph" transform="scale(1 1) rotate(0) translate(4 948)">
<title>yw_data_view</title>
<polygon fill="white" stroke="none" points="-4,4 -4,-948 464,-948 464,4 -4,4"/>
<text text-anchor="middle" x="230" y="-925.6" font-family="Courier,monospace" font-size="18.00">DwCA_Taxon_Lookup</text>
<g id="clust1" class="cluster"><title>cluster_workflow</title>
<polygon fill="none" stroke="black" stroke-width="2" points="8,-62 8,-854 452,-854 452,-62 8,-62"/>
</g>
<g id="clust2" class="cluster"><title>cluster_workflow_inner</title>
<polygon fill="none" stroke="white" stroke-width="2" points="16,-70 16,-846 444,-846 444,-70 16,-70"/>
</g>
<g id="clust5" class="cluster"><title>cluster_outflows</title>
<polygon fill="none" stroke="white" stroke-width="2" points="260,-8 260,-54 306,-54 306,-8 260,-8"/>
</g>
<g id="clust6" class="cluster"><title>cluster_outflows_inner</title>
<polygon fill="none" stroke="white" stroke-width="2" points="268,-16 268,-46 298,-46 298,-16 268,-16"/>
</g>
<g id="clust3" class="cluster"><title>cluster_inflows</title>
<polygon fill="none" stroke="white" stroke-width="2" points="207,-862 207,-908 253,-908 253,-862 207,-862"/>
</g>
<g id="clust4" class="cluster"><title>cluster_inflows_inner</title>
<polygon fill="none" stroke="white" stroke-width="2" points="215,-870 215,-900 245,-900 245,-870 215,-870"/>
</g>
<!-- FileToDataStream -->
<g id="node1" class="node"><title>FileToDataStream</title>
<polygon fill="#ccffcc" stroke="black" points="354.25,-620 203.75,-620 203.75,-584 354.25,-584 354.25,-620"/>
<text text-anchor="middle" x="279" y="-598.3" font-family="Courier,monospace" font-size="14.00">FileToDataStream</text>
</g>
<!-- DataRecord -->
<g id="node9" class="node"><title>DataRecord</title>
<path fill="#ffffcc" stroke="black" d="M315.25,-548C315.25,-548 248.75,-548 248.75,-548 242.75,-548 236.75,-542 236.75,-536 236.75,-536 236.75,-524 236.75,-524 236.75,-518 242.75,-512 248.75,-512 248.75,-512 315.25,-512 315.25,-512 321.25,-512 327.25,-518 327.25,-524 327.25,-524 327.25,-536 327.25,-536 327.25,-542 321.25,-548 315.25,-548"/>
<text text-anchor="middle" x="282" y="-526.3" font-family="Helvetica,sans-Serif" font-size="14.00">DataRecord</text>
</g>
<!-- FileToDataStream&#45;&gt;DataRecord -->
<g id="edge9" class="edge"><title>FileToDataStream&#45;&gt;DataRecord</title>
<path fill="none" stroke="black" d="M279.742,-583.697C280.072,-575.983 280.469,-566.712 280.838,-558.112"/>
<polygon fill="black" stroke="black" points="284.335,-558.245 281.267,-548.104 277.342,-557.945 284.335,-558.245"/>
</g>
<!-- Setup -->
<g id="node2" class="node"><title>Setup</title>
<polygon fill="#ccffcc" stroke="black" points="273.25,-764 214.75,-764 214.75,-728 273.25,-728 273.25,-764"/>
<text text-anchor="middle" x="244" y="-742.3" font-family="Courier,monospace" font-size="14.00">Setup</text>
</g>
<!-- OccurrenceFile -->
<g id="node8" class="node"><title>OccurrenceFile</title>
<path fill="#ffffcc" stroke="black" d="M315.25,-692C315.25,-692 228.75,-692 228.75,-692 222.75,-692 216.75,-686 216.75,-680 216.75,-680 216.75,-668 216.75,-668 216.75,-662 222.75,-656 228.75,-656 228.75,-656 315.25,-656 315.25,-656 321.25,-656 327.25,-662 327.25,-668 327.25,-668 327.25,-680 327.25,-680 327.25,-686 321.25,-692 315.25,-692"/>
<text text-anchor="middle" x="272" y="-670.3" font-family="Helvetica,sans-Serif" font-size="14.00">OccurrenceFile</text>
</g>
<!-- Setup&#45;&gt;OccurrenceFile -->
<g id="edge8" class="edge"><title>Setup&#45;&gt;OccurrenceFile</title>
<path fill="none" stroke="black" d="M250.921,-727.697C254.075,-719.813 257.878,-710.304 261.381,-701.546"/>
<polygon fill="black" stroke="black" points="264.694,-702.689 265.158,-692.104 258.195,-700.089 264.694,-702.689"/>
</g>
<!-- GBIFLookup -->
<g id="node3" class="node"><title>GBIFLookup</title>
<polygon fill="#ccffcc" stroke="black" points="164.25,-188 63.75,-188 63.75,-152 164.25,-152 164.25,-188"/>
<text text-anchor="middle" x="114" y="-166.3" font-family="Courier,monospace" font-size="14.00">GBIFLookup</text>
</g>
<!-- LogFile -->
<g id="node14" class="node"><title>LogFile</title>
<path fill="#ffe4b5" stroke="black" d="M259.5,-79C259.5,-79 306.5,-79 306.5,-79 312.5,-79 318.5,-85 318.5,-91 318.5,-91 318.5,-103 318.5,-103 318.5,-109 312.5,-115 306.5,-115 306.5,-115 259.5,-115 259.5,-115 253.5,-115 247.5,-109 247.5,-103 247.5,-103 247.5,-91 247.5,-91 247.5,-85 253.5,-79 259.5,-79"/>
<text text-anchor="middle" x="283" y="-103.8" font-family="Courier,monospace" font-weight="bold" font-size="9.00">LogFile</text>
<polyline fill="none" stroke="black" points="247.5,-97 318.5,-97 "/>
<text text-anchor="middle" x="283" y="-85.8" font-family="Courier,monospace" font-weight="bold" font-size="9.00">runlog.log</text>
</g>
<!-- GBIFLookup&#45;&gt;LogFile -->
<g id="edge17" class="edge"><title>GBIFLookup&#45;&gt;LogFile</title>
<path fill="none" stroke="black" d="M154.48,-151.994C179.701,-141.398 212.182,-127.752 238.179,-116.83"/>
<polygon fill="black" stroke="black" points="239.575,-120.04 247.438,-112.94 236.863,-113.587 239.575,-120.04"/>
</g>
<!-- WoRMSLookup -->
<g id="node4" class="node"><title>WoRMSLookup</title>
<polygon fill="#ccffcc" stroke="black" points="337.25,-188 228.75,-188 228.75,-152 337.25,-152 337.25,-188"/>
<text text-anchor="middle" x="283" y="-166.3" font-family="Courier,monospace" font-size="14.00">WoRMSLookup</text>
</g>
<!-- WoRMSLookup&#45;&gt;LogFile -->
<g id="edge16" class="edge"><title>WoRMSLookup&#45;&gt;LogFile</title>
<path fill="none" stroke="black" d="M283,-151.813C283,-143.789 283,-134.047 283,-125.069"/>
<polygon fill="black" stroke="black" points="286.5,-125.029 283,-115.029 279.5,-125.029 286.5,-125.029"/>
</g>
<!-- FilterToNonMarine -->
<g id="node5" class="node"><title>FilterToNonMarine</title>
<polygon fill="#ccffcc" stroke="black" points="183.25,-332 24.75,-332 24.75,-296 183.25,-296 183.25,-332"/>
<text text-anchor="middle" x="104" y="-310.3" font-family="Courier,monospace" font-size="14.00">FilterToNonMarine</text>
</g>
<!-- notMarineDataRecord -->
<g id="node12" class="node"><title>notMarineDataRecord</title>
<path fill="#ffffcc" stroke="black" d="M165.25,-260C165.25,-260 36.75,-260 36.75,-260 30.75,-260 24.75,-254 24.75,-248 24.75,-248 24.75,-236 24.75,-236 24.75,-230 30.75,-224 36.75,-224 36.75,-224 165.25,-224 165.25,-224 171.25,-224 177.25,-230 177.25,-236 177.25,-236 177.25,-248 177.25,-248 177.25,-254 171.25,-260 165.25,-260"/>
<text text-anchor="middle" x="101" y="-238.3" font-family="Helvetica,sans-Serif" font-size="14.00">notMarineDataRecord</text>
</g>
<!-- FilterToNonMarine&#45;&gt;notMarineDataRecord -->
<g id="edge15" class="edge"><title>FilterToNonMarine&#45;&gt;notMarineDataRecord</title>
<path fill="none" stroke="black" d="M103.258,-295.697C102.928,-287.983 102.531,-278.712 102.162,-270.112"/>
<polygon fill="black" stroke="black" points="105.658,-269.945 101.733,-260.104 98.6645,-270.245 105.658,-269.945"/>
</g>
<!-- FilterToNonMarine&#45;&gt;LogFile -->
<g id="edge14" class="edge"><title>FilterToNonMarine&#45;&gt;LogFile</title>
<path fill="none" stroke="black" d="M141.788,-295.938C157.434,-287.189 174.559,-275.151 186,-260 216.246,-219.946 191.358,-193.893 219,-152 226.656,-140.396 237.522,-129.927 248.132,-121.364"/>
<polygon fill="black" stroke="black" points="250.35,-124.073 256.139,-115.199 246.08,-118.527 250.35,-124.073"/>
</g>
<!-- FilterToJustMarine -->
<g id="node6" class="node"><title>FilterToJustMarine</title>
<polygon fill="#ccffcc" stroke="black" points="370,-332 202,-332 202,-296 370,-296 370,-332"/>
<text text-anchor="middle" x="286" y="-310.3" font-family="Courier,monospace" font-size="14.00">FilterToJustMarine</text>
</g>
<!-- MarineDataRecord -->
<g id="node11" class="node"><title>MarineDataRecord</title>
<path fill="#ffffcc" stroke="black" d="M338,-260C338,-260 228,-260 228,-260 222,-260 216,-254 216,-248 216,-248 216,-236 216,-236 216,-230 222,-224 228,-224 228,-224 338,-224 338,-224 344,-224 350,-230 350,-236 350,-236 350,-248 350,-248 350,-254 344,-260 338,-260"/>
<text text-anchor="middle" x="283" y="-238.3" font-family="Helvetica,sans-Serif" font-size="14.00">MarineDataRecord</text>
</g>
<!-- FilterToJustMarine&#45;&gt;MarineDataRecord -->
<g id="edge13" class="edge"><title>FilterToJustMarine&#45;&gt;MarineDataRecord</title>
<path fill="none" stroke="black" d="M285.258,-295.697C284.928,-287.983 284.531,-278.712 284.162,-270.112"/>
<polygon fill="black" stroke="black" points="287.658,-269.945 283.733,-260.104 280.665,-270.245 287.658,-269.945"/>
</g>
<!-- FilterToJustMarine&#45;&gt;LogFile -->
<g id="edge12" class="edge"><title>FilterToJustMarine&#45;&gt;LogFile</title>
<path fill="none" stroke="black" d="M322.514,-295.924C336.598,-287.293 351.176,-275.349 359,-260 366.266,-245.745 360.427,-239.936 359,-224 356.1,-191.612 362.169,-180.213 346,-152 339.274,-140.264 329.007,-129.872 318.7,-121.418"/>
<polygon fill="black" stroke="black" points="320.543,-118.418 310.493,-115.064 316.258,-123.954 320.543,-118.418"/>
</g>
<!-- EnvironmentTagger -->
<g id="node7" class="node"><title>EnvironmentTagger</title>
<polygon fill="#ccffcc" stroke="black" points="363.25,-476 204.75,-476 204.75,-440 363.25,-440 363.25,-476"/>
<text text-anchor="middle" x="284" y="-454.3" font-family="Courier,monospace" font-size="14.00">EnvironmentTagger</text>
</g>
<!-- TaggedDataRecord -->
<g id="node10" class="node"><title>TaggedDataRecord</title>
<path fill="#ffffcc" stroke="black" d="M341.25,-404C341.25,-404 226.75,-404 226.75,-404 220.75,-404 214.75,-398 214.75,-392 214.75,-392 214.75,-380 214.75,-380 214.75,-374 220.75,-368 226.75,-368 226.75,-368 341.25,-368 341.25,-368 347.25,-368 353.25,-374 353.25,-380 353.25,-380 353.25,-392 353.25,-392 353.25,-398 347.25,-404 341.25,-404"/>
<text text-anchor="middle" x="284" y="-382.3" font-family="Helvetica,sans-Serif" font-size="14.00">TaggedDataRecord</text>
</g>
<!-- EnvironmentTagger&#45;&gt;TaggedDataRecord -->
<g id="edge11" class="edge"><title>EnvironmentTagger&#45;&gt;TaggedDataRecord</title>
<path fill="none" stroke="black" d="M284,-439.697C284,-431.983 284,-422.712 284,-414.112"/>
<polygon fill="black" stroke="black" points="287.5,-414.104 284,-404.104 280.5,-414.104 287.5,-414.104"/>
</g>
<!-- EnvironmentTagger&#45;&gt;LogFile -->
<g id="edge10" class="edge"><title>EnvironmentTagger&#45;&gt;LogFile</title>
<path fill="none" stroke="black" d="M319.562,-439.813C334.555,-430.975 351.037,-418.902 362,-404 386.495,-370.704 389,-356.336 389,-315 389,-315 389,-315 389,-241 389,-198.965 382.196,-185.646 357,-152 347.86,-139.795 335.187,-129.158 322.909,-120.626"/>
<polygon fill="black" stroke="black" points="324.789,-117.673 314.52,-115.062 320.92,-123.506 324.789,-117.673"/>
</g>
<!-- OccurrenceFile&#45;&gt;FileToDataStream -->
<g id="edge6" class="edge"><title>OccurrenceFile&#45;&gt;FileToDataStream</title>
<path fill="none" stroke="black" d="M273.73,-655.697C274.502,-647.983 275.429,-638.712 276.289,-630.112"/>
<polygon fill="black" stroke="black" points="279.777,-630.403 277.29,-620.104 272.812,-629.706 279.777,-630.403"/>
</g>
<!-- DataRecord&#45;&gt;EnvironmentTagger -->
<g id="edge5" class="edge"><title>DataRecord&#45;&gt;EnvironmentTagger</title>
<path fill="none" stroke="black" d="M282.494,-511.697C282.715,-503.983 282.98,-494.712 283.225,-486.112"/>
<polygon fill="black" stroke="black" points="286.724,-486.2 283.511,-476.104 279.727,-486 286.724,-486.2"/>
</g>
<!-- TaggedDataRecord&#45;&gt;FilterToNonMarine -->
<g id="edge3" class="edge"><title>TaggedDataRecord&#45;&gt;FilterToNonMarine</title>
<path fill="none" stroke="black" d="M239.967,-367.876C215.032,-358.179 183.662,-345.98 157.338,-335.743"/>
<polygon fill="black" stroke="black" points="158.479,-332.431 147.89,-332.068 155.941,-338.955 158.479,-332.431"/>
</g>
<!-- TaggedDataRecord&#45;&gt;FilterToJustMarine -->
<g id="edge4" class="edge"><title>TaggedDataRecord&#45;&gt;FilterToJustMarine</title>
<path fill="none" stroke="black" d="M284.494,-367.697C284.715,-359.983 284.98,-350.712 285.225,-342.112"/>
<polygon fill="black" stroke="black" points="288.724,-342.2 285.511,-332.104 281.727,-342 288.724,-342.2"/>
</g>
<!-- MarineDataRecord&#45;&gt;WoRMSLookup -->
<g id="edge2" class="edge"><title>MarineDataRecord&#45;&gt;WoRMSLookup</title>
<path fill="none" stroke="black" d="M283,-223.697C283,-215.983 283,-206.712 283,-198.112"/>
<polygon fill="black" stroke="black" points="286.5,-198.104 283,-188.104 279.5,-198.104 286.5,-198.104"/>
</g>
<!-- notMarineDataRecord&#45;&gt;GBIFLookup -->
<g id="edge1" class="edge"><title>notMarineDataRecord&#45;&gt;GBIFLookup</title>
<path fill="none" stroke="black" d="M104.213,-223.697C105.646,-215.983 107.368,-206.712 108.965,-198.112"/>
<polygon fill="black" stroke="black" points="112.439,-198.575 110.823,-188.104 105.556,-197.297 112.439,-198.575"/>
</g>
<!-- DarwinCoreArchive -->
<g id="node13" class="node"><title>DarwinCoreArchive</title>
<path fill="#ffe4b5" stroke="black" d="M36.5,-801C36.5,-801 423.5,-801 423.5,-801 429.5,-801 435.5,-807 435.5,-813 435.5,-813 435.5,-825 435.5,-825 435.5,-831 429.5,-837 423.5,-837 423.5,-837 36.5,-837 36.5,-837 30.5,-837 24.5,-831 24.5,-825 24.5,-825 24.5,-813 24.5,-813 24.5,-807 30.5,-801 36.5,-801"/>
<text text-anchor="middle" x="230" y="-825.8" font-family="Courier,monospace" font-weight="bold" font-size="9.00">DarwinCoreArchive</text>
<polyline fill="none" stroke="black" points="24.5,-819 435.5,-819 "/>
<text text-anchor="middle" x="230" y="-807.8" font-family="Courier,monospace" font-weight="bold" font-size="9.00">packages/kurator_FileBranchingTaxonLookup/data/kurator_sample_data_v2.txt</text>
</g>
<!-- DarwinCoreArchive&#45;&gt;Setup -->
<g id="edge7" class="edge"><title>DarwinCoreArchive&#45;&gt;Setup</title>
<path fill="none" stroke="black" d="M233.389,-800.813C234.971,-792.789 236.892,-783.047 238.662,-774.069"/>
<polygon fill="black" stroke="black" points="242.141,-774.517 240.642,-764.029 235.274,-773.163 242.141,-774.517"/>
</g>
<!-- LogFile_outflow -->
<g id="node16" class="node"><title>LogFile_outflow</title>
<ellipse fill="none" stroke="black" cx="283" cy="-31" rx="7" ry="7"/>
</g>
<!-- LogFile&#45;&gt;LogFile_outflow -->
<g id="edge19" class="edge"><title>LogFile&#45;&gt;LogFile_outflow</title>
<path fill="none" stroke="black" d="M283,-78.8492C283,-69.3727 283,-57.6638 283,-48.3223"/>
<polygon fill="black" stroke="black" points="286.5,-48.1021 283,-38.1022 279.5,-48.1022 286.5,-48.1021"/>
</g>
<!-- DarwinCoreArchive_inflow -->
<g id="node15" class="node"><title>DarwinCoreArchive_inflow</title>
<ellipse fill="none" stroke="black" cx="230" cy="-885" rx="7" ry="7"/>
</g>
<!-- DarwinCoreArchive_inflow&#45;&gt;DarwinCoreArchive -->
<g id="edge18" class="edge"><title>DarwinCoreArchive_inflow&#45;&gt;DarwinCoreArchive</title>
<path fill="none" stroke="black" d="M230,-877.629C230,-870.537 230,-858.598 230,-847.42"/>
<polygon fill="black" stroke="black" points="233.5,-847.119 230,-837.119 226.5,-847.119 233.5,-847.119"/>
</g>
</g>
</svg>
