<?xml version="1.0" encoding="UTF-8" standalone="no"?>
<!DOCTYPE svg PUBLIC "-//W3C//DTD SVG 1.1//EN"
 "http://www.w3.org/Graphics/SVG/1.1/DTD/svg11.dtd">
<!-- Generated by graphviz version 2.36.0 (20140111.2315)
 -->
<!-- Title: yw_data_view Pages: 1 -->
<svg width="468pt" height="952pt"
 viewBox="0.00 0.00 468.00 952.00" xmlns="http://www.w3.org/2000/svg" xmlns:xlink="http://www.w3.org/1999/xlink">
<g id="graph0" class="graph" transform="scale(1 1) rotate(0) translate(4 948)">
<title>yw_data_view</title>
<polygon fill="white" stroke="none" points="-4,4 -4,-948 464,-948 464,4 -4,4"/>
<text text-anchor="middle" x="230" y="-925.6" font-family="Courier,monospace" font-size="18.00">DwCA_Taxon_Lookup</text>
<g id="clust1" class="cluster"><title>cluster_workflow</title>
<polygon fill="none" stroke="black" stroke-width="2" points="8,-62 8,-854 452,-854 452,-62 8,-62"/>
</g>
<g id="clust2" class="cluster"><title>cluster_workflow_inner</title>
<polygon fill="none" stroke="white" stroke-width="2" points="16,-70 16,-846 444,-846 444,-70 16,-70"/>
</g>
<g id="clust3" class="cluster"><title>cluster_inflows</title>
<polygon fill="none" stroke="white" stroke-width="2" points="207,-862 207,-908 253,-908 253,-862 207,-862"/>
</g>
<g id="clust4" class="cluster"><title>cluster_inflows_inner</title>
<polygon fill="none" stroke="white" stroke-width="2" points="215,-870 215,-900 245,-900 245,-870 215,-870"/>
</g>
<g id="clust5" class="cluster"><title>cluster_outflows</title>
<polygon fill="none" stroke="white" stroke-width="2" points="227,-8 227,-54 273,-54 273,-8 227,-8"/>
</g>
<g id="clust6" class="cluster"><title>cluster_outflows_inner</title>
<polygon fill="none" stroke="white" stroke-width="2" points="235,-16 235,-46 265,-46 265,-16 235,-16"/>
</g>
<!-- FileToDataStream -->
<g id="node1" class="node"><title>FileToDataStream</title>
<polygon fill="#ccffcc" stroke="black" points="354.25,-620 203.75,-620 203.75,-584 354.25,-584 354.25,-620"/>
<text text-anchor="middle" x="279" y="-598.3" font-family="Courier,monospace" font-size="14.00">FileToDataStream</text>
</g>
<!-- DataRecord -->
<g id="node10" class="node"><title>DataRecord</title>
<path fill="#ffffcc" stroke="black" d="M302.25,-548C302.25,-548 261.75,-548 261.75,-548 255.75,-548 249.75,-542 249.75,-536 249.75,-536 249.75,-524 249.75,-524 249.75,-518 255.75,-512 261.75,-512 261.75,-512 302.25,-512 302.25,-512 308.25,-512 314.25,-518 314.25,-524 314.25,-524 314.25,-536 314.25,-536 314.25,-542 308.25,-548 302.25,-548"/>
<text text-anchor="middle" x="282" y="-527.8" font-family="Helvetica,sans-Serif" font-size="9.00">DataRecord</text>
</g>
<!-- FileToDataStream&#45;&gt;DataRecord -->
<g id="edge9" class="edge"><title>FileToDataStream&#45;&gt;DataRecord</title>
<path fill="none" stroke="black" d="M279.742,-583.697C280.072,-575.983 280.469,-566.712 280.838,-558.112"/>
<polygon fill="black" stroke="black" points="284.335,-558.245 281.267,-548.104 277.342,-557.945 284.335,-558.245"/>
</g>
<!-- Setup -->
<g id="node2" class="node"><title>Setup</title>
<polygon fill="#ccffcc" stroke="black" points="273.25,-764 214.75,-764 214.75,-728 273.25,-728 273.25,-764"/>
<text text-anchor="middle" x="244" y="-742.3" font-family="Courier,monospace" font-size="14.00">Setup</text>
</g>
<!-- OccurrenceFile -->
<g id="node9" class="node"><title>OccurrenceFile</title>
<path fill="#ffffcc" stroke="black" d="M299,-692C299,-692 245,-692 245,-692 239,-692 233,-686 233,-680 233,-680 233,-668 233,-668 233,-662 239,-656 245,-656 245,-656 299,-656 299,-656 305,-656 311,-662 311,-668 311,-668 311,-680 311,-680 311,-686 305,-692 299,-692"/>
<text text-anchor="middle" x="272" y="-671.8" font-family="Helvetica,sans-Serif" font-size="9.00">OccurrenceFile</text>
</g>
<!-- Setup&#45;&gt;OccurrenceFile -->
<g id="edge8" class="edge"><title>Setup&#45;&gt;OccurrenceFile</title>
<path fill="none" stroke="black" d="M250.921,-727.697C254.075,-719.813 257.878,-710.304 261.381,-701.546"/>
<polygon fill="black" stroke="black" points="264.694,-702.689 265.158,-692.104 258.195,-700.089 264.694,-702.689"/>
</g>
<!-- GBIFLookup -->
<g id="node3" class="node"><title>GBIFLookup</title>
<polygon fill="#ccffcc" stroke="black" points="155.25,-188 54.75,-188 54.75,-152 155.25,-152 155.25,-188"/>
<text text-anchor="middle" x="105" y="-166.3" font-family="Courier,monospace" font-size="14.00">GBIFLookup</text>
</g>
<!-- LogFile -->
<g id="node14" class="node"><title>LogFile</title>
<path fill="#ffe4b5" stroke="black" d="M226.5,-79C226.5,-79 273.5,-79 273.5,-79 279.5,-79 285.5,-85 285.5,-91 285.5,-91 285.5,-103 285.5,-103 285.5,-109 279.5,-115 273.5,-115 273.5,-115 226.5,-115 226.5,-115 220.5,-115 214.5,-109 214.5,-103 214.5,-103 214.5,-91 214.5,-91 214.5,-85 220.5,-79 226.5,-79"/>
<text text-anchor="middle" x="250" y="-103.8" font-family="Courier,monospace" font-weight="bold" font-size="9.00">LogFile</text>
<polyline fill="none" stroke="black" points="214.5,-97 285.5,-97 "/>
<text text-anchor="middle" x="250" y="-85.8" font-family="Courier,monospace" font-weight="bold" font-size="9.00">runlog.log</text>
</g>
<!-- GBIFLookup&#45;&gt;LogFile -->
<g id="edge17" class="edge"><title>GBIFLookup&#45;&gt;LogFile</title>
<path fill="none" stroke="black" d="M139.731,-151.994C159.582,-142.273 184.675,-129.987 205.907,-119.59"/>
<polygon fill="black" stroke="black" points="207.608,-122.655 215.05,-115.114 204.529,-116.368 207.608,-122.655"/>
</g>
<!-- WoRMSLookup -->
<g id="node4" class="node"><title>WoRMSLookup</title>
<polygon fill="#ccffcc" stroke="black" points="304.25,-188 195.75,-188 195.75,-152 304.25,-152 304.25,-188"/>
<text text-anchor="middle" x="250" y="-166.3" font-family="Courier,monospace" font-size="14.00">WoRMSLookup</text>
</g>
<!-- WoRMSLookup&#45;&gt;LogFile -->
<g id="edge16" class="edge"><title>WoRMSLookup&#45;&gt;LogFile</title>
<path fill="none" stroke="black" d="M250,-151.813C250,-143.789 250,-134.047 250,-125.069"/>
<polygon fill="black" stroke="black" points="253.5,-125.029 250,-115.029 246.5,-125.029 253.5,-125.029"/>
</g>
<!-- FilterToNonMarine -->
<g id="node5" class="node"><title>FilterToNonMarine</title>
<polygon fill="#ccffcc" stroke="black" points="183.25,-332 24.75,-332 24.75,-296 183.25,-296 183.25,-332"/>
<text text-anchor="middle" x="104" y="-310.3" font-family="Courier,monospace" font-size="14.00">FilterToNonMarine</text>
</g>
<!-- notMarineDataRecord -->
<g id="node13" class="node"><title>notMarineDataRecord</title>
<path fill="#ffffcc" stroke="black" d="M144.25,-260C144.25,-260 63.75,-260 63.75,-260 57.75,-260 51.75,-254 51.75,-248 51.75,-248 51.75,-236 51.75,-236 51.75,-230 57.75,-224 63.75,-224 63.75,-224 144.25,-224 144.25,-224 150.25,-224 156.25,-230 156.25,-236 156.25,-236 156.25,-248 156.25,-248 156.25,-254 150.25,-260 144.25,-260"/>
<text text-anchor="middle" x="104" y="-239.8" font-family="Helvetica,sans-Serif" font-size="9.00">notMarineDataRecord</text>
</g>
<!-- FilterToNonMarine&#45;&gt;notMarineDataRecord -->
<g id="edge15" class="edge"><title>FilterToNonMarine&#45;&gt;notMarineDataRecord</title>
<path fill="none" stroke="black" d="M104,-295.697C104,-287.983 104,-278.712 104,-270.112"/>
<polygon fill="black" stroke="black" points="107.5,-270.104 104,-260.104 100.5,-270.104 107.5,-270.104"/>
</g>
<!-- FilterToNonMarine&#45;&gt;LogFile -->
<g id="edge14" class="edge"><title>FilterToNonMarine&#45;&gt;LogFile</title>
<path fill="none" stroke="black" d="M130.849,-295.898C143.113,-286.716 156.721,-274.335 165,-260 189.456,-217.656 161.238,-194.166 186,-152 192.981,-140.112 203.572,-129.622 214.14,-121.125"/>
<polygon fill="black" stroke="black" points="216.318,-123.866 222.157,-115.026 212.08,-118.295 216.318,-123.866"/>
</g>
<!-- FilterToJustMarine -->
<g id="node6" class="node"><title>FilterToJustMarine</title>
<polygon fill="#ccffcc" stroke="black" points="370,-332 202,-332 202,-296 370,-296 370,-332"/>
<text text-anchor="middle" x="286" y="-310.3" font-family="Courier,monospace" font-size="14.00">FilterToJustMarine</text>
</g>
<!-- MarineDataRecord -->
<g id="node12" class="node"><title>MarineDataRecord</title>
<path fill="#ffffcc" stroke="black" d="M288,-260C288,-260 220,-260 220,-260 214,-260 208,-254 208,-248 208,-248 208,-236 208,-236 208,-230 214,-224 220,-224 220,-224 288,-224 288,-224 294,-224 300,-230 300,-236 300,-236 300,-248 300,-248 300,-254 294,-260 288,-260"/>
<text text-anchor="middle" x="254" y="-239.8" font-family="Helvetica,sans-Serif" font-size="9.00">MarineDataRecord</text>
</g>
<!-- FilterToJustMarine&#45;&gt;MarineDataRecord -->
<g id="edge13" class="edge"><title>FilterToJustMarine&#45;&gt;MarineDataRecord</title>
<path fill="none" stroke="black" d="M278.09,-295.697C274.447,-287.728 270.046,-278.1 266.006,-269.264"/>
<polygon fill="black" stroke="black" points="269.16,-267.744 261.819,-260.104 262.794,-270.654 269.16,-267.744"/>
</g>
<!-- FilterToJustMarine&#45;&gt;LogFile -->
<g id="edge12" class="edge"><title>FilterToJustMarine&#45;&gt;LogFile</title>
<path fill="none" stroke="black" d="M295.18,-295.689C309.999,-265.228 335.383,-200.665 313,-152 307.49,-140.021 297.867,-129.704 287.775,-121.393"/>
<polygon fill="black" stroke="black" points="289.717,-118.472 279.652,-115.165 285.458,-124.027 289.717,-118.472"/>
</g>
<!-- EnvironmentTagger -->
<g id="node7" class="node"><title>EnvironmentTagger</title>
<polygon fill="#ccffcc" stroke="black" points="363.25,-476 204.75,-476 204.75,-440 363.25,-440 363.25,-476"/>
<text text-anchor="middle" x="284" y="-454.3" font-family="Courier,monospace" font-size="14.00">EnvironmentTagger</text>
</g>
<!-- TaggedDataRecord -->
<g id="node11" class="node"><title>TaggedDataRecord</title>
<path fill="#ffffcc" stroke="black" d="M319.25,-404C319.25,-404 248.75,-404 248.75,-404 242.75,-404 236.75,-398 236.75,-392 236.75,-392 236.75,-380 236.75,-380 236.75,-374 242.75,-368 248.75,-368 248.75,-368 319.25,-368 319.25,-368 325.25,-368 331.25,-374 331.25,-380 331.25,-380 331.25,-392 331.25,-392 331.25,-398 325.25,-404 319.25,-404"/>
<text text-anchor="middle" x="284" y="-383.8" font-family="Helvetica,sans-Serif" font-size="9.00">TaggedDataRecord</text>
</g>
<!-- EnvironmentTagger&#45;&gt;TaggedDataRecord -->
<g id="edge11" class="edge"><title>EnvironmentTagger&#45;&gt;TaggedDataRecord</title>
<path fill="none" stroke="black" d="M284,-439.697C284,-431.983 284,-422.712 284,-414.112"/>
<polygon fill="black" stroke="black" points="287.5,-414.104 284,-404.104 280.5,-414.104 287.5,-414.104"/>
</g>
<!-- EnvironmentTagger&#45;&gt;LogFile -->
<g id="edge10" class="edge"><title>EnvironmentTagger&#45;&gt;LogFile</title>
<path fill="none" stroke="black" d="M308.353,-439.875C339.371,-415.844 389,-368.962 389,-315 389,-315 389,-315 389,-241 389,-185.682 334.855,-143.711 294.151,-119.976"/>
<polygon fill="black" stroke="black" points="295.863,-116.923 285.435,-115.047 292.417,-123.016 295.863,-116.923"/>
</g>
<!-- DarwinCoreArchive -->
<g id="node8" class="node"><title>DarwinCoreArchive</title>
<path fill="#ffe4b5" stroke="black" d="M36.5,-801C36.5,-801 423.5,-801 423.5,-801 429.5,-801 435.5,-807 435.5,-813 435.5,-813 435.5,-825 435.5,-825 435.5,-831 429.5,-837 423.5,-837 423.5,-837 36.5,-837 36.5,-837 30.5,-837 24.5,-831 24.5,-825 24.5,-825 24.5,-813 24.5,-813 24.5,-807 30.5,-801 36.5,-801"/>
<text text-anchor="middle" x="230" y="-825.8" font-family="Courier,monospace" font-weight="bold" font-size="9.00">DarwinCoreArchive</text>
<polyline fill="none" stroke="black" points="24.5,-819 435.5,-819 "/>
<text text-anchor="middle" x="230" y="-807.8" font-family="Courier,monospace" font-weight="bold" font-size="9.00">packages/kurator_FileBranchingTaxonLookup/data/kurator_sample_data_v2.txt</text>
</g>
<!-- DarwinCoreArchive&#45;&gt;Setup -->
<g id="edge7" class="edge"><title>DarwinCoreArchive&#45;&gt;Setup</title>
<path fill="none" stroke="black" d="M233.389,-800.813C234.971,-792.789 236.892,-783.047 238.662,-774.069"/>
<polygon fill="black" stroke="black" points="242.141,-774.517 240.642,-764.029 235.274,-773.163 242.141,-774.517"/>
</g>
<!-- OccurrenceFile&#45;&gt;FileToDataStream -->
<g id="edge6" class="edge"><title>OccurrenceFile&#45;&gt;FileToDataStream</title>
<path fill="none" stroke="black" d="M273.73,-655.697C274.502,-647.983 275.429,-638.712 276.289,-630.112"/>
<polygon fill="black" stroke="black" points="279.777,-630.403 277.29,-620.104 272.812,-629.706 279.777,-630.403"/>
</g>
<!-- DataRecord&#45;&gt;EnvironmentTagger -->
<g id="edge5" class="edge"><title>DataRecord&#45;&gt;EnvironmentTagger</title>
<path fill="none" stroke="black" d="M282.494,-511.697C282.715,-503.983 282.98,-494.712 283.225,-486.112"/>
<polygon fill="black" stroke="black" points="286.724,-486.2 283.511,-476.104 279.727,-486 286.724,-486.2"/>
</g>
<!-- TaggedDataRecord&#45;&gt;FilterToNonMarine -->
<g id="edge3" class="edge"><title>TaggedDataRecord&#45;&gt;FilterToNonMarine</title>
<path fill="none" stroke="black" d="M239.967,-367.876C215.032,-358.179 183.662,-345.98 157.338,-335.743"/>
<polygon fill="black" stroke="black" points="158.479,-332.431 147.89,-332.068 155.941,-338.955 158.479,-332.431"/>
</g>
<!-- TaggedDataRecord&#45;&gt;FilterToJustMarine -->
<g id="edge4" class="edge"><title>TaggedDataRecord&#45;&gt;FilterToJustMarine</title>
<path fill="none" stroke="black" d="M284.494,-367.697C284.715,-359.983 284.98,-350.712 285.225,-342.112"/>
<polygon fill="black" stroke="black" points="288.724,-342.2 285.511,-332.104 281.727,-342 288.724,-342.2"/>
</g>
<!-- MarineDataRecord&#45;&gt;WoRMSLookup -->
<g id="edge2" class="edge"><title>MarineDataRecord&#45;&gt;WoRMSLookup</title>
<path fill="none" stroke="black" d="M253.011,-223.697C252.57,-215.983 252.041,-206.712 251.549,-198.112"/>
<polygon fill="black" stroke="black" points="255.042,-197.888 250.977,-188.104 248.054,-198.288 255.042,-197.888"/>
</g>
<!-- notMarineDataRecord&#45;&gt;GBIFLookup -->
<g id="edge1" class="edge"><title>notMarineDataRecord&#45;&gt;GBIFLookup</title>
<path fill="none" stroke="black" d="M104.247,-223.697C104.357,-215.983 104.49,-206.712 104.613,-198.112"/>
<polygon fill="black" stroke="black" points="108.112,-198.153 104.756,-188.104 101.113,-198.053 108.112,-198.153"/>
</g>
<!-- LogFile_outflow -->
<g id="node16" class="node"><title>LogFile_outflow</title>
<ellipse fill="none" stroke="black" cx="250" cy="-31" rx="7" ry="7"/>
</g>
<!-- LogFile&#45;&gt;LogFile_outflow -->
<g id="edge19" class="edge"><title>LogFile&#45;&gt;LogFile_outflow</title>
<path fill="none" stroke="black" d="M250,-78.8492C250,-69.3727 250,-57.6638 250,-48.3223"/>
<polygon fill="black" stroke="black" points="253.5,-48.1021 250,-38.1022 246.5,-48.1022 253.5,-48.1021"/>
</g>
<!-- DarwinCoreArchive_inflow -->
<g id="node15" class="node"><title>DarwinCoreArchive_inflow</title>
<ellipse fill="none" stroke="black" cx="230" cy="-885" rx="7" ry="7"/>
</g>
<!-- DarwinCoreArchive_inflow&#45;&gt;DarwinCoreArchive -->
<g id="edge18" class="edge"><title>DarwinCoreArchive_inflow&#45;&gt;DarwinCoreArchive</title>
<path fill="none" stroke="black" d="M230,-877.629C230,-870.537 230,-858.598 230,-847.42"/>
<polygon fill="black" stroke="black" points="233.5,-847.119 230,-837.119 226.5,-847.119 233.5,-847.119"/>
</g>
</g>
</svg>
