<?xml version="1.0" encoding="UTF-8" standalone="no"?>
<!DOCTYPE svg PUBLIC "-//W3C//DTD SVG 1.1//EN"
 "http://www.w3.org/Graphics/SVG/1.1/DTD/svg11.dtd">
<!-- Generated by graphviz version 2.36.0 (20140111.2315)
 -->
<!-- Title: yw_data_view Pages: 1 -->
<svg width="574pt" height="1268pt"
 viewBox="0.00 0.00 574.00 1268.00" xmlns="http://www.w3.org/2000/svg" xmlns:xlink="http://www.w3.org/1999/xlink">
<g id="graph0" class="graph" transform="scale(1 1) rotate(0) translate(4 1264)">
<title>yw_data_view</title>
<polygon fill="white" stroke="none" points="-4,4 -4,-1264 570,-1264 570,4 -4,4"/>
<text text-anchor="middle" x="283" y="-1241.6" font-family="Courier,monospace" font-size="18.00">FileBranchingTaxonLookupWorkflow</text>
<g id="clust1" class="cluster"><title>cluster_workflow</title>
<polygon fill="none" stroke="black" stroke-width="2" points="8,-62 8,-1170 558,-1170 558,-62 8,-62"/>
</g>
<g id="clust2" class="cluster"><title>cluster_workflow_inner</title>
<polygon fill="none" stroke="white" stroke-width="2" points="16,-70 16,-1162 550,-1162 550,-70 16,-70"/>
</g>
<g id="clust5" class="cluster"><title>cluster_outflows</title>
<polygon fill="none" stroke="white" stroke-width="2" points="330,-8 330,-54 408,-54 408,-8 330,-8"/>
</g>
<g id="clust6" class="cluster"><title>cluster_outflows_inner</title>
<polygon fill="none" stroke="white" stroke-width="2" points="338,-16 338,-46 400,-46 400,-16 338,-16"/>
</g>
<g id="clust3" class="cluster"><title>cluster_inflows</title>
<polygon fill="none" stroke="white" stroke-width="2" points="185,-1178 185,-1224 263,-1224 263,-1178 185,-1178"/>
</g>
<g id="clust4" class="cluster"><title>cluster_inflows_inner</title>
<polygon fill="none" stroke="white" stroke-width="2" points="193,-1186 193,-1216 255,-1216 255,-1186 193,-1186"/>
</g>
<!-- FilterToJustMarine -->
<g id="node1" class="node"><title>FilterToJustMarine</title>
<polygon fill="#d6d6d7" stroke="black" points="278,-644 110,-644 110,-608 278,-608 278,-644"/>
<text text-anchor="middle" x="194" y="-622.3" font-family="Courier,monospace" font-size="14.00">FilterToJustMarine</text>
</g>
<!-- MarineDataRecord -->
<g id="node10" class="node"><title>MarineDataRecord</title>
<path fill="#d6d6d7" stroke="black" d="M127,-524.5C127,-524.5 237,-524.5 237,-524.5 243,-524.5 249,-530.5 249,-536.5 249,-536.5 249,-559.5 249,-559.5 249,-565.5 243,-571.5 237,-571.5 237,-571.5 127,-571.5 127,-571.5 121,-571.5 115,-565.5 115,-559.5 115,-559.5 115,-536.5 115,-536.5 115,-530.5 121,-524.5 127,-524.5"/>
<text text-anchor="middle" x="182" y="-556.3" font-family="Helvetica,sans-Serif" font-size="14.00">MarineDataRecord</text>
<polyline fill="none" stroke="black" points="115,-548.5 249,-548.5 "/>
</g>
<!-- FilterToJustMarine&#45;&gt;MarineDataRecord -->
<g id="edge19" class="edge"><title>FilterToJustMarine&#45;&gt;MarineDataRecord</title>
<path fill="none" stroke="black" d="M191.277,-607.754C190.051,-599.99 188.562,-590.559 187.139,-581.545"/>
<polygon fill="black" stroke="black" points="190.594,-580.99 185.578,-571.658 183.68,-582.081 190.594,-580.99"/>
</g>
<!-- LogFile -->
<g id="node20" class="node"><title>LogFile</title>
<path fill="#ffe4b5" stroke="black" d="M482.5,-374C482.5,-374 529.5,-374 529.5,-374 535.5,-374 541.5,-380 541.5,-386 541.5,-386 541.5,-398 541.5,-398 541.5,-404 535.5,-410 529.5,-410 529.5,-410 482.5,-410 482.5,-410 476.5,-410 470.5,-404 470.5,-398 470.5,-398 470.5,-386 470.5,-386 470.5,-380 476.5,-374 482.5,-374"/>
<text text-anchor="middle" x="506" y="-398.8" font-family="Courier,monospace" font-weight="bold" font-size="9.00">LogFile</text>
<polyline fill="none" stroke="black" points="470.5,-392 541.5,-392 "/>
<text text-anchor="middle" x="506" y="-380.8" font-family="Courier,monospace" font-weight="bold" font-size="9.00">runlog.log</text>
</g>
<!-- FilterToJustMarine&#45;&gt;LogFile -->
<g id="edge18" class="edge"><title>FilterToJustMarine&#45;&gt;LogFile</title>
<path fill="none" stroke="black" d="M220.278,-607.802C232.998,-598.432 247.704,-585.917 258,-572 271.746,-553.421 267.499,-544.588 278,-524 295.04,-490.593 291.871,-474.331 322,-452 373.269,-414 401.342,-438.657 461,-416 462.384,-415.474 463.781,-414.918 465.184,-414.337"/>
<polygon fill="black" stroke="black" points="466.723,-417.484 474.435,-410.22 463.876,-411.088 466.723,-417.484"/>
</g>
<!-- WoRMSLookup -->
<g id="node2" class="node"><title>WoRMSLookup</title>
<polygon fill="#d6d6d7" stroke="black" points="236.25,-488 127.75,-488 127.75,-452 236.25,-452 236.25,-488"/>
<text text-anchor="middle" x="182" y="-466.3" font-family="Courier,monospace" font-size="14.00">WoRMSLookup</text>
</g>
<!-- WoRMSUpdatedRecord -->
<g id="node11" class="node"><title>WoRMSUpdatedRecord</title>
<path fill="#d6d6d7" stroke="black" d="M56.5,-368.5C56.5,-368.5 199.5,-368.5 199.5,-368.5 205.5,-368.5 211.5,-374.5 211.5,-380.5 211.5,-380.5 211.5,-403.5 211.5,-403.5 211.5,-409.5 205.5,-415.5 199.5,-415.5 199.5,-415.5 56.5,-415.5 56.5,-415.5 50.5,-415.5 44.5,-409.5 44.5,-403.5 44.5,-403.5 44.5,-380.5 44.5,-380.5 44.5,-374.5 50.5,-368.5 56.5,-368.5"/>
<text text-anchor="middle" x="128" y="-400.3" font-family="Helvetica,sans-Serif" font-size="14.00">WoRMSUpdatedRecord</text>
<polyline fill="none" stroke="black" points="44.5,-392.5 211.5,-392.5 "/>
</g>
<!-- WoRMSLookup&#45;&gt;WoRMSUpdatedRecord -->
<g id="edge23" class="edge"><title>WoRMSLookup&#45;&gt;WoRMSUpdatedRecord</title>
<path fill="none" stroke="black" d="M169.747,-451.754C163.933,-443.573 156.805,-433.54 150.094,-424.096"/>
<polygon fill="black" stroke="black" points="152.744,-421.782 144.099,-415.658 147.038,-425.837 152.744,-421.782"/>
</g>
<!-- WoRMSLookup&#45;&gt;LogFile -->
<g id="edge22" class="edge"><title>WoRMSLookup&#45;&gt;LogFile</title>
<path fill="none" stroke="black" d="M236.422,-457.367C245.297,-455.531 254.398,-453.684 263,-452 350.776,-434.813 376.273,-444.659 461,-416 462.657,-415.439 464.329,-414.827 466.003,-414.173"/>
<polygon fill="black" stroke="black" points="467.735,-417.238 475.534,-410.067 464.965,-410.81 467.735,-417.238"/>
</g>
<!-- Setup -->
<g id="node3" class="node"><title>Setup</title>
<polygon fill="#ccffcc" stroke="black" points="136.25,-1080 77.75,-1080 77.75,-1044 136.25,-1044 136.25,-1080"/>
<text text-anchor="middle" x="107" y="-1058.3" font-family="Courier,monospace" font-size="14.00">Setup</text>
</g>
<!-- Workspace -->
<g id="node17" class="node"><title>Workspace</title>
<path fill="#ffffcc" stroke="black" d="M92,-936C92,-936 54,-936 54,-936 48,-936 42,-930 42,-924 42,-924 42,-912 42,-912 42,-906 48,-900 54,-900 54,-900 92,-900 92,-900 98,-900 104,-906 104,-912 104,-912 104,-924 104,-924 104,-930 98,-936 92,-936"/>
<text text-anchor="middle" x="73" y="-915.8" font-family="Helvetica,sans-Serif" font-size="9.00">Workspace</text>
</g>
<!-- Setup&#45;&gt;Workspace -->
<g id="edge13" class="edge"><title>Setup&#45;&gt;Workspace</title>
<path fill="none" stroke="black" d="M102.899,-1043.87C97.0786,-1019.56 86.365,-974.819 79.468,-946.013"/>
<polygon fill="black" stroke="black" points="82.8482,-945.099 77.1157,-936.189 76.0406,-946.729 82.8482,-945.099"/>
</g>
<!-- OccurrenceFile -->
<g id="node18" class="node"><title>OccurrenceFile</title>
<path fill="#ffffcc" stroke="black" d="M208,-1008C208,-1008 154,-1008 154,-1008 148,-1008 142,-1002 142,-996 142,-996 142,-984 142,-984 142,-978 148,-972 154,-972 154,-972 208,-972 208,-972 214,-972 220,-978 220,-984 220,-984 220,-996 220,-996 220,-1002 214,-1008 208,-1008"/>
<text text-anchor="middle" x="181" y="-987.8" font-family="Helvetica,sans-Serif" font-size="9.00">OccurrenceFile</text>
</g>
<!-- Setup&#45;&gt;OccurrenceFile -->
<g id="edge14" class="edge"><title>Setup&#45;&gt;OccurrenceFile</title>
<path fill="none" stroke="black" d="M125.292,-1043.7C134.433,-1035.05 145.64,-1024.45 155.6,-1015.03"/>
<polygon fill="black" stroke="black" points="158.059,-1017.52 162.918,-1008.1 153.248,-1012.43 158.059,-1017.52"/>
</g>
<!-- FileToDataStream -->
<g id="node4" class="node"><title>FileToDataStream</title>
<polygon fill="#ccffcc" stroke="black" points="278.25,-936 127.75,-936 127.75,-900 278.25,-900 278.25,-936"/>
<text text-anchor="middle" x="203" y="-914.3" font-family="Courier,monospace" font-size="14.00">FileToDataStream</text>
</g>
<!-- DataRecord -->
<g id="node12" class="node"><title>DataRecord</title>
<path fill="#f8d2db" stroke="black" d="M167,-827C167,-827 241,-827 241,-827 247,-827 253,-833 253,-839 253,-839 253,-851 253,-851 253,-857 247,-863 241,-863 241,-863 167,-863 167,-863 161,-863 155,-857 155,-851 155,-851 155,-839 155,-839 155,-833 161,-827 167,-827"/>
<text text-anchor="middle" x="204" y="-851.8" font-family="Courier,monospace" font-weight="bold" font-size="9.00">DataRecord</text>
<polyline fill="none" stroke="black" points="155,-845 253,-845 "/>
<text text-anchor="middle" x="204" y="-833.8" font-family="Courier,monospace" font-weight="bold" font-size="9.00">MCZ:Mala:278687</text>
</g>
<!-- FileToDataStream&#45;&gt;DataRecord -->
<g id="edge15" class="edge"><title>FileToDataStream&#45;&gt;DataRecord</title>
<path fill="none" stroke="black" d="M203.242,-899.813C203.355,-891.789 203.492,-882.047 203.619,-873.069"/>
<polygon fill="black" stroke="black" points="207.119,-873.077 203.76,-863.029 200.12,-872.979 207.119,-873.077"/>
</g>
<!-- EnvironmentTagger -->
<g id="node5" class="node"><title>EnvironmentTagger</title>
<polygon fill="#ccffcc" stroke="black" points="286.25,-790 127.75,-790 127.75,-754 286.25,-754 286.25,-790"/>
<text text-anchor="middle" x="207" y="-768.3" font-family="Courier,monospace" font-size="14.00">EnvironmentTagger</text>
</g>
<!-- TaggedDataRecord -->
<g id="node13" class="node"><title>TaggedDataRecord</title>
<path fill="#f8d2db" stroke="black" d="M167.5,-681C167.5,-681 246.5,-681 246.5,-681 252.5,-681 258.5,-687 258.5,-693 258.5,-693 258.5,-705 258.5,-705 258.5,-711 252.5,-717 246.5,-717 246.5,-717 167.5,-717 167.5,-717 161.5,-717 155.5,-711 155.5,-705 155.5,-705 155.5,-693 155.5,-693 155.5,-687 161.5,-681 167.5,-681"/>
<text text-anchor="middle" x="207" y="-705.8" font-family="Courier,monospace" font-weight="bold" font-size="9.00">TaggedDataRecord</text>
<polyline fill="none" stroke="black" points="155.5,-699 258.5,-699 "/>
<text text-anchor="middle" x="207" y="-687.8" font-family="Courier,monospace" font-weight="bold" font-size="9.00">NonMarine</text>
</g>
<!-- EnvironmentTagger&#45;&gt;TaggedDataRecord -->
<g id="edge17" class="edge"><title>EnvironmentTagger&#45;&gt;TaggedDataRecord</title>
<path fill="none" stroke="black" d="M207,-753.813C207,-745.789 207,-736.047 207,-727.069"/>
<polygon fill="black" stroke="black" points="210.5,-727.029 207,-717.029 203.5,-727.029 210.5,-727.029"/>
</g>
<!-- EnvironmentTagger&#45;&gt;LogFile -->
<g id="edge16" class="edge"><title>EnvironmentTagger&#45;&gt;LogFile</title>
<path fill="none" stroke="black" d="M286.575,-767.389C378.13,-758.458 516,-728.207 516,-627 516,-627 516,-627 516,-547 516,-502.617 511.813,-451.189 508.857,-420.419"/>
<polygon fill="black" stroke="black" points="512.301,-419.675 507.834,-410.068 505.335,-420.364 512.301,-419.675"/>
</g>
<!-- FilterExcludingMarine -->
<g id="node6" class="node"><title>FilterExcludingMarine</title>
<polygon fill="#ccffcc" stroke="black" points="489.25,-644 296.75,-644 296.75,-608 489.25,-608 489.25,-644"/>
<text text-anchor="middle" x="393" y="-622.3" font-family="Courier,monospace" font-size="14.00">FilterExcludingMarine</text>
</g>
<!-- notMarineDataRecord -->
<g id="node14" class="node"><title>notMarineDataRecord</title>
<path fill="#f8d2db" stroke="black" d="M299.5,-530C299.5,-530 464.5,-530 464.5,-530 470.5,-530 476.5,-536 476.5,-542 476.5,-542 476.5,-554 476.5,-554 476.5,-560 470.5,-566 464.5,-566 464.5,-566 299.5,-566 299.5,-566 293.5,-566 287.5,-560 287.5,-554 287.5,-554 287.5,-542 287.5,-542 287.5,-536 293.5,-530 299.5,-530"/>
<text text-anchor="middle" x="382" y="-554.8" font-family="Courier,monospace" font-weight="bold" font-size="9.00">notMarineDataRecord</text>
<polyline fill="none" stroke="black" points="287.5,-548 476.5,-548 "/>
<text text-anchor="middle" x="382" y="-536.8" font-family="Courier,monospace" font-weight="bold" font-size="9.00">Cypraea arabica:(Linnaeus, 1758)</text>
</g>
<!-- FilterExcludingMarine&#45;&gt;notMarineDataRecord -->
<g id="edge21" class="edge"><title>FilterExcludingMarine&#45;&gt;notMarineDataRecord</title>
<path fill="none" stroke="black" d="M390.504,-607.754C389.154,-598.426 387.455,-586.691 385.932,-576.165"/>
<polygon fill="black" stroke="black" points="389.383,-575.573 384.486,-566.177 382.455,-576.576 389.383,-575.573"/>
</g>
<!-- FilterExcludingMarine&#45;&gt;LogFile -->
<g id="edge20" class="edge"><title>FilterExcludingMarine&#45;&gt;LogFile</title>
<path fill="none" stroke="black" d="M441.114,-607.825C457.623,-599.532 474.556,-587.855 485,-572 501.026,-547.67 504.849,-464.021 505.742,-420.226"/>
<polygon fill="black" stroke="black" points="509.245,-420.068 505.912,-410.011 502.246,-419.951 509.245,-420.068"/>
</g>
<!-- GBIFLookup -->
<g id="node7" class="node"><title>GBIFLookup</title>
<polygon fill="#ccffcc" stroke="black" points="432.25,-488 331.75,-488 331.75,-452 432.25,-452 432.25,-488"/>
<text text-anchor="middle" x="382" y="-466.3" font-family="Courier,monospace" font-size="14.00">GBIFLookup</text>
</g>
<!-- GBIFUpdatedRecord -->
<g id="node15" class="node"><title>GBIFUpdatedRecord</title>
<path fill="#f8d2db" stroke="black" d="M242,-374C242,-374 440,-374 440,-374 446,-374 452,-380 452,-386 452,-386 452,-398 452,-398 452,-404 446,-410 440,-410 440,-410 242,-410 242,-410 236,-410 230,-404 230,-398 230,-398 230,-386 230,-386 230,-380 236,-374 242,-374"/>
<text text-anchor="middle" x="341" y="-398.8" font-family="Courier,monospace" font-weight="bold" font-size="9.00">GBIFUpdatedRecord</text>
<polyline fill="none" stroke="black" points="230,-392 452,-392 "/>
<text text-anchor="middle" x="341" y="-380.8" font-family="Courier,monospace" font-weight="bold" font-size="9.00">http://api.gbif.org/v1/species/4360809</text>
</g>
<!-- GBIFLookup&#45;&gt;GBIFUpdatedRecord -->
<g id="edge25" class="edge"><title>GBIFLookup&#45;&gt;GBIFUpdatedRecord</title>
<path fill="none" stroke="black" d="M372.696,-451.754C367.507,-442.135 360.936,-429.955 355.125,-419.182"/>
<polygon fill="black" stroke="black" points="358.095,-417.317 350.267,-410.177 351.934,-420.64 358.095,-417.317"/>
</g>
<!-- GBIFLookup&#45;&gt;LogFile -->
<g id="edge24" class="edge"><title>GBIFLookup&#45;&gt;LogFile</title>
<path fill="none" stroke="black" d="M409.828,-451.944C427.335,-441.214 450.127,-427.245 469.129,-415.598"/>
<polygon fill="black" stroke="black" points="471.139,-418.472 477.836,-410.262 467.481,-412.503 471.139,-418.472"/>
</g>
<!-- StreamMerge -->
<g id="node8" class="node"><title>StreamMerge</title>
<polygon fill="#ccffcc" stroke="black" points="263.25,-332 154.75,-332 154.75,-296 263.25,-296 263.25,-332"/>
<text text-anchor="middle" x="209" y="-310.3" font-family="Courier,monospace" font-size="14.00">StreamMerge</text>
</g>
<!-- MergedStream -->
<g id="node19" class="node"><title>MergedStream</title>
<path fill="#ffffcc" stroke="black" d="M235,-260C235,-260 183,-260 183,-260 177,-260 171,-254 171,-248 171,-248 171,-236 171,-236 171,-230 177,-224 183,-224 183,-224 235,-224 235,-224 241,-224 247,-230 247,-236 247,-236 247,-248 247,-248 247,-254 241,-260 235,-260"/>
<text text-anchor="middle" x="209" y="-239.8" font-family="Helvetica,sans-Serif" font-size="9.00">MergedStream</text>
</g>
<!-- StreamMerge&#45;&gt;MergedStream -->
<g id="edge26" class="edge"><title>StreamMerge&#45;&gt;MergedStream</title>
<path fill="none" stroke="black" d="M209,-295.697C209,-287.983 209,-278.712 209,-270.112"/>
<polygon fill="black" stroke="black" points="212.5,-270.104 209,-260.104 205.5,-270.104 212.5,-270.104"/>
</g>
<!-- CsvFileWriter -->
<g id="node9" class="node"><title>CsvFileWriter</title>
<polygon fill="#ccffcc" stroke="black" points="272,-188 146,-188 146,-152 272,-152 272,-188"/>
<text text-anchor="middle" x="209" y="-166.3" font-family="Courier,monospace" font-size="14.00">CsvFileWriter</text>
</g>
<!-- UpdatedDarwinCoreFile -->
<g id="node21" class="node"><title>UpdatedDarwinCoreFile</title>
<path fill="#ffe4b5" stroke="black" d="M74,-79C74,-79 428,-79 428,-79 434,-79 440,-85 440,-91 440,-91 440,-103 440,-103 440,-109 434,-115 428,-115 428,-115 74,-115 74,-115 68,-115 62,-109 62,-103 62,-103 62,-91 62,-91 62,-85 68,-79 74,-79"/>
<text text-anchor="middle" x="251" y="-103.8" font-family="Courier,monospace" font-weight="bold" font-size="9.00">UpdatedDarwinCoreFile</text>
<polyline fill="none" stroke="black" points="62,-97 440,-97 "/>
<text text-anchor="middle" x="251" y="-85.8" font-family="Courier,monospace" font-weight="bold" font-size="9.00">workspace_18338630&#45;a81c&#45;11e7&#45;8146&#45;acbc3296f741/mergedoutputfile.csv</text>
</g>
<!-- CsvFileWriter&#45;&gt;UpdatedDarwinCoreFile -->
<g id="edge27" class="edge"><title>CsvFileWriter&#45;&gt;UpdatedDarwinCoreFile</title>
<path fill="none" stroke="black" d="M219.167,-151.813C224.12,-143.441 230.179,-133.197 235.677,-123.903"/>
<polygon fill="black" stroke="black" points="238.848,-125.418 240.927,-115.029 232.823,-121.854 238.848,-125.418"/>
</g>
<!-- MarineDataRecord&#45;&gt;WoRMSLookup -->
<g id="edge8" class="edge"><title>MarineDataRecord&#45;&gt;WoRMSLookup</title>
<path fill="none" stroke="black" d="M182,-524.197C182,-516.081 182,-506.858 182,-498.397"/>
<polygon fill="black" stroke="black" points="185.5,-498.228 182,-488.228 178.5,-498.228 185.5,-498.228"/>
</g>
<!-- WoRMSUpdatedRecord&#45;&gt;StreamMerge -->
<g id="edge10" class="edge"><title>WoRMSUpdatedRecord&#45;&gt;StreamMerge</title>
<path fill="none" stroke="black" d="M152.303,-368.197C162.01,-359.089 173.204,-348.587 183.067,-339.332"/>
<polygon fill="black" stroke="black" points="185.741,-341.623 190.639,-332.228 180.951,-336.518 185.741,-341.623"/>
</g>
<!-- DataRecord&#45;&gt;EnvironmentTagger -->
<g id="edge5" class="edge"><title>DataRecord&#45;&gt;EnvironmentTagger</title>
<path fill="none" stroke="black" d="M204.726,-826.813C205.065,-818.789 205.477,-809.047 205.856,-800.069"/>
<polygon fill="black" stroke="black" points="209.355,-800.168 206.28,-790.029 202.361,-799.872 209.355,-800.168"/>
</g>
<!-- TaggedDataRecord&#45;&gt;FilterToJustMarine -->
<g id="edge6" class="edge"><title>TaggedDataRecord&#45;&gt;FilterToJustMarine</title>
<path fill="none" stroke="black" d="M203.853,-680.813C202.384,-672.789 200.6,-663.047 198.956,-654.069"/>
<polygon fill="black" stroke="black" points="202.362,-653.235 197.118,-644.029 195.476,-654.496 202.362,-653.235"/>
</g>
<!-- TaggedDataRecord&#45;&gt;FilterExcludingMarine -->
<g id="edge7" class="edge"><title>TaggedDataRecord&#45;&gt;FilterExcludingMarine</title>
<path fill="none" stroke="black" d="M251.552,-680.994C277.701,-671.012 310.941,-658.324 338.627,-647.755"/>
<polygon fill="black" stroke="black" points="340.073,-650.95 348.167,-644.114 337.577,-644.41 340.073,-650.95"/>
</g>
<!-- notMarineDataRecord&#45;&gt;GBIFLookup -->
<g id="edge9" class="edge"><title>notMarineDataRecord&#45;&gt;GBIFLookup</title>
<path fill="none" stroke="black" d="M382,-529.754C382,-520.523 382,-508.935 382,-498.495"/>
<polygon fill="black" stroke="black" points="385.5,-498.177 382,-488.177 378.5,-498.177 385.5,-498.177"/>
</g>
<!-- GBIFUpdatedRecord&#45;&gt;StreamMerge -->
<g id="edge11" class="edge"><title>GBIFUpdatedRecord&#45;&gt;StreamMerge</title>
<path fill="none" stroke="black" d="M311.377,-373.944C292.572,-363.117 268.038,-348.992 247.702,-337.283"/>
<polygon fill="black" stroke="black" points="249.394,-334.218 238.981,-332.262 245.901,-340.285 249.394,-334.218"/>
</g>
<!-- DarwinCoreFile -->
<g id="node16" class="node"><title>DarwinCoreFile</title>
<path fill="#ffe4b5" stroke="black" d="M169.5,-1117C169.5,-1117 518.5,-1117 518.5,-1117 524.5,-1117 530.5,-1123 530.5,-1129 530.5,-1129 530.5,-1141 530.5,-1141 530.5,-1147 524.5,-1153 518.5,-1153 518.5,-1153 169.5,-1153 169.5,-1153 163.5,-1153 157.5,-1147 157.5,-1141 157.5,-1141 157.5,-1129 157.5,-1129 157.5,-1123 163.5,-1117 169.5,-1117"/>
<text text-anchor="middle" x="344" y="-1141.8" font-family="Courier,monospace" font-weight="bold" font-size="9.00">DarwinCoreFile</text>
<polyline fill="none" stroke="black" points="157.5,-1135 530.5,-1135 "/>
<text text-anchor="middle" x="344" y="-1123.8" font-family="Courier,monospace" font-weight="bold" font-size="9.00">packages/kurator_branching_generic/data/kurator_sample_data_v2.txt</text>
</g>
<!-- DarwinCoreFile&#45;&gt;Setup -->
<g id="edge2" class="edge"><title>DarwinCoreFile&#45;&gt;Setup</title>
<path fill="none" stroke="black" d="M287.233,-1116.99C243.612,-1103.93 184.507,-1086.22 146.069,-1074.7"/>
<polygon fill="black" stroke="black" points="146.868,-1071.29 136.285,-1071.77 144.86,-1078 146.868,-1071.29"/>
</g>
<!-- Workspace&#45;&gt;CsvFileWriter -->
<g id="edge3" class="edge"><title>Workspace&#45;&gt;CsvFileWriter</title>
<path fill="none" stroke="black" d="M63.2865,-899.882C49.2607,-873.51 25,-820.961 25,-773 25,-773 25,-773 25,-313 25,-251.429 90.3704,-212.808 143.183,-191.652"/>
<polygon fill="black" stroke="black" points="144.481,-194.903 152.543,-188.03 141.954,-188.375 144.481,-194.903"/>
</g>
<!-- OccurrenceFile&#45;&gt;FileToDataStream -->
<g id="edge4" class="edge"><title>OccurrenceFile&#45;&gt;FileToDataStream</title>
<path fill="none" stroke="black" d="M186.438,-971.697C188.889,-963.898 191.84,-954.509 194.568,-945.829"/>
<polygon fill="black" stroke="black" points="197.965,-946.694 197.624,-936.104 191.287,-944.595 197.965,-946.694"/>
</g>
<!-- MergedStream&#45;&gt;CsvFileWriter -->
<g id="edge12" class="edge"><title>MergedStream&#45;&gt;CsvFileWriter</title>
<path fill="none" stroke="black" d="M209,-223.697C209,-215.983 209,-206.712 209,-198.112"/>
<polygon fill="black" stroke="black" points="212.5,-198.104 209,-188.104 205.5,-198.104 212.5,-198.104"/>
</g>
<!-- LogFile_outflow -->
<g id="node25" class="node"><title>LogFile_outflow</title>
<ellipse fill="none" stroke="black" cx="385" cy="-31" rx="7" ry="7"/>
</g>
<!-- LogFile&#45;&gt;LogFile_outflow -->
<g id="edge30" class="edge"><title>LogFile&#45;&gt;LogFile_outflow</title>
<path fill="none" stroke="black" d="M502.337,-373.775C496.815,-346.269 487,-290.666 487,-243 487,-243 487,-243 487,-169 487,-118.535 482.911,-99.3741 449,-62 436.377,-48.0884 415.967,-40.0872 401.595,-35.9023"/>
<polygon fill="black" stroke="black" points="402.186,-32.4401 391.629,-33.3243 400.433,-39.217 402.186,-32.4401"/>
</g>
<!-- UpdatedDarwinCoreFile_outflow -->
<g id="node26" class="node"><title>UpdatedDarwinCoreFile_outflow</title>
<ellipse fill="none" stroke="black" cx="353" cy="-31" rx="7" ry="7"/>
</g>
<!-- UpdatedDarwinCoreFile&#45;&gt;UpdatedDarwinCoreFile_outflow -->
<g id="edge31" class="edge"><title>UpdatedDarwinCoreFile&#45;&gt;UpdatedDarwinCoreFile_outflow</title>
<path fill="none" stroke="black" d="M278.334,-78.8492C297.697,-66.6999 322.908,-50.8812 338.519,-41.0862"/>
<polygon fill="black" stroke="black" points="340.623,-43.8982 347.233,-35.6185 336.902,-37.9687 340.623,-43.8982"/>
</g>
<!-- InputFilePath -->
<g id="node22" class="node"><title>InputFilePath</title>
<path fill="#ffffff" stroke="black" d="M127,-1153C127,-1153 81,-1153 81,-1153 75,-1153 69,-1147 69,-1141 69,-1141 69,-1129 69,-1129 69,-1123 75,-1117 81,-1117 81,-1117 127,-1117 127,-1117 133,-1117 139,-1123 139,-1129 139,-1129 139,-1141 139,-1141 139,-1147 133,-1153 127,-1153"/>
<text text-anchor="middle" x="104" y="-1132.8" font-family="Helvetica,sans-Serif" font-size="9.00">InputFilePath</text>
</g>
<!-- InputFilePath&#45;&gt;Setup -->
<g id="edge1" class="edge"><title>InputFilePath&#45;&gt;Setup</title>
<path fill="none" stroke="black" d="M104.726,-1116.81C105.065,-1108.79 105.477,-1099.05 105.856,-1090.07"/>
<polygon fill="black" stroke="black" points="109.355,-1090.17 106.28,-1080.03 102.361,-1089.87 109.355,-1090.17"/>
</g>
<!-- DarwinCoreFile_inflow -->
<g id="node23" class="node"><title>DarwinCoreFile_inflow</title>
<ellipse fill="none" stroke="black" cx="240" cy="-1201" rx="7" ry="7"/>
</g>
<!-- DarwinCoreFile_inflow&#45;&gt;DarwinCoreFile -->
<g id="edge28" class="edge"><title>DarwinCoreFile_inflow&#45;&gt;DarwinCoreFile</title>
<path fill="none" stroke="black" d="M245.591,-1196.56C257.189,-1189.42 284.699,-1172.49 307.692,-1158.34"/>
<polygon fill="black" stroke="black" points="309.559,-1161.3 316.241,-1153.08 305.89,-1155.34 309.559,-1161.3"/>
</g>
<!-- InputFilePath_inflow -->
<g id="node24" class="node"><title>InputFilePath_inflow</title>
<ellipse fill="none" stroke="black" cx="208" cy="-1201" rx="7" ry="7"/>
</g>
<!-- InputFilePath_inflow&#45;&gt;InputFilePath -->
<g id="edge29" class="edge"><title>InputFilePath_inflow&#45;&gt;InputFilePath</title>
<path fill="none" stroke="black" d="M201.829,-1197.39C190.713,-1192.59 166.739,-1181.77 148,-1170 142.867,-1166.78 137.606,-1163.09 132.588,-1159.36"/>
<polygon fill="black" stroke="black" points="134.504,-1156.42 124.437,-1153.12 130.248,-1161.98 134.504,-1156.42"/>
</g>
</g>
</svg>
