<?xml version="1.0" encoding="UTF-8" standalone="no"?>
<!DOCTYPE svg PUBLIC "-//W3C//DTD SVG 1.1//EN"
 "http://www.w3.org/Graphics/SVG/1.1/DTD/svg11.dtd">
<!-- Generated by graphviz version 2.36.0 (20140111.2315)
 -->
<!-- Title: yw_data_view Pages: 1 -->
<svg width="518pt" height="1302pt"
 viewBox="0.00 0.00 518.00 1302.00" xmlns="http://www.w3.org/2000/svg" xmlns:xlink="http://www.w3.org/1999/xlink">
<g id="graph0" class="graph" transform="scale(1 1) rotate(0) translate(4 1298)">
<title>yw_data_view</title>
<polygon fill="white" stroke="none" points="-4,4 -4,-1298 514,-1298 514,4 -4,4"/>
<text text-anchor="middle" x="255" y="-1275.6" font-family="Courier,monospace" font-size="18.00">FileBranchingTaxonLookupWorkflow</text>
<g id="clust1" class="cluster"><title>cluster_workflow</title>
<polygon fill="none" stroke="black" stroke-width="2" points="8,-62 8,-1204 502,-1204 502,-62 8,-62"/>
</g>
<g id="clust2" class="cluster"><title>cluster_workflow_inner</title>
<polygon fill="none" stroke="white" stroke-width="2" points="16,-70 16,-1196 494,-1196 494,-70 16,-70"/>
</g>
<g id="clust3" class="cluster"><title>cluster_inflows</title>
<polygon fill="none" stroke="white" stroke-width="2" points="140,-1212 140,-1258 218,-1258 218,-1212 140,-1212"/>
</g>
<g id="clust4" class="cluster"><title>cluster_inflows_inner</title>
<polygon fill="none" stroke="white" stroke-width="2" points="148,-1220 148,-1250 210,-1250 210,-1220 148,-1220"/>
</g>
<g id="clust5" class="cluster"><title>cluster_outflows</title>
<polygon fill="none" stroke="white" stroke-width="2" points="288,-8 288,-54 366,-54 366,-8 288,-8"/>
</g>
<g id="clust6" class="cluster"><title>cluster_outflows_inner</title>
<polygon fill="none" stroke="white" stroke-width="2" points="296,-16 296,-46 358,-46 358,-16 296,-16"/>
</g>
<!-- Setup -->
<g id="node1" class="node"><title>Setup</title>
<polygon fill="#ccffcc" stroke="black" points="115.25,-1114 56.75,-1114 56.75,-1078 115.25,-1078 115.25,-1114"/>
<text text-anchor="middle" x="86" y="-1092.3" font-family="Courier,monospace" font-size="14.00">Setup</text>
</g>
<!-- Workspace -->
<g id="node17" class="node"><title>Workspace</title>
<path fill="#ffffcc" stroke="black" d="M82,-970C82,-970 44,-970 44,-970 38,-970 32,-964 32,-958 32,-958 32,-946 32,-946 32,-940 38,-934 44,-934 44,-934 82,-934 82,-934 88,-934 94,-940 94,-946 94,-946 94,-958 94,-958 94,-964 88,-970 82,-970"/>
<text text-anchor="middle" x="63" y="-949.8" font-family="Helvetica,sans-Serif" font-size="9.00">Workspace</text>
</g>
<!-- Setup&#45;&gt;Workspace -->
<g id="edge13" class="edge"><title>Setup&#45;&gt;Workspace</title>
<path fill="none" stroke="black" d="M83.2257,-1077.87C79.3057,-1053.67 72.1046,-1009.21 67.4369,-980.393"/>
<polygon fill="black" stroke="black" points="70.8381,-979.501 65.7842,-970.189 63.9282,-980.62 70.8381,-979.501"/>
</g>
<!-- OccurrenceFile -->
<g id="node18" class="node"><title>OccurrenceFile</title>
<path fill="#ffffcc" stroke="black" d="M196,-1042C196,-1042 142,-1042 142,-1042 136,-1042 130,-1036 130,-1030 130,-1030 130,-1018 130,-1018 130,-1012 136,-1006 142,-1006 142,-1006 196,-1006 196,-1006 202,-1006 208,-1012 208,-1018 208,-1018 208,-1030 208,-1030 208,-1036 202,-1042 196,-1042"/>
<text text-anchor="middle" x="169" y="-1021.8" font-family="Helvetica,sans-Serif" font-size="9.00">OccurrenceFile</text>
</g>
<!-- Setup&#45;&gt;OccurrenceFile -->
<g id="edge14" class="edge"><title>Setup&#45;&gt;OccurrenceFile</title>
<path fill="none" stroke="black" d="M106.517,-1077.7C116.869,-1068.97 129.586,-1058.24 140.839,-1048.75"/>
<polygon fill="black" stroke="black" points="143.331,-1051.23 148.719,-1042.1 138.818,-1045.88 143.331,-1051.23"/>
</g>
<!-- FileToDataStream -->
<g id="node2" class="node"><title>FileToDataStream</title>
<polygon fill="#ccffcc" stroke="black" points="342.25,-970 191.75,-970 191.75,-934 342.25,-934 342.25,-970"/>
<text text-anchor="middle" x="267" y="-948.3" font-family="Courier,monospace" font-size="14.00">FileToDataStream</text>
</g>
<!-- DataRecord -->
<g id="node10" class="node"><title>DataRecord</title>
<path fill="#3ab4df" stroke="black" d="M250.5,-851C250.5,-851 317.5,-851 317.5,-851 323.5,-851 329.5,-857 329.5,-863 329.5,-863 329.5,-885 329.5,-885 329.5,-891 323.5,-897 317.5,-897 317.5,-897 250.5,-897 250.5,-897 244.5,-897 238.5,-891 238.5,-885 238.5,-885 238.5,-863 238.5,-863 238.5,-857 244.5,-851 250.5,-851"/>
<text text-anchor="middle" x="284" y="-881.8" font-family="Helvetica,sans-Serif" font-size="14.00">DataRecord</text>
<polyline fill="none" stroke="black" points="238.5,-874 329.5,-874 "/>
<text text-anchor="middle" x="284" y="-858.8" font-family="Helvetica,sans-Serif" font-size="14.00">Count: 192</text>
</g>
<!-- FileToDataStream&#45;&gt;DataRecord -->
<g id="edge15" class="edge"><title>FileToDataStream&#45;&gt;DataRecord</title>
<path fill="none" stroke="black" d="M270.858,-933.754C272.623,-925.863 274.773,-916.249 276.819,-907.102"/>
<polygon fill="black" stroke="black" points="280.291,-907.614 279.059,-897.091 273.46,-906.086 280.291,-907.614"/>
</g>
<!-- EnvironmentTagger -->
<g id="node3" class="node"><title>EnvironmentTagger</title>
<polygon fill="#ccffcc" stroke="black" points="398.25,-814 239.75,-814 239.75,-778 398.25,-778 398.25,-814"/>
<text text-anchor="middle" x="319" y="-792.3" font-family="Courier,monospace" font-size="14.00">EnvironmentTagger</text>
</g>
<!-- TaggedDataRecord -->
<g id="node11" class="node"><title>TaggedDataRecord</title>
<path fill="#3ab4df" stroke="black" d="M261.5,-695C261.5,-695 376.5,-695 376.5,-695 382.5,-695 388.5,-701 388.5,-707 388.5,-707 388.5,-729 388.5,-729 388.5,-735 382.5,-741 376.5,-741 376.5,-741 261.5,-741 261.5,-741 255.5,-741 249.5,-735 249.5,-729 249.5,-729 249.5,-707 249.5,-707 249.5,-701 255.5,-695 261.5,-695"/>
<text text-anchor="middle" x="319" y="-725.8" font-family="Helvetica,sans-Serif" font-size="14.00">TaggedDataRecord</text>
<polyline fill="none" stroke="black" points="249.5,-718 388.5,-718 "/>
<text text-anchor="middle" x="319" y="-702.8" font-family="Helvetica,sans-Serif" font-size="14.00">Count: 192</text>
</g>
<!-- EnvironmentTagger&#45;&gt;TaggedDataRecord -->
<g id="edge17" class="edge"><title>EnvironmentTagger&#45;&gt;TaggedDataRecord</title>
<path fill="none" stroke="black" d="M319,-777.754C319,-769.863 319,-760.249 319,-751.102"/>
<polygon fill="black" stroke="black" points="322.5,-751.091 319,-741.091 315.5,-751.091 322.5,-751.091"/>
</g>
<!-- LogFile -->
<g id="node20" class="node"><title>LogFile</title>
<path fill="#ffe4b5" stroke="black" d="M416.5,-381C416.5,-381 463.5,-381 463.5,-381 469.5,-381 475.5,-387 475.5,-393 475.5,-393 475.5,-405 475.5,-405 475.5,-411 469.5,-417 463.5,-417 463.5,-417 416.5,-417 416.5,-417 410.5,-417 404.5,-411 404.5,-405 404.5,-405 404.5,-393 404.5,-393 404.5,-387 410.5,-381 416.5,-381"/>
<text text-anchor="middle" x="440" y="-405.8" font-family="Courier,monospace" font-weight="bold" font-size="9.00">LogFile</text>
<polyline fill="none" stroke="black" points="404.5,-399 475.5,-399 "/>
<text text-anchor="middle" x="440" y="-387.8" font-family="Courier,monospace" font-weight="bold" font-size="9.00">runlog.log</text>
</g>
<!-- EnvironmentTagger&#45;&gt;LogFile -->
<g id="edge16" class="edge"><title>EnvironmentTagger&#45;&gt;LogFile</title>
<path fill="none" stroke="black" d="M350.431,-777.943C390.878,-753.431 456,-704.16 456,-641 456,-641 456,-641 456,-561 456,-518.719 455.594,-508.03 451,-466 449.599,-453.18 447.344,-439.068 445.24,-427.194"/>
<polygon fill="black" stroke="black" points="448.621,-426.227 443.379,-417.021 441.736,-427.487 448.621,-426.227"/>
</g>
<!-- FilterToJustMarine -->
<g id="node4" class="node"><title>FilterToJustMarine</title>
<polygon fill="#ccffcc" stroke="black" points="225,-658 57,-658 57,-622 225,-622 225,-658"/>
<text text-anchor="middle" x="141" y="-636.3" font-family="Courier,monospace" font-size="14.00">FilterToJustMarine</text>
</g>
<!-- MarineDataRecord -->
<g id="node12" class="node"><title>MarineDataRecord</title>
<path fill="#3ab4df" stroke="black" d="M86,-539C86,-539 196,-539 196,-539 202,-539 208,-545 208,-551 208,-551 208,-573 208,-573 208,-579 202,-585 196,-585 196,-585 86,-585 86,-585 80,-585 74,-579 74,-573 74,-573 74,-551 74,-551 74,-545 80,-539 86,-539"/>
<text text-anchor="middle" x="141" y="-569.8" font-family="Helvetica,sans-Serif" font-size="14.00">MarineDataRecord</text>
<polyline fill="none" stroke="black" points="74,-562 208,-562 "/>
<text text-anchor="middle" x="141" y="-546.8" font-family="Helvetica,sans-Serif" font-size="14.00">Count: 98</text>
</g>
<!-- FilterToJustMarine&#45;&gt;MarineDataRecord -->
<g id="edge19" class="edge"><title>FilterToJustMarine&#45;&gt;MarineDataRecord</title>
<path fill="none" stroke="black" d="M141,-621.754C141,-613.863 141,-604.249 141,-595.102"/>
<polygon fill="black" stroke="black" points="144.5,-595.091 141,-585.091 137.5,-595.091 144.5,-595.091"/>
</g>
<!-- FilterToJustMarine&#45;&gt;LogFile -->
<g id="edge18" class="edge"><title>FilterToJustMarine&#45;&gt;LogFile</title>
<path fill="none" stroke="black" d="M172.5,-621.812C187.318,-612.61 204.446,-600.237 217,-586 256.839,-540.819 233.749,-504.591 280,-466 321.122,-431.688 346.675,-453.087 395,-430 399.427,-427.885 403.921,-425.384 408.271,-422.742"/>
<polygon fill="black" stroke="black" points="410.393,-425.539 416.929,-417.2 406.62,-419.643 410.393,-425.539"/>
</g>
<!-- FilterExcludingMarine -->
<g id="node5" class="node"><title>FilterExcludingMarine</title>
<polygon fill="#ccffcc" stroke="black" points="436.25,-658 243.75,-658 243.75,-622 436.25,-622 436.25,-658"/>
<text text-anchor="middle" x="340" y="-636.3" font-family="Courier,monospace" font-size="14.00">FilterExcludingMarine</text>
</g>
<!-- notMarineDataRecord -->
<g id="node13" class="node"><title>notMarineDataRecord</title>
<path fill="#3ab4df" stroke="black" d="M275.5,-539C275.5,-539 404.5,-539 404.5,-539 410.5,-539 416.5,-545 416.5,-551 416.5,-551 416.5,-573 416.5,-573 416.5,-579 410.5,-585 404.5,-585 404.5,-585 275.5,-585 275.5,-585 269.5,-585 263.5,-579 263.5,-573 263.5,-573 263.5,-551 263.5,-551 263.5,-545 269.5,-539 275.5,-539"/>
<text text-anchor="middle" x="340" y="-569.8" font-family="Helvetica,sans-Serif" font-size="14.00">notMarineDataRecord</text>
<polyline fill="none" stroke="black" points="263.5,-562 416.5,-562 "/>
<text text-anchor="middle" x="340" y="-546.8" font-family="Helvetica,sans-Serif" font-size="14.00">Count: 94</text>
</g>
<!-- FilterExcludingMarine&#45;&gt;notMarineDataRecord -->
<g id="edge21" class="edge"><title>FilterExcludingMarine&#45;&gt;notMarineDataRecord</title>
<path fill="none" stroke="black" d="M340,-621.754C340,-613.863 340,-604.249 340,-595.102"/>
<polygon fill="black" stroke="black" points="343.5,-595.091 340,-585.091 336.5,-595.091 343.5,-595.091"/>
</g>
<!-- FilterExcludingMarine&#45;&gt;LogFile -->
<g id="edge20" class="edge"><title>FilterExcludingMarine&#45;&gt;LogFile</title>
<path fill="none" stroke="black" d="M383.476,-621.953C399.193,-613.539 415.414,-601.746 425,-586 455.105,-536.551 450.49,-465.506 444.958,-427.109"/>
<polygon fill="black" stroke="black" points="448.409,-426.527 443.401,-417.19 441.494,-427.612 448.409,-426.527"/>
</g>
<!-- WoRMSLookup -->
<g id="node6" class="node"><title>WoRMSLookup</title>
<polygon fill="#ccffcc" stroke="black" points="195.25,-502 86.75,-502 86.75,-466 195.25,-466 195.25,-502"/>
<text text-anchor="middle" x="141" y="-480.3" font-family="Courier,monospace" font-size="14.00">WoRMSLookup</text>
</g>
<!-- WoRMSUpdatedRecord -->
<g id="node14" class="node"><title>WoRMSUpdatedRecord</title>
<path fill="#3ab4df" stroke="black" d="M66.5,-368.5C66.5,-368.5 209.5,-368.5 209.5,-368.5 215.5,-368.5 221.5,-374.5 221.5,-380.5 221.5,-380.5 221.5,-417.5 221.5,-417.5 221.5,-423.5 215.5,-429.5 209.5,-429.5 209.5,-429.5 66.5,-429.5 66.5,-429.5 60.5,-429.5 54.5,-423.5 54.5,-417.5 54.5,-417.5 54.5,-380.5 54.5,-380.5 54.5,-374.5 60.5,-368.5 66.5,-368.5"/>
<text text-anchor="middle" x="138" y="-414.3" font-family="Helvetica,sans-Serif" font-size="14.00">WoRMSUpdatedRecord</text>
<polyline fill="none" stroke="black" points="54.5,-406.5 221.5,-406.5 "/>
<text text-anchor="middle" x="138" y="-391.3" font-family="Helvetica,sans-Serif" font-size="14.00">Has Value: 37</text>
<text text-anchor="middle" x="138" y="-376.3" font-family="Helvetica,sans-Serif" font-size="14.00"> Null: 61</text>
</g>
<!-- WoRMSLookup&#45;&gt;WoRMSUpdatedRecord -->
<g id="edge23" class="edge"><title>WoRMSLookup&#45;&gt;WoRMSUpdatedRecord</title>
<path fill="none" stroke="black" d="M140.378,-465.802C140.104,-458.213 139.769,-448.948 139.438,-439.795"/>
<polygon fill="black" stroke="black" points="142.929,-439.469 139.07,-429.602 135.934,-439.722 142.929,-439.469"/>
</g>
<!-- WoRMSLookup&#45;&gt;LogFile -->
<g id="edge22" class="edge"><title>WoRMSLookup&#45;&gt;LogFile</title>
<path fill="none" stroke="black" d="M195.44,-472.784C264.483,-459.65 376.798,-437.628 395,-430 399.855,-427.965 404.741,-425.383 409.413,-422.591"/>
<polygon fill="black" stroke="black" points="411.532,-425.39 418.067,-417.05 407.758,-419.495 411.532,-425.39"/>
</g>
<!-- GBIFLookup -->
<g id="node7" class="node"><title>GBIFLookup</title>
<polygon fill="#ccffcc" stroke="black" points="390.25,-502 289.75,-502 289.75,-466 390.25,-466 390.25,-502"/>
<text text-anchor="middle" x="340" y="-480.3" font-family="Courier,monospace" font-size="14.00">GBIFLookup</text>
</g>
<!-- GBIFUpdatedRecord -->
<g id="node15" class="node"><title>GBIFUpdatedRecord</title>
<path fill="#3ab4df" stroke="black" d="M251.5,-368.5C251.5,-368.5 374.5,-368.5 374.5,-368.5 380.5,-368.5 386.5,-374.5 386.5,-380.5 386.5,-380.5 386.5,-417.5 386.5,-417.5 386.5,-423.5 380.5,-429.5 374.5,-429.5 374.5,-429.5 251.5,-429.5 251.5,-429.5 245.5,-429.5 239.5,-423.5 239.5,-417.5 239.5,-417.5 239.5,-380.5 239.5,-380.5 239.5,-374.5 245.5,-368.5 251.5,-368.5"/>
<text text-anchor="middle" x="313" y="-414.3" font-family="Helvetica,sans-Serif" font-size="14.00">GBIFUpdatedRecord</text>
<polyline fill="none" stroke="black" points="239.5,-406.5 386.5,-406.5 "/>
<text text-anchor="middle" x="313" y="-391.3" font-family="Helvetica,sans-Serif" font-size="14.00">Has Value: 94</text>
<text text-anchor="middle" x="313" y="-376.3" font-family="Helvetica,sans-Serif" font-size="14.00"> Null: 0</text>
</g>
<!-- GBIFLookup&#45;&gt;GBIFUpdatedRecord -->
<g id="edge25" class="edge"><title>GBIFLookup&#45;&gt;GBIFUpdatedRecord</title>
<path fill="none" stroke="black" d="M334.406,-465.802C331.884,-458.049 328.793,-448.549 325.753,-439.204"/>
<polygon fill="black" stroke="black" points="329.052,-438.029 322.63,-429.602 322.395,-440.195 329.052,-438.029"/>
</g>
<!-- GBIFLookup&#45;&gt;LogFile -->
<g id="edge24" class="edge"><title>GBIFLookup&#45;&gt;LogFile</title>
<path fill="none" stroke="black" d="M360.72,-465.802C375.335,-453.672 395.103,-437.264 411.243,-423.868"/>
<polygon fill="black" stroke="black" points="413.847,-426.256 419.306,-417.176 409.376,-420.869 413.847,-426.256"/>
</g>
<!-- StreamMerge -->
<g id="node8" class="node"><title>StreamMerge</title>
<polygon fill="#ccffcc" stroke="black" points="235.25,-332 126.75,-332 126.75,-296 235.25,-296 235.25,-332"/>
<text text-anchor="middle" x="181" y="-310.3" font-family="Courier,monospace" font-size="14.00">StreamMerge</text>
</g>
<!-- MergedStream -->
<g id="node19" class="node"><title>MergedStream</title>
<path fill="#ffffcc" stroke="black" d="M207,-260C207,-260 155,-260 155,-260 149,-260 143,-254 143,-248 143,-248 143,-236 143,-236 143,-230 149,-224 155,-224 155,-224 207,-224 207,-224 213,-224 219,-230 219,-236 219,-236 219,-248 219,-248 219,-254 213,-260 207,-260"/>
<text text-anchor="middle" x="181" y="-239.8" font-family="Helvetica,sans-Serif" font-size="9.00">MergedStream</text>
</g>
<!-- StreamMerge&#45;&gt;MergedStream -->
<g id="edge26" class="edge"><title>StreamMerge&#45;&gt;MergedStream</title>
<path fill="none" stroke="black" d="M181,-295.697C181,-287.983 181,-278.712 181,-270.112"/>
<polygon fill="black" stroke="black" points="184.5,-270.104 181,-260.104 177.5,-270.104 184.5,-270.104"/>
</g>
<!-- CsvFileWriter -->
<g id="node9" class="node"><title>CsvFileWriter</title>
<polygon fill="#ccffcc" stroke="black" points="244,-188 118,-188 118,-152 244,-152 244,-188"/>
<text text-anchor="middle" x="181" y="-166.3" font-family="Courier,monospace" font-size="14.00">CsvFileWriter</text>
</g>
<!-- UpdatedDarwinCoreFile -->
<g id="node21" class="node"><title>UpdatedDarwinCoreFile</title>
<path fill="#ffe4b5" stroke="black" d="M41,-79C41,-79 395,-79 395,-79 401,-79 407,-85 407,-91 407,-91 407,-103 407,-103 407,-109 401,-115 395,-115 395,-115 41,-115 41,-115 35,-115 29,-109 29,-103 29,-103 29,-91 29,-91 29,-85 35,-79 41,-79"/>
<text text-anchor="middle" x="218" y="-103.8" font-family="Courier,monospace" font-weight="bold" font-size="9.00">UpdatedDarwinCoreFile</text>
<polyline fill="none" stroke="black" points="29,-97 407,-97 "/>
<text text-anchor="middle" x="218" y="-85.8" font-family="Courier,monospace" font-weight="bold" font-size="9.00">workspace_18338630&#45;a81c&#45;11e7&#45;8146&#45;acbc3296f741/mergedoutputfile.csv</text>
</g>
<!-- CsvFileWriter&#45;&gt;UpdatedDarwinCoreFile -->
<g id="edge27" class="edge"><title>CsvFileWriter&#45;&gt;UpdatedDarwinCoreFile</title>
<path fill="none" stroke="black" d="M189.957,-151.813C194.32,-143.441 199.658,-133.197 204.501,-123.903"/>
<polygon fill="black" stroke="black" points="207.608,-125.514 209.126,-115.029 201.401,-122.279 207.608,-125.514"/>
</g>
<!-- DataRecord&#45;&gt;EnvironmentTagger -->
<g id="edge5" class="edge"><title>DataRecord&#45;&gt;EnvironmentTagger</title>
<path fill="none" stroke="black" d="M294.312,-850.609C298.221,-842.12 302.71,-832.373 306.778,-823.538"/>
<polygon fill="black" stroke="black" points="309.977,-824.959 310.981,-814.412 303.619,-822.031 309.977,-824.959"/>
</g>
<!-- TaggedDataRecord&#45;&gt;FilterToJustMarine -->
<g id="edge6" class="edge"><title>TaggedDataRecord&#45;&gt;FilterToJustMarine</title>
<path fill="none" stroke="black" d="M267.037,-694.813C242.758,-684.447 214.005,-672.171 190.096,-661.962"/>
<polygon fill="black" stroke="black" points="191.424,-658.724 180.853,-658.016 188.676,-665.162 191.424,-658.724"/>
</g>
<!-- TaggedDataRecord&#45;&gt;FilterExcludingMarine -->
<g id="edge7" class="edge"><title>TaggedDataRecord&#45;&gt;FilterExcludingMarine</title>
<path fill="none" stroke="black" d="M325.187,-694.609C327.483,-686.3 330.111,-676.787 332.511,-668.103"/>
<polygon fill="black" stroke="black" points="335.899,-668.983 335.189,-658.412 329.152,-667.119 335.899,-668.983"/>
</g>
<!-- MarineDataRecord&#45;&gt;WoRMSLookup -->
<g id="edge8" class="edge"><title>MarineDataRecord&#45;&gt;WoRMSLookup</title>
<path fill="none" stroke="black" d="M141,-538.609C141,-530.481 141,-521.2 141,-512.671"/>
<polygon fill="black" stroke="black" points="144.5,-512.412 141,-502.412 137.5,-512.412 144.5,-512.412"/>
</g>
<!-- notMarineDataRecord&#45;&gt;GBIFLookup -->
<g id="edge9" class="edge"><title>notMarineDataRecord&#45;&gt;GBIFLookup</title>
<path fill="none" stroke="black" d="M340,-538.609C340,-530.481 340,-521.2 340,-512.671"/>
<polygon fill="black" stroke="black" points="343.5,-512.412 340,-502.412 336.5,-512.412 343.5,-512.412"/>
</g>
<!-- WoRMSUpdatedRecord&#45;&gt;StreamMerge -->
<g id="edge10" class="edge"><title>WoRMSUpdatedRecord&#45;&gt;StreamMerge</title>
<path fill="none" stroke="black" d="M153.524,-368.035C158.068,-359.263 163,-349.745 167.414,-341.225"/>
<polygon fill="black" stroke="black" points="170.637,-342.611 172.129,-332.122 164.422,-339.391 170.637,-342.611"/>
</g>
<!-- GBIFUpdatedRecord&#45;&gt;StreamMerge -->
<g id="edge11" class="edge"><title>GBIFUpdatedRecord&#45;&gt;StreamMerge</title>
<path fill="none" stroke="black" d="M265.718,-368.27C249.639,-358.16 231.945,-347.034 216.905,-337.577"/>
<polygon fill="black" stroke="black" points="218.717,-334.581 208.388,-332.221 214.991,-340.507 218.717,-334.581"/>
</g>
<!-- DarwinCoreFile -->
<g id="node16" class="node"><title>DarwinCoreFile</title>
<path fill="#ffe4b5" stroke="black" d="M124.5,-1151C124.5,-1151 473.5,-1151 473.5,-1151 479.5,-1151 485.5,-1157 485.5,-1163 485.5,-1163 485.5,-1175 485.5,-1175 485.5,-1181 479.5,-1187 473.5,-1187 473.5,-1187 124.5,-1187 124.5,-1187 118.5,-1187 112.5,-1181 112.5,-1175 112.5,-1175 112.5,-1163 112.5,-1163 112.5,-1157 118.5,-1151 124.5,-1151"/>
<text text-anchor="middle" x="299" y="-1175.8" font-family="Courier,monospace" font-weight="bold" font-size="9.00">DarwinCoreFile</text>
<polyline fill="none" stroke="black" points="112.5,-1169 485.5,-1169 "/>
<text text-anchor="middle" x="299" y="-1157.8" font-family="Courier,monospace" font-weight="bold" font-size="9.00">packages/kurator_branching_generic/data/kurator_sample_data_v2.txt</text>
</g>
<!-- DarwinCoreFile&#45;&gt;Setup -->
<g id="edge2" class="edge"><title>DarwinCoreFile&#45;&gt;Setup</title>
<path fill="none" stroke="black" d="M247.981,-1150.99C210.231,-1138.41 159.579,-1121.53 125.03,-1110.01"/>
<polygon fill="black" stroke="black" points="125.892,-1106.61 115.298,-1106.77 123.678,-1113.25 125.892,-1106.61"/>
</g>
<!-- Workspace&#45;&gt;CsvFileWriter -->
<g id="edge3" class="edge"><title>Workspace&#45;&gt;CsvFileWriter</title>
<path fill="none" stroke="black" d="M57.7334,-933.635C49.6225,-905.309 35,-847.273 35,-797 35,-797 35,-797 35,-313 35,-257.047 90.7864,-216.01 133.391,-192.828"/>
<polygon fill="black" stroke="black" points="135.044,-195.913 142.258,-188.153 131.78,-189.721 135.044,-195.913"/>
</g>
<!-- OccurrenceFile&#45;&gt;FileToDataStream -->
<g id="edge4" class="edge"><title>OccurrenceFile&#45;&gt;FileToDataStream</title>
<path fill="none" stroke="black" d="M192.973,-1005.88C205.55,-996.893 221.132,-985.763 234.752,-976.034"/>
<polygon fill="black" stroke="black" points="236.831,-978.85 242.934,-970.19 232.763,-973.154 236.831,-978.85"/>
</g>
<!-- MergedStream&#45;&gt;CsvFileWriter -->
<g id="edge12" class="edge"><title>MergedStream&#45;&gt;CsvFileWriter</title>
<path fill="none" stroke="black" d="M181,-223.697C181,-215.983 181,-206.712 181,-198.112"/>
<polygon fill="black" stroke="black" points="184.5,-198.104 181,-188.104 177.5,-198.104 184.5,-198.104"/>
</g>
<!-- LogFile_outflow -->
<g id="node25" class="node"><title>LogFile_outflow</title>
<ellipse fill="none" stroke="black" cx="343" cy="-31" rx="7" ry="7"/>
</g>
<!-- LogFile&#45;&gt;LogFile_outflow -->
<g id="edge30" class="edge"><title>LogFile&#45;&gt;LogFile_outflow</title>
<path fill="none" stroke="black" d="M439.45,-380.8C438.584,-352.201 437,-293.061 437,-243 437,-243 437,-243 437,-169 437,-120.537 446.749,-99.4587 416,-62 402.014,-44.962 376.778,-37.4907 359.954,-34.2908"/>
<polygon fill="black" stroke="black" points="360.318,-30.8048 349.893,-32.6928 359.22,-37.7181 360.318,-30.8048"/>
</g>
<!-- UpdatedDarwinCoreFile_outflow -->
<g id="node26" class="node"><title>UpdatedDarwinCoreFile_outflow</title>
<ellipse fill="none" stroke="black" cx="311" cy="-31" rx="7" ry="7"/>
</g>
<!-- UpdatedDarwinCoreFile&#45;&gt;UpdatedDarwinCoreFile_outflow -->
<g id="edge31" class="edge"><title>UpdatedDarwinCoreFile&#45;&gt;UpdatedDarwinCoreFile_outflow</title>
<path fill="none" stroke="black" d="M242.922,-78.8492C260.234,-66.9359 282.672,-51.4945 296.957,-41.6639"/>
<polygon fill="black" stroke="black" points="299.127,-44.4191 305.381,-35.8668 295.159,-38.6526 299.127,-44.4191"/>
</g>
<!-- InputFilePath -->
<g id="node22" class="node"><title>InputFilePath</title>
<path fill="#ffffff" stroke="black" d="M82,-1187C82,-1187 36,-1187 36,-1187 30,-1187 24,-1181 24,-1175 24,-1175 24,-1163 24,-1163 24,-1157 30,-1151 36,-1151 36,-1151 82,-1151 82,-1151 88,-1151 94,-1157 94,-1163 94,-1163 94,-1175 94,-1175 94,-1181 88,-1187 82,-1187"/>
<text text-anchor="middle" x="59" y="-1166.8" font-family="Helvetica,sans-Serif" font-size="9.00">InputFilePath</text>
</g>
<!-- InputFilePath&#45;&gt;Setup -->
<g id="edge1" class="edge"><title>InputFilePath&#45;&gt;Setup</title>
<path fill="none" stroke="black" d="M65.5359,-1150.81C68.6534,-1142.62 72.4532,-1132.62 75.9284,-1123.48"/>
<polygon fill="black" stroke="black" points="79.2411,-1124.62 79.5242,-1114.03 72.6983,-1122.13 79.2411,-1124.62"/>
</g>
<!-- DarwinCoreFile_inflow -->
<g id="node23" class="node"><title>DarwinCoreFile_inflow</title>
<ellipse fill="none" stroke="black" cx="195" cy="-1235" rx="7" ry="7"/>
</g>
<!-- DarwinCoreFile_inflow&#45;&gt;DarwinCoreFile -->
<g id="edge28" class="edge"><title>DarwinCoreFile_inflow&#45;&gt;DarwinCoreFile</title>
<path fill="none" stroke="black" d="M200.591,-1230.56C212.189,-1223.42 239.699,-1206.49 262.692,-1192.34"/>
<polygon fill="black" stroke="black" points="264.559,-1195.3 271.241,-1187.08 260.89,-1189.34 264.559,-1195.3"/>
</g>
<!-- InputFilePath_inflow -->
<g id="node24" class="node"><title>InputFilePath_inflow</title>
<ellipse fill="none" stroke="black" cx="163" cy="-1235" rx="7" ry="7"/>
</g>
<!-- InputFilePath_inflow&#45;&gt;InputFilePath -->
<g id="edge29" class="edge"><title>InputFilePath_inflow&#45;&gt;InputFilePath</title>
<path fill="none" stroke="black" d="M156.829,-1231.39C145.713,-1226.59 121.739,-1215.77 103,-1204 97.8675,-1200.78 92.6061,-1197.09 87.5877,-1193.36"/>
<polygon fill="black" stroke="black" points="89.5044,-1190.42 79.4372,-1187.12 85.248,-1195.98 89.5044,-1190.42"/>
</g>
</g>
</svg>
