<?xml version="1.0" encoding="UTF-8" standalone="no"?>
<!DOCTYPE svg PUBLIC "-//W3C//DTD SVG 1.1//EN"
 "http://www.w3.org/Graphics/SVG/1.1/DTD/svg11.dtd">
<!-- Generated by graphviz version 2.36.0 (20140111.2315)
 -->
<!-- Title: yw_data_view Pages: 1 -->
<svg width="518pt" height="1268pt"
 viewBox="0.00 0.00 518.00 1268.00" xmlns="http://www.w3.org/2000/svg" xmlns:xlink="http://www.w3.org/1999/xlink">
<g id="graph0" class="graph" transform="scale(1 1) rotate(0) translate(4 1264)">
<title>yw_data_view</title>
<polygon fill="white" stroke="none" points="-4,4 -4,-1264 514,-1264 514,4 -4,4"/>
<text text-anchor="middle" x="255" y="-1241.6" font-family="Courier,monospace" font-size="18.00">FileBranchingTaxonLookupWorkflow</text>
<g id="clust1" class="cluster"><title>cluster_workflow</title>
<polygon fill="none" stroke="black" stroke-width="2" points="8,-62 8,-1170 502,-1170 502,-62 8,-62"/>
</g>
<g id="clust2" class="cluster"><title>cluster_workflow_inner</title>
<polygon fill="none" stroke="white" stroke-width="2" points="16,-70 16,-1162 494,-1162 494,-70 16,-70"/>
</g>
<g id="clust5" class="cluster"><title>cluster_outflows</title>
<polygon fill="none" stroke="white" stroke-width="2" points="282,-8 282,-54 360,-54 360,-8 282,-8"/>
</g>
<g id="clust6" class="cluster"><title>cluster_outflows_inner</title>
<polygon fill="none" stroke="white" stroke-width="2" points="290,-16 290,-46 352,-46 352,-16 290,-16"/>
</g>
<g id="clust3" class="cluster"><title>cluster_inflows</title>
<polygon fill="none" stroke="white" stroke-width="2" points="140,-1178 140,-1224 218,-1224 218,-1178 140,-1178"/>
</g>
<g id="clust4" class="cluster"><title>cluster_inflows_inner</title>
<polygon fill="none" stroke="white" stroke-width="2" points="148,-1186 148,-1216 210,-1216 210,-1186 148,-1186"/>
</g>
<!-- FilterExcludingMarine -->
<g id="node1" class="node"><title>FilterExcludingMarine</title>
<polygon fill="#d6d6d7" stroke="black" points="273.25,-644 80.75,-644 80.75,-608 273.25,-608 273.25,-644"/>
<text text-anchor="middle" x="177" y="-622.3" font-family="Courier,monospace" font-size="14.00">FilterExcludingMarine</text>
</g>
<!-- notMarineDataRecord -->
<g id="node10" class="node"><title>notMarineDataRecord</title>
<path fill="#d6d6d7" stroke="black" d="M86.5,-524.5C86.5,-524.5 215.5,-524.5 215.5,-524.5 221.5,-524.5 227.5,-530.5 227.5,-536.5 227.5,-536.5 227.5,-559.5 227.5,-559.5 227.5,-565.5 221.5,-571.5 215.5,-571.5 215.5,-571.5 86.5,-571.5 86.5,-571.5 80.5,-571.5 74.5,-565.5 74.5,-559.5 74.5,-559.5 74.5,-536.5 74.5,-536.5 74.5,-530.5 80.5,-524.5 86.5,-524.5"/>
<text text-anchor="middle" x="151" y="-556.3" font-family="Helvetica,sans-Serif" font-size="14.00">notMarineDataRecord</text>
<polyline fill="none" stroke="black" points="74.5,-548.5 227.5,-548.5 "/>
</g>
<!-- FilterExcludingMarine&#45;&gt;notMarineDataRecord -->
<g id="edge21" class="edge"><title>FilterExcludingMarine&#45;&gt;notMarineDataRecord</title>
<path fill="none" stroke="black" d="M171.1,-607.754C168.416,-599.907 165.148,-590.356 162.035,-581.255"/>
<polygon fill="black" stroke="black" points="165.3,-579.986 158.751,-571.658 158.677,-582.252 165.3,-579.986"/>
</g>
<!-- LogFile -->
<g id="node20" class="node"><title>LogFile</title>
<path fill="#ffe4b5" stroke="black" d="M406.5,-374C406.5,-374 453.5,-374 453.5,-374 459.5,-374 465.5,-380 465.5,-386 465.5,-386 465.5,-398 465.5,-398 465.5,-404 459.5,-410 453.5,-410 453.5,-410 406.5,-410 406.5,-410 400.5,-410 394.5,-404 394.5,-398 394.5,-398 394.5,-386 394.5,-386 394.5,-380 400.5,-374 406.5,-374"/>
<text text-anchor="middle" x="430" y="-398.8" font-family="Courier,monospace" font-weight="bold" font-size="9.00">LogFile</text>
<polyline fill="none" stroke="black" points="394.5,-392 465.5,-392 "/>
<text text-anchor="middle" x="430" y="-380.8" font-family="Courier,monospace" font-weight="bold" font-size="9.00">runlog.log</text>
</g>
<!-- FilterExcludingMarine&#45;&gt;LogFile -->
<g id="edge20" class="edge"><title>FilterExcludingMarine&#45;&gt;LogFile</title>
<path fill="none" stroke="black" d="M200.487,-607.83C212.302,-598.291 226.162,-585.616 236,-572 249.637,-553.125 247.241,-545.142 257,-524 271.911,-491.695 265.817,-476.092 292,-452 324.616,-421.989 344.547,-434.11 385,-416 386.001,-415.552 387.012,-415.093 388.028,-414.625"/>
<polygon fill="black" stroke="black" points="389.734,-417.689 397.257,-410.229 386.724,-411.369 389.734,-417.689"/>
</g>
<!-- GBIFLookup -->
<g id="node2" class="node"><title>GBIFLookup</title>
<polygon fill="#d6d6d7" stroke="black" points="220.25,-488 119.75,-488 119.75,-452 220.25,-452 220.25,-488"/>
<text text-anchor="middle" x="170" y="-466.3" font-family="Courier,monospace" font-size="14.00">GBIFLookup</text>
</g>
<!-- GBIFUpdatedRecord -->
<g id="node11" class="node"><title>GBIFUpdatedRecord</title>
<path fill="#d6d6d7" stroke="black" d="M108.5,-368.5C108.5,-368.5 231.5,-368.5 231.5,-368.5 237.5,-368.5 243.5,-374.5 243.5,-380.5 243.5,-380.5 243.5,-403.5 243.5,-403.5 243.5,-409.5 237.5,-415.5 231.5,-415.5 231.5,-415.5 108.5,-415.5 108.5,-415.5 102.5,-415.5 96.5,-409.5 96.5,-403.5 96.5,-403.5 96.5,-380.5 96.5,-380.5 96.5,-374.5 102.5,-368.5 108.5,-368.5"/>
<text text-anchor="middle" x="170" y="-400.3" font-family="Helvetica,sans-Serif" font-size="14.00">GBIFUpdatedRecord</text>
<polyline fill="none" stroke="black" points="96.5,-392.5 243.5,-392.5 "/>
</g>
<!-- GBIFLookup&#45;&gt;GBIFUpdatedRecord -->
<g id="edge25" class="edge"><title>GBIFLookup&#45;&gt;GBIFUpdatedRecord</title>
<path fill="none" stroke="black" d="M170,-451.754C170,-444.074 170,-434.761 170,-425.836"/>
<polygon fill="black" stroke="black" points="173.5,-425.658 170,-415.658 166.5,-425.658 173.5,-425.658"/>
</g>
<!-- GBIFLookup&#45;&gt;LogFile -->
<g id="edge24" class="edge"><title>GBIFLookup&#45;&gt;LogFile</title>
<path fill="none" stroke="black" d="M220.425,-456.879C281.487,-442.155 377.2,-418.91 385,-416 386.582,-415.41 388.181,-414.778 389.785,-414.115"/>
<polygon fill="black" stroke="black" points="391.235,-417.3 398.947,-410.035 388.388,-410.906 391.235,-417.3"/>
</g>
<!-- Setup -->
<g id="node3" class="node"><title>Setup</title>
<polygon fill="#ccffcc" stroke="black" points="115.25,-1080 56.75,-1080 56.75,-1044 115.25,-1044 115.25,-1080"/>
<text text-anchor="middle" x="86" y="-1058.3" font-family="Courier,monospace" font-size="14.00">Setup</text>
</g>
<!-- Workspace -->
<g id="node17" class="node"><title>Workspace</title>
<path fill="#ffffcc" stroke="black" d="M75,-936C75,-936 37,-936 37,-936 31,-936 25,-930 25,-924 25,-924 25,-912 25,-912 25,-906 31,-900 37,-900 37,-900 75,-900 75,-900 81,-900 87,-906 87,-912 87,-912 87,-924 87,-924 87,-930 81,-936 75,-936"/>
<text text-anchor="middle" x="56" y="-915.8" font-family="Helvetica,sans-Serif" font-size="9.00">Workspace</text>
</g>
<!-- Setup&#45;&gt;Workspace -->
<g id="edge13" class="edge"><title>Setup&#45;&gt;Workspace</title>
<path fill="none" stroke="black" d="M82.3813,-1043.87C77.2458,-1019.56 67.7927,-974.819 61.707,-946.013"/>
<polygon fill="black" stroke="black" points="65.1231,-945.25 59.6315,-936.189 58.2743,-946.697 65.1231,-945.25"/>
</g>
<!-- OccurrenceFile -->
<g id="node18" class="node"><title>OccurrenceFile</title>
<path fill="#ffffcc" stroke="black" d="M189,-1008C189,-1008 135,-1008 135,-1008 129,-1008 123,-1002 123,-996 123,-996 123,-984 123,-984 123,-978 129,-972 135,-972 135,-972 189,-972 189,-972 195,-972 201,-978 201,-984 201,-984 201,-996 201,-996 201,-1002 195,-1008 189,-1008"/>
<text text-anchor="middle" x="162" y="-987.8" font-family="Helvetica,sans-Serif" font-size="9.00">OccurrenceFile</text>
</g>
<!-- Setup&#45;&gt;OccurrenceFile -->
<g id="edge14" class="edge"><title>Setup&#45;&gt;OccurrenceFile</title>
<path fill="none" stroke="black" d="M104.787,-1043.7C114.174,-1035.05 125.684,-1024.45 135.913,-1015.03"/>
<polygon fill="black" stroke="black" points="138.445,-1017.45 143.43,-1008.1 133.703,-1012.3 138.445,-1017.45"/>
</g>
<!-- FileToDataStream -->
<g id="node4" class="node"><title>FileToDataStream</title>
<polygon fill="#ccffcc" stroke="black" points="257.25,-936 106.75,-936 106.75,-900 257.25,-900 257.25,-936"/>
<text text-anchor="middle" x="182" y="-914.3" font-family="Courier,monospace" font-size="14.00">FileToDataStream</text>
</g>
<!-- DataRecord -->
<g id="node12" class="node"><title>DataRecord</title>
<path fill="#f8d2db" stroke="black" d="M145,-827C145,-827 219,-827 219,-827 225,-827 231,-833 231,-839 231,-839 231,-851 231,-851 231,-857 225,-863 219,-863 219,-863 145,-863 145,-863 139,-863 133,-857 133,-851 133,-851 133,-839 133,-839 133,-833 139,-827 145,-827"/>
<text text-anchor="middle" x="182" y="-851.8" font-family="Courier,monospace" font-weight="bold" font-size="9.00">DataRecord</text>
<polyline fill="none" stroke="black" points="133,-845 231,-845 "/>
<text text-anchor="middle" x="182" y="-833.8" font-family="Courier,monospace" font-weight="bold" font-size="9.00">MCZ:Mala:120797</text>
</g>
<!-- FileToDataStream&#45;&gt;DataRecord -->
<g id="edge15" class="edge"><title>FileToDataStream&#45;&gt;DataRecord</title>
<path fill="none" stroke="black" d="M182,-899.813C182,-891.789 182,-882.047 182,-873.069"/>
<polygon fill="black" stroke="black" points="185.5,-873.029 182,-863.029 178.5,-873.029 185.5,-873.029"/>
</g>
<!-- EnvironmentTagger -->
<g id="node5" class="node"><title>EnvironmentTagger</title>
<polygon fill="#ccffcc" stroke="black" points="355.25,-790 196.75,-790 196.75,-754 355.25,-754 355.25,-790"/>
<text text-anchor="middle" x="276" y="-768.3" font-family="Courier,monospace" font-size="14.00">EnvironmentTagger</text>
</g>
<!-- TaggedDataRecord -->
<g id="node13" class="node"><title>TaggedDataRecord</title>
<path fill="#f8d2db" stroke="black" d="M236.5,-681C236.5,-681 315.5,-681 315.5,-681 321.5,-681 327.5,-687 327.5,-693 327.5,-693 327.5,-705 327.5,-705 327.5,-711 321.5,-717 315.5,-717 315.5,-717 236.5,-717 236.5,-717 230.5,-717 224.5,-711 224.5,-705 224.5,-705 224.5,-693 224.5,-693 224.5,-687 230.5,-681 236.5,-681"/>
<text text-anchor="middle" x="276" y="-705.8" font-family="Courier,monospace" font-weight="bold" font-size="9.00">TaggedDataRecord</text>
<polyline fill="none" stroke="black" points="224.5,-699 327.5,-699 "/>
<text text-anchor="middle" x="276" y="-687.8" font-family="Courier,monospace" font-weight="bold" font-size="9.00">Marine</text>
</g>
<!-- EnvironmentTagger&#45;&gt;TaggedDataRecord -->
<g id="edge17" class="edge"><title>EnvironmentTagger&#45;&gt;TaggedDataRecord</title>
<path fill="none" stroke="black" d="M276,-753.813C276,-745.789 276,-736.047 276,-727.069"/>
<polygon fill="black" stroke="black" points="279.5,-727.029 276,-717.029 272.5,-727.029 279.5,-727.029"/>
</g>
<!-- EnvironmentTagger&#45;&gt;LogFile -->
<g id="edge16" class="edge"><title>EnvironmentTagger&#45;&gt;LogFile</title>
<path fill="none" stroke="black" d="M345.885,-753.995C406.642,-734.544 485,-696.069 485,-627 485,-627 485,-627 485,-547 485,-503.759 479.644,-492.313 464,-452 459.579,-440.608 453.186,-428.798 447.133,-418.763"/>
<polygon fill="black" stroke="black" points="449.999,-416.744 441.737,-410.111 444.059,-420.448 449.999,-416.744"/>
</g>
<!-- FilterToJustMarine -->
<g id="node6" class="node"><title>FilterToJustMarine</title>
<polygon fill="#ccffcc" stroke="black" points="460,-644 292,-644 292,-608 460,-608 460,-644"/>
<text text-anchor="middle" x="376" y="-622.3" font-family="Courier,monospace" font-size="14.00">FilterToJustMarine</text>
</g>
<!-- MarineDataRecord -->
<g id="node14" class="node"><title>MarineDataRecord</title>
<path fill="#f8d2db" stroke="black" d="M278.5,-530C278.5,-530 433.5,-530 433.5,-530 439.5,-530 445.5,-536 445.5,-542 445.5,-542 445.5,-554 445.5,-554 445.5,-560 439.5,-566 433.5,-566 433.5,-566 278.5,-566 278.5,-566 272.5,-566 266.5,-560 266.5,-554 266.5,-554 266.5,-542 266.5,-542 266.5,-536 272.5,-530 278.5,-530"/>
<text text-anchor="middle" x="356" y="-554.8" font-family="Courier,monospace" font-weight="bold" font-size="9.00">MarineDataRecord</text>
<polyline fill="none" stroke="black" points="266.5,-548 445.5,-548 "/>
<text text-anchor="middle" x="356" y="-536.8" font-family="Courier,monospace" font-weight="bold" font-size="9.00">Nototeredo knoxi:Bartsch, 1917</text>
</g>
<!-- FilterToJustMarine&#45;&gt;MarineDataRecord -->
<g id="edge19" class="edge"><title>FilterToJustMarine&#45;&gt;MarineDataRecord</title>
<path fill="none" stroke="black" d="M371.462,-607.754C369.007,-598.426 365.919,-586.691 363.149,-576.165"/>
<polygon fill="black" stroke="black" points="366.45,-574.957 360.52,-566.177 359.681,-576.739 366.45,-574.957"/>
</g>
<!-- FilterToJustMarine&#45;&gt;LogFile -->
<g id="edge18" class="edge"><title>FilterToJustMarine&#45;&gt;LogFile</title>
<path fill="none" stroke="black" d="M416.18,-607.771C430.831,-599.28 445.802,-587.482 454,-572 479.952,-522.99 458.587,-456.257 442.9,-419.686"/>
<polygon fill="black" stroke="black" points="445.942,-417.915 438.67,-410.211 439.55,-420.769 445.942,-417.915"/>
</g>
<!-- WoRMSLookup -->
<g id="node7" class="node"><title>WoRMSLookup</title>
<polygon fill="#ccffcc" stroke="black" points="410.25,-488 301.75,-488 301.75,-452 410.25,-452 410.25,-488"/>
<text text-anchor="middle" x="356" y="-466.3" font-family="Courier,monospace" font-size="14.00">WoRMSLookup</text>
</g>
<!-- WoRMSUpdatedRecord -->
<g id="node15" class="node"><title>WoRMSUpdatedRecord</title>
<path fill="#f8d2db" stroke="black" d="M274,-374C274,-374 364,-374 364,-374 370,-374 376,-380 376,-386 376,-386 376,-398 376,-398 376,-404 370,-410 364,-410 364,-410 274,-410 274,-410 268,-410 262,-404 262,-398 262,-398 262,-386 262,-386 262,-380 268,-374 274,-374"/>
<text text-anchor="middle" x="319" y="-398.8" font-family="Courier,monospace" font-weight="bold" font-size="9.00">WoRMSUpdatedRecord</text>
<polyline fill="none" stroke="black" points="262,-392 376,-392 "/>
<text text-anchor="middle" x="319" y="-380.8" font-family="Courier,monospace" font-weight="bold" font-size="9.00">null</text>
</g>
<!-- WoRMSLookup&#45;&gt;WoRMSUpdatedRecord -->
<g id="edge23" class="edge"><title>WoRMSLookup&#45;&gt;WoRMSUpdatedRecord</title>
<path fill="none" stroke="black" d="M347.604,-451.754C342.921,-442.135 336.991,-429.955 331.747,-419.182"/>
<polygon fill="black" stroke="black" points="334.887,-417.636 327.363,-410.177 328.593,-420.7 334.887,-417.636"/>
</g>
<!-- WoRMSLookup&#45;&gt;LogFile -->
<g id="edge22" class="edge"><title>WoRMSLookup&#45;&gt;LogFile</title>
<path fill="none" stroke="black" d="M372.792,-451.754C382.632,-441.649 395.222,-428.718 406.085,-417.561"/>
<polygon fill="black" stroke="black" points="408.806,-419.784 413.275,-410.177 403.791,-414.9 408.806,-419.784"/>
</g>
<!-- StreamMerge -->
<g id="node8" class="node"><title>StreamMerge</title>
<polygon fill="#ccffcc" stroke="black" points="246.25,-332 137.75,-332 137.75,-296 246.25,-296 246.25,-332"/>
<text text-anchor="middle" x="192" y="-310.3" font-family="Courier,monospace" font-size="14.00">StreamMerge</text>
</g>
<!-- MergedStream -->
<g id="node19" class="node"><title>MergedStream</title>
<path fill="#ffffcc" stroke="black" d="M218,-260C218,-260 166,-260 166,-260 160,-260 154,-254 154,-248 154,-248 154,-236 154,-236 154,-230 160,-224 166,-224 166,-224 218,-224 218,-224 224,-224 230,-230 230,-236 230,-236 230,-248 230,-248 230,-254 224,-260 218,-260"/>
<text text-anchor="middle" x="192" y="-239.8" font-family="Helvetica,sans-Serif" font-size="9.00">MergedStream</text>
</g>
<!-- StreamMerge&#45;&gt;MergedStream -->
<g id="edge26" class="edge"><title>StreamMerge&#45;&gt;MergedStream</title>
<path fill="none" stroke="black" d="M192,-295.697C192,-287.983 192,-278.712 192,-270.112"/>
<polygon fill="black" stroke="black" points="195.5,-270.104 192,-260.104 188.5,-270.104 195.5,-270.104"/>
</g>
<!-- CsvFileWriter -->
<g id="node9" class="node"><title>CsvFileWriter</title>
<polygon fill="#ccffcc" stroke="black" points="255,-188 129,-188 129,-152 255,-152 255,-188"/>
<text text-anchor="middle" x="192" y="-166.3" font-family="Courier,monospace" font-size="14.00">CsvFileWriter</text>
</g>
<!-- UpdatedDarwinCoreFile -->
<g id="node21" class="node"><title>UpdatedDarwinCoreFile</title>
<path fill="#ffe4b5" stroke="black" d="M36,-79C36,-79 390,-79 390,-79 396,-79 402,-85 402,-91 402,-91 402,-103 402,-103 402,-109 396,-115 390,-115 390,-115 36,-115 36,-115 30,-115 24,-109 24,-103 24,-103 24,-91 24,-91 24,-85 30,-79 36,-79"/>
<text text-anchor="middle" x="213" y="-103.8" font-family="Courier,monospace" font-weight="bold" font-size="9.00">UpdatedDarwinCoreFile</text>
<polyline fill="none" stroke="black" points="24,-97 402,-97 "/>
<text text-anchor="middle" x="213" y="-85.8" font-family="Courier,monospace" font-weight="bold" font-size="9.00">workspace_18338630&#45;a81c&#45;11e7&#45;8146&#45;acbc3296f741/mergedoutputfile.csv</text>
</g>
<!-- CsvFileWriter&#45;&gt;UpdatedDarwinCoreFile -->
<g id="edge27" class="edge"><title>CsvFileWriter&#45;&gt;UpdatedDarwinCoreFile</title>
<path fill="none" stroke="black" d="M197.084,-151.813C199.482,-143.702 202.401,-133.836 205.08,-124.777"/>
<polygon fill="black" stroke="black" points="208.483,-125.611 207.963,-115.029 201.771,-123.625 208.483,-125.611"/>
</g>
<!-- notMarineDataRecord&#45;&gt;GBIFLookup -->
<g id="edge9" class="edge"><title>notMarineDataRecord&#45;&gt;GBIFLookup</title>
<path fill="none" stroke="black" d="M156.701,-524.197C158.752,-515.991 161.087,-506.653 163.221,-498.115"/>
<polygon fill="black" stroke="black" points="166.663,-498.778 165.693,-488.228 159.872,-497.08 166.663,-498.778"/>
</g>
<!-- GBIFUpdatedRecord&#45;&gt;StreamMerge -->
<g id="edge11" class="edge"><title>GBIFUpdatedRecord&#45;&gt;StreamMerge</title>
<path fill="none" stroke="black" d="M176.601,-368.197C179.002,-359.901 181.739,-350.447 184.232,-341.834"/>
<polygon fill="black" stroke="black" points="187.594,-342.807 187.013,-332.228 180.87,-340.86 187.594,-342.807"/>
</g>
<!-- DataRecord&#45;&gt;EnvironmentTagger -->
<g id="edge5" class="edge"><title>DataRecord&#45;&gt;EnvironmentTagger</title>
<path fill="none" stroke="black" d="M204.755,-826.813C216.878,-817.656 231.966,-806.26 245.131,-796.316"/>
<polygon fill="black" stroke="black" points="247.585,-798.849 253.455,-790.029 243.366,-793.263 247.585,-798.849"/>
</g>
<!-- TaggedDataRecord&#45;&gt;FilterExcludingMarine -->
<g id="edge7" class="edge"><title>TaggedDataRecord&#45;&gt;FilterExcludingMarine</title>
<path fill="none" stroke="black" d="M252.287,-680.994C239.402,-671.753 223.282,-660.192 209.268,-650.142"/>
<polygon fill="black" stroke="black" points="211.029,-647.097 200.863,-644.114 206.949,-652.786 211.029,-647.097"/>
</g>
<!-- TaggedDataRecord&#45;&gt;FilterToJustMarine -->
<g id="edge6" class="edge"><title>TaggedDataRecord&#45;&gt;FilterToJustMarine</title>
<path fill="none" stroke="black" d="M299.952,-680.994C312.968,-671.753 329.25,-660.192 343.406,-650.142"/>
<polygon fill="black" stroke="black" points="345.769,-652.757 351.896,-644.114 341.716,-647.049 345.769,-652.757"/>
</g>
<!-- MarineDataRecord&#45;&gt;WoRMSLookup -->
<g id="edge8" class="edge"><title>MarineDataRecord&#45;&gt;WoRMSLookup</title>
<path fill="none" stroke="black" d="M356,-529.754C356,-520.523 356,-508.935 356,-498.495"/>
<polygon fill="black" stroke="black" points="359.5,-498.177 356,-488.177 352.5,-498.177 359.5,-498.177"/>
</g>
<!-- WoRMSUpdatedRecord&#45;&gt;StreamMerge -->
<g id="edge10" class="edge"><title>WoRMSUpdatedRecord&#45;&gt;StreamMerge</title>
<path fill="none" stroke="black" d="M290.499,-373.944C272.488,-363.166 249.013,-349.118 229.499,-337.44"/>
<polygon fill="black" stroke="black" points="231.224,-334.394 220.846,-332.262 227.629,-340.4 231.224,-334.394"/>
</g>
<!-- DarwinCoreFile -->
<g id="node16" class="node"><title>DarwinCoreFile</title>
<path fill="#ffe4b5" stroke="black" d="M124.5,-1117C124.5,-1117 473.5,-1117 473.5,-1117 479.5,-1117 485.5,-1123 485.5,-1129 485.5,-1129 485.5,-1141 485.5,-1141 485.5,-1147 479.5,-1153 473.5,-1153 473.5,-1153 124.5,-1153 124.5,-1153 118.5,-1153 112.5,-1147 112.5,-1141 112.5,-1141 112.5,-1129 112.5,-1129 112.5,-1123 118.5,-1117 124.5,-1117"/>
<text text-anchor="middle" x="299" y="-1141.8" font-family="Courier,monospace" font-weight="bold" font-size="9.00">DarwinCoreFile</text>
<polyline fill="none" stroke="black" points="112.5,-1135 485.5,-1135 "/>
<text text-anchor="middle" x="299" y="-1123.8" font-family="Courier,monospace" font-weight="bold" font-size="9.00">packages/kurator_branching_generic/data/kurator_sample_data_v2.txt</text>
</g>
<!-- DarwinCoreFile&#45;&gt;Setup -->
<g id="edge2" class="edge"><title>DarwinCoreFile&#45;&gt;Setup</title>
<path fill="none" stroke="black" d="M247.981,-1116.99C210.231,-1104.41 159.579,-1087.53 125.03,-1076.01"/>
<polygon fill="black" stroke="black" points="125.892,-1072.61 115.298,-1072.77 123.678,-1079.25 125.892,-1072.61"/>
</g>
<!-- Workspace&#45;&gt;CsvFileWriter -->
<g id="edge3" class="edge"><title>Workspace&#45;&gt;CsvFileWriter</title>
<path fill="none" stroke="black" d="M55.8024,-899.711C55.511,-872.677 55,-818.751 55,-773 55,-773 55,-773 55,-313 55,-258.541 107.833,-216.959 147.881,-193.262"/>
<polygon fill="black" stroke="black" points="149.785,-196.205 156.719,-188.195 146.303,-190.132 149.785,-196.205"/>
</g>
<!-- OccurrenceFile&#45;&gt;FileToDataStream -->
<g id="edge4" class="edge"><title>OccurrenceFile&#45;&gt;FileToDataStream</title>
<path fill="none" stroke="black" d="M166.944,-971.697C169.172,-963.898 171.855,-954.509 174.335,-945.829"/>
<polygon fill="black" stroke="black" points="177.731,-946.681 177.113,-936.104 171,-944.758 177.731,-946.681"/>
</g>
<!-- MergedStream&#45;&gt;CsvFileWriter -->
<g id="edge12" class="edge"><title>MergedStream&#45;&gt;CsvFileWriter</title>
<path fill="none" stroke="black" d="M192,-223.697C192,-215.983 192,-206.712 192,-198.112"/>
<polygon fill="black" stroke="black" points="195.5,-198.104 192,-188.104 188.5,-198.104 195.5,-198.104"/>
</g>
<!-- LogFile_outflow -->
<g id="node25" class="node"><title>LogFile_outflow</title>
<ellipse fill="none" stroke="black" cx="337" cy="-31" rx="7" ry="7"/>
</g>
<!-- LogFile&#45;&gt;LogFile_outflow -->
<g id="edge30" class="edge"><title>LogFile&#45;&gt;LogFile_outflow</title>
<path fill="none" stroke="black" d="M430,-373.683C430,-346.051 430,-290.278 430,-243 430,-243 430,-243 430,-169 430,-120.701 441.396,-99.5354 411,-62 396.965,-44.6684 371.346,-37.2725 354.245,-34.1692"/>
<polygon fill="black" stroke="black" points="354.422,-30.6567 344.014,-32.6371 353.386,-37.5795 354.422,-30.6567"/>
</g>
<!-- UpdatedDarwinCoreFile_outflow -->
<g id="node26" class="node"><title>UpdatedDarwinCoreFile_outflow</title>
<ellipse fill="none" stroke="black" cx="305" cy="-31" rx="7" ry="7"/>
</g>
<!-- UpdatedDarwinCoreFile&#45;&gt;UpdatedDarwinCoreFile_outflow -->
<g id="edge31" class="edge"><title>UpdatedDarwinCoreFile&#45;&gt;UpdatedDarwinCoreFile_outflow</title>
<path fill="none" stroke="black" d="M237.654,-78.8492C254.78,-66.9359 276.977,-51.4945 291.108,-41.6639"/>
<polygon fill="black" stroke="black" points="293.231,-44.4507 299.441,-35.8668 289.234,-38.7043 293.231,-44.4507"/>
</g>
<!-- InputFilePath -->
<g id="node22" class="node"><title>InputFilePath</title>
<path fill="#ffffff" stroke="black" d="M82,-1153C82,-1153 36,-1153 36,-1153 30,-1153 24,-1147 24,-1141 24,-1141 24,-1129 24,-1129 24,-1123 30,-1117 36,-1117 36,-1117 82,-1117 82,-1117 88,-1117 94,-1123 94,-1129 94,-1129 94,-1141 94,-1141 94,-1147 88,-1153 82,-1153"/>
<text text-anchor="middle" x="59" y="-1132.8" font-family="Helvetica,sans-Serif" font-size="9.00">InputFilePath</text>
</g>
<!-- InputFilePath&#45;&gt;Setup -->
<g id="edge1" class="edge"><title>InputFilePath&#45;&gt;Setup</title>
<path fill="none" stroke="black" d="M65.5359,-1116.81C68.6534,-1108.62 72.4532,-1098.62 75.9284,-1089.48"/>
<polygon fill="black" stroke="black" points="79.2411,-1090.62 79.5242,-1080.03 72.6983,-1088.13 79.2411,-1090.62"/>
</g>
<!-- DarwinCoreFile_inflow -->
<g id="node23" class="node"><title>DarwinCoreFile_inflow</title>
<ellipse fill="none" stroke="black" cx="195" cy="-1201" rx="7" ry="7"/>
</g>
<!-- DarwinCoreFile_inflow&#45;&gt;DarwinCoreFile -->
<g id="edge28" class="edge"><title>DarwinCoreFile_inflow&#45;&gt;DarwinCoreFile</title>
<path fill="none" stroke="black" d="M200.591,-1196.56C212.189,-1189.42 239.699,-1172.49 262.692,-1158.34"/>
<polygon fill="black" stroke="black" points="264.559,-1161.3 271.241,-1153.08 260.89,-1155.34 264.559,-1161.3"/>
</g>
<!-- InputFilePath_inflow -->
<g id="node24" class="node"><title>InputFilePath_inflow</title>
<ellipse fill="none" stroke="black" cx="163" cy="-1201" rx="7" ry="7"/>
</g>
<!-- InputFilePath_inflow&#45;&gt;InputFilePath -->
<g id="edge29" class="edge"><title>InputFilePath_inflow&#45;&gt;InputFilePath</title>
<path fill="none" stroke="black" d="M156.829,-1197.39C145.713,-1192.59 121.739,-1181.77 103,-1170 97.8675,-1166.78 92.6061,-1163.09 87.5877,-1159.36"/>
<polygon fill="black" stroke="black" points="89.5044,-1156.42 79.4372,-1153.12 85.248,-1161.98 89.5044,-1156.42"/>
</g>
</g>
</svg>
