<?xml version="1.0" encoding="UTF-8" standalone="no"?>
<!DOCTYPE svg PUBLIC "-//W3C//DTD SVG 1.1//EN"
 "http://www.w3.org/Graphics/SVG/1.1/DTD/svg11.dtd">
<!-- Generated by graphviz version 2.36.0 (20140111.2315)
 -->
<!-- Title: yw_data_view Pages: 1 -->
<svg width="518pt" height="1242pt"
 viewBox="0.00 0.00 518.00 1242.00" xmlns="http://www.w3.org/2000/svg" xmlns:xlink="http://www.w3.org/1999/xlink">
<g id="graph0" class="graph" transform="scale(1 1) rotate(0) translate(4 1238)">
<title>yw_data_view</title>
<polygon fill="white" stroke="none" points="-4,4 -4,-1238 514,-1238 514,4 -4,4"/>
<text text-anchor="middle" x="255" y="-1215.6" font-family="Courier,monospace" font-size="18.00">FileBranchingTaxonLookupWorkflow</text>
<g id="clust5" class="cluster"><title>cluster_outflows</title>
<polygon fill="none" stroke="white" stroke-width="2" points="282,-8 282,-54 360,-54 360,-8 282,-8"/>
</g>
<g id="clust6" class="cluster"><title>cluster_outflows_inner</title>
<polygon fill="none" stroke="white" stroke-width="2" points="290,-16 290,-46 352,-46 352,-16 290,-16"/>
</g>
<g id="clust1" class="cluster"><title>cluster_workflow</title>
<polygon fill="none" stroke="black" stroke-width="2" points="8,-62 8,-1144 502,-1144 502,-62 8,-62"/>
</g>
<g id="clust2" class="cluster"><title>cluster_workflow_inner</title>
<polygon fill="none" stroke="white" stroke-width="2" points="16,-70 16,-1136 494,-1136 494,-70 16,-70"/>
</g>
<g id="clust3" class="cluster"><title>cluster_inflows</title>
<polygon fill="none" stroke="white" stroke-width="2" points="140,-1152 140,-1198 218,-1198 218,-1152 140,-1152"/>
</g>
<g id="clust4" class="cluster"><title>cluster_inflows_inner</title>
<polygon fill="none" stroke="white" stroke-width="2" points="148,-1160 148,-1190 210,-1190 210,-1160 148,-1160"/>
</g>
<!-- Setup -->
<g id="node1" class="node"><title>Setup</title>
<polygon fill="#ccffcc" stroke="black" points="202.25,-1054 143.75,-1054 143.75,-1018 202.25,-1018 202.25,-1054"/>
<text text-anchor="middle" x="173" y="-1032.3" font-family="Courier,monospace" font-size="14.00">Setup</text>
</g>
<!-- Workspace -->
<g id="node11" class="node"><title>Workspace</title>
<path fill="#ffffcc" stroke="black" d="M130,-910C130,-910 92,-910 92,-910 86,-910 80,-904 80,-898 80,-898 80,-886 80,-886 80,-880 86,-874 92,-874 92,-874 130,-874 130,-874 136,-874 142,-880 142,-886 142,-886 142,-898 142,-898 142,-904 136,-910 130,-910"/>
<text text-anchor="middle" x="111" y="-889.8" font-family="Helvetica,sans-Serif" font-size="9.00">Workspace</text>
</g>
<!-- Setup&#45;&gt;Workspace -->
<g id="edge13" class="edge"><title>Setup&#45;&gt;Workspace</title>
<path fill="none" stroke="black" d="M165.521,-1017.87C154.862,-993.457 135.2,-948.426 122.629,-919.635"/>
<polygon fill="black" stroke="black" points="125.714,-917.953 118.505,-910.189 119.299,-920.754 125.714,-917.953"/>
</g>
<!-- OccurrenceFile -->
<g id="node12" class="node"><title>OccurrenceFile</title>
<path fill="#ffffcc" stroke="black" d="M246,-982C246,-982 192,-982 192,-982 186,-982 180,-976 180,-970 180,-970 180,-958 180,-958 180,-952 186,-946 192,-946 192,-946 246,-946 246,-946 252,-946 258,-952 258,-958 258,-958 258,-970 258,-970 258,-976 252,-982 246,-982"/>
<text text-anchor="middle" x="219" y="-961.8" font-family="Helvetica,sans-Serif" font-size="9.00">OccurrenceFile</text>
</g>
<!-- Setup&#45;&gt;OccurrenceFile -->
<g id="edge14" class="edge"><title>Setup&#45;&gt;OccurrenceFile</title>
<path fill="none" stroke="black" d="M184.371,-1017.7C189.718,-1009.56 196.204,-999.689 202.111,-990.701"/>
<polygon fill="black" stroke="black" points="205.193,-992.384 207.76,-982.104 199.343,-988.539 205.193,-992.384"/>
</g>
<!-- FileToDataStream -->
<g id="node2" class="node"><title>FileToDataStream</title>
<polygon fill="#ccffcc" stroke="black" points="399.25,-910 248.75,-910 248.75,-874 399.25,-874 399.25,-910"/>
<text text-anchor="middle" x="324" y="-888.3" font-family="Courier,monospace" font-size="14.00">FileToDataStream</text>
</g>
<!-- DataRecord -->
<g id="node13" class="node"><title>DataRecord</title>
<path fill="#ffffcc" stroke="black" d="M355.25,-838C355.25,-838 314.75,-838 314.75,-838 308.75,-838 302.75,-832 302.75,-826 302.75,-826 302.75,-814 302.75,-814 302.75,-808 308.75,-802 314.75,-802 314.75,-802 355.25,-802 355.25,-802 361.25,-802 367.25,-808 367.25,-814 367.25,-814 367.25,-826 367.25,-826 367.25,-832 361.25,-838 355.25,-838"/>
<text text-anchor="middle" x="335" y="-817.8" font-family="Helvetica,sans-Serif" font-size="9.00">DataRecord</text>
</g>
<!-- FileToDataStream&#45;&gt;DataRecord -->
<g id="edge15" class="edge"><title>FileToDataStream&#45;&gt;DataRecord</title>
<path fill="none" stroke="black" d="M326.719,-873.697C327.931,-865.983 329.388,-856.712 330.739,-848.112"/>
<polygon fill="black" stroke="black" points="334.217,-848.526 332.312,-838.104 327.302,-847.44 334.217,-848.526"/>
</g>
<!-- EnvironmentTagger -->
<g id="node3" class="node"><title>EnvironmentTagger</title>
<polygon fill="#ccffcc" stroke="black" points="436.25,-766 277.75,-766 277.75,-730 436.25,-730 436.25,-766"/>
<text text-anchor="middle" x="357" y="-744.3" font-family="Courier,monospace" font-size="14.00">EnvironmentTagger</text>
</g>
<!-- TaggedDataRecord -->
<g id="node14" class="node"><title>TaggedDataRecord</title>
<path fill="#ffffcc" stroke="black" d="M392.25,-694C392.25,-694 321.75,-694 321.75,-694 315.75,-694 309.75,-688 309.75,-682 309.75,-682 309.75,-670 309.75,-670 309.75,-664 315.75,-658 321.75,-658 321.75,-658 392.25,-658 392.25,-658 398.25,-658 404.25,-664 404.25,-670 404.25,-670 404.25,-682 404.25,-682 404.25,-688 398.25,-694 392.25,-694"/>
<text text-anchor="middle" x="357" y="-673.8" font-family="Helvetica,sans-Serif" font-size="9.00">TaggedDataRecord</text>
</g>
<!-- EnvironmentTagger&#45;&gt;TaggedDataRecord -->
<g id="edge17" class="edge"><title>EnvironmentTagger&#45;&gt;TaggedDataRecord</title>
<path fill="none" stroke="black" d="M357,-729.697C357,-721.983 357,-712.712 357,-704.112"/>
<polygon fill="black" stroke="black" points="360.5,-704.104 357,-694.104 353.5,-704.104 360.5,-704.104"/>
</g>
<!-- LogFile -->
<g id="node20" class="node"><title>LogFile</title>
<path fill="#ffe4b5" stroke="black" d="M398.5,-369C398.5,-369 445.5,-369 445.5,-369 451.5,-369 457.5,-375 457.5,-381 457.5,-381 457.5,-393 457.5,-393 457.5,-399 451.5,-405 445.5,-405 445.5,-405 398.5,-405 398.5,-405 392.5,-405 386.5,-399 386.5,-393 386.5,-393 386.5,-381 386.5,-381 386.5,-375 392.5,-369 398.5,-369"/>
<text text-anchor="middle" x="422" y="-393.8" font-family="Courier,monospace" font-weight="bold" font-size="9.00">LogFile</text>
<polyline fill="none" stroke="black" points="386.5,-387 457.5,-387 "/>
<text text-anchor="middle" x="422" y="-375.8" font-family="Courier,monospace" font-weight="bold" font-size="9.00">runlog.log</text>
</g>
<!-- EnvironmentTagger&#45;&gt;LogFile -->
<g id="edge16" class="edge"><title>EnvironmentTagger&#45;&gt;LogFile</title>
<path fill="none" stroke="black" d="M388.97,-729.807C426.882,-706.823 485,-662.253 485,-605 485,-605 485,-605 485,-531 485,-486.937 459.64,-441.223 441.1,-413.69"/>
<polygon fill="black" stroke="black" points="443.936,-411.638 435.361,-405.415 438.184,-415.627 443.936,-411.638"/>
</g>
<!-- FilterToJustMarine -->
<g id="node4" class="node"><title>FilterToJustMarine</title>
<polygon fill="#ccffcc" stroke="black" points="254,-622 86,-622 86,-586 254,-586 254,-622"/>
<text text-anchor="middle" x="170" y="-600.3" font-family="Courier,monospace" font-size="14.00">FilterToJustMarine</text>
</g>
<!-- MarineDataRecord -->
<g id="node15" class="node"><title>MarineDataRecord</title>
<path fill="#ffffcc" stroke="black" d="M219,-550C219,-550 151,-550 151,-550 145,-550 139,-544 139,-538 139,-538 139,-526 139,-526 139,-520 145,-514 151,-514 151,-514 219,-514 219,-514 225,-514 231,-520 231,-526 231,-526 231,-538 231,-538 231,-544 225,-550 219,-550"/>
<text text-anchor="middle" x="185" y="-529.8" font-family="Helvetica,sans-Serif" font-size="9.00">MarineDataRecord</text>
</g>
<!-- FilterToJustMarine&#45;&gt;MarineDataRecord -->
<g id="edge19" class="edge"><title>FilterToJustMarine&#45;&gt;MarineDataRecord</title>
<path fill="none" stroke="black" d="M173.708,-585.697C175.361,-577.983 177.347,-568.712 179.19,-560.112"/>
<polygon fill="black" stroke="black" points="182.662,-560.616 181.335,-550.104 175.817,-559.149 182.662,-560.616"/>
</g>
<!-- FilterToJustMarine&#45;&gt;LogFile -->
<g id="edge18" class="edge"><title>FilterToJustMarine&#45;&gt;LogFile</title>
<path fill="none" stroke="black" d="M198.908,-585.846C212.694,-576.571 228.62,-564.126 240,-550 273.184,-508.81 251.761,-478.546 290,-442 290.866,-441.172 338.997,-421.582 376.886,-406.234"/>
<polygon fill="black" stroke="black" points="378.308,-409.434 386.264,-402.437 375.681,-402.946 378.308,-409.434"/>
</g>
<!-- FilterExcludingMarine -->
<g id="node5" class="node"><title>FilterExcludingMarine</title>
<polygon fill="#ccffcc" stroke="black" points="465.25,-622 272.75,-622 272.75,-586 465.25,-586 465.25,-622"/>
<text text-anchor="middle" x="369" y="-600.3" font-family="Courier,monospace" font-size="14.00">FilterExcludingMarine</text>
</g>
<!-- notMarineDataRecord -->
<g id="node16" class="node"><title>notMarineDataRecord</title>
<path fill="#ffffcc" stroke="black" d="M390.25,-550C390.25,-550 309.75,-550 309.75,-550 303.75,-550 297.75,-544 297.75,-538 297.75,-538 297.75,-526 297.75,-526 297.75,-520 303.75,-514 309.75,-514 309.75,-514 390.25,-514 390.25,-514 396.25,-514 402.25,-520 402.25,-526 402.25,-526 402.25,-538 402.25,-538 402.25,-544 396.25,-550 390.25,-550"/>
<text text-anchor="middle" x="350" y="-529.8" font-family="Helvetica,sans-Serif" font-size="9.00">notMarineDataRecord</text>
</g>
<!-- FilterExcludingMarine&#45;&gt;notMarineDataRecord -->
<g id="edge21" class="edge"><title>FilterExcludingMarine&#45;&gt;notMarineDataRecord</title>
<path fill="none" stroke="black" d="M364.303,-585.697C362.187,-577.898 359.638,-568.509 357.282,-559.829"/>
<polygon fill="black" stroke="black" points="360.64,-558.838 354.643,-550.104 353.884,-560.672 360.64,-558.838"/>
</g>
<!-- FilterExcludingMarine&#45;&gt;LogFile -->
<g id="edge20" class="edge"><title>FilterExcludingMarine&#45;&gt;LogFile</title>
<path fill="none" stroke="black" d="M387.23,-585.619C396.054,-576.022 405.834,-563.359 411,-550 428.263,-505.354 427.465,-448.661 424.97,-415.545"/>
<polygon fill="black" stroke="black" points="428.43,-414.931 424.082,-405.27 421.456,-415.534 428.43,-414.931"/>
</g>
<!-- WoRMSLookup -->
<g id="node6" class="node"><title>WoRMSLookup</title>
<polygon fill="#ccffcc" stroke="black" points="247.25,-478 138.75,-478 138.75,-442 247.25,-442 247.25,-478"/>
<text text-anchor="middle" x="193" y="-456.3" font-family="Courier,monospace" font-size="14.00">WoRMSLookup</text>
</g>
<!-- WoRMSUpdatedRecord -->
<g id="node17" class="node"><title>WoRMSUpdatedRecord</title>
<path fill="#ffffcc" stroke="black" d="M237.25,-405C237.25,-405 148.75,-405 148.75,-405 142.75,-405 136.75,-399 136.75,-393 136.75,-393 136.75,-381 136.75,-381 136.75,-375 142.75,-369 148.75,-369 148.75,-369 237.25,-369 237.25,-369 243.25,-369 249.25,-375 249.25,-381 249.25,-381 249.25,-393 249.25,-393 249.25,-399 243.25,-405 237.25,-405"/>
<text text-anchor="middle" x="193" y="-384.8" font-family="Helvetica,sans-Serif" font-size="9.00">WoRMSUpdatedRecord</text>
</g>
<!-- WoRMSLookup&#45;&gt;WoRMSUpdatedRecord -->
<g id="edge23" class="edge"><title>WoRMSLookup&#45;&gt;WoRMSUpdatedRecord</title>
<path fill="none" stroke="black" d="M193,-441.813C193,-433.789 193,-424.047 193,-415.069"/>
<polygon fill="black" stroke="black" points="196.5,-415.029 193,-405.029 189.5,-415.029 196.5,-415.029"/>
</g>
<!-- WoRMSLookup&#45;&gt;LogFile -->
<g id="edge22" class="edge"><title>WoRMSLookup&#45;&gt;LogFile</title>
<path fill="none" stroke="black" d="M247.388,-444.87C282.022,-435.521 327.954,-422.475 376.785,-405.916"/>
<polygon fill="black" stroke="black" points="377.933,-409.222 386.26,-402.671 375.665,-402.6 377.933,-409.222"/>
</g>
<!-- GBIFLookup -->
<g id="node7" class="node"><title>GBIFLookup</title>
<polygon fill="#ccffcc" stroke="black" points="400.25,-478 299.75,-478 299.75,-442 400.25,-442 400.25,-478"/>
<text text-anchor="middle" x="350" y="-456.3" font-family="Courier,monospace" font-size="14.00">GBIFLookup</text>
</g>
<!-- GBIFUpdatedRecord -->
<g id="node18" class="node"><title>GBIFUpdatedRecord</title>
<path fill="#ffffcc" stroke="black" d="M356.25,-405C356.25,-405 279.75,-405 279.75,-405 273.75,-405 267.75,-399 267.75,-393 267.75,-393 267.75,-381 267.75,-381 267.75,-375 273.75,-369 279.75,-369 279.75,-369 356.25,-369 356.25,-369 362.25,-369 368.25,-375 368.25,-381 368.25,-381 368.25,-393 368.25,-393 368.25,-399 362.25,-405 356.25,-405"/>
<text text-anchor="middle" x="318" y="-384.8" font-family="Helvetica,sans-Serif" font-size="9.00">GBIFUpdatedRecord</text>
</g>
<!-- GBIFLookup&#45;&gt;GBIFUpdatedRecord -->
<g id="edge25" class="edge"><title>GBIFLookup&#45;&gt;GBIFUpdatedRecord</title>
<path fill="none" stroke="black" d="M342.254,-441.813C338.52,-433.528 333.96,-423.41 329.805,-414.193"/>
<polygon fill="black" stroke="black" points="332.975,-412.707 325.675,-405.029 326.593,-415.584 332.975,-412.707"/>
</g>
<!-- GBIFLookup&#45;&gt;LogFile -->
<g id="edge24" class="edge"><title>GBIFLookup&#45;&gt;LogFile</title>
<path fill="none" stroke="black" d="M367.429,-441.813C376.45,-432.917 387.613,-421.909 397.488,-412.172"/>
<polygon fill="black" stroke="black" points="400.068,-414.542 404.731,-405.029 395.153,-409.558 400.068,-414.542"/>
</g>
<!-- StreamMerge -->
<g id="node8" class="node"><title>StreamMerge</title>
<polygon fill="#ccffcc" stroke="black" points="257.25,-332 148.75,-332 148.75,-296 257.25,-296 257.25,-332"/>
<text text-anchor="middle" x="203" y="-310.3" font-family="Courier,monospace" font-size="14.00">StreamMerge</text>
</g>
<!-- MergedStream -->
<g id="node19" class="node"><title>MergedStream</title>
<path fill="#ffffcc" stroke="black" d="M229,-260C229,-260 177,-260 177,-260 171,-260 165,-254 165,-248 165,-248 165,-236 165,-236 165,-230 171,-224 177,-224 177,-224 229,-224 229,-224 235,-224 241,-230 241,-236 241,-236 241,-248 241,-248 241,-254 235,-260 229,-260"/>
<text text-anchor="middle" x="203" y="-239.8" font-family="Helvetica,sans-Serif" font-size="9.00">MergedStream</text>
</g>
<!-- StreamMerge&#45;&gt;MergedStream -->
<g id="edge26" class="edge"><title>StreamMerge&#45;&gt;MergedStream</title>
<path fill="none" stroke="black" d="M203,-295.697C203,-287.983 203,-278.712 203,-270.112"/>
<polygon fill="black" stroke="black" points="206.5,-270.104 203,-260.104 199.5,-270.104 206.5,-270.104"/>
</g>
<!-- CsvFileWriter -->
<g id="node9" class="node"><title>CsvFileWriter</title>
<polygon fill="#ccffcc" stroke="black" points="266,-188 140,-188 140,-152 266,-152 266,-188"/>
<text text-anchor="middle" x="203" y="-166.3" font-family="Courier,monospace" font-size="14.00">CsvFileWriter</text>
</g>
<!-- UpdatedDarwinCoreFile -->
<g id="node21" class="node"><title>UpdatedDarwinCoreFile</title>
<path fill="#ffe4b5" stroke="black" d="M36,-79C36,-79 390,-79 390,-79 396,-79 402,-85 402,-91 402,-91 402,-103 402,-103 402,-109 396,-115 390,-115 390,-115 36,-115 36,-115 30,-115 24,-109 24,-103 24,-103 24,-91 24,-91 24,-85 30,-79 36,-79"/>
<text text-anchor="middle" x="213" y="-103.8" font-family="Courier,monospace" font-weight="bold" font-size="9.00">UpdatedDarwinCoreFile</text>
<polyline fill="none" stroke="black" points="24,-97 402,-97 "/>
<text text-anchor="middle" x="213" y="-85.8" font-family="Courier,monospace" font-weight="bold" font-size="9.00">workspace_18338630&#45;a81c&#45;11e7&#45;8146&#45;acbc3296f741/mergedoutputfile.csv</text>
</g>
<!-- CsvFileWriter&#45;&gt;UpdatedDarwinCoreFile -->
<g id="edge27" class="edge"><title>CsvFileWriter&#45;&gt;UpdatedDarwinCoreFile</title>
<path fill="none" stroke="black" d="M205.421,-151.813C206.551,-143.789 207.923,-134.047 209.187,-125.069"/>
<polygon fill="black" stroke="black" points="212.673,-125.419 210.602,-115.029 205.741,-124.443 212.673,-125.419"/>
</g>
<!-- DarwinCoreFile -->
<g id="node10" class="node"><title>DarwinCoreFile</title>
<path fill="#ffe4b5" stroke="black" d="M124.5,-1091C124.5,-1091 473.5,-1091 473.5,-1091 479.5,-1091 485.5,-1097 485.5,-1103 485.5,-1103 485.5,-1115 485.5,-1115 485.5,-1121 479.5,-1127 473.5,-1127 473.5,-1127 124.5,-1127 124.5,-1127 118.5,-1127 112.5,-1121 112.5,-1115 112.5,-1115 112.5,-1103 112.5,-1103 112.5,-1097 118.5,-1091 124.5,-1091"/>
<text text-anchor="middle" x="299" y="-1115.8" font-family="Courier,monospace" font-weight="bold" font-size="9.00">DarwinCoreFile</text>
<polyline fill="none" stroke="black" points="112.5,-1109 485.5,-1109 "/>
<text text-anchor="middle" x="299" y="-1097.8" font-family="Courier,monospace" font-weight="bold" font-size="9.00">packages/kurator_branching_generic/data/kurator_sample_data_v2.txt</text>
</g>
<!-- DarwinCoreFile&#45;&gt;Setup -->
<g id="edge2" class="edge"><title>DarwinCoreFile&#45;&gt;Setup</title>
<path fill="none" stroke="black" d="M268.82,-1090.99C251.552,-1081.26 229.719,-1068.96 211.257,-1058.56"/>
<polygon fill="black" stroke="black" points="212.929,-1055.48 202.499,-1053.62 209.493,-1061.58 212.929,-1055.48"/>
</g>
<!-- Workspace&#45;&gt;CsvFileWriter -->
<g id="edge3" class="edge"><title>Workspace&#45;&gt;CsvFileWriter</title>
<path fill="none" stroke="black" d="M101.883,-873.606C88.9953,-847.357 67,-795.715 67,-749 67,-749 67,-749 67,-313 67,-258.574 119.755,-216.861 159.551,-193.137"/>
<polygon fill="black" stroke="black" points="161.422,-196.098 168.33,-188.065 157.92,-190.037 161.422,-196.098"/>
</g>
<!-- OccurrenceFile&#45;&gt;FileToDataStream -->
<g id="edge4" class="edge"><title>OccurrenceFile&#45;&gt;FileToDataStream</title>
<path fill="none" stroke="black" d="M244.686,-945.876C258.288,-936.808 275.172,-925.552 289.861,-915.759"/>
<polygon fill="black" stroke="black" points="291.836,-918.649 298.215,-910.19 287.953,-912.825 291.836,-918.649"/>
</g>
<!-- DataRecord&#45;&gt;EnvironmentTagger -->
<g id="edge5" class="edge"><title>DataRecord&#45;&gt;EnvironmentTagger</title>
<path fill="none" stroke="black" d="M340.438,-801.697C342.889,-793.898 345.84,-784.509 348.568,-775.829"/>
<polygon fill="black" stroke="black" points="351.965,-776.694 351.624,-766.104 345.287,-774.595 351.965,-776.694"/>
</g>
<!-- TaggedDataRecord&#45;&gt;FilterToJustMarine -->
<g id="edge6" class="edge"><title>TaggedDataRecord&#45;&gt;FilterToJustMarine</title>
<path fill="none" stroke="black" d="M311.255,-657.876C285.236,-648.137 252.474,-635.872 225.053,-625.608"/>
<polygon fill="black" stroke="black" points="226.189,-622.296 215.597,-622.068 223.735,-628.852 226.189,-622.296"/>
</g>
<!-- TaggedDataRecord&#45;&gt;FilterExcludingMarine -->
<g id="edge7" class="edge"><title>TaggedDataRecord&#45;&gt;FilterExcludingMarine</title>
<path fill="none" stroke="black" d="M359.966,-657.697C361.289,-649.983 362.878,-640.712 364.352,-632.112"/>
<polygon fill="black" stroke="black" points="367.828,-632.552 366.068,-622.104 360.928,-631.369 367.828,-632.552"/>
</g>
<!-- MarineDataRecord&#45;&gt;WoRMSLookup -->
<g id="edge8" class="edge"><title>MarineDataRecord&#45;&gt;WoRMSLookup</title>
<path fill="none" stroke="black" d="M186.978,-513.697C187.859,-505.983 188.919,-496.712 189.901,-488.112"/>
<polygon fill="black" stroke="black" points="193.387,-488.437 191.045,-478.104 186.432,-487.642 193.387,-488.437"/>
</g>
<!-- notMarineDataRecord&#45;&gt;GBIFLookup -->
<g id="edge9" class="edge"><title>notMarineDataRecord&#45;&gt;GBIFLookup</title>
<path fill="none" stroke="black" d="M350,-513.697C350,-505.983 350,-496.712 350,-488.112"/>
<polygon fill="black" stroke="black" points="353.5,-488.104 350,-478.104 346.5,-488.104 353.5,-488.104"/>
</g>
<!-- WoRMSUpdatedRecord&#45;&gt;StreamMerge -->
<g id="edge10" class="edge"><title>WoRMSUpdatedRecord&#45;&gt;StreamMerge</title>
<path fill="none" stroke="black" d="M195.421,-368.813C196.551,-360.789 197.923,-351.047 199.187,-342.069"/>
<polygon fill="black" stroke="black" points="202.673,-342.419 200.602,-332.029 195.741,-341.443 202.673,-342.419"/>
</g>
<!-- GBIFUpdatedRecord&#45;&gt;StreamMerge -->
<g id="edge11" class="edge"><title>GBIFUpdatedRecord&#45;&gt;StreamMerge</title>
<path fill="none" stroke="black" d="M290.455,-368.994C275.205,-359.579 256.055,-347.755 239.565,-337.575"/>
<polygon fill="black" stroke="black" points="241.067,-334.389 230.719,-332.114 237.389,-340.345 241.067,-334.389"/>
</g>
<!-- MergedStream&#45;&gt;CsvFileWriter -->
<g id="edge12" class="edge"><title>MergedStream&#45;&gt;CsvFileWriter</title>
<path fill="none" stroke="black" d="M203,-223.697C203,-215.983 203,-206.712 203,-198.112"/>
<polygon fill="black" stroke="black" points="206.5,-198.104 203,-188.104 199.5,-198.104 206.5,-198.104"/>
</g>
<!-- LogFile_outflow -->
<g id="node25" class="node"><title>LogFile_outflow</title>
<ellipse fill="none" stroke="black" cx="337" cy="-31" rx="7" ry="7"/>
</g>
<!-- LogFile&#45;&gt;LogFile_outflow -->
<g id="edge30" class="edge"><title>LogFile&#45;&gt;LogFile_outflow</title>
<path fill="none" stroke="black" d="M423.581,-368.848C425.912,-342.024 430,-288.503 430,-243 430,-243 430,-243 430,-169 430,-120.701 441.396,-99.5354 411,-62 396.965,-44.6684 371.346,-37.2725 354.245,-34.1692"/>
<polygon fill="black" stroke="black" points="354.422,-30.6567 344.014,-32.6371 353.386,-37.5795 354.422,-30.6567"/>
</g>
<!-- UpdatedDarwinCoreFile_outflow -->
<g id="node26" class="node"><title>UpdatedDarwinCoreFile_outflow</title>
<ellipse fill="none" stroke="black" cx="305" cy="-31" rx="7" ry="7"/>
</g>
<!-- UpdatedDarwinCoreFile&#45;&gt;UpdatedDarwinCoreFile_outflow -->
<g id="edge31" class="edge"><title>UpdatedDarwinCoreFile&#45;&gt;UpdatedDarwinCoreFile_outflow</title>
<path fill="none" stroke="black" d="M237.654,-78.8492C254.78,-66.9359 276.977,-51.4945 291.108,-41.6639"/>
<polygon fill="black" stroke="black" points="293.231,-44.4507 299.441,-35.8668 289.234,-38.7043 293.231,-44.4507"/>
</g>
<!-- InputFilePath -->
<g id="node22" class="node"><title>InputFilePath</title>
<path fill="#ffffff" stroke="black" d="M82,-1127C82,-1127 36,-1127 36,-1127 30,-1127 24,-1121 24,-1115 24,-1115 24,-1103 24,-1103 24,-1097 30,-1091 36,-1091 36,-1091 82,-1091 82,-1091 88,-1091 94,-1097 94,-1103 94,-1103 94,-1115 94,-1115 94,-1121 88,-1127 82,-1127"/>
<text text-anchor="middle" x="59" y="-1106.8" font-family="Helvetica,sans-Serif" font-size="9.00">InputFilePath</text>
</g>
<!-- InputFilePath&#45;&gt;Setup -->
<g id="edge1" class="edge"><title>InputFilePath&#45;&gt;Setup</title>
<path fill="none" stroke="black" d="M86.3058,-1090.99C101.423,-1081.58 120.407,-1069.76 136.753,-1059.57"/>
<polygon fill="black" stroke="black" points="138.884,-1062.37 145.522,-1054.11 135.183,-1056.43 138.884,-1062.37"/>
</g>
<!-- DarwinCoreFile_inflow -->
<g id="node23" class="node"><title>DarwinCoreFile_inflow</title>
<ellipse fill="none" stroke="black" cx="195" cy="-1175" rx="7" ry="7"/>
</g>
<!-- DarwinCoreFile_inflow&#45;&gt;DarwinCoreFile -->
<g id="edge28" class="edge"><title>DarwinCoreFile_inflow&#45;&gt;DarwinCoreFile</title>
<path fill="none" stroke="black" d="M200.591,-1170.56C212.189,-1163.42 239.699,-1146.49 262.692,-1132.34"/>
<polygon fill="black" stroke="black" points="264.559,-1135.3 271.241,-1127.08 260.89,-1129.34 264.559,-1135.3"/>
</g>
<!-- InputFilePath_inflow -->
<g id="node24" class="node"><title>InputFilePath_inflow</title>
<ellipse fill="none" stroke="black" cx="163" cy="-1175" rx="7" ry="7"/>
</g>
<!-- InputFilePath_inflow&#45;&gt;InputFilePath -->
<g id="edge29" class="edge"><title>InputFilePath_inflow&#45;&gt;InputFilePath</title>
<path fill="none" stroke="black" d="M156.829,-1171.39C145.713,-1166.59 121.739,-1155.77 103,-1144 97.8675,-1140.78 92.6061,-1137.09 87.5877,-1133.36"/>
<polygon fill="black" stroke="black" points="89.5044,-1130.42 79.4372,-1127.12 85.248,-1135.98 89.5044,-1130.42"/>
</g>
</g>
</svg>
