<?xml version="1.0" encoding="UTF-8" standalone="no"?>
<!DOCTYPE svg PUBLIC "-//W3C//DTD SVG 1.1//EN"
 "http://www.w3.org/Graphics/SVG/1.1/DTD/svg11.dtd">
<!-- Generated by graphviz version 2.36.0 (20140111.2315)
 -->
<!-- Title: yw_data_view Pages: 1 -->
<svg width="570pt" height="1268pt"
 viewBox="0.00 0.00 570.00 1268.00" xmlns="http://www.w3.org/2000/svg" xmlns:xlink="http://www.w3.org/1999/xlink">
<g id="graph0" class="graph" transform="scale(1 1) rotate(0) translate(4 1264)">
<title>yw_data_view</title>
<polygon fill="white" stroke="none" points="-4,4 -4,-1264 566,-1264 566,4 -4,4"/>
<text text-anchor="middle" x="281" y="-1241.6" font-family="Courier,monospace" font-size="18.00">DwCA_Taxon_Lookup</text>
<g id="clust1" class="cluster"><title>cluster_workflow</title>
<polygon fill="none" stroke="black" stroke-width="2" points="8,-62 8,-1170 554,-1170 554,-62 8,-62"/>
</g>
<g id="clust2" class="cluster"><title>cluster_workflow_inner</title>
<polygon fill="none" stroke="white" stroke-width="2" points="16,-70 16,-1162 546,-1162 546,-70 16,-70"/>
</g>
<g id="clust3" class="cluster"><title>cluster_inflows</title>
<polygon fill="none" stroke="white" stroke-width="2" points="258,-1178 258,-1224 304,-1224 304,-1178 258,-1178"/>
</g>
<g id="clust4" class="cluster"><title>cluster_inflows_inner</title>
<polygon fill="none" stroke="white" stroke-width="2" points="266,-1186 266,-1216 296,-1216 296,-1186 266,-1186"/>
</g>
<g id="clust5" class="cluster"><title>cluster_outflows</title>
<polygon fill="none" stroke="white" stroke-width="2" points="327,-8 327,-54 405,-54 405,-8 327,-8"/>
</g>
<g id="clust6" class="cluster"><title>cluster_outflows_inner</title>
<polygon fill="none" stroke="white" stroke-width="2" points="335,-16 335,-46 397,-46 397,-16 335,-16"/>
</g>
<!-- FilterToNonMarine -->
<g id="node1" class="node"><title>FilterToNonMarine</title>
<polygon fill="#d6d6d7" stroke="black" points="296.25,-644 137.75,-644 137.75,-608 296.25,-608 296.25,-644"/>
<text text-anchor="middle" x="217" y="-622.3" font-family="Courier,monospace" font-size="14.00">FilterToNonMarine</text>
</g>
<!-- notMarineDataRecord -->
<g id="node10" class="node"><title>notMarineDataRecord</title>
<path fill="#d6d6d7" stroke="black" d="M125.5,-524.5C125.5,-524.5 254.5,-524.5 254.5,-524.5 260.5,-524.5 266.5,-530.5 266.5,-536.5 266.5,-536.5 266.5,-559.5 266.5,-559.5 266.5,-565.5 260.5,-571.5 254.5,-571.5 254.5,-571.5 125.5,-571.5 125.5,-571.5 119.5,-571.5 113.5,-565.5 113.5,-559.5 113.5,-559.5 113.5,-536.5 113.5,-536.5 113.5,-530.5 119.5,-524.5 125.5,-524.5"/>
<text text-anchor="middle" x="190" y="-556.3" font-family="Helvetica,sans-Serif" font-size="14.00">notMarineDataRecord</text>
<polyline fill="none" stroke="black" points="113.5,-548.5 266.5,-548.5 "/>
</g>
<!-- FilterToNonMarine&#45;&gt;notMarineDataRecord -->
<g id="edge20" class="edge"><title>FilterToNonMarine&#45;&gt;notMarineDataRecord</title>
<path fill="none" stroke="black" d="M210.873,-607.754C208.085,-599.907 204.692,-590.356 201.459,-581.255"/>
<polygon fill="black" stroke="black" points="204.695,-579.909 198.049,-571.658 198.099,-582.252 204.695,-579.909"/>
</g>
<!-- LogFile -->
<g id="node20" class="node"><title>LogFile</title>
<path fill="#ffe4b5" stroke="black" d="M478.5,-374C478.5,-374 525.5,-374 525.5,-374 531.5,-374 537.5,-380 537.5,-386 537.5,-386 537.5,-398 537.5,-398 537.5,-404 531.5,-410 525.5,-410 525.5,-410 478.5,-410 478.5,-410 472.5,-410 466.5,-404 466.5,-398 466.5,-398 466.5,-386 466.5,-386 466.5,-380 472.5,-374 478.5,-374"/>
<text text-anchor="middle" x="502" y="-398.8" font-family="Courier,monospace" font-weight="bold" font-size="9.00">LogFile</text>
<polyline fill="none" stroke="black" points="466.5,-392 537.5,-392 "/>
<text text-anchor="middle" x="502" y="-380.8" font-family="Courier,monospace" font-weight="bold" font-size="9.00">runlog.log</text>
</g>
<!-- FilterToNonMarine&#45;&gt;LogFile -->
<g id="edge19" class="edge"><title>FilterToNonMarine&#45;&gt;LogFile</title>
<path fill="none" stroke="black" d="M240.172,-607.829C251.81,-598.29 265.431,-585.615 275,-572 308.222,-524.729 281.605,-490.147 325,-452 370.672,-411.852 400.292,-437.954 457,-416 458.381,-415.465 459.775,-414.901 461.175,-414.314"/>
<polygon fill="black" stroke="black" points="462.725,-417.455 470.415,-410.167 459.858,-411.069 462.725,-417.455"/>
</g>
<!-- GBIFLookup -->
<g id="node2" class="node"><title>GBIFLookup</title>
<polygon fill="#d6d6d7" stroke="black" points="240.25,-488 139.75,-488 139.75,-452 240.25,-452 240.25,-488"/>
<text text-anchor="middle" x="190" y="-466.3" font-family="Courier,monospace" font-size="14.00">GBIFLookup</text>
</g>
<!-- GBIFUpdatedRecord -->
<g id="node11" class="node"><title>GBIFUpdatedRecord</title>
<path fill="#d6d6d7" stroke="black" d="M56.5,-368.5C56.5,-368.5 179.5,-368.5 179.5,-368.5 185.5,-368.5 191.5,-374.5 191.5,-380.5 191.5,-380.5 191.5,-403.5 191.5,-403.5 191.5,-409.5 185.5,-415.5 179.5,-415.5 179.5,-415.5 56.5,-415.5 56.5,-415.5 50.5,-415.5 44.5,-409.5 44.5,-403.5 44.5,-403.5 44.5,-380.5 44.5,-380.5 44.5,-374.5 50.5,-368.5 56.5,-368.5"/>
<text text-anchor="middle" x="118" y="-400.3" font-family="Helvetica,sans-Serif" font-size="14.00">GBIFUpdatedRecord</text>
<polyline fill="none" stroke="black" points="44.5,-392.5 191.5,-392.5 "/>
</g>
<!-- GBIFLookup&#45;&gt;GBIFUpdatedRecord -->
<g id="edge24" class="edge"><title>GBIFLookup&#45;&gt;GBIFUpdatedRecord</title>
<path fill="none" stroke="black" d="M173.662,-451.754C165.595,-443.239 155.627,-432.718 146.366,-422.942"/>
<polygon fill="black" stroke="black" points="148.884,-420.51 139.465,-415.658 143.802,-425.324 148.884,-420.51"/>
</g>
<!-- GBIFLookup&#45;&gt;LogFile -->
<g id="edge23" class="edge"><title>GBIFLookup&#45;&gt;LogFile</title>
<path fill="none" stroke="black" d="M240.259,-459.394C314.738,-445.106 446.788,-419.546 457,-416 458.595,-415.446 460.205,-414.845 461.819,-414.208"/>
<polygon fill="black" stroke="black" points="463.228,-417.412 471.017,-410.229 460.449,-410.987 463.228,-417.412"/>
</g>
<!-- Setup -->
<g id="node3" class="node"><title>Setup</title>
<polygon fill="#ccffcc" stroke="black" points="310.25,-1080 251.75,-1080 251.75,-1044 310.25,-1044 310.25,-1080"/>
<text text-anchor="middle" x="281" y="-1058.3" font-family="Courier,monospace" font-size="14.00">Setup</text>
</g>
<!-- Workspace -->
<g id="node17" class="node"><title>Workspace</title>
<path fill="#ffffcc" stroke="black" d="M161,-936C161,-936 123,-936 123,-936 117,-936 111,-930 111,-924 111,-924 111,-912 111,-912 111,-906 117,-900 123,-900 123,-900 161,-900 161,-900 167,-900 173,-906 173,-912 173,-912 173,-924 173,-924 173,-930 167,-936 161,-936"/>
<text text-anchor="middle" x="142" y="-915.8" font-family="Helvetica,sans-Serif" font-size="9.00">Workspace</text>
</g>
<!-- Setup&#45;&gt;Workspace -->
<g id="edge12" class="edge"><title>Setup&#45;&gt;Workspace</title>
<path fill="none" stroke="black" d="M264.233,-1043.87C239.709,-1018.82 193.931,-972.052 165.891,-943.406"/>
<polygon fill="black" stroke="black" points="168.322,-940.887 158.826,-936.189 163.32,-945.784 168.322,-940.887"/>
</g>
<!-- OccurrenceFile -->
<g id="node18" class="node"><title>OccurrenceFile</title>
<path fill="#ffffcc" stroke="black" d="M357,-1008C357,-1008 303,-1008 303,-1008 297,-1008 291,-1002 291,-996 291,-996 291,-984 291,-984 291,-978 297,-972 303,-972 303,-972 357,-972 357,-972 363,-972 369,-978 369,-984 369,-984 369,-996 369,-996 369,-1002 363,-1008 357,-1008"/>
<text text-anchor="middle" x="330" y="-987.8" font-family="Helvetica,sans-Serif" font-size="9.00">OccurrenceFile</text>
</g>
<!-- Setup&#45;&gt;OccurrenceFile -->
<g id="edge13" class="edge"><title>Setup&#45;&gt;OccurrenceFile</title>
<path fill="none" stroke="black" d="M293.112,-1043.7C298.868,-1035.47 305.862,-1025.48 312.206,-1016.42"/>
<polygon fill="black" stroke="black" points="315.16,-1018.3 318.027,-1008.1 309.425,-1014.29 315.16,-1018.3"/>
</g>
<!-- FileToDataStream -->
<g id="node4" class="node"><title>FileToDataStream</title>
<polygon fill="#ccffcc" stroke="black" points="429.25,-936 278.75,-936 278.75,-900 429.25,-900 429.25,-936"/>
<text text-anchor="middle" x="354" y="-914.3" font-family="Courier,monospace" font-size="14.00">FileToDataStream</text>
</g>
<!-- DataRecord -->
<g id="node12" class="node"><title>DataRecord</title>
<path fill="#f8d2db" stroke="black" d="M323,-827C323,-827 397,-827 397,-827 403,-827 409,-833 409,-839 409,-839 409,-851 409,-851 409,-857 403,-863 397,-863 397,-863 323,-863 323,-863 317,-863 311,-857 311,-851 311,-851 311,-839 311,-839 311,-833 317,-827 323,-827"/>
<text text-anchor="middle" x="360" y="-851.8" font-family="Courier,monospace" font-weight="bold" font-size="9.00">DataRecord</text>
<polyline fill="none" stroke="black" points="311,-845 409,-845 "/>
<text text-anchor="middle" x="360" y="-833.8" font-family="Courier,monospace" font-weight="bold" font-size="9.00">MCZ:Mala:303063</text>
</g>
<!-- FileToDataStream&#45;&gt;DataRecord -->
<g id="edge14" class="edge"><title>FileToDataStream&#45;&gt;DataRecord</title>
<path fill="none" stroke="black" d="M355.452,-899.813C356.13,-891.789 356.954,-882.047 357.712,-873.069"/>
<polygon fill="black" stroke="black" points="361.206,-873.288 358.561,-863.029 354.231,-872.699 361.206,-873.288"/>
</g>
<!-- EnvironmentTagger -->
<g id="node5" class="node"><title>EnvironmentTagger</title>
<polygon fill="#ccffcc" stroke="black" points="451.25,-790 292.75,-790 292.75,-754 451.25,-754 451.25,-790"/>
<text text-anchor="middle" x="372" y="-768.3" font-family="Courier,monospace" font-size="14.00">EnvironmentTagger</text>
</g>
<!-- TaggedDataRecord -->
<g id="node13" class="node"><title>TaggedDataRecord</title>
<path fill="#f8d2db" stroke="black" d="M332.5,-681C332.5,-681 411.5,-681 411.5,-681 417.5,-681 423.5,-687 423.5,-693 423.5,-693 423.5,-705 423.5,-705 423.5,-711 417.5,-717 411.5,-717 411.5,-717 332.5,-717 332.5,-717 326.5,-717 320.5,-711 320.5,-705 320.5,-705 320.5,-693 320.5,-693 320.5,-687 326.5,-681 332.5,-681"/>
<text text-anchor="middle" x="372" y="-705.8" font-family="Courier,monospace" font-weight="bold" font-size="9.00">TaggedDataRecord</text>
<polyline fill="none" stroke="black" points="320.5,-699 423.5,-699 "/>
<text text-anchor="middle" x="372" y="-687.8" font-family="Courier,monospace" font-weight="bold" font-size="9.00">Marine</text>
</g>
<!-- EnvironmentTagger&#45;&gt;TaggedDataRecord -->
<g id="edge16" class="edge"><title>EnvironmentTagger&#45;&gt;TaggedDataRecord</title>
<path fill="none" stroke="black" d="M372,-753.813C372,-745.789 372,-736.047 372,-727.069"/>
<polygon fill="black" stroke="black" points="375.5,-727.029 372,-717.029 368.5,-727.029 375.5,-727.029"/>
</g>
<!-- EnvironmentTagger&#45;&gt;LogFile -->
<g id="edge15" class="edge"><title>EnvironmentTagger&#45;&gt;LogFile</title>
<path fill="none" stroke="black" d="M407.69,-753.835C449.169,-731.103 512,-686.798 512,-627 512,-627 512,-627 512,-547 512,-502.617 507.813,-451.189 504.857,-420.419"/>
<polygon fill="black" stroke="black" points="508.301,-419.675 503.834,-410.068 501.335,-420.364 508.301,-419.675"/>
</g>
<!-- FilterToJustMarine -->
<g id="node6" class="node"><title>FilterToJustMarine</title>
<polygon fill="#ccffcc" stroke="black" points="483,-644 315,-644 315,-608 483,-608 483,-644"/>
<text text-anchor="middle" x="399" y="-622.3" font-family="Courier,monospace" font-size="14.00">FilterToJustMarine</text>
</g>
<!-- MarineDataRecord -->
<g id="node14" class="node"><title>MarineDataRecord</title>
<path fill="#f8d2db" stroke="black" d="M317,-530C317,-530 461,-530 461,-530 467,-530 473,-536 473,-542 473,-542 473,-554 473,-554 473,-560 467,-566 461,-566 461,-566 317,-566 317,-566 311,-566 305,-560 305,-554 305,-554 305,-542 305,-542 305,-536 311,-530 317,-530"/>
<text text-anchor="middle" x="389" y="-554.8" font-family="Courier,monospace" font-weight="bold" font-size="9.00">MarineDataRecord</text>
<polyline fill="none" stroke="black" points="305,-548 473,-548 "/>
<text text-anchor="middle" x="389" y="-536.8" font-family="Courier,monospace" font-weight="bold" font-size="9.00">Cypraea argus:Linnaeus, 1758</text>
</g>
<!-- FilterToJustMarine&#45;&gt;MarineDataRecord -->
<g id="edge18" class="edge"><title>FilterToJustMarine&#45;&gt;MarineDataRecord</title>
<path fill="none" stroke="black" d="M396.731,-607.754C395.503,-598.426 393.959,-586.691 392.574,-576.165"/>
<polygon fill="black" stroke="black" points="396.035,-575.635 391.26,-566.177 389.095,-576.548 396.035,-575.635"/>
</g>
<!-- FilterToJustMarine&#45;&gt;LogFile -->
<g id="edge17" class="edge"><title>FilterToJustMarine&#45;&gt;LogFile</title>
<path fill="none" stroke="black" d="M440.795,-607.819C456.245,-599.336 472.331,-587.53 482,-572 497.351,-547.345 500.954,-464.223 501.776,-420.465"/>
<polygon fill="black" stroke="black" points="505.279,-420.299 501.931,-410.248 498.28,-420.193 505.279,-420.299"/>
</g>
<!-- WoRMSLookup -->
<g id="node7" class="node"><title>WoRMSLookup</title>
<polygon fill="#ccffcc" stroke="black" points="443.25,-488 334.75,-488 334.75,-452 443.25,-452 443.25,-488"/>
<text text-anchor="middle" x="389" y="-466.3" font-family="Courier,monospace" font-size="14.00">WoRMSLookup</text>
</g>
<!-- WoRMSUpdatedRecord -->
<g id="node15" class="node"><title>WoRMSUpdatedRecord</title>
<path fill="#f8d2db" stroke="black" d="M222,-374C222,-374 436,-374 436,-374 442,-374 448,-380 448,-386 448,-386 448,-398 448,-398 448,-404 442,-410 436,-410 436,-410 222,-410 222,-410 216,-410 210,-404 210,-398 210,-398 210,-386 210,-386 210,-380 216,-374 222,-374"/>
<text text-anchor="middle" x="329" y="-398.8" font-family="Courier,monospace" font-weight="bold" font-size="9.00">WoRMSUpdatedRecord</text>
<polyline fill="none" stroke="black" points="210,-392 448,-392 "/>
<text text-anchor="middle" x="329" y="-380.8" font-family="Courier,monospace" font-weight="bold" font-size="9.00">urn:lsid:marinespecies.org:taxname:216786</text>
</g>
<!-- WoRMSLookup&#45;&gt;WoRMSUpdatedRecord -->
<g id="edge22" class="edge"><title>WoRMSLookup&#45;&gt;WoRMSUpdatedRecord</title>
<path fill="none" stroke="black" d="M375.385,-451.754C367.56,-441.843 357.59,-429.214 348.9,-418.207"/>
<polygon fill="black" stroke="black" points="351.505,-415.857 342.561,-410.177 346.01,-420.195 351.505,-415.857"/>
</g>
<!-- WoRMSLookup&#45;&gt;LogFile -->
<g id="edge21" class="edge"><title>WoRMSLookup&#45;&gt;LogFile</title>
<path fill="none" stroke="black" d="M414.359,-451.944C430.096,-441.36 450.521,-427.623 467.693,-416.074"/>
<polygon fill="black" stroke="black" points="469.99,-418.747 476.334,-410.262 466.083,-412.939 469.99,-418.747"/>
</g>
<!-- StreamMerge -->
<g id="node8" class="node"><title>StreamMerge</title>
<polygon fill="#ccffcc" stroke="black" points="256.25,-332 147.75,-332 147.75,-296 256.25,-296 256.25,-332"/>
<text text-anchor="middle" x="202" y="-310.3" font-family="Courier,monospace" font-size="14.00">StreamMerge</text>
</g>
<!-- MergedStream -->
<g id="node19" class="node"><title>MergedStream</title>
<path fill="#ffffcc" stroke="black" d="M228,-260C228,-260 176,-260 176,-260 170,-260 164,-254 164,-248 164,-248 164,-236 164,-236 164,-230 170,-224 176,-224 176,-224 228,-224 228,-224 234,-224 240,-230 240,-236 240,-236 240,-248 240,-248 240,-254 234,-260 228,-260"/>
<text text-anchor="middle" x="202" y="-239.8" font-family="Helvetica,sans-Serif" font-size="9.00">MergedStream</text>
</g>
<!-- StreamMerge&#45;&gt;MergedStream -->
<g id="edge25" class="edge"><title>StreamMerge&#45;&gt;MergedStream</title>
<path fill="none" stroke="black" d="M202,-295.697C202,-287.983 202,-278.712 202,-270.112"/>
<polygon fill="black" stroke="black" points="205.5,-270.104 202,-260.104 198.5,-270.104 205.5,-270.104"/>
</g>
<!-- CsvFileWriter -->
<g id="node9" class="node"><title>CsvFileWriter</title>
<polygon fill="#ccffcc" stroke="black" points="265,-188 139,-188 139,-152 265,-152 265,-188"/>
<text text-anchor="middle" x="202" y="-166.3" font-family="Courier,monospace" font-size="14.00">CsvFileWriter</text>
</g>
<!-- UpdatedOccurrenceFile -->
<g id="node21" class="node"><title>UpdatedOccurrenceFile</title>
<path fill="#ffe4b5" stroke="black" d="M72,-79C72,-79 426,-79 426,-79 432,-79 438,-85 438,-91 438,-91 438,-103 438,-103 438,-109 432,-115 426,-115 426,-115 72,-115 72,-115 66,-115 60,-109 60,-103 60,-103 60,-91 60,-91 60,-85 66,-79 72,-79"/>
<text text-anchor="middle" x="249" y="-103.8" font-family="Courier,monospace" font-weight="bold" font-size="9.00">UpdatedOccurrenceFile</text>
<polyline fill="none" stroke="black" points="60,-97 438,-97 "/>
<text text-anchor="middle" x="249" y="-85.8" font-family="Courier,monospace" font-weight="bold" font-size="9.00">workspace_6b2122c0&#45;a83b&#45;11e7&#45;aad3&#45;acbc3296f741/mergedoutputfile.csv</text>
</g>
<!-- CsvFileWriter&#45;&gt;UpdatedOccurrenceFile -->
<g id="edge26" class="edge"><title>CsvFileWriter&#45;&gt;UpdatedOccurrenceFile</title>
<path fill="none" stroke="black" d="M213.377,-151.813C218.977,-143.353 225.842,-132.984 232.045,-123.612"/>
<polygon fill="black" stroke="black" points="235.126,-125.299 237.727,-115.029 229.289,-121.435 235.126,-125.299"/>
</g>
<!-- notMarineDataRecord&#45;&gt;GBIFLookup -->
<g id="edge8" class="edge"><title>notMarineDataRecord&#45;&gt;GBIFLookup</title>
<path fill="none" stroke="black" d="M190,-524.197C190,-516.081 190,-506.858 190,-498.397"/>
<polygon fill="black" stroke="black" points="193.5,-498.228 190,-488.228 186.5,-498.228 193.5,-498.228"/>
</g>
<!-- GBIFUpdatedRecord&#45;&gt;StreamMerge -->
<g id="edge10" class="edge"><title>GBIFUpdatedRecord&#45;&gt;StreamMerge</title>
<path fill="none" stroke="black" d="M143.203,-368.197C153.369,-358.999 165.108,-348.379 175.41,-339.057"/>
<polygon fill="black" stroke="black" points="177.892,-341.532 182.959,-332.228 173.195,-336.342 177.892,-341.532"/>
</g>
<!-- DataRecord&#45;&gt;EnvironmentTagger -->
<g id="edge4" class="edge"><title>DataRecord&#45;&gt;EnvironmentTagger</title>
<path fill="none" stroke="black" d="M362.905,-826.813C364.261,-818.789 365.907,-809.047 367.425,-800.069"/>
<polygon fill="black" stroke="black" points="370.906,-800.472 369.122,-790.029 364.004,-799.306 370.906,-800.472"/>
</g>
<!-- TaggedDataRecord&#45;&gt;FilterToNonMarine -->
<g id="edge6" class="edge"><title>TaggedDataRecord&#45;&gt;FilterToNonMarine</title>
<path fill="none" stroke="black" d="M334.874,-680.994C313.463,-671.186 286.348,-658.766 263.524,-648.311"/>
<polygon fill="black" stroke="black" points="264.91,-645.096 254.361,-644.114 261.995,-651.46 264.91,-645.096"/>
</g>
<!-- TaggedDataRecord&#45;&gt;FilterToJustMarine -->
<g id="edge5" class="edge"><title>TaggedDataRecord&#45;&gt;FilterToJustMarine</title>
<path fill="none" stroke="black" d="M378.536,-680.813C381.653,-672.615 385.453,-662.623 388.928,-653.485"/>
<polygon fill="black" stroke="black" points="392.241,-654.62 392.524,-644.029 385.698,-652.132 392.241,-654.62"/>
</g>
<!-- MarineDataRecord&#45;&gt;WoRMSLookup -->
<g id="edge7" class="edge"><title>MarineDataRecord&#45;&gt;WoRMSLookup</title>
<path fill="none" stroke="black" d="M389,-529.754C389,-520.523 389,-508.935 389,-498.495"/>
<polygon fill="black" stroke="black" points="392.5,-498.177 389,-488.177 385.5,-498.177 392.5,-498.177"/>
</g>
<!-- WoRMSUpdatedRecord&#45;&gt;StreamMerge -->
<g id="edge9" class="edge"><title>WoRMSUpdatedRecord&#45;&gt;StreamMerge</title>
<path fill="none" stroke="black" d="M300.499,-373.944C282.488,-363.166 259.013,-349.118 239.499,-337.44"/>
<polygon fill="black" stroke="black" points="241.224,-334.394 230.846,-332.262 237.629,-340.4 241.224,-334.394"/>
</g>
<!-- DarwinCoreArchive -->
<g id="node16" class="node"><title>DarwinCoreArchive</title>
<path fill="#ffe4b5" stroke="black" d="M106.5,-1117C106.5,-1117 455.5,-1117 455.5,-1117 461.5,-1117 467.5,-1123 467.5,-1129 467.5,-1129 467.5,-1141 467.5,-1141 467.5,-1147 461.5,-1153 455.5,-1153 455.5,-1153 106.5,-1153 106.5,-1153 100.5,-1153 94.5,-1147 94.5,-1141 94.5,-1141 94.5,-1129 94.5,-1129 94.5,-1123 100.5,-1117 106.5,-1117"/>
<text text-anchor="middle" x="281" y="-1141.8" font-family="Courier,monospace" font-weight="bold" font-size="9.00">DarwinCoreArchive</text>
<polyline fill="none" stroke="black" points="94.5,-1135 467.5,-1135 "/>
<text text-anchor="middle" x="281" y="-1123.8" font-family="Courier,monospace" font-weight="bold" font-size="9.00">packages/kurator_branching_generic/data/kurator_sample_data_v2.txt</text>
</g>
<!-- DarwinCoreArchive&#45;&gt;Setup -->
<g id="edge1" class="edge"><title>DarwinCoreArchive&#45;&gt;Setup</title>
<path fill="none" stroke="black" d="M281,-1116.81C281,-1108.79 281,-1099.05 281,-1090.07"/>
<polygon fill="black" stroke="black" points="284.5,-1090.03 281,-1080.03 277.5,-1090.03 284.5,-1090.03"/>
</g>
<!-- Workspace&#45;&gt;CsvFileWriter -->
<g id="edge2" class="edge"><title>Workspace&#45;&gt;CsvFileWriter</title>
<path fill="none" stroke="black" d="M114.273,-899.804C79.6741,-875.963 25,-829.371 25,-773 25,-773 25,-773 25,-313 25,-252.547 88.595,-213.547 139.546,-192.002"/>
<polygon fill="black" stroke="black" points="140.962,-195.204 148.894,-188.181 138.313,-188.724 140.962,-195.204"/>
</g>
<!-- OccurrenceFile&#45;&gt;FileToDataStream -->
<g id="edge3" class="edge"><title>OccurrenceFile&#45;&gt;FileToDataStream</title>
<path fill="none" stroke="black" d="M335.933,-971.697C338.606,-963.898 341.826,-954.509 344.801,-945.829"/>
<polygon fill="black" stroke="black" points="348.203,-946.699 348.136,-936.104 341.582,-944.429 348.203,-946.699"/>
</g>
<!-- MergedStream&#45;&gt;CsvFileWriter -->
<g id="edge11" class="edge"><title>MergedStream&#45;&gt;CsvFileWriter</title>
<path fill="none" stroke="black" d="M202,-223.697C202,-215.983 202,-206.712 202,-198.112"/>
<polygon fill="black" stroke="black" points="205.5,-198.104 202,-188.104 198.5,-198.104 205.5,-198.104"/>
</g>
<!-- LogFile_outflow -->
<g id="node23" class="node"><title>LogFile_outflow</title>
<ellipse fill="none" stroke="black" cx="382" cy="-31" rx="7" ry="7"/>
</g>
<!-- LogFile&#45;&gt;LogFile_outflow -->
<g id="edge28" class="edge"><title>LogFile&#45;&gt;LogFile_outflow</title>
<path fill="none" stroke="black" d="M498.529,-373.766C493.299,-346.247 484,-290.626 484,-243 484,-243 484,-243 484,-169 484,-118.682 480.767,-99.3057 447,-62 434.232,-47.8946 413.493,-39.9315 398.88,-35.8084"/>
<polygon fill="black" stroke="black" points="399.293,-32.3044 388.744,-33.281 397.6,-39.0965 399.293,-32.3044"/>
</g>
<!-- UpdatedOccurrenceFile_outflow -->
<g id="node24" class="node"><title>UpdatedOccurrenceFile_outflow</title>
<ellipse fill="none" stroke="black" cx="350" cy="-31" rx="7" ry="7"/>
</g>
<!-- UpdatedOccurrenceFile&#45;&gt;UpdatedOccurrenceFile_outflow -->
<g id="edge29" class="edge"><title>UpdatedOccurrenceFile&#45;&gt;UpdatedOccurrenceFile_outflow</title>
<path fill="none" stroke="black" d="M276.066,-78.8492C295.239,-66.6999 320.203,-50.8812 335.661,-41.0862"/>
<polygon fill="black" stroke="black" points="337.716,-43.9275 344.29,-35.6185 333.969,-38.0146 337.716,-43.9275"/>
</g>
<!-- DarwinCoreArchive_inflow -->
<g id="node22" class="node"><title>DarwinCoreArchive_inflow</title>
<ellipse fill="none" stroke="black" cx="281" cy="-1201" rx="7" ry="7"/>
</g>
<!-- DarwinCoreArchive_inflow&#45;&gt;DarwinCoreArchive -->
<g id="edge27" class="edge"><title>DarwinCoreArchive_inflow&#45;&gt;DarwinCoreArchive</title>
<path fill="none" stroke="black" d="M281,-1193.63C281,-1186.54 281,-1174.6 281,-1163.42"/>
<polygon fill="black" stroke="black" points="284.5,-1163.12 281,-1153.12 277.5,-1163.12 284.5,-1163.12"/>
</g>
</g>
</svg>
