<?xml version="1.0" encoding="UTF-8" standalone="no"?>
<!DOCTYPE svg PUBLIC "-//W3C//DTD SVG 1.1//EN"
 "http://www.w3.org/Graphics/SVG/1.1/DTD/svg11.dtd">
<!-- Generated by graphviz version 2.36.0 (20140111.2315)
 -->
<!-- Title: yw_data_view Pages: 1 -->
<svg width="370pt" height="750pt"
 viewBox="0.00 0.00 370.00 750.00" xmlns="http://www.w3.org/2000/svg" xmlns:xlink="http://www.w3.org/1999/xlink">
<g id="graph0" class="graph" transform="scale(1 1) rotate(0) translate(4 746)">
<title>yw_data_view</title>
<polygon fill="white" stroke="none" points="-4,4 -4,-746 366,-746 366,4 -4,4"/>
<text text-anchor="middle" x="181" y="-723.6" font-family="Courier,monospace" font-size="18.00">FileBranchingTaxonLookupWorkflow</text>
<g id="clust1" class="cluster"><title>cluster_workflow</title>
<polygon fill="none" stroke="black" stroke-width="2" points="49.5,-8 49.5,-652 312.5,-652 312.5,-8 49.5,-8"/>
</g>
<g id="clust2" class="cluster"><title>cluster_workflow_inner</title>
<polygon fill="none" stroke="white" stroke-width="2" points="57.5,-16 57.5,-644 304.5,-644 304.5,-16 57.5,-16"/>
</g>
<g id="clust3" class="cluster"><title>cluster_inflows</title>
<polygon fill="none" stroke="white" stroke-width="2" points="138.5,-660 138.5,-706 216.5,-706 216.5,-660 138.5,-660"/>
</g>
<g id="clust4" class="cluster"><title>cluster_inflows_inner</title>
<polygon fill="none" stroke="white" stroke-width="2" points="146.5,-668 146.5,-698 208.5,-698 208.5,-668 146.5,-668"/>
</g>
<!-- EnvironmentTagger -->
<g id="node1" class="node"><title>EnvironmentTagger</title>
<polygon fill="#ccffcc" stroke="black" points="259.75,-276 101.25,-276 101.25,-240 259.75,-240 259.75,-276"/>
<text text-anchor="middle" x="180.5" y="-254.3" font-family="Courier,monospace" font-size="14.00">EnvironmentTagger</text>
</g>
<!-- TaggedDataRecord -->
<g id="node8" class="node"><title>TaggedDataRecord</title>
<path fill="#ffffcc" stroke="black" d="M237.75,-204C237.75,-204 123.25,-204 123.25,-204 117.25,-204 111.25,-198 111.25,-192 111.25,-192 111.25,-180 111.25,-180 111.25,-174 117.25,-168 123.25,-168 123.25,-168 237.75,-168 237.75,-168 243.75,-168 249.75,-174 249.75,-180 249.75,-180 249.75,-192 249.75,-192 249.75,-198 243.75,-204 237.75,-204"/>
<text text-anchor="middle" x="180.5" y="-182.3" font-family="Helvetica,sans-Serif" font-size="14.00">TaggedDataRecord</text>
</g>
<!-- EnvironmentTagger&#45;&gt;TaggedDataRecord -->
<g id="edge8" class="edge"><title>EnvironmentTagger&#45;&gt;TaggedDataRecord</title>
<path fill="none" stroke="black" d="M180.5,-239.697C180.5,-231.983 180.5,-222.712 180.5,-214.112"/>
<polygon fill="black" stroke="black" points="184,-214.104 180.5,-204.104 177,-214.104 184,-214.104"/>
</g>
<!-- FileToDataStream -->
<g id="node2" class="node"><title>FileToDataStream</title>
<polygon fill="#ccffcc" stroke="black" points="255.75,-420 105.25,-420 105.25,-384 255.75,-384 255.75,-420"/>
<text text-anchor="middle" x="180.5" y="-398.3" font-family="Courier,monospace" font-size="14.00">FileToDataStream</text>
</g>
<!-- DataRecord -->
<g id="node7" class="node"><title>DataRecord</title>
<path fill="#ffffcc" stroke="black" d="M213.75,-348C213.75,-348 147.25,-348 147.25,-348 141.25,-348 135.25,-342 135.25,-336 135.25,-336 135.25,-324 135.25,-324 135.25,-318 141.25,-312 147.25,-312 147.25,-312 213.75,-312 213.75,-312 219.75,-312 225.75,-318 225.75,-324 225.75,-324 225.75,-336 225.75,-336 225.75,-342 219.75,-348 213.75,-348"/>
<text text-anchor="middle" x="180.5" y="-326.3" font-family="Helvetica,sans-Serif" font-size="14.00">DataRecord</text>
</g>
<!-- FileToDataStream&#45;&gt;DataRecord -->
<g id="edge7" class="edge"><title>FileToDataStream&#45;&gt;DataRecord</title>
<path fill="none" stroke="black" d="M180.5,-383.697C180.5,-375.983 180.5,-366.712 180.5,-358.112"/>
<polygon fill="black" stroke="black" points="184,-358.104 180.5,-348.104 177,-358.104 184,-358.104"/>
</g>
<!-- Setup -->
<g id="node3" class="node"><title>Setup</title>
<polygon fill="#ccffcc" stroke="black" points="209.75,-564 151.25,-564 151.25,-528 209.75,-528 209.75,-564"/>
<text text-anchor="middle" x="180.5" y="-542.3" font-family="Courier,monospace" font-size="14.00">Setup</text>
</g>
<!-- OccurrenceFile -->
<g id="node6" class="node"><title>OccurrenceFile</title>
<path fill="#ffffcc" stroke="black" d="M223.75,-492C223.75,-492 137.25,-492 137.25,-492 131.25,-492 125.25,-486 125.25,-480 125.25,-480 125.25,-468 125.25,-468 125.25,-462 131.25,-456 137.25,-456 137.25,-456 223.75,-456 223.75,-456 229.75,-456 235.75,-462 235.75,-468 235.75,-468 235.75,-480 235.75,-480 235.75,-486 229.75,-492 223.75,-492"/>
<text text-anchor="middle" x="180.5" y="-470.3" font-family="Helvetica,sans-Serif" font-size="14.00">OccurrenceFile</text>
</g>
<!-- Setup&#45;&gt;OccurrenceFile -->
<g id="edge6" class="edge"><title>Setup&#45;&gt;OccurrenceFile</title>
<path fill="none" stroke="black" d="M180.5,-527.697C180.5,-519.983 180.5,-510.712 180.5,-502.112"/>
<polygon fill="black" stroke="black" points="184,-502.104 180.5,-492.104 177,-502.104 184,-502.104"/>
</g>
<!-- FilterToJustMarine -->
<g id="node4" class="node"><title>FilterToJustMarine</title>
<polygon fill="#ccffcc" stroke="black" points="264.5,-132 96.5,-132 96.5,-96 264.5,-96 264.5,-132"/>
<text text-anchor="middle" x="180.5" y="-110.3" font-family="Courier,monospace" font-size="14.00">FilterToJustMarine</text>
</g>
<!-- MarineDataRecord -->
<g id="node9" class="node"><title>MarineDataRecord</title>
<path fill="#ffffcc" stroke="black" d="M235.5,-60C235.5,-60 125.5,-60 125.5,-60 119.5,-60 113.5,-54 113.5,-48 113.5,-48 113.5,-36 113.5,-36 113.5,-30 119.5,-24 125.5,-24 125.5,-24 235.5,-24 235.5,-24 241.5,-24 247.5,-30 247.5,-36 247.5,-36 247.5,-48 247.5,-48 247.5,-54 241.5,-60 235.5,-60"/>
<text text-anchor="middle" x="180.5" y="-38.3" font-family="Helvetica,sans-Serif" font-size="14.00">MarineDataRecord</text>
</g>
<!-- FilterToJustMarine&#45;&gt;MarineDataRecord -->
<g id="edge9" class="edge"><title>FilterToJustMarine&#45;&gt;MarineDataRecord</title>
<path fill="none" stroke="black" d="M180.5,-95.6966C180.5,-87.9827 180.5,-78.7125 180.5,-70.1124"/>
<polygon fill="black" stroke="black" points="184,-70.1043 180.5,-60.1043 177,-70.1044 184,-70.1043"/>
</g>
<!-- DarwinCoreFile -->
<g id="node5" class="node"><title>DarwinCoreFile</title>
<path fill="#ffffcc" stroke="black" d="M283.75,-636C283.75,-636 195.25,-636 195.25,-636 189.25,-636 183.25,-630 183.25,-624 183.25,-624 183.25,-612 183.25,-612 183.25,-606 189.25,-600 195.25,-600 195.25,-600 283.75,-600 283.75,-600 289.75,-600 295.75,-606 295.75,-612 295.75,-612 295.75,-624 295.75,-624 295.75,-630 289.75,-636 283.75,-636"/>
<text text-anchor="middle" x="239.5" y="-614.3" font-family="Helvetica,sans-Serif" font-size="14.00">DarwinCoreFile</text>
</g>
<!-- DarwinCoreFile&#45;&gt;Setup -->
<g id="edge4" class="edge"><title>DarwinCoreFile&#45;&gt;Setup</title>
<path fill="none" stroke="black" d="M224.916,-599.697C217.842,-591.305 209.217,-581.07 201.455,-571.861"/>
<polygon fill="black" stroke="black" points="204.037,-569.495 194.917,-564.104 198.685,-574.006 204.037,-569.495"/>
</g>
<!-- OccurrenceFile&#45;&gt;FileToDataStream -->
<g id="edge3" class="edge"><title>OccurrenceFile&#45;&gt;FileToDataStream</title>
<path fill="none" stroke="black" d="M180.5,-455.697C180.5,-447.983 180.5,-438.712 180.5,-430.112"/>
<polygon fill="black" stroke="black" points="184,-430.104 180.5,-420.104 177,-430.104 184,-430.104"/>
</g>
<!-- DataRecord&#45;&gt;EnvironmentTagger -->
<g id="edge2" class="edge"><title>DataRecord&#45;&gt;EnvironmentTagger</title>
<path fill="none" stroke="black" d="M180.5,-311.697C180.5,-303.983 180.5,-294.712 180.5,-286.112"/>
<polygon fill="black" stroke="black" points="184,-286.104 180.5,-276.104 177,-286.104 184,-286.104"/>
</g>
<!-- TaggedDataRecord&#45;&gt;FilterToJustMarine -->
<g id="edge1" class="edge"><title>TaggedDataRecord&#45;&gt;FilterToJustMarine</title>
<path fill="none" stroke="black" d="M180.5,-167.697C180.5,-159.983 180.5,-150.712 180.5,-142.112"/>
<polygon fill="black" stroke="black" points="184,-142.104 180.5,-132.104 177,-142.104 184,-142.104"/>
</g>
<!-- InputFilePath -->
<g id="node10" class="node"><title>InputFilePath</title>
<path fill="#ffffff" stroke="black" d="M152.75,-636C152.75,-636 78.25,-636 78.25,-636 72.25,-636 66.25,-630 66.25,-624 66.25,-624 66.25,-612 66.25,-612 66.25,-606 72.25,-600 78.25,-600 78.25,-600 152.75,-600 152.75,-600 158.75,-600 164.75,-606 164.75,-612 164.75,-612 164.75,-624 164.75,-624 164.75,-630 158.75,-636 152.75,-636"/>
<text text-anchor="middle" x="115.5" y="-614.3" font-family="Helvetica,sans-Serif" font-size="14.00">InputFilePath</text>
</g>
<!-- InputFilePath&#45;&gt;Setup -->
<g id="edge5" class="edge"><title>InputFilePath&#45;&gt;Setup</title>
<path fill="none" stroke="black" d="M131.567,-599.697C139.439,-591.22 149.055,-580.864 157.673,-571.583"/>
<polygon fill="black" stroke="black" points="160.378,-573.814 164.617,-564.104 155.248,-569.051 160.378,-573.814"/>
</g>
<!-- DarwinCoreFile_inflow -->
<g id="node11" class="node"><title>DarwinCoreFile_inflow</title>
<ellipse fill="none" stroke="black" cx="193.5" cy="-683" rx="7" ry="7"/>
</g>
<!-- DarwinCoreFile_inflow&#45;&gt;DarwinCoreFile -->
<g id="edge10" class="edge"><title>DarwinCoreFile_inflow&#45;&gt;DarwinCoreFile</title>
<path fill="none" stroke="black" d="M197.422,-676.629C202.632,-669.493 212.192,-656.4 220.884,-644.496"/>
<polygon fill="black" stroke="black" points="223.915,-646.28 226.985,-636.14 218.262,-642.152 223.915,-646.28"/>
</g>
<!-- InputFilePath_inflow -->
<g id="node12" class="node"><title>InputFilePath_inflow</title>
<ellipse fill="none" stroke="black" cx="161.5" cy="-683" rx="7" ry="7"/>
</g>
<!-- InputFilePath_inflow&#45;&gt;InputFilePath -->
<g id="edge11" class="edge"><title>InputFilePath_inflow&#45;&gt;InputFilePath</title>
<path fill="none" stroke="black" d="M157.578,-676.629C152.368,-669.493 142.808,-656.4 134.116,-644.496"/>
<polygon fill="black" stroke="black" points="136.738,-642.152 128.015,-636.14 131.085,-646.28 136.738,-642.152"/>
</g>
</g>
</svg>
