<?xml version="1.0" encoding="UTF-8" standalone="no"?>
<!DOCTYPE svg PUBLIC "-//W3C//DTD SVG 1.1//EN"
 "http://www.w3.org/Graphics/SVG/1.1/DTD/svg11.dtd">
<!-- Generated by graphviz version 2.36.0 (20140111.2315)
 -->
<!-- Title: yw_data_view Pages: 1 -->
<svg width="422pt" height="948pt"
 viewBox="0.00 0.00 422.00 948.00" xmlns="http://www.w3.org/2000/svg" xmlns:xlink="http://www.w3.org/1999/xlink">
<g id="graph0" class="graph" transform="scale(1 1) rotate(0) translate(4 944)">
<title>yw_data_view</title>
<polygon fill="white" stroke="none" points="-4,4 -4,-944 418,-944 418,4 -4,4"/>
<text text-anchor="middle" x="207" y="-921.6" font-family="Courier,monospace" font-size="18.00">DwCA_Taxon_Lookup</text>
<g id="clust1" class="cluster"><title>cluster_workflow</title>
<polygon fill="none" stroke="black" stroke-width="2" points="8,-62 8,-850 406,-850 406,-62 8,-62"/>
</g>
<g id="clust2" class="cluster"><title>cluster_workflow_inner</title>
<polygon fill="none" stroke="white" stroke-width="2" points="16,-70 16,-842 398,-842 398,-70 16,-70"/>
</g>
<g id="clust3" class="cluster"><title>cluster_inflows</title>
<polygon fill="none" stroke="white" stroke-width="2" points="91,-858 91,-904 137,-904 137,-858 91,-858"/>
</g>
<g id="clust4" class="cluster"><title>cluster_inflows_inner</title>
<polygon fill="none" stroke="white" stroke-width="2" points="99,-866 99,-896 129,-896 129,-866 99,-866"/>
</g>
<g id="clust5" class="cluster"><title>cluster_outflows</title>
<polygon fill="none" stroke="white" stroke-width="2" points="118,-8 118,-54 164,-54 164,-8 118,-8"/>
</g>
<g id="clust6" class="cluster"><title>cluster_outflows_inner</title>
<polygon fill="none" stroke="white" stroke-width="2" points="126,-16 126,-46 156,-46 156,-16 126,-16"/>
</g>
<!-- FileToDataStream -->
<g id="node1" class="node"><title>FileToDataStream</title>
<polygon fill="#ccffcc" stroke="black" points="189.25,-618 38.75,-618 38.75,-582 189.25,-582 189.25,-618"/>
<text text-anchor="middle" x="114" y="-596.3" font-family="Courier,monospace" font-size="14.00">FileToDataStream</text>
</g>
<!-- DataRecord -->
<g id="node10" class="node"><title>DataRecord</title>
<path fill="#ffffcc" stroke="black" d="M147.25,-546C147.25,-546 80.75,-546 80.75,-546 74.75,-546 68.75,-540 68.75,-534 68.75,-534 68.75,-522 68.75,-522 68.75,-516 74.75,-510 80.75,-510 80.75,-510 147.25,-510 147.25,-510 153.25,-510 159.25,-516 159.25,-522 159.25,-522 159.25,-534 159.25,-534 159.25,-540 153.25,-546 147.25,-546"/>
<text text-anchor="middle" x="114" y="-524.3" font-family="Helvetica,sans-Serif" font-size="14.00">DataRecord</text>
</g>
<!-- FileToDataStream&#45;&gt;DataRecord -->
<g id="edge9" class="edge"><title>FileToDataStream&#45;&gt;DataRecord</title>
<path fill="none" stroke="black" d="M114,-581.697C114,-573.983 114,-564.712 114,-556.112"/>
<polygon fill="black" stroke="black" points="117.5,-556.104 114,-546.104 110.5,-556.104 117.5,-556.104"/>
</g>
<!-- Setup -->
<g id="node2" class="node"><title>Setup</title>
<polygon fill="#ccffcc" stroke="black" points="143.25,-762 84.75,-762 84.75,-726 143.25,-726 143.25,-762"/>
<text text-anchor="middle" x="114" y="-740.3" font-family="Courier,monospace" font-size="14.00">Setup</text>
</g>
<!-- OccurrenceFile -->
<g id="node9" class="node"><title>OccurrenceFile</title>
<path fill="#ffffcc" stroke="black" d="M157.25,-690C157.25,-690 70.75,-690 70.75,-690 64.75,-690 58.75,-684 58.75,-678 58.75,-678 58.75,-666 58.75,-666 58.75,-660 64.75,-654 70.75,-654 70.75,-654 157.25,-654 157.25,-654 163.25,-654 169.25,-660 169.25,-666 169.25,-666 169.25,-678 169.25,-678 169.25,-684 163.25,-690 157.25,-690"/>
<text text-anchor="middle" x="114" y="-668.3" font-family="Helvetica,sans-Serif" font-size="14.00">OccurrenceFile</text>
</g>
<!-- Setup&#45;&gt;OccurrenceFile -->
<g id="edge8" class="edge"><title>Setup&#45;&gt;OccurrenceFile</title>
<path fill="none" stroke="black" d="M114,-725.697C114,-717.983 114,-708.712 114,-700.112"/>
<polygon fill="black" stroke="black" points="117.5,-700.104 114,-690.104 110.5,-700.104 117.5,-700.104"/>
</g>
<!-- GBIFLookup -->
<g id="node3" class="node"><title>GBIFLookup</title>
<polygon fill="#ccffcc" stroke="black" points="191.25,-186 90.75,-186 90.75,-150 191.25,-150 191.25,-186"/>
<text text-anchor="middle" x="141" y="-164.3" font-family="Courier,monospace" font-size="14.00">GBIFLookup</text>
</g>
<!-- LogFile -->
<g id="node11" class="node"><title>LogFile</title>
<path fill="#ffffcc" stroke="black" d="M160,-114C160,-114 122,-114 122,-114 116,-114 110,-108 110,-102 110,-102 110,-90 110,-90 110,-84 116,-78 122,-78 122,-78 160,-78 160,-78 166,-78 172,-84 172,-90 172,-90 172,-102 172,-102 172,-108 166,-114 160,-114"/>
<text text-anchor="middle" x="141" y="-92.3" font-family="Helvetica,sans-Serif" font-size="14.00">LogFile</text>
</g>
<!-- GBIFLookup&#45;&gt;LogFile -->
<g id="edge17" class="edge"><title>GBIFLookup&#45;&gt;LogFile</title>
<path fill="none" stroke="black" d="M141,-149.697C141,-141.983 141,-132.712 141,-124.112"/>
<polygon fill="black" stroke="black" points="144.5,-124.104 141,-114.104 137.5,-124.104 144.5,-124.104"/>
</g>
<!-- WoRMSLookup -->
<g id="node4" class="node"><title>WoRMSLookup</title>
<polygon fill="#ccffcc" stroke="black" points="371.25,-186 262.75,-186 262.75,-150 371.25,-150 371.25,-186"/>
<text text-anchor="middle" x="317" y="-164.3" font-family="Courier,monospace" font-size="14.00">WoRMSLookup</text>
</g>
<!-- WoRMSLookup&#45;&gt;LogFile -->
<g id="edge16" class="edge"><title>WoRMSLookup&#45;&gt;LogFile</title>
<path fill="none" stroke="black" d="M273.946,-149.876C245.725,-138.652 209.075,-124.075 181.405,-113.07"/>
<polygon fill="black" stroke="black" points="182.606,-109.781 172.021,-109.338 180.019,-116.286 182.606,-109.781"/>
</g>
<!-- FilterToNonMarine -->
<g id="node5" class="node"><title>FilterToNonMarine</title>
<polygon fill="#ccffcc" stroke="black" points="203.25,-330 44.75,-330 44.75,-294 203.25,-294 203.25,-330"/>
<text text-anchor="middle" x="124" y="-308.3" font-family="Courier,monospace" font-size="14.00">FilterToNonMarine</text>
</g>
<!-- FilterToNonMarine&#45;&gt;LogFile -->
<g id="edge14" class="edge"><title>FilterToNonMarine&#45;&gt;LogFile</title>
<path fill="none" stroke="black" d="M90.1639,-293.961C76.6207,-285.216 62.4788,-273.175 55,-258 47.9269,-243.648 52.2415,-237.76 55,-222 60.8656,-188.487 61.8765,-178.139 81,-150 88.4588,-139.025 98.6998,-128.864 108.61,-120.437"/>
<polygon fill="black" stroke="black" points="110.886,-123.097 116.428,-114.067 106.464,-117.67 110.886,-123.097"/>
</g>
<!-- notMarineDataRecord -->
<g id="node14" class="node"><title>notMarineDataRecord</title>
<path fill="#ffffcc" stroke="black" d="M205.25,-258C205.25,-258 76.75,-258 76.75,-258 70.75,-258 64.75,-252 64.75,-246 64.75,-246 64.75,-234 64.75,-234 64.75,-228 70.75,-222 76.75,-222 76.75,-222 205.25,-222 205.25,-222 211.25,-222 217.25,-228 217.25,-234 217.25,-234 217.25,-246 217.25,-246 217.25,-252 211.25,-258 205.25,-258"/>
<text text-anchor="middle" x="141" y="-236.3" font-family="Helvetica,sans-Serif" font-size="14.00">notMarineDataRecord</text>
</g>
<!-- FilterToNonMarine&#45;&gt;notMarineDataRecord -->
<g id="edge15" class="edge"><title>FilterToNonMarine&#45;&gt;notMarineDataRecord</title>
<path fill="none" stroke="black" d="M128.202,-293.697C130.096,-285.898 132.377,-276.509 134.484,-267.829"/>
<polygon fill="black" stroke="black" points="137.887,-268.648 136.846,-258.104 131.085,-266.996 137.887,-268.648"/>
</g>
<!-- FilterToJustMarine -->
<g id="node6" class="node"><title>FilterToJustMarine</title>
<polygon fill="#ccffcc" stroke="black" points="390,-330 222,-330 222,-294 390,-294 390,-330"/>
<text text-anchor="middle" x="306" y="-308.3" font-family="Courier,monospace" font-size="14.00">FilterToJustMarine</text>
</g>
<!-- FilterToJustMarine&#45;&gt;LogFile -->
<g id="edge12" class="edge"><title>FilterToJustMarine&#45;&gt;LogFile</title>
<path fill="none" stroke="black" d="M282.503,-293.838C270.685,-284.301 256.824,-271.626 247,-258 216.384,-215.538 230.616,-192.462 200,-150 192.248,-139.248 181.983,-129.088 172.192,-120.595"/>
<polygon fill="black" stroke="black" points="174.414,-117.892 164.497,-114.162 169.924,-123.262 174.414,-117.892"/>
</g>
<!-- MarineDataRecord -->
<g id="node13" class="node"><title>MarineDataRecord</title>
<path fill="#ffffcc" stroke="black" d="M378,-258C378,-258 268,-258 268,-258 262,-258 256,-252 256,-246 256,-246 256,-234 256,-234 256,-228 262,-222 268,-222 268,-222 378,-222 378,-222 384,-222 390,-228 390,-234 390,-234 390,-246 390,-246 390,-252 384,-258 378,-258"/>
<text text-anchor="middle" x="323" y="-236.3" font-family="Helvetica,sans-Serif" font-size="14.00">MarineDataRecord</text>
</g>
<!-- FilterToJustMarine&#45;&gt;MarineDataRecord -->
<g id="edge13" class="edge"><title>FilterToJustMarine&#45;&gt;MarineDataRecord</title>
<path fill="none" stroke="black" d="M310.202,-293.697C312.096,-285.898 314.377,-276.509 316.484,-267.829"/>
<polygon fill="black" stroke="black" points="319.887,-268.648 318.846,-258.104 313.085,-266.996 319.887,-268.648"/>
</g>
<!-- EnvironmentTagger -->
<g id="node7" class="node"><title>EnvironmentTagger</title>
<polygon fill="#ccffcc" stroke="black" points="193.25,-474 34.75,-474 34.75,-438 193.25,-438 193.25,-474"/>
<text text-anchor="middle" x="114" y="-452.3" font-family="Courier,monospace" font-size="14.00">EnvironmentTagger</text>
</g>
<!-- EnvironmentTagger&#45;&gt;LogFile -->
<g id="edge10" class="edge"><title>EnvironmentTagger&#45;&gt;LogFile</title>
<path fill="none" stroke="black" d="M82.7722,-437.8C69.2246,-428.821 54.3509,-416.639 45,-402 23.176,-367.833 25,-353.542 25,-313 25,-313 25,-313 25,-239 25,-196.656 32.3431,-182.9 59,-150 70.2231,-136.148 86.0646,-124.733 100.835,-116.089"/>
<polygon fill="black" stroke="black" points="102.812,-118.995 109.843,-111.069 99.4044,-112.88 102.812,-118.995"/>
</g>
<!-- TaggedDataRecord -->
<g id="node12" class="node"><title>TaggedDataRecord</title>
<path fill="#ffffcc" stroke="black" d="M181.25,-402C181.25,-402 66.75,-402 66.75,-402 60.75,-402 54.75,-396 54.75,-390 54.75,-390 54.75,-378 54.75,-378 54.75,-372 60.75,-366 66.75,-366 66.75,-366 181.25,-366 181.25,-366 187.25,-366 193.25,-372 193.25,-378 193.25,-378 193.25,-390 193.25,-390 193.25,-396 187.25,-402 181.25,-402"/>
<text text-anchor="middle" x="124" y="-380.3" font-family="Helvetica,sans-Serif" font-size="14.00">TaggedDataRecord</text>
</g>
<!-- EnvironmentTagger&#45;&gt;TaggedDataRecord -->
<g id="edge11" class="edge"><title>EnvironmentTagger&#45;&gt;TaggedDataRecord</title>
<path fill="none" stroke="black" d="M116.472,-437.697C117.574,-429.983 118.898,-420.712 120.127,-412.112"/>
<polygon fill="black" stroke="black" points="123.607,-412.499 121.557,-402.104 116.677,-411.509 123.607,-412.499"/>
</g>
<!-- DarwinCoreArchive -->
<g id="node8" class="node"><title>DarwinCoreArchive</title>
<path fill="#ffffcc" stroke="black" d="M170.25,-834C170.25,-834 57.75,-834 57.75,-834 51.75,-834 45.75,-828 45.75,-822 45.75,-822 45.75,-810 45.75,-810 45.75,-804 51.75,-798 57.75,-798 57.75,-798 170.25,-798 170.25,-798 176.25,-798 182.25,-804 182.25,-810 182.25,-810 182.25,-822 182.25,-822 182.25,-828 176.25,-834 170.25,-834"/>
<text text-anchor="middle" x="114" y="-812.3" font-family="Helvetica,sans-Serif" font-size="14.00">DarwinCoreArchive</text>
</g>
<!-- DarwinCoreArchive&#45;&gt;Setup -->
<g id="edge7" class="edge"><title>DarwinCoreArchive&#45;&gt;Setup</title>
<path fill="none" stroke="black" d="M114,-797.697C114,-789.983 114,-780.712 114,-772.112"/>
<polygon fill="black" stroke="black" points="117.5,-772.104 114,-762.104 110.5,-772.104 117.5,-772.104"/>
</g>
<!-- OccurrenceFile&#45;&gt;FileToDataStream -->
<g id="edge6" class="edge"><title>OccurrenceFile&#45;&gt;FileToDataStream</title>
<path fill="none" stroke="black" d="M114,-653.697C114,-645.983 114,-636.712 114,-628.112"/>
<polygon fill="black" stroke="black" points="117.5,-628.104 114,-618.104 110.5,-628.104 117.5,-628.104"/>
</g>
<!-- DataRecord&#45;&gt;EnvironmentTagger -->
<g id="edge5" class="edge"><title>DataRecord&#45;&gt;EnvironmentTagger</title>
<path fill="none" stroke="black" d="M114,-509.697C114,-501.983 114,-492.712 114,-484.112"/>
<polygon fill="black" stroke="black" points="117.5,-484.104 114,-474.104 110.5,-484.104 117.5,-484.104"/>
</g>
<!-- LogFile_outflow -->
<g id="node16" class="node"><title>LogFile_outflow</title>
<ellipse fill="none" stroke="black" cx="141" cy="-31" rx="7" ry="7"/>
</g>
<!-- LogFile&#45;&gt;LogFile_outflow -->
<g id="edge19" class="edge"><title>LogFile&#45;&gt;LogFile_outflow</title>
<path fill="none" stroke="black" d="M141,-77.785C141,-68.6656 141,-57.5197 141,-48.5085"/>
<polygon fill="black" stroke="black" points="144.5,-48.242 141,-38.242 137.5,-48.2421 144.5,-48.242"/>
</g>
<!-- TaggedDataRecord&#45;&gt;FilterToNonMarine -->
<g id="edge3" class="edge"><title>TaggedDataRecord&#45;&gt;FilterToNonMarine</title>
<path fill="none" stroke="black" d="M124,-365.697C124,-357.983 124,-348.712 124,-340.112"/>
<polygon fill="black" stroke="black" points="127.5,-340.104 124,-330.104 120.5,-340.104 127.5,-340.104"/>
</g>
<!-- TaggedDataRecord&#45;&gt;FilterToJustMarine -->
<g id="edge4" class="edge"><title>TaggedDataRecord&#45;&gt;FilterToJustMarine</title>
<path fill="none" stroke="black" d="M168.522,-365.876C193.734,-356.179 225.453,-343.98 252.069,-333.743"/>
<polygon fill="black" stroke="black" points="253.545,-336.925 261.622,-330.068 251.032,-330.391 253.545,-336.925"/>
</g>
<!-- MarineDataRecord&#45;&gt;WoRMSLookup -->
<g id="edge2" class="edge"><title>MarineDataRecord&#45;&gt;WoRMSLookup</title>
<path fill="none" stroke="black" d="M321.517,-221.697C320.856,-213.983 320.061,-204.712 319.324,-196.112"/>
<polygon fill="black" stroke="black" points="322.807,-195.769 318.466,-186.104 315.833,-196.367 322.807,-195.769"/>
</g>
<!-- notMarineDataRecord&#45;&gt;GBIFLookup -->
<g id="edge1" class="edge"><title>notMarineDataRecord&#45;&gt;GBIFLookup</title>
<path fill="none" stroke="black" d="M141,-221.697C141,-213.983 141,-204.712 141,-196.112"/>
<polygon fill="black" stroke="black" points="144.5,-196.104 141,-186.104 137.5,-196.104 144.5,-196.104"/>
</g>
<!-- DarwinCoreArchive_inflow -->
<g id="node15" class="node"><title>DarwinCoreArchive_inflow</title>
<ellipse fill="none" stroke="black" cx="114" cy="-881" rx="7" ry="7"/>
</g>
<!-- DarwinCoreArchive_inflow&#45;&gt;DarwinCoreArchive -->
<g id="edge18" class="edge"><title>DarwinCoreArchive_inflow&#45;&gt;DarwinCoreArchive</title>
<path fill="none" stroke="black" d="M114,-873.729C114,-866.795 114,-855.154 114,-844.215"/>
<polygon fill="black" stroke="black" points="117.5,-844.119 114,-834.119 110.5,-844.119 117.5,-844.119"/>
</g>
</g>
</svg>
