<?xml version="1.0" encoding="UTF-8" standalone="no"?>
<!DOCTYPE svg PUBLIC "-//W3C//DTD SVG 1.1//EN"
 "http://www.w3.org/Graphics/SVG/1.1/DTD/svg11.dtd">
<!-- Generated by graphviz version 2.36.0 (20140111.2315)
 -->
<!-- Title: yw_data_view Pages: 1 -->
<svg width="442pt" height="948pt"
 viewBox="0.00 0.00 442.00 948.00" xmlns="http://www.w3.org/2000/svg" xmlns:xlink="http://www.w3.org/1999/xlink">
<g id="graph0" class="graph" transform="scale(1 1) rotate(0) translate(4 944)">
<title>yw_data_view</title>
<polygon fill="white" stroke="none" points="-4,4 -4,-944 438,-944 438,4 -4,4"/>
<text text-anchor="middle" x="217" y="-921.6" font-family="Courier,monospace" font-size="18.00">DwCA_Taxon_Lookup</text>
<g id="clust3" class="cluster"><title>cluster_inflows</title>
<polygon fill="none" stroke="white" stroke-width="2" points="73,-858 73,-904 119,-904 119,-858 73,-858"/>
</g>
<g id="clust4" class="cluster"><title>cluster_inflows_inner</title>
<polygon fill="none" stroke="white" stroke-width="2" points="81,-866 81,-896 111,-896 111,-866 81,-866"/>
</g>
<g id="clust1" class="cluster"><title>cluster_workflow</title>
<polygon fill="none" stroke="black" stroke-width="2" points="8,-62 8,-850 426,-850 426,-62 8,-62"/>
</g>
<g id="clust2" class="cluster"><title>cluster_workflow_inner</title>
<polygon fill="none" stroke="white" stroke-width="2" points="16,-70 16,-842 418,-842 418,-70 16,-70"/>
</g>
<g id="clust5" class="cluster"><title>cluster_outflows</title>
<polygon fill="none" stroke="white" stroke-width="2" points="83,-8 83,-54 129,-54 129,-8 83,-8"/>
</g>
<g id="clust6" class="cluster"><title>cluster_outflows_inner</title>
<polygon fill="none" stroke="white" stroke-width="2" points="91,-16 91,-46 121,-46 121,-16 91,-16"/>
</g>
<!-- FileToDataStream -->
<g id="node1" class="node"><title>FileToDataStream</title>
<polygon fill="#ccffcc" stroke="black" points="197.25,-618 46.75,-618 46.75,-582 197.25,-582 197.25,-618"/>
<text text-anchor="middle" x="122" y="-596.3" font-family="Courier,monospace" font-size="14.00">FileToDataStream</text>
</g>
<!-- DataRecord -->
<g id="node11" class="node"><title>DataRecord</title>
<path fill="#ffffcc" stroke="black" d="M156.25,-546C156.25,-546 89.75,-546 89.75,-546 83.75,-546 77.75,-540 77.75,-534 77.75,-534 77.75,-522 77.75,-522 77.75,-516 83.75,-510 89.75,-510 89.75,-510 156.25,-510 156.25,-510 162.25,-510 168.25,-516 168.25,-522 168.25,-522 168.25,-534 168.25,-534 168.25,-540 162.25,-546 156.25,-546"/>
<text text-anchor="middle" x="123" y="-524.3" font-family="Helvetica,sans-Serif" font-size="14.00">DataRecord</text>
</g>
<!-- FileToDataStream&#45;&gt;DataRecord -->
<g id="edge10" class="edge"><title>FileToDataStream&#45;&gt;DataRecord</title>
<path fill="none" stroke="black" d="M122.247,-581.697C122.357,-573.983 122.49,-564.712 122.613,-556.112"/>
<polygon fill="black" stroke="black" points="126.112,-556.153 122.756,-546.104 119.113,-556.053 126.112,-556.153"/>
</g>
<!-- GBIFLookup -->
<g id="node2" class="node"><title>GBIFLookup</title>
<polygon fill="#ccffcc" stroke="black" points="198.25,-186 97.75,-186 97.75,-150 198.25,-150 198.25,-186"/>
<text text-anchor="middle" x="148" y="-164.3" font-family="Courier,monospace" font-size="14.00">GBIFLookup</text>
</g>
<!-- LogFile -->
<g id="node9" class="node"><title>LogFile</title>
<path fill="#ffffcc" stroke="black" d="M125,-114C125,-114 87,-114 87,-114 81,-114 75,-108 75,-102 75,-102 75,-90 75,-90 75,-84 81,-78 87,-78 87,-78 125,-78 125,-78 131,-78 137,-84 137,-90 137,-90 137,-102 137,-102 137,-108 131,-114 125,-114"/>
<text text-anchor="middle" x="106" y="-92.3" font-family="Helvetica,sans-Serif" font-size="14.00">LogFile</text>
</g>
<!-- GBIFLookup&#45;&gt;LogFile -->
<g id="edge18" class="edge"><title>GBIFLookup&#45;&gt;LogFile</title>
<path fill="none" stroke="black" d="M137.618,-149.697C132.735,-141.559 126.813,-131.689 121.421,-122.701"/>
<polygon fill="black" stroke="black" points="124.409,-120.879 116.263,-114.104 118.406,-124.48 124.409,-120.879"/>
</g>
<!-- WoRMSLookup -->
<g id="node3" class="node"><title>WoRMSLookup</title>
<polygon fill="#ccffcc" stroke="black" points="391.25,-186 282.75,-186 282.75,-150 391.25,-150 391.25,-186"/>
<text text-anchor="middle" x="337" y="-164.3" font-family="Courier,monospace" font-size="14.00">WoRMSLookup</text>
</g>
<!-- WoRMSLookup&#45;&gt;LogFile -->
<g id="edge17" class="edge"><title>WoRMSLookup&#45;&gt;LogFile</title>
<path fill="none" stroke="black" d="M282.549,-150.5C240.918,-137.884 184.437,-120.769 146.681,-109.328"/>
<polygon fill="black" stroke="black" points="147.617,-105.954 137.032,-106.404 145.587,-112.653 147.617,-105.954"/>
</g>
<!-- FilterToNonMarine -->
<g id="node4" class="node"><title>FilterToNonMarine</title>
<polygon fill="#ccffcc" stroke="black" points="223.25,-330 64.75,-330 64.75,-294 223.25,-294 223.25,-330"/>
<text text-anchor="middle" x="144" y="-308.3" font-family="Courier,monospace" font-size="14.00">FilterToNonMarine</text>
</g>
<!-- FilterToNonMarine&#45;&gt;LogFile -->
<g id="edge15" class="edge"><title>FilterToNonMarine&#45;&gt;LogFile</title>
<path fill="none" stroke="black" d="M110.164,-293.961C96.6207,-285.216 82.4788,-273.175 75,-258 53.3542,-214.079 74.7953,-156.489 91.1922,-123.431"/>
<polygon fill="black" stroke="black" points="94.3794,-124.887 95.8542,-114.395 88.1586,-121.677 94.3794,-124.887"/>
</g>
<!-- notMarineDataRecord -->
<g id="node14" class="node"><title>notMarineDataRecord</title>
<path fill="#ffffcc" stroke="black" d="M225.25,-258C225.25,-258 96.75,-258 96.75,-258 90.75,-258 84.75,-252 84.75,-246 84.75,-246 84.75,-234 84.75,-234 84.75,-228 90.75,-222 96.75,-222 96.75,-222 225.25,-222 225.25,-222 231.25,-222 237.25,-228 237.25,-234 237.25,-234 237.25,-246 237.25,-246 237.25,-252 231.25,-258 225.25,-258"/>
<text text-anchor="middle" x="161" y="-236.3" font-family="Helvetica,sans-Serif" font-size="14.00">notMarineDataRecord</text>
</g>
<!-- FilterToNonMarine&#45;&gt;notMarineDataRecord -->
<g id="edge16" class="edge"><title>FilterToNonMarine&#45;&gt;notMarineDataRecord</title>
<path fill="none" stroke="black" d="M148.202,-293.697C150.096,-285.898 152.377,-276.509 154.484,-267.829"/>
<polygon fill="black" stroke="black" points="157.887,-268.648 156.846,-258.104 151.085,-266.996 157.887,-268.648"/>
</g>
<!-- FilterToJustMarine -->
<g id="node5" class="node"><title>FilterToJustMarine</title>
<polygon fill="#ccffcc" stroke="black" points="410,-330 242,-330 242,-294 410,-294 410,-330"/>
<text text-anchor="middle" x="326" y="-308.3" font-family="Courier,monospace" font-size="14.00">FilterToJustMarine</text>
</g>
<!-- FilterToJustMarine&#45;&gt;LogFile -->
<g id="edge13" class="edge"><title>FilterToJustMarine&#45;&gt;LogFile</title>
<path fill="none" stroke="black" d="M303.606,-293.907C291.818,-284.203 277.643,-271.351 267,-258 249.886,-236.532 226.644,-169.181 207,-150 189.954,-133.355 166.622,-120.65 146.678,-111.857"/>
<polygon fill="black" stroke="black" points="147.775,-108.521 137.201,-107.854 145.051,-114.969 147.775,-108.521"/>
</g>
<!-- MarineDataRecord -->
<g id="node13" class="node"><title>MarineDataRecord</title>
<path fill="#ffffcc" stroke="black" d="M398,-258C398,-258 288,-258 288,-258 282,-258 276,-252 276,-246 276,-246 276,-234 276,-234 276,-228 282,-222 288,-222 288,-222 398,-222 398,-222 404,-222 410,-228 410,-234 410,-234 410,-246 410,-246 410,-252 404,-258 398,-258"/>
<text text-anchor="middle" x="343" y="-236.3" font-family="Helvetica,sans-Serif" font-size="14.00">MarineDataRecord</text>
</g>
<!-- FilterToJustMarine&#45;&gt;MarineDataRecord -->
<g id="edge14" class="edge"><title>FilterToJustMarine&#45;&gt;MarineDataRecord</title>
<path fill="none" stroke="black" d="M330.202,-293.697C332.096,-285.898 334.377,-276.509 336.484,-267.829"/>
<polygon fill="black" stroke="black" points="339.887,-268.648 338.846,-258.104 333.085,-266.996 339.887,-268.648"/>
</g>
<!-- EnvironmentTagger -->
<g id="node6" class="node"><title>EnvironmentTagger</title>
<polygon fill="#ccffcc" stroke="black" points="203.25,-474 44.75,-474 44.75,-438 203.25,-438 203.25,-474"/>
<text text-anchor="middle" x="124" y="-452.3" font-family="Courier,monospace" font-size="14.00">EnvironmentTagger</text>
</g>
<!-- EnvironmentTagger&#45;&gt;LogFile -->
<g id="edge11" class="edge"><title>EnvironmentTagger&#45;&gt;LogFile</title>
<path fill="none" stroke="black" d="M98.5103,-437.856C86.6141,-428.584 73.283,-416.137 65,-402 44.5053,-367.02 45,-353.542 45,-313 45,-313 45,-313 45,-239 45,-198.358 48.7216,-186.786 66,-150 70.5579,-140.296 77.0831,-130.648 83.5447,-122.296"/>
<polygon fill="black" stroke="black" points="86.3453,-124.399 89.91,-114.422 80.9015,-119.999 86.3453,-124.399"/>
</g>
<!-- TaggedDataRecord -->
<g id="node12" class="node"><title>TaggedDataRecord</title>
<path fill="#ffffcc" stroke="black" d="M201.25,-402C201.25,-402 86.75,-402 86.75,-402 80.75,-402 74.75,-396 74.75,-390 74.75,-390 74.75,-378 74.75,-378 74.75,-372 80.75,-366 86.75,-366 86.75,-366 201.25,-366 201.25,-366 207.25,-366 213.25,-372 213.25,-378 213.25,-378 213.25,-390 213.25,-390 213.25,-396 207.25,-402 201.25,-402"/>
<text text-anchor="middle" x="144" y="-380.3" font-family="Helvetica,sans-Serif" font-size="14.00">TaggedDataRecord</text>
</g>
<!-- EnvironmentTagger&#45;&gt;TaggedDataRecord -->
<g id="edge12" class="edge"><title>EnvironmentTagger&#45;&gt;TaggedDataRecord</title>
<path fill="none" stroke="black" d="M128.944,-437.697C131.172,-429.898 133.855,-420.509 136.335,-411.829"/>
<polygon fill="black" stroke="black" points="139.731,-412.681 139.113,-402.104 133,-410.758 139.731,-412.681"/>
</g>
<!-- Setup -->
<g id="node7" class="node"><title>Setup</title>
<polygon fill="#ccffcc" stroke="black" points="125.25,-762 66.75,-762 66.75,-726 125.25,-726 125.25,-762"/>
<text text-anchor="middle" x="96" y="-740.3" font-family="Courier,monospace" font-size="14.00">Setup</text>
</g>
<!-- Setup&#45;&gt;LogFile -->
<g id="edge8" class="edge"><title>Setup&#45;&gt;LogFile</title>
<path fill="none" stroke="black" d="M74.7755,-725.915C64.3101,-716.399 52.3814,-703.719 45,-690 25.7909,-654.298 25,-641.542 25,-601 25,-601 25,-601 25,-239 25,-198.145 26.937,-185.007 48,-150 54.5928,-139.043 64.1353,-129.003 73.5829,-120.678"/>
<polygon fill="black" stroke="black" points="76.0106,-123.21 81.4297,-114.106 71.5161,-117.844 76.0106,-123.21"/>
</g>
<!-- OccurrenceFile -->
<g id="node10" class="node"><title>OccurrenceFile</title>
<path fill="#ffffcc" stroke="black" d="M153.25,-690C153.25,-690 66.75,-690 66.75,-690 60.75,-690 54.75,-684 54.75,-678 54.75,-678 54.75,-666 54.75,-666 54.75,-660 60.75,-654 66.75,-654 66.75,-654 153.25,-654 153.25,-654 159.25,-654 165.25,-660 165.25,-666 165.25,-666 165.25,-678 165.25,-678 165.25,-684 159.25,-690 153.25,-690"/>
<text text-anchor="middle" x="110" y="-668.3" font-family="Helvetica,sans-Serif" font-size="14.00">OccurrenceFile</text>
</g>
<!-- Setup&#45;&gt;OccurrenceFile -->
<g id="edge9" class="edge"><title>Setup&#45;&gt;OccurrenceFile</title>
<path fill="none" stroke="black" d="M99.4607,-725.697C101.003,-717.983 102.858,-708.712 104.578,-700.112"/>
<polygon fill="black" stroke="black" points="108.05,-700.597 106.579,-690.104 101.186,-699.224 108.05,-700.597"/>
</g>
<!-- DarwinCoreArchive -->
<g id="node8" class="node"><title>DarwinCoreArchive</title>
<path fill="#ffffcc" stroke="black" d="M152.25,-834C152.25,-834 39.75,-834 39.75,-834 33.75,-834 27.75,-828 27.75,-822 27.75,-822 27.75,-810 27.75,-810 27.75,-804 33.75,-798 39.75,-798 39.75,-798 152.25,-798 152.25,-798 158.25,-798 164.25,-804 164.25,-810 164.25,-810 164.25,-822 164.25,-822 164.25,-828 158.25,-834 152.25,-834"/>
<text text-anchor="middle" x="96" y="-812.3" font-family="Helvetica,sans-Serif" font-size="14.00">DarwinCoreArchive</text>
</g>
<!-- DarwinCoreArchive&#45;&gt;Setup -->
<g id="edge7" class="edge"><title>DarwinCoreArchive&#45;&gt;Setup</title>
<path fill="none" stroke="black" d="M96,-797.697C96,-789.983 96,-780.712 96,-772.112"/>
<polygon fill="black" stroke="black" points="99.5001,-772.104 96,-762.104 92.5001,-772.104 99.5001,-772.104"/>
</g>
<!-- LogFile_outflow -->
<g id="node16" class="node"><title>LogFile_outflow</title>
<ellipse fill="none" stroke="black" cx="106" cy="-31" rx="7" ry="7"/>
</g>
<!-- LogFile&#45;&gt;LogFile_outflow -->
<g id="edge20" class="edge"><title>LogFile&#45;&gt;LogFile_outflow</title>
<path fill="none" stroke="black" d="M106,-77.785C106,-68.6656 106,-57.5197 106,-48.5085"/>
<polygon fill="black" stroke="black" points="109.5,-48.242 106,-38.242 102.5,-48.2421 109.5,-48.242"/>
</g>
<!-- OccurrenceFile&#45;&gt;FileToDataStream -->
<g id="edge6" class="edge"><title>OccurrenceFile&#45;&gt;FileToDataStream</title>
<path fill="none" stroke="black" d="M112.966,-653.697C114.289,-645.983 115.878,-636.712 117.352,-628.112"/>
<polygon fill="black" stroke="black" points="120.828,-628.552 119.068,-618.104 113.928,-627.369 120.828,-628.552"/>
</g>
<!-- DataRecord&#45;&gt;EnvironmentTagger -->
<g id="edge5" class="edge"><title>DataRecord&#45;&gt;EnvironmentTagger</title>
<path fill="none" stroke="black" d="M123.247,-509.697C123.357,-501.983 123.49,-492.712 123.613,-484.112"/>
<polygon fill="black" stroke="black" points="127.112,-484.153 123.756,-474.104 120.113,-484.053 127.112,-484.153"/>
</g>
<!-- TaggedDataRecord&#45;&gt;FilterToNonMarine -->
<g id="edge3" class="edge"><title>TaggedDataRecord&#45;&gt;FilterToNonMarine</title>
<path fill="none" stroke="black" d="M144,-365.697C144,-357.983 144,-348.712 144,-340.112"/>
<polygon fill="black" stroke="black" points="147.5,-340.104 144,-330.104 140.5,-340.104 147.5,-340.104"/>
</g>
<!-- TaggedDataRecord&#45;&gt;FilterToJustMarine -->
<g id="edge4" class="edge"><title>TaggedDataRecord&#45;&gt;FilterToJustMarine</title>
<path fill="none" stroke="black" d="M188.522,-365.876C213.734,-356.179 245.453,-343.98 272.069,-333.743"/>
<polygon fill="black" stroke="black" points="273.545,-336.925 281.622,-330.068 271.032,-330.391 273.545,-336.925"/>
</g>
<!-- MarineDataRecord&#45;&gt;WoRMSLookup -->
<g id="edge2" class="edge"><title>MarineDataRecord&#45;&gt;WoRMSLookup</title>
<path fill="none" stroke="black" d="M341.517,-221.697C340.856,-213.983 340.061,-204.712 339.324,-196.112"/>
<polygon fill="black" stroke="black" points="342.807,-195.769 338.466,-186.104 335.833,-196.367 342.807,-195.769"/>
</g>
<!-- notMarineDataRecord&#45;&gt;GBIFLookup -->
<g id="edge1" class="edge"><title>notMarineDataRecord&#45;&gt;GBIFLookup</title>
<path fill="none" stroke="black" d="M157.787,-221.697C156.354,-213.983 154.632,-204.712 153.035,-196.112"/>
<polygon fill="black" stroke="black" points="156.444,-195.297 151.177,-186.104 149.561,-196.575 156.444,-195.297"/>
</g>
<!-- DarwinCoreArchive_inflow -->
<g id="node15" class="node"><title>DarwinCoreArchive_inflow</title>
<ellipse fill="none" stroke="black" cx="96" cy="-881" rx="7" ry="7"/>
</g>
<!-- DarwinCoreArchive_inflow&#45;&gt;DarwinCoreArchive -->
<g id="edge19" class="edge"><title>DarwinCoreArchive_inflow&#45;&gt;DarwinCoreArchive</title>
<path fill="none" stroke="black" d="M96,-873.729C96,-866.795 96,-855.154 96,-844.215"/>
<polygon fill="black" stroke="black" points="99.5001,-844.119 96,-834.119 92.5001,-844.119 99.5001,-844.119"/>
</g>
</g>
</svg>
