<?xml version="1.0" encoding="UTF-8" standalone="no"?>
<!DOCTYPE svg PUBLIC "-//W3C//DTD SVG 1.1//EN"
 "http://www.w3.org/Graphics/SVG/1.1/DTD/svg11.dtd">
<!-- Generated by graphviz version 2.36.0 (20140111.2315)
 -->
<!-- Title: yw_data_view Pages: 1 -->
<svg width="422pt" height="1236pt"
 viewBox="0.00 0.00 422.00 1236.00" xmlns="http://www.w3.org/2000/svg" xmlns:xlink="http://www.w3.org/1999/xlink">
<g id="graph0" class="graph" transform="scale(1 1) rotate(0) translate(4 1232)">
<title>yw_data_view</title>
<polygon fill="white" stroke="none" points="-4,4 -4,-1232 418,-1232 418,4 -4,4"/>
<text text-anchor="middle" x="207" y="-1209.6" font-family="Courier,monospace" font-size="18.00">DwCA_Taxon_Lookup</text>
<g id="clust1" class="cluster"><title>cluster_workflow</title>
<polygon fill="none" stroke="black" stroke-width="2" points="8,-62 8,-1138 406,-1138 406,-62 8,-62"/>
</g>
<g id="clust2" class="cluster"><title>cluster_workflow_inner</title>
<polygon fill="none" stroke="white" stroke-width="2" points="16,-70 16,-1130 398,-1130 398,-70 16,-70"/>
</g>
<g id="clust3" class="cluster"><title>cluster_inflows</title>
<polygon fill="none" stroke="white" stroke-width="2" points="95,-1146 95,-1192 141,-1192 141,-1146 95,-1146"/>
</g>
<g id="clust4" class="cluster"><title>cluster_inflows_inner</title>
<polygon fill="none" stroke="white" stroke-width="2" points="103,-1154 103,-1184 133,-1184 133,-1154 103,-1154"/>
</g>
<g id="clust5" class="cluster"><title>cluster_outflows</title>
<polygon fill="none" stroke="white" stroke-width="2" points="88,-8 88,-54 134,-54 134,-8 88,-8"/>
</g>
<g id="clust6" class="cluster"><title>cluster_outflows_inner</title>
<polygon fill="none" stroke="white" stroke-width="2" points="96,-16 96,-46 126,-46 126,-16 96,-16"/>
</g>
<!-- Setup -->
<g id="node1" class="node"><title>Setup</title>
<polygon fill="#ccffcc" stroke="black" points="147.25,-1050 88.75,-1050 88.75,-1014 147.25,-1014 147.25,-1050"/>
<text text-anchor="middle" x="118" y="-1028.3" font-family="Courier,monospace" font-size="14.00">Setup</text>
</g>
<!-- Workspace -->
<g id="node11" class="node"><title>Workspace</title>
<path fill="#ffffcc" stroke="black" d="M99.25,-906C99.25,-906 36.75,-906 36.75,-906 30.75,-906 24.75,-900 24.75,-894 24.75,-894 24.75,-882 24.75,-882 24.75,-876 30.75,-870 36.75,-870 36.75,-870 99.25,-870 99.25,-870 105.25,-870 111.25,-876 111.25,-882 111.25,-882 111.25,-894 111.25,-894 111.25,-900 105.25,-906 99.25,-906"/>
<text text-anchor="middle" x="68" y="-884.3" font-family="Helvetica,sans-Serif" font-size="14.00">Workspace</text>
</g>
<!-- Setup&#45;&gt;Workspace -->
<g id="edge12" class="edge"><title>Setup&#45;&gt;Workspace</title>
<path fill="none" stroke="black" d="M111.969,-1013.87C103.372,-989.457 87.5161,-944.426 77.3786,-915.635"/>
<polygon fill="black" stroke="black" points="80.6752,-914.459 74.0526,-906.189 74.0726,-916.784 80.6752,-914.459"/>
</g>
<!-- OccurrenceFile -->
<g id="node12" class="node"><title>OccurrenceFile</title>
<path fill="#ffffcc" stroke="black" d="M232.25,-978C232.25,-978 145.75,-978 145.75,-978 139.75,-978 133.75,-972 133.75,-966 133.75,-966 133.75,-954 133.75,-954 133.75,-948 139.75,-942 145.75,-942 145.75,-942 232.25,-942 232.25,-942 238.25,-942 244.25,-948 244.25,-954 244.25,-954 244.25,-966 244.25,-966 244.25,-972 238.25,-978 232.25,-978"/>
<text text-anchor="middle" x="189" y="-956.3" font-family="Helvetica,sans-Serif" font-size="14.00">OccurrenceFile</text>
</g>
<!-- Setup&#45;&gt;OccurrenceFile -->
<g id="edge13" class="edge"><title>Setup&#45;&gt;OccurrenceFile</title>
<path fill="none" stroke="black" d="M135.551,-1013.7C144.234,-1005.14 154.863,-994.656 164.348,-985.304"/>
<polygon fill="black" stroke="black" points="166.988,-987.617 171.651,-978.104 162.073,-982.633 166.988,-987.617"/>
</g>
<!-- FileToDataStream -->
<g id="node2" class="node"><title>FileToDataStream</title>
<polygon fill="#ccffcc" stroke="black" points="280.25,-906 129.75,-906 129.75,-870 280.25,-870 280.25,-906"/>
<text text-anchor="middle" x="205" y="-884.3" font-family="Courier,monospace" font-size="14.00">FileToDataStream</text>
</g>
<!-- DataRecord -->
<g id="node13" class="node"><title>DataRecord</title>
<path fill="#ffffcc" stroke="black" d="M238.25,-834C238.25,-834 171.75,-834 171.75,-834 165.75,-834 159.75,-828 159.75,-822 159.75,-822 159.75,-810 159.75,-810 159.75,-804 165.75,-798 171.75,-798 171.75,-798 238.25,-798 238.25,-798 244.25,-798 250.25,-804 250.25,-810 250.25,-810 250.25,-822 250.25,-822 250.25,-828 244.25,-834 238.25,-834"/>
<text text-anchor="middle" x="205" y="-812.3" font-family="Helvetica,sans-Serif" font-size="14.00">DataRecord</text>
</g>
<!-- FileToDataStream&#45;&gt;DataRecord -->
<g id="edge14" class="edge"><title>FileToDataStream&#45;&gt;DataRecord</title>
<path fill="none" stroke="black" d="M205,-869.697C205,-861.983 205,-852.712 205,-844.112"/>
<polygon fill="black" stroke="black" points="208.5,-844.104 205,-834.104 201.5,-844.104 208.5,-844.104"/>
</g>
<!-- EnvironmentTagger -->
<g id="node3" class="node"><title>EnvironmentTagger</title>
<polygon fill="#ccffcc" stroke="black" points="284.25,-762 125.75,-762 125.75,-726 284.25,-726 284.25,-762"/>
<text text-anchor="middle" x="205" y="-740.3" font-family="Courier,monospace" font-size="14.00">EnvironmentTagger</text>
</g>
<!-- TaggedDataRecord -->
<g id="node14" class="node"><title>TaggedDataRecord</title>
<path fill="#ffffcc" stroke="black" d="M262.25,-690C262.25,-690 147.75,-690 147.75,-690 141.75,-690 135.75,-684 135.75,-678 135.75,-678 135.75,-666 135.75,-666 135.75,-660 141.75,-654 147.75,-654 147.75,-654 262.25,-654 262.25,-654 268.25,-654 274.25,-660 274.25,-666 274.25,-666 274.25,-678 274.25,-678 274.25,-684 268.25,-690 262.25,-690"/>
<text text-anchor="middle" x="205" y="-668.3" font-family="Helvetica,sans-Serif" font-size="14.00">TaggedDataRecord</text>
</g>
<!-- EnvironmentTagger&#45;&gt;TaggedDataRecord -->
<g id="edge15" class="edge"><title>EnvironmentTagger&#45;&gt;TaggedDataRecord</title>
<path fill="none" stroke="black" d="M205,-725.697C205,-717.983 205,-708.712 205,-700.112"/>
<polygon fill="black" stroke="black" points="208.5,-700.104 205,-690.104 201.5,-700.104 208.5,-700.104"/>
</g>
<!-- FilterToJustMarine -->
<g id="node4" class="node"><title>FilterToJustMarine</title>
<polygon fill="#ccffcc" stroke="black" points="212,-618 44,-618 44,-582 212,-582 212,-618"/>
<text text-anchor="middle" x="128" y="-596.3" font-family="Courier,monospace" font-size="14.00">FilterToJustMarine</text>
</g>
<!-- MarineDataRecord -->
<g id="node15" class="node"><title>MarineDataRecord</title>
<path fill="#ffffcc" stroke="black" d="M183,-546C183,-546 73,-546 73,-546 67,-546 61,-540 61,-534 61,-534 61,-522 61,-522 61,-516 67,-510 73,-510 73,-510 183,-510 183,-510 189,-510 195,-516 195,-522 195,-522 195,-534 195,-534 195,-540 189,-546 183,-546"/>
<text text-anchor="middle" x="128" y="-524.3" font-family="Helvetica,sans-Serif" font-size="14.00">MarineDataRecord</text>
</g>
<!-- FilterToJustMarine&#45;&gt;MarineDataRecord -->
<g id="edge16" class="edge"><title>FilterToJustMarine&#45;&gt;MarineDataRecord</title>
<path fill="none" stroke="black" d="M128,-581.697C128,-573.983 128,-564.712 128,-556.112"/>
<polygon fill="black" stroke="black" points="131.5,-556.104 128,-546.104 124.5,-556.104 131.5,-556.104"/>
</g>
<!-- FilterToNonMarine -->
<g id="node5" class="node"><title>FilterToNonMarine</title>
<polygon fill="#ccffcc" stroke="black" points="389.25,-618 230.75,-618 230.75,-582 389.25,-582 389.25,-618"/>
<text text-anchor="middle" x="310" y="-596.3" font-family="Courier,monospace" font-size="14.00">FilterToNonMarine</text>
</g>
<!-- notMarineDataRecord -->
<g id="node16" class="node"><title>notMarineDataRecord</title>
<path fill="#ffffcc" stroke="black" d="M373.25,-546C373.25,-546 244.75,-546 244.75,-546 238.75,-546 232.75,-540 232.75,-534 232.75,-534 232.75,-522 232.75,-522 232.75,-516 238.75,-510 244.75,-510 244.75,-510 373.25,-510 373.25,-510 379.25,-510 385.25,-516 385.25,-522 385.25,-522 385.25,-534 385.25,-534 385.25,-540 379.25,-546 373.25,-546"/>
<text text-anchor="middle" x="309" y="-524.3" font-family="Helvetica,sans-Serif" font-size="14.00">notMarineDataRecord</text>
</g>
<!-- FilterToNonMarine&#45;&gt;notMarineDataRecord -->
<g id="edge17" class="edge"><title>FilterToNonMarine&#45;&gt;notMarineDataRecord</title>
<path fill="none" stroke="black" d="M309.753,-581.697C309.643,-573.983 309.51,-564.712 309.387,-556.112"/>
<polygon fill="black" stroke="black" points="312.887,-556.053 309.244,-546.104 305.888,-556.153 312.887,-556.053"/>
</g>
<!-- WoRMSLookup -->
<g id="node6" class="node"><title>WoRMSLookup</title>
<polygon fill="#ccffcc" stroke="black" points="182.25,-474 73.75,-474 73.75,-438 182.25,-438 182.25,-474"/>
<text text-anchor="middle" x="128" y="-452.3" font-family="Courier,monospace" font-size="14.00">WoRMSLookup</text>
</g>
<!-- WoRMSUpdatedRecord -->
<g id="node17" class="node"><title>WoRMSUpdatedRecord</title>
<path fill="#ffffcc" stroke="black" d="M199.25,-402C199.25,-402 56.75,-402 56.75,-402 50.75,-402 44.75,-396 44.75,-390 44.75,-390 44.75,-378 44.75,-378 44.75,-372 50.75,-366 56.75,-366 56.75,-366 199.25,-366 199.25,-366 205.25,-366 211.25,-372 211.25,-378 211.25,-378 211.25,-390 211.25,-390 211.25,-396 205.25,-402 199.25,-402"/>
<text text-anchor="middle" x="128" y="-380.3" font-family="Helvetica,sans-Serif" font-size="14.00">WoRMSUpdatedRecord</text>
</g>
<!-- WoRMSLookup&#45;&gt;WoRMSUpdatedRecord -->
<g id="edge18" class="edge"><title>WoRMSLookup&#45;&gt;WoRMSUpdatedRecord</title>
<path fill="none" stroke="black" d="M128,-437.697C128,-429.983 128,-420.712 128,-412.112"/>
<polygon fill="black" stroke="black" points="131.5,-412.104 128,-402.104 124.5,-412.104 131.5,-412.104"/>
</g>
<!-- GBIFLookup -->
<g id="node7" class="node"><title>GBIFLookup</title>
<polygon fill="#ccffcc" stroke="black" points="356.25,-474 255.75,-474 255.75,-438 356.25,-438 356.25,-474"/>
<text text-anchor="middle" x="306" y="-452.3" font-family="Courier,monospace" font-size="14.00">GBIFLookup</text>
</g>
<!-- GBIFUpdatedRecord -->
<g id="node18" class="node"><title>GBIFUpdatedRecord</title>
<path fill="#ffffcc" stroke="black" d="M365.25,-402C365.25,-402 242.75,-402 242.75,-402 236.75,-402 230.75,-396 230.75,-390 230.75,-390 230.75,-378 230.75,-378 230.75,-372 236.75,-366 242.75,-366 242.75,-366 365.25,-366 365.25,-366 371.25,-366 377.25,-372 377.25,-378 377.25,-378 377.25,-390 377.25,-390 377.25,-396 371.25,-402 365.25,-402"/>
<text text-anchor="middle" x="304" y="-380.3" font-family="Helvetica,sans-Serif" font-size="14.00">GBIFUpdatedRecord</text>
</g>
<!-- GBIFLookup&#45;&gt;GBIFUpdatedRecord -->
<g id="edge19" class="edge"><title>GBIFLookup&#45;&gt;GBIFUpdatedRecord</title>
<path fill="none" stroke="black" d="M305.506,-437.697C305.285,-429.983 305.02,-420.712 304.775,-412.112"/>
<polygon fill="black" stroke="black" points="308.273,-412 304.489,-402.104 301.276,-412.2 308.273,-412"/>
</g>
<!-- StreamMerge -->
<g id="node8" class="node"><title>StreamMerge</title>
<polygon fill="#ccffcc" stroke="black" points="182.25,-330 73.75,-330 73.75,-294 182.25,-294 182.25,-330"/>
<text text-anchor="middle" x="128" y="-308.3" font-family="Courier,monospace" font-size="14.00">StreamMerge</text>
</g>
<!-- MergedStream -->
<g id="node19" class="node"><title>MergedStream</title>
<path fill="#ffffcc" stroke="black" d="M164.25,-258C164.25,-258 79.75,-258 79.75,-258 73.75,-258 67.75,-252 67.75,-246 67.75,-246 67.75,-234 67.75,-234 67.75,-228 73.75,-222 79.75,-222 79.75,-222 164.25,-222 164.25,-222 170.25,-222 176.25,-228 176.25,-234 176.25,-234 176.25,-246 176.25,-246 176.25,-252 170.25,-258 164.25,-258"/>
<text text-anchor="middle" x="122" y="-236.3" font-family="Helvetica,sans-Serif" font-size="14.00">MergedStream</text>
</g>
<!-- StreamMerge&#45;&gt;MergedStream -->
<g id="edge20" class="edge"><title>StreamMerge&#45;&gt;MergedStream</title>
<path fill="none" stroke="black" d="M126.517,-293.697C125.856,-285.983 125.061,-276.712 124.324,-268.112"/>
<polygon fill="black" stroke="black" points="127.807,-267.769 123.466,-258.104 120.833,-268.367 127.807,-267.769"/>
</g>
<!-- CsvFileWriter -->
<g id="node9" class="node"><title>CsvFileWriter</title>
<polygon fill="#ccffcc" stroke="black" points="174,-186 48,-186 48,-150 174,-150 174,-186"/>
<text text-anchor="middle" x="111" y="-164.3" font-family="Courier,monospace" font-size="14.00">CsvFileWriter</text>
</g>
<!-- UpdatedOccurrenceFile -->
<g id="node20" class="node"><title>UpdatedOccurrenceFile</title>
<path fill="#ffffcc" stroke="black" d="M181,-114C181,-114 41,-114 41,-114 35,-114 29,-108 29,-102 29,-102 29,-90 29,-90 29,-84 35,-78 41,-78 41,-78 181,-78 181,-78 187,-78 193,-84 193,-90 193,-90 193,-102 193,-102 193,-108 187,-114 181,-114"/>
<text text-anchor="middle" x="111" y="-92.3" font-family="Helvetica,sans-Serif" font-size="14.00">UpdatedOccurrenceFile</text>
</g>
<!-- CsvFileWriter&#45;&gt;UpdatedOccurrenceFile -->
<g id="edge21" class="edge"><title>CsvFileWriter&#45;&gt;UpdatedOccurrenceFile</title>
<path fill="none" stroke="black" d="M111,-149.697C111,-141.983 111,-132.712 111,-124.112"/>
<polygon fill="black" stroke="black" points="114.5,-124.104 111,-114.104 107.5,-124.104 114.5,-124.104"/>
</g>
<!-- DarwinCoreArchive -->
<g id="node10" class="node"><title>DarwinCoreArchive</title>
<path fill="#ffffcc" stroke="black" d="M174.25,-1122C174.25,-1122 61.75,-1122 61.75,-1122 55.75,-1122 49.75,-1116 49.75,-1110 49.75,-1110 49.75,-1098 49.75,-1098 49.75,-1092 55.75,-1086 61.75,-1086 61.75,-1086 174.25,-1086 174.25,-1086 180.25,-1086 186.25,-1092 186.25,-1098 186.25,-1098 186.25,-1110 186.25,-1110 186.25,-1116 180.25,-1122 174.25,-1122"/>
<text text-anchor="middle" x="118" y="-1100.3" font-family="Helvetica,sans-Serif" font-size="14.00">DarwinCoreArchive</text>
</g>
<!-- DarwinCoreArchive&#45;&gt;Setup -->
<g id="edge7" class="edge"><title>DarwinCoreArchive&#45;&gt;Setup</title>
<path fill="none" stroke="black" d="M118,-1085.7C118,-1077.98 118,-1068.71 118,-1060.11"/>
<polygon fill="black" stroke="black" points="121.5,-1060.1 118,-1050.1 114.5,-1060.1 121.5,-1060.1"/>
</g>
<!-- Workspace&#45;&gt;CsvFileWriter -->
<g id="edge9" class="edge"><title>Workspace&#45;&gt;CsvFileWriter</title>
<path fill="none" stroke="black" d="M59.0904,-869.582C46.4954,-843.303 25,-791.623 25,-745 25,-745 25,-745 25,-311 25,-268.813 35.2261,-257.512 58,-222 64.6828,-211.579 73.7178,-201.585 82.434,-193.138"/>
<polygon fill="black" stroke="black" points="85.0127,-195.519 89.9445,-186.142 80.2415,-190.397 85.0127,-195.519"/>
</g>
<!-- OccurrenceFile&#45;&gt;FileToDataStream -->
<g id="edge11" class="edge"><title>OccurrenceFile&#45;&gt;FileToDataStream</title>
<path fill="none" stroke="black" d="M192.955,-941.697C194.718,-933.983 196.837,-924.712 198.803,-916.112"/>
<polygon fill="black" stroke="black" points="202.274,-916.633 201.09,-906.104 195.45,-915.073 202.274,-916.633"/>
</g>
<!-- DataRecord&#45;&gt;EnvironmentTagger -->
<g id="edge2" class="edge"><title>DataRecord&#45;&gt;EnvironmentTagger</title>
<path fill="none" stroke="black" d="M205,-797.697C205,-789.983 205,-780.712 205,-772.112"/>
<polygon fill="black" stroke="black" points="208.5,-772.104 205,-762.104 201.5,-772.104 208.5,-772.104"/>
</g>
<!-- TaggedDataRecord&#45;&gt;FilterToJustMarine -->
<g id="edge6" class="edge"><title>TaggedDataRecord&#45;&gt;FilterToJustMarine</title>
<path fill="none" stroke="black" d="M185.966,-653.697C176.455,-645.05 164.793,-634.449 154.43,-625.027"/>
<polygon fill="black" stroke="black" points="156.569,-622.241 146.815,-618.104 151.86,-627.421 156.569,-622.241"/>
</g>
<!-- TaggedDataRecord&#45;&gt;FilterToNonMarine -->
<g id="edge5" class="edge"><title>TaggedDataRecord&#45;&gt;FilterToNonMarine</title>
<path fill="none" stroke="black" d="M230.686,-653.876C244.288,-644.808 261.172,-633.552 275.861,-623.759"/>
<polygon fill="black" stroke="black" points="277.836,-626.649 284.215,-618.19 273.953,-620.825 277.836,-626.649"/>
</g>
<!-- MarineDataRecord&#45;&gt;WoRMSLookup -->
<g id="edge8" class="edge"><title>MarineDataRecord&#45;&gt;WoRMSLookup</title>
<path fill="none" stroke="black" d="M128,-509.697C128,-501.983 128,-492.712 128,-484.112"/>
<polygon fill="black" stroke="black" points="131.5,-484.104 128,-474.104 124.5,-484.104 131.5,-484.104"/>
</g>
<!-- notMarineDataRecord&#45;&gt;GBIFLookup -->
<g id="edge10" class="edge"><title>notMarineDataRecord&#45;&gt;GBIFLookup</title>
<path fill="none" stroke="black" d="M308.258,-509.697C307.928,-501.983 307.531,-492.712 307.162,-484.112"/>
<polygon fill="black" stroke="black" points="310.658,-483.945 306.733,-474.104 303.665,-484.245 310.658,-483.945"/>
</g>
<!-- WoRMSUpdatedRecord&#45;&gt;StreamMerge -->
<g id="edge1" class="edge"><title>WoRMSUpdatedRecord&#45;&gt;StreamMerge</title>
<path fill="none" stroke="black" d="M128,-365.697C128,-357.983 128,-348.712 128,-340.112"/>
<polygon fill="black" stroke="black" points="131.5,-340.104 128,-330.104 124.5,-340.104 131.5,-340.104"/>
</g>
<!-- GBIFUpdatedRecord&#45;&gt;StreamMerge -->
<g id="edge3" class="edge"><title>GBIFUpdatedRecord&#45;&gt;StreamMerge</title>
<path fill="none" stroke="black" d="M260.946,-365.876C236.671,-356.222 206.16,-344.087 180.492,-333.878"/>
<polygon fill="black" stroke="black" points="181.5,-330.512 170.915,-330.068 178.913,-337.016 181.5,-330.512"/>
</g>
<!-- MergedStream&#45;&gt;CsvFileWriter -->
<g id="edge4" class="edge"><title>MergedStream&#45;&gt;CsvFileWriter</title>
<path fill="none" stroke="black" d="M119.281,-221.697C118.069,-213.983 116.612,-204.712 115.261,-196.112"/>
<polygon fill="black" stroke="black" points="118.698,-195.44 113.688,-186.104 111.783,-196.526 118.698,-195.44"/>
</g>
<!-- UpdatedOccurrenceFile_outflow -->
<g id="node22" class="node"><title>UpdatedOccurrenceFile_outflow</title>
<ellipse fill="none" stroke="black" cx="111" cy="-31" rx="7" ry="7"/>
</g>
<!-- UpdatedOccurrenceFile&#45;&gt;UpdatedOccurrenceFile_outflow -->
<g id="edge23" class="edge"><title>UpdatedOccurrenceFile&#45;&gt;UpdatedOccurrenceFile_outflow</title>
<path fill="none" stroke="black" d="M111,-77.785C111,-68.6656 111,-57.5197 111,-48.5085"/>
<polygon fill="black" stroke="black" points="114.5,-48.242 111,-38.242 107.5,-48.2421 114.5,-48.242"/>
</g>
<!-- DarwinCoreArchive_inflow -->
<g id="node21" class="node"><title>DarwinCoreArchive_inflow</title>
<ellipse fill="none" stroke="black" cx="118" cy="-1169" rx="7" ry="7"/>
</g>
<!-- DarwinCoreArchive_inflow&#45;&gt;DarwinCoreArchive -->
<g id="edge22" class="edge"><title>DarwinCoreArchive_inflow&#45;&gt;DarwinCoreArchive</title>
<path fill="none" stroke="black" d="M118,-1161.73C118,-1154.79 118,-1143.15 118,-1132.21"/>
<polygon fill="black" stroke="black" points="121.5,-1132.12 118,-1122.12 114.5,-1132.12 121.5,-1132.12"/>
</g>
</g>
</svg>
