<?xml version="1.0" encoding="UTF-8" standalone="no"?>
<!DOCTYPE svg PUBLIC "-//W3C//DTD SVG 1.1//EN"
 "http://www.w3.org/Graphics/SVG/1.1/DTD/svg11.dtd">
<!-- Generated by graphviz version 2.36.0 (20140111.2315)
 -->
<!-- Title: yw_data_view Pages: 1 -->
<svg width="456pt" height="1236pt"
 viewBox="0.00 0.00 456.00 1236.00" xmlns="http://www.w3.org/2000/svg" xmlns:xlink="http://www.w3.org/1999/xlink">
<g id="graph0" class="graph" transform="scale(1 1) rotate(0) translate(4 1232)">
<title>yw_data_view</title>
<polygon fill="white" stroke="none" points="-4,4 -4,-1232 452,-1232 452,4 -4,4"/>
<text text-anchor="middle" x="224" y="-1209.6" font-family="Courier,monospace" font-size="18.00">FileBranchingTaxonLookupWorkflow</text>
<g id="clust3" class="cluster"><title>cluster_inflows</title>
<polygon fill="none" stroke="white" stroke-width="2" points="131,-1146 131,-1192 209,-1192 209,-1146 131,-1146"/>
</g>
<g id="clust4" class="cluster"><title>cluster_inflows_inner</title>
<polygon fill="none" stroke="white" stroke-width="2" points="139,-1154 139,-1184 201,-1184 201,-1154 139,-1154"/>
</g>
<g id="clust5" class="cluster"><title>cluster_outflows</title>
<polygon fill="none" stroke="white" stroke-width="2" points="89,-8 89,-54 135,-54 135,-8 89,-8"/>
</g>
<g id="clust6" class="cluster"><title>cluster_outflows_inner</title>
<polygon fill="none" stroke="white" stroke-width="2" points="97,-16 97,-46 127,-46 127,-16 97,-16"/>
</g>
<g id="clust1" class="cluster"><title>cluster_workflow</title>
<polygon fill="none" stroke="black" stroke-width="2" points="8,-62 8,-1138 440,-1138 440,-62 8,-62"/>
</g>
<g id="clust2" class="cluster"><title>cluster_workflow_inner</title>
<polygon fill="none" stroke="white" stroke-width="2" points="16,-70 16,-1130 432,-1130 432,-70 16,-70"/>
</g>
<!-- Setup -->
<g id="node1" class="node"><title>Setup</title>
<polygon fill="#ccffcc" stroke="black" points="154.25,-1050 95.75,-1050 95.75,-1014 154.25,-1014 154.25,-1050"/>
<text text-anchor="middle" x="125" y="-1028.3" font-family="Courier,monospace" font-size="14.00">Setup</text>
</g>
<!-- Workspace -->
<g id="node11" class="node"><title>Workspace</title>
<path fill="#ffffcc" stroke="black" d="M99.25,-906C99.25,-906 36.75,-906 36.75,-906 30.75,-906 24.75,-900 24.75,-894 24.75,-894 24.75,-882 24.75,-882 24.75,-876 30.75,-870 36.75,-870 36.75,-870 99.25,-870 99.25,-870 105.25,-870 111.25,-876 111.25,-882 111.25,-882 111.25,-894 111.25,-894 111.25,-900 105.25,-906 99.25,-906"/>
<text text-anchor="middle" x="68" y="-884.3" font-family="Helvetica,sans-Serif" font-size="14.00">Workspace</text>
</g>
<!-- Setup&#45;&gt;Workspace -->
<g id="edge13" class="edge"><title>Setup&#45;&gt;Workspace</title>
<path fill="none" stroke="black" d="M118.124,-1013.87C108.324,-989.457 90.2484,-944.426 78.6916,-915.635"/>
<polygon fill="black" stroke="black" points="81.8732,-914.166 74.8999,-906.189 75.3771,-916.773 81.8732,-914.166"/>
</g>
<!-- OccurrenceFile -->
<g id="node12" class="node"><title>OccurrenceFile</title>
<path fill="#ffffcc" stroke="black" d="M232.25,-978C232.25,-978 145.75,-978 145.75,-978 139.75,-978 133.75,-972 133.75,-966 133.75,-966 133.75,-954 133.75,-954 133.75,-948 139.75,-942 145.75,-942 145.75,-942 232.25,-942 232.25,-942 238.25,-942 244.25,-948 244.25,-954 244.25,-954 244.25,-966 244.25,-966 244.25,-972 238.25,-978 232.25,-978"/>
<text text-anchor="middle" x="189" y="-956.3" font-family="Helvetica,sans-Serif" font-size="14.00">OccurrenceFile</text>
</g>
<!-- Setup&#45;&gt;OccurrenceFile -->
<g id="edge14" class="edge"><title>Setup&#45;&gt;OccurrenceFile</title>
<path fill="none" stroke="black" d="M140.82,-1013.7C148.57,-1005.22 158.039,-994.864 166.524,-985.583"/>
<polygon fill="black" stroke="black" points="169.197,-987.846 173.362,-978.104 164.031,-983.123 169.197,-987.846"/>
</g>
<!-- FileToDataStream -->
<g id="node2" class="node"><title>FileToDataStream</title>
<polygon fill="#ccffcc" stroke="black" points="280.25,-906 129.75,-906 129.75,-870 280.25,-870 280.25,-906"/>
<text text-anchor="middle" x="205" y="-884.3" font-family="Courier,monospace" font-size="14.00">FileToDataStream</text>
</g>
<!-- DataRecord -->
<g id="node13" class="node"><title>DataRecord</title>
<path fill="#ffffcc" stroke="black" d="M238.25,-834C238.25,-834 171.75,-834 171.75,-834 165.75,-834 159.75,-828 159.75,-822 159.75,-822 159.75,-810 159.75,-810 159.75,-804 165.75,-798 171.75,-798 171.75,-798 238.25,-798 238.25,-798 244.25,-798 250.25,-804 250.25,-810 250.25,-810 250.25,-822 250.25,-822 250.25,-828 244.25,-834 238.25,-834"/>
<text text-anchor="middle" x="205" y="-812.3" font-family="Helvetica,sans-Serif" font-size="14.00">DataRecord</text>
</g>
<!-- FileToDataStream&#45;&gt;DataRecord -->
<g id="edge15" class="edge"><title>FileToDataStream&#45;&gt;DataRecord</title>
<path fill="none" stroke="black" d="M205,-869.697C205,-861.983 205,-852.712 205,-844.112"/>
<polygon fill="black" stroke="black" points="208.5,-844.104 205,-834.104 201.5,-844.104 208.5,-844.104"/>
</g>
<!-- EnvironmentTagger -->
<g id="node3" class="node"><title>EnvironmentTagger</title>
<polygon fill="#ccffcc" stroke="black" points="284.25,-762 125.75,-762 125.75,-726 284.25,-726 284.25,-762"/>
<text text-anchor="middle" x="205" y="-740.3" font-family="Courier,monospace" font-size="14.00">EnvironmentTagger</text>
</g>
<!-- TaggedDataRecord -->
<g id="node14" class="node"><title>TaggedDataRecord</title>
<path fill="#ffffcc" stroke="black" d="M262.25,-690C262.25,-690 147.75,-690 147.75,-690 141.75,-690 135.75,-684 135.75,-678 135.75,-678 135.75,-666 135.75,-666 135.75,-660 141.75,-654 147.75,-654 147.75,-654 262.25,-654 262.25,-654 268.25,-654 274.25,-660 274.25,-666 274.25,-666 274.25,-678 274.25,-678 274.25,-684 268.25,-690 262.25,-690"/>
<text text-anchor="middle" x="205" y="-668.3" font-family="Helvetica,sans-Serif" font-size="14.00">TaggedDataRecord</text>
</g>
<!-- EnvironmentTagger&#45;&gt;TaggedDataRecord -->
<g id="edge16" class="edge"><title>EnvironmentTagger&#45;&gt;TaggedDataRecord</title>
<path fill="none" stroke="black" d="M205,-725.697C205,-717.983 205,-708.712 205,-700.112"/>
<polygon fill="black" stroke="black" points="208.5,-700.104 205,-690.104 201.5,-700.104 208.5,-700.104"/>
</g>
<!-- FilterToJustMarine -->
<g id="node4" class="node"><title>FilterToJustMarine</title>
<polygon fill="#ccffcc" stroke="black" points="212,-618 44,-618 44,-582 212,-582 212,-618"/>
<text text-anchor="middle" x="128" y="-596.3" font-family="Courier,monospace" font-size="14.00">FilterToJustMarine</text>
</g>
<!-- MarineDataRecord -->
<g id="node15" class="node"><title>MarineDataRecord</title>
<path fill="#ffffcc" stroke="black" d="M183,-546C183,-546 73,-546 73,-546 67,-546 61,-540 61,-534 61,-534 61,-522 61,-522 61,-516 67,-510 73,-510 73,-510 183,-510 183,-510 189,-510 195,-516 195,-522 195,-522 195,-534 195,-534 195,-540 189,-546 183,-546"/>
<text text-anchor="middle" x="128" y="-524.3" font-family="Helvetica,sans-Serif" font-size="14.00">MarineDataRecord</text>
</g>
<!-- FilterToJustMarine&#45;&gt;MarineDataRecord -->
<g id="edge17" class="edge"><title>FilterToJustMarine&#45;&gt;MarineDataRecord</title>
<path fill="none" stroke="black" d="M128,-581.697C128,-573.983 128,-564.712 128,-556.112"/>
<polygon fill="black" stroke="black" points="131.5,-556.104 128,-546.104 124.5,-556.104 131.5,-556.104"/>
</g>
<!-- FilterExcludingMarine -->
<g id="node5" class="node"><title>FilterExcludingMarine</title>
<polygon fill="#ccffcc" stroke="black" points="423.25,-618 230.75,-618 230.75,-582 423.25,-582 423.25,-618"/>
<text text-anchor="middle" x="327" y="-596.3" font-family="Courier,monospace" font-size="14.00">FilterExcludingMarine</text>
</g>
<!-- notMarineDataRecord -->
<g id="node16" class="node"><title>notMarineDataRecord</title>
<path fill="#ffffcc" stroke="black" d="M388.25,-546C388.25,-546 259.75,-546 259.75,-546 253.75,-546 247.75,-540 247.75,-534 247.75,-534 247.75,-522 247.75,-522 247.75,-516 253.75,-510 259.75,-510 259.75,-510 388.25,-510 388.25,-510 394.25,-510 400.25,-516 400.25,-522 400.25,-522 400.25,-534 400.25,-534 400.25,-540 394.25,-546 388.25,-546"/>
<text text-anchor="middle" x="324" y="-524.3" font-family="Helvetica,sans-Serif" font-size="14.00">notMarineDataRecord</text>
</g>
<!-- FilterExcludingMarine&#45;&gt;notMarineDataRecord -->
<g id="edge18" class="edge"><title>FilterExcludingMarine&#45;&gt;notMarineDataRecord</title>
<path fill="none" stroke="black" d="M326.258,-581.697C325.928,-573.983 325.531,-564.712 325.162,-556.112"/>
<polygon fill="black" stroke="black" points="328.658,-555.945 324.733,-546.104 321.665,-556.245 328.658,-555.945"/>
</g>
<!-- WoRMSLookup -->
<g id="node6" class="node"><title>WoRMSLookup</title>
<polygon fill="#ccffcc" stroke="black" points="182.25,-474 73.75,-474 73.75,-438 182.25,-438 182.25,-474"/>
<text text-anchor="middle" x="128" y="-452.3" font-family="Courier,monospace" font-size="14.00">WoRMSLookup</text>
</g>
<!-- WoRMSUpdatedRecord -->
<g id="node17" class="node"><title>WoRMSUpdatedRecord</title>
<path fill="#ffffcc" stroke="black" d="M199.25,-402C199.25,-402 56.75,-402 56.75,-402 50.75,-402 44.75,-396 44.75,-390 44.75,-390 44.75,-378 44.75,-378 44.75,-372 50.75,-366 56.75,-366 56.75,-366 199.25,-366 199.25,-366 205.25,-366 211.25,-372 211.25,-378 211.25,-378 211.25,-390 211.25,-390 211.25,-396 205.25,-402 199.25,-402"/>
<text text-anchor="middle" x="128" y="-380.3" font-family="Helvetica,sans-Serif" font-size="14.00">WoRMSUpdatedRecord</text>
</g>
<!-- WoRMSLookup&#45;&gt;WoRMSUpdatedRecord -->
<g id="edge19" class="edge"><title>WoRMSLookup&#45;&gt;WoRMSUpdatedRecord</title>
<path fill="none" stroke="black" d="M128,-437.697C128,-429.983 128,-420.712 128,-412.112"/>
<polygon fill="black" stroke="black" points="131.5,-412.104 128,-402.104 124.5,-412.104 131.5,-412.104"/>
</g>
<!-- GBIFLookup -->
<g id="node7" class="node"><title>GBIFLookup</title>
<polygon fill="#ccffcc" stroke="black" points="362.25,-474 261.75,-474 261.75,-438 362.25,-438 362.25,-474"/>
<text text-anchor="middle" x="312" y="-452.3" font-family="Courier,monospace" font-size="14.00">GBIFLookup</text>
</g>
<!-- GBIFUpdatedRecord -->
<g id="node18" class="node"><title>GBIFUpdatedRecord</title>
<path fill="#ffffcc" stroke="black" d="M367.25,-402C367.25,-402 244.75,-402 244.75,-402 238.75,-402 232.75,-396 232.75,-390 232.75,-390 232.75,-378 232.75,-378 232.75,-372 238.75,-366 244.75,-366 244.75,-366 367.25,-366 367.25,-366 373.25,-366 379.25,-372 379.25,-378 379.25,-378 379.25,-390 379.25,-390 379.25,-396 373.25,-402 367.25,-402"/>
<text text-anchor="middle" x="306" y="-380.3" font-family="Helvetica,sans-Serif" font-size="14.00">GBIFUpdatedRecord</text>
</g>
<!-- GBIFLookup&#45;&gt;GBIFUpdatedRecord -->
<g id="edge20" class="edge"><title>GBIFLookup&#45;&gt;GBIFUpdatedRecord</title>
<path fill="none" stroke="black" d="M310.517,-437.697C309.856,-429.983 309.061,-420.712 308.324,-412.112"/>
<polygon fill="black" stroke="black" points="311.807,-411.769 307.466,-402.104 304.833,-412.367 311.807,-411.769"/>
</g>
<!-- StreamMerge -->
<g id="node8" class="node"><title>StreamMerge</title>
<polygon fill="#ccffcc" stroke="black" points="182.25,-330 73.75,-330 73.75,-294 182.25,-294 182.25,-330"/>
<text text-anchor="middle" x="128" y="-308.3" font-family="Courier,monospace" font-size="14.00">StreamMerge</text>
</g>
<!-- MergedStream -->
<g id="node19" class="node"><title>MergedStream</title>
<path fill="#ffffcc" stroke="black" d="M164.25,-258C164.25,-258 79.75,-258 79.75,-258 73.75,-258 67.75,-252 67.75,-246 67.75,-246 67.75,-234 67.75,-234 67.75,-228 73.75,-222 79.75,-222 79.75,-222 164.25,-222 164.25,-222 170.25,-222 176.25,-228 176.25,-234 176.25,-234 176.25,-246 176.25,-246 176.25,-252 170.25,-258 164.25,-258"/>
<text text-anchor="middle" x="122" y="-236.3" font-family="Helvetica,sans-Serif" font-size="14.00">MergedStream</text>
</g>
<!-- StreamMerge&#45;&gt;MergedStream -->
<g id="edge21" class="edge"><title>StreamMerge&#45;&gt;MergedStream</title>
<path fill="none" stroke="black" d="M126.517,-293.697C125.856,-285.983 125.061,-276.712 124.324,-268.112"/>
<polygon fill="black" stroke="black" points="127.807,-267.769 123.466,-258.104 120.833,-268.367 127.807,-267.769"/>
</g>
<!-- CsvFileWriter -->
<g id="node9" class="node"><title>CsvFileWriter</title>
<polygon fill="#ccffcc" stroke="black" points="175,-186 49,-186 49,-150 175,-150 175,-186"/>
<text text-anchor="middle" x="112" y="-164.3" font-family="Courier,monospace" font-size="14.00">CsvFileWriter</text>
</g>
<!-- UpdatedDarwinCoreFile -->
<g id="node20" class="node"><title>UpdatedDarwinCoreFile</title>
<path fill="#ffffcc" stroke="black" d="M183,-114C183,-114 41,-114 41,-114 35,-114 29,-108 29,-102 29,-102 29,-90 29,-90 29,-84 35,-78 41,-78 41,-78 183,-78 183,-78 189,-78 195,-84 195,-90 195,-90 195,-102 195,-102 195,-108 189,-114 183,-114"/>
<text text-anchor="middle" x="112" y="-92.3" font-family="Helvetica,sans-Serif" font-size="14.00">UpdatedDarwinCoreFile</text>
</g>
<!-- CsvFileWriter&#45;&gt;UpdatedDarwinCoreFile -->
<g id="edge22" class="edge"><title>CsvFileWriter&#45;&gt;UpdatedDarwinCoreFile</title>
<path fill="none" stroke="black" d="M112,-149.697C112,-141.983 112,-132.712 112,-124.112"/>
<polygon fill="black" stroke="black" points="115.5,-124.104 112,-114.104 108.5,-124.104 115.5,-124.104"/>
</g>
<!-- DarwinCoreFile -->
<g id="node10" class="node"><title>DarwinCoreFile</title>
<path fill="#ffffcc" stroke="black" d="M276.25,-1122C276.25,-1122 187.75,-1122 187.75,-1122 181.75,-1122 175.75,-1116 175.75,-1110 175.75,-1110 175.75,-1098 175.75,-1098 175.75,-1092 181.75,-1086 187.75,-1086 187.75,-1086 276.25,-1086 276.25,-1086 282.25,-1086 288.25,-1092 288.25,-1098 288.25,-1098 288.25,-1110 288.25,-1110 288.25,-1116 282.25,-1122 276.25,-1122"/>
<text text-anchor="middle" x="232" y="-1100.3" font-family="Helvetica,sans-Serif" font-size="14.00">DarwinCoreFile</text>
</g>
<!-- DarwinCoreFile&#45;&gt;Setup -->
<g id="edge3" class="edge"><title>DarwinCoreFile&#45;&gt;Setup</title>
<path fill="none" stroke="black" d="M205.825,-1085.88C191.964,-1076.81 174.759,-1065.55 159.789,-1055.76"/>
<polygon fill="black" stroke="black" points="161.56,-1052.74 151.276,-1050.19 157.728,-1058.59 161.56,-1052.74"/>
</g>
<!-- Workspace&#45;&gt;CsvFileWriter -->
<g id="edge5" class="edge"><title>Workspace&#45;&gt;CsvFileWriter</title>
<path fill="none" stroke="black" d="M59.0904,-869.582C46.4954,-843.303 25,-791.623 25,-745 25,-745 25,-745 25,-311 25,-268.813 35.0604,-257.405 58,-222 64.7952,-211.512 73.9972,-201.5 82.8788,-193.059"/>
<polygon fill="black" stroke="black" points="85.5067,-195.399 90.5329,-186.072 80.7875,-190.229 85.5067,-195.399"/>
</g>
<!-- OccurrenceFile&#45;&gt;FileToDataStream -->
<g id="edge7" class="edge"><title>OccurrenceFile&#45;&gt;FileToDataStream</title>
<path fill="none" stroke="black" d="M192.955,-941.697C194.718,-933.983 196.837,-924.712 198.803,-916.112"/>
<polygon fill="black" stroke="black" points="202.274,-916.633 201.09,-906.104 195.45,-915.073 202.274,-916.633"/>
</g>
<!-- DataRecord&#45;&gt;EnvironmentTagger -->
<g id="edge9" class="edge"><title>DataRecord&#45;&gt;EnvironmentTagger</title>
<path fill="none" stroke="black" d="M205,-797.697C205,-789.983 205,-780.712 205,-772.112"/>
<polygon fill="black" stroke="black" points="208.5,-772.104 205,-762.104 201.5,-772.104 208.5,-772.104"/>
</g>
<!-- TaggedDataRecord&#45;&gt;FilterToJustMarine -->
<g id="edge2" class="edge"><title>TaggedDataRecord&#45;&gt;FilterToJustMarine</title>
<path fill="none" stroke="black" d="M185.966,-653.697C176.455,-645.05 164.793,-634.449 154.43,-625.027"/>
<polygon fill="black" stroke="black" points="156.569,-622.241 146.815,-618.104 151.86,-627.421 156.569,-622.241"/>
</g>
<!-- TaggedDataRecord&#45;&gt;FilterExcludingMarine -->
<g id="edge1" class="edge"><title>TaggedDataRecord&#45;&gt;FilterExcludingMarine</title>
<path fill="none" stroke="black" d="M234.845,-653.876C250.944,-644.639 271.001,-633.131 288.288,-623.212"/>
<polygon fill="black" stroke="black" points="290.109,-626.202 297.041,-618.19 286.625,-620.131 290.109,-626.202"/>
</g>
<!-- MarineDataRecord&#45;&gt;WoRMSLookup -->
<g id="edge4" class="edge"><title>MarineDataRecord&#45;&gt;WoRMSLookup</title>
<path fill="none" stroke="black" d="M128,-509.697C128,-501.983 128,-492.712 128,-484.112"/>
<polygon fill="black" stroke="black" points="131.5,-484.104 128,-474.104 124.5,-484.104 131.5,-484.104"/>
</g>
<!-- notMarineDataRecord&#45;&gt;GBIFLookup -->
<g id="edge6" class="edge"><title>notMarineDataRecord&#45;&gt;GBIFLookup</title>
<path fill="none" stroke="black" d="M321.034,-509.697C319.711,-501.983 318.122,-492.712 316.648,-484.112"/>
<polygon fill="black" stroke="black" points="320.072,-483.369 314.932,-474.104 313.172,-484.552 320.072,-483.369"/>
</g>
<!-- WoRMSUpdatedRecord&#45;&gt;StreamMerge -->
<g id="edge8" class="edge"><title>WoRMSUpdatedRecord&#45;&gt;StreamMerge</title>
<path fill="none" stroke="black" d="M128,-365.697C128,-357.983 128,-348.712 128,-340.112"/>
<polygon fill="black" stroke="black" points="131.5,-340.104 128,-330.104 124.5,-340.104 131.5,-340.104"/>
</g>
<!-- GBIFUpdatedRecord&#45;&gt;StreamMerge -->
<g id="edge10" class="edge"><title>GBIFUpdatedRecord&#45;&gt;StreamMerge</title>
<path fill="none" stroke="black" d="M262.456,-365.876C237.798,-356.179 206.777,-343.98 180.746,-333.743"/>
<polygon fill="black" stroke="black" points="181.989,-330.471 171.402,-330.068 179.428,-336.985 181.989,-330.471"/>
</g>
<!-- MergedStream&#45;&gt;CsvFileWriter -->
<g id="edge12" class="edge"><title>MergedStream&#45;&gt;CsvFileWriter</title>
<path fill="none" stroke="black" d="M119.528,-221.697C118.426,-213.983 117.102,-204.712 115.873,-196.112"/>
<polygon fill="black" stroke="black" points="119.323,-195.509 114.443,-186.104 112.393,-196.499 119.323,-195.509"/>
</g>
<!-- UpdatedDarwinCoreFile_outflow -->
<g id="node24" class="node"><title>UpdatedDarwinCoreFile_outflow</title>
<ellipse fill="none" stroke="black" cx="112" cy="-31" rx="7" ry="7"/>
</g>
<!-- UpdatedDarwinCoreFile&#45;&gt;UpdatedDarwinCoreFile_outflow -->
<g id="edge25" class="edge"><title>UpdatedDarwinCoreFile&#45;&gt;UpdatedDarwinCoreFile_outflow</title>
<path fill="none" stroke="black" d="M112,-77.785C112,-68.6656 112,-57.5197 112,-48.5085"/>
<polygon fill="black" stroke="black" points="115.5,-48.242 112,-38.242 108.5,-48.2421 115.5,-48.242"/>
</g>
<!-- InputFilePath -->
<g id="node21" class="node"><title>InputFilePath</title>
<path fill="#ffffff" stroke="black" d="M145.25,-1122C145.25,-1122 70.75,-1122 70.75,-1122 64.75,-1122 58.75,-1116 58.75,-1110 58.75,-1110 58.75,-1098 58.75,-1098 58.75,-1092 64.75,-1086 70.75,-1086 70.75,-1086 145.25,-1086 145.25,-1086 151.25,-1086 157.25,-1092 157.25,-1098 157.25,-1098 157.25,-1110 157.25,-1110 157.25,-1116 151.25,-1122 145.25,-1122"/>
<text text-anchor="middle" x="108" y="-1100.3" font-family="Helvetica,sans-Serif" font-size="14.00">InputFilePath</text>
</g>
<!-- InputFilePath&#45;&gt;Setup -->
<g id="edge11" class="edge"><title>InputFilePath&#45;&gt;Setup</title>
<path fill="none" stroke="black" d="M112.202,-1085.7C114.096,-1077.9 116.377,-1068.51 118.484,-1059.83"/>
<polygon fill="black" stroke="black" points="121.887,-1060.65 120.846,-1050.1 115.085,-1059 121.887,-1060.65"/>
</g>
<!-- DarwinCoreFile_inflow -->
<g id="node22" class="node"><title>DarwinCoreFile_inflow</title>
<ellipse fill="none" stroke="black" cx="186" cy="-1169" rx="7" ry="7"/>
</g>
<!-- DarwinCoreFile_inflow&#45;&gt;DarwinCoreFile -->
<g id="edge23" class="edge"><title>DarwinCoreFile_inflow&#45;&gt;DarwinCoreFile</title>
<path fill="none" stroke="black" d="M189.922,-1162.63C195.132,-1155.49 204.692,-1142.4 213.384,-1130.5"/>
<polygon fill="black" stroke="black" points="216.415,-1132.28 219.485,-1122.14 210.762,-1128.15 216.415,-1132.28"/>
</g>
<!-- InputFilePath_inflow -->
<g id="node23" class="node"><title>InputFilePath_inflow</title>
<ellipse fill="none" stroke="black" cx="154" cy="-1169" rx="7" ry="7"/>
</g>
<!-- InputFilePath_inflow&#45;&gt;InputFilePath -->
<g id="edge24" class="edge"><title>InputFilePath_inflow&#45;&gt;InputFilePath</title>
<path fill="none" stroke="black" d="M150.078,-1162.63C144.868,-1155.49 135.308,-1142.4 126.616,-1130.5"/>
<polygon fill="black" stroke="black" points="129.238,-1128.15 120.515,-1122.14 123.585,-1132.28 129.238,-1128.15"/>
</g>
</g>
</svg>
