<?xml version="1.0" encoding="UTF-8" standalone="no"?>
<!DOCTYPE svg PUBLIC "-//W3C//DTD SVG 1.1//EN"
 "http://www.w3.org/Graphics/SVG/1.1/DTD/svg11.dtd">
<!-- Generated by graphviz version 2.36.0 (20140111.2315)
 -->
<!-- Title: yw_data_view Pages: 1 -->
<svg width="224pt" height="750pt"
 viewBox="0.00 0.00 224.00 750.00" xmlns="http://www.w3.org/2000/svg" xmlns:xlink="http://www.w3.org/1999/xlink">
<g id="graph0" class="graph" transform="scale(1 1) rotate(0) translate(4 746)">
<title>yw_data_view</title>
<polygon fill="white" stroke="none" points="-4,4 -4,-746 220,-746 220,4 -4,4"/>
<text text-anchor="middle" x="108" y="-723.6" font-family="Courier,monospace" font-size="18.00">DwCA_Taxon_Lookup</text>
<g id="clust3" class="cluster"><title>cluster_inflows</title>
<polygon fill="none" stroke="white" stroke-width="2" points="85,-660 85,-706 131,-706 131,-660 85,-660"/>
</g>
<g id="clust4" class="cluster"><title>cluster_inflows_inner</title>
<polygon fill="none" stroke="white" stroke-width="2" points="93,-668 93,-698 123,-698 123,-668 93,-668"/>
</g>
<g id="clust1" class="cluster"><title>cluster_workflow</title>
<polygon fill="none" stroke="black" stroke-width="2" points="8,-8 8,-652 208,-652 208,-8 8,-8"/>
</g>
<g id="clust2" class="cluster"><title>cluster_workflow_inner</title>
<polygon fill="none" stroke="white" stroke-width="2" points="16,-16 16,-644 200,-644 200,-16 16,-16"/>
</g>
<!-- EnvironmentTagger -->
<g id="node1" class="node"><title>EnvironmentTagger</title>
<polygon fill="#ccffcc" stroke="black" points="187.25,-276 28.75,-276 28.75,-240 187.25,-240 187.25,-276"/>
<text text-anchor="middle" x="108" y="-254.3" font-family="Courier,monospace" font-size="14.00">EnvironmentTagger</text>
</g>
<!-- TaggedDataRecord -->
<g id="node8" class="node"><title>TaggedDataRecord</title>
<path fill="#ffffcc" stroke="black" d="M165.25,-204C165.25,-204 50.75,-204 50.75,-204 44.75,-204 38.75,-198 38.75,-192 38.75,-192 38.75,-180 38.75,-180 38.75,-174 44.75,-168 50.75,-168 50.75,-168 165.25,-168 165.25,-168 171.25,-168 177.25,-174 177.25,-180 177.25,-180 177.25,-192 177.25,-192 177.25,-198 171.25,-204 165.25,-204"/>
<text text-anchor="middle" x="108" y="-182.3" font-family="Helvetica,sans-Serif" font-size="14.00">TaggedDataRecord</text>
</g>
<!-- EnvironmentTagger&#45;&gt;TaggedDataRecord -->
<g id="edge7" class="edge"><title>EnvironmentTagger&#45;&gt;TaggedDataRecord</title>
<path fill="none" stroke="black" d="M108,-239.697C108,-231.983 108,-222.712 108,-214.112"/>
<polygon fill="black" stroke="black" points="111.5,-214.104 108,-204.104 104.5,-214.104 111.5,-214.104"/>
</g>
<!-- FileToDataStream -->
<g id="node2" class="node"><title>FileToDataStream</title>
<polygon fill="#ccffcc" stroke="black" points="183.25,-420 32.75,-420 32.75,-384 183.25,-384 183.25,-420"/>
<text text-anchor="middle" x="108" y="-398.3" font-family="Courier,monospace" font-size="14.00">FileToDataStream</text>
</g>
<!-- DataRecord -->
<g id="node7" class="node"><title>DataRecord</title>
<path fill="#ffffcc" stroke="black" d="M141.25,-348C141.25,-348 74.75,-348 74.75,-348 68.75,-348 62.75,-342 62.75,-336 62.75,-336 62.75,-324 62.75,-324 62.75,-318 68.75,-312 74.75,-312 74.75,-312 141.25,-312 141.25,-312 147.25,-312 153.25,-318 153.25,-324 153.25,-324 153.25,-336 153.25,-336 153.25,-342 147.25,-348 141.25,-348"/>
<text text-anchor="middle" x="108" y="-326.3" font-family="Helvetica,sans-Serif" font-size="14.00">DataRecord</text>
</g>
<!-- FileToDataStream&#45;&gt;DataRecord -->
<g id="edge6" class="edge"><title>FileToDataStream&#45;&gt;DataRecord</title>
<path fill="none" stroke="black" d="M108,-383.697C108,-375.983 108,-366.712 108,-358.112"/>
<polygon fill="black" stroke="black" points="111.5,-358.104 108,-348.104 104.5,-358.104 111.5,-358.104"/>
</g>
<!-- Setup -->
<g id="node3" class="node"><title>Setup</title>
<polygon fill="#ccffcc" stroke="black" points="137.25,-564 78.75,-564 78.75,-528 137.25,-528 137.25,-564"/>
<text text-anchor="middle" x="108" y="-542.3" font-family="Courier,monospace" font-size="14.00">Setup</text>
</g>
<!-- OccurrenceFile -->
<g id="node6" class="node"><title>OccurrenceFile</title>
<path fill="#ffffcc" stroke="black" d="M151.25,-492C151.25,-492 64.75,-492 64.75,-492 58.75,-492 52.75,-486 52.75,-480 52.75,-480 52.75,-468 52.75,-468 52.75,-462 58.75,-456 64.75,-456 64.75,-456 151.25,-456 151.25,-456 157.25,-456 163.25,-462 163.25,-468 163.25,-468 163.25,-480 163.25,-480 163.25,-486 157.25,-492 151.25,-492"/>
<text text-anchor="middle" x="108" y="-470.3" font-family="Helvetica,sans-Serif" font-size="14.00">OccurrenceFile</text>
</g>
<!-- Setup&#45;&gt;OccurrenceFile -->
<g id="edge5" class="edge"><title>Setup&#45;&gt;OccurrenceFile</title>
<path fill="none" stroke="black" d="M108,-527.697C108,-519.983 108,-510.712 108,-502.112"/>
<polygon fill="black" stroke="black" points="111.5,-502.104 108,-492.104 104.5,-502.104 111.5,-502.104"/>
</g>
<!-- FilterToJustMarine -->
<g id="node4" class="node"><title>FilterToJustMarine</title>
<polygon fill="#ccffcc" stroke="black" points="192,-132 24,-132 24,-96 192,-96 192,-132"/>
<text text-anchor="middle" x="108" y="-110.3" font-family="Courier,monospace" font-size="14.00">FilterToJustMarine</text>
</g>
<!-- MarineDataRecord -->
<g id="node9" class="node"><title>MarineDataRecord</title>
<path fill="#ffffcc" stroke="black" d="M163,-60C163,-60 53,-60 53,-60 47,-60 41,-54 41,-48 41,-48 41,-36 41,-36 41,-30 47,-24 53,-24 53,-24 163,-24 163,-24 169,-24 175,-30 175,-36 175,-36 175,-48 175,-48 175,-54 169,-60 163,-60"/>
<text text-anchor="middle" x="108" y="-38.3" font-family="Helvetica,sans-Serif" font-size="14.00">MarineDataRecord</text>
</g>
<!-- FilterToJustMarine&#45;&gt;MarineDataRecord -->
<g id="edge8" class="edge"><title>FilterToJustMarine&#45;&gt;MarineDataRecord</title>
<path fill="none" stroke="black" d="M108,-95.6966C108,-87.9827 108,-78.7125 108,-70.1124"/>
<polygon fill="black" stroke="black" points="111.5,-70.1043 108,-60.1043 104.5,-70.1044 111.5,-70.1043"/>
</g>
<!-- DarwinCoreArchive -->
<g id="node5" class="node"><title>DarwinCoreArchive</title>
<path fill="#ffffcc" stroke="black" d="M164.25,-636C164.25,-636 51.75,-636 51.75,-636 45.75,-636 39.75,-630 39.75,-624 39.75,-624 39.75,-612 39.75,-612 39.75,-606 45.75,-600 51.75,-600 51.75,-600 164.25,-600 164.25,-600 170.25,-600 176.25,-606 176.25,-612 176.25,-612 176.25,-624 176.25,-624 176.25,-630 170.25,-636 164.25,-636"/>
<text text-anchor="middle" x="108" y="-614.3" font-family="Helvetica,sans-Serif" font-size="14.00">DarwinCoreArchive</text>
</g>
<!-- DarwinCoreArchive&#45;&gt;Setup -->
<g id="edge4" class="edge"><title>DarwinCoreArchive&#45;&gt;Setup</title>
<path fill="none" stroke="black" d="M108,-599.697C108,-591.983 108,-582.712 108,-574.112"/>
<polygon fill="black" stroke="black" points="111.5,-574.104 108,-564.104 104.5,-574.104 111.5,-574.104"/>
</g>
<!-- OccurrenceFile&#45;&gt;FileToDataStream -->
<g id="edge3" class="edge"><title>OccurrenceFile&#45;&gt;FileToDataStream</title>
<path fill="none" stroke="black" d="M108,-455.697C108,-447.983 108,-438.712 108,-430.112"/>
<polygon fill="black" stroke="black" points="111.5,-430.104 108,-420.104 104.5,-430.104 111.5,-430.104"/>
</g>
<!-- DataRecord&#45;&gt;EnvironmentTagger -->
<g id="edge2" class="edge"><title>DataRecord&#45;&gt;EnvironmentTagger</title>
<path fill="none" stroke="black" d="M108,-311.697C108,-303.983 108,-294.712 108,-286.112"/>
<polygon fill="black" stroke="black" points="111.5,-286.104 108,-276.104 104.5,-286.104 111.5,-286.104"/>
</g>
<!-- TaggedDataRecord&#45;&gt;FilterToJustMarine -->
<g id="edge1" class="edge"><title>TaggedDataRecord&#45;&gt;FilterToJustMarine</title>
<path fill="none" stroke="black" d="M108,-167.697C108,-159.983 108,-150.712 108,-142.112"/>
<polygon fill="black" stroke="black" points="111.5,-142.104 108,-132.104 104.5,-142.104 111.5,-142.104"/>
</g>
<!-- DarwinCoreArchive_inflow -->
<g id="node10" class="node"><title>DarwinCoreArchive_inflow</title>
<ellipse fill="none" stroke="black" cx="108" cy="-683" rx="7" ry="7"/>
</g>
<!-- DarwinCoreArchive_inflow&#45;&gt;DarwinCoreArchive -->
<g id="edge9" class="edge"><title>DarwinCoreArchive_inflow&#45;&gt;DarwinCoreArchive</title>
<path fill="none" stroke="black" d="M108,-675.729C108,-668.795 108,-657.154 108,-646.215"/>
<polygon fill="black" stroke="black" points="111.5,-646.119 108,-636.119 104.5,-646.119 111.5,-646.119"/>
</g>
</g>
</svg>
