<?xml version="1.0" encoding="UTF-8" standalone="no"?>
<!DOCTYPE svg PUBLIC "-//W3C//DTD SVG 1.1//EN"
 "http://www.w3.org/Graphics/SVG/1.1/DTD/svg11.dtd">
<!-- Generated by graphviz version 2.36.0 (20140111.2315)
 -->
<!-- Title: yw_data_view Pages: 1 -->
<svg width="370pt" height="894pt"
 viewBox="0.00 0.00 370.00 894.00" xmlns="http://www.w3.org/2000/svg" xmlns:xlink="http://www.w3.org/1999/xlink">
<g id="graph0" class="graph" transform="scale(1 1) rotate(0) translate(4 890)">
<title>yw_data_view</title>
<polygon fill="white" stroke="none" points="-4,4 -4,-890 366,-890 366,4 -4,4"/>
<text text-anchor="middle" x="181" y="-867.6" font-family="Courier,monospace" font-size="18.00">FileBranchingTaxonLookupWorkflow</text>
<g id="clust1" class="cluster"><title>cluster_workflow</title>
<polygon fill="none" stroke="black" stroke-width="2" points="49.5,-8 49.5,-796 312.5,-796 312.5,-8 49.5,-8"/>
</g>
<g id="clust2" class="cluster"><title>cluster_workflow_inner</title>
<polygon fill="none" stroke="white" stroke-width="2" points="57.5,-16 57.5,-788 304.5,-788 304.5,-16 57.5,-16"/>
</g>
<g id="clust3" class="cluster"><title>cluster_inflows</title>
<polygon fill="none" stroke="white" stroke-width="2" points="138.5,-804 138.5,-850 216.5,-850 216.5,-804 138.5,-804"/>
</g>
<g id="clust4" class="cluster"><title>cluster_inflows_inner</title>
<polygon fill="none" stroke="white" stroke-width="2" points="146.5,-812 146.5,-842 208.5,-842 208.5,-812 146.5,-812"/>
</g>
<!-- FilterExcludingMarine -->
<g id="node1" class="node"><title>FilterExcludingMarine</title>
<polygon fill="#ccffcc" stroke="black" points="276.75,-276 84.25,-276 84.25,-240 276.75,-240 276.75,-276"/>
<text text-anchor="middle" x="180.5" y="-254.3" font-family="Courier,monospace" font-size="14.00">FilterExcludingMarine</text>
</g>
<!-- notMarineDataRecord -->
<g id="node10" class="node"><title>notMarineDataRecord</title>
<path fill="#ffffcc" stroke="black" d="M244.75,-204C244.75,-204 116.25,-204 116.25,-204 110.25,-204 104.25,-198 104.25,-192 104.25,-192 104.25,-180 104.25,-180 104.25,-174 110.25,-168 116.25,-168 116.25,-168 244.75,-168 244.75,-168 250.75,-168 256.75,-174 256.75,-180 256.75,-180 256.75,-192 256.75,-192 256.75,-198 250.75,-204 244.75,-204"/>
<text text-anchor="middle" x="180.5" y="-182.3" font-family="Helvetica,sans-Serif" font-size="14.00">notMarineDataRecord</text>
</g>
<!-- FilterExcludingMarine&#45;&gt;notMarineDataRecord -->
<g id="edge10" class="edge"><title>FilterExcludingMarine&#45;&gt;notMarineDataRecord</title>
<path fill="none" stroke="black" d="M180.5,-239.697C180.5,-231.983 180.5,-222.712 180.5,-214.112"/>
<polygon fill="black" stroke="black" points="184,-214.104 180.5,-204.104 177,-214.104 184,-214.104"/>
</g>
<!-- EnvironmentTagger -->
<g id="node2" class="node"><title>EnvironmentTagger</title>
<polygon fill="#ccffcc" stroke="black" points="259.75,-420 101.25,-420 101.25,-384 259.75,-384 259.75,-420"/>
<text text-anchor="middle" x="180.5" y="-398.3" font-family="Courier,monospace" font-size="14.00">EnvironmentTagger</text>
</g>
<!-- TaggedDataRecord -->
<g id="node9" class="node"><title>TaggedDataRecord</title>
<path fill="#ffffcc" stroke="black" d="M237.75,-348C237.75,-348 123.25,-348 123.25,-348 117.25,-348 111.25,-342 111.25,-336 111.25,-336 111.25,-324 111.25,-324 111.25,-318 117.25,-312 123.25,-312 123.25,-312 237.75,-312 237.75,-312 243.75,-312 249.75,-318 249.75,-324 249.75,-324 249.75,-336 249.75,-336 249.75,-342 243.75,-348 237.75,-348"/>
<text text-anchor="middle" x="180.5" y="-326.3" font-family="Helvetica,sans-Serif" font-size="14.00">TaggedDataRecord</text>
</g>
<!-- EnvironmentTagger&#45;&gt;TaggedDataRecord -->
<g id="edge9" class="edge"><title>EnvironmentTagger&#45;&gt;TaggedDataRecord</title>
<path fill="none" stroke="black" d="M180.5,-383.697C180.5,-375.983 180.5,-366.712 180.5,-358.112"/>
<polygon fill="black" stroke="black" points="184,-358.104 180.5,-348.104 177,-358.104 184,-358.104"/>
</g>
<!-- FileToDataStream -->
<g id="node3" class="node"><title>FileToDataStream</title>
<polygon fill="#ccffcc" stroke="black" points="255.75,-564 105.25,-564 105.25,-528 255.75,-528 255.75,-564"/>
<text text-anchor="middle" x="180.5" y="-542.3" font-family="Courier,monospace" font-size="14.00">FileToDataStream</text>
</g>
<!-- DataRecord -->
<g id="node8" class="node"><title>DataRecord</title>
<path fill="#ffffcc" stroke="black" d="M213.75,-492C213.75,-492 147.25,-492 147.25,-492 141.25,-492 135.25,-486 135.25,-480 135.25,-480 135.25,-468 135.25,-468 135.25,-462 141.25,-456 147.25,-456 147.25,-456 213.75,-456 213.75,-456 219.75,-456 225.75,-462 225.75,-468 225.75,-468 225.75,-480 225.75,-480 225.75,-486 219.75,-492 213.75,-492"/>
<text text-anchor="middle" x="180.5" y="-470.3" font-family="Helvetica,sans-Serif" font-size="14.00">DataRecord</text>
</g>
<!-- FileToDataStream&#45;&gt;DataRecord -->
<g id="edge8" class="edge"><title>FileToDataStream&#45;&gt;DataRecord</title>
<path fill="none" stroke="black" d="M180.5,-527.697C180.5,-519.983 180.5,-510.712 180.5,-502.112"/>
<polygon fill="black" stroke="black" points="184,-502.104 180.5,-492.104 177,-502.104 184,-502.104"/>
</g>
<!-- Setup -->
<g id="node4" class="node"><title>Setup</title>
<polygon fill="#ccffcc" stroke="black" points="209.75,-708 151.25,-708 151.25,-672 209.75,-672 209.75,-708"/>
<text text-anchor="middle" x="180.5" y="-686.3" font-family="Courier,monospace" font-size="14.00">Setup</text>
</g>
<!-- OccurrenceFile -->
<g id="node7" class="node"><title>OccurrenceFile</title>
<path fill="#ffffcc" stroke="black" d="M223.75,-636C223.75,-636 137.25,-636 137.25,-636 131.25,-636 125.25,-630 125.25,-624 125.25,-624 125.25,-612 125.25,-612 125.25,-606 131.25,-600 137.25,-600 137.25,-600 223.75,-600 223.75,-600 229.75,-600 235.75,-606 235.75,-612 235.75,-612 235.75,-624 235.75,-624 235.75,-630 229.75,-636 223.75,-636"/>
<text text-anchor="middle" x="180.5" y="-614.3" font-family="Helvetica,sans-Serif" font-size="14.00">OccurrenceFile</text>
</g>
<!-- Setup&#45;&gt;OccurrenceFile -->
<g id="edge7" class="edge"><title>Setup&#45;&gt;OccurrenceFile</title>
<path fill="none" stroke="black" d="M180.5,-671.697C180.5,-663.983 180.5,-654.712 180.5,-646.112"/>
<polygon fill="black" stroke="black" points="184,-646.104 180.5,-636.104 177,-646.104 184,-646.104"/>
</g>
<!-- GBIFLookup -->
<g id="node5" class="node"><title>GBIFLookup</title>
<polygon fill="#ccffcc" stroke="black" points="230.75,-132 130.25,-132 130.25,-96 230.75,-96 230.75,-132"/>
<text text-anchor="middle" x="180.5" y="-110.3" font-family="Courier,monospace" font-size="14.00">GBIFLookup</text>
</g>
<!-- GBIFUpdatedRecord -->
<g id="node11" class="node"><title>GBIFUpdatedRecord</title>
<path fill="#ffffcc" stroke="black" d="M241.75,-60C241.75,-60 119.25,-60 119.25,-60 113.25,-60 107.25,-54 107.25,-48 107.25,-48 107.25,-36 107.25,-36 107.25,-30 113.25,-24 119.25,-24 119.25,-24 241.75,-24 241.75,-24 247.75,-24 253.75,-30 253.75,-36 253.75,-36 253.75,-48 253.75,-48 253.75,-54 247.75,-60 241.75,-60"/>
<text text-anchor="middle" x="180.5" y="-38.3" font-family="Helvetica,sans-Serif" font-size="14.00">GBIFUpdatedRecord</text>
</g>
<!-- GBIFLookup&#45;&gt;GBIFUpdatedRecord -->
<g id="edge11" class="edge"><title>GBIFLookup&#45;&gt;GBIFUpdatedRecord</title>
<path fill="none" stroke="black" d="M180.5,-95.6966C180.5,-87.9827 180.5,-78.7125 180.5,-70.1124"/>
<polygon fill="black" stroke="black" points="184,-70.1043 180.5,-60.1043 177,-70.1044 184,-70.1043"/>
</g>
<!-- DarwinCoreFile -->
<g id="node6" class="node"><title>DarwinCoreFile</title>
<path fill="#ffffcc" stroke="black" d="M283.75,-780C283.75,-780 195.25,-780 195.25,-780 189.25,-780 183.25,-774 183.25,-768 183.25,-768 183.25,-756 183.25,-756 183.25,-750 189.25,-744 195.25,-744 195.25,-744 283.75,-744 283.75,-744 289.75,-744 295.75,-750 295.75,-756 295.75,-756 295.75,-768 295.75,-768 295.75,-774 289.75,-780 283.75,-780"/>
<text text-anchor="middle" x="239.5" y="-758.3" font-family="Helvetica,sans-Serif" font-size="14.00">DarwinCoreFile</text>
</g>
<!-- DarwinCoreFile&#45;&gt;Setup -->
<g id="edge5" class="edge"><title>DarwinCoreFile&#45;&gt;Setup</title>
<path fill="none" stroke="black" d="M224.916,-743.697C217.842,-735.305 209.217,-725.07 201.455,-715.861"/>
<polygon fill="black" stroke="black" points="204.037,-713.495 194.917,-708.104 198.685,-718.006 204.037,-713.495"/>
</g>
<!-- OccurrenceFile&#45;&gt;FileToDataStream -->
<g id="edge4" class="edge"><title>OccurrenceFile&#45;&gt;FileToDataStream</title>
<path fill="none" stroke="black" d="M180.5,-599.697C180.5,-591.983 180.5,-582.712 180.5,-574.112"/>
<polygon fill="black" stroke="black" points="184,-574.104 180.5,-564.104 177,-574.104 184,-574.104"/>
</g>
<!-- DataRecord&#45;&gt;EnvironmentTagger -->
<g id="edge3" class="edge"><title>DataRecord&#45;&gt;EnvironmentTagger</title>
<path fill="none" stroke="black" d="M180.5,-455.697C180.5,-447.983 180.5,-438.712 180.5,-430.112"/>
<polygon fill="black" stroke="black" points="184,-430.104 180.5,-420.104 177,-430.104 184,-430.104"/>
</g>
<!-- TaggedDataRecord&#45;&gt;FilterExcludingMarine -->
<g id="edge2" class="edge"><title>TaggedDataRecord&#45;&gt;FilterExcludingMarine</title>
<path fill="none" stroke="black" d="M180.5,-311.697C180.5,-303.983 180.5,-294.712 180.5,-286.112"/>
<polygon fill="black" stroke="black" points="184,-286.104 180.5,-276.104 177,-286.104 184,-286.104"/>
</g>
<!-- notMarineDataRecord&#45;&gt;GBIFLookup -->
<g id="edge1" class="edge"><title>notMarineDataRecord&#45;&gt;GBIFLookup</title>
<path fill="none" stroke="black" d="M180.5,-167.697C180.5,-159.983 180.5,-150.712 180.5,-142.112"/>
<polygon fill="black" stroke="black" points="184,-142.104 180.5,-132.104 177,-142.104 184,-142.104"/>
</g>
<!-- InputFilePath -->
<g id="node12" class="node"><title>InputFilePath</title>
<path fill="#ffffff" stroke="black" d="M152.75,-780C152.75,-780 78.25,-780 78.25,-780 72.25,-780 66.25,-774 66.25,-768 66.25,-768 66.25,-756 66.25,-756 66.25,-750 72.25,-744 78.25,-744 78.25,-744 152.75,-744 152.75,-744 158.75,-744 164.75,-750 164.75,-756 164.75,-756 164.75,-768 164.75,-768 164.75,-774 158.75,-780 152.75,-780"/>
<text text-anchor="middle" x="115.5" y="-758.3" font-family="Helvetica,sans-Serif" font-size="14.00">InputFilePath</text>
</g>
<!-- InputFilePath&#45;&gt;Setup -->
<g id="edge6" class="edge"><title>InputFilePath&#45;&gt;Setup</title>
<path fill="none" stroke="black" d="M131.567,-743.697C139.439,-735.22 149.055,-724.864 157.673,-715.583"/>
<polygon fill="black" stroke="black" points="160.378,-717.814 164.617,-708.104 155.248,-713.051 160.378,-717.814"/>
</g>
<!-- DarwinCoreFile_inflow -->
<g id="node13" class="node"><title>DarwinCoreFile_inflow</title>
<ellipse fill="none" stroke="black" cx="193.5" cy="-827" rx="7" ry="7"/>
</g>
<!-- DarwinCoreFile_inflow&#45;&gt;DarwinCoreFile -->
<g id="edge12" class="edge"><title>DarwinCoreFile_inflow&#45;&gt;DarwinCoreFile</title>
<path fill="none" stroke="black" d="M197.422,-820.629C202.632,-813.493 212.192,-800.4 220.884,-788.496"/>
<polygon fill="black" stroke="black" points="223.915,-790.28 226.985,-780.14 218.262,-786.152 223.915,-790.28"/>
</g>
<!-- InputFilePath_inflow -->
<g id="node14" class="node"><title>InputFilePath_inflow</title>
<ellipse fill="none" stroke="black" cx="161.5" cy="-827" rx="7" ry="7"/>
</g>
<!-- InputFilePath_inflow&#45;&gt;InputFilePath -->
<g id="edge13" class="edge"><title>InputFilePath_inflow&#45;&gt;InputFilePath</title>
<path fill="none" stroke="black" d="M157.578,-820.629C152.368,-813.493 142.808,-800.4 134.116,-788.496"/>
<polygon fill="black" stroke="black" points="136.738,-786.152 128.015,-780.14 131.085,-790.28 136.738,-786.152"/>
</g>
</g>
</svg>
