<?xml version="1.0" encoding="UTF-8" standalone="no"?>
<!DOCTYPE svg PUBLIC "-//W3C//DTD SVG 1.1//EN"
 "http://www.w3.org/Graphics/SVG/1.1/DTD/svg11.dtd">
<!-- Generated by graphviz version 2.36.0 (20140111.2315)
 -->
<!-- Title: Workflow Pages: 1 -->
<svg width="782pt" height="1382pt"
 viewBox="0.00 0.00 782.00 1382.00" xmlns="http://www.w3.org/2000/svg" xmlns:xlink="http://www.w3.org/1999/xlink">
<g id="graph0" class="graph" transform="scale(1 1) rotate(0) translate(4 1378)">
<title>Workflow</title>
<polygon fill="white" stroke="none" points="-4,4 -4,-1378 778,-1378 778,4 -4,4"/>
<text text-anchor="middle" x="387" y="-1355.6" font-family="Helvetica,sans-Serif" font-size="18.00">FileBranchingTaxonLookupWorkflow</text>
<g id="clust3" class="cluster"><title>cluster_input_ports_group_outer</title>
<polygon fill="none" stroke="black" stroke-width="0" points="411,-1292 411,-1338 489,-1338 489,-1292 411,-1292"/>
</g>
<g id="clust4" class="cluster"><title>cluster_input_ports_group_inner</title>
<polygon fill="none" stroke="black" stroke-width="0" points="419,-1300 419,-1330 481,-1330 481,-1300 419,-1300"/>
</g>
<g id="clust1" class="cluster"><title>cluster_workflow_box_outer</title>
<polygon fill="none" stroke="black" stroke-width="2" points="8,-62 8,-1284 766,-1284 766,-62 8,-62"/>
</g>
<g id="clust2" class="cluster"><title>cluster_workflow_box_inner</title>
<polygon fill="none" stroke="black" stroke-width="0" points="16,-70 16,-1276 758,-1276 758,-70 16,-70"/>
</g>
<g id="clust5" class="cluster"><title>cluster_output_ports_group_outer</title>
<polygon fill="none" stroke="black" stroke-width="0" points="326,-8 326,-54 404,-54 404,-8 326,-8"/>
</g>
<g id="clust6" class="cluster"><title>cluster_output_ports_group_inner</title>
<polygon fill="none" stroke="black" stroke-width="0" points="334,-16 334,-46 396,-46 396,-16 334,-16"/>
</g>
<!-- Setup -->
<g id="node1" class="node"><title>Setup</title>
<polygon fill="#ccffcc" stroke="black" points="103,-1122.5 103,-1183.5 525,-1183.5 525,-1122.5 103,-1122.5"/>
<text text-anchor="middle" x="314" y="-1168.3" font-family="Helvetica,sans-Serif" font-size="14.00">Setup</text>
<polyline fill="none" stroke="black" points="103,-1160.5 525,-1160.5 "/>
<text text-anchor="middle" x="314" y="-1145.3" font-family="Helvetica,sans-Serif" font-size="14.00">Create a unique workspace and transform the input file to a file</text>
<text text-anchor="middle" x="314" y="-1130.3" font-family="Helvetica,sans-Serif" font-size="14.00"> with chosen format and field names standardized to Darwin Core</text>
</g>
<!-- OccurrenceFile -->
<g id="node11" class="node"><title>OccurrenceFile</title>
<path fill="#ffffcc" stroke="black" d="M220,-1039C220,-1039 426,-1039 426,-1039 432,-1039 438,-1045 438,-1051 438,-1051 438,-1073 438,-1073 438,-1079 432,-1085 426,-1085 426,-1085 220,-1085 220,-1085 214,-1085 208,-1079 208,-1073 208,-1073 208,-1051 208,-1051 208,-1045 214,-1039 220,-1039"/>
<text text-anchor="middle" x="323" y="-1069.8" font-family="Helvetica,sans-Serif" font-size="14.00">OccurrenceFile</text>
<polyline fill="none" stroke="black" points="208,-1062 438,-1062 "/>
<text text-anchor="middle" x="323" y="-1046.8" font-family="Helvetica,sans-Serif" font-size="14.00">file:{workspace}/darwinized_file.txt</text>
</g>
<!-- Setup&#45;&gt;OccurrenceFile -->
<g id="edge2" class="edge"><title>Setup&#45;&gt;OccurrenceFile</title>
<path fill="none" stroke="black" d="M316.997,-1122.36C317.879,-1113.64 318.848,-1104.06 319.745,-1095.18"/>
<polygon fill="black" stroke="black" points="323.233,-1095.49 320.756,-1085.19 316.268,-1094.78 323.233,-1095.49"/>
</g>
<!-- Workspace -->
<g id="node18" class="node"><title>Workspace</title>
<path fill="#ffffcc" stroke="black" d="M129.25,-996C129.25,-996 66.75,-996 66.75,-996 60.75,-996 54.75,-990 54.75,-984 54.75,-984 54.75,-972 54.75,-972 54.75,-966 60.75,-960 66.75,-960 66.75,-960 129.25,-960 129.25,-960 135.25,-960 141.25,-966 141.25,-972 141.25,-972 141.25,-984 141.25,-984 141.25,-990 135.25,-996 129.25,-996"/>
<text text-anchor="middle" x="98" y="-974.3" font-family="Helvetica,sans-Serif" font-size="14.00">Workspace</text>
</g>
<!-- Setup&#45;&gt;Workspace -->
<g id="edge1" class="edge"><title>Setup&#45;&gt;Workspace</title>
<path fill="none" stroke="black" d="M254.838,-1122.42C236.224,-1111.99 216.083,-1099.47 199,-1086 167.734,-1061.35 137.102,-1027.05 117.921,-1003.99"/>
<polygon fill="black" stroke="black" points="120.444,-1001.55 111.392,-996.045 115.034,-1005.99 120.444,-1001.55"/>
</g>
<!-- FileToDataStream -->
<g id="node2" class="node"><title>FileToDataStream</title>
<polygon fill="#ccffcc" stroke="black" points="177,-955 177,-1001 581,-1001 581,-955 177,-955"/>
<text text-anchor="middle" x="379" y="-985.8" font-family="Helvetica,sans-Serif" font-size="14.00">FileToDataStream</text>
<polyline fill="none" stroke="black" points="177,-978 581,-978 "/>
<text text-anchor="middle" x="379" y="-962.8" font-family="Helvetica,sans-Serif" font-size="14.00">Take the darwinized occurrence file and stream records from it</text>
</g>
<!-- DataRecord -->
<g id="node12" class="node"><title>DataRecord</title>
<path fill="#ffffcc" stroke="black" d="M421.25,-918C421.25,-918 354.75,-918 354.75,-918 348.75,-918 342.75,-912 342.75,-906 342.75,-906 342.75,-894 342.75,-894 342.75,-888 348.75,-882 354.75,-882 354.75,-882 421.25,-882 421.25,-882 427.25,-882 433.25,-888 433.25,-894 433.25,-894 433.25,-906 433.25,-906 433.25,-912 427.25,-918 421.25,-918"/>
<text text-anchor="middle" x="388" y="-896.3" font-family="Helvetica,sans-Serif" font-size="14.00">DataRecord</text>
</g>
<!-- FileToDataStream&#45;&gt;DataRecord -->
<g id="edge5" class="edge"><title>FileToDataStream&#45;&gt;DataRecord</title>
<path fill="none" stroke="black" d="M381.652,-954.609C382.625,-946.391 383.738,-936.994 384.757,-928.387"/>
<polygon fill="black" stroke="black" points="388.238,-928.754 385.938,-918.412 381.286,-927.931 388.238,-928.754"/>
</g>
<!-- EnvironmentTagger -->
<g id="node3" class="node"><title>EnvironmentTagger</title>
<polygon fill="#ccffcc" stroke="black" points="44.5,-799 44.5,-845 749.5,-845 749.5,-799 44.5,-799"/>
<text text-anchor="middle" x="397" y="-829.8" font-family="Helvetica,sans-Serif" font-size="14.00">EnvironmentTagger</text>
<polyline fill="none" stroke="black" points="44.5,-822 749.5,-822 "/>
<text text-anchor="middle" x="397" y="-806.8" font-family="Helvetica,sans-Serif" font-size="14.00">Tag each record in the stream that appears to be marine with isMarine=true and nonmarine with isMarine=false</text>
</g>
<!-- TaggedDataRecord -->
<g id="node13" class="node"><title>TaggedDataRecord</title>
<path fill="#ffffcc" stroke="black" d="M454.25,-762C454.25,-762 339.75,-762 339.75,-762 333.75,-762 327.75,-756 327.75,-750 327.75,-750 327.75,-738 327.75,-738 327.75,-732 333.75,-726 339.75,-726 339.75,-726 454.25,-726 454.25,-726 460.25,-726 466.25,-732 466.25,-738 466.25,-738 466.25,-750 466.25,-750 466.25,-756 460.25,-762 454.25,-762"/>
<text text-anchor="middle" x="397" y="-740.3" font-family="Helvetica,sans-Serif" font-size="14.00">TaggedDataRecord</text>
</g>
<!-- EnvironmentTagger&#45;&gt;TaggedDataRecord -->
<g id="edge8" class="edge"><title>EnvironmentTagger&#45;&gt;TaggedDataRecord</title>
<path fill="none" stroke="black" d="M397,-798.609C397,-790.481 397,-781.2 397,-772.671"/>
<polygon fill="black" stroke="black" points="400.5,-772.412 397,-762.412 393.5,-772.412 400.5,-772.412"/>
</g>
<!-- LogFile -->
<g id="node21" class="node"><title>LogFile</title>
<path fill="#ffffcc" stroke="black" d="M438,-403C438,-403 514,-403 514,-403 520,-403 526,-409 526,-415 526,-415 526,-437 526,-437 526,-443 520,-449 514,-449 514,-449 438,-449 438,-449 432,-449 426,-443 426,-437 426,-437 426,-415 426,-415 426,-409 432,-403 438,-403"/>
<text text-anchor="middle" x="476" y="-433.8" font-family="Helvetica,sans-Serif" font-size="14.00">LogFile</text>
<polyline fill="none" stroke="black" points="426,-426 526,-426 "/>
<text text-anchor="middle" x="476" y="-410.8" font-family="Helvetica,sans-Serif" font-size="14.00">file:runlog.log</text>
</g>
<!-- EnvironmentTagger&#45;&gt;LogFile -->
<g id="edge7" class="edge"><title>EnvironmentTagger&#45;&gt;LogFile</title>
<path fill="none" stroke="black" d="M543.428,-798.902C616.285,-778.71 689,-740.217 689,-667 689,-667 689,-667 689,-587 689,-510.063 599.061,-465.554 536.069,-443.817"/>
<polygon fill="black" stroke="black" points="536.802,-440.371 526.208,-440.522 534.584,-447.011 536.802,-440.371"/>
</g>
<!-- FilterToJustMarine -->
<g id="node4" class="node"><title>FilterToJustMarine</title>
<polygon fill="#ccffcc" stroke="black" points="378,-643 378,-689 670,-689 670,-643 378,-643"/>
<text text-anchor="middle" x="524" y="-673.8" font-family="Helvetica,sans-Serif" font-size="14.00">FilterToJustMarine</text>
<polyline fill="none" stroke="black" points="378,-666 670,-666 "/>
<text text-anchor="middle" x="524" y="-650.8" font-family="Helvetica,sans-Serif" font-size="14.00">Pass only records tagged with isMarine=true</text>
</g>
<!-- MarineDataRecord -->
<g id="node14" class="node"><title>MarineDataRecord</title>
<path fill="#ffffcc" stroke="black" d="M524,-606C524,-606 414,-606 414,-606 408,-606 402,-600 402,-594 402,-594 402,-582 402,-582 402,-576 408,-570 414,-570 414,-570 524,-570 524,-570 530,-570 536,-576 536,-582 536,-582 536,-594 536,-594 536,-600 530,-606 524,-606"/>
<text text-anchor="middle" x="469" y="-584.3" font-family="Helvetica,sans-Serif" font-size="14.00">MarineDataRecord</text>
</g>
<!-- FilterToJustMarine&#45;&gt;MarineDataRecord -->
<g id="edge11" class="edge"><title>FilterToJustMarine&#45;&gt;MarineDataRecord</title>
<path fill="none" stroke="black" d="M507.796,-642.609C501.456,-633.849 494.148,-623.75 487.595,-614.695"/>
<polygon fill="black" stroke="black" points="490.299,-612.461 481.601,-606.412 484.628,-616.565 490.299,-612.461"/>
</g>
<!-- FilterToJustMarine&#45;&gt;LogFile -->
<g id="edge10" class="edge"><title>FilterToJustMarine&#45;&gt;LogFile</title>
<path fill="none" stroke="black" d="M541.033,-642.757C565.747,-607.557 605.529,-537.707 576,-486 566.764,-469.828 551.17,-457.644 535.01,-448.676"/>
<polygon fill="black" stroke="black" points="536.5,-445.507 526.01,-444.02 533.284,-451.724 536.5,-445.507"/>
</g>
<!-- FilterExcludingMarine -->
<g id="node5" class="node"><title>FilterExcludingMarine</title>
<polygon fill="#ccffcc" stroke="black" points="44,-643 44,-689 360,-689 360,-643 44,-643"/>
<text text-anchor="middle" x="202" y="-673.8" font-family="Helvetica,sans-Serif" font-size="14.00">FilterExcludingMarine</text>
<polyline fill="none" stroke="black" points="44,-666 360,-666 "/>
<text text-anchor="middle" x="202" y="-650.8" font-family="Helvetica,sans-Serif" font-size="14.00">Pass only records not tagged with isMarine=true</text>
</g>
<!-- notMarineDataRecord -->
<g id="node15" class="node"><title>notMarineDataRecord</title>
<path fill="#ffffcc" stroke="black" d="M253.25,-606C253.25,-606 124.75,-606 124.75,-606 118.75,-606 112.75,-600 112.75,-594 112.75,-594 112.75,-582 112.75,-582 112.75,-576 118.75,-570 124.75,-570 124.75,-570 253.25,-570 253.25,-570 259.25,-570 265.25,-576 265.25,-582 265.25,-582 265.25,-594 265.25,-594 265.25,-600 259.25,-606 253.25,-606"/>
<text text-anchor="middle" x="189" y="-584.3" font-family="Helvetica,sans-Serif" font-size="14.00">notMarineDataRecord</text>
</g>
<!-- FilterExcludingMarine&#45;&gt;notMarineDataRecord -->
<g id="edge14" class="edge"><title>FilterExcludingMarine&#45;&gt;notMarineDataRecord</title>
<path fill="none" stroke="black" d="M198.17,-642.609C196.764,-634.391 195.157,-624.994 193.685,-616.387"/>
<polygon fill="black" stroke="black" points="197.114,-615.679 191.978,-606.412 190.215,-616.859 197.114,-615.679"/>
</g>
<!-- FilterExcludingMarine&#45;&gt;LogFile -->
<g id="edge13" class="edge"><title>FilterExcludingMarine&#45;&gt;LogFile</title>
<path fill="none" stroke="black" d="M236.868,-642.817C250.068,-632.929 264.247,-620.279 274,-606 289.816,-582.846 293.392,-506.044 313,-486 346.911,-451.335 370.466,-466.681 416,-450 416.101,-449.963 416.203,-449.926 416.305,-449.888"/>
<polygon fill="black" stroke="black" points="417.791,-453.07 425.952,-446.313 415.359,-446.506 417.791,-453.07"/>
</g>
<!-- WoRMSLookup -->
<g id="node6" class="node"><title>WoRMSLookup</title>
<polygon fill="#ccffcc" stroke="black" points="322.5,-487 322.5,-533 567.5,-533 567.5,-487 322.5,-487"/>
<text text-anchor="middle" x="445" y="-517.8" font-family="Helvetica,sans-Serif" font-size="14.00">WoRMSLookup</text>
<polyline fill="none" stroke="black" points="322.5,-510 567.5,-510 "/>
<text text-anchor="middle" x="445" y="-494.8" font-family="Helvetica,sans-Serif" font-size="14.00">Lookup GUIDs for names in WoRMS</text>
</g>
<!-- WoRMS&#45;updatedRecord -->
<g id="node17" class="node"><title>WoRMS&#45;updatedRecord</title>
<path fill="#ffffcc" stroke="black" d="M395.25,-444C395.25,-444 250.75,-444 250.75,-444 244.75,-444 238.75,-438 238.75,-432 238.75,-432 238.75,-420 238.75,-420 238.75,-414 244.75,-408 250.75,-408 250.75,-408 395.25,-408 395.25,-408 401.25,-408 407.25,-414 407.25,-420 407.25,-420 407.25,-432 407.25,-432 407.25,-438 401.25,-444 395.25,-444"/>
<text text-anchor="middle" x="323" y="-422.3" font-family="Helvetica,sans-Serif" font-size="14.00">WoRMS&#45;updatedRecord</text>
</g>
<!-- WoRMSLookup&#45;&gt;WoRMS&#45;updatedRecord -->
<g id="edge16" class="edge"><title>WoRMSLookup&#45;&gt;WoRMS&#45;updatedRecord</title>
<path fill="none" stroke="black" d="M411.985,-486.81C394.919,-475.339 374.121,-461.36 356.925,-449.802"/>
<polygon fill="black" stroke="black" points="358.551,-446.678 348.299,-444.004 354.646,-452.488 358.551,-446.678"/>
</g>
<!-- WoRMSLookup&#45;&gt;LogFile -->
<g id="edge17" class="edge"><title>WoRMSLookup&#45;&gt;LogFile</title>
<path fill="none" stroke="black" d="M453.471,-486.593C456.744,-477.935 460.548,-467.874 464.087,-458.512"/>
<polygon fill="black" stroke="black" points="467.384,-459.687 467.647,-449.096 460.837,-457.212 467.384,-459.687"/>
</g>
<!-- GBIFLookup -->
<g id="node7" class="node"><title>GBIFLookup</title>
<polygon fill="#ccffcc" stroke="black" points="58,-487 58,-533 284,-533 284,-487 58,-487"/>
<text text-anchor="middle" x="171" y="-517.8" font-family="Helvetica,sans-Serif" font-size="14.00">GBIFLookup</text>
<polyline fill="none" stroke="black" points="58,-510 284,-510 "/>
<text text-anchor="middle" x="171" y="-494.8" font-family="Helvetica,sans-Serif" font-size="14.00">Lookup GUIDs for names in GBIF</text>
</g>
<!-- GBIF&#45;updatedRecord -->
<g id="node16" class="node"><title>GBIF&#45;updatedRecord</title>
<path fill="#ffffcc" stroke="black" d="M208,-444C208,-444 82,-444 82,-444 76,-444 70,-438 70,-432 70,-432 70,-420 70,-420 70,-414 76,-408 82,-408 82,-408 208,-408 208,-408 214,-408 220,-414 220,-420 220,-420 220,-432 220,-432 220,-438 214,-444 208,-444"/>
<text text-anchor="middle" x="145" y="-422.3" font-family="Helvetica,sans-Serif" font-size="14.00">GBIF&#45;updatedRecord</text>
</g>
<!-- GBIFLookup&#45;&gt;GBIF&#45;updatedRecord -->
<g id="edge19" class="edge"><title>GBIFLookup&#45;&gt;GBIF&#45;updatedRecord</title>
<path fill="none" stroke="black" d="M163.895,-486.593C160.682,-476.459 156.86,-464.403 153.496,-453.795"/>
<polygon fill="black" stroke="black" points="156.805,-452.652 150.446,-444.177 150.133,-454.768 156.805,-452.652"/>
</g>
<!-- GBIFLookup&#45;&gt;LogFile -->
<g id="edge20" class="edge"><title>GBIFLookup&#45;&gt;LogFile</title>
<path fill="none" stroke="black" d="M275.526,-486.974C319.282,-476.943 370.458,-464.147 416,-450 416.1,-449.969 416.2,-449.938 416.3,-449.907"/>
<polygon fill="black" stroke="black" points="417.341,-453.249 425.751,-446.805 415.159,-446.598 417.341,-453.249"/>
</g>
<!-- StreamMerge -->
<g id="node8" class="node"><title>StreamMerge</title>
<polygon fill="#ccffcc" stroke="black" points="169.5,-319 169.5,-365 302.5,-365 302.5,-319 169.5,-319"/>
<text text-anchor="middle" x="236" y="-349.8" font-family="Helvetica,sans-Serif" font-size="14.00">StreamMerge</text>
<polyline fill="none" stroke="black" points="169.5,-342 302.5,-342 "/>
<text text-anchor="middle" x="236" y="-326.8" font-family="Helvetica,sans-Serif" font-size="14.00">Merge the streams</text>
</g>
<!-- MergedStream -->
<g id="node19" class="node"><title>MergedStream</title>
<path fill="#ffffcc" stroke="black" d="M278.25,-282C278.25,-282 193.75,-282 193.75,-282 187.75,-282 181.75,-276 181.75,-270 181.75,-270 181.75,-258 181.75,-258 181.75,-252 187.75,-246 193.75,-246 193.75,-246 278.25,-246 278.25,-246 284.25,-246 290.25,-252 290.25,-258 290.25,-258 290.25,-270 290.25,-270 290.25,-276 284.25,-282 278.25,-282"/>
<text text-anchor="middle" x="236" y="-260.3" font-family="Helvetica,sans-Serif" font-size="14.00">MergedStream</text>
</g>
<!-- StreamMerge&#45;&gt;MergedStream -->
<g id="edge22" class="edge"><title>StreamMerge&#45;&gt;MergedStream</title>
<path fill="none" stroke="black" d="M236,-318.609C236,-310.481 236,-301.2 236,-292.671"/>
<polygon fill="black" stroke="black" points="239.5,-292.412 236,-282.412 232.5,-292.412 239.5,-292.412"/>
</g>
<!-- CsvFileWriter -->
<g id="node9" class="node"><title>CsvFileWriter</title>
<polygon fill="#ccffcc" stroke="black" points="58,-163 58,-209 414,-209 414,-163 58,-163"/>
<text text-anchor="middle" x="236" y="-193.8" font-family="Helvetica,sans-Serif" font-size="14.00">CsvFileWriter</text>
<polyline fill="none" stroke="black" points="58,-186 414,-186 "/>
<text text-anchor="middle" x="236" y="-170.8" font-family="Helvetica,sans-Serif" font-size="14.00">Write to a csv file and wrapup by finishing the workflow</text>
</g>
<!-- UpdatedDarwinCoreFile -->
<g id="node20" class="node"><title>UpdatedDarwinCoreFile</title>
<path fill="#ffffcc" stroke="black" d="M159,-79C159,-79 383,-79 383,-79 389,-79 395,-85 395,-91 395,-91 395,-113 395,-113 395,-119 389,-125 383,-125 383,-125 159,-125 159,-125 153,-125 147,-119 147,-113 147,-113 147,-91 147,-91 147,-85 153,-79 159,-79"/>
<text text-anchor="middle" x="271" y="-109.8" font-family="Helvetica,sans-Serif" font-size="14.00">UpdatedDarwinCoreFile</text>
<polyline fill="none" stroke="black" points="147,-102 395,-102 "/>
<text text-anchor="middle" x="271" y="-86.8" font-family="Helvetica,sans-Serif" font-size="14.00">file:{workspace}/mergedoutputfile.csv</text>
</g>
<!-- CsvFileWriter&#45;&gt;UpdatedDarwinCoreFile -->
<g id="edge25" class="edge"><title>CsvFileWriter&#45;&gt;UpdatedDarwinCoreFile</title>
<path fill="none" stroke="black" d="M245.564,-162.593C249.259,-153.935 253.554,-143.874 257.55,-134.512"/>
<polygon fill="black" stroke="black" points="260.862,-135.667 261.569,-125.096 254.424,-132.919 260.862,-135.667"/>
</g>
<!-- DarwinCoreFile -->
<g id="node10" class="node"><title>DarwinCoreFile</title>
<path fill="#ffffcc" stroke="black" d="M71,-1221C71,-1221 523,-1221 523,-1221 529,-1221 535,-1227 535,-1233 535,-1233 535,-1255 535,-1255 535,-1261 529,-1267 523,-1267 523,-1267 71,-1267 71,-1267 65,-1267 59,-1261 59,-1255 59,-1255 59,-1233 59,-1233 59,-1227 65,-1221 71,-1221"/>
<text text-anchor="middle" x="297" y="-1251.8" font-family="Helvetica,sans-Serif" font-size="14.00">DarwinCoreFile</text>
<polyline fill="none" stroke="black" points="59,-1244 535,-1244 "/>
<text text-anchor="middle" x="297" y="-1228.8" font-family="Helvetica,sans-Serif" font-size="14.00">file:packages/kurator_branching_generic/data/kurator_sample_data_v2.txt</text>
</g>
<!-- DarwinCoreFile&#45;&gt;Setup -->
<g id="edge4" class="edge"><title>DarwinCoreFile&#45;&gt;Setup</title>
<path fill="none" stroke="black" d="M301.202,-1221C302.776,-1212.76 304.617,-1203.12 306.404,-1193.77"/>
<polygon fill="black" stroke="black" points="309.869,-1194.28 308.307,-1183.8 302.993,-1192.97 309.869,-1194.28"/>
</g>
<!-- OccurrenceFile&#45;&gt;FileToDataStream -->
<g id="edge6" class="edge"><title>OccurrenceFile&#45;&gt;FileToDataStream</title>
<path fill="none" stroke="black" d="M338.302,-1038.59C344.402,-1029.66 351.521,-1019.24 358.084,-1009.63"/>
<polygon fill="black" stroke="black" points="361.161,-1011.33 363.91,-1001.1 355.38,-1007.38 361.161,-1011.33"/>
</g>
<!-- DataRecord&#45;&gt;EnvironmentTagger -->
<g id="edge9" class="edge"><title>DataRecord&#45;&gt;EnvironmentTagger</title>
<path fill="none" stroke="black" d="M390.042,-881.754C390.977,-873.863 392.115,-864.249 393.198,-855.102"/>
<polygon fill="black" stroke="black" points="396.684,-855.433 394.384,-845.091 389.732,-854.61 396.684,-855.433"/>
</g>
<!-- TaggedDataRecord&#45;&gt;FilterToJustMarine -->
<g id="edge12" class="edge"><title>TaggedDataRecord&#45;&gt;FilterToJustMarine</title>
<path fill="none" stroke="black" d="M425.501,-725.944C440.946,-716.702 460.408,-705.055 477.945,-694.561"/>
<polygon fill="black" stroke="black" points="480.125,-697.335 486.909,-689.196 476.531,-691.328 480.125,-697.335"/>
</g>
<!-- TaggedDataRecord&#45;&gt;FilterExcludingMarine -->
<g id="edge15" class="edge"><title>TaggedDataRecord&#45;&gt;FilterExcludingMarine</title>
<path fill="none" stroke="black" d="M353.238,-725.944C328.118,-716.154 296.076,-703.666 267.957,-692.706"/>
<polygon fill="black" stroke="black" points="269.176,-689.425 258.587,-689.055 266.634,-695.947 269.176,-689.425"/>
</g>
<!-- MarineDataRecord&#45;&gt;WoRMSLookup -->
<g id="edge18" class="edge"><title>MarineDataRecord&#45;&gt;WoRMSLookup</title>
<path fill="none" stroke="black" d="M463.554,-569.754C461.035,-561.778 457.961,-552.042 455.044,-542.808"/>
<polygon fill="black" stroke="black" points="458.325,-541.573 451.976,-533.091 451.65,-543.681 458.325,-541.573"/>
</g>
<!-- notMarineDataRecord&#45;&gt;GBIFLookup -->
<g id="edge21" class="edge"><title>notMarineDataRecord&#45;&gt;GBIFLookup</title>
<path fill="none" stroke="black" d="M184.916,-569.754C183.047,-561.863 180.77,-552.249 178.603,-543.102"/>
<polygon fill="black" stroke="black" points="181.943,-542.015 176.232,-533.091 175.131,-543.628 181.943,-542.015"/>
</g>
<!-- GBIF&#45;updatedRecord&#45;&gt;StreamMerge -->
<g id="edge23" class="edge"><title>GBIF&#45;updatedRecord&#45;&gt;StreamMerge</title>
<path fill="none" stroke="black" d="M164.299,-407.61C175.813,-397.235 190.722,-383.8 203.961,-371.871"/>
<polygon fill="black" stroke="black" points="206.438,-374.35 211.524,-365.055 201.752,-369.149 206.438,-374.35"/>
</g>
<!-- WoRMS&#45;updatedRecord&#45;&gt;StreamMerge -->
<g id="edge24" class="edge"><title>WoRMS&#45;updatedRecord&#45;&gt;StreamMerge</title>
<path fill="none" stroke="black" d="M304.55,-407.61C293.645,-397.332 279.554,-384.051 266.986,-372.206"/>
<polygon fill="black" stroke="black" points="269.078,-369.367 259.4,-365.055 264.277,-374.461 269.078,-369.367"/>
</g>
<!-- Workspace&#45;&gt;CsvFileWriter -->
<g id="edge26" class="edge"><title>Workspace&#45;&gt;CsvFileWriter</title>
<path fill="none" stroke="black" d="M83.5775,-959.783C62.3031,-932.574 25,-877.146 25,-823 25,-823 25,-823 25,-341 25,-276.239 90.6539,-235.809 148.716,-212.716"/>
<polygon fill="black" stroke="black" points="150.253,-215.876 158.33,-209.02 147.74,-209.342 150.253,-215.876"/>
</g>
<!-- MergedStream&#45;&gt;CsvFileWriter -->
<g id="edge27" class="edge"><title>MergedStream&#45;&gt;CsvFileWriter</title>
<path fill="none" stroke="black" d="M236,-245.754C236,-237.863 236,-228.249 236,-219.102"/>
<polygon fill="black" stroke="black" points="239.5,-219.091 236,-209.091 232.5,-219.091 239.5,-219.091"/>
</g>
<!-- UpdatedDarwinCoreFile_output_port -->
<g id="node25" class="node"><title>UpdatedDarwinCoreFile_output_port</title>
<ellipse fill="#ffffff" stroke="black" cx="349" cy="-31" rx="7" ry="7"/>
</g>
<!-- UpdatedDarwinCoreFile&#45;&gt;UpdatedDarwinCoreFile_output_port -->
<g id="edge30" class="edge"><title>UpdatedDarwinCoreFile&#45;&gt;UpdatedDarwinCoreFile_output_port</title>
<path fill="none" stroke="black" d="M296.109,-78.7882C309.609,-66.8462 325.663,-52.6446 336.515,-43.0449"/>
<polygon fill="black" stroke="black" points="339.065,-45.4613 344.236,-36.214 334.427,-40.2183 339.065,-45.4613"/>
</g>
<!-- LogFile_output_port -->
<g id="node26" class="node"><title>LogFile_output_port</title>
<ellipse fill="#ffffff" stroke="black" cx="381" cy="-31" rx="7" ry="7"/>
</g>
<!-- LogFile&#45;&gt;LogFile_output_port -->
<g id="edge31" class="edge"><title>LogFile&#45;&gt;LogFile_output_port</title>
<path fill="none" stroke="black" d="M472.142,-402.819C467.127,-372.003 459,-314.443 459,-265 459,-265 459,-265 459,-185 459,-127.112 414.134,-69.0248 392.457,-44.338"/>
<polygon fill="black" stroke="black" points="394.952,-41.8795 385.646,-36.8163 389.764,-46.5781 394.952,-41.8795"/>
</g>
<!-- InputFilePath -->
<g id="node22" class="node"><title>InputFilePath</title>
<path fill="#fcfcfc" stroke="black" d="M640.25,-1262C640.25,-1262 565.75,-1262 565.75,-1262 559.75,-1262 553.75,-1256 553.75,-1250 553.75,-1250 553.75,-1238 553.75,-1238 553.75,-1232 559.75,-1226 565.75,-1226 565.75,-1226 640.25,-1226 640.25,-1226 646.25,-1226 652.25,-1232 652.25,-1238 652.25,-1238 652.25,-1250 652.25,-1250 652.25,-1256 646.25,-1262 640.25,-1262"/>
<text text-anchor="middle" x="603" y="-1240.3" font-family="Helvetica,sans-Serif" font-size="14.00">InputFilePath</text>
</g>
<!-- InputFilePath&#45;&gt;Setup -->
<g id="edge3" class="edge"><title>InputFilePath&#45;&gt;Setup</title>
<path fill="none" stroke="black" d="M560.633,-1225.94C555.067,-1223.86 549.416,-1221.83 544,-1220 508.742,-1208.1 469.998,-1196.44 434.523,-1186.32"/>
<polygon fill="black" stroke="black" points="435.186,-1182.87 424.61,-1183.51 433.275,-1189.61 435.186,-1182.87"/>
</g>
<!-- InputFilePath_input_port -->
<g id="node23" class="node"><title>InputFilePath_input_port</title>
<ellipse fill="#ffffff" stroke="black" cx="466" cy="-1315" rx="7" ry="7"/>
</g>
<!-- InputFilePath_input_port&#45;&gt;InputFilePath -->
<g id="edge28" class="edge"><title>InputFilePath_input_port&#45;&gt;InputFilePath</title>
<path fill="none" stroke="black" d="M472.679,-1311.97C486.427,-1307.69 518.719,-1297.02 544,-1284 553.169,-1279.28 562.673,-1273.45 571.306,-1267.76"/>
<polygon fill="black" stroke="black" points="573.274,-1270.66 579.602,-1262.16 569.356,-1264.86 573.274,-1270.66"/>
</g>
<!-- DarwinCoreFile_input_port -->
<g id="node24" class="node"><title>DarwinCoreFile_input_port</title>
<ellipse fill="#ffffff" stroke="black" cx="434" cy="-1315" rx="7" ry="7"/>
</g>
<!-- DarwinCoreFile_input_port&#45;&gt;DarwinCoreFile -->
<g id="edge29" class="edge"><title>DarwinCoreFile_input_port&#45;&gt;DarwinCoreFile</title>
<path fill="none" stroke="black" d="M428.113,-1311.04C414.607,-1304.23 380.229,-1286.92 350.064,-1271.73"/>
<polygon fill="black" stroke="black" points="351.371,-1268.47 340.866,-1267.09 348.223,-1274.72 351.371,-1268.47"/>
</g>
</g>
</svg>
