<?xml version="1.0" encoding="UTF-8" standalone="no"?>
<!DOCTYPE svg PUBLIC "-//W3C//DTD SVG 1.1//EN"
 "http://www.w3.org/Graphics/SVG/1.1/DTD/svg11.dtd">
<!-- Generated by graphviz version 2.36.0 (20140111.2315)
 -->
<!-- Title: Workflow Pages: 1 -->
<svg width="878pt" height="1418pt"
 viewBox="0.00 0.00 878.00 1418.00" xmlns="http://www.w3.org/2000/svg" xmlns:xlink="http://www.w3.org/1999/xlink">
<g id="graph0" class="graph" transform="scale(1 1) rotate(0) translate(4 1414)">
<title>Workflow</title>
<polygon fill="white" stroke="none" points="-4,4 -4,-1414 874,-1414 874,4 -4,4"/>
<text text-anchor="middle" x="435" y="-1391.6" font-family="Helvetica,sans-Serif" font-size="18.00">FileBranchingTaxonLookupWorkflow</text>
<g id="clust3" class="cluster"><title>cluster_input_ports_group_outer</title>
<polygon fill="none" stroke="black" stroke-width="0" points="411,-1328 411,-1374 489,-1374 489,-1328 411,-1328"/>
</g>
<g id="clust4" class="cluster"><title>cluster_input_ports_group_inner</title>
<polygon fill="none" stroke="black" stroke-width="0" points="419,-1336 419,-1366 481,-1366 481,-1336 419,-1336"/>
</g>
<g id="clust5" class="cluster"><title>cluster_output_ports_group_outer</title>
<polygon fill="none" stroke="black" stroke-width="0" points="434,-8 434,-54 512,-54 512,-8 434,-8"/>
</g>
<g id="clust6" class="cluster"><title>cluster_output_ports_group_inner</title>
<polygon fill="none" stroke="black" stroke-width="0" points="442,-16 442,-46 504,-46 504,-16 442,-16"/>
</g>
<g id="clust1" class="cluster"><title>cluster_workflow_box_outer</title>
<polygon fill="none" stroke="black" stroke-width="2" points="8,-62 8,-1320 862,-1320 862,-62 8,-62"/>
</g>
<g id="clust2" class="cluster"><title>cluster_workflow_box_inner</title>
<polygon fill="none" stroke="black" stroke-width="0" points="16,-70 16,-1312 854,-1312 854,-70 16,-70"/>
</g>
<!-- Setup -->
<g id="node1" class="node"><title>Setup</title>
<polygon fill="#ccffcc" stroke="black" points="103,-1158.5 103,-1219.5 525,-1219.5 525,-1158.5 103,-1158.5"/>
<text text-anchor="middle" x="314" y="-1204.3" font-family="Helvetica,sans-Serif" font-size="14.00">Setup</text>
<polyline fill="none" stroke="black" points="103,-1196.5 525,-1196.5 "/>
<text text-anchor="middle" x="314" y="-1181.3" font-family="Helvetica,sans-Serif" font-size="14.00">Create a unique workspace and transform the input file to a file</text>
<text text-anchor="middle" x="314" y="-1166.3" font-family="Helvetica,sans-Serif" font-size="14.00"> with chosen format and field names standardized to Darwin Core</text>
</g>
<!-- OccurrenceFile -->
<g id="node11" class="node"><title>OccurrenceFile</title>
<path fill="#ffffcc" stroke="black" d="M220,-1075C220,-1075 426,-1075 426,-1075 432,-1075 438,-1081 438,-1087 438,-1087 438,-1109 438,-1109 438,-1115 432,-1121 426,-1121 426,-1121 220,-1121 220,-1121 214,-1121 208,-1115 208,-1109 208,-1109 208,-1087 208,-1087 208,-1081 214,-1075 220,-1075"/>
<text text-anchor="middle" x="323" y="-1105.8" font-family="Helvetica,sans-Serif" font-size="14.00">OccurrenceFile</text>
<polyline fill="none" stroke="black" points="208,-1098 438,-1098 "/>
<text text-anchor="middle" x="323" y="-1082.8" font-family="Helvetica,sans-Serif" font-size="14.00">file:{workspace}/darwinized_file.txt</text>
</g>
<!-- Setup&#45;&gt;OccurrenceFile -->
<g id="edge2" class="edge"><title>Setup&#45;&gt;OccurrenceFile</title>
<path fill="none" stroke="black" d="M316.997,-1158.36C317.879,-1149.64 318.848,-1140.06 319.745,-1131.18"/>
<polygon fill="black" stroke="black" points="323.233,-1131.49 320.756,-1121.19 316.268,-1130.78 323.233,-1131.49"/>
</g>
<!-- Workspace -->
<g id="node18" class="node"><title>Workspace</title>
<path fill="#ffffcc" stroke="black" d="M129.25,-1032C129.25,-1032 66.75,-1032 66.75,-1032 60.75,-1032 54.75,-1026 54.75,-1020 54.75,-1020 54.75,-1008 54.75,-1008 54.75,-1002 60.75,-996 66.75,-996 66.75,-996 129.25,-996 129.25,-996 135.25,-996 141.25,-1002 141.25,-1008 141.25,-1008 141.25,-1020 141.25,-1020 141.25,-1026 135.25,-1032 129.25,-1032"/>
<text text-anchor="middle" x="98" y="-1010.3" font-family="Helvetica,sans-Serif" font-size="14.00">Workspace</text>
</g>
<!-- Setup&#45;&gt;Workspace -->
<g id="edge1" class="edge"><title>Setup&#45;&gt;Workspace</title>
<path fill="none" stroke="black" d="M254.838,-1158.42C236.224,-1147.99 216.083,-1135.47 199,-1122 167.734,-1097.35 137.102,-1063.05 117.921,-1039.99"/>
<polygon fill="black" stroke="black" points="120.444,-1037.55 111.392,-1032.04 115.034,-1041.99 120.444,-1037.55"/>
</g>
<!-- FileToDataStream -->
<g id="node2" class="node"><title>FileToDataStream</title>
<polygon fill="#ccffcc" stroke="black" points="225,-991 225,-1037 629,-1037 629,-991 225,-991"/>
<text text-anchor="middle" x="427" y="-1021.8" font-family="Helvetica,sans-Serif" font-size="14.00">FileToDataStream</text>
<polyline fill="none" stroke="black" points="225,-1014 629,-1014 "/>
<text text-anchor="middle" x="427" y="-998.8" font-family="Helvetica,sans-Serif" font-size="14.00">Take the darwinized occurrence file and stream records from it</text>
</g>
<!-- DataRecord -->
<g id="node12" class="node"><title>DataRecord</title>
<path fill="#ffffcc" stroke="black" d="M417.5,-907C417.5,-907 502.5,-907 502.5,-907 508.5,-907 514.5,-913 514.5,-919 514.5,-919 514.5,-941 514.5,-941 514.5,-947 508.5,-953 502.5,-953 502.5,-953 417.5,-953 417.5,-953 411.5,-953 405.5,-947 405.5,-941 405.5,-941 405.5,-919 405.5,-919 405.5,-913 411.5,-907 417.5,-907"/>
<text text-anchor="middle" x="460" y="-937.8" font-family="Helvetica,sans-Serif" font-size="14.00">DataRecord</text>
<polyline fill="none" stroke="black" points="405.5,-930 514.5,-930 "/>
<text text-anchor="middle" x="460" y="-914.8" font-family="Helvetica,sans-Serif" font-size="14.00">{occurrenceID}</text>
</g>
<!-- FileToDataStream&#45;&gt;DataRecord -->
<g id="edge5" class="edge"><title>FileToDataStream&#45;&gt;DataRecord</title>
<path fill="none" stroke="black" d="M436.017,-990.593C439.502,-981.935 443.551,-971.874 447.318,-962.512"/>
<polygon fill="black" stroke="black" points="450.621,-963.68 451.108,-953.096 444.127,-961.066 450.621,-963.68"/>
</g>
<!-- EnvironmentTagger -->
<g id="node3" class="node"><title>EnvironmentTagger</title>
<polygon fill="#ccffcc" stroke="black" points="124.5,-823 124.5,-869 829.5,-869 829.5,-823 124.5,-823"/>
<text text-anchor="middle" x="477" y="-853.8" font-family="Helvetica,sans-Serif" font-size="14.00">EnvironmentTagger</text>
<polyline fill="none" stroke="black" points="124.5,-846 829.5,-846 "/>
<text text-anchor="middle" x="477" y="-830.8" font-family="Helvetica,sans-Serif" font-size="14.00">Tag each record in the stream that appears to be marine with isMarine=true and nonmarine with isMarine=false</text>
</g>
<!-- TaggedDataRecord -->
<g id="node13" class="node"><title>TaggedDataRecord</title>
<path fill="#ffffcc" stroke="black" d="M417.5,-739C417.5,-739 536.5,-739 536.5,-739 542.5,-739 548.5,-745 548.5,-751 548.5,-751 548.5,-773 548.5,-773 548.5,-779 542.5,-785 536.5,-785 536.5,-785 417.5,-785 417.5,-785 411.5,-785 405.5,-779 405.5,-773 405.5,-773 405.5,-751 405.5,-751 405.5,-745 411.5,-739 417.5,-739"/>
<text text-anchor="middle" x="477" y="-769.8" font-family="Helvetica,sans-Serif" font-size="14.00">TaggedDataRecord</text>
<polyline fill="none" stroke="black" points="405.5,-762 548.5,-762 "/>
<text text-anchor="middle" x="477" y="-746.8" font-family="Helvetica,sans-Serif" font-size="14.00">{matchMarineValue}</text>
</g>
<!-- EnvironmentTagger&#45;&gt;TaggedDataRecord -->
<g id="edge8" class="edge"><title>EnvironmentTagger&#45;&gt;TaggedDataRecord</title>
<path fill="none" stroke="black" d="M477,-822.593C477,-814.118 477,-804.297 477,-795.104"/>
<polygon fill="black" stroke="black" points="480.5,-795.096 477,-785.096 473.5,-795.096 480.5,-795.096"/>
</g>
<!-- LogFile -->
<g id="node21" class="node"><title>LogFile</title>
<path fill="#ffffcc" stroke="black" d="M565,-403C565,-403 641,-403 641,-403 647,-403 653,-409 653,-415 653,-415 653,-437 653,-437 653,-443 647,-449 641,-449 641,-449 565,-449 565,-449 559,-449 553,-443 553,-437 553,-437 553,-415 553,-415 553,-409 559,-403 565,-403"/>
<text text-anchor="middle" x="603" y="-433.8" font-family="Helvetica,sans-Serif" font-size="14.00">LogFile</text>
<polyline fill="none" stroke="black" points="553,-426 653,-426 "/>
<text text-anchor="middle" x="603" y="-410.8" font-family="Helvetica,sans-Serif" font-size="14.00">file:runlog.log</text>
</g>
<!-- EnvironmentTagger&#45;&gt;LogFile -->
<g id="edge7" class="edge"><title>EnvironmentTagger&#45;&gt;LogFile</title>
<path fill="none" stroke="black" d="M688.134,-822.962C770.253,-801.557 845,-759.864 845,-679 845,-679 845,-679 845,-593 845,-504.926 734.65,-460.105 662.983,-440.283"/>
<polygon fill="black" stroke="black" points="663.707,-436.854 653.143,-437.65 661.898,-443.616 663.707,-436.854"/>
</g>
<!-- FilterToJustMarine -->
<g id="node4" class="node"><title>FilterToJustMarine</title>
<polygon fill="#ccffcc" stroke="black" points="509,-655 509,-701 801,-701 801,-655 509,-655"/>
<text text-anchor="middle" x="655" y="-685.8" font-family="Helvetica,sans-Serif" font-size="14.00">FilterToJustMarine</text>
<polyline fill="none" stroke="black" points="509,-678 801,-678 "/>
<text text-anchor="middle" x="655" y="-662.8" font-family="Helvetica,sans-Serif" font-size="14.00">Pass only records tagged with isMarine=true</text>
</g>
<!-- MarineDataRecord -->
<g id="node14" class="node"><title>MarineDataRecord</title>
<path fill="#ffffcc" stroke="black" d="M466,-571C466,-571 794,-571 794,-571 800,-571 806,-577 806,-583 806,-583 806,-605 806,-605 806,-611 800,-617 794,-617 794,-617 466,-617 466,-617 460,-617 454,-611 454,-605 454,-605 454,-583 454,-583 454,-577 460,-571 466,-571"/>
<text text-anchor="middle" x="630" y="-601.8" font-family="Helvetica,sans-Serif" font-size="14.00">MarineDataRecord</text>
<polyline fill="none" stroke="black" points="454,-594 806,-594 "/>
<text text-anchor="middle" x="630" y="-578.8" font-family="Helvetica,sans-Serif" font-size="14.00">{MDRscientificName}:{MDRscientificNameAuthorship}</text>
</g>
<!-- FilterToJustMarine&#45;&gt;MarineDataRecord -->
<g id="edge11" class="edge"><title>FilterToJustMarine&#45;&gt;MarineDataRecord</title>
<path fill="none" stroke="black" d="M648.169,-654.593C645.557,-646.027 642.526,-636.086 639.697,-626.808"/>
<polygon fill="black" stroke="black" points="643.001,-625.64 636.737,-617.096 636.305,-627.682 643.001,-625.64"/>
</g>
<!-- FilterToJustMarine&#45;&gt;LogFile -->
<g id="edge10" class="edge"><title>FilterToJustMarine&#45;&gt;LogFile</title>
<path fill="none" stroke="black" d="M768.504,-654.998C786.802,-646.42 803.487,-634.516 815,-618 827.199,-600.499 822.984,-589.783 815,-570 789.112,-505.857 716.21,-466.822 663.109,-446.093"/>
<polygon fill="black" stroke="black" points="664.032,-442.699 653.441,-442.433 661.554,-449.246 664.032,-442.699"/>
</g>
<!-- FilterExcludingMarine -->
<g id="node5" class="node"><title>FilterExcludingMarine</title>
<polygon fill="#ccffcc" stroke="black" points="175,-655 175,-701 491,-701 491,-655 175,-655"/>
<text text-anchor="middle" x="333" y="-685.8" font-family="Helvetica,sans-Serif" font-size="14.00">FilterExcludingMarine</text>
<polyline fill="none" stroke="black" points="175,-678 491,-678 "/>
<text text-anchor="middle" x="333" y="-662.8" font-family="Helvetica,sans-Serif" font-size="14.00">Pass only records not tagged with isMarine=true</text>
</g>
<!-- notMarineDataRecord -->
<g id="node15" class="node"><title>notMarineDataRecord</title>
<path fill="#ffffcc" stroke="black" d="M56,-571C56,-571 404,-571 404,-571 410,-571 416,-577 416,-583 416,-583 416,-605 416,-605 416,-611 410,-617 404,-617 404,-617 56,-617 56,-617 50,-617 44,-611 44,-605 44,-605 44,-583 44,-583 44,-577 50,-571 56,-571"/>
<text text-anchor="middle" x="230" y="-601.8" font-family="Helvetica,sans-Serif" font-size="14.00">notMarineDataRecord</text>
<polyline fill="none" stroke="black" points="44,-594 416,-594 "/>
<text text-anchor="middle" x="230" y="-578.8" font-family="Helvetica,sans-Serif" font-size="14.00">{NMDRscientificName}:{NMDRscientificNameAuthorship}</text>
</g>
<!-- FilterExcludingMarine&#45;&gt;notMarineDataRecord -->
<g id="edge14" class="edge"><title>FilterExcludingMarine&#45;&gt;notMarineDataRecord</title>
<path fill="none" stroke="black" d="M305.127,-654.81C293.104,-645.238 278.888,-633.921 266.076,-623.72"/>
<polygon fill="black" stroke="black" points="267.899,-620.698 257.896,-617.208 263.539,-626.175 267.899,-620.698"/>
</g>
<!-- FilterExcludingMarine&#45;&gt;LogFile -->
<g id="edge13" class="edge"><title>FilterExcludingMarine&#45;&gt;LogFile</title>
<path fill="none" stroke="black" d="M380.285,-654.852C396.306,-645.403 413.13,-633.046 425,-618 444.24,-593.612 449.988,-508.879 471,-486 476.563,-479.942 511.028,-464.623 543.343,-451.113"/>
<polygon fill="black" stroke="black" points="544.929,-454.245 552.82,-447.176 542.243,-447.78 544.929,-454.245"/>
</g>
<!-- WoRMSLookup -->
<g id="node6" class="node"><title>WoRMSLookup</title>
<polygon fill="#ccffcc" stroke="black" points="480.5,-487 480.5,-533 725.5,-533 725.5,-487 480.5,-487"/>
<text text-anchor="middle" x="603" y="-517.8" font-family="Helvetica,sans-Serif" font-size="14.00">WoRMSLookup</text>
<polyline fill="none" stroke="black" points="480.5,-510 725.5,-510 "/>
<text text-anchor="middle" x="603" y="-494.8" font-family="Helvetica,sans-Serif" font-size="14.00">Lookup GUIDs for names in WoRMS</text>
</g>
<!-- WoRMS&#45;updatedRecord -->
<g id="node17" class="node"><title>WoRMS&#45;updatedRecord</title>
<path fill="#ffffcc" stroke="black" d="M377.5,-403C377.5,-403 522.5,-403 522.5,-403 528.5,-403 534.5,-409 534.5,-415 534.5,-415 534.5,-437 534.5,-437 534.5,-443 528.5,-449 522.5,-449 522.5,-449 377.5,-449 377.5,-449 371.5,-449 365.5,-443 365.5,-437 365.5,-437 365.5,-415 365.5,-415 365.5,-409 371.5,-403 377.5,-403"/>
<text text-anchor="middle" x="450" y="-433.8" font-family="Helvetica,sans-Serif" font-size="14.00">WoRMS&#45;updatedRecord</text>
<polyline fill="none" stroke="black" points="365.5,-426 534.5,-426 "/>
<text text-anchor="middle" x="450" y="-410.8" font-family="Helvetica,sans-Serif" font-size="14.00">{WoRMS&#45;GUID}</text>
</g>
<!-- WoRMSLookup&#45;&gt;WoRMS&#45;updatedRecord -->
<g id="edge16" class="edge"><title>WoRMSLookup&#45;&gt;WoRMS&#45;updatedRecord</title>
<path fill="none" stroke="black" d="M561.596,-486.81C542.64,-476.65 520.013,-464.523 500.105,-453.853"/>
<polygon fill="black" stroke="black" points="501.639,-450.705 491.172,-449.066 498.332,-456.875 501.639,-450.705"/>
</g>
<!-- WoRMSLookup&#45;&gt;LogFile -->
<g id="edge17" class="edge"><title>WoRMSLookup&#45;&gt;LogFile</title>
<path fill="none" stroke="black" d="M603,-486.593C603,-478.118 603,-468.297 603,-459.104"/>
<polygon fill="black" stroke="black" points="606.5,-459.096 603,-449.096 599.5,-459.096 606.5,-459.096"/>
</g>
<!-- GBIFLookup -->
<g id="node7" class="node"><title>GBIFLookup</title>
<polygon fill="#ccffcc" stroke="black" points="159,-487 159,-533 385,-533 385,-487 159,-487"/>
<text text-anchor="middle" x="272" y="-517.8" font-family="Helvetica,sans-Serif" font-size="14.00">GBIFLookup</text>
<polyline fill="none" stroke="black" points="159,-510 385,-510 "/>
<text text-anchor="middle" x="272" y="-494.8" font-family="Helvetica,sans-Serif" font-size="14.00">Lookup GUIDs for names in GBIF</text>
</g>
<!-- GBIF&#45;updatedRecord -->
<g id="node16" class="node"><title>GBIF&#45;updatedRecord</title>
<path fill="#ffffcc" stroke="black" d="M209,-403C209,-403 335,-403 335,-403 341,-403 347,-409 347,-415 347,-415 347,-437 347,-437 347,-443 341,-449 335,-449 335,-449 209,-449 209,-449 203,-449 197,-443 197,-437 197,-437 197,-415 197,-415 197,-409 203,-403 209,-403"/>
<text text-anchor="middle" x="272" y="-433.8" font-family="Helvetica,sans-Serif" font-size="14.00">GBIF&#45;updatedRecord</text>
<polyline fill="none" stroke="black" points="197,-426 347,-426 "/>
<text text-anchor="middle" x="272" y="-410.8" font-family="Helvetica,sans-Serif" font-size="14.00">{GBIF&#45;GUID}</text>
</g>
<!-- GBIFLookup&#45;&gt;GBIF&#45;updatedRecord -->
<g id="edge19" class="edge"><title>GBIFLookup&#45;&gt;GBIF&#45;updatedRecord</title>
<path fill="none" stroke="black" d="M272,-486.593C272,-478.118 272,-468.297 272,-459.104"/>
<polygon fill="black" stroke="black" points="275.5,-459.096 272,-449.096 268.5,-459.096 275.5,-459.096"/>
</g>
<!-- GBIFLookup&#45;&gt;LogFile -->
<g id="edge20" class="edge"><title>GBIFLookup&#45;&gt;LogFile</title>
<path fill="none" stroke="black" d="M385.046,-488.377C434.037,-478.418 491.788,-465.294 543,-450 543.1,-449.97 543.2,-449.94 543.301,-449.91"/>
<polygon fill="black" stroke="black" points="544.313,-453.261 552.777,-446.887 542.186,-446.592 544.313,-453.261"/>
</g>
<!-- StreamMerge -->
<g id="node8" class="node"><title>StreamMerge</title>
<polygon fill="#ccffcc" stroke="black" points="267.5,-319 267.5,-365 400.5,-365 400.5,-319 267.5,-319"/>
<text text-anchor="middle" x="334" y="-349.8" font-family="Helvetica,sans-Serif" font-size="14.00">StreamMerge</text>
<polyline fill="none" stroke="black" points="267.5,-342 400.5,-342 "/>
<text text-anchor="middle" x="334" y="-326.8" font-family="Helvetica,sans-Serif" font-size="14.00">Merge the streams</text>
</g>
<!-- MergedStream -->
<g id="node19" class="node"><title>MergedStream</title>
<path fill="#ffffcc" stroke="black" d="M376.25,-282C376.25,-282 291.75,-282 291.75,-282 285.75,-282 279.75,-276 279.75,-270 279.75,-270 279.75,-258 279.75,-258 279.75,-252 285.75,-246 291.75,-246 291.75,-246 376.25,-246 376.25,-246 382.25,-246 388.25,-252 388.25,-258 388.25,-258 388.25,-270 388.25,-270 388.25,-276 382.25,-282 376.25,-282"/>
<text text-anchor="middle" x="334" y="-260.3" font-family="Helvetica,sans-Serif" font-size="14.00">MergedStream</text>
</g>
<!-- StreamMerge&#45;&gt;MergedStream -->
<g id="edge22" class="edge"><title>StreamMerge&#45;&gt;MergedStream</title>
<path fill="none" stroke="black" d="M334,-318.609C334,-310.481 334,-301.2 334,-292.671"/>
<polygon fill="black" stroke="black" points="337.5,-292.412 334,-282.412 330.5,-292.412 337.5,-292.412"/>
</g>
<!-- CsvFileWriter -->
<g id="node9" class="node"><title>CsvFileWriter</title>
<polygon fill="#ccffcc" stroke="black" points="156,-163 156,-209 512,-209 512,-163 156,-163"/>
<text text-anchor="middle" x="334" y="-193.8" font-family="Helvetica,sans-Serif" font-size="14.00">CsvFileWriter</text>
<polyline fill="none" stroke="black" points="156,-186 512,-186 "/>
<text text-anchor="middle" x="334" y="-170.8" font-family="Helvetica,sans-Serif" font-size="14.00">Write to a csv file and wrapup by finishing the workflow</text>
</g>
<!-- UpdatedDarwinCoreFile -->
<g id="node20" class="node"><title>UpdatedDarwinCoreFile</title>
<path fill="#ffffcc" stroke="black" d="M264,-79C264,-79 488,-79 488,-79 494,-79 500,-85 500,-91 500,-91 500,-113 500,-113 500,-119 494,-125 488,-125 488,-125 264,-125 264,-125 258,-125 252,-119 252,-113 252,-113 252,-91 252,-91 252,-85 258,-79 264,-79"/>
<text text-anchor="middle" x="376" y="-109.8" font-family="Helvetica,sans-Serif" font-size="14.00">UpdatedDarwinCoreFile</text>
<polyline fill="none" stroke="black" points="252,-102 500,-102 "/>
<text text-anchor="middle" x="376" y="-86.8" font-family="Helvetica,sans-Serif" font-size="14.00">file:{workspace}/mergedoutputfile.csv</text>
</g>
<!-- CsvFileWriter&#45;&gt;UpdatedDarwinCoreFile -->
<g id="edge25" class="edge"><title>CsvFileWriter&#45;&gt;UpdatedDarwinCoreFile</title>
<path fill="none" stroke="black" d="M345.477,-162.593C349.958,-153.844 355.173,-143.662 360.011,-134.216"/>
<polygon fill="black" stroke="black" points="363.239,-135.592 364.683,-125.096 357.009,-132.401 363.239,-135.592"/>
</g>
<!-- DarwinCoreFile -->
<g id="node10" class="node"><title>DarwinCoreFile</title>
<path fill="#ffffcc" stroke="black" d="M71,-1257C71,-1257 523,-1257 523,-1257 529,-1257 535,-1263 535,-1269 535,-1269 535,-1291 535,-1291 535,-1297 529,-1303 523,-1303 523,-1303 71,-1303 71,-1303 65,-1303 59,-1297 59,-1291 59,-1291 59,-1269 59,-1269 59,-1263 65,-1257 71,-1257"/>
<text text-anchor="middle" x="297" y="-1287.8" font-family="Helvetica,sans-Serif" font-size="14.00">DarwinCoreFile</text>
<polyline fill="none" stroke="black" points="59,-1280 535,-1280 "/>
<text text-anchor="middle" x="297" y="-1264.8" font-family="Helvetica,sans-Serif" font-size="14.00">file:packages/kurator_branching_generic/data/kurator_sample_data_v2.txt</text>
</g>
<!-- DarwinCoreFile&#45;&gt;Setup -->
<g id="edge4" class="edge"><title>DarwinCoreFile&#45;&gt;Setup</title>
<path fill="none" stroke="black" d="M301.202,-1257C302.776,-1248.76 304.617,-1239.12 306.404,-1229.77"/>
<polygon fill="black" stroke="black" points="309.869,-1230.28 308.307,-1219.8 302.993,-1228.97 309.869,-1230.28"/>
</g>
<!-- OccurrenceFile&#45;&gt;FileToDataStream -->
<g id="edge6" class="edge"><title>OccurrenceFile&#45;&gt;FileToDataStream</title>
<path fill="none" stroke="black" d="M351.144,-1074.81C363.399,-1065.15 377.911,-1053.7 390.943,-1043.43"/>
<polygon fill="black" stroke="black" points="393.148,-1046.15 398.834,-1037.21 388.814,-1040.65 393.148,-1046.15"/>
</g>
<!-- DataRecord&#45;&gt;EnvironmentTagger -->
<g id="edge9" class="edge"><title>DataRecord&#45;&gt;EnvironmentTagger</title>
<path fill="none" stroke="black" d="M464.645,-906.593C466.402,-898.118 468.438,-888.297 470.344,-879.104"/>
<polygon fill="black" stroke="black" points="473.816,-879.598 472.419,-869.096 466.962,-878.177 473.816,-879.598"/>
</g>
<!-- TaggedDataRecord&#45;&gt;FilterToJustMarine -->
<g id="edge12" class="edge"><title>TaggedDataRecord&#45;&gt;FilterToJustMarine</title>
<path fill="none" stroke="black" d="M525.169,-738.81C547.62,-728.467 574.497,-716.086 597.957,-705.278"/>
<polygon fill="black" stroke="black" points="599.483,-708.429 607.101,-701.066 596.554,-702.071 599.483,-708.429"/>
</g>
<!-- TaggedDataRecord&#45;&gt;FilterExcludingMarine -->
<g id="edge15" class="edge"><title>TaggedDataRecord&#45;&gt;FilterExcludingMarine</title>
<path fill="none" stroke="black" d="M438.032,-738.81C420.351,-728.742 399.278,-716.742 380.664,-706.142"/>
<polygon fill="black" stroke="black" points="382.172,-702.973 371.75,-701.066 378.708,-709.056 382.172,-702.973"/>
</g>
<!-- MarineDataRecord&#45;&gt;WoRMSLookup -->
<g id="edge18" class="edge"><title>MarineDataRecord&#45;&gt;WoRMSLookup</title>
<path fill="none" stroke="black" d="M622.622,-570.593C619.801,-562.027 616.528,-552.086 613.473,-542.808"/>
<polygon fill="black" stroke="black" points="616.727,-541.5 610.275,-533.096 610.079,-543.689 616.727,-541.5"/>
</g>
<!-- notMarineDataRecord&#45;&gt;GBIFLookup -->
<g id="edge21" class="edge"><title>notMarineDataRecord&#45;&gt;GBIFLookup</title>
<path fill="none" stroke="black" d="M241.477,-570.593C245.958,-561.844 251.173,-551.662 256.011,-542.216"/>
<polygon fill="black" stroke="black" points="259.239,-543.592 260.683,-533.096 253.009,-540.401 259.239,-543.592"/>
</g>
<!-- GBIF&#45;updatedRecord&#45;&gt;StreamMerge -->
<g id="edge23" class="edge"><title>GBIF&#45;updatedRecord&#45;&gt;StreamMerge</title>
<path fill="none" stroke="black" d="M288.942,-402.593C295.763,-393.571 303.737,-383.025 311.065,-373.333"/>
<polygon fill="black" stroke="black" points="314.054,-375.183 317.293,-365.096 308.47,-370.962 314.054,-375.183"/>
</g>
<!-- WoRMS&#45;updatedRecord&#45;&gt;StreamMerge -->
<g id="edge24" class="edge"><title>WoRMS&#45;updatedRecord&#45;&gt;StreamMerge</title>
<path fill="none" stroke="black" d="M418.609,-402.81C404.811,-393.056 388.448,-381.489 373.806,-371.139"/>
<polygon fill="black" stroke="black" points="375.602,-368.122 365.416,-365.208 371.562,-373.839 375.602,-368.122"/>
</g>
<!-- Workspace&#45;&gt;CsvFileWriter -->
<g id="edge26" class="edge"><title>Workspace&#45;&gt;CsvFileWriter</title>
<path fill="none" stroke="black" d="M84.6107,-995.688C63.5362,-966.654 25,-905.558 25,-847 25,-847 25,-847 25,-341 25,-270.873 89.5399,-232.679 159.628,-211.878"/>
<polygon fill="black" stroke="black" points="160.887,-215.159 169.548,-209.057 158.972,-208.426 160.887,-215.159"/>
</g>
<!-- MergedStream&#45;&gt;CsvFileWriter -->
<g id="edge27" class="edge"><title>MergedStream&#45;&gt;CsvFileWriter</title>
<path fill="none" stroke="black" d="M334,-245.754C334,-237.863 334,-228.249 334,-219.102"/>
<polygon fill="black" stroke="black" points="337.5,-219.091 334,-209.091 330.5,-219.091 337.5,-219.091"/>
</g>
<!-- UpdatedDarwinCoreFile_output_port -->
<g id="node25" class="node"><title>UpdatedDarwinCoreFile_output_port</title>
<ellipse fill="#ffffff" stroke="black" cx="457" cy="-31" rx="7" ry="7"/>
</g>
<!-- UpdatedDarwinCoreFile&#45;&gt;UpdatedDarwinCoreFile_output_port -->
<g id="edge30" class="edge"><title>UpdatedDarwinCoreFile&#45;&gt;UpdatedDarwinCoreFile_output_port</title>
<path fill="none" stroke="black" d="M402.075,-78.7882C416.234,-66.7267 433.099,-52.3604 444.371,-42.7583"/>
<polygon fill="black" stroke="black" points="446.71,-45.3631 452.053,-36.214 442.171,-40.0343 446.71,-45.3631"/>
</g>
<!-- LogFile_output_port -->
<g id="node26" class="node"><title>LogFile_output_port</title>
<ellipse fill="#ffffff" stroke="black" cx="489" cy="-31" rx="7" ry="7"/>
</g>
<!-- LogFile&#45;&gt;LogFile_output_port -->
<g id="edge31" class="edge"><title>LogFile&#45;&gt;LogFile_output_port</title>
<path fill="none" stroke="black" d="M595.659,-402.758C586.211,-372.109 571,-314.999 571,-265 571,-265 571,-265 571,-185 571,-126.487 523.833,-68.7229 501.044,-44.2286"/>
<polygon fill="black" stroke="black" points="503.334,-41.5599 493.884,-36.7699 498.284,-46.4077 503.334,-41.5599"/>
</g>
<!-- InputFilePath -->
<g id="node22" class="node"><title>InputFilePath</title>
<path fill="#fcfcfc" stroke="black" d="M640.25,-1298C640.25,-1298 565.75,-1298 565.75,-1298 559.75,-1298 553.75,-1292 553.75,-1286 553.75,-1286 553.75,-1274 553.75,-1274 553.75,-1268 559.75,-1262 565.75,-1262 565.75,-1262 640.25,-1262 640.25,-1262 646.25,-1262 652.25,-1268 652.25,-1274 652.25,-1274 652.25,-1286 652.25,-1286 652.25,-1292 646.25,-1298 640.25,-1298"/>
<text text-anchor="middle" x="603" y="-1276.3" font-family="Helvetica,sans-Serif" font-size="14.00">InputFilePath</text>
</g>
<!-- InputFilePath&#45;&gt;Setup -->
<g id="edge3" class="edge"><title>InputFilePath&#45;&gt;Setup</title>
<path fill="none" stroke="black" d="M560.633,-1261.94C555.067,-1259.86 549.416,-1257.83 544,-1256 508.742,-1244.1 469.998,-1232.44 434.523,-1222.32"/>
<polygon fill="black" stroke="black" points="435.186,-1218.87 424.61,-1219.51 433.275,-1225.61 435.186,-1218.87"/>
</g>
<!-- InputFilePath_input_port -->
<g id="node23" class="node"><title>InputFilePath_input_port</title>
<ellipse fill="#ffffff" stroke="black" cx="466" cy="-1351" rx="7" ry="7"/>
</g>
<!-- InputFilePath_input_port&#45;&gt;InputFilePath -->
<g id="edge28" class="edge"><title>InputFilePath_input_port&#45;&gt;InputFilePath</title>
<path fill="none" stroke="black" d="M472.679,-1347.97C486.427,-1343.69 518.719,-1333.02 544,-1320 553.169,-1315.28 562.673,-1309.45 571.306,-1303.76"/>
<polygon fill="black" stroke="black" points="573.274,-1306.66 579.602,-1298.16 569.356,-1300.86 573.274,-1306.66"/>
</g>
<!-- DarwinCoreFile_input_port -->
<g id="node24" class="node"><title>DarwinCoreFile_input_port</title>
<ellipse fill="#ffffff" stroke="black" cx="434" cy="-1351" rx="7" ry="7"/>
</g>
<!-- DarwinCoreFile_input_port&#45;&gt;DarwinCoreFile -->
<g id="edge29" class="edge"><title>DarwinCoreFile_input_port&#45;&gt;DarwinCoreFile</title>
<path fill="none" stroke="black" d="M428.113,-1347.04C414.607,-1340.23 380.229,-1322.92 350.064,-1307.73"/>
<polygon fill="black" stroke="black" points="351.371,-1304.47 340.866,-1303.09 348.223,-1310.72 351.371,-1304.47"/>
</g>
</g>
</svg>
