<?xml version="1.0" encoding="UTF-8" standalone="no"?>
<!DOCTYPE svg PUBLIC "-//W3C//DTD SVG 1.1//EN"
 "http://www.w3.org/Graphics/SVG/1.1/DTD/svg11.dtd">
<!-- Generated by graphviz version 2.36.0 (20140111.2315)
 -->
<!-- Title: Workflow Pages: 1 -->
<svg width="1225pt" height="1382pt"
 viewBox="0.00 0.00 1225.00 1382.00" xmlns="http://www.w3.org/2000/svg" xmlns:xlink="http://www.w3.org/1999/xlink">
<g id="graph0" class="graph" transform="scale(1 1) rotate(0) translate(4 1378)">
<title>Workflow</title>
<polygon fill="white" stroke="none" points="-4,4 -4,-1378 1221,-1378 1221,4 -4,4"/>
<text text-anchor="middle" x="608.5" y="-1355.6" font-family="Helvetica,sans-Serif" font-size="18.00">FileBranchingTaxonLookupWorkflow</text>
<g id="clust5" class="cluster"><title>cluster_output_ports_group_outer</title>
<polygon fill="none" stroke="black" stroke-width="0" points="899,-8 899,-54 977,-54 977,-8 899,-8"/>
</g>
<g id="clust6" class="cluster"><title>cluster_output_ports_group_inner</title>
<polygon fill="none" stroke="black" stroke-width="0" points="907,-16 907,-46 969,-46 969,-16 907,-16"/>
</g>
<g id="clust1" class="cluster"><title>cluster_workflow_box_outer</title>
<polygon fill="none" stroke="black" stroke-width="2" points="8,-62 8,-1284 1209,-1284 1209,-62 8,-62"/>
</g>
<g id="clust2" class="cluster"><title>cluster_workflow_box_inner</title>
<polygon fill="none" stroke="black" stroke-width="0" points="16,-70 16,-1276 1201,-1276 1201,-70 16,-70"/>
</g>
<g id="clust3" class="cluster"><title>cluster_input_ports_group_outer</title>
<polygon fill="none" stroke="black" stroke-width="0" points="268,-1292 268,-1338 346,-1338 346,-1292 268,-1292"/>
</g>
<g id="clust4" class="cluster"><title>cluster_input_ports_group_inner</title>
<polygon fill="none" stroke="black" stroke-width="0" points="276,-1300 276,-1330 338,-1330 338,-1300 276,-1300"/>
</g>
<!-- Setup -->
<g id="node1" class="node"><title>Setup</title>
<polygon fill="#ccffcc" stroke="black" points="136,-1122.5 136,-1183.5 558,-1183.5 558,-1122.5 136,-1122.5"/>
<text text-anchor="middle" x="347" y="-1168.3" font-family="Helvetica,sans-Serif" font-size="14.00">Setup</text>
<polyline fill="none" stroke="black" points="136,-1160.5 558,-1160.5 "/>
<text text-anchor="middle" x="347" y="-1145.3" font-family="Helvetica,sans-Serif" font-size="14.00">Create a unique workspace and transform the input file to a file</text>
<text text-anchor="middle" x="347" y="-1130.3" font-family="Helvetica,sans-Serif" font-size="14.00"> with chosen format and field names standardized to Darwin Core</text>
</g>
<!-- OccurrenceFile -->
<g id="node11" class="node"><title>OccurrenceFile</title>
<path fill="#ffffcc" stroke="black" d="M361,-1039C361,-1039 567,-1039 567,-1039 573,-1039 579,-1045 579,-1051 579,-1051 579,-1073 579,-1073 579,-1079 573,-1085 567,-1085 567,-1085 361,-1085 361,-1085 355,-1085 349,-1079 349,-1073 349,-1073 349,-1051 349,-1051 349,-1045 355,-1039 361,-1039"/>
<text text-anchor="middle" x="464" y="-1069.8" font-family="Helvetica,sans-Serif" font-size="14.00">OccurrenceFile</text>
<polyline fill="none" stroke="black" points="349,-1062 579,-1062 "/>
<text text-anchor="middle" x="464" y="-1046.8" font-family="Helvetica,sans-Serif" font-size="14.00">file:{workspace}/darwinized_file.txt</text>
</g>
<!-- Setup&#45;&gt;OccurrenceFile -->
<g id="edge2" class="edge"><title>Setup&#45;&gt;OccurrenceFile</title>
<path fill="none" stroke="black" d="M385.959,-1122.36C399.047,-1112.41 413.608,-1101.33 426.575,-1091.47"/>
<polygon fill="black" stroke="black" points="428.994,-1094.03 434.834,-1085.19 424.756,-1088.45 428.994,-1094.03"/>
</g>
<!-- Workspace -->
<g id="node18" class="node"><title>Workspace</title>
<path fill="#ffffcc" stroke="black" d="M164.25,-996C164.25,-996 101.75,-996 101.75,-996 95.75,-996 89.75,-990 89.75,-984 89.75,-984 89.75,-972 89.75,-972 89.75,-966 95.75,-960 101.75,-960 101.75,-960 164.25,-960 164.25,-960 170.25,-960 176.25,-966 176.25,-972 176.25,-972 176.25,-984 176.25,-984 176.25,-990 170.25,-996 164.25,-996"/>
<text text-anchor="middle" x="133" y="-974.3" font-family="Helvetica,sans-Serif" font-size="14.00">Workspace</text>
</g>
<!-- Setup&#45;&gt;Workspace -->
<g id="edge1" class="edge"><title>Setup&#45;&gt;Workspace</title>
<path fill="none" stroke="black" d="M310.212,-1122.26C268.327,-1088.4 200.743,-1033.76 162.273,-1002.66"/>
<polygon fill="black" stroke="black" points="164.044,-999.596 154.067,-996.031 159.644,-1005.04 164.044,-999.596"/>
</g>
<!-- FileToDataStream -->
<g id="node2" class="node"><title>FileToDataStream</title>
<polygon fill="#ccffcc" stroke="black" points="386,-955 386,-1001 790,-1001 790,-955 386,-955"/>
<text text-anchor="middle" x="588" y="-985.8" font-family="Helvetica,sans-Serif" font-size="14.00">FileToDataStream</text>
<polyline fill="none" stroke="black" points="386,-978 790,-978 "/>
<text text-anchor="middle" x="588" y="-962.8" font-family="Helvetica,sans-Serif" font-size="14.00">Take the darwinized occurrence file and stream records from it</text>
</g>
<!-- DataRecord -->
<g id="node12" class="node"><title>DataRecord</title>
<path fill="#ffffcc" stroke="black" d="M744.25,-918C744.25,-918 677.75,-918 677.75,-918 671.75,-918 665.75,-912 665.75,-906 665.75,-906 665.75,-894 665.75,-894 665.75,-888 671.75,-882 677.75,-882 677.75,-882 744.25,-882 744.25,-882 750.25,-882 756.25,-888 756.25,-894 756.25,-894 756.25,-906 756.25,-906 756.25,-912 750.25,-918 744.25,-918"/>
<text text-anchor="middle" x="711" y="-896.3" font-family="Helvetica,sans-Serif" font-size="14.00">DataRecord</text>
</g>
<!-- FileToDataStream&#45;&gt;DataRecord -->
<g id="edge5" class="edge"><title>FileToDataStream&#45;&gt;DataRecord</title>
<path fill="none" stroke="black" d="M623.907,-954.813C639.942,-944.906 658.801,-933.253 674.862,-923.329"/>
<polygon fill="black" stroke="black" points="676.794,-926.25 683.461,-918.016 673.114,-920.295 676.794,-926.25"/>
</g>
<!-- EnvironmentTagger -->
<g id="node3" class="node"><title>EnvironmentTagger</title>
<polygon fill="#ccffcc" stroke="black" points="487.5,-799 487.5,-845 1192.5,-845 1192.5,-799 487.5,-799"/>
<text text-anchor="middle" x="840" y="-829.8" font-family="Helvetica,sans-Serif" font-size="14.00">EnvironmentTagger</text>
<polyline fill="none" stroke="black" points="487.5,-822 1192.5,-822 "/>
<text text-anchor="middle" x="840" y="-806.8" font-family="Helvetica,sans-Serif" font-size="14.00">Tag each record in the stream that appears to be marine with isMarine=true and nonmarine with isMarine=false</text>
</g>
<!-- TaggedDataRecord -->
<g id="node13" class="node"><title>TaggedDataRecord</title>
<path fill="#ffffcc" stroke="black" d="M897.25,-762C897.25,-762 782.75,-762 782.75,-762 776.75,-762 770.75,-756 770.75,-750 770.75,-750 770.75,-738 770.75,-738 770.75,-732 776.75,-726 782.75,-726 782.75,-726 897.25,-726 897.25,-726 903.25,-726 909.25,-732 909.25,-738 909.25,-738 909.25,-750 909.25,-750 909.25,-756 903.25,-762 897.25,-762"/>
<text text-anchor="middle" x="840" y="-740.3" font-family="Helvetica,sans-Serif" font-size="14.00">TaggedDataRecord</text>
</g>
<!-- EnvironmentTagger&#45;&gt;TaggedDataRecord -->
<g id="edge8" class="edge"><title>EnvironmentTagger&#45;&gt;TaggedDataRecord</title>
<path fill="none" stroke="black" d="M840,-798.609C840,-790.481 840,-781.2 840,-772.671"/>
<polygon fill="black" stroke="black" points="843.5,-772.412 840,-762.412 836.5,-772.412 843.5,-772.412"/>
</g>
<!-- LogFile -->
<g id="node21" class="node"><title>LogFile</title>
<path fill="#ffffcc" stroke="black" d="M1077,-403C1077,-403 1153,-403 1153,-403 1159,-403 1165,-409 1165,-415 1165,-415 1165,-437 1165,-437 1165,-443 1159,-449 1153,-449 1153,-449 1077,-449 1077,-449 1071,-449 1065,-443 1065,-437 1065,-437 1065,-415 1065,-415 1065,-409 1071,-403 1077,-403"/>
<text text-anchor="middle" x="1115" y="-433.8" font-family="Helvetica,sans-Serif" font-size="14.00">LogFile</text>
<polyline fill="none" stroke="black" points="1065,-426 1165,-426 "/>
<text text-anchor="middle" x="1115" y="-410.8" font-family="Helvetica,sans-Serif" font-size="14.00">file:runlog.log</text>
</g>
<!-- EnvironmentTagger&#45;&gt;LogFile -->
<g id="edge7" class="edge"><title>EnvironmentTagger&#45;&gt;LogFile</title>
<path fill="none" stroke="black" d="M1054.65,-798.972C1128.04,-778.507 1192,-739.79 1192,-667 1192,-667 1192,-667 1192,-587 1192,-540.962 1190.36,-526.781 1169,-486 1163.47,-475.44 1155.57,-465.328 1147.52,-456.55"/>
<polygon fill="black" stroke="black" points="1149.92,-453.988 1140.46,-449.202 1144.87,-458.838 1149.92,-453.988"/>
</g>
<!-- FilterToJustMarine -->
<g id="node4" class="node"><title>FilterToJustMarine</title>
<polygon fill="#ccffcc" stroke="black" points="696,-643 696,-689 988,-689 988,-643 696,-643"/>
<text text-anchor="middle" x="842" y="-673.8" font-family="Helvetica,sans-Serif" font-size="14.00">FilterToJustMarine</text>
<polyline fill="none" stroke="black" points="696,-666 988,-666 "/>
<text text-anchor="middle" x="842" y="-650.8" font-family="Helvetica,sans-Serif" font-size="14.00">Pass only records tagged with isMarine=true</text>
</g>
<!-- MarineDataRecord -->
<g id="node14" class="node"><title>MarineDataRecord</title>
<path fill="#ffffcc" stroke="black" d="M897,-606C897,-606 787,-606 787,-606 781,-606 775,-600 775,-594 775,-594 775,-582 775,-582 775,-576 781,-570 787,-570 787,-570 897,-570 897,-570 903,-570 909,-576 909,-582 909,-582 909,-594 909,-594 909,-600 903,-606 897,-606"/>
<text text-anchor="middle" x="842" y="-584.3" font-family="Helvetica,sans-Serif" font-size="14.00">MarineDataRecord</text>
</g>
<!-- FilterToJustMarine&#45;&gt;MarineDataRecord -->
<g id="edge12" class="edge"><title>FilterToJustMarine&#45;&gt;MarineDataRecord</title>
<path fill="none" stroke="black" d="M842,-642.609C842,-634.481 842,-625.2 842,-616.671"/>
<polygon fill="black" stroke="black" points="845.5,-616.412 842,-606.412 838.5,-616.412 845.5,-616.412"/>
</g>
<!-- FilterToJustMarine&#45;&gt;LogFile -->
<g id="edge11" class="edge"><title>FilterToJustMarine&#45;&gt;LogFile</title>
<path fill="none" stroke="black" d="M988.018,-655.434C1059.47,-647.392 1134.83,-632.703 1157,-606 1191.06,-564.963 1173.24,-536.802 1157,-486 1153.78,-475.94 1148.16,-466.129 1142.05,-457.488"/>
<polygon fill="black" stroke="black" points="1144.66,-455.145 1135.85,-449.27 1139.08,-459.361 1144.66,-455.145"/>
</g>
<!-- FilterExcludingMarine -->
<g id="node5" class="node"><title>FilterExcludingMarine</title>
<polygon fill="#ccffcc" stroke="black" points="362,-643 362,-689 678,-689 678,-643 362,-643"/>
<text text-anchor="middle" x="520" y="-673.8" font-family="Helvetica,sans-Serif" font-size="14.00">FilterExcludingMarine</text>
<polyline fill="none" stroke="black" points="362,-666 678,-666 "/>
<text text-anchor="middle" x="520" y="-650.8" font-family="Helvetica,sans-Serif" font-size="14.00">Pass only records not tagged with isMarine=true</text>
</g>
<!-- notMarineDataRecord -->
<g id="node15" class="node"><title>notMarineDataRecord</title>
<path fill="#ffffcc" stroke="black" d="M587.25,-606C587.25,-606 458.75,-606 458.75,-606 452.75,-606 446.75,-600 446.75,-594 446.75,-594 446.75,-582 446.75,-582 446.75,-576 452.75,-570 458.75,-570 458.75,-570 587.25,-570 587.25,-570 593.25,-570 599.25,-576 599.25,-582 599.25,-582 599.25,-594 599.25,-594 599.25,-600 593.25,-606 587.25,-606"/>
<text text-anchor="middle" x="523" y="-584.3" font-family="Helvetica,sans-Serif" font-size="14.00">notMarineDataRecord</text>
</g>
<!-- FilterExcludingMarine&#45;&gt;notMarineDataRecord -->
<g id="edge17" class="edge"><title>FilterExcludingMarine&#45;&gt;notMarineDataRecord</title>
<path fill="none" stroke="black" d="M520.884,-642.609C521.205,-634.481 521.571,-625.2 521.908,-616.671"/>
<polygon fill="black" stroke="black" points="525.415,-616.542 522.313,-606.412 518.421,-616.266 525.415,-616.542"/>
</g>
<!-- FilterExcludingMarine&#45;&gt;LogFile -->
<g id="edge16" class="edge"><title>FilterExcludingMarine&#45;&gt;LogFile</title>
<path fill="none" stroke="black" d="M678.195,-642.976C681.153,-642.641 684.09,-642.315 687,-642 737.419,-636.538 1107.58,-643.247 1142,-606 1161.28,-585.13 1139.85,-504.436 1125.61,-458.843"/>
<polygon fill="black" stroke="black" points="1128.89,-457.608 1122.52,-449.142 1122.22,-459.732 1128.89,-457.608"/>
</g>
<!-- WoRMSLookup -->
<g id="node6" class="node"><title>WoRMSLookup</title>
<polygon fill="#ccffcc" stroke="black" points="750.5,-487 750.5,-533 995.5,-533 995.5,-487 750.5,-487"/>
<text text-anchor="middle" x="873" y="-517.8" font-family="Helvetica,sans-Serif" font-size="14.00">WoRMSLookup</text>
<polyline fill="none" stroke="black" points="750.5,-510 995.5,-510 "/>
<text text-anchor="middle" x="873" y="-494.8" font-family="Helvetica,sans-Serif" font-size="14.00">Lookup GUIDs for names in WoRMS</text>
</g>
<!-- WoRMS&#45;updatedRecord -->
<g id="node17" class="node"><title>WoRMS&#45;updatedRecord</title>
<path fill="#ffffcc" stroke="black" d="M1006.25,-444C1006.25,-444 861.75,-444 861.75,-444 855.75,-444 849.75,-438 849.75,-432 849.75,-432 849.75,-420 849.75,-420 849.75,-414 855.75,-408 861.75,-408 861.75,-408 1006.25,-408 1006.25,-408 1012.25,-408 1018.25,-414 1018.25,-420 1018.25,-420 1018.25,-432 1018.25,-432 1018.25,-438 1012.25,-444 1006.25,-444"/>
<text text-anchor="middle" x="934" y="-422.3" font-family="Helvetica,sans-Serif" font-size="14.00">WoRMS&#45;updatedRecord</text>
</g>
<!-- WoRMSLookup&#45;&gt;WoRMS&#45;updatedRecord -->
<g id="edge21" class="edge"><title>WoRMSLookup&#45;&gt;WoRMS&#45;updatedRecord</title>
<path fill="none" stroke="black" d="M889.669,-486.593C897.518,-476.042 906.918,-463.406 915.038,-452.49"/>
<polygon fill="black" stroke="black" points="918.061,-454.29 921.222,-444.177 912.445,-450.112 918.061,-454.29"/>
</g>
<!-- WoRMSLookup&#45;&gt;LogFile -->
<g id="edge23" class="edge"><title>WoRMSLookup&#45;&gt;LogFile</title>
<path fill="none" stroke="black" d="M938.17,-486.918C974.511,-474.604 1019.46,-459.374 1054.94,-447.35"/>
<polygon fill="black" stroke="black" points="1056.34,-450.573 1064.69,-444.049 1054.09,-443.943 1056.34,-450.573"/>
</g>
<!-- WoRMS&#45;GUID -->
<g id="node25" class="node"><title>WoRMS&#45;GUID</title>
<path fill="#fcfcfc" stroke="black" d="M819,-444C819,-444 735,-444 735,-444 729,-444 723,-438 723,-432 723,-432 723,-420 723,-420 723,-414 729,-408 735,-408 735,-408 819,-408 819,-408 825,-408 831,-414 831,-420 831,-420 831,-432 831,-432 831,-438 825,-444 819,-444"/>
<text text-anchor="middle" x="777" y="-422.3" font-family="Helvetica,sans-Serif" font-size="14.00">WoRMS&#45;GUID</text>
</g>
<!-- WoRMSLookup&#45;&gt;WoRMS&#45;GUID -->
<g id="edge22" class="edge"><title>WoRMSLookup&#45;&gt;WoRMS&#45;GUID</title>
<path fill="none" stroke="black" d="M847.021,-486.81C833.961,-475.654 818.125,-462.128 804.818,-450.762"/>
<polygon fill="black" stroke="black" points="806.785,-447.838 796.908,-444.004 802.238,-453.161 806.785,-447.838"/>
</g>
<!-- GBIFLookup -->
<g id="node7" class="node"><title>GBIFLookup</title>
<polygon fill="#ccffcc" stroke="black" points="394,-487 394,-533 620,-533 620,-487 394,-487"/>
<text text-anchor="middle" x="507" y="-517.8" font-family="Helvetica,sans-Serif" font-size="14.00">GBIFLookup</text>
<polyline fill="none" stroke="black" points="394,-510 620,-510 "/>
<text text-anchor="middle" x="507" y="-494.8" font-family="Helvetica,sans-Serif" font-size="14.00">Lookup GUIDs for names in GBIF</text>
</g>
<!-- GBIF&#45;updatedRecord -->
<g id="node16" class="node"><title>GBIF&#45;updatedRecord</title>
<path fill="#ffffcc" stroke="black" d="M693,-444C693,-444 567,-444 567,-444 561,-444 555,-438 555,-432 555,-432 555,-420 555,-420 555,-414 561,-408 567,-408 567,-408 693,-408 693,-408 699,-408 705,-414 705,-420 705,-420 705,-432 705,-432 705,-438 699,-444 693,-444"/>
<text text-anchor="middle" x="630" y="-422.3" font-family="Helvetica,sans-Serif" font-size="14.00">GBIF&#45;updatedRecord</text>
</g>
<!-- GBIFLookup&#45;&gt;GBIF&#45;updatedRecord -->
<g id="edge27" class="edge"><title>GBIFLookup&#45;&gt;GBIF&#45;updatedRecord</title>
<path fill="none" stroke="black" d="M540.286,-486.81C557.492,-475.339 578.46,-461.36 595.797,-449.802"/>
<polygon fill="black" stroke="black" points="598.114,-452.464 604.493,-444.004 594.231,-446.639 598.114,-452.464"/>
</g>
<!-- GBIFLookup&#45;&gt;LogFile -->
<g id="edge29" class="edge"><title>GBIFLookup&#45;&gt;LogFile</title>
<path fill="none" stroke="black" d="M620.2,-498.064C749.082,-485.276 951.526,-464.07 1027,-450 1036.01,-448.321 1045.45,-446.222 1054.67,-443.979"/>
<polygon fill="black" stroke="black" points="1055.71,-447.328 1064.56,-441.502 1054.01,-440.537 1055.71,-447.328"/>
</g>
<!-- GBIF&#45;GUID -->
<g id="node28" class="node"><title>GBIF&#45;GUID</title>
<path fill="#fcfcfc" stroke="black" d="M524.25,-444C524.25,-444 459.75,-444 459.75,-444 453.75,-444 447.75,-438 447.75,-432 447.75,-432 447.75,-420 447.75,-420 447.75,-414 453.75,-408 459.75,-408 459.75,-408 524.25,-408 524.25,-408 530.25,-408 536.25,-414 536.25,-420 536.25,-420 536.25,-432 536.25,-432 536.25,-438 530.25,-444 524.25,-444"/>
<text text-anchor="middle" x="492" y="-422.3" font-family="Helvetica,sans-Serif" font-size="14.00">GBIF&#45;GUID</text>
</g>
<!-- GBIFLookup&#45;&gt;GBIF&#45;GUID -->
<g id="edge28" class="edge"><title>GBIFLookup&#45;&gt;GBIF&#45;GUID</title>
<path fill="none" stroke="black" d="M502.901,-486.593C501.067,-476.564 498.887,-464.652 496.962,-454.123"/>
<polygon fill="black" stroke="black" points="500.385,-453.384 495.142,-444.177 493.499,-454.644 500.385,-453.384"/>
</g>
<!-- StreamMerge -->
<g id="node8" class="node"><title>StreamMerge</title>
<polygon fill="#ccffcc" stroke="black" points="702.5,-319 702.5,-365 835.5,-365 835.5,-319 702.5,-319"/>
<text text-anchor="middle" x="769" y="-349.8" font-family="Helvetica,sans-Serif" font-size="14.00">StreamMerge</text>
<polyline fill="none" stroke="black" points="702.5,-342 835.5,-342 "/>
<text text-anchor="middle" x="769" y="-326.8" font-family="Helvetica,sans-Serif" font-size="14.00">Merge the streams</text>
</g>
<!-- MergedStream -->
<g id="node19" class="node"><title>MergedStream</title>
<path fill="#ffffcc" stroke="black" d="M811.25,-282C811.25,-282 726.75,-282 726.75,-282 720.75,-282 714.75,-276 714.75,-270 714.75,-270 714.75,-258 714.75,-258 714.75,-252 720.75,-246 726.75,-246 726.75,-246 811.25,-246 811.25,-246 817.25,-246 823.25,-252 823.25,-258 823.25,-258 823.25,-270 823.25,-270 823.25,-276 817.25,-282 811.25,-282"/>
<text text-anchor="middle" x="769" y="-260.3" font-family="Helvetica,sans-Serif" font-size="14.00">MergedStream</text>
</g>
<!-- StreamMerge&#45;&gt;MergedStream -->
<g id="edge33" class="edge"><title>StreamMerge&#45;&gt;MergedStream</title>
<path fill="none" stroke="black" d="M769,-318.609C769,-310.481 769,-301.2 769,-292.671"/>
<polygon fill="black" stroke="black" points="772.5,-292.412 769,-282.412 765.5,-292.412 772.5,-292.412"/>
</g>
<!-- CsvFileWriter -->
<g id="node9" class="node"><title>CsvFileWriter</title>
<polygon fill="#ccffcc" stroke="black" points="591,-163 591,-209 947,-209 947,-163 591,-163"/>
<text text-anchor="middle" x="769" y="-193.8" font-family="Helvetica,sans-Serif" font-size="14.00">CsvFileWriter</text>
<polyline fill="none" stroke="black" points="591,-186 947,-186 "/>
<text text-anchor="middle" x="769" y="-170.8" font-family="Helvetica,sans-Serif" font-size="14.00">Write to a csv file and wrapup by finishing the workflow</text>
</g>
<!-- UpdatedDarwinCoreFile -->
<g id="node20" class="node"><title>UpdatedDarwinCoreFile</title>
<path fill="#ffffcc" stroke="black" d="M719,-79C719,-79 943,-79 943,-79 949,-79 955,-85 955,-91 955,-91 955,-113 955,-113 955,-119 949,-125 943,-125 943,-125 719,-125 719,-125 713,-125 707,-119 707,-113 707,-113 707,-91 707,-91 707,-85 713,-79 719,-79"/>
<text text-anchor="middle" x="831" y="-109.8" font-family="Helvetica,sans-Serif" font-size="14.00">UpdatedDarwinCoreFile</text>
<polyline fill="none" stroke="black" points="707,-102 955,-102 "/>
<text text-anchor="middle" x="831" y="-86.8" font-family="Helvetica,sans-Serif" font-size="14.00">file:{workspace}/mergedoutputfile.csv</text>
</g>
<!-- CsvFileWriter&#45;&gt;UpdatedDarwinCoreFile -->
<g id="edge36" class="edge"><title>CsvFileWriter&#45;&gt;UpdatedDarwinCoreFile</title>
<path fill="none" stroke="black" d="M785.942,-162.593C792.763,-153.571 800.737,-143.025 808.065,-133.333"/>
<polygon fill="black" stroke="black" points="811.054,-135.183 814.293,-125.096 805.47,-130.962 811.054,-135.183"/>
</g>
<!-- DarwinCoreFile -->
<g id="node10" class="node"><title>DarwinCoreFile</title>
<path fill="#ffffcc" stroke="black" d="M234,-1221C234,-1221 686,-1221 686,-1221 692,-1221 698,-1227 698,-1233 698,-1233 698,-1255 698,-1255 698,-1261 692,-1267 686,-1267 686,-1267 234,-1267 234,-1267 228,-1267 222,-1261 222,-1255 222,-1255 222,-1233 222,-1233 222,-1227 228,-1221 234,-1221"/>
<text text-anchor="middle" x="460" y="-1251.8" font-family="Helvetica,sans-Serif" font-size="14.00">DarwinCoreFile</text>
<polyline fill="none" stroke="black" points="222,-1244 698,-1244 "/>
<text text-anchor="middle" x="460" y="-1228.8" font-family="Helvetica,sans-Serif" font-size="14.00">file:packages/kurator_branching_generic/data/kurator_sample_data_v2.txt</text>
</g>
<!-- DarwinCoreFile&#45;&gt;Setup -->
<g id="edge4" class="edge"><title>DarwinCoreFile&#45;&gt;Setup</title>
<path fill="none" stroke="black" d="M432.067,-1221C420.269,-1211.71 406.214,-1200.64 392.962,-1190.2"/>
<polygon fill="black" stroke="black" points="394.863,-1187.24 384.841,-1183.8 390.531,-1192.74 394.863,-1187.24"/>
</g>
<!-- OccurrenceFile&#45;&gt;FileToDataStream -->
<g id="edge6" class="edge"><title>OccurrenceFile&#45;&gt;FileToDataStream</title>
<path fill="none" stroke="black" d="M497.556,-1038.81C512.444,-1028.96 530.124,-1017.27 545.887,-1006.85"/>
<polygon fill="black" stroke="black" points="548.006,-1009.64 554.417,-1001.21 544.145,-1003.8 548.006,-1009.64"/>
</g>
<!-- DataRecord&#45;&gt;EnvironmentTagger -->
<g id="edge9" class="edge"><title>DataRecord&#45;&gt;EnvironmentTagger</title>
<path fill="none" stroke="black" d="M739.95,-881.944C755.638,-872.702 775.406,-861.055 793.22,-850.561"/>
<polygon fill="black" stroke="black" points="795.486,-853.288 802.325,-845.196 791.932,-847.257 795.486,-853.288"/>
</g>
<!-- TaggedDataRecord&#45;&gt;FilterToJustMarine -->
<g id="edge13" class="edge"><title>TaggedDataRecord&#45;&gt;FilterToJustMarine</title>
<path fill="none" stroke="black" d="M840.454,-725.754C840.661,-717.863 840.914,-708.249 841.155,-699.102"/>
<polygon fill="black" stroke="black" points="844.654,-699.179 841.419,-689.091 837.657,-698.995 844.654,-699.179"/>
</g>
<!-- TaggedDataRecord&#45;&gt;FilterExcludingMarine -->
<g id="edge18" class="edge"><title>TaggedDataRecord&#45;&gt;FilterExcludingMarine</title>
<path fill="none" stroke="black" d="M770.565,-726.509C727.314,-716.237 670.899,-702.839 622.553,-691.356"/>
<polygon fill="black" stroke="black" points="623.221,-687.918 612.683,-689.012 621.604,-694.728 623.221,-687.918"/>
</g>
<!-- MarineDataRecord&#45;&gt;WoRMSLookup -->
<g id="edge24" class="edge"><title>MarineDataRecord&#45;&gt;WoRMSLookup</title>
<path fill="none" stroke="black" d="M849.034,-569.754C852.322,-561.693 856.344,-551.835 860.146,-542.513"/>
<polygon fill="black" stroke="black" points="863.453,-543.672 863.989,-533.091 856.972,-541.028 863.453,-543.672"/>
</g>
<!-- notMarineDataRecord&#45;&gt;GBIFLookup -->
<g id="edge30" class="edge"><title>notMarineDataRecord&#45;&gt;GBIFLookup</title>
<path fill="none" stroke="black" d="M519.369,-569.754C517.708,-561.863 515.684,-552.249 513.758,-543.102"/>
<polygon fill="black" stroke="black" points="517.136,-542.155 511.651,-533.091 510.286,-543.597 517.136,-542.155"/>
</g>
<!-- GBIF&#45;updatedRecord&#45;&gt;StreamMerge -->
<g id="edge34" class="edge"><title>GBIF&#45;updatedRecord&#45;&gt;StreamMerge</title>
<path fill="none" stroke="black" d="M659.139,-407.81C677.598,-396.921 701.87,-382.602 722.904,-370.193"/>
<polygon fill="black" stroke="black" points="724.86,-373.103 731.694,-365.008 721.303,-367.074 724.86,-373.103"/>
</g>
<!-- WoRMS&#45;updatedRecord&#45;&gt;StreamMerge -->
<g id="edge35" class="edge"><title>WoRMS&#45;updatedRecord&#45;&gt;StreamMerge</title>
<path fill="none" stroke="black" d="M899.411,-407.81C877.107,-396.726 847.655,-382.089 822.384,-369.53"/>
<polygon fill="black" stroke="black" points="823.797,-366.324 813.284,-365.008 820.681,-372.593 823.797,-366.324"/>
</g>
<!-- Workspace&#45;&gt;CsvFileWriter -->
<g id="edge37" class="edge"><title>Workspace&#45;&gt;CsvFileWriter</title>
<path fill="none" stroke="black" d="M110.096,-959.882C78.3936,-934.036 25,-881.78 25,-823 25,-823 25,-823 25,-341 25,-227.655 360.302,-197.088 580.714,-189.24"/>
<polygon fill="black" stroke="black" points="580.919,-192.735 590.793,-188.894 580.679,-185.739 580.919,-192.735"/>
</g>
<!-- MergedStream&#45;&gt;CsvFileWriter -->
<g id="edge38" class="edge"><title>MergedStream&#45;&gt;CsvFileWriter</title>
<path fill="none" stroke="black" d="M769,-245.754C769,-237.863 769,-228.249 769,-219.102"/>
<polygon fill="black" stroke="black" points="772.5,-219.091 769,-209.091 765.5,-219.091 772.5,-219.091"/>
</g>
<!-- UpdatedDarwinCoreFile_output_port -->
<g id="node33" class="node"><title>UpdatedDarwinCoreFile_output_port</title>
<ellipse fill="#ffffff" stroke="black" cx="922" cy="-31" rx="7" ry="7"/>
</g>
<!-- UpdatedDarwinCoreFile&#45;&gt;UpdatedDarwinCoreFile_output_port -->
<g id="edge41" class="edge"><title>UpdatedDarwinCoreFile&#45;&gt;UpdatedDarwinCoreFile_output_port</title>
<path fill="none" stroke="black" d="M860.043,-78.9783C876.291,-66.6582 895.776,-51.8845 908.499,-42.237"/>
<polygon fill="black" stroke="black" points="910.892,-44.8152 916.745,-35.9843 906.662,-39.2374 910.892,-44.8152"/>
</g>
<!-- LogFile_output_port -->
<g id="node34" class="node"><title>LogFile_output_port</title>
<ellipse fill="#ffffff" stroke="black" cx="954" cy="-31" rx="7" ry="7"/>
</g>
<!-- LogFile&#45;&gt;LogFile_output_port -->
<g id="edge42" class="edge"><title>LogFile&#45;&gt;LogFile_output_port</title>
<path fill="none" stroke="black" d="M1098.23,-402.763C1077.52,-373.029 1045,-317.908 1045,-265 1045,-265 1045,-265 1045,-185 1045,-124.179 991.223,-66.452 966.35,-43.005"/>
<polygon fill="black" stroke="black" points="968.636,-40.3532 958.893,-36.1922 963.915,-45.5212 968.636,-40.3532"/>
</g>
<!-- InputFilePath -->
<g id="node22" class="node"><title>InputFilePath</title>
<path fill="#fcfcfc" stroke="black" d="M191.25,-1262C191.25,-1262 116.75,-1262 116.75,-1262 110.75,-1262 104.75,-1256 104.75,-1250 104.75,-1250 104.75,-1238 104.75,-1238 104.75,-1232 110.75,-1226 116.75,-1226 116.75,-1226 191.25,-1226 191.25,-1226 197.25,-1226 203.25,-1232 203.25,-1238 203.25,-1238 203.25,-1250 203.25,-1250 203.25,-1256 197.25,-1262 191.25,-1262"/>
<text text-anchor="middle" x="154" y="-1240.3" font-family="Helvetica,sans-Serif" font-size="14.00">InputFilePath</text>
</g>
<!-- InputFilePath&#45;&gt;Setup -->
<g id="edge3" class="edge"><title>InputFilePath&#45;&gt;Setup</title>
<path fill="none" stroke="black" d="M191.212,-1225.84C214.536,-1215.08 245.405,-1200.85 273.508,-1187.89"/>
<polygon fill="black" stroke="black" points="275.303,-1190.92 282.918,-1183.55 272.371,-1184.56 275.303,-1190.92"/>
</g>
<!-- occurrenceID -->
<g id="node23" class="node"><title>occurrenceID</title>
<path fill="#fcfcfc" stroke="black" d="M506,-918C506,-918 430,-918 430,-918 424,-918 418,-912 418,-906 418,-906 418,-894 418,-894 418,-888 424,-882 430,-882 430,-882 506,-882 506,-882 512,-882 518,-888 518,-894 518,-894 518,-906 518,-906 518,-912 512,-918 506,-918"/>
<text text-anchor="middle" x="468" y="-896.3" font-family="Helvetica,sans-Serif" font-size="14.00">occurrenceID</text>
</g>
<!-- occurrenceID&#45;&gt;EnvironmentTagger -->
<g id="edge10" class="edge"><title>occurrenceID&#45;&gt;EnvironmentTagger</title>
<path fill="none" stroke="black" d="M518.17,-888.75C570.151,-878.13 653.254,-861.152 721.992,-847.109"/>
<polygon fill="black" stroke="black" points="722.927,-850.491 732.024,-845.06 721.525,-843.632 722.927,-850.491"/>
</g>
<!-- occurrenceID&#45;&gt;FilterToJustMarine -->
<g id="edge14" class="edge"><title>occurrenceID&#45;&gt;FilterToJustMarine</title>
<path fill="none" stroke="black" d="M464.447,-881.856C460.946,-859.864 458.591,-821.734 478,-798 512.442,-755.884 543.58,-779.776 595,-762 658.026,-740.212 728.985,-712.592 778.62,-692.757"/>
<polygon fill="black" stroke="black" points="779.962,-695.99 787.943,-689.022 777.359,-689.492 779.962,-695.99"/>
</g>
<!-- occurrenceID&#45;&gt;FilterExcludingMarine -->
<g id="edge19" class="edge"><title>occurrenceID&#45;&gt;FilterExcludingMarine</title>
<path fill="none" stroke="black" d="M459.45,-881.773C444.699,-849.456 418.398,-778.287 444,-726 449.912,-713.926 459.619,-703.612 470.15,-695.145"/>
<polygon fill="black" stroke="black" points="472.407,-697.827 478.314,-689.032 468.212,-692.224 472.407,-697.827"/>
</g>
<!-- matchMarineValue -->
<g id="node24" class="node"><title>matchMarineValue</title>
<path fill="#fcfcfc" stroke="black" d="M574.25,-762C574.25,-762 465.75,-762 465.75,-762 459.75,-762 453.75,-756 453.75,-750 453.75,-750 453.75,-738 453.75,-738 453.75,-732 459.75,-726 465.75,-726 465.75,-726 574.25,-726 574.25,-726 580.25,-726 586.25,-732 586.25,-738 586.25,-738 586.25,-750 586.25,-750 586.25,-756 580.25,-762 574.25,-762"/>
<text text-anchor="middle" x="520" y="-740.3" font-family="Helvetica,sans-Serif" font-size="14.00">matchMarineValue</text>
</g>
<!-- matchMarineValue&#45;&gt;FilterToJustMarine -->
<g id="edge15" class="edge"><title>matchMarineValue&#45;&gt;FilterToJustMarine</title>
<path fill="none" stroke="black" d="M586.328,-727.345C630.254,-716.977 688.762,-703.168 738.723,-691.376"/>
<polygon fill="black" stroke="black" points="739.666,-694.75 748.594,-689.046 738.058,-687.937 739.666,-694.75"/>
</g>
<!-- matchMarineValue&#45;&gt;FilterExcludingMarine -->
<g id="edge20" class="edge"><title>matchMarineValue&#45;&gt;FilterExcludingMarine</title>
<path fill="none" stroke="black" d="M520,-725.754C520,-717.863 520,-708.249 520,-699.102"/>
<polygon fill="black" stroke="black" points="523.5,-699.091 520,-689.091 516.5,-699.091 523.5,-699.091"/>
</g>
<!-- MDRscientificName -->
<g id="node26" class="node"><title>MDRscientificName</title>
<path fill="#fcfcfc" stroke="black" d="M744.25,-606C744.25,-606 629.75,-606 629.75,-606 623.75,-606 617.75,-600 617.75,-594 617.75,-594 617.75,-582 617.75,-582 617.75,-576 623.75,-570 629.75,-570 629.75,-570 744.25,-570 744.25,-570 750.25,-570 756.25,-576 756.25,-582 756.25,-582 756.25,-594 756.25,-594 756.25,-600 750.25,-606 744.25,-606"/>
<text text-anchor="middle" x="687" y="-584.3" font-family="Helvetica,sans-Serif" font-size="14.00">MDRscientificName</text>
</g>
<!-- MDRscientificName&#45;&gt;WoRMSLookup -->
<g id="edge25" class="edge"><title>MDRscientificName&#45;&gt;WoRMSLookup</title>
<path fill="none" stroke="black" d="M728.742,-569.944C752.599,-560.196 783,-547.774 809.737,-536.849"/>
<polygon fill="black" stroke="black" points="811.091,-540.077 819.024,-533.055 808.444,-533.597 811.091,-540.077"/>
</g>
<!-- MDRscientificNameAuthorship -->
<g id="node27" class="node"><title>MDRscientificNameAuthorship</title>
<path fill="#fcfcfc" stroke="black" d="M1121,-606C1121,-606 939,-606 939,-606 933,-606 927,-600 927,-594 927,-594 927,-582 927,-582 927,-576 933,-570 939,-570 939,-570 1121,-570 1121,-570 1127,-570 1133,-576 1133,-582 1133,-582 1133,-594 1133,-594 1133,-600 1127,-606 1121,-606"/>
<text text-anchor="middle" x="1030" y="-584.3" font-family="Helvetica,sans-Serif" font-size="14.00">MDRscientificNameAuthorship</text>
</g>
<!-- MDRscientificNameAuthorship&#45;&gt;WoRMSLookup -->
<g id="edge26" class="edge"><title>MDRscientificNameAuthorship&#45;&gt;WoRMSLookup</title>
<path fill="none" stroke="black" d="M994.766,-569.944C974.981,-560.366 949.862,-548.207 927.585,-537.423"/>
<polygon fill="black" stroke="black" points="929.086,-534.261 918.56,-533.055 926.036,-540.562 929.086,-534.261"/>
</g>
<!-- NMDRscientificName -->
<g id="node29" class="node"><title>NMDRscientificName</title>
<path fill="#fcfcfc" stroke="black" d="M416,-606C416,-606 290,-606 290,-606 284,-606 278,-600 278,-594 278,-594 278,-582 278,-582 278,-576 284,-570 290,-570 290,-570 416,-570 416,-570 422,-570 428,-576 428,-582 428,-582 428,-594 428,-594 428,-600 422,-606 416,-606"/>
<text text-anchor="middle" x="353" y="-584.3" font-family="Helvetica,sans-Serif" font-size="14.00">NMDRscientificName</text>
</g>
<!-- NMDRscientificName&#45;&gt;GBIFLookup -->
<g id="edge31" class="edge"><title>NMDRscientificName&#45;&gt;GBIFLookup</title>
<path fill="none" stroke="black" d="M387.561,-569.944C406.882,-560.409 431.388,-548.315 453.167,-537.567"/>
<polygon fill="black" stroke="black" points="454.892,-540.619 462.311,-533.055 451.794,-534.341 454.892,-540.619"/>
</g>
<!-- NMDRscientificNameAuthorship -->
<g id="node30" class="node"><title>NMDRscientificNameAuthorship</title>
<path fill="#fcfcfc" stroke="black" d="M248,-606C248,-606 56,-606 56,-606 50,-606 44,-600 44,-594 44,-594 44,-582 44,-582 44,-576 50,-570 56,-570 56,-570 248,-570 248,-570 254,-570 260,-576 260,-582 260,-582 260,-594 260,-594 260,-600 254,-606 248,-606"/>
<text text-anchor="middle" x="152" y="-584.3" font-family="Helvetica,sans-Serif" font-size="14.00">NMDRscientificNameAuthorship</text>
</g>
<!-- NMDRscientificNameAuthorship&#45;&gt;GBIFLookup -->
<g id="edge32" class="edge"><title>NMDRscientificNameAuthorship&#45;&gt;GBIFLookup</title>
<path fill="none" stroke="black" d="M231.669,-569.944C279.489,-559.707 341.086,-546.52 393.889,-535.215"/>
<polygon fill="black" stroke="black" points="394.936,-538.57 403.982,-533.055 393.471,-531.726 394.936,-538.57"/>
</g>
<!-- InputFilePath_input_port -->
<g id="node31" class="node"><title>InputFilePath_input_port</title>
<ellipse fill="#ffffff" stroke="black" cx="291" cy="-1315" rx="7" ry="7"/>
</g>
<!-- InputFilePath_input_port&#45;&gt;InputFilePath -->
<g id="edge39" class="edge"><title>InputFilePath_input_port&#45;&gt;InputFilePath</title>
<path fill="none" stroke="black" d="M284.321,-1311.97C270.573,-1307.69 238.281,-1297.02 213,-1284 203.831,-1279.28 194.327,-1273.45 185.694,-1267.76"/>
<polygon fill="black" stroke="black" points="187.644,-1264.86 177.398,-1262.16 183.726,-1270.66 187.644,-1264.86"/>
</g>
<!-- DarwinCoreFile_input_port -->
<g id="node32" class="node"><title>DarwinCoreFile_input_port</title>
<ellipse fill="#ffffff" stroke="black" cx="323" cy="-1315" rx="7" ry="7"/>
</g>
<!-- DarwinCoreFile_input_port&#45;&gt;DarwinCoreFile -->
<g id="edge40" class="edge"><title>DarwinCoreFile_input_port&#45;&gt;DarwinCoreFile</title>
<path fill="none" stroke="black" d="M328.887,-1311.04C342.393,-1304.23 376.771,-1286.92 406.936,-1271.73"/>
<polygon fill="black" stroke="black" points="408.777,-1274.72 416.134,-1267.09 405.629,-1268.47 408.777,-1274.72"/>
</g>
</g>
</svg>
