<?xml version="1.0" encoding="UTF-8" standalone="no"?>
<!DOCTYPE svg PUBLIC "-//W3C//DTD SVG 1.1//EN"
 "http://www.w3.org/Graphics/SVG/1.1/DTD/svg11.dtd">
<!-- Generated by graphviz version 2.36.0 (20140111.2315)
 -->
<!-- Title: Workflow Pages: 1 -->
<svg width="597pt" height="1284pt"
 viewBox="0.00 0.00 597.00 1284.00" xmlns="http://www.w3.org/2000/svg" xmlns:xlink="http://www.w3.org/1999/xlink">
<g id="graph0" class="graph" transform="scale(1 1) rotate(0) translate(4 1280)">
<title>Workflow</title>
<polygon fill="white" stroke="none" points="-4,4 -4,-1280 593,-1280 593,4 -4,4"/>
<text text-anchor="middle" x="294.5" y="-1257.6" font-family="Helvetica,sans-Serif" font-size="18.00">BranchingWorkflow</text>
<g id="clust1" class="cluster"><title>cluster_workflow_box_outer</title>
<polygon fill="none" stroke="black" stroke-width="2" points="8,-62 8,-1186 581,-1186 581,-62 8,-62"/>
</g>
<g id="clust2" class="cluster"><title>cluster_workflow_box_inner</title>
<polygon fill="none" stroke="black" stroke-width="0" points="16,-70 16,-1178 573,-1178 573,-70 16,-70"/>
</g>
<g id="clust3" class="cluster"><title>cluster_input_ports_group_outer</title>
<polygon fill="none" stroke="black" stroke-width="0" points="174,-1194 174,-1240 252,-1240 252,-1194 174,-1194"/>
</g>
<g id="clust4" class="cluster"><title>cluster_input_ports_group_inner</title>
<polygon fill="none" stroke="black" stroke-width="0" points="182,-1202 182,-1232 244,-1232 244,-1202 182,-1202"/>
</g>
<g id="clust5" class="cluster"><title>cluster_output_ports_group_outer</title>
<polygon fill="none" stroke="black" stroke-width="0" points="211,-8 211,-54 289,-54 289,-8 211,-8"/>
</g>
<g id="clust6" class="cluster"><title>cluster_output_ports_group_inner</title>
<polygon fill="none" stroke="black" stroke-width="0" points="219,-16 219,-46 281,-46 281,-16 219,-16"/>
</g>
<!-- Setup -->
<g id="node1" class="node"><title>Setup</title>
<polygon fill="#ccffcc" stroke="black" points="165,-1086 111,-1086 111,-1050 165,-1050 165,-1086"/>
<text text-anchor="middle" x="138" y="-1064.3" font-family="Helvetica,sans-Serif" font-size="14.00">Setup</text>
</g>
<!-- OccurrenceFile -->
<g id="node11" class="node"><title>OccurrenceFile</title>
<path fill="#ffffcc" stroke="black" d="M104,-967C104,-967 310,-967 310,-967 316,-967 322,-973 322,-979 322,-979 322,-1001 322,-1001 322,-1007 316,-1013 310,-1013 310,-1013 104,-1013 104,-1013 98,-1013 92,-1007 92,-1001 92,-1001 92,-979 92,-979 92,-973 98,-967 104,-967"/>
<text text-anchor="middle" x="207" y="-997.8" font-family="Helvetica,sans-Serif" font-size="14.00">OccurrenceFile</text>
<polyline fill="none" stroke="black" points="92,-990 322,-990 "/>
<text text-anchor="middle" x="207" y="-974.8" font-family="Helvetica,sans-Serif" font-size="14.00">file:{workspace}/darwinized_file.txt</text>
</g>
<!-- Setup&#45;&gt;OccurrenceFile -->
<g id="edge2" class="edge"><title>Setup&#45;&gt;OccurrenceFile</title>
<path fill="none" stroke="black" d="M153.657,-1049.75C161.438,-1041.18 171.063,-1030.58 179.987,-1020.75"/>
<polygon fill="black" stroke="black" points="182.813,-1022.85 186.944,-1013.09 177.631,-1018.14 182.813,-1022.85"/>
</g>
<!-- Workspace -->
<g id="node18" class="node"><title>Workspace</title>
<path fill="#ffffcc" stroke="black" d="M102.25,-930C102.25,-930 39.75,-930 39.75,-930 33.75,-930 27.75,-924 27.75,-918 27.75,-918 27.75,-906 27.75,-906 27.75,-900 33.75,-894 39.75,-894 39.75,-894 102.25,-894 102.25,-894 108.25,-894 114.25,-900 114.25,-906 114.25,-906 114.25,-918 114.25,-918 114.25,-924 108.25,-930 102.25,-930"/>
<text text-anchor="middle" x="71" y="-908.3" font-family="Helvetica,sans-Serif" font-size="14.00">Workspace</text>
</g>
<!-- Setup&#45;&gt;Workspace -->
<g id="edge1" class="edge"><title>Setup&#45;&gt;Workspace</title>
<path fill="none" stroke="black" d="M113.637,-1049.85C102.399,-1040.58 90.0209,-1028.13 83,-1014 71.5597,-990.972 69.2516,-961.463 69.3882,-940.296"/>
<polygon fill="black" stroke="black" points="72.8929,-940.152 69.647,-930.066 65.8951,-939.975 72.8929,-940.152"/>
</g>
<!-- FileToDataStream -->
<g id="node2" class="node"><title>FileToDataStream</title>
<polygon fill="#ccffcc" stroke="black" points="274,-930 144,-930 144,-894 274,-894 274,-930"/>
<text text-anchor="middle" x="209" y="-908.3" font-family="Helvetica,sans-Serif" font-size="14.00">FileToDataStream</text>
</g>
<!-- DataRecord -->
<g id="node12" class="node"><title>DataRecord</title>
<path fill="#ffffcc" stroke="black" d="M242.25,-858C242.25,-858 175.75,-858 175.75,-858 169.75,-858 163.75,-852 163.75,-846 163.75,-846 163.75,-834 163.75,-834 163.75,-828 169.75,-822 175.75,-822 175.75,-822 242.25,-822 242.25,-822 248.25,-822 254.25,-828 254.25,-834 254.25,-834 254.25,-846 254.25,-846 254.25,-852 248.25,-858 242.25,-858"/>
<text text-anchor="middle" x="209" y="-836.3" font-family="Helvetica,sans-Serif" font-size="14.00">DataRecord</text>
</g>
<!-- FileToDataStream&#45;&gt;DataRecord -->
<g id="edge5" class="edge"><title>FileToDataStream&#45;&gt;DataRecord</title>
<path fill="none" stroke="black" d="M209,-893.697C209,-885.983 209,-876.712 209,-868.112"/>
<polygon fill="black" stroke="black" points="212.5,-868.104 209,-858.104 205.5,-868.104 212.5,-868.104"/>
</g>
<!-- EnvironmentTagger -->
<g id="node3" class="node"><title>EnvironmentTagger</title>
<polygon fill="#ccffcc" stroke="black" points="278.25,-786 139.75,-786 139.75,-750 278.25,-750 278.25,-786"/>
<text text-anchor="middle" x="209" y="-764.3" font-family="Helvetica,sans-Serif" font-size="14.00">EnvironmentTagger</text>
</g>
<!-- TaggedDataRecord -->
<g id="node13" class="node"><title>TaggedDataRecord</title>
<path fill="#ffffcc" stroke="black" d="M266.25,-714C266.25,-714 151.75,-714 151.75,-714 145.75,-714 139.75,-708 139.75,-702 139.75,-702 139.75,-690 139.75,-690 139.75,-684 145.75,-678 151.75,-678 151.75,-678 266.25,-678 266.25,-678 272.25,-678 278.25,-684 278.25,-690 278.25,-690 278.25,-702 278.25,-702 278.25,-708 272.25,-714 266.25,-714"/>
<text text-anchor="middle" x="209" y="-692.3" font-family="Helvetica,sans-Serif" font-size="14.00">TaggedDataRecord</text>
</g>
<!-- EnvironmentTagger&#45;&gt;TaggedDataRecord -->
<g id="edge8" class="edge"><title>EnvironmentTagger&#45;&gt;TaggedDataRecord</title>
<path fill="none" stroke="black" d="M209,-749.697C209,-741.983 209,-732.712 209,-724.112"/>
<polygon fill="black" stroke="black" points="212.5,-724.104 209,-714.104 205.5,-724.104 212.5,-724.104"/>
</g>
<!-- LogFile -->
<g id="node21" class="node"><title>LogFile</title>
<path fill="#ffffcc" stroke="black" d="M351,-379C351,-379 427,-379 427,-379 433,-379 439,-385 439,-391 439,-391 439,-413 439,-413 439,-419 433,-425 427,-425 427,-425 351,-425 351,-425 345,-425 339,-419 339,-413 339,-413 339,-391 339,-391 339,-385 345,-379 351,-379"/>
<text text-anchor="middle" x="389" y="-409.8" font-family="Helvetica,sans-Serif" font-size="14.00">LogFile</text>
<polyline fill="none" stroke="black" points="339,-402 439,-402 "/>
<text text-anchor="middle" x="389" y="-386.8" font-family="Helvetica,sans-Serif" font-size="14.00">file:runlog.log</text>
</g>
<!-- EnvironmentTagger&#45;&gt;LogFile -->
<g id="edge7" class="edge"><title>EnvironmentTagger&#45;&gt;LogFile</title>
<path fill="none" stroke="black" d="M278.293,-754.946C346.656,-738.607 441,-702.092 441,-625 441,-625 441,-625 441,-551 441,-510.358 434.231,-500.069 420,-462 416.482,-452.588 411.783,-442.773 407.11,-433.911"/>
<polygon fill="black" stroke="black" points="410.157,-432.186 402.3,-425.078 404.009,-435.534 410.157,-432.186"/>
</g>
<!-- FilterToJustMarine -->
<g id="node4" class="node"><title>FilterToJustMarine</title>
<polygon fill="#ccffcc" stroke="black" points="422,-642 290,-642 290,-606 422,-606 422,-642"/>
<text text-anchor="middle" x="356" y="-620.3" font-family="Helvetica,sans-Serif" font-size="14.00">FilterToJustMarine</text>
</g>
<!-- MarineDataRecord -->
<g id="node14" class="node"><title>MarineDataRecord</title>
<path fill="#ffffcc" stroke="black" d="M390,-570C390,-570 280,-570 280,-570 274,-570 268,-564 268,-558 268,-558 268,-546 268,-546 268,-540 274,-534 280,-534 280,-534 390,-534 390,-534 396,-534 402,-540 402,-546 402,-546 402,-558 402,-558 402,-564 396,-570 390,-570"/>
<text text-anchor="middle" x="335" y="-548.3" font-family="Helvetica,sans-Serif" font-size="14.00">MarineDataRecord</text>
</g>
<!-- FilterToJustMarine&#45;&gt;MarineDataRecord -->
<g id="edge11" class="edge"><title>FilterToJustMarine&#45;&gt;MarineDataRecord</title>
<path fill="none" stroke="black" d="M350.809,-605.697C348.469,-597.898 345.653,-588.509 343.049,-579.829"/>
<polygon fill="black" stroke="black" points="346.357,-578.677 340.131,-570.104 339.652,-580.688 346.357,-578.677"/>
</g>
<!-- FilterToJustMarine&#45;&gt;LogFile -->
<g id="edge10" class="edge"><title>FilterToJustMarine&#45;&gt;LogFile</title>
<path fill="none" stroke="black" d="M381.38,-605.955C392.715,-596.786 404.878,-584.4 411,-570 429.847,-525.664 415.327,-469.234 402.58,-434.635"/>
<polygon fill="black" stroke="black" points="405.752,-433.132 398.89,-425.06 399.22,-435.649 405.752,-433.132"/>
</g>
<!-- FilterExcludingMarine -->
<g id="node5" class="node"><title>FilterExcludingMarine</title>
<polygon fill="#ccffcc" stroke="black" points="271.25,-642 120.75,-642 120.75,-606 271.25,-606 271.25,-642"/>
<text text-anchor="middle" x="196" y="-620.3" font-family="Helvetica,sans-Serif" font-size="14.00">FilterExcludingMarine</text>
</g>
<!-- notMarineDataRecord -->
<g id="node15" class="node"><title>notMarineDataRecord</title>
<path fill="#ffffcc" stroke="black" d="M217.25,-570C217.25,-570 88.75,-570 88.75,-570 82.75,-570 76.75,-564 76.75,-558 76.75,-558 76.75,-546 76.75,-546 76.75,-540 82.75,-534 88.75,-534 88.75,-534 217.25,-534 217.25,-534 223.25,-534 229.25,-540 229.25,-546 229.25,-546 229.25,-558 229.25,-558 229.25,-564 223.25,-570 217.25,-570"/>
<text text-anchor="middle" x="153" y="-548.3" font-family="Helvetica,sans-Serif" font-size="14.00">notMarineDataRecord</text>
</g>
<!-- FilterExcludingMarine&#45;&gt;notMarineDataRecord -->
<g id="edge14" class="edge"><title>FilterExcludingMarine&#45;&gt;notMarineDataRecord</title>
<path fill="none" stroke="black" d="M185.371,-605.697C180.372,-597.559 174.309,-587.689 168.788,-578.701"/>
<polygon fill="black" stroke="black" points="171.723,-576.793 163.507,-570.104 165.759,-580.457 171.723,-576.793"/>
</g>
<!-- FilterExcludingMarine&#45;&gt;LogFile -->
<g id="edge13" class="edge"><title>FilterExcludingMarine&#45;&gt;LogFile</title>
<path fill="none" stroke="black" d="M212.72,-605.608C221.34,-595.816 231.4,-582.976 238,-570 260.585,-525.596 236.135,-500.293 268,-462 276.854,-451.36 303.42,-437.935 329.412,-426.58"/>
<polygon fill="black" stroke="black" points="331.117,-429.657 338.928,-422.499 328.358,-423.223 331.117,-429.657"/>
</g>
<!-- WoRMSLookup -->
<g id="node6" class="node"><title>WoRMSLookup</title>
<polygon fill="#ccffcc" stroke="black" points="392.25,-498 277.75,-498 277.75,-462 392.25,-462 392.25,-498"/>
<text text-anchor="middle" x="335" y="-476.3" font-family="Helvetica,sans-Serif" font-size="14.00">WoRMSLookup</text>
</g>
<!-- WoRMSOutput -->
<g id="node17" class="node"><title>WoRMSOutput</title>
<path fill="#ffffcc" stroke="black" d="M308.25,-420C308.25,-420 221.75,-420 221.75,-420 215.75,-420 209.75,-414 209.75,-408 209.75,-408 209.75,-396 209.75,-396 209.75,-390 215.75,-384 221.75,-384 221.75,-384 308.25,-384 308.25,-384 314.25,-384 320.25,-390 320.25,-396 320.25,-396 320.25,-408 320.25,-408 320.25,-414 314.25,-420 308.25,-420"/>
<text text-anchor="middle" x="265" y="-398.3" font-family="Helvetica,sans-Serif" font-size="14.00">WoRMSOutput</text>
</g>
<!-- WoRMSLookup&#45;&gt;WoRMSOutput -->
<g id="edge16" class="edge"><title>WoRMSLookup&#45;&gt;WoRMSOutput</title>
<path fill="none" stroke="black" d="M319.116,-461.754C309.808,-451.649 297.898,-438.718 287.622,-427.561"/>
<polygon fill="black" stroke="black" points="290.17,-425.162 280.821,-420.177 285.022,-429.904 290.17,-425.162"/>
</g>
<!-- WoRMSLookup&#45;&gt;LogFile -->
<g id="edge17" class="edge"><title>WoRMSLookup&#45;&gt;LogFile</title>
<path fill="none" stroke="black" d="M347.253,-461.754C353.222,-453.354 360.578,-443.001 367.444,-433.339"/>
<polygon fill="black" stroke="black" points="370.365,-435.27 373.304,-425.091 364.659,-431.215 370.365,-435.27"/>
</g>
<!-- GBIFLookup -->
<g id="node7" class="node"><title>GBIFLookup</title>
<polygon fill="#ccffcc" stroke="black" points="200.25,-498 105.75,-498 105.75,-462 200.25,-462 200.25,-498"/>
<text text-anchor="middle" x="153" y="-476.3" font-family="Helvetica,sans-Serif" font-size="14.00">GBIFLookup</text>
</g>
<!-- GBIFOutput -->
<g id="node16" class="node"><title>GBIFOutput</title>
<path fill="#ffffcc" stroke="black" d="M179.25,-420C179.25,-420 112.75,-420 112.75,-420 106.75,-420 100.75,-414 100.75,-408 100.75,-408 100.75,-396 100.75,-396 100.75,-390 106.75,-384 112.75,-384 112.75,-384 179.25,-384 179.25,-384 185.25,-384 191.25,-390 191.25,-396 191.25,-396 191.25,-408 191.25,-408 191.25,-414 185.25,-420 179.25,-420"/>
<text text-anchor="middle" x="146" y="-398.3" font-family="Helvetica,sans-Serif" font-size="14.00">GBIFOutput</text>
</g>
<!-- GBIFLookup&#45;&gt;GBIFOutput -->
<g id="edge19" class="edge"><title>GBIFLookup&#45;&gt;GBIFOutput</title>
<path fill="none" stroke="black" d="M151.412,-461.754C150.552,-452.426 149.472,-440.691 148.502,-430.165"/>
<polygon fill="black" stroke="black" points="151.985,-429.814 147.582,-420.177 145.014,-430.456 151.985,-429.814"/>
</g>
<!-- GBIFLookup&#45;&gt;LogFile -->
<g id="edge20" class="edge"><title>GBIFLookup&#45;&gt;LogFile</title>
<path fill="none" stroke="black" d="M200.362,-465.762C235.962,-455.564 285.819,-440.756 329,-426 329.099,-425.966 329.198,-425.932 329.297,-425.898"/>
<polygon fill="black" stroke="black" points="330.412,-429.217 338.683,-422.596 328.089,-422.613 330.412,-429.217"/>
</g>
<!-- StreamMerge -->
<g id="node8" class="node"><title>StreamMerge</title>
<polygon fill="#ccffcc" stroke="black" points="202.25,-342 101.75,-342 101.75,-306 202.25,-306 202.25,-342"/>
<text text-anchor="middle" x="152" y="-320.3" font-family="Helvetica,sans-Serif" font-size="14.00">StreamMerge</text>
</g>
<!-- MergedStream -->
<g id="node19" class="node"><title>MergedStream</title>
<path fill="#ffffcc" stroke="black" d="M194.25,-270C194.25,-270 109.75,-270 109.75,-270 103.75,-270 97.75,-264 97.75,-258 97.75,-258 97.75,-246 97.75,-246 97.75,-240 103.75,-234 109.75,-234 109.75,-234 194.25,-234 194.25,-234 200.25,-234 206.25,-240 206.25,-246 206.25,-246 206.25,-258 206.25,-258 206.25,-264 200.25,-270 194.25,-270"/>
<text text-anchor="middle" x="152" y="-248.3" font-family="Helvetica,sans-Serif" font-size="14.00">MergedStream</text>
</g>
<!-- StreamMerge&#45;&gt;MergedStream -->
<g id="edge22" class="edge"><title>StreamMerge&#45;&gt;MergedStream</title>
<path fill="none" stroke="black" d="M152,-305.697C152,-297.983 152,-288.712 152,-280.112"/>
<polygon fill="black" stroke="black" points="155.5,-280.104 152,-270.104 148.5,-280.104 155.5,-280.104"/>
</g>
<!-- CsvFileWriter -->
<g id="node9" class="node"><title>CsvFileWriter</title>
<polygon fill="#ccffcc" stroke="black" points="202,-198 102,-198 102,-162 202,-162 202,-198"/>
<text text-anchor="middle" x="152" y="-176.3" font-family="Helvetica,sans-Serif" font-size="14.00">CsvFileWriter</text>
</g>
<!-- OutputFile -->
<g id="node20" class="node"><title>OutputFile</title>
<path fill="#ffffcc" stroke="black" d="M42,-79C42,-79 266,-79 266,-79 272,-79 278,-85 278,-91 278,-91 278,-113 278,-113 278,-119 272,-125 266,-125 266,-125 42,-125 42,-125 36,-125 30,-119 30,-113 30,-113 30,-91 30,-91 30,-85 36,-79 42,-79"/>
<text text-anchor="middle" x="154" y="-109.8" font-family="Helvetica,sans-Serif" font-size="14.00">OutputFile</text>
<polyline fill="none" stroke="black" points="30,-102 278,-102 "/>
<text text-anchor="middle" x="154" y="-86.8" font-family="Helvetica,sans-Serif" font-size="14.00">file:{workspace}/mergedoutputfile.csv</text>
</g>
<!-- CsvFileWriter&#45;&gt;OutputFile -->
<g id="edge25" class="edge"><title>CsvFileWriter&#45;&gt;OutputFile</title>
<path fill="none" stroke="black" d="M152.454,-161.754C152.661,-153.863 152.914,-144.249 153.155,-135.102"/>
<polygon fill="black" stroke="black" points="156.654,-135.179 153.419,-125.091 149.657,-134.995 156.654,-135.179"/>
</g>
<!-- DarwinCoreFile -->
<g id="node10" class="node"><title>DarwinCoreFile</title>
<path fill="#ffffcc" stroke="black" d="M153.5,-1123C153.5,-1123 552.5,-1123 552.5,-1123 558.5,-1123 564.5,-1129 564.5,-1135 564.5,-1135 564.5,-1157 564.5,-1157 564.5,-1163 558.5,-1169 552.5,-1169 552.5,-1169 153.5,-1169 153.5,-1169 147.5,-1169 141.5,-1163 141.5,-1157 141.5,-1157 141.5,-1135 141.5,-1135 141.5,-1129 147.5,-1123 153.5,-1123"/>
<text text-anchor="middle" x="353" y="-1153.8" font-family="Helvetica,sans-Serif" font-size="14.00">DarwinCoreFile</text>
<polyline fill="none" stroke="black" points="141.5,-1146 564.5,-1146 "/>
<text text-anchor="middle" x="353" y="-1130.8" font-family="Helvetica,sans-Serif" font-size="14.00">file:packages/kurator_branching/data/kurator_sample_data_v2.txt</text>
</g>
<!-- DarwinCoreFile&#45;&gt;Setup -->
<g id="edge4" class="edge"><title>DarwinCoreFile&#45;&gt;Setup</title>
<path fill="none" stroke="black" d="M290.524,-1122.92C253.046,-1109.67 206.656,-1093.27 174.942,-1082.06"/>
<polygon fill="black" stroke="black" points="175.785,-1078.64 165.19,-1078.61 173.452,-1085.24 175.785,-1078.64"/>
</g>
<!-- OccurrenceFile&#45;&gt;FileToDataStream -->
<g id="edge6" class="edge"><title>OccurrenceFile&#45;&gt;FileToDataStream</title>
<path fill="none" stroke="black" d="M207.589,-966.609C207.803,-958.481 208.047,-949.2 208.272,-940.671"/>
<polygon fill="black" stroke="black" points="211.777,-940.501 208.542,-930.412 204.78,-940.317 211.777,-940.501"/>
</g>
<!-- DataRecord&#45;&gt;EnvironmentTagger -->
<g id="edge9" class="edge"><title>DataRecord&#45;&gt;EnvironmentTagger</title>
<path fill="none" stroke="black" d="M209,-821.697C209,-813.983 209,-804.712 209,-796.112"/>
<polygon fill="black" stroke="black" points="212.5,-796.104 209,-786.104 205.5,-796.104 212.5,-796.104"/>
</g>
<!-- TaggedDataRecord&#45;&gt;FilterToJustMarine -->
<g id="edge12" class="edge"><title>TaggedDataRecord&#45;&gt;FilterToJustMarine</title>
<path fill="none" stroke="black" d="M244.96,-677.876C264.877,-668.392 289.822,-656.513 311.02,-646.419"/>
<polygon fill="black" stroke="black" points="312.633,-649.528 320.157,-642.068 309.623,-643.208 312.633,-649.528"/>
</g>
<!-- TaggedDataRecord&#45;&gt;FilterExcludingMarine -->
<g id="edge15" class="edge"><title>TaggedDataRecord&#45;&gt;FilterExcludingMarine</title>
<path fill="none" stroke="black" d="M205.787,-677.697C204.354,-669.983 202.632,-660.712 201.035,-652.112"/>
<polygon fill="black" stroke="black" points="204.444,-651.297 199.177,-642.104 197.561,-652.575 204.444,-651.297"/>
</g>
<!-- MarineDataRecord&#45;&gt;WoRMSLookup -->
<g id="edge18" class="edge"><title>MarineDataRecord&#45;&gt;WoRMSLookup</title>
<path fill="none" stroke="black" d="M335,-533.697C335,-525.983 335,-516.712 335,-508.112"/>
<polygon fill="black" stroke="black" points="338.5,-508.104 335,-498.104 331.5,-508.104 338.5,-508.104"/>
</g>
<!-- notMarineDataRecord&#45;&gt;GBIFLookup -->
<g id="edge21" class="edge"><title>notMarineDataRecord&#45;&gt;GBIFLookup</title>
<path fill="none" stroke="black" d="M153,-533.697C153,-525.983 153,-516.712 153,-508.112"/>
<polygon fill="black" stroke="black" points="156.5,-508.104 153,-498.104 149.5,-508.104 156.5,-508.104"/>
</g>
<!-- GBIFOutput&#45;&gt;StreamMerge -->
<g id="edge23" class="edge"><title>GBIFOutput&#45;&gt;StreamMerge</title>
<path fill="none" stroke="black" d="M147.361,-383.754C148.098,-374.426 149.024,-362.691 149.855,-352.165"/>
<polygon fill="black" stroke="black" points="153.346,-352.422 150.644,-342.177 146.368,-351.871 153.346,-352.422"/>
</g>
<!-- WoRMSOutput&#45;&gt;StreamMerge -->
<g id="edge24" class="edge"><title>WoRMSOutput&#45;&gt;StreamMerge</title>
<path fill="none" stroke="black" d="M239.641,-383.944C223.904,-373.36 203.479,-359.623 186.307,-348.074"/>
<polygon fill="black" stroke="black" points="187.917,-344.939 177.666,-342.262 184.01,-350.747 187.917,-344.939"/>
</g>
<!-- Workspace&#45;&gt;CsvFileWriter -->
<g id="edge26" class="edge"><title>Workspace&#45;&gt;CsvFileWriter</title>
<path fill="none" stroke="black" d="M68.1669,-893.566C64.076,-866.836 57,-814.086 57,-769 57,-769 57,-769 57,-323 57,-281.114 64.1024,-268.4 88,-234 95.7286,-222.875 106.398,-212.781 116.811,-204.458"/>
<polygon fill="black" stroke="black" points="119.217,-207.024 125.046,-198.177 114.972,-201.458 119.217,-207.024"/>
</g>
<!-- MergedStream&#45;&gt;CsvFileWriter -->
<g id="edge27" class="edge"><title>MergedStream&#45;&gt;CsvFileWriter</title>
<path fill="none" stroke="black" d="M152,-233.697C152,-225.983 152,-216.712 152,-208.112"/>
<polygon fill="black" stroke="black" points="155.5,-208.104 152,-198.104 148.5,-208.104 155.5,-208.104"/>
</g>
<!-- OutputFile_output_port -->
<g id="node25" class="node"><title>OutputFile_output_port</title>
<ellipse fill="#ffffff" stroke="black" cx="234" cy="-31" rx="7" ry="7"/>
</g>
<!-- OutputFile&#45;&gt;OutputFile_output_port -->
<g id="edge30" class="edge"><title>OutputFile&#45;&gt;OutputFile_output_port</title>
<path fill="none" stroke="black" d="M179.753,-78.7882C193.737,-66.7267 210.394,-52.3604 221.527,-42.7583"/>
<polygon fill="black" stroke="black" points="223.828,-45.3957 229.114,-36.214 219.256,-40.0949 223.828,-45.3957"/>
</g>
<!-- LogFile_output_port -->
<g id="node26" class="node"><title>LogFile_output_port</title>
<ellipse fill="#ffffff" stroke="black" cx="266" cy="-31" rx="7" ry="7"/>
</g>
<!-- LogFile&#45;&gt;LogFile_output_port -->
<g id="edge31" class="edge"><title>LogFile&#45;&gt;LogFile_output_port</title>
<path fill="none" stroke="black" d="M378.618,-378.987C366.181,-350.551 347,-299.207 347,-253 347,-253 347,-253 347,-179 347,-122.425 300.408,-67.1105 277.897,-43.6866"/>
<polygon fill="black" stroke="black" points="280.352,-41.191 270.824,-36.5564 275.382,-46.1208 280.352,-41.191"/>
</g>
<!-- InputFilePath -->
<g id="node22" class="node"><title>InputFilePath</title>
<path fill="#fcfcfc" stroke="black" d="M111.25,-1164C111.25,-1164 36.75,-1164 36.75,-1164 30.75,-1164 24.75,-1158 24.75,-1152 24.75,-1152 24.75,-1140 24.75,-1140 24.75,-1134 30.75,-1128 36.75,-1128 36.75,-1128 111.25,-1128 111.25,-1128 117.25,-1128 123.25,-1134 123.25,-1140 123.25,-1140 123.25,-1152 123.25,-1152 123.25,-1158 117.25,-1164 111.25,-1164"/>
<text text-anchor="middle" x="74" y="-1142.3" font-family="Helvetica,sans-Serif" font-size="14.00">InputFilePath</text>
</g>
<!-- InputFilePath&#45;&gt;Setup -->
<g id="edge3" class="edge"><title>InputFilePath&#45;&gt;Setup</title>
<path fill="none" stroke="black" d="M88.5226,-1127.75C96.9509,-1117.75 107.713,-1104.97 117.045,-1093.88"/>
<polygon fill="black" stroke="black" points="119.771,-1096.08 123.535,-1086.18 114.416,-1091.57 119.771,-1096.08"/>
</g>
<!-- InputFilePath_input_port -->
<g id="node23" class="node"><title>InputFilePath_input_port</title>
<ellipse fill="#ffffff" stroke="black" cx="197" cy="-1217" rx="7" ry="7"/>
</g>
<!-- InputFilePath_input_port&#45;&gt;InputFilePath -->
<g id="edge28" class="edge"><title>InputFilePath_input_port&#45;&gt;InputFilePath</title>
<path fill="none" stroke="black" d="M190.744,-1213.51C178.963,-1208.72 152.801,-1197.69 132,-1186 123.286,-1181.1 114.174,-1175.32 105.823,-1169.72"/>
<polygon fill="black" stroke="black" points="107.678,-1166.75 97.4437,-1164.01 103.734,-1172.53 107.678,-1166.75"/>
</g>
<!-- DarwinCoreFile_input_port -->
<g id="node24" class="node"><title>DarwinCoreFile_input_port</title>
<ellipse fill="#ffffff" stroke="black" cx="229" cy="-1217" rx="7" ry="7"/>
</g>
<!-- DarwinCoreFile_input_port&#45;&gt;DarwinCoreFile -->
<g id="edge29" class="edge"><title>DarwinCoreFile_input_port&#45;&gt;DarwinCoreFile</title>
<path fill="none" stroke="black" d="M234.65,-1212.86C246.995,-1205.99 277.423,-1189.05 304.334,-1174.08"/>
<polygon fill="black" stroke="black" points="306.258,-1177.02 313.294,-1169.09 302.854,-1170.9 306.258,-1177.02"/>
</g>
</g>
</svg>
