<?xml version="1.0" encoding="UTF-8" standalone="no"?>
<!DOCTYPE svg PUBLIC "-//W3C//DTD SVG 1.1//EN"
 "http://www.w3.org/Graphics/SVG/1.1/DTD/svg11.dtd">
<!-- Generated by graphviz version 2.36.0 (20140111.2315)
 -->
<!-- Title: yw_data_view Pages: 1 -->
<svg width="208pt" height="318pt"
 viewBox="0.00 0.00 208.00 318.00" xmlns="http://www.w3.org/2000/svg" xmlns:xlink="http://www.w3.org/1999/xlink">
<g id="graph0" class="graph" transform="scale(1 1) rotate(0) translate(4 314)">
<title>yw_data_view</title>
<polygon fill="white" stroke="none" points="-4,4 -4,-314 204,-314 204,4 -4,4"/>
<text text-anchor="middle" x="100" y="-291.6" font-family="Courier,monospace" font-size="18.00">BranchingWorkflow</text>
<g id="clust1" class="cluster"><title>cluster_workflow</title>
<polygon fill="none" stroke="black" stroke-width="2" points="21,-62 21,-274 179,-274 179,-62 21,-62"/>
</g>
<g id="clust2" class="cluster"><title>cluster_workflow_inner</title>
<polygon fill="none" stroke="white" stroke-width="2" points="29,-70 29,-266 171,-266 171,-70 29,-70"/>
</g>
<g id="clust5" class="cluster"><title>cluster_outflows</title>
<polygon fill="none" stroke="white" stroke-width="2" points="77,-8 77,-54 123,-54 123,-8 77,-8"/>
</g>
<g id="clust6" class="cluster"><title>cluster_outflows_inner</title>
<polygon fill="none" stroke="white" stroke-width="2" points="85,-16 85,-46 115,-46 115,-16 85,-16"/>
</g>
<!-- CsvFileWriter -->
<g id="node1" class="node"><title>CsvFileWriter</title>
<polygon fill="#ccffcc" stroke="black" points="163,-186 37,-186 37,-150 163,-150 163,-186"/>
<text text-anchor="middle" x="100" y="-164.3" font-family="Courier,monospace" font-size="14.00">CsvFileWriter</text>
</g>
<!-- OutputFile -->
<g id="node3" class="node"><title>OutputFile</title>
<path fill="#ffffcc" stroke="black" d="M128.25,-114C128.25,-114 71.75,-114 71.75,-114 65.75,-114 59.75,-108 59.75,-102 59.75,-102 59.75,-90 59.75,-90 59.75,-84 65.75,-78 71.75,-78 71.75,-78 128.25,-78 128.25,-78 134.25,-78 140.25,-84 140.25,-90 140.25,-90 140.25,-102 140.25,-102 140.25,-108 134.25,-114 128.25,-114"/>
<text text-anchor="middle" x="100" y="-92.3" font-family="Helvetica,sans-Serif" font-size="14.00">OutputFile</text>
</g>
<!-- CsvFileWriter&#45;&gt;OutputFile -->
<g id="edge1" class="edge"><title>CsvFileWriter&#45;&gt;OutputFile</title>
<path fill="none" stroke="black" d="M100,-149.697C100,-141.983 100,-132.712 100,-124.112"/>
<polygon fill="black" stroke="black" points="103.5,-124.104 100,-114.104 96.5001,-124.104 103.5,-124.104"/>
</g>
<!-- Workspace -->
<g id="node2" class="node"><title>Workspace</title>
<path fill="#ffffcc" stroke="black" d="M131.25,-258C131.25,-258 68.75,-258 68.75,-258 62.75,-258 56.75,-252 56.75,-246 56.75,-246 56.75,-234 56.75,-234 56.75,-228 62.75,-222 68.75,-222 68.75,-222 131.25,-222 131.25,-222 137.25,-222 143.25,-228 143.25,-234 143.25,-234 143.25,-246 143.25,-246 143.25,-252 137.25,-258 131.25,-258"/>
<text text-anchor="middle" x="100" y="-236.3" font-family="Helvetica,sans-Serif" font-size="14.00">Workspace</text>
</g>
<!-- Workspace&#45;&gt;CsvFileWriter -->
<g id="edge2" class="edge"><title>Workspace&#45;&gt;CsvFileWriter</title>
<path fill="none" stroke="black" d="M100,-221.697C100,-213.983 100,-204.712 100,-196.112"/>
<polygon fill="black" stroke="black" points="103.5,-196.104 100,-186.104 96.5001,-196.104 103.5,-196.104"/>
</g>
<!-- OutputFile_outflow -->
<g id="node4" class="node"><title>OutputFile_outflow</title>
<ellipse fill="none" stroke="black" cx="100" cy="-31" rx="7" ry="7"/>
</g>
<!-- OutputFile&#45;&gt;OutputFile_outflow -->
<g id="edge3" class="edge"><title>OutputFile&#45;&gt;OutputFile_outflow</title>
<path fill="none" stroke="black" d="M100,-77.785C100,-68.6656 100,-57.5197 100,-48.5085"/>
<polygon fill="black" stroke="black" points="103.5,-48.242 100,-38.242 96.5001,-48.2421 103.5,-48.242"/>
</g>
</g>
</svg>
