<?xml version="1.0" encoding="UTF-8" standalone="no"?>
<!DOCTYPE svg PUBLIC "-//W3C//DTD SVG 1.1//EN"
 "http://www.w3.org/Graphics/SVG/1.1/DTD/svg11.dtd">
<!-- Generated by graphviz version 2.36.0 (20140111.2315)
 -->
<!-- Title: yw_data_view Pages: 1 -->
<svg width="456pt" height="894pt"
 viewBox="0.00 0.00 456.00 894.00" xmlns="http://www.w3.org/2000/svg" xmlns:xlink="http://www.w3.org/1999/xlink">
<g id="graph0" class="graph" transform="scale(1 1) rotate(0) translate(4 890)">
<title>yw_data_view</title>
<polygon fill="white" stroke="none" points="-4,4 -4,-890 452,-890 452,4 -4,4"/>
<text text-anchor="middle" x="224" y="-867.6" font-family="Courier,monospace" font-size="18.00">BranchingWorkflow</text>
<g id="clust1" class="cluster"><title>cluster_workflow</title>
<polygon fill="none" stroke="black" stroke-width="2" points="8,-62 8,-850 440,-850 440,-62 8,-62"/>
</g>
<g id="clust2" class="cluster"><title>cluster_workflow_inner</title>
<polygon fill="none" stroke="white" stroke-width="2" points="16,-70 16,-842 432,-842 432,-70 16,-70"/>
</g>
<g id="clust5" class="cluster"><title>cluster_outflows</title>
<polygon fill="none" stroke="white" stroke-width="2" points="276,-8 276,-54 354,-54 354,-8 276,-8"/>
</g>
<g id="clust6" class="cluster"><title>cluster_outflows_inner</title>
<polygon fill="none" stroke="white" stroke-width="2" points="284,-16 284,-46 346,-46 346,-16 284,-16"/>
</g>
<!-- FilterExcludingMarine -->
<g id="node1" class="node"><title>FilterExcludingMarine</title>
<polygon fill="#ccffcc" stroke="black" points="217.25,-618 24.75,-618 24.75,-582 217.25,-582 217.25,-618"/>
<text text-anchor="middle" x="121" y="-596.3" font-family="Courier,monospace" font-size="14.00">FilterExcludingMarine</text>
</g>
<!-- LogFile -->
<g id="node9" class="node"><title>LogFile</title>
<path fill="#ffffcc" stroke="black" d="M377,-402C377,-402 339,-402 339,-402 333,-402 327,-396 327,-390 327,-390 327,-378 327,-378 327,-372 333,-366 339,-366 339,-366 377,-366 377,-366 383,-366 389,-372 389,-378 389,-378 389,-390 389,-390 389,-396 383,-402 377,-402"/>
<text text-anchor="middle" x="358" y="-380.3" font-family="Helvetica,sans-Serif" font-size="14.00">LogFile</text>
</g>
<!-- FilterExcludingMarine&#45;&gt;LogFile -->
<g id="edge10" class="edge"><title>FilterExcludingMarine&#45;&gt;LogFile</title>
<path fill="none" stroke="black" d="M160.601,-581.987C176.701,-573.307 194.243,-561.31 206,-546 236.57,-506.193 205.748,-475.595 239,-438 241.872,-434.752 284.01,-416.375 317.337,-402.161"/>
<polygon fill="black" stroke="black" points="319.071,-405.227 326.903,-398.092 316.331,-398.786 319.071,-405.227"/>
</g>
<!-- notMarineDataRecord -->
<g id="node12" class="node"><title>notMarineDataRecord</title>
<path fill="#ffffcc" stroke="black" d="M185.25,-546C185.25,-546 56.75,-546 56.75,-546 50.75,-546 44.75,-540 44.75,-534 44.75,-534 44.75,-522 44.75,-522 44.75,-516 50.75,-510 56.75,-510 56.75,-510 185.25,-510 185.25,-510 191.25,-510 197.25,-516 197.25,-522 197.25,-522 197.25,-534 197.25,-534 197.25,-540 191.25,-546 185.25,-546"/>
<text text-anchor="middle" x="121" y="-524.3" font-family="Helvetica,sans-Serif" font-size="14.00">notMarineDataRecord</text>
</g>
<!-- FilterExcludingMarine&#45;&gt;notMarineDataRecord -->
<g id="edge5" class="edge"><title>FilterExcludingMarine&#45;&gt;notMarineDataRecord</title>
<path fill="none" stroke="black" d="M121,-581.697C121,-573.983 121,-564.712 121,-556.112"/>
<polygon fill="black" stroke="black" points="124.5,-556.104 121,-546.104 117.5,-556.104 124.5,-556.104"/>
</g>
<!-- FilterToJustMarine -->
<g id="node2" class="node"><title>FilterToJustMarine</title>
<polygon fill="#ccffcc" stroke="black" points="404,-618 236,-618 236,-582 404,-582 404,-618"/>
<text text-anchor="middle" x="320" y="-596.3" font-family="Courier,monospace" font-size="14.00">FilterToJustMarine</text>
</g>
<!-- FilterToJustMarine&#45;&gt;LogFile -->
<g id="edge11" class="edge"><title>FilterToJustMarine&#45;&gt;LogFile</title>
<path fill="none" stroke="black" d="M347.8,-581.872C359.771,-572.837 372.495,-560.587 379,-546 398.663,-501.904 382.614,-444.743 369.838,-411.739"/>
<polygon fill="black" stroke="black" points="373.018,-410.268 366.021,-402.313 366.53,-412.896 373.018,-410.268"/>
</g>
<!-- MarineDataRecord -->
<g id="node11" class="node"><title>MarineDataRecord</title>
<path fill="#ffffcc" stroke="black" d="M358,-546C358,-546 248,-546 248,-546 242,-546 236,-540 236,-534 236,-534 236,-522 236,-522 236,-516 242,-510 248,-510 248,-510 358,-510 358,-510 364,-510 370,-516 370,-522 370,-522 370,-534 370,-534 370,-540 364,-546 358,-546"/>
<text text-anchor="middle" x="303" y="-524.3" font-family="Helvetica,sans-Serif" font-size="14.00">MarineDataRecord</text>
</g>
<!-- FilterToJustMarine&#45;&gt;MarineDataRecord -->
<g id="edge6" class="edge"><title>FilterToJustMarine&#45;&gt;MarineDataRecord</title>
<path fill="none" stroke="black" d="M315.798,-581.697C313.904,-573.898 311.623,-564.509 309.516,-555.829"/>
<polygon fill="black" stroke="black" points="312.915,-554.996 307.154,-546.104 306.113,-556.648 312.915,-554.996"/>
</g>
<!-- StreamMerge -->
<g id="node3" class="node"><title>StreamMerge</title>
<polygon fill="#ccffcc" stroke="black" points="307.25,-330 198.75,-330 198.75,-294 307.25,-294 307.25,-330"/>
<text text-anchor="middle" x="253" y="-308.3" font-family="Courier,monospace" font-size="14.00">StreamMerge</text>
</g>
<!-- MergedStream -->
<g id="node15" class="node"><title>MergedStream</title>
<path fill="#ffffcc" stroke="black" d="M298.25,-258C298.25,-258 213.75,-258 213.75,-258 207.75,-258 201.75,-252 201.75,-246 201.75,-246 201.75,-234 201.75,-234 201.75,-228 207.75,-222 213.75,-222 213.75,-222 298.25,-222 298.25,-222 304.25,-222 310.25,-228 310.25,-234 310.25,-234 310.25,-246 310.25,-246 310.25,-252 304.25,-258 298.25,-258"/>
<text text-anchor="middle" x="256" y="-236.3" font-family="Helvetica,sans-Serif" font-size="14.00">MergedStream</text>
</g>
<!-- StreamMerge&#45;&gt;MergedStream -->
<g id="edge2" class="edge"><title>StreamMerge&#45;&gt;MergedStream</title>
<path fill="none" stroke="black" d="M253.742,-293.697C254.072,-285.983 254.469,-276.712 254.838,-268.112"/>
<polygon fill="black" stroke="black" points="258.335,-268.245 255.267,-258.104 251.342,-267.945 258.335,-268.245"/>
</g>
<!-- CsvFileWriter -->
<g id="node4" class="node"><title>CsvFileWriter</title>
<polygon fill="#ccffcc" stroke="black" points="326,-186 200,-186 200,-150 326,-150 326,-186"/>
<text text-anchor="middle" x="263" y="-164.3" font-family="Courier,monospace" font-size="14.00">CsvFileWriter</text>
</g>
<!-- OutputFile -->
<g id="node16" class="node"><title>OutputFile</title>
<path fill="#ffffcc" stroke="black" d="M303.25,-114C303.25,-114 246.75,-114 246.75,-114 240.75,-114 234.75,-108 234.75,-102 234.75,-102 234.75,-90 234.75,-90 234.75,-84 240.75,-78 246.75,-78 246.75,-78 303.25,-78 303.25,-78 309.25,-78 315.25,-84 315.25,-90 315.25,-90 315.25,-102 315.25,-102 315.25,-108 309.25,-114 303.25,-114"/>
<text text-anchor="middle" x="275" y="-92.3" font-family="Helvetica,sans-Serif" font-size="14.00">OutputFile</text>
</g>
<!-- CsvFileWriter&#45;&gt;OutputFile -->
<g id="edge1" class="edge"><title>CsvFileWriter&#45;&gt;OutputFile</title>
<path fill="none" stroke="black" d="M265.966,-149.697C267.289,-141.983 268.878,-132.712 270.352,-124.112"/>
<polygon fill="black" stroke="black" points="273.828,-124.552 272.068,-114.104 266.928,-123.369 273.828,-124.552"/>
</g>
<!-- GBIFLookup -->
<g id="node5" class="node"><title>GBIFLookup</title>
<polygon fill="#ccffcc" stroke="black" points="184.25,-474 83.75,-474 83.75,-438 184.25,-438 184.25,-474"/>
<text text-anchor="middle" x="134" y="-452.3" font-family="Courier,monospace" font-size="14.00">GBIFLookup</text>
</g>
<!-- GBIFLookup&#45;&gt;LogFile -->
<g id="edge8" class="edge"><title>GBIFLookup&#45;&gt;LogFile</title>
<path fill="none" stroke="black" d="M184.574,-441.977C221.585,-432.055 272.837,-417.497 317,-402 317.1,-401.965 317.2,-401.93 317.3,-401.894"/>
<polygon fill="black" stroke="black" points="318.65,-405.127 326.799,-398.356 316.206,-398.567 318.65,-405.127"/>
</g>
<!-- GBIFOutput -->
<g id="node14" class="node"><title>GBIFOutput</title>
<path fill="#ffffcc" stroke="black" d="M167.25,-402C167.25,-402 100.75,-402 100.75,-402 94.75,-402 88.75,-396 88.75,-390 88.75,-390 88.75,-378 88.75,-378 88.75,-372 94.75,-366 100.75,-366 100.75,-366 167.25,-366 167.25,-366 173.25,-366 179.25,-372 179.25,-378 179.25,-378 179.25,-390 179.25,-390 179.25,-396 173.25,-402 167.25,-402"/>
<text text-anchor="middle" x="134" y="-380.3" font-family="Helvetica,sans-Serif" font-size="14.00">GBIFOutput</text>
</g>
<!-- GBIFLookup&#45;&gt;GBIFOutput -->
<g id="edge3" class="edge"><title>GBIFLookup&#45;&gt;GBIFOutput</title>
<path fill="none" stroke="black" d="M134,-437.697C134,-429.983 134,-420.712 134,-412.112"/>
<polygon fill="black" stroke="black" points="137.5,-412.104 134,-402.104 130.5,-412.104 137.5,-412.104"/>
</g>
<!-- WoRMSLookup -->
<g id="node6" class="node"><title>WoRMSLookup</title>
<polygon fill="#ccffcc" stroke="black" points="357.25,-474 248.75,-474 248.75,-438 357.25,-438 357.25,-474"/>
<text text-anchor="middle" x="303" y="-452.3" font-family="Courier,monospace" font-size="14.00">WoRMSLookup</text>
</g>
<!-- WoRMSLookup&#45;&gt;LogFile -->
<g id="edge9" class="edge"><title>WoRMSLookup&#45;&gt;LogFile</title>
<path fill="none" stroke="black" d="M316.596,-437.697C323.123,-429.389 331.068,-419.277 338.247,-410.141"/>
<polygon fill="black" stroke="black" points="341.135,-412.13 344.561,-402.104 335.631,-407.805 341.135,-412.13"/>
</g>
<!-- WoRMSOutput -->
<g id="node13" class="node"><title>WoRMSOutput</title>
<path fill="#ffffcc" stroke="black" d="M296.25,-402C296.25,-402 209.75,-402 209.75,-402 203.75,-402 197.75,-396 197.75,-390 197.75,-390 197.75,-378 197.75,-378 197.75,-372 203.75,-366 209.75,-366 209.75,-366 296.25,-366 296.25,-366 302.25,-366 308.25,-372 308.25,-378 308.25,-378 308.25,-390 308.25,-390 308.25,-396 302.25,-402 296.25,-402"/>
<text text-anchor="middle" x="253" y="-380.3" font-family="Helvetica,sans-Serif" font-size="14.00">WoRMSOutput</text>
</g>
<!-- WoRMSLookup&#45;&gt;WoRMSOutput -->
<g id="edge4" class="edge"><title>WoRMSLookup&#45;&gt;WoRMSOutput</title>
<path fill="none" stroke="black" d="M290.64,-437.697C284.767,-429.474 277.631,-419.483 271.158,-410.421"/>
<polygon fill="black" stroke="black" points="273.878,-408.207 265.217,-402.104 268.182,-412.276 273.878,-408.207"/>
</g>
<!-- EnvironmentTagger -->
<g id="node7" class="node"><title>EnvironmentTagger</title>
<polygon fill="#ccffcc" stroke="black" points="411.25,-762 252.75,-762 252.75,-726 411.25,-726 411.25,-762"/>
<text text-anchor="middle" x="332" y="-740.3" font-family="Courier,monospace" font-size="14.00">EnvironmentTagger</text>
</g>
<!-- EnvironmentTagger&#45;&gt;LogFile -->
<g id="edge12" class="edge"><title>EnvironmentTagger&#45;&gt;LogFile</title>
<path fill="none" stroke="black" d="M360.859,-725.779C373.919,-716.647 388.52,-704.344 398,-690 420.655,-655.724 423,-642.086 423,-601 423,-601 423,-601 423,-527 423,-482.963 396.835,-437.645 377.706,-410.398"/>
<polygon fill="black" stroke="black" points="380.481,-408.262 371.785,-402.211 374.809,-412.365 380.481,-408.262"/>
</g>
<!-- TaggedDataRecord -->
<g id="node10" class="node"><title>TaggedDataRecord</title>
<path fill="#ffffcc" stroke="black" d="M377.25,-690C377.25,-690 262.75,-690 262.75,-690 256.75,-690 250.75,-684 250.75,-678 250.75,-678 250.75,-666 250.75,-666 250.75,-660 256.75,-654 262.75,-654 262.75,-654 377.25,-654 377.25,-654 383.25,-654 389.25,-660 389.25,-666 389.25,-666 389.25,-678 389.25,-678 389.25,-684 383.25,-690 377.25,-690"/>
<text text-anchor="middle" x="320" y="-668.3" font-family="Helvetica,sans-Serif" font-size="14.00">TaggedDataRecord</text>
</g>
<!-- EnvironmentTagger&#45;&gt;TaggedDataRecord -->
<g id="edge7" class="edge"><title>EnvironmentTagger&#45;&gt;TaggedDataRecord</title>
<path fill="none" stroke="black" d="M329.034,-725.697C327.711,-717.983 326.122,-708.712 324.648,-700.112"/>
<polygon fill="black" stroke="black" points="328.072,-699.369 322.932,-690.104 321.172,-700.552 328.072,-699.369"/>
</g>
<!-- DataRecord -->
<g id="node8" class="node"><title>DataRecord</title>
<path fill="#ffffcc" stroke="black" d="M365.25,-834C365.25,-834 298.75,-834 298.75,-834 292.75,-834 286.75,-828 286.75,-822 286.75,-822 286.75,-810 286.75,-810 286.75,-804 292.75,-798 298.75,-798 298.75,-798 365.25,-798 365.25,-798 371.25,-798 377.25,-804 377.25,-810 377.25,-810 377.25,-822 377.25,-822 377.25,-828 371.25,-834 365.25,-834"/>
<text text-anchor="middle" x="332" y="-812.3" font-family="Helvetica,sans-Serif" font-size="14.00">DataRecord</text>
</g>
<!-- DataRecord&#45;&gt;EnvironmentTagger -->
<g id="edge13" class="edge"><title>DataRecord&#45;&gt;EnvironmentTagger</title>
<path fill="none" stroke="black" d="M332,-797.697C332,-789.983 332,-780.712 332,-772.112"/>
<polygon fill="black" stroke="black" points="335.5,-772.104 332,-762.104 328.5,-772.104 335.5,-772.104"/>
</g>
<!-- LogFile_outflow -->
<g id="node17" class="node"><title>LogFile_outflow</title>
<ellipse fill="none" stroke="black" cx="331" cy="-31" rx="7" ry="7"/>
</g>
<!-- LogFile&#45;&gt;LogFile_outflow -->
<g id="edge21" class="edge"><title>LogFile&#45;&gt;LogFile_outflow</title>
<path fill="none" stroke="black" d="M357.605,-365.952C357.022,-339.294 356,-286.119 356,-241 356,-241 356,-241 356,-167 356,-123.171 343.102,-72.6551 335.835,-47.6709"/>
<polygon fill="black" stroke="black" points="339.112,-46.4169 332.879,-37.8497 332.409,-48.4341 339.112,-46.4169"/>
</g>
<!-- TaggedDataRecord&#45;&gt;FilterExcludingMarine -->
<g id="edge15" class="edge"><title>TaggedDataRecord&#45;&gt;FilterExcludingMarine</title>
<path fill="none" stroke="black" d="M271.574,-653.966C243.769,-644.185 208.664,-631.836 179.346,-621.524"/>
<polygon fill="black" stroke="black" points="180.238,-618.127 169.644,-618.111 177.916,-624.731 180.238,-618.127"/>
</g>
<!-- TaggedDataRecord&#45;&gt;FilterToJustMarine -->
<g id="edge14" class="edge"><title>TaggedDataRecord&#45;&gt;FilterToJustMarine</title>
<path fill="none" stroke="black" d="M320,-653.697C320,-645.983 320,-636.712 320,-628.112"/>
<polygon fill="black" stroke="black" points="323.5,-628.104 320,-618.104 316.5,-628.104 323.5,-628.104"/>
</g>
<!-- MarineDataRecord&#45;&gt;WoRMSLookup -->
<g id="edge16" class="edge"><title>MarineDataRecord&#45;&gt;WoRMSLookup</title>
<path fill="none" stroke="black" d="M303,-509.697C303,-501.983 303,-492.712 303,-484.112"/>
<polygon fill="black" stroke="black" points="306.5,-484.104 303,-474.104 299.5,-484.104 306.5,-484.104"/>
</g>
<!-- notMarineDataRecord&#45;&gt;GBIFLookup -->
<g id="edge17" class="edge"><title>notMarineDataRecord&#45;&gt;GBIFLookup</title>
<path fill="none" stroke="black" d="M124.213,-509.697C125.646,-501.983 127.368,-492.712 128.965,-484.112"/>
<polygon fill="black" stroke="black" points="132.439,-484.575 130.823,-474.104 125.556,-483.297 132.439,-484.575"/>
</g>
<!-- WoRMSOutput&#45;&gt;StreamMerge -->
<g id="edge18" class="edge"><title>WoRMSOutput&#45;&gt;StreamMerge</title>
<path fill="none" stroke="black" d="M253,-365.697C253,-357.983 253,-348.712 253,-340.112"/>
<polygon fill="black" stroke="black" points="256.5,-340.104 253,-330.104 249.5,-340.104 256.5,-340.104"/>
</g>
<!-- GBIFOutput&#45;&gt;StreamMerge -->
<g id="edge19" class="edge"><title>GBIFOutput&#45;&gt;StreamMerge</title>
<path fill="none" stroke="black" d="M163.111,-365.876C178.67,-356.724 198.019,-345.342 214.776,-335.485"/>
<polygon fill="black" stroke="black" points="216.933,-338.277 223.777,-330.19 213.383,-332.243 216.933,-338.277"/>
</g>
<!-- MergedStream&#45;&gt;CsvFileWriter -->
<g id="edge20" class="edge"><title>MergedStream&#45;&gt;CsvFileWriter</title>
<path fill="none" stroke="black" d="M257.73,-221.697C258.502,-213.983 259.429,-204.712 260.289,-196.112"/>
<polygon fill="black" stroke="black" points="263.777,-196.403 261.29,-186.104 256.812,-195.706 263.777,-196.403"/>
</g>
<!-- OutputFile_outflow -->
<g id="node18" class="node"><title>OutputFile_outflow</title>
<ellipse fill="none" stroke="black" cx="299" cy="-31" rx="7" ry="7"/>
</g>
<!-- OutputFile&#45;&gt;OutputFile_outflow -->
<g id="edge22" class="edge"><title>OutputFile&#45;&gt;OutputFile_outflow</title>
<path fill="none" stroke="black" d="M281.558,-77.785C285.189,-68.2535 289.664,-56.5081 293.171,-47.3002"/>
<polygon fill="black" stroke="black" points="296.447,-48.532 296.737,-37.9411 289.906,-46.0399 296.447,-48.532"/>
</g>
</g>
</svg>
