<?xml version="1.0" encoding="UTF-8" standalone="no"?>
<!DOCTYPE svg PUBLIC "-//W3C//DTD SVG 1.1//EN"
 "http://www.w3.org/Graphics/SVG/1.1/DTD/svg11.dtd">
<!-- Generated by graphviz version 2.36.0 (20140111.2315)
 -->
<!-- Title: yw_data_view Pages: 1 -->
<svg width="514pt" height="1268pt"
 viewBox="0.00 0.00 514.00 1268.00" xmlns="http://www.w3.org/2000/svg" xmlns:xlink="http://www.w3.org/1999/xlink">
<g id="graph0" class="graph" transform="scale(1 1) rotate(0) translate(4 1264)">
<title>yw_data_view</title>
<polygon fill="white" stroke="none" points="-4,4 -4,-1264 510,-1264 510,4 -4,4"/>
<text text-anchor="middle" x="253" y="-1241.6" font-family="Courier,monospace" font-size="18.00">BranchingWorkflow</text>
<g id="clust1" class="cluster"><title>cluster_workflow</title>
<polygon fill="none" stroke="black" stroke-width="2" points="8,-62 8,-1170 498,-1170 498,-62 8,-62"/>
</g>
<g id="clust2" class="cluster"><title>cluster_workflow_inner</title>
<polygon fill="none" stroke="white" stroke-width="2" points="16,-70 16,-1162 490,-1162 490,-70 16,-70"/>
</g>
<g id="clust3" class="cluster"><title>cluster_inflows</title>
<polygon fill="none" stroke="white" stroke-width="2" points="149,-1178 149,-1224 227,-1224 227,-1178 149,-1178"/>
</g>
<g id="clust4" class="cluster"><title>cluster_inflows_inner</title>
<polygon fill="none" stroke="white" stroke-width="2" points="157,-1186 157,-1216 219,-1216 219,-1186 157,-1186"/>
</g>
<g id="clust5" class="cluster"><title>cluster_outflows</title>
<polygon fill="none" stroke="white" stroke-width="2" points="292,-8 292,-54 370,-54 370,-8 292,-8"/>
</g>
<g id="clust6" class="cluster"><title>cluster_outflows_inner</title>
<polygon fill="none" stroke="white" stroke-width="2" points="300,-16 300,-46 362,-46 362,-16 300,-16"/>
</g>
<!-- FilterExcludingMarine -->
<g id="node1" class="node"><title>FilterExcludingMarine</title>
<polygon fill="#d6d6d7" stroke="black" points="249.25,-644 56.75,-644 56.75,-608 249.25,-608 249.25,-644"/>
<text text-anchor="middle" x="153" y="-622.3" font-family="Courier,monospace" font-size="14.00">FilterExcludingMarine</text>
</g>
<!-- notMarineDataRecord -->
<g id="node10" class="node"><title>notMarineDataRecord</title>
<path fill="#d6d6d7" stroke="black" d="M69.5,-524.5C69.5,-524.5 198.5,-524.5 198.5,-524.5 204.5,-524.5 210.5,-530.5 210.5,-536.5 210.5,-536.5 210.5,-559.5 210.5,-559.5 210.5,-565.5 204.5,-571.5 198.5,-571.5 198.5,-571.5 69.5,-571.5 69.5,-571.5 63.5,-571.5 57.5,-565.5 57.5,-559.5 57.5,-559.5 57.5,-536.5 57.5,-536.5 57.5,-530.5 63.5,-524.5 69.5,-524.5"/>
<text text-anchor="middle" x="134" y="-556.3" font-family="Helvetica,sans-Serif" font-size="14.00">notMarineDataRecord</text>
<polyline fill="none" stroke="black" points="57.5,-548.5 210.5,-548.5 "/>
</g>
<!-- FilterExcludingMarine&#45;&gt;notMarineDataRecord -->
<g id="edge21" class="edge"><title>FilterExcludingMarine&#45;&gt;notMarineDataRecord</title>
<path fill="none" stroke="black" d="M148.689,-607.754C146.748,-599.99 144.39,-590.559 142.136,-581.545"/>
<polygon fill="black" stroke="black" points="145.485,-580.51 139.664,-571.658 138.694,-582.208 145.485,-580.51"/>
</g>
<!-- LogFile -->
<g id="node20" class="node"><title>LogFile</title>
<path fill="#ffe4b5" stroke="black" d="M422.5,-374C422.5,-374 469.5,-374 469.5,-374 475.5,-374 481.5,-380 481.5,-386 481.5,-386 481.5,-398 481.5,-398 481.5,-404 475.5,-410 469.5,-410 469.5,-410 422.5,-410 422.5,-410 416.5,-410 410.5,-404 410.5,-398 410.5,-398 410.5,-386 410.5,-386 410.5,-380 416.5,-374 422.5,-374"/>
<text text-anchor="middle" x="446" y="-398.8" font-family="Courier,monospace" font-weight="bold" font-size="9.00">LogFile</text>
<polyline fill="none" stroke="black" points="410.5,-392 481.5,-392 "/>
<text text-anchor="middle" x="446" y="-380.8" font-family="Courier,monospace" font-weight="bold" font-size="9.00">runlog.log</text>
</g>
<!-- FilterExcludingMarine&#45;&gt;LogFile -->
<g id="edge20" class="edge"><title>FilterExcludingMarine&#45;&gt;LogFile</title>
<path fill="none" stroke="black" d="M180.119,-607.955C193.241,-598.624 208.405,-586.097 219,-572 253.713,-525.812 225.605,-490.147 269,-452 314.672,-411.852 344.292,-437.954 401,-416 402.381,-415.465 403.775,-414.901 405.175,-414.314"/>
<polygon fill="black" stroke="black" points="406.725,-417.455 414.415,-410.167 403.858,-411.069 406.725,-417.455"/>
</g>
<!-- GBIFLookup -->
<g id="node2" class="node"><title>GBIFLookup</title>
<polygon fill="#d6d6d7" stroke="black" points="184.25,-488 83.75,-488 83.75,-452 184.25,-452 184.25,-488"/>
<text text-anchor="middle" x="134" y="-466.3" font-family="Courier,monospace" font-size="14.00">GBIFLookup</text>
</g>
<!-- GBIFOutput -->
<g id="node11" class="node"><title>GBIFOutput</title>
<path fill="#d6d6d7" stroke="black" d="M56.5,-368.5C56.5,-368.5 123.5,-368.5 123.5,-368.5 129.5,-368.5 135.5,-374.5 135.5,-380.5 135.5,-380.5 135.5,-403.5 135.5,-403.5 135.5,-409.5 129.5,-415.5 123.5,-415.5 123.5,-415.5 56.5,-415.5 56.5,-415.5 50.5,-415.5 44.5,-409.5 44.5,-403.5 44.5,-403.5 44.5,-380.5 44.5,-380.5 44.5,-374.5 50.5,-368.5 56.5,-368.5"/>
<text text-anchor="middle" x="90" y="-400.3" font-family="Helvetica,sans-Serif" font-size="14.00">GBIFOutput</text>
<polyline fill="none" stroke="black" points="44.5,-392.5 135.5,-392.5 "/>
</g>
<!-- GBIFLookup&#45;&gt;GBIFOutput -->
<g id="edge25" class="edge"><title>GBIFLookup&#45;&gt;GBIFOutput</title>
<path fill="none" stroke="black" d="M124.016,-451.754C119.327,-443.656 113.589,-433.744 108.17,-424.385"/>
<polygon fill="black" stroke="black" points="111.157,-422.558 103.118,-415.658 105.099,-426.066 111.157,-422.558"/>
</g>
<!-- GBIFLookup&#45;&gt;LogFile -->
<g id="edge24" class="edge"><title>GBIFLookup&#45;&gt;LogFile</title>
<path fill="none" stroke="black" d="M184.259,-459.394C258.738,-445.106 390.788,-419.546 401,-416 402.595,-415.446 404.205,-414.845 405.819,-414.208"/>
<polygon fill="black" stroke="black" points="407.228,-417.412 415.017,-410.229 404.449,-410.987 407.228,-417.412"/>
</g>
<!-- Setup -->
<g id="node3" class="node"><title>Setup</title>
<polygon fill="#ccffcc" stroke="black" points="125.25,-1080 66.75,-1080 66.75,-1044 125.25,-1044 125.25,-1080"/>
<text text-anchor="middle" x="96" y="-1058.3" font-family="Courier,monospace" font-size="14.00">Setup</text>
</g>
<!-- Workspace -->
<g id="node17" class="node"><title>Workspace</title>
<path fill="#ffffcc" stroke="black" d="M86,-936C86,-936 48,-936 48,-936 42,-936 36,-930 36,-924 36,-924 36,-912 36,-912 36,-906 42,-900 48,-900 48,-900 86,-900 86,-900 92,-900 98,-906 98,-912 98,-912 98,-924 98,-924 98,-930 92,-936 86,-936"/>
<text text-anchor="middle" x="67" y="-915.8" font-family="Helvetica,sans-Serif" font-size="9.00">Workspace</text>
</g>
<!-- Setup&#45;&gt;Workspace -->
<g id="edge13" class="edge"><title>Setup&#45;&gt;Workspace</title>
<path fill="none" stroke="black" d="M92.5019,-1043.87C87.5376,-1019.56 78.3996,-974.819 72.5168,-946.013"/>
<polygon fill="black" stroke="black" points="75.9407,-945.287 70.5105,-936.189 69.0823,-946.687 75.9407,-945.287"/>
</g>
<!-- OccurrenceFile -->
<g id="node18" class="node"><title>OccurrenceFile</title>
<path fill="#ffffcc" stroke="black" d="M202,-1008C202,-1008 148,-1008 148,-1008 142,-1008 136,-1002 136,-996 136,-996 136,-984 136,-984 136,-978 142,-972 148,-972 148,-972 202,-972 202,-972 208,-972 214,-978 214,-984 214,-984 214,-996 214,-996 214,-1002 208,-1008 202,-1008"/>
<text text-anchor="middle" x="175" y="-987.8" font-family="Helvetica,sans-Serif" font-size="9.00">OccurrenceFile</text>
</g>
<!-- Setup&#45;&gt;OccurrenceFile -->
<g id="edge14" class="edge"><title>Setup&#45;&gt;OccurrenceFile</title>
<path fill="none" stroke="black" d="M115.528,-1043.7C125.382,-1034.97 137.486,-1024.24 148.196,-1014.75"/>
<polygon fill="black" stroke="black" points="150.533,-1017.36 155.697,-1008.1 145.891,-1012.12 150.533,-1017.36"/>
</g>
<!-- FileToDataStream -->
<g id="node4" class="node"><title>FileToDataStream</title>
<polygon fill="#ccffcc" stroke="black" points="342.25,-936 191.75,-936 191.75,-900 342.25,-900 342.25,-936"/>
<text text-anchor="middle" x="267" y="-914.3" font-family="Courier,monospace" font-size="14.00">FileToDataStream</text>
</g>
<!-- DataRecord -->
<g id="node12" class="node"><title>DataRecord</title>
<path fill="#f8d2db" stroke="black" d="M249,-827C249,-827 323,-827 323,-827 329,-827 335,-833 335,-839 335,-839 335,-851 335,-851 335,-857 329,-863 323,-863 323,-863 249,-863 249,-863 243,-863 237,-857 237,-851 237,-851 237,-839 237,-839 237,-833 243,-827 249,-827"/>
<text text-anchor="middle" x="286" y="-851.8" font-family="Courier,monospace" font-weight="bold" font-size="9.00">DataRecord</text>
<polyline fill="none" stroke="black" points="237,-845 335,-845 "/>
<text text-anchor="middle" x="286" y="-833.8" font-family="Courier,monospace" font-weight="bold" font-size="9.00">MCZ:Mala:303063</text>
</g>
<!-- FileToDataStream&#45;&gt;DataRecord -->
<g id="edge15" class="edge"><title>FileToDataStream&#45;&gt;DataRecord</title>
<path fill="none" stroke="black" d="M271.599,-899.813C273.77,-891.702 276.41,-881.836 278.834,-872.777"/>
<polygon fill="black" stroke="black" points="282.239,-873.594 281.443,-863.029 275.477,-871.784 282.239,-873.594"/>
</g>
<!-- EnvironmentTagger -->
<g id="node5" class="node"><title>EnvironmentTagger</title>
<polygon fill="#ccffcc" stroke="black" points="403.25,-790 244.75,-790 244.75,-754 403.25,-754 403.25,-790"/>
<text text-anchor="middle" x="324" y="-768.3" font-family="Courier,monospace" font-size="14.00">EnvironmentTagger</text>
</g>
<!-- TaggedDataRecord -->
<g id="node13" class="node"><title>TaggedDataRecord</title>
<path fill="#f8d2db" stroke="black" d="M284.5,-681C284.5,-681 363.5,-681 363.5,-681 369.5,-681 375.5,-687 375.5,-693 375.5,-693 375.5,-705 375.5,-705 375.5,-711 369.5,-717 363.5,-717 363.5,-717 284.5,-717 284.5,-717 278.5,-717 272.5,-711 272.5,-705 272.5,-705 272.5,-693 272.5,-693 272.5,-687 278.5,-681 284.5,-681"/>
<text text-anchor="middle" x="324" y="-705.8" font-family="Courier,monospace" font-weight="bold" font-size="9.00">TaggedDataRecord</text>
<polyline fill="none" stroke="black" points="272.5,-699 375.5,-699 "/>
<text text-anchor="middle" x="324" y="-687.8" font-family="Courier,monospace" font-weight="bold" font-size="9.00">Marine</text>
</g>
<!-- EnvironmentTagger&#45;&gt;TaggedDataRecord -->
<g id="edge17" class="edge"><title>EnvironmentTagger&#45;&gt;TaggedDataRecord</title>
<path fill="none" stroke="black" d="M324,-753.813C324,-745.789 324,-736.047 324,-727.069"/>
<polygon fill="black" stroke="black" points="327.5,-727.029 324,-717.029 320.5,-727.029 327.5,-727.029"/>
</g>
<!-- EnvironmentTagger&#45;&gt;LogFile -->
<g id="edge16" class="edge"><title>EnvironmentTagger&#45;&gt;LogFile</title>
<path fill="none" stroke="black" d="M356.629,-753.907C395.718,-730.807 456,-685.672 456,-627 456,-627 456,-627 456,-547 456,-502.617 451.813,-451.189 448.857,-420.419"/>
<polygon fill="black" stroke="black" points="452.301,-419.675 447.834,-410.068 445.335,-420.364 452.301,-419.675"/>
</g>
<!-- FilterToJustMarine -->
<g id="node6" class="node"><title>FilterToJustMarine</title>
<polygon fill="#ccffcc" stroke="black" points="436,-644 268,-644 268,-608 436,-608 436,-644"/>
<text text-anchor="middle" x="352" y="-622.3" font-family="Courier,monospace" font-size="14.00">FilterToJustMarine</text>
</g>
<!-- MarineDataRecord -->
<g id="node14" class="node"><title>MarineDataRecord</title>
<path fill="#f8d2db" stroke="black" d="M261,-530C261,-530 405,-530 405,-530 411,-530 417,-536 417,-542 417,-542 417,-554 417,-554 417,-560 411,-566 405,-566 405,-566 261,-566 261,-566 255,-566 249,-560 249,-554 249,-554 249,-542 249,-542 249,-536 255,-530 261,-530"/>
<text text-anchor="middle" x="333" y="-554.8" font-family="Courier,monospace" font-weight="bold" font-size="9.00">MarineDataRecord</text>
<polyline fill="none" stroke="black" points="249,-548 417,-548 "/>
<text text-anchor="middle" x="333" y="-536.8" font-family="Courier,monospace" font-weight="bold" font-size="9.00">Cypraea argus:Linnaeus, 1758</text>
</g>
<!-- FilterToJustMarine&#45;&gt;MarineDataRecord -->
<g id="edge19" class="edge"><title>FilterToJustMarine&#45;&gt;MarineDataRecord</title>
<path fill="none" stroke="black" d="M347.689,-607.754C345.357,-598.426 342.423,-586.691 339.791,-576.165"/>
<polygon fill="black" stroke="black" points="343.115,-575.03 337.294,-566.177 336.324,-576.728 343.115,-575.03"/>
</g>
<!-- FilterToJustMarine&#45;&gt;LogFile -->
<g id="edge18" class="edge"><title>FilterToJustMarine&#45;&gt;LogFile</title>
<path fill="none" stroke="black" d="M387.789,-607.815C402.038,-599.106 417.129,-587.132 426,-572 440.689,-546.945 444.591,-464.004 445.627,-420.375"/>
<polygon fill="black" stroke="black" points="449.13,-420.257 445.833,-410.189 442.131,-420.116 449.13,-420.257"/>
</g>
<!-- WoRMSLookup -->
<g id="node7" class="node"><title>WoRMSLookup</title>
<polygon fill="#ccffcc" stroke="black" points="387.25,-488 278.75,-488 278.75,-452 387.25,-452 387.25,-488"/>
<text text-anchor="middle" x="333" y="-466.3" font-family="Courier,monospace" font-size="14.00">WoRMSLookup</text>
</g>
<!-- WoRMSOutput -->
<g id="node15" class="node"><title>WoRMSOutput</title>
<path fill="#f8d2db" stroke="black" d="M166,-374C166,-374 380,-374 380,-374 386,-374 392,-380 392,-386 392,-386 392,-398 392,-398 392,-404 386,-410 380,-410 380,-410 166,-410 166,-410 160,-410 154,-404 154,-398 154,-398 154,-386 154,-386 154,-380 160,-374 166,-374"/>
<text text-anchor="middle" x="273" y="-398.8" font-family="Courier,monospace" font-weight="bold" font-size="9.00">WoRMSOutput</text>
<polyline fill="none" stroke="black" points="154,-392 392,-392 "/>
<text text-anchor="middle" x="273" y="-380.8" font-family="Courier,monospace" font-weight="bold" font-size="9.00">urn:lsid:marinespecies.org:taxname:216786</text>
</g>
<!-- WoRMSLookup&#45;&gt;WoRMSOutput -->
<g id="edge23" class="edge"><title>WoRMSLookup&#45;&gt;WoRMSOutput</title>
<path fill="none" stroke="black" d="M319.385,-451.754C311.56,-441.843 301.59,-429.214 292.9,-418.207"/>
<polygon fill="black" stroke="black" points="295.505,-415.857 286.561,-410.177 290.01,-420.195 295.505,-415.857"/>
</g>
<!-- WoRMSLookup&#45;&gt;LogFile -->
<g id="edge22" class="edge"><title>WoRMSLookup&#45;&gt;LogFile</title>
<path fill="none" stroke="black" d="M358.359,-451.944C374.096,-441.36 394.521,-427.623 411.693,-416.074"/>
<polygon fill="black" stroke="black" points="413.99,-418.747 420.334,-410.262 410.083,-412.939 413.99,-418.747"/>
</g>
<!-- StreamMerge -->
<g id="node8" class="node"><title>StreamMerge</title>
<polygon fill="#ccffcc" stroke="black" points="218.25,-332 109.75,-332 109.75,-296 218.25,-296 218.25,-332"/>
<text text-anchor="middle" x="164" y="-310.3" font-family="Courier,monospace" font-size="14.00">StreamMerge</text>
</g>
<!-- MergedStream -->
<g id="node19" class="node"><title>MergedStream</title>
<path fill="#ffffcc" stroke="black" d="M190,-260C190,-260 138,-260 138,-260 132,-260 126,-254 126,-248 126,-248 126,-236 126,-236 126,-230 132,-224 138,-224 138,-224 190,-224 190,-224 196,-224 202,-230 202,-236 202,-236 202,-248 202,-248 202,-254 196,-260 190,-260"/>
<text text-anchor="middle" x="164" y="-239.8" font-family="Helvetica,sans-Serif" font-size="9.00">MergedStream</text>
</g>
<!-- StreamMerge&#45;&gt;MergedStream -->
<g id="edge26" class="edge"><title>StreamMerge&#45;&gt;MergedStream</title>
<path fill="none" stroke="black" d="M164,-295.697C164,-287.983 164,-278.712 164,-270.112"/>
<polygon fill="black" stroke="black" points="167.5,-270.104 164,-260.104 160.5,-270.104 167.5,-270.104"/>
</g>
<!-- CsvFileWriter -->
<g id="node9" class="node"><title>CsvFileWriter</title>
<polygon fill="#ccffcc" stroke="black" points="227,-188 101,-188 101,-152 227,-152 227,-188"/>
<text text-anchor="middle" x="164" y="-166.3" font-family="Courier,monospace" font-size="14.00">CsvFileWriter</text>
</g>
<!-- OutputFile -->
<g id="node21" class="node"><title>OutputFile</title>
<path fill="#ffe4b5" stroke="black" d="M44,-79C44,-79 398,-79 398,-79 404,-79 410,-85 410,-91 410,-91 410,-103 410,-103 410,-109 404,-115 398,-115 398,-115 44,-115 44,-115 38,-115 32,-109 32,-103 32,-103 32,-91 32,-91 32,-85 38,-79 44,-79"/>
<text text-anchor="middle" x="221" y="-103.8" font-family="Courier,monospace" font-weight="bold" font-size="9.00">OutputFile</text>
<polyline fill="none" stroke="black" points="32,-97 410,-97 "/>
<text text-anchor="middle" x="221" y="-85.8" font-family="Courier,monospace" font-weight="bold" font-size="9.00">workspace_4e5367d1&#45;5718&#45;11e7&#45;a549&#45;acbc3296f741/mergedoutputfile.csv</text>
</g>
<!-- CsvFileWriter&#45;&gt;OutputFile -->
<g id="edge27" class="edge"><title>CsvFileWriter&#45;&gt;OutputFile</title>
<path fill="none" stroke="black" d="M177.798,-151.813C184.73,-143.179 193.259,-132.555 200.902,-123.034"/>
<polygon fill="black" stroke="black" points="203.798,-125.018 207.329,-115.029 198.339,-120.636 203.798,-125.018"/>
</g>
<!-- notMarineDataRecord&#45;&gt;GBIFLookup -->
<g id="edge9" class="edge"><title>notMarineDataRecord&#45;&gt;GBIFLookup</title>
<path fill="none" stroke="black" d="M134,-524.197C134,-516.081 134,-506.858 134,-498.397"/>
<polygon fill="black" stroke="black" points="137.5,-498.228 134,-488.228 130.5,-498.228 137.5,-498.228"/>
</g>
<!-- GBIFOutput&#45;&gt;StreamMerge -->
<g id="edge11" class="edge"><title>GBIFOutput&#45;&gt;StreamMerge</title>
<path fill="none" stroke="black" d="M112.202,-368.197C120.983,-359.18 131.095,-348.795 140.04,-339.607"/>
<polygon fill="black" stroke="black" points="142.757,-341.834 147.226,-332.228 137.742,-336.951 142.757,-341.834"/>
</g>
<!-- DataRecord&#45;&gt;EnvironmentTagger -->
<g id="edge5" class="edge"><title>DataRecord&#45;&gt;EnvironmentTagger</title>
<path fill="none" stroke="black" d="M295.199,-826.813C299.68,-818.441 305.162,-808.197 310.137,-798.903"/>
<polygon fill="black" stroke="black" points="313.253,-800.497 314.886,-790.029 307.081,-797.194 313.253,-800.497"/>
</g>
<!-- TaggedDataRecord&#45;&gt;FilterExcludingMarine -->
<g id="edge7" class="edge"><title>TaggedDataRecord&#45;&gt;FilterExcludingMarine</title>
<path fill="none" stroke="black" d="M283.041,-680.994C259.21,-671.099 228.975,-658.545 203.656,-648.033"/>
<polygon fill="black" stroke="black" points="204.795,-644.716 194.217,-644.114 202.111,-651.181 204.795,-644.716"/>
</g>
<!-- TaggedDataRecord&#45;&gt;FilterToJustMarine -->
<g id="edge6" class="edge"><title>TaggedDataRecord&#45;&gt;FilterToJustMarine</title>
<path fill="none" stroke="black" d="M330.778,-680.813C334.011,-672.615 337.951,-662.623 341.555,-653.485"/>
<polygon fill="black" stroke="black" points="344.872,-654.616 345.284,-644.029 338.36,-652.048 344.872,-654.616"/>
</g>
<!-- MarineDataRecord&#45;&gt;WoRMSLookup -->
<g id="edge8" class="edge"><title>MarineDataRecord&#45;&gt;WoRMSLookup</title>
<path fill="none" stroke="black" d="M333,-529.754C333,-520.523 333,-508.935 333,-498.495"/>
<polygon fill="black" stroke="black" points="336.5,-498.177 333,-488.177 329.5,-498.177 336.5,-498.177"/>
</g>
<!-- WoRMSOutput&#45;&gt;StreamMerge -->
<g id="edge10" class="edge"><title>WoRMSOutput&#45;&gt;StreamMerge</title>
<path fill="none" stroke="black" d="M248.538,-373.944C233.358,-363.36 213.657,-349.623 197.093,-338.074"/>
<polygon fill="black" stroke="black" points="198.962,-335.11 188.757,-332.262 194.958,-340.852 198.962,-335.11"/>
</g>
<!-- DarwinCoreFile -->
<g id="node16" class="node"><title>DarwinCoreFile</title>
<path fill="#ffe4b5" stroke="black" d="M144,-1117C144,-1117 450,-1117 450,-1117 456,-1117 462,-1123 462,-1129 462,-1129 462,-1141 462,-1141 462,-1147 456,-1153 450,-1153 450,-1153 144,-1153 144,-1153 138,-1153 132,-1147 132,-1141 132,-1141 132,-1129 132,-1129 132,-1123 138,-1117 144,-1117"/>
<text text-anchor="middle" x="297" y="-1141.8" font-family="Courier,monospace" font-weight="bold" font-size="9.00">DarwinCoreFile</text>
<polyline fill="none" stroke="black" points="132,-1135 462,-1135 "/>
<text text-anchor="middle" x="297" y="-1123.8" font-family="Courier,monospace" font-weight="bold" font-size="9.00">packages/kurator_branching/data/kurator_sample_data_v2.txt</text>
</g>
<!-- DarwinCoreFile&#45;&gt;Setup -->
<g id="edge2" class="edge"><title>DarwinCoreFile&#45;&gt;Setup</title>
<path fill="none" stroke="black" d="M248.855,-1116.99C214.017,-1104.69 167.533,-1088.27 135.007,-1076.78"/>
<polygon fill="black" stroke="black" points="135.984,-1073.41 125.389,-1073.38 133.653,-1080.01 135.984,-1073.41"/>
</g>
<!-- Workspace&#45;&gt;CsvFileWriter -->
<g id="edge3" class="edge"><title>Workspace&#45;&gt;CsvFileWriter</title>
<path fill="none" stroke="black" d="M58.5007,-899.74C46.2281,-873.183 25,-820.396 25,-773 25,-773 25,-773 25,-313 25,-258.156 78.6045,-216.667 119.236,-193.097"/>
<polygon fill="black" stroke="black" points="121.2,-196.008 128.204,-188.058 117.771,-189.905 121.2,-196.008"/>
</g>
<!-- OccurrenceFile&#45;&gt;FileToDataStream -->
<g id="edge4" class="edge"><title>OccurrenceFile&#45;&gt;FileToDataStream</title>
<path fill="none" stroke="black" d="M197.742,-971.697C209.44,-962.796 223.861,-951.823 236.51,-942.199"/>
<polygon fill="black" stroke="black" points="238.681,-944.945 244.52,-936.104 234.442,-939.374 238.681,-944.945"/>
</g>
<!-- MergedStream&#45;&gt;CsvFileWriter -->
<g id="edge12" class="edge"><title>MergedStream&#45;&gt;CsvFileWriter</title>
<path fill="none" stroke="black" d="M164,-223.697C164,-215.983 164,-206.712 164,-198.112"/>
<polygon fill="black" stroke="black" points="167.5,-198.104 164,-188.104 160.5,-198.104 167.5,-198.104"/>
</g>
<!-- LogFile_outflow -->
<g id="node25" class="node"><title>LogFile_outflow</title>
<ellipse fill="none" stroke="black" cx="347" cy="-31" rx="7" ry="7"/>
</g>
<!-- LogFile&#45;&gt;LogFile_outflow -->
<g id="edge30" class="edge"><title>LogFile&#45;&gt;LogFile_outflow</title>
<path fill="none" stroke="black" d="M445.229,-373.687C444.066,-346.06 442,-290.295 442,-243 442,-243 442,-243 442,-169 442,-120.358 450.107,-99.3947 419,-62 405.209,-45.4212 380.714,-37.8596 364.169,-34.5121"/>
<polygon fill="black" stroke="black" points="364.661,-31.0455 354.214,-32.8088 363.481,-37.9453 364.661,-31.0455"/>
</g>
<!-- OutputFile_outflow -->
<g id="node26" class="node"><title>OutputFile_outflow</title>
<ellipse fill="none" stroke="black" cx="315" cy="-31" rx="7" ry="7"/>
</g>
<!-- OutputFile&#45;&gt;OutputFile_outflow -->
<g id="edge31" class="edge"><title>OutputFile&#45;&gt;OutputFile_outflow</title>
<path fill="none" stroke="black" d="M246.19,-78.8492C263.865,-66.8156 286.826,-51.1822 301.241,-41.3677"/>
<polygon fill="black" stroke="black" points="303.389,-44.1396 309.685,-35.6185 299.45,-38.3533 303.389,-44.1396"/>
</g>
<!-- InputFilePath -->
<g id="node22" class="node"><title>InputFilePath</title>
<path fill="#ffffff" stroke="black" d="M102,-1153C102,-1153 56,-1153 56,-1153 50,-1153 44,-1147 44,-1141 44,-1141 44,-1129 44,-1129 44,-1123 50,-1117 56,-1117 56,-1117 102,-1117 102,-1117 108,-1117 114,-1123 114,-1129 114,-1129 114,-1141 114,-1141 114,-1147 108,-1153 102,-1153"/>
<text text-anchor="middle" x="79" y="-1132.8" font-family="Helvetica,sans-Serif" font-size="9.00">InputFilePath</text>
</g>
<!-- InputFilePath&#45;&gt;Setup -->
<g id="edge1" class="edge"><title>InputFilePath&#45;&gt;Setup</title>
<path fill="none" stroke="black" d="M83.1152,-1116.81C85.0572,-1108.7 87.4197,-1098.84 89.5887,-1089.78"/>
<polygon fill="black" stroke="black" points="92.9978,-1090.57 91.9227,-1080.03 86.1903,-1088.94 92.9978,-1090.57"/>
</g>
<!-- DarwinCoreFile_inflow -->
<g id="node23" class="node"><title>DarwinCoreFile_inflow</title>
<ellipse fill="none" stroke="black" cx="204" cy="-1201" rx="7" ry="7"/>
</g>
<!-- DarwinCoreFile_inflow&#45;&gt;DarwinCoreFile -->
<g id="edge28" class="edge"><title>DarwinCoreFile_inflow&#45;&gt;DarwinCoreFile</title>
<path fill="none" stroke="black" d="M209.267,-1196.38C219.622,-1189.25 243.384,-1172.9 263.569,-1159.01"/>
<polygon fill="black" stroke="black" points="265.698,-1161.79 271.952,-1153.24 261.73,-1156.02 265.698,-1161.79"/>
</g>
<!-- InputFilePath_inflow -->
<g id="node24" class="node"><title>InputFilePath_inflow</title>
<ellipse fill="none" stroke="black" cx="172" cy="-1201" rx="7" ry="7"/>
</g>
<!-- InputFilePath_inflow&#45;&gt;InputFilePath -->
<g id="edge29" class="edge"><title>InputFilePath_inflow&#45;&gt;InputFilePath</title>
<path fill="none" stroke="black" d="M166.138,-1196.69C156.813,-1191.36 138.11,-1180.42 123,-1170 118.112,-1166.63 113.033,-1162.92 108.138,-1159.22"/>
<polygon fill="black" stroke="black" points="110.2,-1156.39 100.137,-1153.08 105.937,-1161.94 110.2,-1156.39"/>
</g>
</g>
</svg>
