<?xml version="1.0" encoding="UTF-8" standalone="no"?>
<!DOCTYPE svg PUBLIC "-//W3C//DTD SVG 1.1//EN"
 "http://www.w3.org/Graphics/SVG/1.1/DTD/svg11.dtd">
<!-- Generated by graphviz version 2.36.0 (20140111.2315)
 -->
<!-- Title: yw_data_view Pages: 1 -->
<svg width="474pt" height="952pt"
 viewBox="0.00 0.00 474.00 952.00" xmlns="http://www.w3.org/2000/svg" xmlns:xlink="http://www.w3.org/1999/xlink">
<g id="graph0" class="graph" transform="scale(1 1) rotate(0) translate(4 948)">
<title>yw_data_view</title>
<polygon fill="white" stroke="none" points="-4,4 -4,-948 470,-948 470,4 -4,4"/>
<text text-anchor="middle" x="233" y="-925.6" font-family="Courier,monospace" font-size="18.00">BranchingWorkflow</text>
<g id="clust3" class="cluster"><title>cluster_inflows</title>
<polygon fill="none" stroke="white" stroke-width="2" points="129,-862 129,-908 207,-908 207,-862 129,-862"/>
</g>
<g id="clust4" class="cluster"><title>cluster_inflows_inner</title>
<polygon fill="none" stroke="white" stroke-width="2" points="137,-870 137,-900 199,-900 199,-870 137,-870"/>
</g>
<g id="clust1" class="cluster"><title>cluster_workflow</title>
<polygon fill="none" stroke="black" stroke-width="2" points="8,-62 8,-854 458,-854 458,-62 8,-62"/>
</g>
<g id="clust2" class="cluster"><title>cluster_workflow_inner</title>
<polygon fill="none" stroke="white" stroke-width="2" points="16,-70 16,-846 450,-846 450,-70 16,-70"/>
</g>
<g id="clust5" class="cluster"><title>cluster_outflows</title>
<polygon fill="none" stroke="white" stroke-width="2" points="280,-8 280,-54 326,-54 326,-8 280,-8"/>
</g>
<g id="clust6" class="cluster"><title>cluster_outflows_inner</title>
<polygon fill="none" stroke="white" stroke-width="2" points="288,-16 288,-46 318,-46 318,-16 288,-16"/>
</g>
<!-- FileToDataStream -->
<g id="node1" class="node"><title>FileToDataStream</title>
<polygon fill="#ccffcc" stroke="black" points="384.25,-620 233.75,-620 233.75,-584 384.25,-584 384.25,-620"/>
<text text-anchor="middle" x="309" y="-598.3" font-family="Courier,monospace" font-size="14.00">FileToDataStream</text>
</g>
<!-- DataRecord -->
<g id="node9" class="node"><title>DataRecord</title>
<path fill="#ffffcc" stroke="black" d="M345.25,-548C345.25,-548 278.75,-548 278.75,-548 272.75,-548 266.75,-542 266.75,-536 266.75,-536 266.75,-524 266.75,-524 266.75,-518 272.75,-512 278.75,-512 278.75,-512 345.25,-512 345.25,-512 351.25,-512 357.25,-518 357.25,-524 357.25,-524 357.25,-536 357.25,-536 357.25,-542 351.25,-548 345.25,-548"/>
<text text-anchor="middle" x="312" y="-526.3" font-family="Helvetica,sans-Serif" font-size="14.00">DataRecord</text>
</g>
<!-- FileToDataStream&#45;&gt;DataRecord -->
<g id="edge10" class="edge"><title>FileToDataStream&#45;&gt;DataRecord</title>
<path fill="none" stroke="black" d="M309.742,-583.697C310.072,-575.983 310.469,-566.712 310.838,-558.112"/>
<polygon fill="black" stroke="black" points="314.335,-558.245 311.267,-548.104 307.342,-557.945 314.335,-558.245"/>
</g>
<!-- Setup -->
<g id="node2" class="node"><title>Setup</title>
<polygon fill="#ccffcc" stroke="black" points="306.25,-764 247.75,-764 247.75,-728 306.25,-728 306.25,-764"/>
<text text-anchor="middle" x="277" y="-742.3" font-family="Courier,monospace" font-size="14.00">Setup</text>
</g>
<!-- OccurrenceFile -->
<g id="node8" class="node"><title>OccurrenceFile</title>
<path fill="#ffffcc" stroke="black" d="M341.25,-692C341.25,-692 254.75,-692 254.75,-692 248.75,-692 242.75,-686 242.75,-680 242.75,-680 242.75,-668 242.75,-668 242.75,-662 248.75,-656 254.75,-656 254.75,-656 341.25,-656 341.25,-656 347.25,-656 353.25,-662 353.25,-668 353.25,-668 353.25,-680 353.25,-680 353.25,-686 347.25,-692 341.25,-692"/>
<text text-anchor="middle" x="298" y="-670.3" font-family="Helvetica,sans-Serif" font-size="14.00">OccurrenceFile</text>
</g>
<!-- Setup&#45;&gt;OccurrenceFile -->
<g id="edge9" class="edge"><title>Setup&#45;&gt;OccurrenceFile</title>
<path fill="none" stroke="black" d="M282.191,-727.697C284.531,-719.898 287.347,-710.509 289.951,-701.829"/>
<polygon fill="black" stroke="black" points="293.348,-702.688 292.869,-692.104 286.643,-700.677 293.348,-702.688"/>
</g>
<!-- GBIFLookup -->
<g id="node3" class="node"><title>GBIFLookup</title>
<polygon fill="#ccffcc" stroke="black" points="184.25,-188 83.75,-188 83.75,-152 184.25,-152 184.25,-188"/>
<text text-anchor="middle" x="134" y="-166.3" font-family="Courier,monospace" font-size="14.00">GBIFLookup</text>
</g>
<!-- LogFile -->
<g id="node14" class="node"><title>LogFile</title>
<path fill="#ffe4b5" stroke="black" d="M279.5,-79C279.5,-79 326.5,-79 326.5,-79 332.5,-79 338.5,-85 338.5,-91 338.5,-91 338.5,-103 338.5,-103 338.5,-109 332.5,-115 326.5,-115 326.5,-115 279.5,-115 279.5,-115 273.5,-115 267.5,-109 267.5,-103 267.5,-103 267.5,-91 267.5,-91 267.5,-85 273.5,-79 279.5,-79"/>
<text text-anchor="middle" x="303" y="-103.8" font-family="Courier,monospace" font-weight="bold" font-size="9.00">LogFile</text>
<polyline fill="none" stroke="black" points="267.5,-97 338.5,-97 "/>
<text text-anchor="middle" x="303" y="-85.8" font-family="Courier,monospace" font-weight="bold" font-size="9.00">runlog.log</text>
</g>
<!-- GBIFLookup&#45;&gt;LogFile -->
<g id="edge18" class="edge"><title>GBIFLookup&#45;&gt;LogFile</title>
<path fill="none" stroke="black" d="M174.48,-151.994C199.701,-141.398 232.182,-127.752 258.179,-116.83"/>
<polygon fill="black" stroke="black" points="259.575,-120.04 267.438,-112.94 256.863,-113.587 259.575,-120.04"/>
</g>
<!-- WoRMSLookup -->
<g id="node4" class="node"><title>WoRMSLookup</title>
<polygon fill="#ccffcc" stroke="black" points="357.25,-188 248.75,-188 248.75,-152 357.25,-152 357.25,-188"/>
<text text-anchor="middle" x="303" y="-166.3" font-family="Courier,monospace" font-size="14.00">WoRMSLookup</text>
</g>
<!-- WoRMSLookup&#45;&gt;LogFile -->
<g id="edge17" class="edge"><title>WoRMSLookup&#45;&gt;LogFile</title>
<path fill="none" stroke="black" d="M303,-151.813C303,-143.789 303,-134.047 303,-125.069"/>
<polygon fill="black" stroke="black" points="306.5,-125.029 303,-115.029 299.5,-125.029 306.5,-125.029"/>
</g>
<!-- FilterExcludingMarine -->
<g id="node5" class="node"><title>FilterExcludingMarine</title>
<polygon fill="#ccffcc" stroke="black" points="217.25,-332 24.75,-332 24.75,-296 217.25,-296 217.25,-332"/>
<text text-anchor="middle" x="121" y="-310.3" font-family="Courier,monospace" font-size="14.00">FilterExcludingMarine</text>
</g>
<!-- notMarineDataRecord -->
<g id="node12" class="node"><title>notMarineDataRecord</title>
<path fill="#ffffcc" stroke="black" d="M185.25,-260C185.25,-260 56.75,-260 56.75,-260 50.75,-260 44.75,-254 44.75,-248 44.75,-248 44.75,-236 44.75,-236 44.75,-230 50.75,-224 56.75,-224 56.75,-224 185.25,-224 185.25,-224 191.25,-224 197.25,-230 197.25,-236 197.25,-236 197.25,-248 197.25,-248 197.25,-254 191.25,-260 185.25,-260"/>
<text text-anchor="middle" x="121" y="-238.3" font-family="Helvetica,sans-Serif" font-size="14.00">notMarineDataRecord</text>
</g>
<!-- FilterExcludingMarine&#45;&gt;notMarineDataRecord -->
<g id="edge16" class="edge"><title>FilterExcludingMarine&#45;&gt;notMarineDataRecord</title>
<path fill="none" stroke="black" d="M121,-295.697C121,-287.983 121,-278.712 121,-270.112"/>
<polygon fill="black" stroke="black" points="124.5,-270.104 121,-260.104 117.5,-270.104 124.5,-270.104"/>
</g>
<!-- FilterExcludingMarine&#45;&gt;LogFile -->
<g id="edge15" class="edge"><title>FilterExcludingMarine&#45;&gt;LogFile</title>
<path fill="none" stroke="black" d="M160.601,-295.987C176.701,-287.307 194.243,-275.31 206,-260 236.57,-220.193 211.358,-193.893 239,-152 246.656,-140.396 257.522,-129.927 268.132,-121.364"/>
<polygon fill="black" stroke="black" points="270.35,-124.073 276.139,-115.199 266.08,-118.527 270.35,-124.073"/>
</g>
<!-- FilterToJustMarine -->
<g id="node6" class="node"><title>FilterToJustMarine</title>
<polygon fill="#ccffcc" stroke="black" points="404,-332 236,-332 236,-296 404,-296 404,-332"/>
<text text-anchor="middle" x="320" y="-310.3" font-family="Courier,monospace" font-size="14.00">FilterToJustMarine</text>
</g>
<!-- MarineDataRecord -->
<g id="node11" class="node"><title>MarineDataRecord</title>
<path fill="#ffffcc" stroke="black" d="M358,-260C358,-260 248,-260 248,-260 242,-260 236,-254 236,-248 236,-248 236,-236 236,-236 236,-230 242,-224 248,-224 248,-224 358,-224 358,-224 364,-224 370,-230 370,-236 370,-236 370,-248 370,-248 370,-254 364,-260 358,-260"/>
<text text-anchor="middle" x="303" y="-238.3" font-family="Helvetica,sans-Serif" font-size="14.00">MarineDataRecord</text>
</g>
<!-- FilterToJustMarine&#45;&gt;MarineDataRecord -->
<g id="edge14" class="edge"><title>FilterToJustMarine&#45;&gt;MarineDataRecord</title>
<path fill="none" stroke="black" d="M315.798,-295.697C313.904,-287.898 311.623,-278.509 309.516,-269.829"/>
<polygon fill="black" stroke="black" points="312.915,-268.996 307.154,-260.104 306.113,-270.648 312.915,-268.996"/>
</g>
<!-- FilterToJustMarine&#45;&gt;LogFile -->
<g id="edge13" class="edge"><title>FilterToJustMarine&#45;&gt;LogFile</title>
<path fill="none" stroke="black" d="M347.8,-295.872C359.771,-286.837 372.495,-274.587 379,-260 385.516,-245.387 380.427,-239.936 379,-224 376.1,-191.612 382.169,-180.213 366,-152 359.274,-140.264 349.007,-129.872 338.7,-121.418"/>
<polygon fill="black" stroke="black" points="340.543,-118.418 330.493,-115.064 336.258,-123.954 340.543,-118.418"/>
</g>
<!-- EnvironmentTagger -->
<g id="node7" class="node"><title>EnvironmentTagger</title>
<polygon fill="#ccffcc" stroke="black" points="396.25,-476 237.75,-476 237.75,-440 396.25,-440 396.25,-476"/>
<text text-anchor="middle" x="317" y="-454.3" font-family="Courier,monospace" font-size="14.00">EnvironmentTagger</text>
</g>
<!-- TaggedDataRecord -->
<g id="node10" class="node"><title>TaggedDataRecord</title>
<path fill="#ffffcc" stroke="black" d="M374.25,-404C374.25,-404 259.75,-404 259.75,-404 253.75,-404 247.75,-398 247.75,-392 247.75,-392 247.75,-380 247.75,-380 247.75,-374 253.75,-368 259.75,-368 259.75,-368 374.25,-368 374.25,-368 380.25,-368 386.25,-374 386.25,-380 386.25,-380 386.25,-392 386.25,-392 386.25,-398 380.25,-404 374.25,-404"/>
<text text-anchor="middle" x="317" y="-382.3" font-family="Helvetica,sans-Serif" font-size="14.00">TaggedDataRecord</text>
</g>
<!-- EnvironmentTagger&#45;&gt;TaggedDataRecord -->
<g id="edge12" class="edge"><title>EnvironmentTagger&#45;&gt;TaggedDataRecord</title>
<path fill="none" stroke="black" d="M317,-439.697C317,-431.983 317,-422.712 317,-414.112"/>
<polygon fill="black" stroke="black" points="320.5,-414.104 317,-404.104 313.5,-414.104 320.5,-414.104"/>
</g>
<!-- EnvironmentTagger&#45;&gt;LogFile -->
<g id="edge11" class="edge"><title>EnvironmentTagger&#45;&gt;LogFile</title>
<path fill="none" stroke="black" d="M352.093,-439.994C367.177,-431.125 383.863,-418.977 395,-404 419.743,-370.724 423,-356.467 423,-315 423,-315 423,-315 423,-241 423,-188.864 375.616,-145.784 340.398,-120.967"/>
<polygon fill="black" stroke="black" points="341.975,-117.805 331.743,-115.056 338.027,-123.586 341.975,-117.805"/>
</g>
<!-- OccurrenceFile&#45;&gt;FileToDataStream -->
<g id="edge6" class="edge"><title>OccurrenceFile&#45;&gt;FileToDataStream</title>
<path fill="none" stroke="black" d="M300.719,-655.697C301.931,-647.983 303.388,-638.712 304.739,-630.112"/>
<polygon fill="black" stroke="black" points="308.217,-630.526 306.312,-620.104 301.302,-629.44 308.217,-630.526"/>
</g>
<!-- DataRecord&#45;&gt;EnvironmentTagger -->
<g id="edge5" class="edge"><title>DataRecord&#45;&gt;EnvironmentTagger</title>
<path fill="none" stroke="black" d="M313.236,-511.697C313.787,-503.983 314.449,-494.712 315.063,-486.112"/>
<polygon fill="black" stroke="black" points="318.557,-486.328 315.778,-476.104 311.575,-485.83 318.557,-486.328"/>
</g>
<!-- TaggedDataRecord&#45;&gt;FilterExcludingMarine -->
<g id="edge3" class="edge"><title>TaggedDataRecord&#45;&gt;FilterExcludingMarine</title>
<path fill="none" stroke="black" d="M269.304,-367.966C241.918,-358.185 207.342,-345.836 178.466,-335.524"/>
<polygon fill="black" stroke="black" points="179.505,-332.178 168.91,-332.111 177.15,-338.77 179.505,-332.178"/>
</g>
<!-- TaggedDataRecord&#45;&gt;FilterToJustMarine -->
<g id="edge4" class="edge"><title>TaggedDataRecord&#45;&gt;FilterToJustMarine</title>
<path fill="none" stroke="black" d="M317.742,-367.697C318.072,-359.983 318.469,-350.712 318.838,-342.112"/>
<polygon fill="black" stroke="black" points="322.335,-342.245 319.267,-332.104 315.342,-341.945 322.335,-342.245"/>
</g>
<!-- MarineDataRecord&#45;&gt;WoRMSLookup -->
<g id="edge2" class="edge"><title>MarineDataRecord&#45;&gt;WoRMSLookup</title>
<path fill="none" stroke="black" d="M303,-223.697C303,-215.983 303,-206.712 303,-198.112"/>
<polygon fill="black" stroke="black" points="306.5,-198.104 303,-188.104 299.5,-198.104 306.5,-198.104"/>
</g>
<!-- notMarineDataRecord&#45;&gt;GBIFLookup -->
<g id="edge1" class="edge"><title>notMarineDataRecord&#45;&gt;GBIFLookup</title>
<path fill="none" stroke="black" d="M124.213,-223.697C125.646,-215.983 127.368,-206.712 128.965,-198.112"/>
<polygon fill="black" stroke="black" points="132.439,-198.575 130.823,-188.104 125.556,-197.297 132.439,-198.575"/>
</g>
<!-- DarwinCoreFile -->
<g id="node13" class="node"><title>DarwinCoreFile</title>
<path fill="#ffe4b5" stroke="black" d="M124,-801C124,-801 430,-801 430,-801 436,-801 442,-807 442,-813 442,-813 442,-825 442,-825 442,-831 436,-837 430,-837 430,-837 124,-837 124,-837 118,-837 112,-831 112,-825 112,-825 112,-813 112,-813 112,-807 118,-801 124,-801"/>
<text text-anchor="middle" x="277" y="-825.8" font-family="Courier,monospace" font-weight="bold" font-size="9.00">DarwinCoreFile</text>
<polyline fill="none" stroke="black" points="112,-819 442,-819 "/>
<text text-anchor="middle" x="277" y="-807.8" font-family="Courier,monospace" font-weight="bold" font-size="9.00">packages/kurator_branching/data/kurator_sample_data_v2.txt</text>
</g>
<!-- DarwinCoreFile&#45;&gt;Setup -->
<g id="edge7" class="edge"><title>DarwinCoreFile&#45;&gt;Setup</title>
<path fill="none" stroke="black" d="M277,-800.813C277,-792.789 277,-783.047 277,-774.069"/>
<polygon fill="black" stroke="black" points="280.5,-774.029 277,-764.029 273.5,-774.029 280.5,-774.029"/>
</g>
<!-- LogFile_outflow -->
<g id="node18" class="node"><title>LogFile_outflow</title>
<ellipse fill="none" stroke="black" cx="303" cy="-31" rx="7" ry="7"/>
</g>
<!-- LogFile&#45;&gt;LogFile_outflow -->
<g id="edge21" class="edge"><title>LogFile&#45;&gt;LogFile_outflow</title>
<path fill="none" stroke="black" d="M303,-78.8492C303,-69.3727 303,-57.6638 303,-48.3223"/>
<polygon fill="black" stroke="black" points="306.5,-48.1021 303,-38.1022 299.5,-48.1022 306.5,-48.1021"/>
</g>
<!-- InputFilePath -->
<g id="node15" class="node"><title>InputFilePath</title>
<path fill="#ffffff" stroke="black" d="M82,-837C82,-837 36,-837 36,-837 30,-837 24,-831 24,-825 24,-825 24,-813 24,-813 24,-807 30,-801 36,-801 36,-801 82,-801 82,-801 88,-801 94,-807 94,-813 94,-813 94,-825 94,-825 94,-831 88,-837 82,-837"/>
<text text-anchor="middle" x="59" y="-816.8" font-family="Helvetica,sans-Serif" font-size="9.00">InputFilePath</text>
</g>
<!-- InputFilePath&#45;&gt;Setup -->
<g id="edge8" class="edge"><title>InputFilePath&#45;&gt;Setup</title>
<path fill="none" stroke="black" d="M94.4326,-803.175C97.3189,-802.069 100.201,-800.996 103,-800 148.625,-783.758 202.03,-767.956 237.52,-757.895"/>
<polygon fill="black" stroke="black" points="238.806,-761.169 247.482,-755.088 236.907,-754.431 238.806,-761.169"/>
</g>
<!-- DarwinCoreFile_inflow -->
<g id="node16" class="node"><title>DarwinCoreFile_inflow</title>
<ellipse fill="none" stroke="black" cx="184" cy="-885" rx="7" ry="7"/>
</g>
<!-- DarwinCoreFile_inflow&#45;&gt;DarwinCoreFile -->
<g id="edge19" class="edge"><title>DarwinCoreFile_inflow&#45;&gt;DarwinCoreFile</title>
<path fill="none" stroke="black" d="M189.267,-880.376C199.622,-873.249 223.384,-856.897 243.569,-843.006"/>
<polygon fill="black" stroke="black" points="245.698,-845.79 251.952,-837.238 241.73,-840.023 245.698,-845.79"/>
</g>
<!-- InputFilePath_inflow -->
<g id="node17" class="node"><title>InputFilePath_inflow</title>
<ellipse fill="none" stroke="black" cx="152" cy="-885" rx="7" ry="7"/>
</g>
<!-- InputFilePath_inflow&#45;&gt;InputFilePath -->
<g id="edge20" class="edge"><title>InputFilePath_inflow&#45;&gt;InputFilePath</title>
<path fill="none" stroke="black" d="M146.138,-880.688C136.813,-875.358 118.11,-864.418 103,-854 98.1121,-850.63 93.0334,-846.917 88.1375,-843.22"/>
<polygon fill="black" stroke="black" points="90.2002,-840.391 80.1369,-837.077 85.9373,-845.943 90.2002,-840.391"/>
</g>
</g>
</svg>
