<?xml version="1.0" encoding="UTF-8" standalone="no"?>
<!DOCTYPE svg PUBLIC "-//W3C//DTD SVG 1.1//EN"
 "http://www.w3.org/Graphics/SVG/1.1/DTD/svg11.dtd">
<!-- Generated by graphviz version 2.36.0 (20140111.2315)
 -->
<!-- Title: yw_data_view Pages: 1 -->
<svg width="518pt" height="1268pt"
 viewBox="0.00 0.00 518.00 1268.00" xmlns="http://www.w3.org/2000/svg" xmlns:xlink="http://www.w3.org/1999/xlink">
<g id="graph0" class="graph" transform="scale(1 1) rotate(0) translate(4 1264)">
<title>yw_data_view</title>
<polygon fill="white" stroke="none" points="-4,4 -4,-1264 514,-1264 514,4 -4,4"/>
<text text-anchor="middle" x="255" y="-1241.6" font-family="Courier,monospace" font-size="18.00">BranchingWorkflow</text>
<g id="clust1" class="cluster"><title>cluster_workflow</title>
<polygon fill="none" stroke="black" stroke-width="2" points="8,-62 8,-1170 502,-1170 502,-62 8,-62"/>
</g>
<g id="clust2" class="cluster"><title>cluster_workflow_inner</title>
<polygon fill="none" stroke="white" stroke-width="2" points="16,-70 16,-1162 494,-1162 494,-70 16,-70"/>
</g>
<g id="clust3" class="cluster"><title>cluster_inflows</title>
<polygon fill="none" stroke="white" stroke-width="2" points="151,-1178 151,-1224 229,-1224 229,-1178 151,-1178"/>
</g>
<g id="clust4" class="cluster"><title>cluster_inflows_inner</title>
<polygon fill="none" stroke="white" stroke-width="2" points="159,-1186 159,-1216 221,-1216 221,-1186 159,-1186"/>
</g>
<g id="clust5" class="cluster"><title>cluster_outflows</title>
<polygon fill="none" stroke="white" stroke-width="2" points="295,-8 295,-54 373,-54 373,-8 295,-8"/>
</g>
<g id="clust6" class="cluster"><title>cluster_outflows_inner</title>
<polygon fill="none" stroke="white" stroke-width="2" points="303,-16 303,-46 365,-46 365,-16 303,-16"/>
</g>
<!-- FilterToJustMarine -->
<g id="node1" class="node"><title>FilterToJustMarine</title>
<polygon fill="#d6d6d7" stroke="black" points="226,-644 58,-644 58,-608 226,-608 226,-644"/>
<text text-anchor="middle" x="142" y="-622.3" font-family="Courier,monospace" font-size="14.00">FilterToJustMarine</text>
</g>
<!-- MarineDataRecord -->
<g id="node10" class="node"><title>MarineDataRecord</title>
<path fill="#d6d6d7" stroke="black" d="M71,-524.5C71,-524.5 181,-524.5 181,-524.5 187,-524.5 193,-530.5 193,-536.5 193,-536.5 193,-559.5 193,-559.5 193,-565.5 187,-571.5 181,-571.5 181,-571.5 71,-571.5 71,-571.5 65,-571.5 59,-565.5 59,-559.5 59,-559.5 59,-536.5 59,-536.5 59,-530.5 65,-524.5 71,-524.5"/>
<text text-anchor="middle" x="126" y="-556.3" font-family="Helvetica,sans-Serif" font-size="14.00">MarineDataRecord</text>
<polyline fill="none" stroke="black" points="59,-548.5 193,-548.5 "/>
</g>
<!-- FilterToJustMarine&#45;&gt;MarineDataRecord -->
<g id="edge19" class="edge"><title>FilterToJustMarine&#45;&gt;MarineDataRecord</title>
<path fill="none" stroke="black" d="M138.369,-607.754C136.735,-599.99 134.749,-590.559 132.852,-581.545"/>
<polygon fill="black" stroke="black" points="136.255,-580.722 130.77,-571.658 129.405,-582.164 136.255,-580.722"/>
</g>
<!-- LogFile -->
<g id="node20" class="node"><title>LogFile</title>
<path fill="#ffe4b5" stroke="black" d="M426.5,-374C426.5,-374 473.5,-374 473.5,-374 479.5,-374 485.5,-380 485.5,-386 485.5,-386 485.5,-398 485.5,-398 485.5,-404 479.5,-410 473.5,-410 473.5,-410 426.5,-410 426.5,-410 420.5,-410 414.5,-404 414.5,-398 414.5,-398 414.5,-386 414.5,-386 414.5,-380 420.5,-374 426.5,-374"/>
<text text-anchor="middle" x="450" y="-398.8" font-family="Courier,monospace" font-weight="bold" font-size="9.00">LogFile</text>
<polyline fill="none" stroke="black" points="414.5,-392 485.5,-392 "/>
<text text-anchor="middle" x="450" y="-380.8" font-family="Courier,monospace" font-weight="bold" font-size="9.00">runlog.log</text>
</g>
<!-- FilterToJustMarine&#45;&gt;LogFile -->
<g id="edge18" class="edge"><title>FilterToJustMarine&#45;&gt;LogFile</title>
<path fill="none" stroke="black" d="M165.998,-607.973C178.044,-598.474 192.134,-585.79 202,-572 215.448,-553.204 211.499,-544.588 222,-524 239.04,-490.593 235.871,-474.331 266,-452 317.269,-414 345.342,-438.657 405,-416 406.384,-415.474 407.781,-414.918 409.184,-414.337"/>
<polygon fill="black" stroke="black" points="410.723,-417.484 418.435,-410.22 407.876,-411.088 410.723,-417.484"/>
</g>
<!-- WoRMSLookup -->
<g id="node2" class="node"><title>WoRMSLookup</title>
<polygon fill="#d6d6d7" stroke="black" points="180.25,-488 71.75,-488 71.75,-452 180.25,-452 180.25,-488"/>
<text text-anchor="middle" x="126" y="-466.3" font-family="Courier,monospace" font-size="14.00">WoRMSLookup</text>
</g>
<!-- WoRMSOutput -->
<g id="node11" class="node"><title>WoRMSOutput</title>
<path fill="#d6d6d7" stroke="black" d="M56.5,-368.5C56.5,-368.5 143.5,-368.5 143.5,-368.5 149.5,-368.5 155.5,-374.5 155.5,-380.5 155.5,-380.5 155.5,-403.5 155.5,-403.5 155.5,-409.5 149.5,-415.5 143.5,-415.5 143.5,-415.5 56.5,-415.5 56.5,-415.5 50.5,-415.5 44.5,-409.5 44.5,-403.5 44.5,-403.5 44.5,-380.5 44.5,-380.5 44.5,-374.5 50.5,-368.5 56.5,-368.5"/>
<text text-anchor="middle" x="100" y="-400.3" font-family="Helvetica,sans-Serif" font-size="14.00">WoRMSOutput</text>
<polyline fill="none" stroke="black" points="44.5,-392.5 155.5,-392.5 "/>
</g>
<!-- WoRMSLookup&#45;&gt;WoRMSOutput -->
<g id="edge23" class="edge"><title>WoRMSLookup&#45;&gt;WoRMSOutput</title>
<path fill="none" stroke="black" d="M120.1,-451.754C117.416,-443.907 114.148,-434.356 111.035,-425.255"/>
<polygon fill="black" stroke="black" points="114.3,-423.986 107.751,-415.658 107.677,-426.252 114.3,-423.986"/>
</g>
<!-- WoRMSLookup&#45;&gt;LogFile -->
<g id="edge22" class="edge"><title>WoRMSLookup&#45;&gt;LogFile</title>
<path fill="none" stroke="black" d="M180.422,-457.367C189.297,-455.531 198.398,-453.684 207,-452 294.776,-434.813 320.273,-444.659 405,-416 406.657,-415.439 408.329,-414.827 410.003,-414.173"/>
<polygon fill="black" stroke="black" points="411.735,-417.238 419.534,-410.067 408.965,-410.81 411.735,-417.238"/>
</g>
<!-- Setup -->
<g id="node3" class="node"><title>Setup</title>
<polygon fill="#ccffcc" stroke="black" points="126.25,-1080 67.75,-1080 67.75,-1044 126.25,-1044 126.25,-1080"/>
<text text-anchor="middle" x="97" y="-1058.3" font-family="Courier,monospace" font-size="14.00">Setup</text>
</g>
<!-- Workspace -->
<g id="node17" class="node"><title>Workspace</title>
<path fill="#ffffcc" stroke="black" d="M86,-936C86,-936 48,-936 48,-936 42,-936 36,-930 36,-924 36,-924 36,-912 36,-912 36,-906 42,-900 48,-900 48,-900 86,-900 86,-900 92,-900 98,-906 98,-912 98,-912 98,-924 98,-924 98,-930 92,-936 86,-936"/>
<text text-anchor="middle" x="67" y="-915.8" font-family="Helvetica,sans-Serif" font-size="9.00">Workspace</text>
</g>
<!-- Setup&#45;&gt;Workspace -->
<g id="edge13" class="edge"><title>Setup&#45;&gt;Workspace</title>
<path fill="none" stroke="black" d="M93.3813,-1043.87C88.2458,-1019.56 78.7927,-974.819 72.707,-946.013"/>
<polygon fill="black" stroke="black" points="76.1231,-945.25 70.6315,-936.189 69.2743,-946.697 76.1231,-945.25"/>
</g>
<!-- OccurrenceFile -->
<g id="node18" class="node"><title>OccurrenceFile</title>
<path fill="#ffffcc" stroke="black" d="M202,-1008C202,-1008 148,-1008 148,-1008 142,-1008 136,-1002 136,-996 136,-996 136,-984 136,-984 136,-978 142,-972 148,-972 148,-972 202,-972 202,-972 208,-972 214,-978 214,-984 214,-984 214,-996 214,-996 214,-1002 208,-1008 202,-1008"/>
<text text-anchor="middle" x="175" y="-987.8" font-family="Helvetica,sans-Serif" font-size="9.00">OccurrenceFile</text>
</g>
<!-- Setup&#45;&gt;OccurrenceFile -->
<g id="edge14" class="edge"><title>Setup&#45;&gt;OccurrenceFile</title>
<path fill="none" stroke="black" d="M116.281,-1043.7C125.915,-1035.05 137.729,-1024.45 148.227,-1015.03"/>
<polygon fill="black" stroke="black" points="150.836,-1017.39 155.941,-1008.1 146.161,-1012.18 150.836,-1017.39"/>
</g>
<!-- FileToDataStream -->
<g id="node4" class="node"><title>FileToDataStream</title>
<polygon fill="#ccffcc" stroke="black" points="338.25,-936 187.75,-936 187.75,-900 338.25,-900 338.25,-936"/>
<text text-anchor="middle" x="263" y="-914.3" font-family="Courier,monospace" font-size="14.00">FileToDataStream</text>
</g>
<!-- DataRecord -->
<g id="node12" class="node"><title>DataRecord</title>
<path fill="#f8d2db" stroke="black" d="M244,-827C244,-827 318,-827 318,-827 324,-827 330,-833 330,-839 330,-839 330,-851 330,-851 330,-857 324,-863 318,-863 318,-863 244,-863 244,-863 238,-863 232,-857 232,-851 232,-851 232,-839 232,-839 232,-833 238,-827 244,-827"/>
<text text-anchor="middle" x="281" y="-851.8" font-family="Courier,monospace" font-weight="bold" font-size="9.00">DataRecord</text>
<polyline fill="none" stroke="black" points="232,-845 330,-845 "/>
<text text-anchor="middle" x="281" y="-833.8" font-family="Courier,monospace" font-weight="bold" font-size="9.00">MCZ:Mala:278687</text>
</g>
<!-- FileToDataStream&#45;&gt;DataRecord -->
<g id="edge15" class="edge"><title>FileToDataStream&#45;&gt;DataRecord</title>
<path fill="none" stroke="black" d="M267.357,-899.813C269.414,-891.702 271.915,-881.836 274.212,-872.777"/>
<polygon fill="black" stroke="black" points="277.618,-873.582 276.683,-863.029 270.833,-871.862 277.618,-873.582"/>
</g>
<!-- EnvironmentTagger -->
<g id="node5" class="node"><title>EnvironmentTagger</title>
<polygon fill="#ccffcc" stroke="black" points="395.25,-790 236.75,-790 236.75,-754 395.25,-754 395.25,-790"/>
<text text-anchor="middle" x="316" y="-768.3" font-family="Courier,monospace" font-size="14.00">EnvironmentTagger</text>
</g>
<!-- TaggedDataRecord -->
<g id="node13" class="node"><title>TaggedDataRecord</title>
<path fill="#f8d2db" stroke="black" d="M276.5,-681C276.5,-681 355.5,-681 355.5,-681 361.5,-681 367.5,-687 367.5,-693 367.5,-693 367.5,-705 367.5,-705 367.5,-711 361.5,-717 355.5,-717 355.5,-717 276.5,-717 276.5,-717 270.5,-717 264.5,-711 264.5,-705 264.5,-705 264.5,-693 264.5,-693 264.5,-687 270.5,-681 276.5,-681"/>
<text text-anchor="middle" x="316" y="-705.8" font-family="Courier,monospace" font-weight="bold" font-size="9.00">TaggedDataRecord</text>
<polyline fill="none" stroke="black" points="264.5,-699 367.5,-699 "/>
<text text-anchor="middle" x="316" y="-687.8" font-family="Courier,monospace" font-weight="bold" font-size="9.00">NonMarine</text>
</g>
<!-- EnvironmentTagger&#45;&gt;TaggedDataRecord -->
<g id="edge17" class="edge"><title>EnvironmentTagger&#45;&gt;TaggedDataRecord</title>
<path fill="none" stroke="black" d="M316,-753.813C316,-745.789 316,-736.047 316,-727.069"/>
<polygon fill="black" stroke="black" points="319.5,-727.029 316,-717.029 312.5,-727.029 319.5,-727.029"/>
</g>
<!-- EnvironmentTagger&#45;&gt;LogFile -->
<g id="edge16" class="edge"><title>EnvironmentTagger&#45;&gt;LogFile</title>
<path fill="none" stroke="black" d="M353.084,-753.912C395.75,-731.398 460,-687.458 460,-627 460,-627 460,-627 460,-547 460,-502.617 455.813,-451.189 452.857,-420.419"/>
<polygon fill="black" stroke="black" points="456.301,-419.675 451.834,-410.068 449.335,-420.364 456.301,-419.675"/>
</g>
<!-- FilterExcludingMarine -->
<g id="node6" class="node"><title>FilterExcludingMarine</title>
<polygon fill="#ccffcc" stroke="black" points="437.25,-644 244.75,-644 244.75,-608 437.25,-608 437.25,-644"/>
<text text-anchor="middle" x="341" y="-622.3" font-family="Courier,monospace" font-size="14.00">FilterExcludingMarine</text>
</g>
<!-- notMarineDataRecord -->
<g id="node14" class="node"><title>notMarineDataRecord</title>
<path fill="#f8d2db" stroke="black" d="M243.5,-530C243.5,-530 408.5,-530 408.5,-530 414.5,-530 420.5,-536 420.5,-542 420.5,-542 420.5,-554 420.5,-554 420.5,-560 414.5,-566 408.5,-566 408.5,-566 243.5,-566 243.5,-566 237.5,-566 231.5,-560 231.5,-554 231.5,-554 231.5,-542 231.5,-542 231.5,-536 237.5,-530 243.5,-530"/>
<text text-anchor="middle" x="326" y="-554.8" font-family="Courier,monospace" font-weight="bold" font-size="9.00">notMarineDataRecord</text>
<polyline fill="none" stroke="black" points="231.5,-548 420.5,-548 "/>
<text text-anchor="middle" x="326" y="-536.8" font-family="Courier,monospace" font-weight="bold" font-size="9.00">Cypraea arabica:(Linnaeus, 1758)</text>
</g>
<!-- FilterExcludingMarine&#45;&gt;notMarineDataRecord -->
<g id="edge21" class="edge"><title>FilterExcludingMarine&#45;&gt;notMarineDataRecord</title>
<path fill="none" stroke="black" d="M337.596,-607.754C335.755,-598.426 333.439,-586.691 331.362,-576.165"/>
<polygon fill="black" stroke="black" points="334.76,-575.31 329.39,-566.177 327.893,-576.666 334.76,-575.31"/>
</g>
<!-- FilterExcludingMarine&#45;&gt;LogFile -->
<g id="edge20" class="edge"><title>FilterExcludingMarine&#45;&gt;LogFile</title>
<path fill="none" stroke="black" d="M386.139,-607.861C402.224,-599.482 418.851,-587.738 429,-572 444.75,-547.576 448.7,-464.35 449.682,-420.517"/>
<polygon fill="black" stroke="black" points="453.185,-420.345 449.873,-410.282 446.187,-420.215 453.185,-420.345"/>
</g>
<!-- GBIFLookup -->
<g id="node7" class="node"><title>GBIFLookup</title>
<polygon fill="#ccffcc" stroke="black" points="376.25,-488 275.75,-488 275.75,-452 376.25,-452 376.25,-488"/>
<text text-anchor="middle" x="326" y="-466.3" font-family="Courier,monospace" font-size="14.00">GBIFLookup</text>
</g>
<!-- GBIFOutput -->
<g id="node15" class="node"><title>GBIFOutput</title>
<path fill="#f8d2db" stroke="black" d="M186,-374C186,-374 384,-374 384,-374 390,-374 396,-380 396,-386 396,-386 396,-398 396,-398 396,-404 390,-410 384,-410 384,-410 186,-410 186,-410 180,-410 174,-404 174,-398 174,-398 174,-386 174,-386 174,-380 180,-374 186,-374"/>
<text text-anchor="middle" x="285" y="-398.8" font-family="Courier,monospace" font-weight="bold" font-size="9.00">GBIFOutput</text>
<polyline fill="none" stroke="black" points="174,-392 396,-392 "/>
<text text-anchor="middle" x="285" y="-380.8" font-family="Courier,monospace" font-weight="bold" font-size="9.00">http://api.gbif.org/v1/species/4360809</text>
</g>
<!-- GBIFLookup&#45;&gt;GBIFOutput -->
<g id="edge25" class="edge"><title>GBIFLookup&#45;&gt;GBIFOutput</title>
<path fill="none" stroke="black" d="M316.696,-451.754C311.507,-442.135 304.936,-429.955 299.125,-419.182"/>
<polygon fill="black" stroke="black" points="302.095,-417.317 294.267,-410.177 295.934,-420.64 302.095,-417.317"/>
</g>
<!-- GBIFLookup&#45;&gt;LogFile -->
<g id="edge24" class="edge"><title>GBIFLookup&#45;&gt;LogFile</title>
<path fill="none" stroke="black" d="M353.828,-451.944C371.335,-441.214 394.127,-427.245 413.129,-415.598"/>
<polygon fill="black" stroke="black" points="415.139,-418.472 421.836,-410.262 411.481,-412.503 415.139,-418.472"/>
</g>
<!-- StreamMerge -->
<g id="node8" class="node"><title>StreamMerge</title>
<polygon fill="#ccffcc" stroke="black" points="221.25,-332 112.75,-332 112.75,-296 221.25,-296 221.25,-332"/>
<text text-anchor="middle" x="167" y="-310.3" font-family="Courier,monospace" font-size="14.00">StreamMerge</text>
</g>
<!-- MergedStream -->
<g id="node19" class="node"><title>MergedStream</title>
<path fill="#ffffcc" stroke="black" d="M193,-260C193,-260 141,-260 141,-260 135,-260 129,-254 129,-248 129,-248 129,-236 129,-236 129,-230 135,-224 141,-224 141,-224 193,-224 193,-224 199,-224 205,-230 205,-236 205,-236 205,-248 205,-248 205,-254 199,-260 193,-260"/>
<text text-anchor="middle" x="167" y="-239.8" font-family="Helvetica,sans-Serif" font-size="9.00">MergedStream</text>
</g>
<!-- StreamMerge&#45;&gt;MergedStream -->
<g id="edge26" class="edge"><title>StreamMerge&#45;&gt;MergedStream</title>
<path fill="none" stroke="black" d="M167,-295.697C167,-287.983 167,-278.712 167,-270.112"/>
<polygon fill="black" stroke="black" points="170.5,-270.104 167,-260.104 163.5,-270.104 170.5,-270.104"/>
</g>
<!-- CsvFileWriter -->
<g id="node9" class="node"><title>CsvFileWriter</title>
<polygon fill="#ccffcc" stroke="black" points="230,-188 104,-188 104,-152 230,-152 230,-188"/>
<text text-anchor="middle" x="167" y="-166.3" font-family="Courier,monospace" font-size="14.00">CsvFileWriter</text>
</g>
<!-- OutputFile -->
<g id="node21" class="node"><title>OutputFile</title>
<path fill="#ffe4b5" stroke="black" d="M46,-79C46,-79 400,-79 400,-79 406,-79 412,-85 412,-91 412,-91 412,-103 412,-103 412,-109 406,-115 400,-115 400,-115 46,-115 46,-115 40,-115 34,-109 34,-103 34,-103 34,-91 34,-91 34,-85 40,-79 46,-79"/>
<text text-anchor="middle" x="223" y="-103.8" font-family="Courier,monospace" font-weight="bold" font-size="9.00">OutputFile</text>
<polyline fill="none" stroke="black" points="34,-97 412,-97 "/>
<text text-anchor="middle" x="223" y="-85.8" font-family="Courier,monospace" font-weight="bold" font-size="9.00">workspace_4e5367d1&#45;5718&#45;11e7&#45;a549&#45;acbc3296f741/mergedoutputfile.csv</text>
</g>
<!-- CsvFileWriter&#45;&gt;OutputFile -->
<g id="edge27" class="edge"><title>CsvFileWriter&#45;&gt;OutputFile</title>
<path fill="none" stroke="black" d="M180.556,-151.813C187.366,-143.179 195.745,-132.555 203.255,-123.034"/>
<polygon fill="black" stroke="black" points="206.124,-125.048 209.569,-115.029 200.628,-120.713 206.124,-125.048"/>
</g>
<!-- MarineDataRecord&#45;&gt;WoRMSLookup -->
<g id="edge8" class="edge"><title>MarineDataRecord&#45;&gt;WoRMSLookup</title>
<path fill="none" stroke="black" d="M126,-524.197C126,-516.081 126,-506.858 126,-498.397"/>
<polygon fill="black" stroke="black" points="129.5,-498.228 126,-488.228 122.5,-498.228 129.5,-498.228"/>
</g>
<!-- WoRMSOutput&#45;&gt;StreamMerge -->
<g id="edge10" class="edge"><title>WoRMSOutput&#45;&gt;StreamMerge</title>
<path fill="none" stroke="black" d="M120.102,-368.197C127.973,-359.27 137.024,-349.002 145.064,-339.883"/>
<polygon fill="black" stroke="black" points="147.825,-342.044 151.812,-332.228 142.574,-337.415 147.825,-342.044"/>
</g>
<!-- DataRecord&#45;&gt;EnvironmentTagger -->
<g id="edge5" class="edge"><title>DataRecord&#45;&gt;EnvironmentTagger</title>
<path fill="none" stroke="black" d="M289.473,-826.813C293.557,-818.528 298.544,-808.41 303.088,-799.193"/>
<polygon fill="black" stroke="black" points="306.323,-800.546 307.605,-790.029 300.045,-797.451 306.323,-800.546"/>
</g>
<!-- TaggedDataRecord&#45;&gt;FilterToJustMarine -->
<g id="edge6" class="edge"><title>TaggedDataRecord&#45;&gt;FilterToJustMarine</title>
<path fill="none" stroke="black" d="M274.323,-680.994C249.967,-671.055 219.036,-658.434 193.205,-647.894"/>
<polygon fill="black" stroke="black" points="194.522,-644.651 183.94,-644.114 191.877,-651.132 194.522,-644.651"/>
</g>
<!-- TaggedDataRecord&#45;&gt;FilterExcludingMarine -->
<g id="edge7" class="edge"><title>TaggedDataRecord&#45;&gt;FilterExcludingMarine</title>
<path fill="none" stroke="black" d="M322.052,-680.813C324.938,-672.615 328.457,-662.623 331.674,-653.485"/>
<polygon fill="black" stroke="black" points="334.984,-654.624 335.004,-644.029 328.381,-652.299 334.984,-654.624"/>
</g>
<!-- notMarineDataRecord&#45;&gt;GBIFLookup -->
<g id="edge9" class="edge"><title>notMarineDataRecord&#45;&gt;GBIFLookup</title>
<path fill="none" stroke="black" d="M326,-529.754C326,-520.523 326,-508.935 326,-498.495"/>
<polygon fill="black" stroke="black" points="329.5,-498.177 326,-488.177 322.5,-498.177 329.5,-498.177"/>
</g>
<!-- GBIFOutput&#45;&gt;StreamMerge -->
<g id="edge11" class="edge"><title>GBIFOutput&#45;&gt;StreamMerge</title>
<path fill="none" stroke="black" d="M258.518,-373.944C241.934,-363.263 220.366,-349.371 202.333,-337.757"/>
<polygon fill="black" stroke="black" points="204.104,-334.734 193.801,-332.262 200.313,-340.619 204.104,-334.734"/>
</g>
<!-- DarwinCoreFile -->
<g id="node16" class="node"><title>DarwinCoreFile</title>
<path fill="#ffe4b5" stroke="black" d="M146,-1117C146,-1117 452,-1117 452,-1117 458,-1117 464,-1123 464,-1129 464,-1129 464,-1141 464,-1141 464,-1147 458,-1153 452,-1153 452,-1153 146,-1153 146,-1153 140,-1153 134,-1147 134,-1141 134,-1141 134,-1129 134,-1129 134,-1123 140,-1117 146,-1117"/>
<text text-anchor="middle" x="299" y="-1141.8" font-family="Courier,monospace" font-weight="bold" font-size="9.00">DarwinCoreFile</text>
<polyline fill="none" stroke="black" points="134,-1135 464,-1135 "/>
<text text-anchor="middle" x="299" y="-1123.8" font-family="Courier,monospace" font-weight="bold" font-size="9.00">packages/kurator_branching/data/kurator_sample_data_v2.txt</text>
</g>
<!-- DarwinCoreFile&#45;&gt;Setup -->
<g id="edge2" class="edge"><title>DarwinCoreFile&#45;&gt;Setup</title>
<path fill="none" stroke="black" d="M250.616,-1116.99C215.604,-1104.69 168.889,-1088.27 136.201,-1076.78"/>
<polygon fill="black" stroke="black" points="137.13,-1073.4 126.536,-1073.38 134.809,-1080 137.13,-1073.4"/>
</g>
<!-- Workspace&#45;&gt;CsvFileWriter -->
<g id="edge3" class="edge"><title>Workspace&#45;&gt;CsvFileWriter</title>
<path fill="none" stroke="black" d="M58.5007,-899.74C46.2281,-873.183 25,-820.396 25,-773 25,-773 25,-773 25,-313 25,-257.62 79.6706,-216.294 121.167,-192.904"/>
<polygon fill="black" stroke="black" points="122.963,-195.911 130.062,-188.046 119.608,-189.767 122.963,-195.911"/>
</g>
<!-- OccurrenceFile&#45;&gt;FileToDataStream -->
<g id="edge4" class="edge"><title>OccurrenceFile&#45;&gt;FileToDataStream</title>
<path fill="none" stroke="black" d="M196.753,-971.697C207.836,-962.881 221.474,-952.032 233.49,-942.474"/>
<polygon fill="black" stroke="black" points="235.85,-945.069 241.497,-936.104 231.493,-939.59 235.85,-945.069"/>
</g>
<!-- MergedStream&#45;&gt;CsvFileWriter -->
<g id="edge12" class="edge"><title>MergedStream&#45;&gt;CsvFileWriter</title>
<path fill="none" stroke="black" d="M167,-223.697C167,-215.983 167,-206.712 167,-198.112"/>
<polygon fill="black" stroke="black" points="170.5,-198.104 167,-188.104 163.5,-198.104 170.5,-198.104"/>
</g>
<!-- LogFile_outflow -->
<g id="node25" class="node"><title>LogFile_outflow</title>
<ellipse fill="none" stroke="black" cx="350" cy="-31" rx="7" ry="7"/>
</g>
<!-- LogFile&#45;&gt;LogFile_outflow -->
<g id="edge30" class="edge"><title>LogFile&#45;&gt;LogFile_outflow</title>
<path fill="none" stroke="black" d="M449.036,-373.69C447.583,-346.066 445,-290.305 445,-243 445,-243 445,-243 445,-169 445,-120.263 452.242,-99.4068 421,-62 407.471,-45.8013 383.663,-38.1753 367.377,-34.7074"/>
<polygon fill="black" stroke="black" points="367.564,-31.1848 357.102,-32.854 366.321,-38.0736 367.564,-31.1848"/>
</g>
<!-- OutputFile_outflow -->
<g id="node26" class="node"><title>OutputFile_outflow</title>
<ellipse fill="none" stroke="black" cx="318" cy="-31" rx="7" ry="7"/>
</g>
<!-- OutputFile&#45;&gt;OutputFile_outflow -->
<g id="edge31" class="edge"><title>OutputFile&#45;&gt;OutputFile_outflow</title>
<path fill="none" stroke="black" d="M248.458,-78.8492C266.321,-66.8156 289.526,-51.1822 304.095,-41.3677"/>
<polygon fill="black" stroke="black" points="306.291,-44.1085 312.629,-35.6185 302.38,-38.303 306.291,-44.1085"/>
</g>
<!-- InputFilePath -->
<g id="node22" class="node"><title>InputFilePath</title>
<path fill="#ffffff" stroke="black" d="M104,-1153C104,-1153 58,-1153 58,-1153 52,-1153 46,-1147 46,-1141 46,-1141 46,-1129 46,-1129 46,-1123 52,-1117 58,-1117 58,-1117 104,-1117 104,-1117 110,-1117 116,-1123 116,-1129 116,-1129 116,-1141 116,-1141 116,-1147 110,-1153 104,-1153"/>
<text text-anchor="middle" x="81" y="-1132.8" font-family="Helvetica,sans-Serif" font-size="9.00">InputFilePath</text>
</g>
<!-- InputFilePath&#45;&gt;Setup -->
<g id="edge1" class="edge"><title>InputFilePath&#45;&gt;Setup</title>
<path fill="none" stroke="black" d="M84.8732,-1116.81C86.6812,-1108.79 88.8766,-1099.05 90.8999,-1090.07"/>
<polygon fill="black" stroke="black" points="94.3784,-1090.55 93.1625,-1080.03 87.5497,-1089.01 94.3784,-1090.55"/>
</g>
<!-- DarwinCoreFile_inflow -->
<g id="node23" class="node"><title>DarwinCoreFile_inflow</title>
<ellipse fill="none" stroke="black" cx="206" cy="-1201" rx="7" ry="7"/>
</g>
<!-- DarwinCoreFile_inflow&#45;&gt;DarwinCoreFile -->
<g id="edge28" class="edge"><title>DarwinCoreFile_inflow&#45;&gt;DarwinCoreFile</title>
<path fill="none" stroke="black" d="M211.267,-1196.38C221.622,-1189.25 245.384,-1172.9 265.569,-1159.01"/>
<polygon fill="black" stroke="black" points="267.698,-1161.79 273.952,-1153.24 263.73,-1156.02 267.698,-1161.79"/>
</g>
<!-- InputFilePath_inflow -->
<g id="node24" class="node"><title>InputFilePath_inflow</title>
<ellipse fill="none" stroke="black" cx="174" cy="-1201" rx="7" ry="7"/>
</g>
<!-- InputFilePath_inflow&#45;&gt;InputFilePath -->
<g id="edge29" class="edge"><title>InputFilePath_inflow&#45;&gt;InputFilePath</title>
<path fill="none" stroke="black" d="M168.138,-1196.69C158.813,-1191.36 140.11,-1180.42 125,-1170 120.112,-1166.63 115.033,-1162.92 110.138,-1159.22"/>
<polygon fill="black" stroke="black" points="112.2,-1156.39 102.137,-1153.08 107.937,-1161.94 112.2,-1156.39"/>
</g>
</g>
</svg>
