<?xml version="1.0" encoding="UTF-8" standalone="no"?>
<!DOCTYPE svg PUBLIC "-//W3C//DTD SVG 1.1//EN"
 "http://www.w3.org/Graphics/SVG/1.1/DTD/svg11.dtd">
<!-- Generated by graphviz version 2.36.0 (20140111.2315)
 -->
<!-- Title: yw_data_view Pages: 1 -->
<svg width="476pt" height="1302pt"
 viewBox="0.00 0.00 476.00 1302.00" xmlns="http://www.w3.org/2000/svg" xmlns:xlink="http://www.w3.org/1999/xlink">
<g id="graph0" class="graph" transform="scale(1 1) rotate(0) translate(4 1298)">
<title>yw_data_view</title>
<polygon fill="white" stroke="none" points="-4,4 -4,-1298 472,-1298 472,4 -4,4"/>
<text text-anchor="middle" x="234" y="-1275.6" font-family="Courier,monospace" font-size="18.00">BranchingWorkflow</text>
<g id="clust1" class="cluster"><title>cluster_workflow</title>
<polygon fill="none" stroke="black" stroke-width="2" points="8,-62 8,-1204 460,-1204 460,-62 8,-62"/>
</g>
<g id="clust2" class="cluster"><title>cluster_workflow_inner</title>
<polygon fill="none" stroke="white" stroke-width="2" points="16,-70 16,-1196 452,-1196 452,-70 16,-70"/>
</g>
<g id="clust3" class="cluster"><title>cluster_inflows</title>
<polygon fill="none" stroke="white" stroke-width="2" points="130,-1212 130,-1258 208,-1258 208,-1212 130,-1212"/>
</g>
<g id="clust4" class="cluster"><title>cluster_inflows_inner</title>
<polygon fill="none" stroke="white" stroke-width="2" points="138,-1220 138,-1250 200,-1250 200,-1220 138,-1220"/>
</g>
<g id="clust5" class="cluster"><title>cluster_outflows</title>
<polygon fill="none" stroke="white" stroke-width="2" points="282,-8 282,-54 360,-54 360,-8 282,-8"/>
</g>
<g id="clust6" class="cluster"><title>cluster_outflows_inner</title>
<polygon fill="none" stroke="white" stroke-width="2" points="290,-16 290,-46 352,-46 352,-16 290,-16"/>
</g>
<!-- Setup -->
<g id="node1" class="node"><title>Setup</title>
<polygon fill="#ccffcc" stroke="black" points="115.25,-1114 56.75,-1114 56.75,-1078 115.25,-1078 115.25,-1114"/>
<text text-anchor="middle" x="86" y="-1092.3" font-family="Courier,monospace" font-size="14.00">Setup</text>
</g>
<!-- Workspace -->
<g id="node17" class="node"><title>Workspace</title>
<path fill="#ffffcc" stroke="black" d="M82,-970C82,-970 44,-970 44,-970 38,-970 32,-964 32,-958 32,-958 32,-946 32,-946 32,-940 38,-934 44,-934 44,-934 82,-934 82,-934 88,-934 94,-940 94,-946 94,-946 94,-958 94,-958 94,-964 88,-970 82,-970"/>
<text text-anchor="middle" x="63" y="-949.8" font-family="Helvetica,sans-Serif" font-size="9.00">Workspace</text>
</g>
<!-- Setup&#45;&gt;Workspace -->
<g id="edge13" class="edge"><title>Setup&#45;&gt;Workspace</title>
<path fill="none" stroke="black" d="M83.2257,-1077.87C79.3057,-1053.67 72.1046,-1009.21 67.4369,-980.393"/>
<polygon fill="black" stroke="black" points="70.8381,-979.501 65.7842,-970.189 63.9282,-980.62 70.8381,-979.501"/>
</g>
<!-- OccurrenceFile -->
<g id="node18" class="node"><title>OccurrenceFile</title>
<path fill="#ffffcc" stroke="black" d="M196,-1042C196,-1042 142,-1042 142,-1042 136,-1042 130,-1036 130,-1030 130,-1030 130,-1018 130,-1018 130,-1012 136,-1006 142,-1006 142,-1006 196,-1006 196,-1006 202,-1006 208,-1012 208,-1018 208,-1018 208,-1030 208,-1030 208,-1036 202,-1042 196,-1042"/>
<text text-anchor="middle" x="169" y="-1021.8" font-family="Helvetica,sans-Serif" font-size="9.00">OccurrenceFile</text>
</g>
<!-- Setup&#45;&gt;OccurrenceFile -->
<g id="edge14" class="edge"><title>Setup&#45;&gt;OccurrenceFile</title>
<path fill="none" stroke="black" d="M106.517,-1077.7C116.869,-1068.97 129.586,-1058.24 140.839,-1048.75"/>
<polygon fill="black" stroke="black" points="143.331,-1051.23 148.719,-1042.1 138.818,-1045.88 143.331,-1051.23"/>
</g>
<!-- FileToDataStream -->
<g id="node2" class="node"><title>FileToDataStream</title>
<polygon fill="#ccffcc" stroke="black" points="332.25,-970 181.75,-970 181.75,-934 332.25,-934 332.25,-970"/>
<text text-anchor="middle" x="257" y="-948.3" font-family="Courier,monospace" font-size="14.00">FileToDataStream</text>
</g>
<!-- DataRecord -->
<g id="node10" class="node"><title>DataRecord</title>
<path fill="#3ab4df" stroke="black" d="M240.5,-851C240.5,-851 307.5,-851 307.5,-851 313.5,-851 319.5,-857 319.5,-863 319.5,-863 319.5,-885 319.5,-885 319.5,-891 313.5,-897 307.5,-897 307.5,-897 240.5,-897 240.5,-897 234.5,-897 228.5,-891 228.5,-885 228.5,-885 228.5,-863 228.5,-863 228.5,-857 234.5,-851 240.5,-851"/>
<text text-anchor="middle" x="274" y="-881.8" font-family="Helvetica,sans-Serif" font-size="14.00">DataRecord</text>
<polyline fill="none" stroke="black" points="228.5,-874 319.5,-874 "/>
<text text-anchor="middle" x="274" y="-858.8" font-family="Helvetica,sans-Serif" font-size="14.00">Count: 192</text>
</g>
<!-- FileToDataStream&#45;&gt;DataRecord -->
<g id="edge15" class="edge"><title>FileToDataStream&#45;&gt;DataRecord</title>
<path fill="none" stroke="black" d="M260.858,-933.754C262.623,-925.863 264.773,-916.249 266.819,-907.102"/>
<polygon fill="black" stroke="black" points="270.291,-907.614 269.059,-897.091 263.46,-906.086 270.291,-907.614"/>
</g>
<!-- EnvironmentTagger -->
<g id="node3" class="node"><title>EnvironmentTagger</title>
<polygon fill="#ccffcc" stroke="black" points="388.25,-814 229.75,-814 229.75,-778 388.25,-778 388.25,-814"/>
<text text-anchor="middle" x="309" y="-792.3" font-family="Courier,monospace" font-size="14.00">EnvironmentTagger</text>
</g>
<!-- TaggedDataRecord -->
<g id="node11" class="node"><title>TaggedDataRecord</title>
<path fill="#3ab4df" stroke="black" d="M251.5,-695C251.5,-695 366.5,-695 366.5,-695 372.5,-695 378.5,-701 378.5,-707 378.5,-707 378.5,-729 378.5,-729 378.5,-735 372.5,-741 366.5,-741 366.5,-741 251.5,-741 251.5,-741 245.5,-741 239.5,-735 239.5,-729 239.5,-729 239.5,-707 239.5,-707 239.5,-701 245.5,-695 251.5,-695"/>
<text text-anchor="middle" x="309" y="-725.8" font-family="Helvetica,sans-Serif" font-size="14.00">TaggedDataRecord</text>
<polyline fill="none" stroke="black" points="239.5,-718 378.5,-718 "/>
<text text-anchor="middle" x="309" y="-702.8" font-family="Helvetica,sans-Serif" font-size="14.00">Count: 192</text>
</g>
<!-- EnvironmentTagger&#45;&gt;TaggedDataRecord -->
<g id="edge17" class="edge"><title>EnvironmentTagger&#45;&gt;TaggedDataRecord</title>
<path fill="none" stroke="black" d="M309,-777.754C309,-769.863 309,-760.249 309,-751.102"/>
<polygon fill="black" stroke="black" points="312.5,-751.091 309,-741.091 305.5,-751.091 312.5,-751.091"/>
</g>
<!-- LogFile -->
<g id="node20" class="node"><title>LogFile</title>
<path fill="#ffe4b5" stroke="black" d="M375.5,-381C375.5,-381 422.5,-381 422.5,-381 428.5,-381 434.5,-387 434.5,-393 434.5,-393 434.5,-405 434.5,-405 434.5,-411 428.5,-417 422.5,-417 422.5,-417 375.5,-417 375.5,-417 369.5,-417 363.5,-411 363.5,-405 363.5,-405 363.5,-393 363.5,-393 363.5,-387 369.5,-381 375.5,-381"/>
<text text-anchor="middle" x="399" y="-405.8" font-family="Courier,monospace" font-weight="bold" font-size="9.00">LogFile</text>
<polyline fill="none" stroke="black" points="363.5,-399 434.5,-399 "/>
<text text-anchor="middle" x="399" y="-387.8" font-family="Courier,monospace" font-weight="bold" font-size="9.00">runlog.log</text>
</g>
<!-- EnvironmentTagger&#45;&gt;LogFile -->
<g id="edge16" class="edge"><title>EnvironmentTagger&#45;&gt;LogFile</title>
<path fill="none" stroke="black" d="M339.407,-777.976C378.942,-753.335 443,-703.73 443,-641 443,-641 443,-641 443,-561 443,-512.367 424.088,-458.301 411.061,-426.829"/>
<polygon fill="black" stroke="black" points="414.204,-425.274 407.07,-417.441 407.761,-428.013 414.204,-425.274"/>
</g>
<!-- FilterToJustMarine -->
<g id="node4" class="node"><title>FilterToJustMarine</title>
<polygon fill="#ccffcc" stroke="black" points="212,-658 44,-658 44,-622 212,-622 212,-658"/>
<text text-anchor="middle" x="128" y="-636.3" font-family="Courier,monospace" font-size="14.00">FilterToJustMarine</text>
</g>
<!-- MarineDataRecord -->
<g id="node12" class="node"><title>MarineDataRecord</title>
<path fill="#3ab4df" stroke="black" d="M81,-539C81,-539 191,-539 191,-539 197,-539 203,-545 203,-551 203,-551 203,-573 203,-573 203,-579 197,-585 191,-585 191,-585 81,-585 81,-585 75,-585 69,-579 69,-573 69,-573 69,-551 69,-551 69,-545 75,-539 81,-539"/>
<text text-anchor="middle" x="136" y="-569.8" font-family="Helvetica,sans-Serif" font-size="14.00">MarineDataRecord</text>
<polyline fill="none" stroke="black" points="69,-562 203,-562 "/>
<text text-anchor="middle" x="136" y="-546.8" font-family="Helvetica,sans-Serif" font-size="14.00">Count: 98</text>
</g>
<!-- FilterToJustMarine&#45;&gt;MarineDataRecord -->
<g id="edge19" class="edge"><title>FilterToJustMarine&#45;&gt;MarineDataRecord</title>
<path fill="none" stroke="black" d="M129.815,-621.754C130.646,-613.863 131.658,-604.249 132.621,-595.102"/>
<polygon fill="black" stroke="black" points="136.108,-595.402 133.675,-585.091 129.147,-594.669 136.108,-595.402"/>
</g>
<!-- FilterToJustMarine&#45;&gt;LogFile -->
<g id="edge18" class="edge"><title>FilterToJustMarine&#45;&gt;LogFile</title>
<path fill="none" stroke="black" d="M165.106,-621.99C181.212,-613.12 199.263,-600.973 212,-586 249.549,-541.861 221.746,-506.698 263,-466 293.082,-436.323 313.391,-449.268 351,-430 355.583,-427.652 360.302,-425.008 364.908,-422.287"/>
<polygon fill="black" stroke="black" points="366.84,-425.209 373.562,-417.02 363.2,-419.23 366.84,-425.209"/>
</g>
<!-- FilterExcludingMarine -->
<g id="node5" class="node"><title>FilterExcludingMarine</title>
<polygon fill="#ccffcc" stroke="black" points="423.25,-658 230.75,-658 230.75,-622 423.25,-622 423.25,-658"/>
<text text-anchor="middle" x="327" y="-636.3" font-family="Courier,monospace" font-size="14.00">FilterExcludingMarine</text>
</g>
<!-- notMarineDataRecord -->
<g id="node13" class="node"><title>notMarineDataRecord</title>
<path fill="#3ab4df" stroke="black" d="M258.5,-539C258.5,-539 387.5,-539 387.5,-539 393.5,-539 399.5,-545 399.5,-551 399.5,-551 399.5,-573 399.5,-573 399.5,-579 393.5,-585 387.5,-585 387.5,-585 258.5,-585 258.5,-585 252.5,-585 246.5,-579 246.5,-573 246.5,-573 246.5,-551 246.5,-551 246.5,-545 252.5,-539 258.5,-539"/>
<text text-anchor="middle" x="323" y="-569.8" font-family="Helvetica,sans-Serif" font-size="14.00">notMarineDataRecord</text>
<polyline fill="none" stroke="black" points="246.5,-562 399.5,-562 "/>
<text text-anchor="middle" x="323" y="-546.8" font-family="Helvetica,sans-Serif" font-size="14.00">Count: 94</text>
</g>
<!-- FilterExcludingMarine&#45;&gt;notMarineDataRecord -->
<g id="edge21" class="edge"><title>FilterExcludingMarine&#45;&gt;notMarineDataRecord</title>
<path fill="none" stroke="black" d="M326.092,-621.754C325.677,-613.863 325.171,-604.249 324.69,-595.102"/>
<polygon fill="black" stroke="black" points="328.184,-594.893 324.163,-585.091 321.193,-595.261 328.184,-594.893"/>
</g>
<!-- FilterExcludingMarine&#45;&gt;LogFile -->
<g id="edge20" class="edge"><title>FilterExcludingMarine&#45;&gt;LogFile</title>
<path fill="none" stroke="black" d="M369.112,-621.874C384.184,-613.45 399.527,-601.67 408,-586 435.409,-535.311 420.287,-465.039 408.573,-427.026"/>
<polygon fill="black" stroke="black" points="411.804,-425.642 405.397,-417.203 405.143,-427.795 411.804,-425.642"/>
</g>
<!-- WoRMSLookup -->
<g id="node6" class="node"><title>WoRMSLookup</title>
<polygon fill="#ccffcc" stroke="black" points="207.25,-502 98.75,-502 98.75,-466 207.25,-466 207.25,-502"/>
<text text-anchor="middle" x="153" y="-480.3" font-family="Courier,monospace" font-size="14.00">WoRMSLookup</text>
</g>
<!-- WoRMSOutput -->
<g id="node14" class="node"><title>WoRMSOutput</title>
<path fill="#3ab4df" stroke="black" d="M113.5,-368.5C113.5,-368.5 200.5,-368.5 200.5,-368.5 206.5,-368.5 212.5,-374.5 212.5,-380.5 212.5,-380.5 212.5,-417.5 212.5,-417.5 212.5,-423.5 206.5,-429.5 200.5,-429.5 200.5,-429.5 113.5,-429.5 113.5,-429.5 107.5,-429.5 101.5,-423.5 101.5,-417.5 101.5,-417.5 101.5,-380.5 101.5,-380.5 101.5,-374.5 107.5,-368.5 113.5,-368.5"/>
<text text-anchor="middle" x="157" y="-414.3" font-family="Helvetica,sans-Serif" font-size="14.00">WoRMSOutput</text>
<polyline fill="none" stroke="black" points="101.5,-406.5 212.5,-406.5 "/>
<text text-anchor="middle" x="157" y="-391.3" font-family="Helvetica,sans-Serif" font-size="14.00">Has Value: 37</text>
<text text-anchor="middle" x="157" y="-376.3" font-family="Helvetica,sans-Serif" font-size="14.00"> Null: 61</text>
</g>
<!-- WoRMSLookup&#45;&gt;WoRMSOutput -->
<g id="edge23" class="edge"><title>WoRMSLookup&#45;&gt;WoRMSOutput</title>
<path fill="none" stroke="black" d="M153.829,-465.802C154.195,-458.213 154.641,-448.948 155.082,-439.795"/>
<polygon fill="black" stroke="black" points="158.588,-439.759 155.573,-429.602 151.596,-439.422 158.588,-439.759"/>
</g>
<!-- WoRMSLookup&#45;&gt;LogFile -->
<g id="edge22" class="edge"><title>WoRMSLookup&#45;&gt;LogFile</title>
<path fill="none" stroke="black" d="M207.638,-469.261C261.536,-455.565 337.742,-435.763 351,-430 356.069,-427.796 361.229,-425.113 366.193,-422.266"/>
<polygon fill="black" stroke="black" points="368.106,-425.2 374.858,-417.036 364.488,-419.207 368.106,-425.2"/>
</g>
<!-- GBIFLookup -->
<g id="node7" class="node"><title>GBIFLookup</title>
<polygon fill="#ccffcc" stroke="black" points="373.25,-502 272.75,-502 272.75,-466 373.25,-466 373.25,-502"/>
<text text-anchor="middle" x="323" y="-480.3" font-family="Courier,monospace" font-size="14.00">GBIFLookup</text>
</g>
<!-- GBIFOutput -->
<g id="node15" class="node"><title>GBIFOutput</title>
<path fill="#3ab4df" stroke="black" d="M250,-368.5C250,-368.5 330,-368.5 330,-368.5 336,-368.5 342,-374.5 342,-380.5 342,-380.5 342,-417.5 342,-417.5 342,-423.5 336,-429.5 330,-429.5 330,-429.5 250,-429.5 250,-429.5 244,-429.5 238,-423.5 238,-417.5 238,-417.5 238,-380.5 238,-380.5 238,-374.5 244,-368.5 250,-368.5"/>
<text text-anchor="middle" x="290" y="-414.3" font-family="Helvetica,sans-Serif" font-size="14.00">GBIFOutput</text>
<polyline fill="none" stroke="black" points="238,-406.5 342,-406.5 "/>
<text text-anchor="middle" x="290" y="-391.3" font-family="Helvetica,sans-Serif" font-size="14.00">Has Value: 94</text>
<text text-anchor="middle" x="290" y="-376.3" font-family="Helvetica,sans-Serif" font-size="14.00"> Null: 0</text>
</g>
<!-- GBIFLookup&#45;&gt;GBIFOutput -->
<g id="edge25" class="edge"><title>GBIFLookup&#45;&gt;GBIFOutput</title>
<path fill="none" stroke="black" d="M316.162,-465.802C313.047,-457.968 309.223,-448.349 305.47,-438.909"/>
<polygon fill="black" stroke="black" points="308.717,-437.602 301.77,-429.602 302.212,-440.188 308.717,-437.602"/>
</g>
<!-- GBIFLookup&#45;&gt;LogFile -->
<g id="edge24" class="edge"><title>GBIFLookup&#45;&gt;LogFile</title>
<path fill="none" stroke="black" d="M338.747,-465.802C349.651,-453.895 364.328,-437.865 376.467,-424.608"/>
<polygon fill="black" stroke="black" points="379.101,-426.915 383.273,-417.176 373.938,-422.187 379.101,-426.915"/>
</g>
<!-- StreamMerge -->
<g id="node8" class="node"><title>StreamMerge</title>
<polygon fill="#ccffcc" stroke="black" points="239.25,-332 130.75,-332 130.75,-296 239.25,-296 239.25,-332"/>
<text text-anchor="middle" x="185" y="-310.3" font-family="Courier,monospace" font-size="14.00">StreamMerge</text>
</g>
<!-- MergedStream -->
<g id="node19" class="node"><title>MergedStream</title>
<path fill="#ffffcc" stroke="black" d="M211,-260C211,-260 159,-260 159,-260 153,-260 147,-254 147,-248 147,-248 147,-236 147,-236 147,-230 153,-224 159,-224 159,-224 211,-224 211,-224 217,-224 223,-230 223,-236 223,-236 223,-248 223,-248 223,-254 217,-260 211,-260"/>
<text text-anchor="middle" x="185" y="-239.8" font-family="Helvetica,sans-Serif" font-size="9.00">MergedStream</text>
</g>
<!-- StreamMerge&#45;&gt;MergedStream -->
<g id="edge26" class="edge"><title>StreamMerge&#45;&gt;MergedStream</title>
<path fill="none" stroke="black" d="M185,-295.697C185,-287.983 185,-278.712 185,-270.112"/>
<polygon fill="black" stroke="black" points="188.5,-270.104 185,-260.104 181.5,-270.104 188.5,-270.104"/>
</g>
<!-- CsvFileWriter -->
<g id="node9" class="node"><title>CsvFileWriter</title>
<polygon fill="#ccffcc" stroke="black" points="248,-188 122,-188 122,-152 248,-152 248,-188"/>
<text text-anchor="middle" x="185" y="-166.3" font-family="Courier,monospace" font-size="14.00">CsvFileWriter</text>
</g>
<!-- OutputFile -->
<g id="node21" class="node"><title>OutputFile</title>
<path fill="#ffe4b5" stroke="black" d="M36,-79C36,-79 390,-79 390,-79 396,-79 402,-85 402,-91 402,-91 402,-103 402,-103 402,-109 396,-115 390,-115 390,-115 36,-115 36,-115 30,-115 24,-109 24,-103 24,-103 24,-91 24,-91 24,-85 30,-79 36,-79"/>
<text text-anchor="middle" x="213" y="-103.8" font-family="Courier,monospace" font-weight="bold" font-size="9.00">OutputFile</text>
<polyline fill="none" stroke="black" points="24,-97 402,-97 "/>
<text text-anchor="middle" x="213" y="-85.8" font-family="Courier,monospace" font-weight="bold" font-size="9.00">workspace_4e5367d1&#45;5718&#45;11e7&#45;a549&#45;acbc3296f741/mergedoutputfile.csv</text>
</g>
<!-- CsvFileWriter&#45;&gt;OutputFile -->
<g id="edge27" class="edge"><title>CsvFileWriter&#45;&gt;OutputFile</title>
<path fill="none" stroke="black" d="M191.778,-151.813C195.011,-143.615 198.951,-133.623 202.555,-124.485"/>
<polygon fill="black" stroke="black" points="205.872,-125.616 206.284,-115.029 199.36,-123.048 205.872,-125.616"/>
</g>
<!-- DataRecord&#45;&gt;EnvironmentTagger -->
<g id="edge5" class="edge"><title>DataRecord&#45;&gt;EnvironmentTagger</title>
<path fill="none" stroke="black" d="M284.312,-850.609C288.221,-842.12 292.71,-832.373 296.778,-823.538"/>
<polygon fill="black" stroke="black" points="299.977,-824.959 300.981,-814.412 293.619,-822.031 299.977,-824.959"/>
</g>
<!-- TaggedDataRecord&#45;&gt;FilterToJustMarine -->
<g id="edge6" class="edge"><title>TaggedDataRecord&#45;&gt;FilterToJustMarine</title>
<path fill="none" stroke="black" d="M256.161,-694.813C231.473,-684.447 202.235,-672.171 177.924,-661.962"/>
<polygon fill="black" stroke="black" points="179.1,-658.66 168.525,-658.016 176.39,-665.115 179.1,-658.66"/>
</g>
<!-- TaggedDataRecord&#45;&gt;FilterExcludingMarine -->
<g id="edge7" class="edge"><title>TaggedDataRecord&#45;&gt;FilterExcludingMarine</title>
<path fill="none" stroke="black" d="M314.303,-694.609C316.25,-686.391 318.475,-676.994 320.514,-668.387"/>
<polygon fill="black" stroke="black" points="323.977,-668.95 322.876,-658.412 317.166,-667.336 323.977,-668.95"/>
</g>
<!-- MarineDataRecord&#45;&gt;WoRMSLookup -->
<g id="edge8" class="edge"><title>MarineDataRecord&#45;&gt;WoRMSLookup</title>
<path fill="none" stroke="black" d="M141.009,-538.609C142.847,-530.391 144.949,-520.994 146.874,-512.387"/>
<polygon fill="black" stroke="black" points="150.338,-512.935 149.105,-502.412 143.507,-511.407 150.338,-512.935"/>
</g>
<!-- notMarineDataRecord&#45;&gt;GBIFLookup -->
<g id="edge9" class="edge"><title>notMarineDataRecord&#45;&gt;GBIFLookup</title>
<path fill="none" stroke="black" d="M323,-538.609C323,-530.481 323,-521.2 323,-512.671"/>
<polygon fill="black" stroke="black" points="326.5,-512.412 323,-502.412 319.5,-512.412 326.5,-512.412"/>
</g>
<!-- WoRMSOutput&#45;&gt;StreamMerge -->
<g id="edge10" class="edge"><title>WoRMSOutput&#45;&gt;StreamMerge</title>
<path fill="none" stroke="black" d="M167.109,-368.035C170.004,-359.452 173.141,-350.154 175.967,-341.776"/>
<polygon fill="black" stroke="black" points="179.344,-342.716 179.224,-332.122 172.711,-340.479 179.344,-342.716"/>
</g>
<!-- GBIFOutput&#45;&gt;StreamMerge -->
<g id="edge11" class="edge"><title>GBIFOutput&#45;&gt;StreamMerge</title>
<path fill="none" stroke="black" d="M252.389,-368.27C240.078,-358.538 226.575,-347.864 214.911,-338.644"/>
<polygon fill="black" stroke="black" points="216.801,-335.677 206.786,-332.221 212.461,-341.168 216.801,-335.677"/>
</g>
<!-- DarwinCoreFile -->
<g id="node16" class="node"><title>DarwinCoreFile</title>
<path fill="#ffe4b5" stroke="black" d="M125,-1151C125,-1151 431,-1151 431,-1151 437,-1151 443,-1157 443,-1163 443,-1163 443,-1175 443,-1175 443,-1181 437,-1187 431,-1187 431,-1187 125,-1187 125,-1187 119,-1187 113,-1181 113,-1175 113,-1175 113,-1163 113,-1163 113,-1157 119,-1151 125,-1151"/>
<text text-anchor="middle" x="278" y="-1175.8" font-family="Courier,monospace" font-weight="bold" font-size="9.00">DarwinCoreFile</text>
<polyline fill="none" stroke="black" points="113,-1169 443,-1169 "/>
<text text-anchor="middle" x="278" y="-1157.8" font-family="Courier,monospace" font-weight="bold" font-size="9.00">packages/kurator_branching/data/kurator_sample_data_v2.txt</text>
</g>
<!-- DarwinCoreFile&#45;&gt;Setup -->
<g id="edge2" class="edge"><title>DarwinCoreFile&#45;&gt;Setup</title>
<path fill="none" stroke="black" d="M232.011,-1150.99C199.377,-1138.93 156.044,-1122.9 125.079,-1111.45"/>
<polygon fill="black" stroke="black" points="126.082,-1108.09 115.489,-1107.9 123.654,-1114.66 126.082,-1108.09"/>
</g>
<!-- Workspace&#45;&gt;CsvFileWriter -->
<g id="edge3" class="edge"><title>Workspace&#45;&gt;CsvFileWriter</title>
<path fill="none" stroke="black" d="M55.8525,-933.79C44.8448,-905.682 25,-847.945 25,-797 25,-797 25,-797 25,-313 25,-254.853 84.8433,-214.717 131.333,-192.311"/>
<polygon fill="black" stroke="black" points="132.849,-195.466 140.431,-188.066 129.889,-189.122 132.849,-195.466"/>
</g>
<!-- OccurrenceFile&#45;&gt;FileToDataStream -->
<g id="edge4" class="edge"><title>OccurrenceFile&#45;&gt;FileToDataStream</title>
<path fill="none" stroke="black" d="M190.753,-1005.7C201.836,-996.881 215.474,-986.032 227.49,-976.474"/>
<polygon fill="black" stroke="black" points="229.85,-979.069 235.497,-970.104 225.493,-973.59 229.85,-979.069"/>
</g>
<!-- MergedStream&#45;&gt;CsvFileWriter -->
<g id="edge12" class="edge"><title>MergedStream&#45;&gt;CsvFileWriter</title>
<path fill="none" stroke="black" d="M185,-223.697C185,-215.983 185,-206.712 185,-198.112"/>
<polygon fill="black" stroke="black" points="188.5,-198.104 185,-188.104 181.5,-198.104 188.5,-198.104"/>
</g>
<!-- LogFile_outflow -->
<g id="node25" class="node"><title>LogFile_outflow</title>
<ellipse fill="none" stroke="black" cx="337" cy="-31" rx="7" ry="7"/>
</g>
<!-- LogFile&#45;&gt;LogFile_outflow -->
<g id="edge30" class="edge"><title>LogFile&#45;&gt;LogFile_outflow</title>
<path fill="none" stroke="black" d="M404.831,-380.561C413.811,-352.107 430,-293.769 430,-243 430,-243 430,-243 430,-169 430,-120.701 441.396,-99.5354 411,-62 396.965,-44.6684 371.346,-37.2725 354.245,-34.1692"/>
<polygon fill="black" stroke="black" points="354.422,-30.6567 344.014,-32.6371 353.386,-37.5795 354.422,-30.6567"/>
</g>
<!-- OutputFile_outflow -->
<g id="node26" class="node"><title>OutputFile_outflow</title>
<ellipse fill="none" stroke="black" cx="305" cy="-31" rx="7" ry="7"/>
</g>
<!-- OutputFile&#45;&gt;OutputFile_outflow -->
<g id="edge31" class="edge"><title>OutputFile&#45;&gt;OutputFile_outflow</title>
<path fill="none" stroke="black" d="M237.654,-78.8492C254.78,-66.9359 276.977,-51.4945 291.108,-41.6639"/>
<polygon fill="black" stroke="black" points="293.231,-44.4507 299.441,-35.8668 289.234,-38.7043 293.231,-44.4507"/>
</g>
<!-- InputFilePath -->
<g id="node22" class="node"><title>InputFilePath</title>
<path fill="#ffffff" stroke="black" d="M83,-1187C83,-1187 37,-1187 37,-1187 31,-1187 25,-1181 25,-1175 25,-1175 25,-1163 25,-1163 25,-1157 31,-1151 37,-1151 37,-1151 83,-1151 83,-1151 89,-1151 95,-1157 95,-1163 95,-1163 95,-1175 95,-1175 95,-1181 89,-1187 83,-1187"/>
<text text-anchor="middle" x="60" y="-1166.8" font-family="Helvetica,sans-Serif" font-size="9.00">InputFilePath</text>
</g>
<!-- InputFilePath&#45;&gt;Setup -->
<g id="edge1" class="edge"><title>InputFilePath&#45;&gt;Setup</title>
<path fill="none" stroke="black" d="M66.2939,-1150.81C69.2959,-1142.62 72.9549,-1132.62 76.3014,-1123.48"/>
<polygon fill="black" stroke="black" points="79.6119,-1124.62 79.7641,-1114.03 73.0388,-1122.22 79.6119,-1124.62"/>
</g>
<!-- DarwinCoreFile_inflow -->
<g id="node23" class="node"><title>DarwinCoreFile_inflow</title>
<ellipse fill="none" stroke="black" cx="185" cy="-1235" rx="7" ry="7"/>
</g>
<!-- DarwinCoreFile_inflow&#45;&gt;DarwinCoreFile -->
<g id="edge28" class="edge"><title>DarwinCoreFile_inflow&#45;&gt;DarwinCoreFile</title>
<path fill="none" stroke="black" d="M190.267,-1230.38C200.622,-1223.25 224.384,-1206.9 244.569,-1193.01"/>
<polygon fill="black" stroke="black" points="246.698,-1195.79 252.952,-1187.24 242.73,-1190.02 246.698,-1195.79"/>
</g>
<!-- InputFilePath_inflow -->
<g id="node24" class="node"><title>InputFilePath_inflow</title>
<ellipse fill="none" stroke="black" cx="153" cy="-1235" rx="7" ry="7"/>
</g>
<!-- InputFilePath_inflow&#45;&gt;InputFilePath -->
<g id="edge29" class="edge"><title>InputFilePath_inflow&#45;&gt;InputFilePath</title>
<path fill="none" stroke="black" d="M147.138,-1230.69C137.813,-1225.36 119.11,-1214.42 104,-1204 99.1121,-1200.63 94.0334,-1196.92 89.1375,-1193.22"/>
<polygon fill="black" stroke="black" points="91.2002,-1190.39 81.1369,-1187.08 86.9373,-1195.94 91.2002,-1190.39"/>
</g>
</g>
</svg>
