<?xml version="1.0" encoding="UTF-8" standalone="no"?>
<!DOCTYPE svg PUBLIC "-//W3C//DTD SVG 1.1//EN"
 "http://www.w3.org/Graphics/SVG/1.1/DTD/svg11.dtd">
<!-- Generated by graphviz version 2.36.0 (20140111.2315)
 -->
<!-- Title: yw_data_view Pages: 1 -->
<svg width="474pt" height="1240pt"
 viewBox="0.00 0.00 474.00 1240.00" xmlns="http://www.w3.org/2000/svg" xmlns:xlink="http://www.w3.org/1999/xlink">
<g id="graph0" class="graph" transform="scale(1 1) rotate(0) translate(4 1236)">
<title>yw_data_view</title>
<polygon fill="white" stroke="none" points="-4,4 -4,-1236 470,-1236 470,4 -4,4"/>
<text text-anchor="middle" x="233" y="-1213.6" font-family="Courier,monospace" font-size="18.00">BranchingWorkflow</text>
<g id="clust1" class="cluster"><title>cluster_workflow</title>
<polygon fill="none" stroke="black" stroke-width="2" points="8,-62 8,-1142 458,-1142 458,-62 8,-62"/>
</g>
<g id="clust2" class="cluster"><title>cluster_workflow_inner</title>
<polygon fill="none" stroke="white" stroke-width="2" points="16,-70 16,-1134 450,-1134 450,-70 16,-70"/>
</g>
<g id="clust3" class="cluster"><title>cluster_inflows</title>
<polygon fill="none" stroke="white" stroke-width="2" points="129,-1150 129,-1196 207,-1196 207,-1150 129,-1150"/>
</g>
<g id="clust4" class="cluster"><title>cluster_inflows_inner</title>
<polygon fill="none" stroke="white" stroke-width="2" points="137,-1158 137,-1188 199,-1188 199,-1158 137,-1158"/>
</g>
<g id="clust5" class="cluster"><title>cluster_outflows</title>
<polygon fill="none" stroke="white" stroke-width="2" points="190,-8 190,-54 236,-54 236,-8 190,-8"/>
</g>
<g id="clust6" class="cluster"><title>cluster_outflows_inner</title>
<polygon fill="none" stroke="white" stroke-width="2" points="198,-16 198,-46 228,-46 228,-16 198,-16"/>
</g>
<!-- Setup -->
<g id="node1" class="node"><title>Setup</title>
<polygon fill="#ccffcc" stroke="black" points="149.25,-1052 90.75,-1052 90.75,-1016 149.25,-1016 149.25,-1052"/>
<text text-anchor="middle" x="120" y="-1030.3" font-family="Courier,monospace" font-size="14.00">Setup</text>
</g>
<!-- Workspace -->
<g id="node10" class="node"><title>Workspace</title>
<path fill="#ffffcc" stroke="black" d="M99.25,-908C99.25,-908 36.75,-908 36.75,-908 30.75,-908 24.75,-902 24.75,-896 24.75,-896 24.75,-884 24.75,-884 24.75,-878 30.75,-872 36.75,-872 36.75,-872 99.25,-872 99.25,-872 105.25,-872 111.25,-878 111.25,-884 111.25,-884 111.25,-896 111.25,-896 111.25,-902 105.25,-908 99.25,-908"/>
<text text-anchor="middle" x="68" y="-886.3" font-family="Helvetica,sans-Serif" font-size="14.00">Workspace</text>
</g>
<!-- Setup&#45;&gt;Workspace -->
<g id="edge13" class="edge"><title>Setup&#45;&gt;Workspace</title>
<path fill="none" stroke="black" d="M113.728,-1015.87C104.787,-991.457 88.2968,-946.426 77.7537,-917.635"/>
<polygon fill="black" stroke="black" points="81.02,-916.376 74.2947,-908.189 74.4468,-918.783 81.02,-916.376"/>
</g>
<!-- OccurrenceFile -->
<g id="node11" class="node"><title>OccurrenceFile</title>
<path fill="#ffffcc" stroke="black" d="M232.25,-980C232.25,-980 145.75,-980 145.75,-980 139.75,-980 133.75,-974 133.75,-968 133.75,-968 133.75,-956 133.75,-956 133.75,-950 139.75,-944 145.75,-944 145.75,-944 232.25,-944 232.25,-944 238.25,-944 244.25,-950 244.25,-956 244.25,-956 244.25,-968 244.25,-968 244.25,-974 238.25,-980 232.25,-980"/>
<text text-anchor="middle" x="189" y="-958.3" font-family="Helvetica,sans-Serif" font-size="14.00">OccurrenceFile</text>
</g>
<!-- Setup&#45;&gt;OccurrenceFile -->
<g id="edge14" class="edge"><title>Setup&#45;&gt;OccurrenceFile</title>
<path fill="none" stroke="black" d="M137.056,-1015.7C145.495,-1007.14 155.825,-996.656 165.043,-987.304"/>
<polygon fill="black" stroke="black" points="167.613,-989.683 172.14,-980.104 162.627,-984.769 167.613,-989.683"/>
</g>
<!-- FileToDataStream -->
<g id="node2" class="node"><title>FileToDataStream</title>
<polygon fill="#ccffcc" stroke="black" points="280.25,-908 129.75,-908 129.75,-872 280.25,-872 280.25,-908"/>
<text text-anchor="middle" x="205" y="-886.3" font-family="Courier,monospace" font-size="14.00">FileToDataStream</text>
</g>
<!-- DataRecord -->
<g id="node12" class="node"><title>DataRecord</title>
<path fill="#ffffcc" stroke="black" d="M238.25,-836C238.25,-836 171.75,-836 171.75,-836 165.75,-836 159.75,-830 159.75,-824 159.75,-824 159.75,-812 159.75,-812 159.75,-806 165.75,-800 171.75,-800 171.75,-800 238.25,-800 238.25,-800 244.25,-800 250.25,-806 250.25,-812 250.25,-812 250.25,-824 250.25,-824 250.25,-830 244.25,-836 238.25,-836"/>
<text text-anchor="middle" x="205" y="-814.3" font-family="Helvetica,sans-Serif" font-size="14.00">DataRecord</text>
</g>
<!-- FileToDataStream&#45;&gt;DataRecord -->
<g id="edge15" class="edge"><title>FileToDataStream&#45;&gt;DataRecord</title>
<path fill="none" stroke="black" d="M205,-871.697C205,-863.983 205,-854.712 205,-846.112"/>
<polygon fill="black" stroke="black" points="208.5,-846.104 205,-836.104 201.5,-846.104 208.5,-846.104"/>
</g>
<!-- EnvironmentTagger -->
<g id="node3" class="node"><title>EnvironmentTagger</title>
<polygon fill="#ccffcc" stroke="black" points="284.25,-764 125.75,-764 125.75,-728 284.25,-728 284.25,-764"/>
<text text-anchor="middle" x="205" y="-742.3" font-family="Courier,monospace" font-size="14.00">EnvironmentTagger</text>
</g>
<!-- TaggedDataRecord -->
<g id="node13" class="node"><title>TaggedDataRecord</title>
<path fill="#ffffcc" stroke="black" d="M262.25,-692C262.25,-692 147.75,-692 147.75,-692 141.75,-692 135.75,-686 135.75,-680 135.75,-680 135.75,-668 135.75,-668 135.75,-662 141.75,-656 147.75,-656 147.75,-656 262.25,-656 262.25,-656 268.25,-656 274.25,-662 274.25,-668 274.25,-668 274.25,-680 274.25,-680 274.25,-686 268.25,-692 262.25,-692"/>
<text text-anchor="middle" x="205" y="-670.3" font-family="Helvetica,sans-Serif" font-size="14.00">TaggedDataRecord</text>
</g>
<!-- EnvironmentTagger&#45;&gt;TaggedDataRecord -->
<g id="edge16" class="edge"><title>EnvironmentTagger&#45;&gt;TaggedDataRecord</title>
<path fill="none" stroke="black" d="M205,-727.697C205,-719.983 205,-710.712 205,-702.112"/>
<polygon fill="black" stroke="black" points="208.5,-702.104 205,-692.104 201.5,-702.104 208.5,-702.104"/>
</g>
<!-- FilterToJustMarine -->
<g id="node4" class="node"><title>FilterToJustMarine</title>
<polygon fill="#ccffcc" stroke="black" points="230,-620 62,-620 62,-584 230,-584 230,-620"/>
<text text-anchor="middle" x="146" y="-598.3" font-family="Courier,monospace" font-size="14.00">FilterToJustMarine</text>
</g>
<!-- MarineDataRecord -->
<g id="node14" class="node"><title>MarineDataRecord</title>
<path fill="#ffffcc" stroke="black" d="M210,-548C210,-548 100,-548 100,-548 94,-548 88,-542 88,-536 88,-536 88,-524 88,-524 88,-518 94,-512 100,-512 100,-512 210,-512 210,-512 216,-512 222,-518 222,-524 222,-524 222,-536 222,-536 222,-542 216,-548 210,-548"/>
<text text-anchor="middle" x="155" y="-526.3" font-family="Helvetica,sans-Serif" font-size="14.00">MarineDataRecord</text>
</g>
<!-- FilterToJustMarine&#45;&gt;MarineDataRecord -->
<g id="edge17" class="edge"><title>FilterToJustMarine&#45;&gt;MarineDataRecord</title>
<path fill="none" stroke="black" d="M148.225,-583.697C149.217,-575.983 150.408,-566.712 151.514,-558.112"/>
<polygon fill="black" stroke="black" points="154.997,-558.469 152.801,-548.104 148.054,-557.576 154.997,-558.469"/>
</g>
<!-- FilterExcludingMarine -->
<g id="node5" class="node"><title>FilterExcludingMarine</title>
<polygon fill="#ccffcc" stroke="black" points="441.25,-620 248.75,-620 248.75,-584 441.25,-584 441.25,-620"/>
<text text-anchor="middle" x="345" y="-598.3" font-family="Courier,monospace" font-size="14.00">FilterExcludingMarine</text>
</g>
<!-- notMarineDataRecord -->
<g id="node15" class="node"><title>notMarineDataRecord</title>
<path fill="#ffffcc" stroke="black" d="M399.25,-548C399.25,-548 270.75,-548 270.75,-548 264.75,-548 258.75,-542 258.75,-536 258.75,-536 258.75,-524 258.75,-524 258.75,-518 264.75,-512 270.75,-512 270.75,-512 399.25,-512 399.25,-512 405.25,-512 411.25,-518 411.25,-524 411.25,-524 411.25,-536 411.25,-536 411.25,-542 405.25,-548 399.25,-548"/>
<text text-anchor="middle" x="335" y="-526.3" font-family="Helvetica,sans-Serif" font-size="14.00">notMarineDataRecord</text>
</g>
<!-- FilterExcludingMarine&#45;&gt;notMarineDataRecord -->
<g id="edge18" class="edge"><title>FilterExcludingMarine&#45;&gt;notMarineDataRecord</title>
<path fill="none" stroke="black" d="M342.528,-583.697C341.426,-575.983 340.102,-566.712 338.873,-558.112"/>
<polygon fill="black" stroke="black" points="342.323,-557.509 337.443,-548.104 335.393,-558.499 342.323,-557.509"/>
</g>
<!-- WoRMSLookup -->
<g id="node6" class="node"><title>WoRMSLookup</title>
<polygon fill="#ccffcc" stroke="black" points="223.25,-476 114.75,-476 114.75,-440 223.25,-440 223.25,-476"/>
<text text-anchor="middle" x="169" y="-454.3" font-family="Courier,monospace" font-size="14.00">WoRMSLookup</text>
</g>
<!-- WoRMSOutput -->
<g id="node16" class="node"><title>WoRMSOutput</title>
<path fill="#ffffcc" stroke="black" d="M214.25,-404C214.25,-404 127.75,-404 127.75,-404 121.75,-404 115.75,-398 115.75,-392 115.75,-392 115.75,-380 115.75,-380 115.75,-374 121.75,-368 127.75,-368 127.75,-368 214.25,-368 214.25,-368 220.25,-368 226.25,-374 226.25,-380 226.25,-380 226.25,-392 226.25,-392 226.25,-398 220.25,-404 214.25,-404"/>
<text text-anchor="middle" x="171" y="-382.3" font-family="Helvetica,sans-Serif" font-size="14.00">WoRMSOutput</text>
</g>
<!-- WoRMSLookup&#45;&gt;WoRMSOutput -->
<g id="edge19" class="edge"><title>WoRMSLookup&#45;&gt;WoRMSOutput</title>
<path fill="none" stroke="black" d="M169.494,-439.697C169.715,-431.983 169.98,-422.712 170.225,-414.112"/>
<polygon fill="black" stroke="black" points="173.724,-414.2 170.511,-404.104 166.727,-414 173.724,-414.2"/>
</g>
<!-- GBIFLookup -->
<g id="node7" class="node"><title>GBIFLookup</title>
<polygon fill="#ccffcc" stroke="black" points="370.25,-476 269.75,-476 269.75,-440 370.25,-440 370.25,-476"/>
<text text-anchor="middle" x="320" y="-454.3" font-family="Courier,monospace" font-size="14.00">GBIFLookup</text>
</g>
<!-- GBIFOutput -->
<g id="node17" class="node"><title>GBIFOutput</title>
<path fill="#ffffcc" stroke="black" d="M338.25,-404C338.25,-404 271.75,-404 271.75,-404 265.75,-404 259.75,-398 259.75,-392 259.75,-392 259.75,-380 259.75,-380 259.75,-374 265.75,-368 271.75,-368 271.75,-368 338.25,-368 338.25,-368 344.25,-368 350.25,-374 350.25,-380 350.25,-380 350.25,-392 350.25,-392 350.25,-398 344.25,-404 338.25,-404"/>
<text text-anchor="middle" x="305" y="-382.3" font-family="Helvetica,sans-Serif" font-size="14.00">GBIFOutput</text>
</g>
<!-- GBIFLookup&#45;&gt;GBIFOutput -->
<g id="edge20" class="edge"><title>GBIFLookup&#45;&gt;GBIFOutput</title>
<path fill="none" stroke="black" d="M316.292,-439.697C314.639,-431.983 312.653,-422.712 310.81,-414.112"/>
<polygon fill="black" stroke="black" points="314.183,-413.149 308.665,-404.104 307.338,-414.616 314.183,-413.149"/>
</g>
<!-- StreamMerge -->
<g id="node8" class="node"><title>StreamMerge</title>
<polygon fill="#ccffcc" stroke="black" points="246.25,-332 137.75,-332 137.75,-296 246.25,-296 246.25,-332"/>
<text text-anchor="middle" x="192" y="-310.3" font-family="Courier,monospace" font-size="14.00">StreamMerge</text>
</g>
<!-- MergedStream -->
<g id="node18" class="node"><title>MergedStream</title>
<path fill="#ffffcc" stroke="black" d="M234.25,-260C234.25,-260 149.75,-260 149.75,-260 143.75,-260 137.75,-254 137.75,-248 137.75,-248 137.75,-236 137.75,-236 137.75,-230 143.75,-224 149.75,-224 149.75,-224 234.25,-224 234.25,-224 240.25,-224 246.25,-230 246.25,-236 246.25,-236 246.25,-248 246.25,-248 246.25,-254 240.25,-260 234.25,-260"/>
<text text-anchor="middle" x="192" y="-238.3" font-family="Helvetica,sans-Serif" font-size="14.00">MergedStream</text>
</g>
<!-- StreamMerge&#45;&gt;MergedStream -->
<g id="edge21" class="edge"><title>StreamMerge&#45;&gt;MergedStream</title>
<path fill="none" stroke="black" d="M192,-295.697C192,-287.983 192,-278.712 192,-270.112"/>
<polygon fill="black" stroke="black" points="195.5,-270.104 192,-260.104 188.5,-270.104 195.5,-270.104"/>
</g>
<!-- CsvFileWriter -->
<g id="node9" class="node"><title>CsvFileWriter</title>
<polygon fill="#ccffcc" stroke="black" points="255,-188 129,-188 129,-152 255,-152 255,-188"/>
<text text-anchor="middle" x="192" y="-166.3" font-family="Courier,monospace" font-size="14.00">CsvFileWriter</text>
</g>
<!-- OutputFile -->
<g id="node20" class="node"><title>OutputFile</title>
<path fill="#ffe4b5" stroke="black" d="M36,-79C36,-79 390,-79 390,-79 396,-79 402,-85 402,-91 402,-91 402,-103 402,-103 402,-109 396,-115 390,-115 390,-115 36,-115 36,-115 30,-115 24,-109 24,-103 24,-103 24,-91 24,-91 24,-85 30,-79 36,-79"/>
<text text-anchor="middle" x="213" y="-103.8" font-family="Courier,monospace" font-weight="bold" font-size="9.00">OutputFile</text>
<polyline fill="none" stroke="black" points="24,-97 402,-97 "/>
<text text-anchor="middle" x="213" y="-85.8" font-family="Courier,monospace" font-weight="bold" font-size="9.00">workspace_4e5367d1&#45;5718&#45;11e7&#45;a549&#45;acbc3296f741/mergedoutputfile.csv</text>
</g>
<!-- CsvFileWriter&#45;&gt;OutputFile -->
<g id="edge22" class="edge"><title>CsvFileWriter&#45;&gt;OutputFile</title>
<path fill="none" stroke="black" d="M197.084,-151.813C199.482,-143.702 202.401,-133.836 205.08,-124.777"/>
<polygon fill="black" stroke="black" points="208.483,-125.611 207.963,-115.029 201.771,-123.625 208.483,-125.611"/>
</g>
<!-- Workspace&#45;&gt;CsvFileWriter -->
<g id="edge9" class="edge"><title>Workspace&#45;&gt;CsvFileWriter</title>
<path fill="none" stroke="black" d="M62.9409,-871.684C55.6358,-845.11 43,-792.558 43,-747 43,-747 43,-747 43,-313 43,-256.62 99.5973,-215.798 143.028,-192.772"/>
<polygon fill="black" stroke="black" points="144.773,-195.81 152.071,-188.129 141.576,-189.583 144.773,-195.81"/>
</g>
<!-- OccurrenceFile&#45;&gt;FileToDataStream -->
<g id="edge11" class="edge"><title>OccurrenceFile&#45;&gt;FileToDataStream</title>
<path fill="none" stroke="black" d="M192.955,-943.697C194.718,-935.983 196.837,-926.712 198.803,-918.112"/>
<polygon fill="black" stroke="black" points="202.274,-918.633 201.09,-908.104 195.45,-917.073 202.274,-918.633"/>
</g>
<!-- DataRecord&#45;&gt;EnvironmentTagger -->
<g id="edge1" class="edge"><title>DataRecord&#45;&gt;EnvironmentTagger</title>
<path fill="none" stroke="black" d="M205,-799.697C205,-791.983 205,-782.712 205,-774.112"/>
<polygon fill="black" stroke="black" points="208.5,-774.104 205,-764.104 201.5,-774.104 208.5,-774.104"/>
</g>
<!-- TaggedDataRecord&#45;&gt;FilterToJustMarine -->
<g id="edge6" class="edge"><title>TaggedDataRecord&#45;&gt;FilterToJustMarine</title>
<path fill="none" stroke="black" d="M190.416,-655.697C183.342,-647.305 174.717,-637.07 166.955,-627.861"/>
<polygon fill="black" stroke="black" points="169.537,-625.495 160.417,-620.104 164.185,-630.006 169.537,-625.495"/>
</g>
<!-- TaggedDataRecord&#45;&gt;FilterExcludingMarine -->
<g id="edge5" class="edge"><title>TaggedDataRecord&#45;&gt;FilterExcludingMarine</title>
<path fill="none" stroke="black" d="M239.248,-655.876C258.061,-646.469 281.585,-634.708 301.666,-624.667"/>
<polygon fill="black" stroke="black" points="303.241,-627.792 310.62,-620.19 300.111,-621.531 303.241,-627.792"/>
</g>
<!-- MarineDataRecord&#45;&gt;WoRMSLookup -->
<g id="edge8" class="edge"><title>MarineDataRecord&#45;&gt;WoRMSLookup</title>
<path fill="none" stroke="black" d="M158.461,-511.697C160.003,-503.983 161.858,-494.712 163.578,-486.112"/>
<polygon fill="black" stroke="black" points="167.05,-486.597 165.579,-476.104 160.186,-485.224 167.05,-486.597"/>
</g>
<!-- notMarineDataRecord&#45;&gt;GBIFLookup -->
<g id="edge10" class="edge"><title>notMarineDataRecord&#45;&gt;GBIFLookup</title>
<path fill="none" stroke="black" d="M331.292,-511.697C329.639,-503.983 327.653,-494.712 325.81,-486.112"/>
<polygon fill="black" stroke="black" points="329.183,-485.149 323.665,-476.104 322.338,-486.616 329.183,-485.149"/>
</g>
<!-- WoRMSOutput&#45;&gt;StreamMerge -->
<g id="edge12" class="edge"><title>WoRMSOutput&#45;&gt;StreamMerge</title>
<path fill="none" stroke="black" d="M176.191,-367.697C178.531,-359.898 181.347,-350.509 183.951,-341.829"/>
<polygon fill="black" stroke="black" points="187.348,-342.688 186.869,-332.104 180.643,-340.677 187.348,-342.688"/>
</g>
<!-- GBIFOutput&#45;&gt;StreamMerge -->
<g id="edge2" class="edge"><title>GBIFOutput&#45;&gt;StreamMerge</title>
<path fill="none" stroke="black" d="M277.357,-367.876C262.582,-358.724 244.209,-347.342 228.297,-337.485"/>
<polygon fill="black" stroke="black" points="230.093,-334.481 219.749,-332.19 226.407,-340.431 230.093,-334.481"/>
</g>
<!-- MergedStream&#45;&gt;CsvFileWriter -->
<g id="edge4" class="edge"><title>MergedStream&#45;&gt;CsvFileWriter</title>
<path fill="none" stroke="black" d="M192,-223.697C192,-215.983 192,-206.712 192,-198.112"/>
<polygon fill="black" stroke="black" points="195.5,-198.104 192,-188.104 188.5,-198.104 195.5,-198.104"/>
</g>
<!-- DarwinCoreFile -->
<g id="node19" class="node"><title>DarwinCoreFile</title>
<path fill="#ffe4b5" stroke="black" d="M124,-1089C124,-1089 430,-1089 430,-1089 436,-1089 442,-1095 442,-1101 442,-1101 442,-1113 442,-1113 442,-1119 436,-1125 430,-1125 430,-1125 124,-1125 124,-1125 118,-1125 112,-1119 112,-1113 112,-1113 112,-1101 112,-1101 112,-1095 118,-1089 124,-1089"/>
<text text-anchor="middle" x="277" y="-1113.8" font-family="Courier,monospace" font-weight="bold" font-size="9.00">DarwinCoreFile</text>
<polyline fill="none" stroke="black" points="112,-1107 442,-1107 "/>
<text text-anchor="middle" x="277" y="-1095.8" font-family="Courier,monospace" font-weight="bold" font-size="9.00">packages/kurator_branching/data/kurator_sample_data_v2.txt</text>
</g>
<!-- DarwinCoreFile&#45;&gt;Setup -->
<g id="edge7" class="edge"><title>DarwinCoreFile&#45;&gt;Setup</title>
<path fill="none" stroke="black" d="M239.395,-1088.99C215.048,-1077.98 183.421,-1063.68 158.835,-1052.56"/>
<polygon fill="black" stroke="black" points="160.004,-1049.25 149.45,-1048.32 157.119,-1055.63 160.004,-1049.25"/>
</g>
<!-- OutputFile_outflow -->
<g id="node24" class="node"><title>OutputFile_outflow</title>
<ellipse fill="none" stroke="black" cx="213" cy="-31" rx="7" ry="7"/>
</g>
<!-- OutputFile&#45;&gt;OutputFile_outflow -->
<g id="edge25" class="edge"><title>OutputFile&#45;&gt;OutputFile_outflow</title>
<path fill="none" stroke="black" d="M213,-78.8492C213,-69.3727 213,-57.6638 213,-48.3223"/>
<polygon fill="black" stroke="black" points="216.5,-48.1021 213,-38.1022 209.5,-48.1022 216.5,-48.1021"/>
</g>
<!-- InputFilePath -->
<g id="node21" class="node"><title>InputFilePath</title>
<path fill="#ffffff" stroke="black" d="M82,-1125C82,-1125 36,-1125 36,-1125 30,-1125 24,-1119 24,-1113 24,-1113 24,-1101 24,-1101 24,-1095 30,-1089 36,-1089 36,-1089 82,-1089 82,-1089 88,-1089 94,-1095 94,-1101 94,-1101 94,-1113 94,-1113 94,-1119 88,-1125 82,-1125"/>
<text text-anchor="middle" x="59" y="-1104.8" font-family="Helvetica,sans-Serif" font-size="9.00">InputFilePath</text>
</g>
<!-- InputFilePath&#45;&gt;Setup -->
<g id="edge3" class="edge"><title>InputFilePath&#45;&gt;Setup</title>
<path fill="none" stroke="black" d="M73.7664,-1088.81C81.2591,-1080.09 90.4964,-1069.34 98.7394,-1059.75"/>
<polygon fill="black" stroke="black" points="101.508,-1061.89 105.37,-1052.03 96.1981,-1057.33 101.508,-1061.89"/>
</g>
<!-- DarwinCoreFile_inflow -->
<g id="node22" class="node"><title>DarwinCoreFile_inflow</title>
<ellipse fill="none" stroke="black" cx="184" cy="-1173" rx="7" ry="7"/>
</g>
<!-- DarwinCoreFile_inflow&#45;&gt;DarwinCoreFile -->
<g id="edge23" class="edge"><title>DarwinCoreFile_inflow&#45;&gt;DarwinCoreFile</title>
<path fill="none" stroke="black" d="M189.267,-1168.38C199.622,-1161.25 223.384,-1144.9 243.569,-1131.01"/>
<polygon fill="black" stroke="black" points="245.698,-1133.79 251.952,-1125.24 241.73,-1128.02 245.698,-1133.79"/>
</g>
<!-- InputFilePath_inflow -->
<g id="node23" class="node"><title>InputFilePath_inflow</title>
<ellipse fill="none" stroke="black" cx="152" cy="-1173" rx="7" ry="7"/>
</g>
<!-- InputFilePath_inflow&#45;&gt;InputFilePath -->
<g id="edge24" class="edge"><title>InputFilePath_inflow&#45;&gt;InputFilePath</title>
<path fill="none" stroke="black" d="M146.138,-1168.69C136.813,-1163.36 118.11,-1152.42 103,-1142 98.1121,-1138.63 93.0334,-1134.92 88.1375,-1131.22"/>
<polygon fill="black" stroke="black" points="90.2002,-1128.39 80.1369,-1125.08 85.9373,-1133.94 90.2002,-1128.39"/>
</g>
</g>
</svg>
