<?xml version="1.0" encoding="UTF-8" standalone="no"?>
<!DOCTYPE svg PUBLIC "-//W3C//DTD SVG 1.1//EN"
 "http://www.w3.org/Graphics/SVG/1.1/DTD/svg11.dtd">
<!-- Generated by graphviz version 2.36.0 (20140111.2315)
 -->
<!-- Title: yw_data_view Pages: 1 -->
<svg width="492pt" height="1268pt"
 viewBox="0.00 0.00 492.00 1268.00" xmlns="http://www.w3.org/2000/svg" xmlns:xlink="http://www.w3.org/1999/xlink">
<g id="graph0" class="graph" transform="scale(1 1) rotate(0) translate(4 1264)">
<title>yw_data_view</title>
<polygon fill="white" stroke="none" points="-4,4 -4,-1264 488,-1264 488,4 -4,4"/>
<text text-anchor="middle" x="242" y="-1241.6" font-family="Courier,monospace" font-size="18.00">BranchingWorkflow</text>
<g id="clust3" class="cluster"><title>cluster_inflows</title>
<polygon fill="none" stroke="white" stroke-width="2" points="138,-1178 138,-1224 216,-1224 216,-1178 138,-1178"/>
</g>
<g id="clust4" class="cluster"><title>cluster_inflows_inner</title>
<polygon fill="none" stroke="white" stroke-width="2" points="146,-1186 146,-1216 208,-1216 208,-1186 146,-1186"/>
</g>
<g id="clust5" class="cluster"><title>cluster_outflows</title>
<polygon fill="none" stroke="white" stroke-width="2" points="282,-8 282,-54 360,-54 360,-8 282,-8"/>
</g>
<g id="clust6" class="cluster"><title>cluster_outflows_inner</title>
<polygon fill="none" stroke="white" stroke-width="2" points="290,-16 290,-46 352,-46 352,-16 290,-16"/>
</g>
<g id="clust1" class="cluster"><title>cluster_workflow</title>
<polygon fill="none" stroke="black" stroke-width="2" points="8,-62 8,-1170 476,-1170 476,-62 8,-62"/>
</g>
<g id="clust2" class="cluster"><title>cluster_workflow_inner</title>
<polygon fill="none" stroke="white" stroke-width="2" points="16,-70 16,-1162 468,-1162 468,-70 16,-70"/>
</g>
<!-- FilterExcludingMarine -->
<g id="node1" class="node"><title>FilterExcludingMarine</title>
<polygon fill="#d6d6d7" stroke="black" points="245.25,-644 52.75,-644 52.75,-608 245.25,-608 245.25,-644"/>
<text text-anchor="middle" x="149" y="-622.3" font-family="Courier,monospace" font-size="14.00">FilterExcludingMarine</text>
</g>
<!-- notMarineDataRecord -->
<g id="node10" class="node"><title>notMarineDataRecord</title>
<path fill="#d6d6d7" stroke="black" d="M56.5,-524.5C56.5,-524.5 185.5,-524.5 185.5,-524.5 191.5,-524.5 197.5,-530.5 197.5,-536.5 197.5,-536.5 197.5,-559.5 197.5,-559.5 197.5,-565.5 191.5,-571.5 185.5,-571.5 185.5,-571.5 56.5,-571.5 56.5,-571.5 50.5,-571.5 44.5,-565.5 44.5,-559.5 44.5,-559.5 44.5,-536.5 44.5,-536.5 44.5,-530.5 50.5,-524.5 56.5,-524.5"/>
<text text-anchor="middle" x="121" y="-556.3" font-family="Helvetica,sans-Serif" font-size="14.00">notMarineDataRecord</text>
<polyline fill="none" stroke="black" points="44.5,-548.5 197.5,-548.5 "/>
</g>
<!-- FilterExcludingMarine&#45;&gt;notMarineDataRecord -->
<g id="edge21" class="edge"><title>FilterExcludingMarine&#45;&gt;notMarineDataRecord</title>
<path fill="none" stroke="black" d="M142.646,-607.754C139.755,-599.907 136.236,-590.356 132.883,-581.255"/>
<polygon fill="black" stroke="black" points="136.089,-579.831 129.348,-571.658 129.521,-582.251 136.089,-579.831"/>
</g>
<!-- LogFile -->
<g id="node20" class="node"><title>LogFile</title>
<path fill="#ffe4b5" stroke="black" d="M379.5,-374C379.5,-374 426.5,-374 426.5,-374 432.5,-374 438.5,-380 438.5,-386 438.5,-386 438.5,-398 438.5,-398 438.5,-404 432.5,-410 426.5,-410 426.5,-410 379.5,-410 379.5,-410 373.5,-410 367.5,-404 367.5,-398 367.5,-398 367.5,-386 367.5,-386 367.5,-380 373.5,-374 379.5,-374"/>
<text text-anchor="middle" x="403" y="-398.8" font-family="Courier,monospace" font-weight="bold" font-size="9.00">LogFile</text>
<polyline fill="none" stroke="black" points="367.5,-392 438.5,-392 "/>
<text text-anchor="middle" x="403" y="-380.8" font-family="Courier,monospace" font-weight="bold" font-size="9.00">runlog.log</text>
</g>
<!-- FilterExcludingMarine&#45;&gt;LogFile -->
<g id="edge20" class="edge"><title>FilterExcludingMarine&#45;&gt;LogFile</title>
<path fill="none" stroke="black" d="M171.381,-607.924C182.848,-598.32 196.382,-585.555 206,-572 219.474,-553.009 217.007,-545.032 227,-524 242.44,-491.503 237.645,-476.491 264,-452 278.306,-438.706 323.043,-420.901 357.943,-408.339"/>
<polygon fill="black" stroke="black" points="359.243,-411.592 367.492,-404.944 356.897,-404.997 359.243,-411.592"/>
</g>
<!-- GBIFLookup -->
<g id="node2" class="node"><title>GBIFLookup</title>
<polygon fill="#d6d6d7" stroke="black" points="197.25,-488 96.75,-488 96.75,-452 197.25,-452 197.25,-488"/>
<text text-anchor="middle" x="147" y="-466.3" font-family="Courier,monospace" font-size="14.00">GBIFLookup</text>
</g>
<!-- GBIFOutput -->
<g id="node11" class="node"><title>GBIFOutput</title>
<path fill="#d6d6d7" stroke="black" d="M133.5,-368.5C133.5,-368.5 200.5,-368.5 200.5,-368.5 206.5,-368.5 212.5,-374.5 212.5,-380.5 212.5,-380.5 212.5,-403.5 212.5,-403.5 212.5,-409.5 206.5,-415.5 200.5,-415.5 200.5,-415.5 133.5,-415.5 133.5,-415.5 127.5,-415.5 121.5,-409.5 121.5,-403.5 121.5,-403.5 121.5,-380.5 121.5,-380.5 121.5,-374.5 127.5,-368.5 133.5,-368.5"/>
<text text-anchor="middle" x="167" y="-400.3" font-family="Helvetica,sans-Serif" font-size="14.00">GBIFOutput</text>
<polyline fill="none" stroke="black" points="121.5,-392.5 212.5,-392.5 "/>
</g>
<!-- GBIFLookup&#45;&gt;GBIFOutput -->
<g id="edge25" class="edge"><title>GBIFLookup&#45;&gt;GBIFOutput</title>
<path fill="none" stroke="black" d="M151.538,-451.754C153.581,-443.99 156.063,-434.559 158.435,-425.545"/>
<polygon fill="black" stroke="black" points="161.877,-426.219 161.037,-415.658 155.108,-424.438 161.877,-426.219"/>
</g>
<!-- GBIFLookup&#45;&gt;LogFile -->
<g id="edge24" class="edge"><title>GBIFLookup&#45;&gt;LogFile</title>
<path fill="none" stroke="black" d="M197.37,-455.718C235.579,-445.439 289.311,-430.547 336,-416 343.023,-413.812 350.422,-411.391 357.637,-408.965"/>
<polygon fill="black" stroke="black" points="358.97,-412.209 367.31,-405.675 356.716,-405.581 358.97,-412.209"/>
</g>
<!-- Setup -->
<g id="node3" class="node"><title>Setup</title>
<polygon fill="#ccffcc" stroke="black" points="119.25,-1080 60.75,-1080 60.75,-1044 119.25,-1044 119.25,-1080"/>
<text text-anchor="middle" x="90" y="-1058.3" font-family="Courier,monospace" font-size="14.00">Setup</text>
</g>
<!-- Workspace -->
<g id="node17" class="node"><title>Workspace</title>
<path fill="#ffffcc" stroke="black" d="M83,-936C83,-936 45,-936 45,-936 39,-936 33,-930 33,-924 33,-924 33,-912 33,-912 33,-906 39,-900 45,-900 45,-900 83,-900 83,-900 89,-900 95,-906 95,-912 95,-912 95,-924 95,-924 95,-930 89,-936 83,-936"/>
<text text-anchor="middle" x="64" y="-915.8" font-family="Helvetica,sans-Serif" font-size="9.00">Workspace</text>
</g>
<!-- Setup&#45;&gt;Workspace -->
<g id="edge13" class="edge"><title>Setup&#45;&gt;Workspace</title>
<path fill="none" stroke="black" d="M86.8638,-1043.87C82.4326,-1019.67 74.2921,-975.211 69.0157,-946.393"/>
<polygon fill="black" stroke="black" points="72.3912,-945.395 67.1473,-936.189 65.5057,-946.656 72.3912,-945.395"/>
</g>
<!-- OccurrenceFile -->
<g id="node18" class="node"><title>OccurrenceFile</title>
<path fill="#ffffcc" stroke="black" d="M199,-1008C199,-1008 145,-1008 145,-1008 139,-1008 133,-1002 133,-996 133,-996 133,-984 133,-984 133,-978 139,-972 145,-972 145,-972 199,-972 199,-972 205,-972 211,-978 211,-984 211,-984 211,-996 211,-996 211,-1002 205,-1008 199,-1008"/>
<text text-anchor="middle" x="172" y="-987.8" font-family="Helvetica,sans-Serif" font-size="9.00">OccurrenceFile</text>
</g>
<!-- Setup&#45;&gt;OccurrenceFile -->
<g id="edge14" class="edge"><title>Setup&#45;&gt;OccurrenceFile</title>
<path fill="none" stroke="black" d="M110.27,-1043.7C120.498,-1034.97 133.061,-1024.24 144.178,-1014.75"/>
<polygon fill="black" stroke="black" points="146.63,-1017.26 151.963,-1008.1 142.085,-1011.94 146.63,-1017.26"/>
</g>
<!-- FileToDataStream -->
<g id="node4" class="node"><title>FileToDataStream</title>
<polygon fill="#ccffcc" stroke="black" points="347.25,-936 196.75,-936 196.75,-900 347.25,-900 347.25,-936"/>
<text text-anchor="middle" x="272" y="-914.3" font-family="Courier,monospace" font-size="14.00">FileToDataStream</text>
</g>
<!-- DataRecord -->
<g id="node12" class="node"><title>DataRecord</title>
<path fill="#f8d2db" stroke="black" d="M256,-827C256,-827 330,-827 330,-827 336,-827 342,-833 342,-839 342,-839 342,-851 342,-851 342,-857 336,-863 330,-863 330,-863 256,-863 256,-863 250,-863 244,-857 244,-851 244,-851 244,-839 244,-839 244,-833 250,-827 256,-827"/>
<text text-anchor="middle" x="293" y="-851.8" font-family="Courier,monospace" font-weight="bold" font-size="9.00">DataRecord</text>
<polyline fill="none" stroke="black" points="244,-845 342,-845 "/>
<text text-anchor="middle" x="293" y="-833.8" font-family="Courier,monospace" font-weight="bold" font-size="9.00">MCZ:Mala:120797</text>
</g>
<!-- FileToDataStream&#45;&gt;DataRecord -->
<g id="edge15" class="edge"><title>FileToDataStream&#45;&gt;DataRecord</title>
<path fill="none" stroke="black" d="M277.084,-899.813C279.482,-891.702 282.401,-881.836 285.08,-872.777"/>
<polygon fill="black" stroke="black" points="288.483,-873.611 287.963,-863.029 281.771,-871.625 288.483,-873.611"/>
</g>
<!-- EnvironmentTagger -->
<g id="node5" class="node"><title>EnvironmentTagger</title>
<polygon fill="#ccffcc" stroke="black" points="414.25,-790 255.75,-790 255.75,-754 414.25,-754 414.25,-790"/>
<text text-anchor="middle" x="335" y="-768.3" font-family="Courier,monospace" font-size="14.00">EnvironmentTagger</text>
</g>
<!-- TaggedDataRecord -->
<g id="node13" class="node"><title>TaggedDataRecord</title>
<path fill="#f8d2db" stroke="black" d="M295.5,-681C295.5,-681 374.5,-681 374.5,-681 380.5,-681 386.5,-687 386.5,-693 386.5,-693 386.5,-705 386.5,-705 386.5,-711 380.5,-717 374.5,-717 374.5,-717 295.5,-717 295.5,-717 289.5,-717 283.5,-711 283.5,-705 283.5,-705 283.5,-693 283.5,-693 283.5,-687 289.5,-681 295.5,-681"/>
<text text-anchor="middle" x="335" y="-705.8" font-family="Courier,monospace" font-weight="bold" font-size="9.00">TaggedDataRecord</text>
<polyline fill="none" stroke="black" points="283.5,-699 386.5,-699 "/>
<text text-anchor="middle" x="335" y="-687.8" font-family="Courier,monospace" font-weight="bold" font-size="9.00">Marine</text>
</g>
<!-- EnvironmentTagger&#45;&gt;TaggedDataRecord -->
<g id="edge17" class="edge"><title>EnvironmentTagger&#45;&gt;TaggedDataRecord</title>
<path fill="none" stroke="black" d="M335,-753.813C335,-745.789 335,-736.047 335,-727.069"/>
<polygon fill="black" stroke="black" points="338.5,-727.029 335,-717.029 331.5,-727.029 338.5,-727.029"/>
</g>
<!-- EnvironmentTagger&#45;&gt;LogFile -->
<g id="edge16" class="edge"><title>EnvironmentTagger&#45;&gt;LogFile</title>
<path fill="none" stroke="black" d="M365.017,-753.811C401.715,-730.3 459,-684.405 459,-627 459,-627 459,-627 459,-547 459,-503.852 454.911,-492.107 439,-452 434.46,-440.557 427.777,-428.81 421.398,-418.841"/>
<polygon fill="black" stroke="black" points="424.14,-416.642 415.695,-410.244 418.307,-420.512 424.14,-416.642"/>
</g>
<!-- FilterToJustMarine -->
<g id="node6" class="node"><title>FilterToJustMarine</title>
<polygon fill="#ccffcc" stroke="black" points="432,-644 264,-644 264,-608 432,-608 432,-644"/>
<text text-anchor="middle" x="348" y="-622.3" font-family="Courier,monospace" font-size="14.00">FilterToJustMarine</text>
</g>
<!-- MarineDataRecord -->
<g id="node14" class="node"><title>MarineDataRecord</title>
<path fill="#f8d2db" stroke="black" d="M248,-530C248,-530 408,-530 408,-530 414,-530 420,-536 420,-542 420,-542 420,-554 420,-554 420,-560 414,-566 408,-566 408,-566 248,-566 248,-566 242,-566 236,-560 236,-554 236,-554 236,-542 236,-542 236,-536 242,-530 248,-530"/>
<text text-anchor="middle" x="328" y="-554.8" font-family="Courier,monospace" font-weight="bold" font-size="9.00">MarineDataRecord</text>
<polyline fill="none" stroke="black" points="236,-548 420,-548 "/>
<text text-anchor="middle" x="328" y="-536.8" font-family="Courier,monospace" font-weight="bold" font-size="9.00">Teredora malleolus:Turton, 1822</text>
</g>
<!-- FilterToJustMarine&#45;&gt;MarineDataRecord -->
<g id="edge19" class="edge"><title>FilterToJustMarine&#45;&gt;MarineDataRecord</title>
<path fill="none" stroke="black" d="M343.462,-607.754C341.007,-598.426 337.919,-586.691 335.149,-576.165"/>
<polygon fill="black" stroke="black" points="338.45,-574.957 332.52,-566.177 331.681,-576.739 338.45,-574.957"/>
</g>
<!-- FilterToJustMarine&#45;&gt;LogFile -->
<g id="edge18" class="edge"><title>FilterToJustMarine&#45;&gt;LogFile</title>
<path fill="none" stroke="black" d="M390.112,-607.874C405.184,-599.45 420.527,-587.67 429,-572 455.418,-523.143 432.921,-456.352 416.489,-419.73"/>
<polygon fill="black" stroke="black" points="419.461,-417.822 412.061,-410.24 413.118,-420.782 419.461,-417.822"/>
</g>
<!-- WoRMSLookup -->
<g id="node7" class="node"><title>WoRMSLookup</title>
<polygon fill="#ccffcc" stroke="black" points="382.25,-488 273.75,-488 273.75,-452 382.25,-452 382.25,-488"/>
<text text-anchor="middle" x="328" y="-466.3" font-family="Courier,monospace" font-size="14.00">WoRMSLookup</text>
</g>
<!-- WoRMSOutput -->
<g id="node15" class="node"><title>WoRMSOutput</title>
<path fill="#f8d2db" stroke="black" d="M263,-374C263,-374 315,-374 315,-374 321,-374 327,-380 327,-386 327,-386 327,-398 327,-398 327,-404 321,-410 315,-410 315,-410 263,-410 263,-410 257,-410 251,-404 251,-398 251,-398 251,-386 251,-386 251,-380 257,-374 263,-374"/>
<text text-anchor="middle" x="289" y="-398.8" font-family="Courier,monospace" font-weight="bold" font-size="9.00">WoRMSOutput</text>
<polyline fill="none" stroke="black" points="251,-392 327,-392 "/>
<text text-anchor="middle" x="289" y="-380.8" font-family="Courier,monospace" font-weight="bold" font-size="9.00">null</text>
</g>
<!-- WoRMSLookup&#45;&gt;WoRMSOutput -->
<g id="edge23" class="edge"><title>WoRMSLookup&#45;&gt;WoRMSOutput</title>
<path fill="none" stroke="black" d="M319.15,-451.754C314.214,-442.135 307.964,-429.955 302.436,-419.182"/>
<polygon fill="black" stroke="black" points="305.494,-417.476 297.815,-410.177 299.266,-420.672 305.494,-417.476"/>
</g>
<!-- WoRMSLookup&#45;&gt;LogFile -->
<g id="edge22" class="edge"><title>WoRMSLookup&#45;&gt;LogFile</title>
<path fill="none" stroke="black" d="M345.019,-451.754C354.991,-441.649 367.752,-428.718 378.762,-417.561"/>
<polygon fill="black" stroke="black" points="381.516,-419.754 386.049,-410.177 376.533,-414.837 381.516,-419.754"/>
</g>
<!-- StreamMerge -->
<g id="node8" class="node"><title>StreamMerge</title>
<polygon fill="#ccffcc" stroke="black" points="244.25,-332 135.75,-332 135.75,-296 244.25,-296 244.25,-332"/>
<text text-anchor="middle" x="190" y="-310.3" font-family="Courier,monospace" font-size="14.00">StreamMerge</text>
</g>
<!-- MergedStream -->
<g id="node19" class="node"><title>MergedStream</title>
<path fill="#ffffcc" stroke="black" d="M216,-260C216,-260 164,-260 164,-260 158,-260 152,-254 152,-248 152,-248 152,-236 152,-236 152,-230 158,-224 164,-224 164,-224 216,-224 216,-224 222,-224 228,-230 228,-236 228,-236 228,-248 228,-248 228,-254 222,-260 216,-260"/>
<text text-anchor="middle" x="190" y="-239.8" font-family="Helvetica,sans-Serif" font-size="9.00">MergedStream</text>
</g>
<!-- StreamMerge&#45;&gt;MergedStream -->
<g id="edge26" class="edge"><title>StreamMerge&#45;&gt;MergedStream</title>
<path fill="none" stroke="black" d="M190,-295.697C190,-287.983 190,-278.712 190,-270.112"/>
<polygon fill="black" stroke="black" points="193.5,-270.104 190,-260.104 186.5,-270.104 193.5,-270.104"/>
</g>
<!-- CsvFileWriter -->
<g id="node9" class="node"><title>CsvFileWriter</title>
<polygon fill="#ccffcc" stroke="black" points="253,-188 127,-188 127,-152 253,-152 253,-188"/>
<text text-anchor="middle" x="190" y="-166.3" font-family="Courier,monospace" font-size="14.00">CsvFileWriter</text>
</g>
<!-- OutputFile -->
<g id="node21" class="node"><title>OutputFile</title>
<path fill="#ffe4b5" stroke="black" d="M36,-79C36,-79 390,-79 390,-79 396,-79 402,-85 402,-91 402,-91 402,-103 402,-103 402,-109 396,-115 390,-115 390,-115 36,-115 36,-115 30,-115 24,-109 24,-103 24,-103 24,-91 24,-91 24,-85 30,-79 36,-79"/>
<text text-anchor="middle" x="213" y="-103.8" font-family="Courier,monospace" font-weight="bold" font-size="9.00">OutputFile</text>
<polyline fill="none" stroke="black" points="24,-97 402,-97 "/>
<text text-anchor="middle" x="213" y="-85.8" font-family="Courier,monospace" font-weight="bold" font-size="9.00">workspace_4e5367d1&#45;5718&#45;11e7&#45;a549&#45;acbc3296f741/mergedoutputfile.csv</text>
</g>
<!-- CsvFileWriter&#45;&gt;OutputFile -->
<g id="edge27" class="edge"><title>CsvFileWriter&#45;&gt;OutputFile</title>
<path fill="none" stroke="black" d="M195.568,-151.813C198.195,-143.702 201.391,-133.836 204.326,-124.777"/>
<polygon fill="black" stroke="black" points="207.731,-125.621 207.484,-115.029 201.072,-123.463 207.731,-125.621"/>
</g>
<!-- notMarineDataRecord&#45;&gt;GBIFLookup -->
<g id="edge9" class="edge"><title>notMarineDataRecord&#45;&gt;GBIFLookup</title>
<path fill="none" stroke="black" d="M128.801,-524.197C131.639,-515.901 134.873,-506.447 137.82,-497.834"/>
<polygon fill="black" stroke="black" points="141.181,-498.822 141.106,-488.228 134.558,-496.556 141.181,-498.822"/>
</g>
<!-- GBIFOutput&#45;&gt;StreamMerge -->
<g id="edge11" class="edge"><title>GBIFOutput&#45;&gt;StreamMerge</title>
<path fill="none" stroke="black" d="M173.901,-368.197C176.412,-359.901 179.273,-350.447 181.879,-341.834"/>
<polygon fill="black" stroke="black" points="185.24,-342.813 184.786,-332.228 178.54,-340.785 185.24,-342.813"/>
</g>
<!-- DataRecord&#45;&gt;EnvironmentTagger -->
<g id="edge5" class="edge"><title>DataRecord&#45;&gt;EnvironmentTagger</title>
<path fill="none" stroke="black" d="M303.167,-826.813C308.12,-818.441 314.179,-808.197 319.677,-798.903"/>
<polygon fill="black" stroke="black" points="322.848,-800.418 324.927,-790.029 316.823,-796.854 322.848,-800.418"/>
</g>
<!-- TaggedDataRecord&#45;&gt;FilterExcludingMarine -->
<g id="edge7" class="edge"><title>TaggedDataRecord&#45;&gt;FilterExcludingMarine</title>
<path fill="none" stroke="black" d="M290.448,-680.994C264.299,-671.012 231.059,-658.324 203.373,-647.755"/>
<polygon fill="black" stroke="black" points="204.423,-644.41 193.833,-644.114 201.927,-650.95 204.423,-644.41"/>
</g>
<!-- TaggedDataRecord&#45;&gt;FilterToJustMarine -->
<g id="edge6" class="edge"><title>TaggedDataRecord&#45;&gt;FilterToJustMarine</title>
<path fill="none" stroke="black" d="M338.147,-680.813C339.616,-672.789 341.4,-663.047 343.044,-654.069"/>
<polygon fill="black" stroke="black" points="346.524,-654.496 344.882,-644.029 339.638,-653.235 346.524,-654.496"/>
</g>
<!-- MarineDataRecord&#45;&gt;WoRMSLookup -->
<g id="edge8" class="edge"><title>MarineDataRecord&#45;&gt;WoRMSLookup</title>
<path fill="none" stroke="black" d="M328,-529.754C328,-520.523 328,-508.935 328,-498.495"/>
<polygon fill="black" stroke="black" points="331.5,-498.177 328,-488.177 324.5,-498.177 331.5,-498.177"/>
</g>
<!-- WoRMSOutput&#45;&gt;StreamMerge -->
<g id="edge10" class="edge"><title>WoRMSOutput&#45;&gt;StreamMerge</title>
<path fill="none" stroke="black" d="M266.535,-373.754C252.865,-363.26 235.226,-349.719 220.328,-338.282"/>
<polygon fill="black" stroke="black" points="222.439,-335.49 212.376,-332.177 218.177,-341.043 222.439,-335.49"/>
</g>
<!-- DarwinCoreFile -->
<g id="node16" class="node"><title>DarwinCoreFile</title>
<path fill="#ffe4b5" stroke="black" d="M133,-1117C133,-1117 439,-1117 439,-1117 445,-1117 451,-1123 451,-1129 451,-1129 451,-1141 451,-1141 451,-1147 445,-1153 439,-1153 439,-1153 133,-1153 133,-1153 127,-1153 121,-1147 121,-1141 121,-1141 121,-1129 121,-1129 121,-1123 127,-1117 133,-1117"/>
<text text-anchor="middle" x="286" y="-1141.8" font-family="Courier,monospace" font-weight="bold" font-size="9.00">DarwinCoreFile</text>
<polyline fill="none" stroke="black" points="121,-1135 451,-1135 "/>
<text text-anchor="middle" x="286" y="-1123.8" font-family="Courier,monospace" font-weight="bold" font-size="9.00">packages/kurator_branching/data/kurator_sample_data_v2.txt</text>
</g>
<!-- DarwinCoreFile&#45;&gt;Setup -->
<g id="edge2" class="edge"><title>DarwinCoreFile&#45;&gt;Setup</title>
<path fill="none" stroke="black" d="M239.053,-1116.99C205.534,-1104.85 160.96,-1088.7 129.313,-1077.24"/>
<polygon fill="black" stroke="black" points="130.116,-1073.81 119.522,-1073.69 127.732,-1080.39 130.116,-1073.81"/>
</g>
<!-- Workspace&#45;&gt;CsvFileWriter -->
<g id="edge3" class="edge"><title>Workspace&#45;&gt;CsvFileWriter</title>
<path fill="none" stroke="black" d="M56.1078,-899.676C44.7119,-873.035 25,-820.139 25,-773 25,-773 25,-773 25,-313 25,-254.184 85.9765,-214.401 133.793,-192.246"/>
<polygon fill="black" stroke="black" points="135.464,-195.332 143.159,-188.049 132.602,-188.944 135.464,-195.332"/>
</g>
<!-- OccurrenceFile&#45;&gt;FileToDataStream -->
<g id="edge4" class="edge"><title>OccurrenceFile&#45;&gt;FileToDataStream</title>
<path fill="none" stroke="black" d="M196.463,-971.876C209.296,-962.893 225.196,-951.763 239.094,-942.034"/>
<polygon fill="black" stroke="black" points="241.258,-944.792 247.443,-936.19 237.244,-939.057 241.258,-944.792"/>
</g>
<!-- MergedStream&#45;&gt;CsvFileWriter -->
<g id="edge12" class="edge"><title>MergedStream&#45;&gt;CsvFileWriter</title>
<path fill="none" stroke="black" d="M190,-223.697C190,-215.983 190,-206.712 190,-198.112"/>
<polygon fill="black" stroke="black" points="193.5,-198.104 190,-188.104 186.5,-198.104 193.5,-198.104"/>
</g>
<!-- LogFile_outflow -->
<g id="node25" class="node"><title>LogFile_outflow</title>
<ellipse fill="none" stroke="black" cx="337" cy="-31" rx="7" ry="7"/>
</g>
<!-- LogFile&#45;&gt;LogFile_outflow -->
<g id="edge30" class="edge"><title>LogFile&#45;&gt;LogFile_outflow</title>
<path fill="none" stroke="black" d="M408.206,-373.869C416.052,-346.49 430,-291.058 430,-243 430,-243 430,-243 430,-169 430,-120.701 441.396,-99.5354 411,-62 396.965,-44.6684 371.346,-37.2725 354.245,-34.1692"/>
<polygon fill="black" stroke="black" points="354.422,-30.6567 344.014,-32.6371 353.386,-37.5795 354.422,-30.6567"/>
</g>
<!-- OutputFile_outflow -->
<g id="node26" class="node"><title>OutputFile_outflow</title>
<ellipse fill="none" stroke="black" cx="305" cy="-31" rx="7" ry="7"/>
</g>
<!-- OutputFile&#45;&gt;OutputFile_outflow -->
<g id="edge31" class="edge"><title>OutputFile&#45;&gt;OutputFile_outflow</title>
<path fill="none" stroke="black" d="M237.654,-78.8492C254.78,-66.9359 276.977,-51.4945 291.108,-41.6639"/>
<polygon fill="black" stroke="black" points="293.231,-44.4507 299.441,-35.8668 289.234,-38.7043 293.231,-44.4507"/>
</g>
<!-- InputFilePath -->
<g id="node22" class="node"><title>InputFilePath</title>
<path fill="#ffffff" stroke="black" d="M91,-1153C91,-1153 45,-1153 45,-1153 39,-1153 33,-1147 33,-1141 33,-1141 33,-1129 33,-1129 33,-1123 39,-1117 45,-1117 45,-1117 91,-1117 91,-1117 97,-1117 103,-1123 103,-1129 103,-1129 103,-1141 103,-1141 103,-1147 97,-1153 91,-1153"/>
<text text-anchor="middle" x="68" y="-1132.8" font-family="Helvetica,sans-Serif" font-size="9.00">InputFilePath</text>
</g>
<!-- InputFilePath&#45;&gt;Setup -->
<g id="edge1" class="edge"><title>InputFilePath&#45;&gt;Setup</title>
<path fill="none" stroke="black" d="M73.3256,-1116.81C75.8387,-1108.7 78.896,-1098.84 81.703,-1089.78"/>
<polygon fill="black" stroke="black" points="85.1068,-1090.62 84.7235,-1080.03 78.4204,-1088.54 85.1068,-1090.62"/>
</g>
<!-- DarwinCoreFile_inflow -->
<g id="node23" class="node"><title>DarwinCoreFile_inflow</title>
<ellipse fill="none" stroke="black" cx="193" cy="-1201" rx="7" ry="7"/>
</g>
<!-- DarwinCoreFile_inflow&#45;&gt;DarwinCoreFile -->
<g id="edge28" class="edge"><title>DarwinCoreFile_inflow&#45;&gt;DarwinCoreFile</title>
<path fill="none" stroke="black" d="M198.267,-1196.38C208.622,-1189.25 232.384,-1172.9 252.569,-1159.01"/>
<polygon fill="black" stroke="black" points="254.698,-1161.79 260.952,-1153.24 250.73,-1156.02 254.698,-1161.79"/>
</g>
<!-- InputFilePath_inflow -->
<g id="node24" class="node"><title>InputFilePath_inflow</title>
<ellipse fill="none" stroke="black" cx="161" cy="-1201" rx="7" ry="7"/>
</g>
<!-- InputFilePath_inflow&#45;&gt;InputFilePath -->
<g id="edge29" class="edge"><title>InputFilePath_inflow&#45;&gt;InputFilePath</title>
<path fill="none" stroke="black" d="M155.138,-1196.69C145.813,-1191.36 127.11,-1180.42 112,-1170 107.112,-1166.63 102.033,-1162.92 97.1375,-1159.22"/>
<polygon fill="black" stroke="black" points="99.2002,-1156.39 89.1369,-1153.08 94.9373,-1161.94 99.2002,-1156.39"/>
</g>
</g>
</svg>
