<?xml version="1.0" encoding="UTF-8" standalone="no"?>
<!DOCTYPE svg PUBLIC "-//W3C//DTD SVG 1.1//EN"
 "http://www.w3.org/Graphics/SVG/1.1/DTD/svg11.dtd">
<!-- Generated by graphviz version 2.36.0 (20140111.2315)
 -->
<!-- Title: yw_data_view Pages: 1 -->
<svg width="476pt" height="1242pt"
 viewBox="0.00 0.00 476.00 1242.00" xmlns="http://www.w3.org/2000/svg" xmlns:xlink="http://www.w3.org/1999/xlink">
<g id="graph0" class="graph" transform="scale(1 1) rotate(0) translate(4 1238)">
<title>yw_data_view</title>
<polygon fill="white" stroke="none" points="-4,4 -4,-1238 472,-1238 472,4 -4,4"/>
<text text-anchor="middle" x="234" y="-1215.6" font-family="Courier,monospace" font-size="18.00">BranchingWorkflow</text>
<g id="clust1" class="cluster"><title>cluster_workflow</title>
<polygon fill="none" stroke="black" stroke-width="2" points="8,-62 8,-1144 460,-1144 460,-62 8,-62"/>
</g>
<g id="clust2" class="cluster"><title>cluster_workflow_inner</title>
<polygon fill="none" stroke="white" stroke-width="2" points="16,-70 16,-1136 452,-1136 452,-70 16,-70"/>
</g>
<g id="clust3" class="cluster"><title>cluster_inflows</title>
<polygon fill="none" stroke="white" stroke-width="2" points="130,-1152 130,-1198 208,-1198 208,-1152 130,-1152"/>
</g>
<g id="clust4" class="cluster"><title>cluster_inflows_inner</title>
<polygon fill="none" stroke="white" stroke-width="2" points="138,-1160 138,-1190 200,-1190 200,-1160 138,-1160"/>
</g>
<g id="clust5" class="cluster"><title>cluster_outflows</title>
<polygon fill="none" stroke="white" stroke-width="2" points="282,-8 282,-54 360,-54 360,-8 282,-8"/>
</g>
<g id="clust6" class="cluster"><title>cluster_outflows_inner</title>
<polygon fill="none" stroke="white" stroke-width="2" points="290,-16 290,-46 352,-46 352,-16 290,-16"/>
</g>
<!-- Setup -->
<g id="node1" class="node"><title>Setup</title>
<polygon fill="#ccffcc" stroke="black" points="115.25,-1054 56.75,-1054 56.75,-1018 115.25,-1018 115.25,-1054"/>
<text text-anchor="middle" x="86" y="-1032.3" font-family="Courier,monospace" font-size="14.00">Setup</text>
</g>
<!-- Workspace -->
<g id="node11" class="node"><title>Workspace</title>
<path fill="#ffffcc" stroke="black" d="M82,-910C82,-910 44,-910 44,-910 38,-910 32,-904 32,-898 32,-898 32,-886 32,-886 32,-880 38,-874 44,-874 44,-874 82,-874 82,-874 88,-874 94,-880 94,-886 94,-886 94,-898 94,-898 94,-904 88,-910 82,-910"/>
<text text-anchor="middle" x="63" y="-889.8" font-family="Helvetica,sans-Serif" font-size="9.00">Workspace</text>
</g>
<!-- Setup&#45;&gt;Workspace -->
<g id="edge13" class="edge"><title>Setup&#45;&gt;Workspace</title>
<path fill="none" stroke="black" d="M83.2257,-1017.87C79.3057,-993.67 72.1046,-949.211 67.4369,-920.393"/>
<polygon fill="black" stroke="black" points="70.8381,-919.501 65.7842,-910.189 63.9282,-920.62 70.8381,-919.501"/>
</g>
<!-- OccurrenceFile -->
<g id="node12" class="node"><title>OccurrenceFile</title>
<path fill="#ffffcc" stroke="black" d="M196,-982C196,-982 142,-982 142,-982 136,-982 130,-976 130,-970 130,-970 130,-958 130,-958 130,-952 136,-946 142,-946 142,-946 196,-946 196,-946 202,-946 208,-952 208,-958 208,-958 208,-970 208,-970 208,-976 202,-982 196,-982"/>
<text text-anchor="middle" x="169" y="-961.8" font-family="Helvetica,sans-Serif" font-size="9.00">OccurrenceFile</text>
</g>
<!-- Setup&#45;&gt;OccurrenceFile -->
<g id="edge14" class="edge"><title>Setup&#45;&gt;OccurrenceFile</title>
<path fill="none" stroke="black" d="M106.517,-1017.7C116.869,-1008.97 129.586,-998.24 140.839,-988.75"/>
<polygon fill="black" stroke="black" points="143.331,-991.227 148.719,-982.104 138.818,-985.876 143.331,-991.227"/>
</g>
<!-- FileToDataStream -->
<g id="node2" class="node"><title>FileToDataStream</title>
<polygon fill="#ccffcc" stroke="black" points="332.25,-910 181.75,-910 181.75,-874 332.25,-874 332.25,-910"/>
<text text-anchor="middle" x="257" y="-888.3" font-family="Courier,monospace" font-size="14.00">FileToDataStream</text>
</g>
<!-- DataRecord -->
<g id="node13" class="node"><title>DataRecord</title>
<path fill="#ffffcc" stroke="black" d="M294.25,-838C294.25,-838 253.75,-838 253.75,-838 247.75,-838 241.75,-832 241.75,-826 241.75,-826 241.75,-814 241.75,-814 241.75,-808 247.75,-802 253.75,-802 253.75,-802 294.25,-802 294.25,-802 300.25,-802 306.25,-808 306.25,-814 306.25,-814 306.25,-826 306.25,-826 306.25,-832 300.25,-838 294.25,-838"/>
<text text-anchor="middle" x="274" y="-817.8" font-family="Helvetica,sans-Serif" font-size="9.00">DataRecord</text>
</g>
<!-- FileToDataStream&#45;&gt;DataRecord -->
<g id="edge15" class="edge"><title>FileToDataStream&#45;&gt;DataRecord</title>
<path fill="none" stroke="black" d="M261.202,-873.697C263.096,-865.898 265.377,-856.509 267.484,-847.829"/>
<polygon fill="black" stroke="black" points="270.887,-848.648 269.846,-838.104 264.085,-846.996 270.887,-848.648"/>
</g>
<!-- EnvironmentTagger -->
<g id="node3" class="node"><title>EnvironmentTagger</title>
<polygon fill="#ccffcc" stroke="black" points="388.25,-766 229.75,-766 229.75,-730 388.25,-730 388.25,-766"/>
<text text-anchor="middle" x="309" y="-744.3" font-family="Courier,monospace" font-size="14.00">EnvironmentTagger</text>
</g>
<!-- TaggedDataRecord -->
<g id="node14" class="node"><title>TaggedDataRecord</title>
<path fill="#ffffcc" stroke="black" d="M344.25,-694C344.25,-694 273.75,-694 273.75,-694 267.75,-694 261.75,-688 261.75,-682 261.75,-682 261.75,-670 261.75,-670 261.75,-664 267.75,-658 273.75,-658 273.75,-658 344.25,-658 344.25,-658 350.25,-658 356.25,-664 356.25,-670 356.25,-670 356.25,-682 356.25,-682 356.25,-688 350.25,-694 344.25,-694"/>
<text text-anchor="middle" x="309" y="-673.8" font-family="Helvetica,sans-Serif" font-size="9.00">TaggedDataRecord</text>
</g>
<!-- EnvironmentTagger&#45;&gt;TaggedDataRecord -->
<g id="edge17" class="edge"><title>EnvironmentTagger&#45;&gt;TaggedDataRecord</title>
<path fill="none" stroke="black" d="M309,-729.697C309,-721.983 309,-712.712 309,-704.112"/>
<polygon fill="black" stroke="black" points="312.5,-704.104 309,-694.104 305.5,-704.104 312.5,-704.104"/>
</g>
<!-- LogFile -->
<g id="node20" class="node"><title>LogFile</title>
<path fill="#ffe4b5" stroke="black" d="M341.5,-369C341.5,-369 388.5,-369 388.5,-369 394.5,-369 400.5,-375 400.5,-381 400.5,-381 400.5,-393 400.5,-393 400.5,-399 394.5,-405 388.5,-405 388.5,-405 341.5,-405 341.5,-405 335.5,-405 329.5,-399 329.5,-393 329.5,-393 329.5,-381 329.5,-381 329.5,-375 335.5,-369 341.5,-369"/>
<text text-anchor="middle" x="365" y="-393.8" font-family="Courier,monospace" font-weight="bold" font-size="9.00">LogFile</text>
<polyline fill="none" stroke="black" points="329.5,-387 400.5,-387 "/>
<text text-anchor="middle" x="365" y="-375.8" font-family="Courier,monospace" font-weight="bold" font-size="9.00">runlog.log</text>
</g>
<!-- EnvironmentTagger&#45;&gt;LogFile -->
<g id="edge16" class="edge"><title>EnvironmentTagger&#45;&gt;LogFile</title>
<path fill="none" stroke="black" d="M342.814,-729.999C382.51,-707.362 443,-663.302 443,-605 443,-605 443,-605 443,-531 443,-485.125 411.68,-439.97 388.734,-413.042"/>
<polygon fill="black" stroke="black" points="391.154,-410.494 381.925,-405.29 385.894,-415.113 391.154,-410.494"/>
</g>
<!-- FilterToJustMarine -->
<g id="node4" class="node"><title>FilterToJustMarine</title>
<polygon fill="#ccffcc" stroke="black" points="212,-622 44,-622 44,-586 212,-586 212,-622"/>
<text text-anchor="middle" x="128" y="-600.3" font-family="Courier,monospace" font-size="14.00">FilterToJustMarine</text>
</g>
<!-- MarineDataRecord -->
<g id="node15" class="node"><title>MarineDataRecord</title>
<path fill="#ffffcc" stroke="black" d="M188,-550C188,-550 120,-550 120,-550 114,-550 108,-544 108,-538 108,-538 108,-526 108,-526 108,-520 114,-514 120,-514 120,-514 188,-514 188,-514 194,-514 200,-520 200,-526 200,-526 200,-538 200,-538 200,-544 194,-550 188,-550"/>
<text text-anchor="middle" x="154" y="-529.8" font-family="Helvetica,sans-Serif" font-size="9.00">MarineDataRecord</text>
</g>
<!-- FilterToJustMarine&#45;&gt;MarineDataRecord -->
<g id="edge19" class="edge"><title>FilterToJustMarine&#45;&gt;MarineDataRecord</title>
<path fill="none" stroke="black" d="M134.427,-585.697C137.355,-577.813 140.887,-568.304 144.14,-559.546"/>
<polygon fill="black" stroke="black" points="147.446,-560.697 147.647,-550.104 140.884,-558.26 147.446,-560.697"/>
</g>
<!-- FilterToJustMarine&#45;&gt;LogFile -->
<g id="edge18" class="edge"><title>FilterToJustMarine&#45;&gt;LogFile</title>
<path fill="none" stroke="black" d="M163.82,-585.773C179.358,-576.86 196.76,-564.738 209,-550 242.224,-509.998 218.312,-479.82 254,-442 263.824,-431.589 293.623,-417.338 319.874,-406.09"/>
<polygon fill="black" stroke="black" points="321.489,-409.208 329.341,-402.095 318.767,-402.759 321.489,-409.208"/>
</g>
<!-- FilterExcludingMarine -->
<g id="node5" class="node"><title>FilterExcludingMarine</title>
<polygon fill="#ccffcc" stroke="black" points="423.25,-622 230.75,-622 230.75,-586 423.25,-586 423.25,-622"/>
<text text-anchor="middle" x="327" y="-600.3" font-family="Courier,monospace" font-size="14.00">FilterExcludingMarine</text>
</g>
<!-- notMarineDataRecord -->
<g id="node16" class="node"><title>notMarineDataRecord</title>
<path fill="#ffffcc" stroke="black" d="M354.25,-550C354.25,-550 273.75,-550 273.75,-550 267.75,-550 261.75,-544 261.75,-538 261.75,-538 261.75,-526 261.75,-526 261.75,-520 267.75,-514 273.75,-514 273.75,-514 354.25,-514 354.25,-514 360.25,-514 366.25,-520 366.25,-526 366.25,-526 366.25,-538 366.25,-538 366.25,-544 360.25,-550 354.25,-550"/>
<text text-anchor="middle" x="314" y="-529.8" font-family="Helvetica,sans-Serif" font-size="9.00">notMarineDataRecord</text>
</g>
<!-- FilterExcludingMarine&#45;&gt;notMarineDataRecord -->
<g id="edge21" class="edge"><title>FilterExcludingMarine&#45;&gt;notMarineDataRecord</title>
<path fill="none" stroke="black" d="M323.787,-585.697C322.354,-577.983 320.632,-568.712 319.035,-560.112"/>
<polygon fill="black" stroke="black" points="322.444,-559.297 317.177,-550.104 315.561,-560.575 322.444,-559.297"/>
</g>
<!-- FilterExcludingMarine&#45;&gt;LogFile -->
<g id="edge20" class="edge"><title>FilterExcludingMarine&#45;&gt;LogFile</title>
<path fill="none" stroke="black" d="M348.71,-585.787C358.759,-576.414 369.641,-563.9 375,-550 392.287,-505.16 382.103,-448.168 373.378,-415.114"/>
<polygon fill="black" stroke="black" points="376.69,-413.962 370.633,-405.27 369.948,-415.842 376.69,-413.962"/>
</g>
<!-- WoRMSLookup -->
<g id="node6" class="node"><title>WoRMSLookup</title>
<polygon fill="#ccffcc" stroke="black" points="222.25,-478 113.75,-478 113.75,-442 222.25,-442 222.25,-478"/>
<text text-anchor="middle" x="168" y="-456.3" font-family="Courier,monospace" font-size="14.00">WoRMSLookup</text>
</g>
<!-- WoRMSOutput -->
<g id="node17" class="node"><title>WoRMSOutput</title>
<path fill="#ffffcc" stroke="black" d="M199.25,-405C199.25,-405 146.75,-405 146.75,-405 140.75,-405 134.75,-399 134.75,-393 134.75,-393 134.75,-381 134.75,-381 134.75,-375 140.75,-369 146.75,-369 146.75,-369 199.25,-369 199.25,-369 205.25,-369 211.25,-375 211.25,-381 211.25,-381 211.25,-393 211.25,-393 211.25,-399 205.25,-405 199.25,-405"/>
<text text-anchor="middle" x="173" y="-384.8" font-family="Helvetica,sans-Serif" font-size="9.00">WoRMSOutput</text>
</g>
<!-- WoRMSLookup&#45;&gt;WoRMSOutput -->
<g id="edge23" class="edge"><title>WoRMSLookup&#45;&gt;WoRMSOutput</title>
<path fill="none" stroke="black" d="M169.21,-441.813C169.775,-433.789 170.461,-424.047 171.094,-415.069"/>
<polygon fill="black" stroke="black" points="174.59,-415.25 171.801,-405.029 167.607,-414.758 174.59,-415.25"/>
</g>
<!-- WoRMSLookup&#45;&gt;LogFile -->
<g id="edge22" class="edge"><title>WoRMSLookup&#45;&gt;LogFile</title>
<path fill="none" stroke="black" d="M215.186,-441.994C246.822,-430.592 288.256,-415.659 319.529,-404.388"/>
<polygon fill="black" stroke="black" points="321.079,-407.55 329.3,-400.867 318.705,-400.965 321.079,-407.55"/>
</g>
<!-- GBIFLookup -->
<g id="node7" class="node"><title>GBIFLookup</title>
<polygon fill="#ccffcc" stroke="black" points="364.25,-478 263.75,-478 263.75,-442 364.25,-442 364.25,-478"/>
<text text-anchor="middle" x="314" y="-456.3" font-family="Courier,monospace" font-size="14.00">GBIFLookup</text>
</g>
<!-- GBIFOutput -->
<g id="node18" class="node"><title>GBIFOutput</title>
<path fill="#ffffcc" stroke="black" d="M288.25,-405C288.25,-405 247.75,-405 247.75,-405 241.75,-405 235.75,-399 235.75,-393 235.75,-393 235.75,-381 235.75,-381 235.75,-375 241.75,-369 247.75,-369 247.75,-369 288.25,-369 288.25,-369 294.25,-369 300.25,-375 300.25,-381 300.25,-381 300.25,-393 300.25,-393 300.25,-399 294.25,-405 288.25,-405"/>
<text text-anchor="middle" x="268" y="-384.8" font-family="Helvetica,sans-Serif" font-size="9.00">GBIFOutput</text>
</g>
<!-- GBIFLookup&#45;&gt;GBIFOutput -->
<g id="edge25" class="edge"><title>GBIFLookup&#45;&gt;GBIFOutput</title>
<path fill="none" stroke="black" d="M302.865,-441.813C297.384,-433.353 290.665,-422.984 284.594,-413.612"/>
<polygon fill="black" stroke="black" points="287.408,-411.518 279.033,-405.029 281.533,-415.324 287.408,-411.518"/>
</g>
<!-- GBIFLookup&#45;&gt;LogFile -->
<g id="edge24" class="edge"><title>GBIFLookup&#45;&gt;LogFile</title>
<path fill="none" stroke="black" d="M326.346,-441.813C332.485,-433.266 340.025,-422.769 346.81,-413.323"/>
<polygon fill="black" stroke="black" points="349.777,-415.193 352.768,-405.029 344.091,-411.109 349.777,-415.193"/>
</g>
<!-- StreamMerge -->
<g id="node8" class="node"><title>StreamMerge</title>
<polygon fill="#ccffcc" stroke="black" points="251.25,-332 142.75,-332 142.75,-296 251.25,-296 251.25,-332"/>
<text text-anchor="middle" x="197" y="-310.3" font-family="Courier,monospace" font-size="14.00">StreamMerge</text>
</g>
<!-- MergedStream -->
<g id="node19" class="node"><title>MergedStream</title>
<path fill="#ffffcc" stroke="black" d="M223,-260C223,-260 171,-260 171,-260 165,-260 159,-254 159,-248 159,-248 159,-236 159,-236 159,-230 165,-224 171,-224 171,-224 223,-224 223,-224 229,-224 235,-230 235,-236 235,-236 235,-248 235,-248 235,-254 229,-260 223,-260"/>
<text text-anchor="middle" x="197" y="-239.8" font-family="Helvetica,sans-Serif" font-size="9.00">MergedStream</text>
</g>
<!-- StreamMerge&#45;&gt;MergedStream -->
<g id="edge26" class="edge"><title>StreamMerge&#45;&gt;MergedStream</title>
<path fill="none" stroke="black" d="M197,-295.697C197,-287.983 197,-278.712 197,-270.112"/>
<polygon fill="black" stroke="black" points="200.5,-270.104 197,-260.104 193.5,-270.104 200.5,-270.104"/>
</g>
<!-- CsvFileWriter -->
<g id="node9" class="node"><title>CsvFileWriter</title>
<polygon fill="#ccffcc" stroke="black" points="260,-188 134,-188 134,-152 260,-152 260,-188"/>
<text text-anchor="middle" x="197" y="-166.3" font-family="Courier,monospace" font-size="14.00">CsvFileWriter</text>
</g>
<!-- OutputFile -->
<g id="node21" class="node"><title>OutputFile</title>
<path fill="#ffe4b5" stroke="black" d="M36,-79C36,-79 390,-79 390,-79 396,-79 402,-85 402,-91 402,-91 402,-103 402,-103 402,-109 396,-115 390,-115 390,-115 36,-115 36,-115 30,-115 24,-109 24,-103 24,-103 24,-91 24,-91 24,-85 30,-79 36,-79"/>
<text text-anchor="middle" x="213" y="-103.8" font-family="Courier,monospace" font-weight="bold" font-size="9.00">OutputFile</text>
<polyline fill="none" stroke="black" points="24,-97 402,-97 "/>
<text text-anchor="middle" x="213" y="-85.8" font-family="Courier,monospace" font-weight="bold" font-size="9.00">workspace_4e5367d1&#45;5718&#45;11e7&#45;a549&#45;acbc3296f741/mergedoutputfile.csv</text>
</g>
<!-- CsvFileWriter&#45;&gt;OutputFile -->
<g id="edge27" class="edge"><title>CsvFileWriter&#45;&gt;OutputFile</title>
<path fill="none" stroke="black" d="M200.873,-151.813C202.681,-143.789 204.877,-134.047 206.9,-125.069"/>
<polygon fill="black" stroke="black" points="210.378,-125.554 209.163,-115.029 203.55,-124.015 210.378,-125.554"/>
</g>
<!-- DarwinCoreFile -->
<g id="node10" class="node"><title>DarwinCoreFile</title>
<path fill="#ffe4b5" stroke="black" d="M125,-1091C125,-1091 431,-1091 431,-1091 437,-1091 443,-1097 443,-1103 443,-1103 443,-1115 443,-1115 443,-1121 437,-1127 431,-1127 431,-1127 125,-1127 125,-1127 119,-1127 113,-1121 113,-1115 113,-1115 113,-1103 113,-1103 113,-1097 119,-1091 125,-1091"/>
<text text-anchor="middle" x="278" y="-1115.8" font-family="Courier,monospace" font-weight="bold" font-size="9.00">DarwinCoreFile</text>
<polyline fill="none" stroke="black" points="113,-1109 443,-1109 "/>
<text text-anchor="middle" x="278" y="-1097.8" font-family="Courier,monospace" font-weight="bold" font-size="9.00">packages/kurator_branching/data/kurator_sample_data_v2.txt</text>
</g>
<!-- DarwinCoreFile&#45;&gt;Setup -->
<g id="edge2" class="edge"><title>DarwinCoreFile&#45;&gt;Setup</title>
<path fill="none" stroke="black" d="M232.011,-1090.99C199.377,-1078.93 156.044,-1062.9 125.079,-1051.45"/>
<polygon fill="black" stroke="black" points="126.082,-1048.09 115.489,-1047.9 123.654,-1054.66 126.082,-1048.09"/>
</g>
<!-- Workspace&#45;&gt;CsvFileWriter -->
<g id="edge3" class="edge"><title>Workspace&#45;&gt;CsvFileWriter</title>
<path fill="none" stroke="black" d="M55.3101,-873.907C44.2064,-847.623 25,-795.447 25,-749 25,-749 25,-749 25,-313 25,-253.158 87.6802,-213.818 137.364,-192.035"/>
<polygon fill="black" stroke="black" points="138.946,-195.166 146.788,-188.041 136.215,-188.721 138.946,-195.166"/>
</g>
<!-- OccurrenceFile&#45;&gt;FileToDataStream -->
<g id="edge4" class="edge"><title>OccurrenceFile&#45;&gt;FileToDataStream</title>
<path fill="none" stroke="black" d="M190.753,-945.697C201.836,-936.881 215.474,-926.032 227.49,-916.474"/>
<polygon fill="black" stroke="black" points="229.85,-919.069 235.497,-910.104 225.493,-913.59 229.85,-919.069"/>
</g>
<!-- DataRecord&#45;&gt;EnvironmentTagger -->
<g id="edge5" class="edge"><title>DataRecord&#45;&gt;EnvironmentTagger</title>
<path fill="none" stroke="black" d="M282.652,-801.697C286.636,-793.728 291.45,-784.1 295.868,-775.264"/>
<polygon fill="black" stroke="black" points="299.106,-776.614 300.448,-766.104 292.845,-773.483 299.106,-776.614"/>
</g>
<!-- TaggedDataRecord&#45;&gt;FilterToJustMarine -->
<g id="edge6" class="edge"><title>TaggedDataRecord&#45;&gt;FilterToJustMarine</title>
<path fill="none" stroke="black" d="M264.722,-657.876C239.649,-648.179 208.104,-635.98 181.635,-625.743"/>
<polygon fill="black" stroke="black" points="182.723,-622.411 172.134,-622.068 180.198,-628.94 182.723,-622.411"/>
</g>
<!-- TaggedDataRecord&#45;&gt;FilterExcludingMarine -->
<g id="edge7" class="edge"><title>TaggedDataRecord&#45;&gt;FilterExcludingMarine</title>
<path fill="none" stroke="black" d="M313.449,-657.697C315.455,-649.898 317.869,-640.509 320.101,-631.829"/>
<polygon fill="black" stroke="black" points="323.501,-632.661 322.602,-622.104 316.722,-630.918 323.501,-632.661"/>
</g>
<!-- MarineDataRecord&#45;&gt;WoRMSLookup -->
<g id="edge8" class="edge"><title>MarineDataRecord&#45;&gt;WoRMSLookup</title>
<path fill="none" stroke="black" d="M157.461,-513.697C159.003,-505.983 160.858,-496.712 162.578,-488.112"/>
<polygon fill="black" stroke="black" points="166.05,-488.597 164.579,-478.104 159.186,-487.224 166.05,-488.597"/>
</g>
<!-- notMarineDataRecord&#45;&gt;GBIFLookup -->
<g id="edge9" class="edge"><title>notMarineDataRecord&#45;&gt;GBIFLookup</title>
<path fill="none" stroke="black" d="M314,-513.697C314,-505.983 314,-496.712 314,-488.112"/>
<polygon fill="black" stroke="black" points="317.5,-488.104 314,-478.104 310.5,-488.104 317.5,-488.104"/>
</g>
<!-- WoRMSOutput&#45;&gt;StreamMerge -->
<g id="edge10" class="edge"><title>WoRMSOutput&#45;&gt;StreamMerge</title>
<path fill="none" stroke="black" d="M178.81,-368.813C181.551,-360.702 184.887,-350.836 187.949,-341.777"/>
<polygon fill="black" stroke="black" points="191.357,-342.623 191.244,-332.029 184.726,-340.381 191.357,-342.623"/>
</g>
<!-- GBIFOutput&#45;&gt;StreamMerge -->
<g id="edge11" class="edge"><title>GBIFOutput&#45;&gt;StreamMerge</title>
<path fill="none" stroke="black" d="M250.813,-368.813C241.917,-359.917 230.909,-348.909 221.172,-339.172"/>
<polygon fill="black" stroke="black" points="223.575,-336.625 214.029,-332.029 218.625,-341.575 223.575,-336.625"/>
</g>
<!-- MergedStream&#45;&gt;CsvFileWriter -->
<g id="edge12" class="edge"><title>MergedStream&#45;&gt;CsvFileWriter</title>
<path fill="none" stroke="black" d="M197,-223.697C197,-215.983 197,-206.712 197,-198.112"/>
<polygon fill="black" stroke="black" points="200.5,-198.104 197,-188.104 193.5,-198.104 200.5,-198.104"/>
</g>
<!-- LogFile_outflow -->
<g id="node25" class="node"><title>LogFile_outflow</title>
<ellipse fill="none" stroke="black" cx="337" cy="-31" rx="7" ry="7"/>
</g>
<!-- LogFile&#45;&gt;LogFile_outflow -->
<g id="edge30" class="edge"><title>LogFile&#45;&gt;LogFile_outflow</title>
<path fill="none" stroke="black" d="M378.785,-368.652C397.865,-342.843 430,-292.087 430,-243 430,-243 430,-243 430,-169 430,-120.701 441.396,-99.5354 411,-62 396.965,-44.6684 371.346,-37.2725 354.245,-34.1692"/>
<polygon fill="black" stroke="black" points="354.422,-30.6567 344.014,-32.6371 353.386,-37.5795 354.422,-30.6567"/>
</g>
<!-- OutputFile_outflow -->
<g id="node26" class="node"><title>OutputFile_outflow</title>
<ellipse fill="none" stroke="black" cx="305" cy="-31" rx="7" ry="7"/>
</g>
<!-- OutputFile&#45;&gt;OutputFile_outflow -->
<g id="edge31" class="edge"><title>OutputFile&#45;&gt;OutputFile_outflow</title>
<path fill="none" stroke="black" d="M237.654,-78.8492C254.78,-66.9359 276.977,-51.4945 291.108,-41.6639"/>
<polygon fill="black" stroke="black" points="293.231,-44.4507 299.441,-35.8668 289.234,-38.7043 293.231,-44.4507"/>
</g>
<!-- InputFilePath -->
<g id="node22" class="node"><title>InputFilePath</title>
<path fill="#ffffff" stroke="black" d="M83,-1127C83,-1127 37,-1127 37,-1127 31,-1127 25,-1121 25,-1115 25,-1115 25,-1103 25,-1103 25,-1097 31,-1091 37,-1091 37,-1091 83,-1091 83,-1091 89,-1091 95,-1097 95,-1103 95,-1103 95,-1115 95,-1115 95,-1121 89,-1127 83,-1127"/>
<text text-anchor="middle" x="60" y="-1106.8" font-family="Helvetica,sans-Serif" font-size="9.00">InputFilePath</text>
</g>
<!-- InputFilePath&#45;&gt;Setup -->
<g id="edge1" class="edge"><title>InputFilePath&#45;&gt;Setup</title>
<path fill="none" stroke="black" d="M66.2939,-1090.81C69.2959,-1082.62 72.9549,-1072.62 76.3014,-1063.48"/>
<polygon fill="black" stroke="black" points="79.6119,-1064.62 79.7641,-1054.03 73.0388,-1062.22 79.6119,-1064.62"/>
</g>
<!-- DarwinCoreFile_inflow -->
<g id="node23" class="node"><title>DarwinCoreFile_inflow</title>
<ellipse fill="none" stroke="black" cx="185" cy="-1175" rx="7" ry="7"/>
</g>
<!-- DarwinCoreFile_inflow&#45;&gt;DarwinCoreFile -->
<g id="edge28" class="edge"><title>DarwinCoreFile_inflow&#45;&gt;DarwinCoreFile</title>
<path fill="none" stroke="black" d="M190.267,-1170.38C200.622,-1163.25 224.384,-1146.9 244.569,-1133.01"/>
<polygon fill="black" stroke="black" points="246.698,-1135.79 252.952,-1127.24 242.73,-1130.02 246.698,-1135.79"/>
</g>
<!-- InputFilePath_inflow -->
<g id="node24" class="node"><title>InputFilePath_inflow</title>
<ellipse fill="none" stroke="black" cx="153" cy="-1175" rx="7" ry="7"/>
</g>
<!-- InputFilePath_inflow&#45;&gt;InputFilePath -->
<g id="edge29" class="edge"><title>InputFilePath_inflow&#45;&gt;InputFilePath</title>
<path fill="none" stroke="black" d="M147.138,-1170.69C137.813,-1165.36 119.11,-1154.42 104,-1144 99.1121,-1140.63 94.0334,-1136.92 89.1375,-1133.22"/>
<polygon fill="black" stroke="black" points="91.2002,-1130.39 81.1369,-1127.08 86.9373,-1135.94 91.2002,-1130.39"/>
</g>
</g>
</svg>
