<?xml version="1.0" encoding="UTF-8" standalone="no"?>
<!DOCTYPE svg PUBLIC "-//W3C//DTD SVG 1.1//EN"
 "http://www.w3.org/Graphics/SVG/1.1/DTD/svg11.dtd">
<!-- Generated by graphviz version 2.36.0 (20140111.2315)
 -->
<!-- Title: yw_data_view Pages: 1 -->
<svg width="456pt" height="948pt"
 viewBox="0.00 0.00 456.00 948.00" xmlns="http://www.w3.org/2000/svg" xmlns:xlink="http://www.w3.org/1999/xlink">
<g id="graph0" class="graph" transform="scale(1 1) rotate(0) translate(4 944)">
<title>yw_data_view</title>
<polygon fill="white" stroke="none" points="-4,4 -4,-944 452,-944 452,4 -4,4"/>
<text text-anchor="middle" x="224" y="-921.6" font-family="Courier,monospace" font-size="18.00">BranchingWorkflow</text>
<g id="clust1" class="cluster"><title>cluster_workflow</title>
<polygon fill="none" stroke="black" stroke-width="2" points="8,-62 8,-850 440,-850 440,-62 8,-62"/>
</g>
<g id="clust2" class="cluster"><title>cluster_workflow_inner</title>
<polygon fill="none" stroke="white" stroke-width="2" points="16,-70 16,-842 432,-842 432,-70 16,-70"/>
</g>
<g id="clust3" class="cluster"><title>cluster_inflows</title>
<polygon fill="none" stroke="white" stroke-width="2" points="130,-858 130,-904 208,-904 208,-858 130,-858"/>
</g>
<g id="clust4" class="cluster"><title>cluster_inflows_inner</title>
<polygon fill="none" stroke="white" stroke-width="2" points="138,-866 138,-896 200,-896 200,-866 138,-866"/>
</g>
<g id="clust5" class="cluster"><title>cluster_outflows</title>
<polygon fill="none" stroke="white" stroke-width="2" points="135,-8 135,-54 181,-54 181,-8 135,-8"/>
</g>
<g id="clust6" class="cluster"><title>cluster_outflows_inner</title>
<polygon fill="none" stroke="white" stroke-width="2" points="143,-16 143,-46 173,-46 173,-16 143,-16"/>
</g>
<!-- FileToDataStream -->
<g id="node1" class="node"><title>FileToDataStream</title>
<polygon fill="#ccffcc" stroke="black" points="197.25,-618 46.75,-618 46.75,-582 197.25,-582 197.25,-618"/>
<text text-anchor="middle" x="122" y="-596.3" font-family="Courier,monospace" font-size="14.00">FileToDataStream</text>
</g>
<!-- DataRecord -->
<g id="node10" class="node"><title>DataRecord</title>
<path fill="#ffffcc" stroke="black" d="M155.25,-546C155.25,-546 88.75,-546 88.75,-546 82.75,-546 76.75,-540 76.75,-534 76.75,-534 76.75,-522 76.75,-522 76.75,-516 82.75,-510 88.75,-510 88.75,-510 155.25,-510 155.25,-510 161.25,-510 167.25,-516 167.25,-522 167.25,-522 167.25,-534 167.25,-534 167.25,-540 161.25,-546 155.25,-546"/>
<text text-anchor="middle" x="122" y="-524.3" font-family="Helvetica,sans-Serif" font-size="14.00">DataRecord</text>
</g>
<!-- FileToDataStream&#45;&gt;DataRecord -->
<g id="edge10" class="edge"><title>FileToDataStream&#45;&gt;DataRecord</title>
<path fill="none" stroke="black" d="M122,-581.697C122,-573.983 122,-564.712 122,-556.112"/>
<polygon fill="black" stroke="black" points="125.5,-556.104 122,-546.104 118.5,-556.104 125.5,-556.104"/>
</g>
<!-- Setup -->
<g id="node2" class="node"><title>Setup</title>
<polygon fill="#ccffcc" stroke="black" points="151.25,-762 92.75,-762 92.75,-726 151.25,-726 151.25,-762"/>
<text text-anchor="middle" x="122" y="-740.3" font-family="Courier,monospace" font-size="14.00">Setup</text>
</g>
<!-- OccurrenceFile -->
<g id="node9" class="node"><title>OccurrenceFile</title>
<path fill="#ffffcc" stroke="black" d="M165.25,-690C165.25,-690 78.75,-690 78.75,-690 72.75,-690 66.75,-684 66.75,-678 66.75,-678 66.75,-666 66.75,-666 66.75,-660 72.75,-654 78.75,-654 78.75,-654 165.25,-654 165.25,-654 171.25,-654 177.25,-660 177.25,-666 177.25,-666 177.25,-678 177.25,-678 177.25,-684 171.25,-690 165.25,-690"/>
<text text-anchor="middle" x="122" y="-668.3" font-family="Helvetica,sans-Serif" font-size="14.00">OccurrenceFile</text>
</g>
<!-- Setup&#45;&gt;OccurrenceFile -->
<g id="edge9" class="edge"><title>Setup&#45;&gt;OccurrenceFile</title>
<path fill="none" stroke="black" d="M122,-725.697C122,-717.983 122,-708.712 122,-700.112"/>
<polygon fill="black" stroke="black" points="125.5,-700.104 122,-690.104 118.5,-700.104 125.5,-700.104"/>
</g>
<!-- GBIFLookup -->
<g id="node3" class="node"><title>GBIFLookup</title>
<polygon fill="#ccffcc" stroke="black" points="208.25,-186 107.75,-186 107.75,-150 208.25,-150 208.25,-186"/>
<text text-anchor="middle" x="158" y="-164.3" font-family="Courier,monospace" font-size="14.00">GBIFLookup</text>
</g>
<!-- LogFile -->
<g id="node11" class="node"><title>LogFile</title>
<path fill="#ffffcc" stroke="black" d="M177,-114C177,-114 139,-114 139,-114 133,-114 127,-108 127,-102 127,-102 127,-90 127,-90 127,-84 133,-78 139,-78 139,-78 177,-78 177,-78 183,-78 189,-84 189,-90 189,-90 189,-102 189,-102 189,-108 183,-114 177,-114"/>
<text text-anchor="middle" x="158" y="-92.3" font-family="Helvetica,sans-Serif" font-size="14.00">LogFile</text>
</g>
<!-- GBIFLookup&#45;&gt;LogFile -->
<g id="edge18" class="edge"><title>GBIFLookup&#45;&gt;LogFile</title>
<path fill="none" stroke="black" d="M158,-149.697C158,-141.983 158,-132.712 158,-124.112"/>
<polygon fill="black" stroke="black" points="161.5,-124.104 158,-114.104 154.5,-124.104 161.5,-124.104"/>
</g>
<!-- WoRMSLookup -->
<g id="node4" class="node"><title>WoRMSLookup</title>
<polygon fill="#ccffcc" stroke="black" points="388.25,-186 279.75,-186 279.75,-150 388.25,-150 388.25,-186"/>
<text text-anchor="middle" x="334" y="-164.3" font-family="Courier,monospace" font-size="14.00">WoRMSLookup</text>
</g>
<!-- WoRMSLookup&#45;&gt;LogFile -->
<g id="edge17" class="edge"><title>WoRMSLookup&#45;&gt;LogFile</title>
<path fill="none" stroke="black" d="M290.946,-149.876C262.725,-138.652 226.075,-124.075 198.405,-113.07"/>
<polygon fill="black" stroke="black" points="199.606,-109.781 189.021,-109.338 197.019,-116.286 199.606,-109.781"/>
</g>
<!-- FilterExcludingMarine -->
<g id="node5" class="node"><title>FilterExcludingMarine</title>
<polygon fill="#ccffcc" stroke="black" points="237.25,-330 44.75,-330 44.75,-294 237.25,-294 237.25,-330"/>
<text text-anchor="middle" x="141" y="-308.3" font-family="Courier,monospace" font-size="14.00">FilterExcludingMarine</text>
</g>
<!-- FilterExcludingMarine&#45;&gt;LogFile -->
<g id="edge15" class="edge"><title>FilterExcludingMarine&#45;&gt;LogFile</title>
<path fill="none" stroke="black" d="M107.164,-293.961C93.6207,-285.216 79.4788,-273.175 72,-258 64.9269,-243.648 69.2415,-237.76 72,-222 77.8656,-188.487 78.8765,-178.139 98,-150 105.459,-139.025 115.7,-128.864 125.61,-120.437"/>
<polygon fill="black" stroke="black" points="127.886,-123.097 133.428,-114.067 123.464,-117.67 127.886,-123.097"/>
</g>
<!-- notMarineDataRecord -->
<g id="node14" class="node"><title>notMarineDataRecord</title>
<path fill="#ffffcc" stroke="black" d="M222.25,-258C222.25,-258 93.75,-258 93.75,-258 87.75,-258 81.75,-252 81.75,-246 81.75,-246 81.75,-234 81.75,-234 81.75,-228 87.75,-222 93.75,-222 93.75,-222 222.25,-222 222.25,-222 228.25,-222 234.25,-228 234.25,-234 234.25,-234 234.25,-246 234.25,-246 234.25,-252 228.25,-258 222.25,-258"/>
<text text-anchor="middle" x="158" y="-236.3" font-family="Helvetica,sans-Serif" font-size="14.00">notMarineDataRecord</text>
</g>
<!-- FilterExcludingMarine&#45;&gt;notMarineDataRecord -->
<g id="edge16" class="edge"><title>FilterExcludingMarine&#45;&gt;notMarineDataRecord</title>
<path fill="none" stroke="black" d="M145.202,-293.697C147.096,-285.898 149.377,-276.509 151.484,-267.829"/>
<polygon fill="black" stroke="black" points="154.887,-268.648 153.846,-258.104 148.085,-266.996 154.887,-268.648"/>
</g>
<!-- FilterToJustMarine -->
<g id="node6" class="node"><title>FilterToJustMarine</title>
<polygon fill="#ccffcc" stroke="black" points="424,-330 256,-330 256,-294 424,-294 424,-330"/>
<text text-anchor="middle" x="340" y="-308.3" font-family="Courier,monospace" font-size="14.00">FilterToJustMarine</text>
</g>
<!-- FilterToJustMarine&#45;&gt;LogFile -->
<g id="edge13" class="edge"><title>FilterToJustMarine&#45;&gt;LogFile</title>
<path fill="none" stroke="black" d="M307.66,-293.971C292.823,-284.883 275.924,-272.561 264,-258 230.834,-217.499 247.616,-192.462 217,-150 209.248,-139.248 198.983,-129.088 189.192,-120.595"/>
<polygon fill="black" stroke="black" points="191.414,-117.892 181.497,-114.162 186.924,-123.262 191.414,-117.892"/>
</g>
<!-- MarineDataRecord -->
<g id="node13" class="node"><title>MarineDataRecord</title>
<path fill="#ffffcc" stroke="black" d="M395,-258C395,-258 285,-258 285,-258 279,-258 273,-252 273,-246 273,-246 273,-234 273,-234 273,-228 279,-222 285,-222 285,-222 395,-222 395,-222 401,-222 407,-228 407,-234 407,-234 407,-246 407,-246 407,-252 401,-258 395,-258"/>
<text text-anchor="middle" x="340" y="-236.3" font-family="Helvetica,sans-Serif" font-size="14.00">MarineDataRecord</text>
</g>
<!-- FilterToJustMarine&#45;&gt;MarineDataRecord -->
<g id="edge14" class="edge"><title>FilterToJustMarine&#45;&gt;MarineDataRecord</title>
<path fill="none" stroke="black" d="M340,-293.697C340,-285.983 340,-276.712 340,-268.112"/>
<polygon fill="black" stroke="black" points="343.5,-268.104 340,-258.104 336.5,-268.104 343.5,-268.104"/>
</g>
<!-- EnvironmentTagger -->
<g id="node7" class="node"><title>EnvironmentTagger</title>
<polygon fill="#ccffcc" stroke="black" points="201.25,-474 42.75,-474 42.75,-438 201.25,-438 201.25,-474"/>
<text text-anchor="middle" x="122" y="-452.3" font-family="Courier,monospace" font-size="14.00">EnvironmentTagger</text>
</g>
<!-- EnvironmentTagger&#45;&gt;LogFile -->
<g id="edge11" class="edge"><title>EnvironmentTagger&#45;&gt;LogFile</title>
<path fill="none" stroke="black" d="M97.9975,-437.976C85.9499,-428.478 71.8609,-415.794 62,-402 37.0879,-367.151 25,-355.838 25,-313 25,-313 25,-313 25,-239 25,-184.12 78.5726,-141.703 117.716,-118.035"/>
<polygon fill="black" stroke="black" points="119.955,-120.78 126.817,-112.708 116.419,-114.739 119.955,-120.78"/>
</g>
<!-- TaggedDataRecord -->
<g id="node12" class="node"><title>TaggedDataRecord</title>
<path fill="#ffffcc" stroke="black" d="M198.25,-402C198.25,-402 83.75,-402 83.75,-402 77.75,-402 71.75,-396 71.75,-390 71.75,-390 71.75,-378 71.75,-378 71.75,-372 77.75,-366 83.75,-366 83.75,-366 198.25,-366 198.25,-366 204.25,-366 210.25,-372 210.25,-378 210.25,-378 210.25,-390 210.25,-390 210.25,-396 204.25,-402 198.25,-402"/>
<text text-anchor="middle" x="141" y="-380.3" font-family="Helvetica,sans-Serif" font-size="14.00">TaggedDataRecord</text>
</g>
<!-- EnvironmentTagger&#45;&gt;TaggedDataRecord -->
<g id="edge12" class="edge"><title>EnvironmentTagger&#45;&gt;TaggedDataRecord</title>
<path fill="none" stroke="black" d="M126.697,-437.697C128.813,-429.898 131.362,-420.509 133.718,-411.829"/>
<polygon fill="black" stroke="black" points="137.116,-412.672 136.357,-402.104 130.36,-410.838 137.116,-412.672"/>
</g>
<!-- DarwinCoreFile -->
<g id="node8" class="node"><title>DarwinCoreFile</title>
<path fill="#ffffcc" stroke="black" d="M275.25,-834C275.25,-834 186.75,-834 186.75,-834 180.75,-834 174.75,-828 174.75,-822 174.75,-822 174.75,-810 174.75,-810 174.75,-804 180.75,-798 186.75,-798 186.75,-798 275.25,-798 275.25,-798 281.25,-798 287.25,-804 287.25,-810 287.25,-810 287.25,-822 287.25,-822 287.25,-828 281.25,-834 275.25,-834"/>
<text text-anchor="middle" x="231" y="-812.3" font-family="Helvetica,sans-Serif" font-size="14.00">DarwinCoreFile</text>
</g>
<!-- DarwinCoreFile&#45;&gt;Setup -->
<g id="edge7" class="edge"><title>DarwinCoreFile&#45;&gt;Setup</title>
<path fill="none" stroke="black" d="M204.336,-797.876C190.216,-788.808 172.689,-777.552 157.439,-767.759"/>
<polygon fill="black" stroke="black" points="159.073,-764.648 148.767,-762.19 155.29,-770.538 159.073,-764.648"/>
</g>
<!-- OccurrenceFile&#45;&gt;FileToDataStream -->
<g id="edge6" class="edge"><title>OccurrenceFile&#45;&gt;FileToDataStream</title>
<path fill="none" stroke="black" d="M122,-653.697C122,-645.983 122,-636.712 122,-628.112"/>
<polygon fill="black" stroke="black" points="125.5,-628.104 122,-618.104 118.5,-628.104 125.5,-628.104"/>
</g>
<!-- DataRecord&#45;&gt;EnvironmentTagger -->
<g id="edge5" class="edge"><title>DataRecord&#45;&gt;EnvironmentTagger</title>
<path fill="none" stroke="black" d="M122,-509.697C122,-501.983 122,-492.712 122,-484.112"/>
<polygon fill="black" stroke="black" points="125.5,-484.104 122,-474.104 118.5,-484.104 125.5,-484.104"/>
</g>
<!-- LogFile_outflow -->
<g id="node18" class="node"><title>LogFile_outflow</title>
<ellipse fill="none" stroke="black" cx="158" cy="-31" rx="7" ry="7"/>
</g>
<!-- LogFile&#45;&gt;LogFile_outflow -->
<g id="edge21" class="edge"><title>LogFile&#45;&gt;LogFile_outflow</title>
<path fill="none" stroke="black" d="M158,-77.785C158,-68.6656 158,-57.5197 158,-48.5085"/>
<polygon fill="black" stroke="black" points="161.5,-48.242 158,-38.242 154.5,-48.2421 161.5,-48.242"/>
</g>
<!-- TaggedDataRecord&#45;&gt;FilterExcludingMarine -->
<g id="edge3" class="edge"><title>TaggedDataRecord&#45;&gt;FilterExcludingMarine</title>
<path fill="none" stroke="black" d="M141,-365.697C141,-357.983 141,-348.712 141,-340.112"/>
<polygon fill="black" stroke="black" points="144.5,-340.104 141,-330.104 137.5,-340.104 144.5,-340.104"/>
</g>
<!-- TaggedDataRecord&#45;&gt;FilterToJustMarine -->
<g id="edge4" class="edge"><title>TaggedDataRecord&#45;&gt;FilterToJustMarine</title>
<path fill="none" stroke="black" d="M189.426,-365.966C217.231,-356.185 252.336,-343.836 281.654,-333.524"/>
<polygon fill="black" stroke="black" points="283.084,-336.731 291.356,-330.111 280.762,-330.127 283.084,-336.731"/>
</g>
<!-- MarineDataRecord&#45;&gt;WoRMSLookup -->
<g id="edge2" class="edge"><title>MarineDataRecord&#45;&gt;WoRMSLookup</title>
<path fill="none" stroke="black" d="M338.517,-221.697C337.856,-213.983 337.061,-204.712 336.324,-196.112"/>
<polygon fill="black" stroke="black" points="339.807,-195.769 335.466,-186.104 332.833,-196.367 339.807,-195.769"/>
</g>
<!-- notMarineDataRecord&#45;&gt;GBIFLookup -->
<g id="edge1" class="edge"><title>notMarineDataRecord&#45;&gt;GBIFLookup</title>
<path fill="none" stroke="black" d="M158,-221.697C158,-213.983 158,-204.712 158,-196.112"/>
<polygon fill="black" stroke="black" points="161.5,-196.104 158,-186.104 154.5,-196.104 161.5,-196.104"/>
</g>
<!-- InputFilePath -->
<g id="node15" class="node"><title>InputFilePath</title>
<path fill="#ffffff" stroke="black" d="M144.25,-834C144.25,-834 69.75,-834 69.75,-834 63.75,-834 57.75,-828 57.75,-822 57.75,-822 57.75,-810 57.75,-810 57.75,-804 63.75,-798 69.75,-798 69.75,-798 144.25,-798 144.25,-798 150.25,-798 156.25,-804 156.25,-810 156.25,-810 156.25,-822 156.25,-822 156.25,-828 150.25,-834 144.25,-834"/>
<text text-anchor="middle" x="107" y="-812.3" font-family="Helvetica,sans-Serif" font-size="14.00">InputFilePath</text>
</g>
<!-- InputFilePath&#45;&gt;Setup -->
<g id="edge8" class="edge"><title>InputFilePath&#45;&gt;Setup</title>
<path fill="none" stroke="black" d="M110.708,-797.697C112.361,-789.983 114.347,-780.712 116.19,-772.112"/>
<polygon fill="black" stroke="black" points="119.662,-772.616 118.335,-762.104 112.817,-771.149 119.662,-772.616"/>
</g>
<!-- DarwinCoreFile_inflow -->
<g id="node16" class="node"><title>DarwinCoreFile_inflow</title>
<ellipse fill="none" stroke="black" cx="185" cy="-881" rx="7" ry="7"/>
</g>
<!-- DarwinCoreFile_inflow&#45;&gt;DarwinCoreFile -->
<g id="edge19" class="edge"><title>DarwinCoreFile_inflow&#45;&gt;DarwinCoreFile</title>
<path fill="none" stroke="black" d="M188.922,-874.629C194.132,-867.493 203.692,-854.4 212.384,-842.496"/>
<polygon fill="black" stroke="black" points="215.415,-844.28 218.485,-834.14 209.762,-840.152 215.415,-844.28"/>
</g>
<!-- InputFilePath_inflow -->
<g id="node17" class="node"><title>InputFilePath_inflow</title>
<ellipse fill="none" stroke="black" cx="153" cy="-881" rx="7" ry="7"/>
</g>
<!-- InputFilePath_inflow&#45;&gt;InputFilePath -->
<g id="edge20" class="edge"><title>InputFilePath_inflow&#45;&gt;InputFilePath</title>
<path fill="none" stroke="black" d="M149.078,-874.629C143.868,-867.493 134.308,-854.4 125.616,-842.496"/>
<polygon fill="black" stroke="black" points="128.238,-840.152 119.515,-834.14 122.585,-844.28 128.238,-840.152"/>
</g>
</g>
</svg>
