<?xml version="1.0" encoding="UTF-8" standalone="no"?>
<!DOCTYPE svg PUBLIC "-//W3C//DTD SVG 1.1//EN"
 "http://www.w3.org/Graphics/SVG/1.1/DTD/svg11.dtd">
<!-- Generated by graphviz version 2.36.0 (20140111.2315)
 -->
<!-- Title: yw_data_view Pages: 1 -->
<svg width="287pt" height="750pt"
 viewBox="0.00 0.00 287.00 750.00" xmlns="http://www.w3.org/2000/svg" xmlns:xlink="http://www.w3.org/1999/xlink">
<g id="graph0" class="graph" transform="scale(1 1) rotate(0) translate(4 746)">
<title>yw_data_view</title>
<polygon fill="white" stroke="none" points="-4,4 -4,-746 283,-746 283,4 -4,4"/>
<text text-anchor="middle" x="139.5" y="-723.6" font-family="Courier,monospace" font-size="18.00">BranchingWorkflow</text>
<g id="clust1" class="cluster"><title>cluster_workflow</title>
<polygon fill="none" stroke="black" stroke-width="2" points="8,-8 8,-652 271,-652 271,-8 8,-8"/>
</g>
<g id="clust2" class="cluster"><title>cluster_workflow_inner</title>
<polygon fill="none" stroke="white" stroke-width="2" points="16,-16 16,-644 263,-644 263,-16 16,-16"/>
</g>
<g id="clust3" class="cluster"><title>cluster_inflows</title>
<polygon fill="none" stroke="white" stroke-width="2" points="97,-660 97,-706 175,-706 175,-660 97,-660"/>
</g>
<g id="clust4" class="cluster"><title>cluster_inflows_inner</title>
<polygon fill="none" stroke="white" stroke-width="2" points="105,-668 105,-698 167,-698 167,-668 105,-668"/>
</g>
<!-- EnvironmentTagger -->
<g id="node1" class="node"><title>EnvironmentTagger</title>
<polygon fill="#ccffcc" stroke="black" points="218.25,-276 59.75,-276 59.75,-240 218.25,-240 218.25,-276"/>
<text text-anchor="middle" x="139" y="-254.3" font-family="Courier,monospace" font-size="14.00">EnvironmentTagger</text>
</g>
<!-- TaggedDataRecord -->
<g id="node8" class="node"><title>TaggedDataRecord</title>
<path fill="#ffffcc" stroke="black" d="M196.25,-204C196.25,-204 81.75,-204 81.75,-204 75.75,-204 69.75,-198 69.75,-192 69.75,-192 69.75,-180 69.75,-180 69.75,-174 75.75,-168 81.75,-168 81.75,-168 196.25,-168 196.25,-168 202.25,-168 208.25,-174 208.25,-180 208.25,-180 208.25,-192 208.25,-192 208.25,-198 202.25,-204 196.25,-204"/>
<text text-anchor="middle" x="139" y="-182.3" font-family="Helvetica,sans-Serif" font-size="14.00">TaggedDataRecord</text>
</g>
<!-- EnvironmentTagger&#45;&gt;TaggedDataRecord -->
<g id="edge8" class="edge"><title>EnvironmentTagger&#45;&gt;TaggedDataRecord</title>
<path fill="none" stroke="black" d="M139,-239.697C139,-231.983 139,-222.712 139,-214.112"/>
<polygon fill="black" stroke="black" points="142.5,-214.104 139,-204.104 135.5,-214.104 142.5,-214.104"/>
</g>
<!-- FileToDataStream -->
<g id="node2" class="node"><title>FileToDataStream</title>
<polygon fill="#ccffcc" stroke="black" points="214.25,-420 63.75,-420 63.75,-384 214.25,-384 214.25,-420"/>
<text text-anchor="middle" x="139" y="-398.3" font-family="Courier,monospace" font-size="14.00">FileToDataStream</text>
</g>
<!-- DataRecord -->
<g id="node7" class="node"><title>DataRecord</title>
<path fill="#ffffcc" stroke="black" d="M172.25,-348C172.25,-348 105.75,-348 105.75,-348 99.75,-348 93.75,-342 93.75,-336 93.75,-336 93.75,-324 93.75,-324 93.75,-318 99.75,-312 105.75,-312 105.75,-312 172.25,-312 172.25,-312 178.25,-312 184.25,-318 184.25,-324 184.25,-324 184.25,-336 184.25,-336 184.25,-342 178.25,-348 172.25,-348"/>
<text text-anchor="middle" x="139" y="-326.3" font-family="Helvetica,sans-Serif" font-size="14.00">DataRecord</text>
</g>
<!-- FileToDataStream&#45;&gt;DataRecord -->
<g id="edge7" class="edge"><title>FileToDataStream&#45;&gt;DataRecord</title>
<path fill="none" stroke="black" d="M139,-383.697C139,-375.983 139,-366.712 139,-358.112"/>
<polygon fill="black" stroke="black" points="142.5,-358.104 139,-348.104 135.5,-358.104 142.5,-358.104"/>
</g>
<!-- Setup -->
<g id="node3" class="node"><title>Setup</title>
<polygon fill="#ccffcc" stroke="black" points="168.25,-564 109.75,-564 109.75,-528 168.25,-528 168.25,-564"/>
<text text-anchor="middle" x="139" y="-542.3" font-family="Courier,monospace" font-size="14.00">Setup</text>
</g>
<!-- OccurrenceFile -->
<g id="node6" class="node"><title>OccurrenceFile</title>
<path fill="#ffffcc" stroke="black" d="M182.25,-492C182.25,-492 95.75,-492 95.75,-492 89.75,-492 83.75,-486 83.75,-480 83.75,-480 83.75,-468 83.75,-468 83.75,-462 89.75,-456 95.75,-456 95.75,-456 182.25,-456 182.25,-456 188.25,-456 194.25,-462 194.25,-468 194.25,-468 194.25,-480 194.25,-480 194.25,-486 188.25,-492 182.25,-492"/>
<text text-anchor="middle" x="139" y="-470.3" font-family="Helvetica,sans-Serif" font-size="14.00">OccurrenceFile</text>
</g>
<!-- Setup&#45;&gt;OccurrenceFile -->
<g id="edge6" class="edge"><title>Setup&#45;&gt;OccurrenceFile</title>
<path fill="none" stroke="black" d="M139,-527.697C139,-519.983 139,-510.712 139,-502.112"/>
<polygon fill="black" stroke="black" points="142.5,-502.104 139,-492.104 135.5,-502.104 142.5,-502.104"/>
</g>
<!-- FilterToJustMarine -->
<g id="node4" class="node"><title>FilterToJustMarine</title>
<polygon fill="#ccffcc" stroke="black" points="223,-132 55,-132 55,-96 223,-96 223,-132"/>
<text text-anchor="middle" x="139" y="-110.3" font-family="Courier,monospace" font-size="14.00">FilterToJustMarine</text>
</g>
<!-- MarineDataRecord -->
<g id="node9" class="node"><title>MarineDataRecord</title>
<path fill="#ffffcc" stroke="black" d="M194,-60C194,-60 84,-60 84,-60 78,-60 72,-54 72,-48 72,-48 72,-36 72,-36 72,-30 78,-24 84,-24 84,-24 194,-24 194,-24 200,-24 206,-30 206,-36 206,-36 206,-48 206,-48 206,-54 200,-60 194,-60"/>
<text text-anchor="middle" x="139" y="-38.3" font-family="Helvetica,sans-Serif" font-size="14.00">MarineDataRecord</text>
</g>
<!-- FilterToJustMarine&#45;&gt;MarineDataRecord -->
<g id="edge9" class="edge"><title>FilterToJustMarine&#45;&gt;MarineDataRecord</title>
<path fill="none" stroke="black" d="M139,-95.6966C139,-87.9827 139,-78.7125 139,-70.1124"/>
<polygon fill="black" stroke="black" points="142.5,-70.1043 139,-60.1043 135.5,-70.1044 142.5,-70.1043"/>
</g>
<!-- DarwinCoreFile -->
<g id="node5" class="node"><title>DarwinCoreFile</title>
<path fill="#ffffcc" stroke="black" d="M242.25,-636C242.25,-636 153.75,-636 153.75,-636 147.75,-636 141.75,-630 141.75,-624 141.75,-624 141.75,-612 141.75,-612 141.75,-606 147.75,-600 153.75,-600 153.75,-600 242.25,-600 242.25,-600 248.25,-600 254.25,-606 254.25,-612 254.25,-612 254.25,-624 254.25,-624 254.25,-630 248.25,-636 242.25,-636"/>
<text text-anchor="middle" x="198" y="-614.3" font-family="Helvetica,sans-Serif" font-size="14.00">DarwinCoreFile</text>
</g>
<!-- DarwinCoreFile&#45;&gt;Setup -->
<g id="edge4" class="edge"><title>DarwinCoreFile&#45;&gt;Setup</title>
<path fill="none" stroke="black" d="M183.416,-599.697C176.342,-591.305 167.717,-581.07 159.955,-571.861"/>
<polygon fill="black" stroke="black" points="162.537,-569.495 153.417,-564.104 157.185,-574.006 162.537,-569.495"/>
</g>
<!-- OccurrenceFile&#45;&gt;FileToDataStream -->
<g id="edge3" class="edge"><title>OccurrenceFile&#45;&gt;FileToDataStream</title>
<path fill="none" stroke="black" d="M139,-455.697C139,-447.983 139,-438.712 139,-430.112"/>
<polygon fill="black" stroke="black" points="142.5,-430.104 139,-420.104 135.5,-430.104 142.5,-430.104"/>
</g>
<!-- DataRecord&#45;&gt;EnvironmentTagger -->
<g id="edge2" class="edge"><title>DataRecord&#45;&gt;EnvironmentTagger</title>
<path fill="none" stroke="black" d="M139,-311.697C139,-303.983 139,-294.712 139,-286.112"/>
<polygon fill="black" stroke="black" points="142.5,-286.104 139,-276.104 135.5,-286.104 142.5,-286.104"/>
</g>
<!-- TaggedDataRecord&#45;&gt;FilterToJustMarine -->
<g id="edge1" class="edge"><title>TaggedDataRecord&#45;&gt;FilterToJustMarine</title>
<path fill="none" stroke="black" d="M139,-167.697C139,-159.983 139,-150.712 139,-142.112"/>
<polygon fill="black" stroke="black" points="142.5,-142.104 139,-132.104 135.5,-142.104 142.5,-142.104"/>
</g>
<!-- InputFilePath -->
<g id="node10" class="node"><title>InputFilePath</title>
<path fill="#ffffff" stroke="black" d="M111.25,-636C111.25,-636 36.75,-636 36.75,-636 30.75,-636 24.75,-630 24.75,-624 24.75,-624 24.75,-612 24.75,-612 24.75,-606 30.75,-600 36.75,-600 36.75,-600 111.25,-600 111.25,-600 117.25,-600 123.25,-606 123.25,-612 123.25,-612 123.25,-624 123.25,-624 123.25,-630 117.25,-636 111.25,-636"/>
<text text-anchor="middle" x="74" y="-614.3" font-family="Helvetica,sans-Serif" font-size="14.00">InputFilePath</text>
</g>
<!-- InputFilePath&#45;&gt;Setup -->
<g id="edge5" class="edge"><title>InputFilePath&#45;&gt;Setup</title>
<path fill="none" stroke="black" d="M90.0674,-599.697C97.9388,-591.22 107.555,-580.864 116.173,-571.583"/>
<polygon fill="black" stroke="black" points="118.878,-573.814 123.117,-564.104 113.748,-569.051 118.878,-573.814"/>
</g>
<!-- DarwinCoreFile_inflow -->
<g id="node11" class="node"><title>DarwinCoreFile_inflow</title>
<ellipse fill="none" stroke="black" cx="152" cy="-683" rx="7" ry="7"/>
</g>
<!-- DarwinCoreFile_inflow&#45;&gt;DarwinCoreFile -->
<g id="edge10" class="edge"><title>DarwinCoreFile_inflow&#45;&gt;DarwinCoreFile</title>
<path fill="none" stroke="black" d="M155.922,-676.629C161.132,-669.493 170.692,-656.4 179.384,-644.496"/>
<polygon fill="black" stroke="black" points="182.415,-646.28 185.485,-636.14 176.762,-642.152 182.415,-646.28"/>
</g>
<!-- InputFilePath_inflow -->
<g id="node12" class="node"><title>InputFilePath_inflow</title>
<ellipse fill="none" stroke="black" cx="120" cy="-683" rx="7" ry="7"/>
</g>
<!-- InputFilePath_inflow&#45;&gt;InputFilePath -->
<g id="edge11" class="edge"><title>InputFilePath_inflow&#45;&gt;InputFilePath</title>
<path fill="none" stroke="black" d="M116.078,-676.629C110.868,-669.493 101.308,-656.4 92.616,-644.496"/>
<polygon fill="black" stroke="black" points="95.2383,-642.152 86.5146,-636.14 89.5849,-646.28 95.2383,-642.152"/>
</g>
</g>
</svg>
